<svg width="72" height="72" viewBox="0 0 72 72" fill="none" xmlns="http://www.w3.org/2000/svg">
<mask id="path-1-inside-1" fill="white">
<path d="M61.672 47.6975C60.723 50.2168 59.2871 52.5245 57.4462 54.4889C55.6054 56.4532 53.3956 58.0358 50.9432 59.1461L42.4879 40.4711L61.672 47.6975Z"/>
</mask>
<path d="M61.672 47.6975C60.723 50.2168 59.2871 52.5245 57.4462 54.4889C55.6054 56.4532 53.3956 58.0358 50.9432 59.1461L42.4879 40.4711L61.672 47.6975Z" fill="black" stroke="black" stroke-width="4" mask="url(#path-1-inside-1)"/>
<mask id="path-2-inside-2" fill="white">
<path d="M44.5412 58.2705C39.4799 60.2803 33.8932 60.5465 28.6637 59.027C23.4341 57.5076 18.8599 54.2891 15.6636 49.88C12.4672 45.471 10.831 40.1227 11.0132 34.6799C11.1955 29.2372 13.186 24.0103 16.6702 19.825C20.1543 15.6397 24.9337 12.7345 30.2531 11.5683C35.5726 10.4022 41.1289 11.0415 46.0445 13.3854C50.96 15.7293 54.9546 19.6442 57.3971 24.5115C59.8395 29.3788 60.5908 34.9211 59.5321 40.263L39.2992 36.2531C39.4666 35.4085 39.3478 34.5322 38.9616 33.7627C38.5754 32.9931 37.9439 32.3742 37.1667 32.0036C36.3895 31.633 35.5111 31.5319 34.67 31.7163C33.829 31.9007 33.0734 32.36 32.5225 33.0217C31.9716 33.6834 31.6569 34.5098 31.6281 35.3703C31.5993 36.2309 31.858 37.0765 32.3634 37.7736C32.8687 38.4706 33.5919 38.9795 34.4187 39.2197C35.2455 39.46 36.1288 39.4179 36.9291 39.1001L44.5412 58.2705Z"/>
</mask>
<path d="M44.5412 58.2705C39.4799 60.2803 33.8932 60.5465 28.6637 59.027C23.4341 57.5076 18.8599 54.2891 15.6636 49.88C12.4672 45.471 10.831 40.1227 11.0132 34.6799C11.1955 29.2372 13.186 24.0103 16.6702 19.825C20.1543 15.6397 24.9337 12.7345 30.2531 11.5683C35.5726 10.4022 41.1289 11.0415 46.0445 13.3854C50.96 15.7293 54.9546 19.6442 57.3971 24.5115C59.8395 29.3788 60.5908 34.9211 59.5321 40.263L39.2992 36.2531C39.4666 35.4085 39.3478 34.5322 38.9616 33.7627C38.5754 32.9931 37.9439 32.3742 37.1667 32.0036C36.3895 31.633 35.5111 31.5319 34.67 31.7163C33.829 31.9007 33.0734 32.36 32.5225 33.0217C31.9716 33.6834 31.6569 34.5098 31.6281 35.3703C31.5993 36.2309 31.858 37.0765 32.3634 37.7736C32.8687 38.4706 33.5919 38.9795 34.4187 39.2197C35.2455 39.46 36.1288 39.4179 36.9291 39.1001L44.5412 58.2705Z" fill="black" stroke="black" stroke-width="4" mask="url(#path-2-inside-2)"/>
<circle cx="35.9995" cy="36" r="4" fill="black" stroke="white" stroke-width="2"/>
</svg>
