<svg width="139" height="48" viewBox="0 0 139 48" fill="none" xmlns="http://www.w3.org/2000/svg">
<path d="M73.0957 13.4287C73.0957 14.9244 71.8908 16.1293 70.395 16.1293C68.8993 16.1293 67.6944 14.9244 67.6944 13.4287C67.6944 11.9329 68.8577 10.728 70.395 10.728C71.9323 10.7696 73.0957 11.9745 73.0957 13.4287ZM61.9607 18.8715V19.5363C61.9607 19.5363 60.6727 17.8743 57.9305 17.8743C53.4017 17.8743 49.8701 21.3229 49.8701 26.1009C49.8701 30.8375 53.3602 34.3275 57.9305 34.3275C60.7142 34.3275 61.9607 32.624 61.9607 32.624V33.3304C61.9607 33.6627 62.21 33.912 62.5424 33.912H65.9078V18.2898H62.5424C62.21 18.2898 61.9607 18.5807 61.9607 18.8715ZM61.9607 28.8847C61.3375 29.7987 60.091 30.5882 58.5953 30.5882C55.9362 30.5882 53.9003 28.9262 53.9003 26.1009C53.9003 23.2756 55.9362 21.6137 58.5953 21.6137C60.0495 21.6137 61.379 22.4447 61.9607 23.3172V28.8847ZM68.4007 18.2898H72.3893V33.912H68.4007V18.2898ZM127.981 17.8743C125.239 17.8743 123.951 19.5363 123.951 19.5363V10.7696H119.962V33.912H123.328C123.66 33.912 123.909 33.6212 123.909 33.3304V32.624C123.909 32.624 125.197 34.3275 127.94 34.3275C132.468 34.3275 136 30.8375 136 26.1009C136 21.3644 132.468 17.8743 127.981 17.8743ZM127.316 30.5466C125.779 30.5466 124.574 29.7572 123.951 28.8431V23.2756C124.574 22.4447 125.904 21.5722 127.316 21.5722C129.975 21.5722 132.011 23.2341 132.011 26.0594C132.011 28.8847 129.975 30.5466 127.316 30.5466ZM117.885 24.6467V33.9536H113.896V25.1038C113.896 22.5278 113.065 21.4891 110.822 21.4891C109.617 21.4891 108.37 22.1123 107.581 23.0263V33.912H103.592V18.2898H106.75C107.082 18.2898 107.332 18.5807 107.332 18.8715V19.5363C108.495 18.3314 110.032 17.8743 111.57 17.8743C113.315 17.8743 114.769 18.3729 115.932 19.3701C117.345 20.5334 117.885 22.0292 117.885 24.6467ZM93.9114 17.8743C91.1692 17.8743 89.8812 19.5363 89.8812 19.5363V10.7696H85.8926V33.912H89.258C89.5904 33.912 89.8397 33.6212 89.8397 33.3304V32.624C89.8397 32.624 91.1277 34.3275 93.8699 34.3275C98.3987 34.3275 101.93 30.8375 101.93 26.1009C101.972 21.3644 98.4402 17.8743 93.9114 17.8743ZM93.2467 30.5466C91.7094 30.5466 90.5045 29.7572 89.8812 28.8431V23.2756C90.5045 22.4447 91.834 21.5722 93.2467 21.5722C95.9058 21.5722 97.9416 23.2341 97.9416 26.0594C97.9416 28.8847 95.9058 30.5466 93.2467 30.5466ZM82.4441 17.8743C83.649 17.8743 84.2722 18.0821 84.2722 18.0821V21.7799C84.2722 21.7799 80.9483 20.6581 78.8709 23.0263V33.9536H74.8823V18.2898H78.2477C78.5801 18.2898 78.8294 18.5807 78.8294 18.8715V19.5363C79.5772 18.6638 81.1976 17.8743 82.4441 17.8743ZM41.0203 32.4994C40.8125 32.0008 40.6048 31.4607 40.3971 31.0036C40.0647 30.2558 39.7323 29.5494 39.4414 28.8847L39.3999 28.8431C36.533 22.6109 33.4585 16.2955 30.2177 10.0632L30.093 9.81394C29.7607 9.19072 29.4283 8.52594 29.0959 7.86117C28.6804 7.1133 28.2649 6.32387 27.6001 5.576C26.2706 3.91407 24.3594 3 22.3235 3C20.2461 3 18.3764 3.91407 17.0053 5.49291C16.3821 6.24078 15.925 7.0302 15.5095 7.77807C15.1772 8.44284 14.8448 9.10762 14.5124 9.73085L14.3877 9.98014C11.1885 16.2124 8.07237 22.5278 5.20553 28.76L5.16398 28.8431C4.87314 29.5079 4.54075 30.2142 4.20837 30.9621C4.00062 31.4191 3.79288 31.9177 3.58514 32.4578C3.04501 33.9951 2.87882 35.4493 3.08656 36.9451C3.54359 40.0612 5.62101 42.6788 8.48786 43.8421C9.56811 44.2991 10.6899 44.5069 11.8533 44.5069C12.1857 44.5069 12.6012 44.4653 12.9335 44.4238C14.3046 44.2576 15.7173 43.8006 17.0884 43.0111C18.7919 42.0555 20.4123 40.6844 22.2404 38.6901C24.0685 40.6844 25.7305 42.0555 27.3924 43.0111C28.7635 43.8006 30.1761 44.2576 31.5472 44.4238C31.8796 44.4653 32.2951 44.5069 32.6275 44.5069C33.7908 44.5069 34.9542 44.2991 35.9929 43.8421C38.9013 42.6788 40.9372 40.0197 41.3942 36.9451C41.7266 35.4909 41.5604 34.0367 41.0203 32.4994ZM22.2819 34.6599C20.0383 31.8346 18.5841 29.1755 18.0855 26.9319C17.8778 25.9763 17.8363 25.1453 17.9609 24.3974C18.044 23.7327 18.2933 23.151 18.6257 22.6524C19.4151 21.5306 20.7446 20.8243 22.2819 20.8243C23.8192 20.8243 25.1903 21.4891 25.9382 22.6524C26.2706 23.151 26.5199 23.7327 26.603 24.3974C26.7276 25.1453 26.6861 26.0178 26.4783 26.9319C25.9797 29.134 24.5256 31.7931 22.2819 34.6599ZM38.8598 36.6127C38.5689 38.7732 37.1147 40.6429 35.0788 41.4739C34.0817 41.8893 33.0014 42.014 31.9212 41.8893C30.8825 41.7647 29.8438 41.4323 28.7635 40.8091C27.2677 39.9781 25.772 38.6901 24.027 36.7789C26.7692 33.4135 28.4311 30.3389 29.0543 27.5967C29.3452 26.3087 29.3867 25.1453 29.2621 24.0651C29.0959 23.0263 28.7219 22.0707 28.1403 21.2398C26.8523 19.3701 24.6917 18.2898 22.2819 18.2898C19.8721 18.2898 17.7116 19.4116 16.4236 21.2398C15.8419 22.0707 15.468 23.0263 15.3018 24.0651C15.1356 25.1453 15.1772 26.3502 15.5095 27.5967C16.1328 30.3389 17.8363 33.455 20.5369 36.8204C18.8334 38.7317 17.2961 40.0197 15.8004 40.8506C14.7201 41.4739 13.6814 41.8062 12.6427 41.9309C11.5209 42.0555 10.4406 41.8893 9.48502 41.5154C7.44914 40.6844 5.99495 38.8148 5.70411 36.6542C5.57947 35.6155 5.66256 34.5768 6.07805 33.4135C6.20269 32.998 6.41043 32.5825 6.61818 32.0839C6.90901 31.4191 7.2414 30.7128 7.57379 30.0065L7.61534 29.9234C10.4822 23.7327 13.5568 17.4173 16.756 11.2681L16.8806 11.0188C17.213 10.3956 17.5454 9.73085 17.8778 9.10762C18.2102 8.44284 18.5841 7.81962 19.0412 7.27949C19.9137 6.28233 21.077 5.7422 22.365 5.7422C23.653 5.7422 24.8164 6.28233 25.6889 7.27949C26.1459 7.81962 26.5199 8.44284 26.8523 9.10762C27.1847 9.73085 27.517 10.3956 27.8494 11.0188L27.9741 11.2681C31.1318 17.4589 34.2063 23.7742 37.0732 29.9649V30.0065C37.4056 30.6713 37.6964 31.4191 38.0288 32.0839C38.2365 32.5825 38.4443 32.998 38.5689 33.4135C38.9013 34.4937 39.026 35.5324 38.8598 36.6127Z" fill="black"/>
</svg>
