<svg width="149" height="148" viewBox="0 0 149 148" fill="none" xmlns="http://www.w3.org/2000/svg">
<path d="M69 2.4641C72.7128 0.32051 77.2872 0.320508 81 2.4641L133.519 32.7859C137.232 34.9295 139.519 38.891 139.519 43.1782V103.822C139.519 108.109 137.232 112.071 133.519 114.214L81 144.536C77.2872 146.679 72.7128 146.679 69 144.536L16.4811 114.214C12.7683 112.071 10.4811 108.109 10.4811 103.822V43.1782C10.4811 38.891 12.7683 34.9295 16.4811 32.7859L69 2.4641Z" fill="#FEFFBA"/>
<path fill-rule="evenodd" clip-rule="evenodd" d="M86.6298 72.9116L73.5797 59.8616C73.0044 59.2863 73.0044 58.3535 73.5797 57.7782C74.155 57.2029 75.0877 57.2029 75.663 57.7782L92.2695 74.3848L75.663 90.9913C75.0877 91.5666 74.155 91.5666 73.5797 90.9913C73.0044 90.416 73.0044 89.4833 73.5797 88.908L86.6298 75.8579L58.4463 75.8579C57.6327 75.8579 56.9731 75.1984 56.9731 74.3848C56.9731 73.5712 57.6327 72.9116 58.4463 72.9116L86.6298 72.9116Z" fill="black"/>
</svg>
