<svg width="40" height="40" viewBox="0 0 40 40" fill="none" xmlns="http://www.w3.org/2000/svg">
<circle cx="20.0001" cy="19.9999" r="18.6786" stroke="black" stroke-width="1.5"/>
<path d="M20.6987 10.0045V13.0681H19.192V10.0045H20.6987ZM20.5179 26.4074V29.0893H19.0213V26.4074H20.5179ZM22.5269 23.2333C22.5269 22.8315 22.4365 22.4699 22.2556 22.1484C22.0748 21.827 21.7769 21.5324 21.3617 21.2645C20.9465 20.9967 20.3907 20.7489 19.6943 20.5212C18.8505 20.26 18.1206 19.942 17.5045 19.567C16.8952 19.192 16.4231 18.7266 16.0882 18.1708C15.7601 17.615 15.5961 16.942 15.5961 16.1518C15.5961 15.3281 15.7735 14.6183 16.1284 14.0223C16.4833 13.4263 16.9856 12.9676 17.6351 12.6462C18.2847 12.3248 19.0481 12.1641 19.9253 12.1641C20.6083 12.1641 21.2177 12.2679 21.7534 12.4754C22.2891 12.6763 22.7411 12.9777 23.1094 13.3795C23.4844 13.7813 23.769 14.2734 23.9632 14.856C24.1641 15.4386 24.2646 16.1116 24.2646 16.875H22.4164C22.4164 16.4263 22.3628 16.0145 22.2556 15.6395C22.1485 15.2645 21.9878 14.9397 21.7735 14.6652C21.5592 14.3839 21.2981 14.1696 20.99 14.0223C20.682 13.8683 20.3271 13.7913 19.9253 13.7913C19.3628 13.7913 18.8974 13.8884 18.5291 14.0826C18.1675 14.2768 17.8996 14.5513 17.7255 14.9063C17.5514 15.2545 17.4644 15.6596 17.4644 16.1217C17.4644 16.5502 17.5514 16.9252 17.7255 17.2467C17.8996 17.5681 18.1943 17.8594 18.6094 18.1205C19.0313 18.375 19.6106 18.6261 20.3472 18.8739C21.211 19.1484 21.9443 19.4732 22.5469 19.8482C23.1496 20.2165 23.6083 20.6719 23.9231 21.2143C24.2378 21.75 24.3952 22.4163 24.3952 23.2132C24.3952 24.077 24.201 24.8069 23.8126 25.4029C23.4242 25.9922 22.8784 26.4408 22.1753 26.7489C21.4722 27.0569 20.6485 27.2109 19.7043 27.2109C19.1351 27.2109 18.5726 27.1339 18.0168 26.9799C17.461 26.8259 16.9588 26.5748 16.5101 26.2266C16.0615 25.8717 15.7032 25.4063 15.4353 24.8304C15.1675 24.2478 15.0336 23.5346 15.0336 22.6908H16.9019C16.9019 23.26 16.9822 23.7321 17.1429 24.1071C17.3103 24.4754 17.5313 24.7701 17.8059 24.9911C18.0804 25.2054 18.3818 25.3594 18.7099 25.4531C19.0447 25.5402 19.3762 25.5837 19.7043 25.5837C20.307 25.5837 20.8159 25.49 21.2311 25.3025C21.653 25.1083 21.9744 24.8337 22.1954 24.4788C22.4164 24.1239 22.5269 23.7087 22.5269 23.2333Z" fill="black"/>
</svg>
