<svg width="126" height="25" viewBox="0 0 126 25" fill="none" xmlns="http://www.w3.org/2000/svg">
<path d="M10.528 8.04011C10.528 8.44011 10.464 8.84811 10.336 9.26411C10.208 9.68011 10.016 10.0721 9.75999 10.4401C9.50399 10.7921 9.17599 11.1041 8.77599 11.3761C8.37599 11.6481 7.90399 11.8561 7.35999 12.0001V12.0961C7.83999 12.1761 8.29599 12.3121 8.72799 12.5041C9.17599 12.6961 9.568 12.9601 9.90399 13.2961C10.24 13.6321 10.512 14.0401 10.72 14.5201C10.928 15.0001 11.032 15.5681 11.032 16.2241C11.032 17.0881 10.848 17.8401 10.48 18.4801C10.128 19.1041 9.65599 19.6161 9.06399 20.0161C8.48799 20.4161 7.82399 20.7121 7.07199 20.9041C6.31999 21.0961 5.55199 21.1921 4.76799 21.1921C4.49599 21.1921 4.17599 21.1921 3.80799 21.1921C3.43999 21.1921 3.05599 21.1761 2.65599 21.1441C2.25599 21.1281 1.85599 21.0961 1.45599 21.0481C1.05599 21.0161 0.703994 20.9601 0.399994 20.8801V4.34411C0.991994 4.24811 1.67999 4.16811 2.46399 4.10411C3.24799 4.04011 4.10399 4.00811 5.03199 4.00811C5.65599 4.00811 6.28799 4.06411 6.92799 4.17611C7.58399 4.27211 8.17599 4.47211 8.70399 4.77611C9.23199 5.06411 9.66399 5.47211 9.99999 6.00011C10.352 6.52811 10.528 7.20811 10.528 8.04011ZM4.95999 19.4641C5.47199 19.4641 5.96799 19.4001 6.44799 19.2721C6.92799 19.1441 7.35199 18.9521 7.71999 18.6961C8.08799 18.4401 8.37599 18.1201 8.58399 17.7361C8.80799 17.3521 8.91999 16.8961 8.91999 16.3681C8.91999 15.7121 8.78399 15.1841 8.51199 14.7841C8.25599 14.3841 7.91199 14.0721 7.47999 13.8481C7.06399 13.6241 6.59199 13.4721 6.06399 13.3921C5.53599 13.3121 5.00799 13.2721 4.47999 13.2721H2.39199V19.2961C2.50399 19.3281 2.66399 19.3521 2.87199 19.3681C3.07999 19.3841 3.30399 19.4001 3.54399 19.4161C3.78399 19.4321 4.03199 19.4481 4.28799 19.4641C4.54399 19.4641 4.76799 19.4641 4.95999 19.4641ZM3.63999 11.5921C3.91199 11.5921 4.23999 11.5841 4.62399 11.5681C5.00799 11.5521 5.32799 11.5281 5.58399 11.4961C5.96799 11.3681 6.32799 11.2161 6.66399 11.0401C6.99999 10.8481 7.29599 10.6241 7.55199 10.3681C7.82399 10.1121 8.03199 9.82411 8.17599 9.50411C8.33599 9.18411 8.41599 8.83211 8.41599 8.44811C8.41599 7.92011 8.31199 7.48011 8.10399 7.12811C7.91199 6.77611 7.64799 6.49611 7.31199 6.28811C6.97599 6.08011 6.59199 5.93611 6.15999 5.85611C5.72799 5.77611 5.28799 5.73611 4.83999 5.73611C4.31199 5.73611 3.82399 5.75211 3.37599 5.78411C2.94399 5.80011 2.61599 5.83211 2.39199 5.88011V11.5921H3.63999Z" fill="#FEFEFE"/>
<path d="M13.5426 12.6001C13.5426 9.81611 14.0306 7.67211 15.0066 6.16811C15.9986 4.66411 17.5186 3.91211 19.5666 3.91211C20.6866 3.91211 21.6306 4.12011 22.3986 4.53611C23.1826 4.95211 23.8146 5.54411 24.2946 6.31211C24.7746 7.06411 25.1186 7.97611 25.3266 9.04811C25.5346 10.1041 25.6386 11.2881 25.6386 12.6001C25.6386 15.3841 25.1426 17.5281 24.1506 19.0321C23.1746 20.5361 21.6466 21.2881 19.5666 21.2881C18.4626 21.2881 17.5266 21.0801 16.7586 20.6641C15.9906 20.2481 15.3666 19.6641 14.8866 18.9121C14.4066 18.1441 14.0626 17.2321 13.8546 16.1761C13.6466 15.1041 13.5426 13.9121 13.5426 12.6001ZM15.6546 12.6001C15.6546 13.5281 15.7106 14.4081 15.8226 15.2401C15.9506 16.0721 16.1666 16.8081 16.4706 17.4481C16.7746 18.0721 17.1746 18.5761 17.6706 18.9601C18.1666 19.3281 18.7986 19.5121 19.5666 19.5121C20.9426 19.5121 21.9426 18.9521 22.5666 17.8321C23.2066 16.7121 23.5266 14.9681 23.5266 12.6001C23.5266 11.6881 23.4626 10.8161 23.3346 9.98411C23.2226 9.13611 23.0146 8.40011 22.7106 7.77611C22.4066 7.13611 21.9986 6.63211 21.4866 6.26411C20.9746 5.88011 20.3346 5.68811 19.5666 5.68811C18.2066 5.68811 17.2146 6.25611 16.5906 7.39211C15.9666 8.51211 15.6546 10.2481 15.6546 12.6001Z" fill="#FEFEFE"/>
<path d="M27.9332 12.6001C27.9332 9.81611 28.4212 7.67211 29.3972 6.16811C30.3892 4.66411 31.9092 3.91211 33.9572 3.91211C35.0772 3.91211 36.0212 4.12011 36.7892 4.53611C37.5732 4.95211 38.2052 5.54411 38.6852 6.31211C39.1652 7.06411 39.5092 7.97611 39.7172 9.04811C39.9252 10.1041 40.0292 11.2881 40.0292 12.6001C40.0292 15.3841 39.5332 17.5281 38.5412 19.0321C37.5652 20.5361 36.0372 21.2881 33.9572 21.2881C32.8532 21.2881 31.9172 21.0801 31.1492 20.6641C30.3812 20.2481 29.7572 19.6641 29.2772 18.9121C28.7972 18.1441 28.4532 17.2321 28.2452 16.1761C28.0372 15.1041 27.9332 13.9121 27.9332 12.6001ZM30.0452 12.6001C30.0452 13.5281 30.1012 14.4081 30.2132 15.2401C30.3412 16.0721 30.5572 16.8081 30.8612 17.4481C31.1652 18.0721 31.5652 18.5761 32.0612 18.9601C32.5572 19.3281 33.1892 19.5121 33.9572 19.5121C35.3332 19.5121 36.3332 18.9521 36.9572 17.8321C37.5972 16.7121 37.9172 14.9681 37.9172 12.6001C37.9172 11.6881 37.8532 10.8161 37.7252 9.98411C37.6132 9.13611 37.4052 8.40011 37.1012 7.77611C36.7972 7.13611 36.3892 6.63211 35.8772 6.26411C35.3652 5.88011 34.7252 5.68811 33.9572 5.68811C32.5972 5.68811 31.6052 6.25611 30.9812 7.39211C30.3572 8.51211 30.0452 10.2481 30.0452 12.6001Z" fill="#FEFEFE"/>
<path d="M47.0519 13.2241H45.2039V21.0001H43.2119V4.20011H45.2039V11.6881H47.0039L52.4039 4.20011H54.7079L48.7799 12.1921L55.4519 21.0001H52.9319L47.0519 13.2241Z" fill="#FEFEFE"/>
<path d="M59.1625 18.6241C59.6425 18.8801 60.1785 19.0961 60.7705 19.2721C61.3785 19.4321 61.9865 19.5121 62.5945 19.5121C63.1225 19.5121 63.6185 19.4641 64.0825 19.3681C64.5465 19.2561 64.9465 19.0881 65.2825 18.8641C65.6345 18.6241 65.9065 18.3281 66.0985 17.9761C66.3065 17.6241 66.4105 17.2081 66.4105 16.7281C66.4105 16.0721 66.1865 15.5361 65.7385 15.1201C65.3065 14.7041 64.7625 14.3361 64.1065 14.0161C63.4505 13.6961 62.7385 13.3841 61.9705 13.0801C61.2025 12.7761 60.4905 12.4161 59.8345 12.0001C59.1785 11.5841 58.6265 11.0801 58.1785 10.4881C57.7465 9.88011 57.5305 9.11211 57.5305 8.18411C57.5305 7.52811 57.6585 6.93611 57.9145 6.40811C58.1865 5.88011 58.5625 5.43211 59.0425 5.06411C59.5225 4.69611 60.0985 4.41611 60.7705 4.22411C61.4585 4.01611 62.2185 3.91211 63.0505 3.91211C64.0105 3.91211 64.8825 3.98411 65.6665 4.12811C66.4505 4.25611 67.0745 4.43211 67.5385 4.65611L67.5865 4.63211V4.68011H67.6105L67.5865 4.75211V8.59211H65.8105V6.02411C65.4105 5.92811 64.9705 5.84811 64.4905 5.78411C64.0105 5.72011 63.4985 5.68811 62.9545 5.68811C62.4265 5.68811 61.9465 5.75211 61.5145 5.88011C61.0985 6.00811 60.7385 6.18411 60.4345 6.40811C60.1465 6.61611 59.9225 6.86411 59.7625 7.15211C59.6025 7.44011 59.5225 7.74411 59.5225 8.06411C59.5225 8.68811 59.7385 9.20811 60.1705 9.62411C60.6185 10.0401 61.1705 10.4161 61.8265 10.7521C62.4825 11.0721 63.1945 11.3921 63.9625 11.7121C64.7305 12.0321 65.4425 12.4081 66.0985 12.8401C66.7545 13.2561 67.2985 13.7601 67.7305 14.3521C68.1785 14.9441 68.4025 15.6801 68.4025 16.5601C68.4025 17.2801 68.2665 17.9281 67.9945 18.5041C67.7385 19.0801 67.3625 19.5761 66.8665 19.9921C66.3865 20.4081 65.7865 20.7281 65.0665 20.9521C64.3625 21.1761 63.5625 21.2881 62.6665 21.2881C62.0585 21.2881 61.4825 21.2401 60.9385 21.1441C60.3945 21.0481 59.8905 20.9281 59.4265 20.7841C58.9785 20.6401 58.5705 20.4881 58.2025 20.3281C57.8505 20.1681 57.5705 20.0321 57.3625 19.9201L57.3865 19.8481V15.9601H59.1625V18.6241Z" fill="#FEFEFE"/>
<path d="M70.9131 4.20011H83.3931V8.59211H81.6171V5.97611H78.1371V19.2241H80.7771V21.0001H73.5051V19.2241H76.1451V5.97611H72.6891V8.59211H70.9131V4.20011Z" fill="#FEFEFE"/>
<path d="M85.4957 12.6001C85.4957 9.81611 85.9837 7.67211 86.9597 6.16811C87.9517 4.66411 89.4717 3.91211 91.5197 3.91211C92.6397 3.91211 93.5837 4.12011 94.3517 4.53611C95.1357 4.95211 95.7677 5.54411 96.2477 6.31211C96.7277 7.06411 97.0717 7.97611 97.2797 9.04811C97.4877 10.1041 97.5917 11.2881 97.5917 12.6001C97.5917 15.3841 97.0957 17.5281 96.1037 19.0321C95.1277 20.5361 93.5997 21.2881 91.5197 21.2881C90.4157 21.2881 89.4797 21.0801 88.7117 20.6641C87.9437 20.2481 87.3197 19.6641 86.8397 18.9121C86.3597 18.1441 86.0157 17.2321 85.8077 16.1761C85.5997 15.1041 85.4957 13.9121 85.4957 12.6001ZM87.6077 12.6001C87.6077 13.5281 87.6637 14.4081 87.7757 15.2401C87.9037 16.0721 88.1197 16.8081 88.4237 17.4481C88.7277 18.0721 89.1277 18.5761 89.6237 18.9601C90.1197 19.3281 90.7517 19.5121 91.5197 19.5121C92.8957 19.5121 93.8957 18.9521 94.5197 17.8321C95.1597 16.7121 95.4797 14.9681 95.4797 12.6001C95.4797 11.6881 95.4157 10.8161 95.2877 9.98411C95.1757 9.13611 94.9677 8.40011 94.6637 7.77611C94.3597 7.13611 93.9517 6.63211 93.4397 6.26411C92.9277 5.88011 92.2877 5.68811 91.5197 5.68811C90.1597 5.68811 89.1677 6.25611 88.5437 7.39211C87.9197 8.51211 87.6077 10.2481 87.6077 12.6001Z" fill="#FEFEFE"/>
<path d="M101.134 4.36811C101.742 4.25611 102.438 4.16811 103.222 4.10411C104.022 4.04011 104.75 4.00811 105.406 4.00811C106.142 4.00811 106.838 4.08811 107.494 4.24811C108.166 4.40811 108.75 4.67211 109.246 5.04011C109.758 5.40811 110.166 5.88811 110.47 6.48011C110.774 7.07211 110.926 7.79211 110.926 8.64011C110.926 9.29611 110.814 9.88011 110.59 10.3921C110.382 10.8881 110.118 11.3201 109.798 11.6881C109.494 12.0401 109.174 12.3281 108.838 12.5521C108.502 12.7761 108.214 12.9361 107.974 13.0321L112.414 21.0001H110.086L106.126 13.6081H103.126V21.0001H101.134V4.36811ZM105.454 5.73611C105.246 5.73611 105.03 5.73611 104.806 5.73611C104.582 5.73611 104.366 5.74411 104.158 5.76011C103.95 5.77611 103.75 5.79211 103.558 5.80811C103.382 5.82411 103.238 5.84811 103.126 5.88011V12.0721H104.998C106.102 12.0721 107.014 11.8001 107.734 11.2561C108.454 10.7121 108.814 9.86411 108.814 8.71211C108.814 7.84811 108.518 7.13611 107.926 6.57611C107.334 6.01611 106.51 5.73611 105.454 5.73611Z" fill="#FEFEFE"/>
<path d="M115.693 4.20011H125.557V5.97611H117.685V11.4721H124.957V13.2481H117.685V19.2241H125.677V21.0001H115.693V4.20011Z" fill="#FEFEFE"/>
</svg>
