<svg width="96" height="96" viewBox="0 0 96 96" fill="none" xmlns="http://www.w3.org/2000/svg">
<path d="M84.5697 90.7272C77.302 94.8247 64.8262 96 47.5736 96C30.321 96 17.8452 94.8247 10.5776 90.7272C6.21049 88.2687 4 84.9152 4 82.5214C4 81.152 4.72245 80.3756 6.35067 80.3756H88.7858C90.4033 80.3756 91.1365 81.1628 91.1365 82.5214C91.1473 84.9152 88.9368 88.2687 84.5697 90.7272ZM88.7966 27.0543H6.35067C4.73324 27.0543 4 26.2132 4 24.7144C4 15.7754 17.4463 0 47.5736 0C77.4099 0 91.1473 15.7754 91.1473 24.7144C91.1473 26.224 90.414 27.0543 88.7966 27.0543Z" fill="#FEFEFE"/>
<path d="M21.5631 63.9214C21.3151 63.5332 21.2828 63.2744 21.2828 63.1666C21.2828 62.8647 21.4553 62.6382 21.7896 62.3255C22.5767 61.6031 24.5068 59.7808 25.5636 58.1418C26.3723 56.8802 26.7066 55.7372 26.7066 54.7883C26.7066 52.3621 24.4961 50.4644 22.0915 50.4644C20.5495 50.4644 19.1046 51.327 18.1234 52.9229C16.8079 55.0471 15.2443 57.5056 14.2415 58.476C13.9935 58.724 13.8534 58.778 13.6593 58.778C13.325 58.778 13.1848 58.5515 13.1848 58.1957V55.4029C13.1848 52.6641 11.5674 50.4644 8.62366 50.4644C5.65837 50.4644 4.0625 52.6748 4.0625 55.4029V72.6016C4.0625 75.3405 5.65837 77.5402 8.62366 77.5402C11.5566 77.5402 13.1848 75.3297 13.1848 72.6016V68.6335C13.1848 68.2992 13.325 68.0512 13.6593 68.0512C14.1014 68.0512 14.22 68.4933 14.3278 68.7198C14.9748 70.2509 16.8402 73.5182 18.5763 75.4483C19.7516 76.7315 21.2073 77.5402 22.7385 77.5402C25.3371 77.5402 27.5261 75.2758 27.5261 72.8496C27.5261 71.34 26.8791 70.2294 25.6498 68.8815C24.0863 67.1886 22.2317 64.9458 21.5631 63.9214Z" fill="#FEFEFE"/>
<path d="M56.4379 48.8693C60.8265 48.8693 63.5977 46.0765 63.5977 42.0006C63.5977 39.4019 62.0342 37.612 58.8964 37.612H58.0014C56.3516 37.612 55.0685 38.3991 55.0685 40.1567C55.0685 41.7203 56.4379 42.4751 57.473 42.4751C58.0014 42.4751 58.3357 42.6476 58.3357 43.0358C58.3357 43.5426 57.7534 43.8768 57.0741 43.8768C54.9714 43.8768 53.5481 42.3996 53.5481 39.6284C53.5481 36.5553 55.5106 35.4446 57.0202 35.4446C58.864 35.4446 59.1767 36.3935 60.4599 36.3935C61.9372 36.3935 62.9508 35.1643 62.9508 33.8811C62.9508 32.9322 62.5302 32.2098 61.8832 31.703C60.7079 30.8403 59.0581 30.1934 56.5996 30.1934C52.2649 30.1934 48.038 33.04 48.038 39.6284C48.0488 45.9364 52.2757 48.8693 56.4379 48.8693Z" fill="#FEFEFE"/>
<path d="M7.27608 48.6962H11.2226C14.9427 48.6962 17.2071 46.2054 17.2071 43.1107C17.2071 40.6198 15.7299 39.4768 15.3848 39.1965C15.2446 39.0887 15.1045 38.9701 15.1045 38.8622C15.1045 38.722 15.1907 38.6681 15.3309 38.4956C15.8593 37.881 16.3984 36.8997 16.3984 35.4764C16.3984 32.1229 14.134 30.3438 10.608 30.3438H7.27608C5.06559 30.3438 4.00887 31.6269 4.00887 33.363V45.6878C3.99809 47.4131 5.06559 48.6962 7.27608 48.6962ZM8.92586 35.1529C8.92586 34.7863 9.15231 34.5059 9.62675 34.5059H9.99337C11.1903 34.5059 11.5569 35.347 11.5569 36.0695C11.5569 36.738 11.1903 37.6869 9.99337 37.6869H9.62675C9.15231 37.6869 8.92586 37.4065 8.92586 37.0399V35.1529ZM8.92586 41.6873C8.92586 41.3207 9.15231 41.0404 9.62675 41.0404H10.1335C11.4814 41.0404 11.8696 41.9353 11.8696 42.7441C11.8696 43.4665 11.4814 44.5017 10.1335 44.5017H9.62675C9.15231 44.5017 8.92586 44.2213 8.92586 43.8547V41.6873Z" fill="#FEFEFE"/>
<path d="M80.2917 48.8353C82.0817 48.8353 83.0629 47.4983 83.0629 45.8161V42.8616C83.0629 42.495 83.2354 42.3333 83.505 42.3333C83.8393 42.3333 83.9471 42.5273 84.0118 42.8616C84.2598 44.285 84.9391 46.2151 85.6939 47.1856C86.6428 48.4472 87.5378 48.8353 88.4328 48.8353C89.8885 48.8353 91.1501 47.6923 91.1501 46.269C91.1501 45.3201 90.7619 44.6192 90.2551 43.983C89.3062 42.7861 88.7131 41.999 88.3573 41.0285C88.271 40.8021 88.325 40.608 88.5837 40.4139C89.4464 39.7454 90.46 38.2681 90.46 35.9174C90.46 32.3699 87.527 30.3643 83.9687 30.3643H80.8093C78.5988 30.3643 77.5421 31.6474 77.5421 33.3835V45.8377C77.5313 47.4983 78.5018 48.8353 80.2917 48.8353ZM82.761 35.6371C82.761 35.2705 82.9874 34.9901 83.4619 34.9901H83.8501C85.0254 34.9901 85.392 35.8312 85.392 36.5536C85.392 37.2545 85.0254 38.1711 83.8501 38.1711H83.4619C82.9874 38.1711 82.761 37.8907 82.761 37.5241V35.6371Z" fill="#FEFEFE"/>
<path d="M34.3192 50.4644C31.1921 50.4644 29.4777 52.8042 29.4777 55.7372V72.2673C29.4777 75.2003 31.1814 77.5402 34.3192 77.5402C37.4462 77.5402 39.1607 75.2003 39.1607 72.2673V55.7372C39.1499 52.8042 37.4462 50.4644 34.3192 50.4644Z" fill="#FEFEFE"/>
<path d="M84.042 61.2154H82.6725C80.214 61.2154 78.3055 62.3584 78.3055 64.8708C78.3055 67.1568 80.3758 68.2459 81.9177 68.2459C82.6725 68.2459 83.2009 68.4723 83.2009 69.0546C83.2009 69.777 82.3059 70.2515 81.357 70.2515C78.1976 70.2515 76.0411 68.1057 76.0411 64.1052C76.0411 59.6627 78.974 58.0452 81.2384 58.0452C84.0096 58.0452 84.4517 59.447 86.3818 59.447C88.6139 59.447 90.1235 57.6355 90.1235 55.7916C90.1235 54.4222 89.5089 53.3655 88.5276 52.6322C86.8239 51.3706 84.2468 50.4541 80.613 50.4541C74.1001 50.4541 67.749 54.5624 67.749 64.1052C67.749 73.2383 74.1001 77.5083 80.365 77.5083C86.9318 77.5083 91.1047 73.4648 91.1047 67.545C91.1155 63.8033 88.7649 61.2154 84.042 61.2154Z" fill="#FEFEFE"/>
<path d="M73.4738 48.6962C75.0373 48.6962 76.2665 47.7797 76.2665 46.0975C76.2665 44.4478 75.0373 43.5312 73.4738 43.5312H70.9614C70.4869 43.5312 70.2605 43.2509 70.2605 42.8842V42.3559C70.2605 41.9893 70.4869 41.7089 70.9614 41.7089H72.8915C74.2394 41.7089 75.2961 40.9002 75.2961 39.4768C75.2961 38.0535 74.2286 37.2448 72.8915 37.2448H70.9614C70.4869 37.2448 70.2605 36.9644 70.2605 36.5978V36.1557C70.2605 35.7891 70.4869 35.5087 70.9614 35.5087H73.4738C75.0373 35.5087 76.2665 34.5922 76.2665 32.9101C76.2665 31.2603 75.0373 30.3438 73.4738 30.3438H68.1902C65.9797 30.3438 64.923 31.6269 64.923 33.363V45.677C64.923 47.4023 65.9905 48.6962 68.1902 48.6962H73.4738Z" fill="#FEFEFE"/>
<path d="M25.4275 48.8356C29.9563 48.8356 32.3609 46.1291 32.3609 42.7217V33.3083C32.3609 31.6369 31.3796 30.2891 29.5897 30.2891C27.7997 30.2891 26.8185 31.6261 26.8185 33.3083V42.409C26.8185 43.0776 26.4303 43.8647 25.4167 43.8647C24.4031 43.8647 24.0689 43.0776 24.0689 42.409V33.3083C24.0689 31.6369 23.066 30.2891 21.2761 30.2891C19.4861 30.2891 18.5049 31.6261 18.5049 33.3083V42.7217C18.5157 46.1291 20.8987 48.8356 25.4275 48.8356Z" fill="#FEFEFE"/>
<path d="M45.0586 48.8353C46.5143 48.8353 47.7759 47.6923 47.7759 46.269C47.7759 45.3201 47.3877 44.6192 46.8809 43.983C46.0722 42.9263 45.339 41.999 44.9831 41.0285C44.8969 40.8021 44.9508 40.608 45.2096 40.4139C46.0722 39.7454 47.0858 38.2681 47.0858 35.9174C47.0858 32.3699 44.1528 30.3643 40.5945 30.3643H37.4351C35.2246 30.3643 34.1679 31.6474 34.1679 33.3835V45.8377C34.1679 47.509 35.1491 48.8569 36.9391 48.8569C38.729 48.8569 39.7103 47.5198 39.7103 45.8377V42.8832C39.7103 42.5166 39.8828 42.3548 40.1524 42.3548C40.4867 42.3548 40.5945 42.5489 40.6592 42.8832C40.9072 44.3065 41.5865 46.2367 42.3413 47.2071C43.2686 48.4472 44.1636 48.8353 45.0586 48.8353ZM40.4651 38.1711H40.0769C39.6025 38.1711 39.376 37.8907 39.376 37.5241V35.6263C39.376 35.2597 39.6025 34.9793 40.0769 34.9793H40.4651C41.6404 34.9793 42.007 35.8204 42.007 36.5429C42.007 37.2545 41.6404 38.1711 40.4651 38.1711Z" fill="#FEFEFE"/>
<path d="M61.14 50.4644C58.261 50.4644 56.6975 52.6102 56.6975 55.3274V61.3551C56.6975 61.8619 56.5249 62.0775 56.223 62.0775C55.9966 62.0775 55.8348 61.9373 55.6407 61.5492L51.7589 54.0119C50.2817 51.1329 48.7397 50.4644 46.9713 50.4644C44.0384 50.4644 42.4102 52.6748 42.4102 55.4353V72.6879C42.4102 75.3944 43.9737 77.551 46.8527 77.551C49.7317 77.551 51.2952 75.4052 51.2952 72.6879V66.6602C51.2952 66.1534 51.4678 65.9378 51.7697 65.9378C51.9961 65.9378 52.1579 66.078 52.352 66.4662L56.2338 74.0034C57.7111 76.8824 59.3069 77.551 61.0214 77.551C63.9544 77.551 65.5826 75.3405 65.5826 72.58V55.3274C65.5826 52.6102 64.019 50.4644 61.14 50.4644Z" fill="#FEFEFE"/>
</svg>
