<svg width="139" height="48" viewBox="0 0 139 48" fill="none" xmlns="http://www.w3.org/2000/svg">
<path d="M56.9788 20.3319C56.8625 20.4024 56.7241 20.4269 56.5906 20.4006C56.4572 20.3743 56.3384 20.2991 56.2576 20.1897C55.8604 19.6195 55.3274 19.1571 54.7068 18.8444C54.0861 18.5318 53.3974 18.3786 52.7027 18.3987C49.9943 18.3987 48.3318 20.5418 48.3318 23.6024C48.3318 26.6631 50.0247 28.8469 52.7332 28.8469C53.4371 28.8637 54.1337 28.7005 54.757 28.3729C55.3803 28.0453 55.9096 27.564 56.2949 26.9746C56.3719 26.8638 56.4877 26.7859 56.6194 26.7564C56.7511 26.727 56.889 26.748 57.0059 26.8155L58.2925 27.5603C58.3627 27.5959 58.4245 27.6463 58.4736 27.7079C58.5226 27.7696 58.5578 27.841 58.5768 27.9175C58.5957 27.994 58.598 28.0736 58.5834 28.151C58.5688 28.2284 58.5377 28.3018 58.4922 28.3661C57.8632 29.3088 57.0052 30.0764 55.9985 30.5969C54.9918 31.1174 53.8695 31.3738 52.7366 31.342C48.4063 31.342 45.4709 28.2003 45.4709 23.6195C45.4709 19.0387 48.4063 15.9373 52.6722 15.9373C53.7862 15.9064 54.8908 16.1488 55.8894 16.6434C56.888 17.138 57.7503 17.8697 58.4008 18.7745C58.4455 18.8354 58.4773 18.9049 58.4941 18.9786C58.5109 19.0523 58.5123 19.1287 58.4983 19.203C58.4844 19.2773 58.4553 19.3479 58.4129 19.4105C58.3705 19.473 58.3156 19.5262 58.2518 19.5667L56.9788 20.3319Z" fill="black"/>
<path fill-rule="evenodd" clip-rule="evenodd" d="M66.4449 29.8896V30.5125C66.4448 30.5856 66.4596 30.6581 66.4883 30.7254C66.517 30.7927 66.5591 30.8534 66.6119 30.9041C66.6647 30.9547 66.7273 30.9941 66.7957 31.0199C66.8642 31.0457 66.9372 31.0574 67.0103 31.0542H68.4255C68.4966 31.0542 68.5671 31.0402 68.6328 31.013C68.6985 30.9857 68.7582 30.9458 68.8085 30.8955C68.8589 30.8452 68.8988 30.7855 68.926 30.7198C68.9532 30.6541 68.9672 30.5836 68.9672 30.5125V23.4365C68.9672 20.8735 67.1458 19.8138 64.5659 19.8138C63.1157 19.8172 61.6884 20.1752 60.4083 20.8566C60.286 20.9247 60.1947 21.0372 60.1531 21.1708C60.1115 21.3044 60.1228 21.4489 60.1848 21.5743L60.6486 22.5426C60.6805 22.6076 60.7252 22.6655 60.78 22.7127C60.8348 22.76 60.8987 22.7956 60.9677 22.8174C61.0367 22.8393 61.1094 22.8469 61.1814 22.8398C61.2534 22.8328 61.3233 22.8112 61.3867 22.7763C62.3007 22.3014 63.3125 22.0452 64.3424 22.028C65.2397 22.028 66.2993 22.2754 66.2993 23.1928C66.2993 24.1525 65.1401 24.3161 63.7098 24.518C63.5945 24.5342 63.4792 24.5506 63.364 24.5673C61.8879 24.7738 59.4941 25.2343 59.4941 27.9191C59.4941 30.0758 61.055 31.3048 63.3031 31.3048C64.8232 31.3048 65.7678 30.763 66.4449 29.8896ZM64.2261 26.2408C65.081 26.0907 65.8564 25.9547 66.2993 25.6203V26.8798C66.2993 28.5252 65.1144 29.2328 63.8447 29.2328C62.8223 29.2328 62.1147 28.7757 62.1147 27.7972C62.1147 26.7341 62.9272 26.4734 63.9057 26.2974C64.0133 26.278 64.1203 26.2593 64.2261 26.2408Z" fill="black"/>
<path d="M71.2932 28.2508C71.3845 28.1445 71.5135 28.0777 71.653 28.0645C71.7925 28.0512 71.9318 28.0925 72.0415 28.1798C72.9467 28.8633 74.0562 29.2212 75.1902 29.1954C76.3581 29.1954 77.2215 28.8197 77.2215 27.9055C77.2215 27.0726 76.4293 26.9068 74.513 26.5716C72.4816 26.233 70.5382 25.5558 70.5382 23.2401C70.5382 20.8261 72.6204 19.8072 74.9937 19.8072C76.482 19.7851 77.9349 20.2618 79.1208 21.1612C79.1787 21.2066 79.2267 21.2632 79.262 21.3277C79.2973 21.3921 79.3191 21.4631 79.3261 21.5363C79.333 21.6095 79.325 21.6833 79.3026 21.7533C79.2801 21.8232 79.2436 21.8879 79.1953 21.9433L78.5182 22.739C78.4284 22.8457 78.3012 22.9139 78.1626 22.9297C78.0241 22.9455 77.8848 22.9075 77.7733 22.8237C76.939 22.2134 75.9292 21.8902 74.8956 21.9028C73.8968 21.9028 73.0233 22.194 73.0233 22.9828C73.0233 23.8597 74.2489 24.0256 75.4779 24.2354C78.1017 24.6926 79.7675 25.4408 79.7675 27.6211C79.7675 29.9098 77.9359 31.325 75.0276 31.325C73.4381 31.3736 71.8815 30.8659 70.6263 29.8895C70.57 29.8434 70.5234 29.7865 70.4893 29.7222C70.4552 29.658 70.4342 29.5875 70.4276 29.5151C70.4209 29.4426 70.4288 29.3695 70.4507 29.3001C70.4726 29.2307 70.5081 29.1664 70.5551 29.1108L71.2932 28.2508ZM81.3757 30.5124V16.7328C81.3757 16.6616 81.3897 16.5912 81.4169 16.5255C81.4441 16.4597 81.484 16.4 81.5343 16.3497C81.5846 16.2994 81.6443 16.2595 81.71 16.2323C81.7758 16.2051 81.8462 16.191 81.9173 16.191H83.4782C83.7773 16.191 84.0199 16.4336 84.0199 16.7328V21.4388C84.4085 20.9203 84.9155 20.5022 85.4986 20.2195C86.0816 19.9368 86.7239 19.7976 87.3717 19.8137C89.6807 19.8137 91.0349 21.4591 91.0349 23.8088V30.5124C91.0349 30.5835 91.0209 30.654 90.9937 30.7197C90.9665 30.7854 90.9266 30.8451 90.8763 30.8954C90.826 30.9457 90.7663 30.9856 90.7006 31.0129C90.6348 31.0401 90.5644 31.0541 90.4933 31.0541H88.9324C88.7888 31.0541 88.651 30.997 88.5494 30.8954C88.4478 30.7938 88.3907 30.6561 88.3907 30.5124V24.4182C88.3907 23.2502 88.0149 22.1905 86.5185 22.1905C85.0999 22.1905 84.0199 23.1893 84.0199 24.8549V30.5157C84.0199 30.6594 83.9628 30.7972 83.8612 30.8988C83.7596 31.0004 83.6218 31.0575 83.4782 31.0575H81.9173C81.8458 31.0579 81.7749 31.0441 81.7087 31.0168C81.6426 30.9895 81.5826 30.9493 81.5321 30.8986C81.4817 30.8478 81.4419 30.7875 81.4151 30.7212C81.3882 30.6549 81.3748 30.5839 81.3757 30.5124Z" fill="black"/>
<path fill-rule="evenodd" clip-rule="evenodd" d="M107.087 27.3705L108.211 30.6885C108.244 30.7965 108.311 30.8911 108.402 30.9591C108.492 31.0271 108.602 31.0651 108.715 31.0677H110.648C110.736 31.0681 110.822 31.0473 110.899 31.0072C110.977 30.9671 111.043 30.9088 111.093 30.8373C111.144 30.7659 111.176 30.6833 111.188 30.5966C111.199 30.51 111.189 30.4218 111.159 30.3398L106.064 16.5601C106.025 16.4561 105.955 16.3664 105.864 16.3029C105.772 16.2394 105.664 16.2051 105.553 16.2046H103.051C102.942 16.2033 102.835 16.235 102.745 16.2954C102.654 16.3558 102.584 16.4422 102.543 16.5432L97.427 30.3262C97.3971 30.408 97.3873 30.4958 97.3986 30.5821C97.4098 30.6685 97.4417 30.7509 97.4915 30.8223C97.5413 30.8937 97.6076 30.9521 97.6848 30.9925C97.762 31.0328 97.8478 31.054 97.9348 31.0541H99.7661C99.879 31.0545 99.9891 31.0194 100.081 30.9538C100.173 30.8882 100.242 30.7954 100.278 30.6885L101.405 27.3705H107.087ZM102.089 25.0581L104.276 18.6051L106.379 25.0581H102.089ZM115.083 21.4592V20.606C115.087 20.5326 115.076 20.4592 115.05 20.3903C115.025 20.3214 114.985 20.2584 114.934 20.2054C114.884 20.1522 114.823 20.1099 114.755 20.081C114.688 20.0521 114.615 20.0373 114.542 20.0373H112.98C112.682 20.0373 112.439 20.2799 112.439 20.579V34.1216C112.439 34.4207 112.682 34.6633 112.98 34.6633H114.542C114.841 34.6633 115.083 34.4207 115.083 34.1216V29.6288C115.465 30.1655 115.975 30.5987 116.566 30.8895C117.157 31.1803 117.811 31.3194 118.469 31.2945C121.465 31.2945 123.402 28.7859 123.402 25.539C123.402 22.2922 121.465 19.8138 118.469 19.8138C117.813 19.7872 117.16 19.9236 116.569 20.2107C115.978 20.4978 115.468 20.9267 115.083 21.4592ZM120.622 25.539C120.622 27.4316 119.745 28.9958 117.914 28.9958C116.049 28.9958 115.083 27.4349 115.083 25.539C115.083 23.6429 116.099 22.1228 117.914 22.1228C119.728 22.1228 120.622 23.6464 120.622 25.539ZM127.678 21.4591V20.6059C127.682 20.5324 127.671 20.4589 127.646 20.3898C127.62 20.3207 127.581 20.2575 127.531 20.2042C127.48 20.1509 127.419 20.1086 127.351 20.0798C127.283 20.0511 127.21 20.0366 127.136 20.0371H125.575C125.431 20.0372 125.294 20.0943 125.192 20.1958C125.091 20.2974 125.034 20.4352 125.034 20.5788V34.1216C125.034 34.4206 125.276 34.6631 125.575 34.6631H127.136C127.435 34.6631 127.678 34.4206 127.678 34.1215V29.6286C128.06 30.1648 128.57 30.5977 129.161 30.8884C129.752 31.1791 130.406 31.3186 131.064 31.2944C134.063 31.2944 136 28.7856 136 25.5388C136 22.292 134.063 19.8137 131.064 19.8137C130.408 19.7877 129.755 19.9243 129.164 20.2114C128.573 20.4984 128.063 20.9271 127.678 21.4591ZM133.22 25.5388C133.22 27.4314 132.343 28.9956 130.512 28.9956C128.657 28.9956 127.678 27.4348 127.678 25.5388C127.678 23.6428 128.697 22.1227 130.512 22.1227C132.326 22.1227 133.22 23.6462 133.22 25.5388Z" fill="black"/>
<path fill-rule="evenodd" clip-rule="evenodd" d="M29.0539 9.50105C27.4592 9 26.0068 9 23.0544 9H14.1977C11.2622 9 9.79288 9 8.22527 9.48749C7.3695 9.79737 6.59231 10.2916 5.94873 10.9352C5.30516 11.5787 4.81093 12.3559 4.50105 13.2117C4 14.7964 4 16.2622 4 19.1977V28.0544C4 31.0067 4 32.4591 4.48749 34.0403C4.79739 34.8961 5.29162 35.6733 5.93519 36.3168C6.57876 36.9604 7.35594 37.4546 8.21171 37.7645C9.79632 38.2656 11.2622 38.2656 14.1976 38.2656H23.068C26.0068 38.2656 27.4727 38.2656 29.0539 37.7645C29.9096 37.4546 30.6868 36.9604 31.3304 36.3168C31.9739 35.6732 32.4682 34.8961 32.7781 34.0403C33.2791 32.4558 33.2791 30.9899 33.2791 28.0544V19.2111C33.2791 16.2724 33.2791 14.8064 32.7781 13.2253C32.4682 12.3695 31.974 11.5923 31.3304 10.9487C30.6868 10.3052 29.9096 9.81095 29.0539 9.50105ZM23.2983 20.0339C22.2004 19.1048 20.8092 18.5939 19.3709 18.5917C18.1859 18.5917 17.0009 18.9844 17.0009 20.0746C17.0009 21.0684 18.056 21.4573 19.3557 21.9364C19.4817 21.9828 19.6101 22.0301 19.7399 22.0789C22.3096 22.9457 24.4257 24.0087 24.4257 26.5276C24.4257 29.2633 22.3029 31.1321 18.8292 31.3454L18.5144 32.8114C18.4856 32.9443 18.412 33.0632 18.306 33.1483C18.2 33.2334 18.0679 33.2794 17.932 33.2787H15.7482C15.66 33.2765 15.5733 33.255 15.4943 33.2157C15.4152 33.1764 15.3458 33.1202 15.2909 33.051C15.236 32.9819 15.197 32.9016 15.1765 32.8157C15.1561 32.7298 15.1548 32.6405 15.1727 32.5541L15.5112 31.0068C14.2001 30.6725 12.9947 30.0121 12.0071 29.0871C11.9505 29.0325 11.9054 28.967 11.8747 28.8946C11.8439 28.8222 11.8281 28.7443 11.8281 28.6656C11.8281 28.5869 11.8439 28.509 11.8747 28.4366C11.9054 28.3642 11.9505 28.2987 12.0071 28.2441L13.2192 27.0593C13.3294 26.951 13.4777 26.8902 13.6323 26.8902C13.7868 26.8902 13.9351 26.951 14.0453 27.0593C15.1556 28.1186 16.6381 28.6986 18.1724 28.6741C19.7535 28.6741 20.8267 28.0037 20.8267 26.9407C20.8267 25.9796 19.9466 25.6576 18.2764 25.0467C18.0994 24.982 17.9134 24.9139 17.7187 24.8416C15.5722 24.0764 13.5408 22.9828 13.5408 20.4402C13.5408 17.4981 15.9988 16.0626 18.8969 15.9204L19.2016 14.4273C19.2309 14.2956 19.3043 14.1779 19.4095 14.0936C19.5148 14.0092 19.6457 13.9633 19.7806 13.9634H21.9576C22.0451 13.9632 22.1316 13.9825 22.2108 14.0199C22.29 14.0572 22.3598 14.1118 22.4153 14.1796C22.4707 14.2473 22.5104 14.3266 22.5314 14.4116C22.5523 14.4966 22.5541 14.5852 22.5365 14.671L22.1979 16.3402C23.3062 16.7025 24.3332 17.2775 25.2213 18.0329C25.2819 18.085 25.3311 18.149 25.3657 18.221C25.4004 18.293 25.4197 18.3714 25.4226 18.4512C25.4255 18.5311 25.4118 18.6106 25.3824 18.6849C25.353 18.7592 25.3085 18.8266 25.2518 18.8828L24.1209 20.017C24.0119 20.1243 23.8659 20.1858 23.713 20.189C23.56 20.1921 23.4116 20.1366 23.2983 20.0339Z" fill="black"/>
</svg>
