<svg width="28" height="28" viewBox="0 0 28 28" fill="none" xmlns="http://www.w3.org/2000/svg">
<path d="M12.1957 1.77313C12.9208 0.256892 15.0792 0.256895 15.8043 1.77313L16.776 3.80504C17.2169 4.72715 18.2822 5.1684 19.246 4.82817L21.3699 4.07846C22.9547 3.51901 24.481 5.0453 23.9215 6.63014L23.1718 8.75398C22.8316 9.71781 23.2729 10.7831 24.195 11.224L26.2269 12.1957C27.7431 12.9208 27.7431 15.0792 26.2269 15.8043L24.195 16.776C23.2729 17.2169 22.8316 18.2822 23.1718 19.246L23.9215 21.3699C24.481 22.9547 22.9547 24.481 21.3699 23.9215L19.246 23.1718C18.2822 22.8316 17.2169 23.2729 16.776 24.195L15.8043 26.2269C15.0792 27.7431 12.9208 27.7431 12.1957 26.2269L11.224 24.195C10.7831 23.2729 9.71781 22.8316 8.75398 23.1718L6.63014 23.9215C5.0453 24.481 3.51901 22.9547 4.07846 21.3699L4.82817 19.246C5.1684 18.2822 4.72715 17.2169 3.80504 16.776L1.77313 15.8043C0.256892 15.0792 0.256895 12.9208 1.77313 12.1957L3.80504 11.224C4.72715 10.7831 5.1684 9.71781 4.82817 8.75398L4.07846 6.63014C3.51901 5.0453 5.0453 3.51901 6.63014 4.07846L8.75399 4.82817C9.71781 5.1684 10.7831 4.72715 11.224 3.80504L12.1957 1.77313Z" fill="#D35FE6"/>
</svg>
