<svg width="174" height="50" viewBox="0 0 174 50" fill="none" xmlns="http://www.w3.org/2000/svg">
<path fill-rule="evenodd" clip-rule="evenodd" d="M130.108 8.64201C122.866 14.0672 118.854 21.395 118.876 28.7283C118.912 39.5986 127.777 50.0669 148.321 49.9997C153.421 49.9652 157.918 49.4544 162.007 48.7658C163.199 48.5737 164.369 48.3598 165.478 48.1333L167.867 38.015C163.888 39.3341 158.856 40.425 154.825 40.4431C143.885 40.4775 136.548 34.0448 136.531 25.61C136.513 21.114 138.377 17.1658 141.747 14.2774C145.357 11.1823 150.676 9.31069 157.33 9.31069C162.598 9.31069 165.68 10.7547 167.782 12.817C168.204 13.2209 168.593 13.645 168.932 14.089H170.647L174 2.14768C170.544 1.01696 165.423 0.0656913 160.018 0.00573162C147.437 -0.160869 137.213 3.31825 130.108 8.64201ZM112.966 10.3005C114.443 10.3005 115.669 10.8331 116.491 11.5309C117.195 12.1234 117.618 12.8282 117.618 13.4371H119.303L122.574 0.470265H78.1736L77.5253 3.00704L77.373 3.62323C77.373 3.62323 82.2326 4.16494 80.7429 8.98143L69.6605 48.9075L88.5112 48.9438H91.8167L92.6561 45.5154C92.6561 45.5154 88.5112 44.5243 89.5952 40.7279C89.6316 40.5545 90.4773 37.4693 91.293 34.4911C91.5914 33.3983 91.8876 32.3199 92.1388 31.4053C92.5552 29.9339 92.8514 28.8756 92.8514 28.8756L102.998 28.8683C104.657 28.8683 105.928 29.171 106.911 29.548C108.944 30.32 109.723 31.4904 109.723 31.4904L112.668 19.6252H95.5624L97.4106 12.8481L98.1039 10.3205L112.966 10.3005ZM46.3023 22.7674C46.3023 22.7674 57.7088 40.3858 59.0225 41.7808L59.0804 41.8435C60.3898 43.2421 62.5341 45.5334 65.7475 45.5139L64.8931 48.9241C63.8821 48.9241 62.9356 48.9308 62.0211 48.9374L61.5876 48.9403C61.0874 48.9436 60.5959 48.9476 60.1172 48.9513C48.305 49.0414 43.1941 49.0804 38.401 42.5257C36.8362 40.3958 35.6363 38.8075 34.6124 37.4536C32.0967 34.1207 30.6521 32.2085 27.4581 27.1326C27.4581 27.1326 26.6704 29.9449 25.7817 33.1539L25.6615 33.5938C24.7771 36.7872 23.8112 40.2733 23.4313 41.685C22.6478 44.6241 26.7562 45.4305 26.7562 45.4305L25.8933 48.9059H22.5963H0L0.525883 46.8077L0.865074 45.4813C0.938055 45.477 1.02175 45.4743 1.1119 45.4714C1.30079 45.4649 1.52404 45.4575 1.77089 45.434C3.44087 45.2548 6.21416 44.289 8.0623 37.271C8.13313 37.0708 8.17824 36.9407 8.22331 36.8098C8.53026 35.8845 8.70192 34.9154 15.9399 8.9833C17.0647 4.75043 13.9888 3.98444 12.6944 3.66245C12.6429 3.64937 12.5914 3.63692 12.5463 3.6251L12.7095 2.99998L13.3448 0.472131L38.1005 0.46487L37.2869 3.62697C37.2869 3.62697 33.9598 3.99668 33.0562 7.06625L28.7782 22.4342L28.6172 22.9848C28.6172 22.9848 49.1936 7.39426 49.4577 7.17123C51.4689 5.3104 49.009 3.74834 47.2468 3.62697L47.3991 3.00185L48.0452 0.473999L73.975 0.436031L73.1658 3.62697C73.1658 3.62697 71.7834 3.47115 69.6412 4.56371C68.8964 4.94795 68.0464 5.47701 67.1448 6.22536L66.4751 6.75815L46.3023 22.7674Z" fill="white"/>
</svg>
