<svg width="41" height="23" viewBox="0 0 41 23" fill="none" xmlns="http://www.w3.org/2000/svg">
<circle cx="11.25" cy="15.25" r="1.5" fill="#1A1A1A"/>
<circle cx="28.25" cy="15.25" r="1.5" fill="#1A1A1A"/>
<path fill-rule="evenodd" clip-rule="evenodd" d="M1.24321 0.197139C1.54855 -0.0827555 2.02297 -0.0621283 2.30287 0.243211L7.80089 6.24105C11.2185 3.58298 15.5137 2.00002 20.1786 2.00002C24.3717 2.00002 28.2661 3.27901 31.493 5.46815L37.2432 0.197139C37.5485 -0.0827555 38.023 -0.0621283 38.3029 0.243211C38.5828 0.54855 38.5621 1.02298 38.2568 1.30287L32.725 6.37371C37.3755 10.0703 40.3571 15.7763 40.3571 22.1786C40.3571 22.5928 40.0214 22.9286 39.6071 22.9286C39.1929 22.9286 38.8571 22.5928 38.8571 22.1786C38.8571 11.8627 30.4945 3.50002 20.1786 3.50002C9.86268 3.50002 1.5 11.8627 1.5 22.1786C1.5 22.5928 1.16421 22.9286 0.75 22.9286C0.335786 22.9286 0 22.5928 0 22.1786C0 16.2389 2.56632 10.8986 6.65064 7.20608L1.19713 1.2568C0.91724 0.951459 0.937867 0.477033 1.24321 0.197139Z" fill="black"/>
</svg>
