<svg width="32" height="35" viewBox="0 0 32 35" fill="none" xmlns="http://www.w3.org/2000/svg">
<path fill-rule="evenodd" clip-rule="evenodd" d="M5.80746 1.58618C5.80746 1.17197 5.47167 0.836182 5.05746 0.836182C4.64325 0.836182 4.30746 1.17197 4.30746 1.58618C4.30746 5.02209 7.09282 7.80745 10.5287 7.80745H10.7649C10.6114 8.31203 10.5288 8.84753 10.5288 9.4023V12.9306C9.39956 13.8632 8.51251 15.0786 7.97613 16.4684H6.62068C4.0132 16.4684 1.89941 14.3546 1.89941 11.7471C1.89941 11.3329 1.56363 10.9971 1.14941 10.9971C0.7352 10.9971 0.399414 11.3329 0.399414 11.7471C0.399414 15.183 3.18477 17.9684 6.62068 17.9684H7.54992C7.45298 18.4852 7.40229 19.0182 7.40229 19.5632V21.9396H1.54022C1.12601 21.9396 0.790219 22.2754 0.790219 22.6896C0.790219 23.1038 1.12601 23.4396 1.54022 23.4396H7.40229V25.8161C7.40229 26.2846 7.43976 26.7443 7.51187 27.1925H6.62068C3.18477 27.1925 0.399414 29.9778 0.399414 33.4138C0.399414 33.828 0.7352 34.1638 1.14941 34.1638C1.56363 34.1638 1.89941 33.828 1.89941 33.4138C1.89941 30.8063 4.0132 28.6925 6.62068 28.6925H7.89524C9.07849 32.0263 12.2604 34.4138 16 34.4138C19.7395 34.4138 22.9215 32.0263 24.1047 28.6925H25.3793C27.9868 28.6925 30.1006 30.8063 30.1006 33.4138C30.1006 33.828 30.4364 34.1638 30.8506 34.1638C31.2648 34.1638 31.6006 33.828 31.6006 33.4138C31.6006 29.9778 28.8152 27.1925 25.3793 27.1925H24.4881C24.5602 26.7443 24.5977 26.2846 24.5977 25.8161V23.4396H30.8506C31.2648 23.4396 31.6006 23.1038 31.6006 22.6896C31.6006 22.2754 31.2648 21.9396 30.8506 21.9396H24.5977V19.5632C24.5977 19.0183 24.547 18.4852 24.4501 17.9684H25.3793C28.8152 17.9684 31.6006 15.183 31.6006 11.7471C31.6006 11.3329 31.2648 10.9971 30.8506 10.9971C30.4363 10.9971 30.1006 11.3329 30.1006 11.7471C30.1006 14.3546 27.9868 16.4684 25.3793 16.4684H24.0238C23.4875 15.0787 22.6005 13.8633 21.4713 12.9308V9.4023C21.4713 8.84752 21.3888 8.31203 21.2352 7.80745H21.4713C24.9072 7.80745 27.6925 5.02209 27.6925 1.58618C27.6925 1.17197 27.3567 0.836182 26.9425 0.836182C26.5283 0.836182 26.1925 1.17197 26.1925 1.58618C26.1925 4.19366 24.0787 6.30745 21.4713 6.30745H20.5125C19.5263 4.87222 17.8731 3.93103 16.0001 3.93103C14.127 3.93103 12.4739 4.87222 11.4876 6.30745H10.5287C7.92124 6.30745 5.80746 4.19366 5.80746 1.58618ZM19.9713 11.9357V9.4023C19.9713 7.20903 18.1933 5.43103 16.0001 5.43103C13.8068 5.43103 12.0288 7.20903 12.0288 9.4023V11.9356C13.2167 11.3159 14.5674 10.9655 16 10.9655C17.4326 10.9655 18.7834 11.3159 19.9713 11.9357ZM23.0977 25.8161V19.5632C23.0977 15.6432 19.9199 12.4655 16 12.4655C12.08 12.4655 8.90229 15.6432 8.90229 19.5632V25.8161C8.90229 29.4827 11.6826 32.5 15.25 32.8746V27.3793C15.25 26.9651 15.5858 26.6293 16 26.6293C16.4142 26.6293 16.75 26.9651 16.75 27.3793V32.8746C20.3174 32.5 23.0977 29.4827 23.0977 25.8161Z" fill="#1A1A1A"/>
</svg>
