<svg width="139" height="48" viewBox="0 0 139 48" fill="none" xmlns="http://www.w3.org/2000/svg">
<g clip-path="url(#clip0_2736_7401)">
<path d="M82.1035 45.4053L85.1271 26.5297H91.2873C92.4792 26.5297 93.4327 26.7502 94.1604 27.1783C94.8881 27.6064 95.3899 28.1902 95.6534 28.9426C95.9294 29.6821 95.9922 30.5253 95.8291 31.4724C95.7036 32.2637 95.4652 32.9253 95.1265 33.4961C94.7877 34.054 94.3611 34.4951 93.8718 34.8453C93.3825 35.1956 92.8556 35.4421 92.291 35.5978L92.2659 35.7405C92.843 35.7794 93.3825 35.9999 93.8844 36.3891C94.3737 36.7653 94.7501 37.3102 94.9885 37.9978C95.2394 38.6853 95.2896 39.5026 95.139 40.4626C94.9885 41.4097 94.6372 42.2659 94.1102 43.0183C93.5833 43.7578 92.8556 44.3545 91.9397 44.7826C91.0238 45.2107 89.9198 45.4183 88.6024 45.4183H82.1035V45.4053ZM84.023 43.8616H88.8533C90.2585 43.8616 91.35 43.5372 92.1279 42.8886C92.9058 42.2399 93.3825 41.4356 93.5456 40.4497C93.6586 39.7361 93.5958 39.0745 93.3449 38.4907C93.1065 37.907 92.705 37.4399 92.153 37.0897C91.601 36.7394 90.9109 36.5707 90.0954 36.5707H85.1898L84.0105 43.8356L84.023 43.8616ZM85.4533 35.0659H90.0954C90.8106 35.0659 91.463 34.9102 92.0526 34.5989C92.6423 34.2875 93.1316 33.8724 93.508 33.3275C93.8969 32.7826 94.1353 32.1729 94.2482 31.4724C94.4113 30.4734 94.2357 29.6561 93.7087 29.0334C93.1818 28.3978 92.3036 28.0864 91.0489 28.0864H86.5574L85.4533 35.0659ZM101.814 45.7297C100.986 45.7297 100.258 45.561 99.6306 45.2367C99.0033 44.8994 98.5265 44.4194 98.2254 43.7837C97.9243 43.148 97.8365 42.3697 97.9745 41.4616C98.0874 40.761 98.3132 40.1772 98.652 39.6972C98.9907 39.2172 99.4173 38.828 99.9317 38.5167C100.446 38.2053 101.048 37.9589 101.713 37.7772C102.391 37.5956 103.118 37.4659 103.909 37.3751C104.687 37.2713 105.339 37.1934 105.891 37.1156C106.443 37.0378 106.857 36.921 107.171 36.7653C107.472 36.6097 107.66 36.3502 107.71 35.987L107.761 35.6497C107.911 34.6897 107.761 33.9243 107.334 33.3794C106.895 32.8216 106.155 32.5361 105.126 32.5361C104.097 32.5361 103.282 32.7697 102.554 33.2237C101.839 33.6778 101.299 34.1967 100.948 34.7934L99.5427 34.2356C99.9693 33.4572 100.496 32.8475 101.124 32.3805C101.751 31.9134 102.416 31.5761 103.131 31.3816C103.846 31.174 104.549 31.0702 105.239 31.0702C105.766 31.0702 106.293 31.1351 106.832 31.2778C107.372 31.4205 107.861 31.667 108.287 32.0172C108.727 32.3675 109.04 32.8475 109.241 33.4702C109.454 34.0799 109.479 34.8583 109.329 35.8053L107.773 45.4183H106.192L106.556 43.174H106.456C106.205 43.5891 105.866 43.9913 105.427 44.3934C104.988 44.7826 104.473 45.107 103.871 45.3664C103.269 45.6129 102.579 45.7426 101.826 45.7426L101.814 45.7297ZM102.215 44.2248C103.056 44.2248 103.821 44.0302 104.511 43.641C105.201 43.2518 105.766 42.7459 106.205 42.0972C106.656 41.4486 106.932 40.748 107.058 39.9697L107.384 37.9199C107.259 38.0367 107.045 38.1405 106.744 38.2313C106.456 38.3221 106.13 38.4129 105.753 38.4778C105.389 38.5426 105.025 38.6075 104.662 38.6464C104.298 38.6983 103.984 38.7372 103.696 38.7761C102.905 38.8799 102.215 39.0226 101.625 39.2432C101.048 39.4507 100.572 39.7361 100.233 40.1124C99.8815 40.4756 99.6682 40.9426 99.5678 41.5134C99.4298 42.3697 99.618 43.0443 100.107 43.5113C100.609 43.9783 101.312 44.2118 102.215 44.2118V44.2248ZM115 36.5578L113.582 45.4053H112.001L114.285 31.2518H115.828L115.476 33.4702H115.615C116.041 32.7437 116.631 32.1599 117.384 31.7318C118.149 31.2907 119.027 31.0702 120.031 31.0702C120.947 31.0702 121.712 31.2648 122.352 31.667C122.992 32.0561 123.443 32.6399 123.707 33.4053C123.983 34.1707 124.033 35.1178 123.845 36.2334L122.352 45.4053H120.771L122.226 36.3372C122.415 35.1826 122.251 34.2616 121.737 33.587C121.235 32.8994 120.445 32.5621 119.391 32.5621C118.676 32.5621 117.998 32.7178 117.384 33.0421C116.769 33.3664 116.254 33.8205 115.828 34.4302C115.401 35.027 115.125 35.7405 114.987 36.5578H115ZM128.826 40.0605L129.152 37.894H129.503L136.981 31.2518H139.013L131.624 37.8161L131.486 37.8421L128.826 40.0605ZM126.53 45.4053L129.566 26.5297H131.147L128.111 45.4053H126.53ZM135.086 45.4053L130.683 38.1405L131.975 37.0118L137.094 45.4183H135.086V45.4053Z" fill="#1A1A1A"/>
<path d="M16.9509 37.7644C16.4114 41.1763 18.0173 42.0325 20.6897 42.0325C22.5591 42.0325 24.9554 41.1763 25.2314 39.1914C25.7709 36.6357 22.2956 36.3503 18.8203 34.9233C15.345 33.7817 12.1457 32.0822 13.2121 26.6855C14.542 20.4325 20.6897 18.1622 25.2189 18.1622C30.2876 18.1622 34.5659 21.0033 33.2234 27.2563H26.5488C27.6152 24.986 25.7458 24.1298 23.8764 24.1298C22.5465 24.1298 20.6771 24.7006 20.1377 26.6855C19.5982 28.9557 23.337 29.2411 26.5488 30.3828C30.0241 31.5244 33.2234 33.5093 32.157 38.6206C30.5511 45.7298 24.6794 48.0001 19.0838 48.0001C13.4881 48.0001 8.94639 45.159 10.2763 37.7644H16.9509ZM62.3307 19.0184H69.0053L62.8702 47.4293H56.1956L62.3307 19.0184ZM38.3046 19.0184H50.0479C54.3137 19.0184 58.8554 20.1601 57.5255 26.1276C56.986 28.6833 55.1292 30.6682 52.9838 31.8098C55.3801 32.666 56.4591 35.2217 55.9196 38.6336C54.5897 45.4574 49.7845 47.4422 44.1763 47.4422H32.1695L38.3046 19.0314V19.0184ZM42.5704 30.0974H47.6391C48.7055 30.0974 50.5749 29.5266 50.8384 27.5417C51.3778 25.5568 50.0354 24.7006 48.7055 24.7006H43.6368L42.5704 30.0974ZM40.174 41.4617H45.5187C47.6516 41.4617 49.2575 40.6055 49.7845 38.3352C50.324 35.7795 48.9815 34.9233 46.8486 34.9233H41.5165L40.1866 41.4617H40.174Z" fill="#1A1A1A"/>
<path d="M78.4141 8.26348C74.6628 -1.69976 54.0618 -2.80246 32.1184 5.77267C16.3227 11.857 4.27827 21.2624 0 29.8375C5.8842 23.4808 15.5197 17.1111 27.3007 12.6873C49.2441 3.8397 70.121 4.9424 73.5964 14.9056C74.6628 17.6689 74.1358 20.99 72.5299 24.3111C77.8872 18.7846 80.2961 12.9727 78.4141 8.26348Z" fill="#1A1A1A"/>
</g>
<defs>
<clipPath id="clip0_2736_7401">
<rect width="139" height="48" fill="white"/>
</clipPath>
</defs>
</svg>
