<svg width="113" height="48" viewBox="0 0 113 48" fill="none" xmlns="http://www.w3.org/2000/svg">
<path fill-rule="evenodd" clip-rule="evenodd" d="M84.4956 13.3834C79.7923 16.7956 77.1869 21.4045 77.2008 26.0169C77.2245 32.8539 82.9817 39.4381 96.3236 39.3958C99.6358 39.3741 102.556 39.0529 105.212 38.6197C105.985 38.4989 106.745 38.3644 107.466 38.2219L109.017 31.8579C106.433 32.6875 103.165 33.3737 100.547 33.385C93.4422 33.4067 88.6776 29.3608 88.6664 24.0556C88.6553 21.2278 89.8653 18.7445 92.0538 16.9278C94.3985 14.9811 97.8529 13.8039 102.174 13.8039C105.595 13.8039 107.597 14.7122 108.962 16.0093C109.236 16.2633 109.489 16.5301 109.709 16.8093H110.823L113 9.29869C110.756 8.5875 107.43 7.98919 103.92 7.95148C95.7493 7.8467 89.1097 10.0349 84.4956 13.3834ZM73.3632 14.4265C74.3222 14.4265 75.1182 14.7615 75.6521 15.2004C76.1093 15.573 76.3839 16.0163 76.3839 16.3993H77.4782L79.6027 8.24366H50.7679L50.3469 9.83919L50.248 10.2268C50.248 10.2268 53.4039 10.5675 52.4365 13.5969L45.2393 38.7089L57.4814 38.7317H59.6281L60.1732 36.5753C60.1732 36.5753 57.4814 35.952 58.1854 33.5642C58.2091 33.4551 58.7583 31.5147 59.288 29.6415C59.4818 28.9542 59.6741 28.2759 59.8372 27.7006C60.1077 26.7752 60.3 26.1095 60.3 26.1095L66.8895 26.105C67.967 26.105 68.7922 26.2954 69.4307 26.5325C70.7508 27.018 71.2568 27.7541 71.2568 27.7541L73.1694 20.2914H62.0607L63.2609 16.0288L63.7111 14.4391L73.3632 14.4265ZM30.0699 22.2677C30.0699 22.2677 37.4776 33.349 38.3307 34.2264L38.3683 34.2659C39.2187 35.1455 40.6113 36.5867 42.6981 36.5744L42.1432 38.7193C41.4867 38.7193 40.8719 38.7235 40.2781 38.7277L39.9965 38.7295C39.6717 38.7316 39.3525 38.7341 39.0416 38.7364C31.3705 38.793 28.0514 38.8176 24.9386 34.6949C23.9224 33.3553 23.1431 32.3564 22.4782 31.5048C20.8444 29.4085 19.9063 28.2058 17.832 25.0133C17.832 25.0133 17.3204 26.7821 16.7433 28.8004L16.6652 29.0771C16.0909 31.0856 15.4636 33.2783 15.2169 34.1662C14.7081 36.0147 17.3761 36.5219 17.3761 36.5219L16.8158 38.7078H14.6746H0L0.341522 37.3882L0.561801 36.5539C0.609197 36.5512 0.663549 36.5495 0.722097 36.5477C0.844768 36.5436 0.989753 36.5389 1.15006 36.5242C2.23459 36.4114 4.03563 35.804 5.23586 31.3899C5.28186 31.264 5.31115 31.1822 5.34043 31.0998C5.53977 30.5178 5.65125 29.9083 10.3518 13.598C11.0822 10.9357 9.08466 10.4539 8.24409 10.2514C8.21063 10.2432 8.17717 10.2354 8.1479 10.2279L8.25387 9.83475L8.66648 8.24483L24.7434 8.24026L24.2151 10.2291C24.2151 10.2291 22.0544 10.4616 21.4675 12.3923L18.6893 22.0581L18.5847 22.4045C18.5847 22.4045 31.9476 12.5986 32.119 12.4583C33.4252 11.2879 31.8277 10.3054 30.6832 10.2291L30.7822 9.83593L31.2018 8.246L48.0413 8.22212L47.5157 10.2291C47.5157 10.2291 46.618 10.1311 45.2268 10.8183C44.743 11.0599 44.191 11.3927 43.6056 11.8634L43.1706 12.1985L30.0699 22.2677Z" fill="#1A1A1A"/>
</svg>
