<svg width="115" height="48" viewBox="0 0 115 48" fill="none" xmlns="http://www.w3.org/2000/svg">
<path d="M45.9054 8.29729C45.3687 8.29729 45.1387 8.61318 44.9279 9.0592C32.4499 37.0639 31.3958 39.2753 31.3958 39.2753H38.4684L39.9444 35.763H50.6014L52.0772 39.2753H60.3957C60.3957 39.2753 59.6865 37.8444 46.8637 9.0592C46.6912 8.61318 46.4421 8.29729 45.9054 8.29729ZM42.2061 30.3925L45.2921 23.0522L48.3779 30.3925H42.2061ZM27.2558 8.92922C27.6391 8.55756 28.0416 8.29729 28.6549 8.29729V39.2753H22.0039V24.4646L14.3179 31.9163L6.63183 24.4646V39.2753H0V8.29729C0.613349 8.29729 1.01586 8.55756 1.3992 8.92922L14.337 21.4728L27.2558 8.92922ZM81.403 25.115C83.8563 23.7027 85.6963 21.2125 85.6963 17.6632C85.6963 14.8757 84.5463 12.5714 82.553 11.0104C80.5213 9.43086 78.1828 8.576 73.391 8.576H63.1558V39.2753H70.7268V27.8467C70.7843 27.8467 72.4135 27.8467 73.0652 27.8467C75.6145 27.8467 76.8987 28.7944 77.972 31.2846C78.8728 33.3844 79.5245 35.8932 80.3488 39.2753H88.7823C87.594 35.8002 86.9806 34.1463 86.0798 31.6934C84.8721 28.3485 83.3771 26.2671 81.403 25.115ZM76.5728 21.3612C75.6528 22.0488 74.4837 22.2533 72.356 22.2533C71.8002 22.2533 70.746 22.2533 70.746 22.2533C70.746 22.2533 70.7268 14.0766 70.746 14.0766C70.7652 14.0766 71.6468 14.0766 72.356 14.0766C74.5795 14.0766 75.672 14.3182 76.5728 14.9687C77.5887 15.712 78.0487 16.8456 78.0487 18.1649C78.0487 19.5773 77.5312 20.6365 76.5728 21.3612ZM114.14 34.0535C112.339 38.1045 107.911 40 102.87 40C97.6758 40 93.4016 38.3646 90.5073 34.9826L94.8583 30.5598C96.8325 32.957 99.5159 34.3136 102.525 34.2392C104.691 34.1835 106.014 33.3844 106.55 32.195C107.164 30.8386 106.589 29.5934 105.573 28.813C102.717 26.6388 96.1233 26.5086 92.9991 22.2718C91.389 20.0789 90.929 17.0313 92.2516 14.1138C93.9383 10.3601 97.7334 8 102.774 8C107.087 8 111.189 9.59817 113.757 12.237L109.406 16.6597C107.777 14.7828 105.439 13.6306 102.832 13.6306C100.934 13.6306 99.6501 14.4483 99.2668 15.712C98.9601 16.734 99.2859 17.7932 100.244 18.5179C102.678 20.3578 108.85 20.8966 112.243 24.0186C115.156 26.7503 115.712 30.5041 114.14 34.0535Z" fill="#1A1A1A"/>
</svg>
