<svg width="91" height="47" viewBox="0 0 91 47" fill="none" xmlns="http://www.w3.org/2000/svg">
<g clip-path="url(#clip0_2736_7410)">
<path d="M30.4516 27.1326C31.342 27.4559 32.2324 27.6407 33.3009 27.6407C34.3694 27.6407 35.2598 27.4666 36.1502 27.161L33.3009 18.1919L30.4516 27.1326Z" fill="#1A1A1A"/>
<path d="M52.5337 22.4988H54.4927C57.1639 22.4988 59.3009 21.6299 59.3009 18.8582C59.3009 16.1628 57.1639 15.2905 54.4927 15.2905H52.5337V22.4988Z" fill="#1A1A1A"/>
<path fill-rule="evenodd" clip-rule="evenodd" d="M45.9452 45.9325H0V1H91L45.9452 45.9325ZM45.0543 9.44314L53.9584 9.44492C62.6844 9.44492 66.6022 12.4921 66.6022 19.13C66.6022 25.0928 62.5064 28.6481 55.5611 28.6481H52.5337V37.2281H39.3557L37.931 33.1256C36.5064 33.5769 35.0817 33.8452 33.3009 33.8452C31.5201 33.8452 29.9173 33.568 28.4927 33.0918L27.2461 37.2281H19.0543L19.9447 34.8419C19.8539 34.8872 19.8094 34.9325 19.764 34.9788C19.7203 35.0232 19.6758 35.0685 19.5886 35.1155C17.6297 36.7466 14.9584 37.6439 11.931 37.7007L11.3968 37.7043C7.83513 37.7043 4.27349 36.7057 1.24609 35.0072L4.09541 29.5259C7.1228 31.2902 8.90362 31.6864 11.3968 31.6402C12.8214 31.61 13.7118 31.3684 14.4242 30.7305C14.7803 30.3449 14.9584 29.8652 14.9584 29.3375C14.9584 27.909 12.9995 27.2427 10.5064 26.4734C8.36938 25.8497 6.23239 24.9987 4.27349 23.6928C2.31459 22.1416 1.24609 20.1943 1.24609 17.4492C1.24609 15.4539 2.1365 13.6541 3.38308 12.2362C5.34198 10.1983 8.54746 8.96875 12.4653 8.96875C15.6707 8.9723 19.5886 9.89799 22.6159 11.362L19.4105 16.7758C16.205 15.2514 14.6023 15.1039 12.8214 15.0133C10.1502 14.8711 8.90362 15.8235 8.90362 16.8611C8.72554 18.112 11.3968 19.2562 13.7118 20.0344C17.4516 21.1929 22.0817 22.7404 22.794 27.2179L29.5611 9.44314H37.2187L45.0543 30.6967V9.44314Z" fill="#1A1A1A"/>
<path d="M57.1637 43.0618C57.1637 41.6884 58.2322 40.6419 59.4788 40.6419C60.7253 40.6419 61.7938 41.6884 61.7938 43.0618C61.7938 44.4868 60.7253 45.5138 59.4788 45.5138C58.2322 45.5138 57.1637 44.4868 57.1637 43.0618ZM59.4788 46.0006C61.0815 46.0006 62.5062 44.7551 62.5062 43.0618C62.5062 41.3934 61.0815 40.1675 59.4788 40.1675C57.876 40.1675 56.4514 41.3934 56.4514 43.0618C56.4514 44.7551 57.876 46.0006 59.4788 46.0006ZM58.9445 43.3052H59.4788L60.3692 44.7551H60.9034L60.013 43.2768C60.3692 43.2164 60.9034 42.9552 60.9034 42.3582C60.9034 41.6884 60.3692 41.3934 59.6568 41.3934H58.4103V44.7551H58.9445V43.3052ZM58.9445 42.8717V41.8216H59.6568C59.8349 41.8216 60.3692 41.9034 60.3692 42.328C60.3692 42.838 59.8349 42.8717 59.4788 42.8717H58.9445Z" fill="#1A1A1A"/>
</g>
<defs>
<clipPath id="clip0_2736_7410">
<rect width="91" height="45" fill="white" transform="translate(0 1)"/>
</clipPath>
</defs>
</svg>
