<svg width="139" height="48" viewBox="0 0 139 48" fill="none" xmlns="http://www.w3.org/2000/svg">
<path d="M22.1504 39.3743C20.1647 39.723 18.1441 39.8276 16.0539 40.106L9.67845 21.4332V40.9074C7.69278 41.1164 5.88126 41.3951 4 41.6738V6H9.29547L16.5415 26.241V6H22.1504V39.3743ZM33.1243 19.0641C35.2844 19.0641 38.5939 18.9596 40.5796 18.9596V24.5335C38.106 24.5335 35.2146 24.5335 33.1243 24.638V32.9295C36.3992 32.7206 39.6739 32.4416 42.9833 32.3371V37.7018L27.5501 38.9214V6H42.9833V11.574H33.1243V19.0641ZM63.7117 11.5742H57.9287V37.2146C56.0474 37.2146 54.1662 37.2146 52.3549 37.2841V11.5742H46.5719V6H63.712L63.7117 11.5742ZM72.7694 18.681H80.399V24.2549H72.7694V36.9011H67.2995V6H82.8725V11.574H72.7694V18.681ZM91.9302 32.0237C95.1005 32.0932 98.3054 32.3375 101.406 32.5114V38.0158C96.4244 37.702 91.4425 37.3889 86.3563 37.2841V6H91.9302V32.0237ZM106.109 38.399C107.886 38.5037 109.767 38.6083 111.579 38.817V6H106.109V38.399ZM136 6L128.928 22.966L136 41.6738C133.91 41.3951 131.819 41.0118 129.729 40.6634L125.723 30.3517L121.647 39.8276C119.626 39.4789 117.675 39.3743 115.655 39.0956L122.832 22.7568L116.352 6H122.343L126.001 15.3714L129.903 6H136Z" fill="black"/>
</svg>
