<svg width="127" height="25" viewBox="0 0 127 25" fill="none" xmlns="http://www.w3.org/2000/svg">
<path d="M0 4.47229C0.614714 4.32312 1.27796 4.22367 1.98973 4.17395C2.7015 4.12423 3.40519 4.09937 4.10079 4.09937C4.84491 4.09937 5.59713 4.17395 6.35743 4.32312C7.13391 4.47229 7.8376 4.74577 8.46849 5.14356C9.09938 5.54135 9.60894 6.08832 9.99718 6.78445C10.4016 7.48058 10.6038 8.36732 10.6038 9.44467C10.6038 10.5054 10.4178 11.4005 10.0457 12.1298C9.67365 12.859 9.18026 13.4557 8.56555 13.9198C7.95083 14.3673 7.24715 14.6905 6.45449 14.8894C5.66183 15.0883 4.84491 15.1878 4.00373 15.1878C3.92284 15.1878 3.78534 15.1878 3.59122 15.1878C3.41328 15.1878 3.21916 15.1878 3.00886 15.1878C2.81474 15.1712 2.62062 15.1546 2.4265 15.138C2.23238 15.1215 2.09488 15.1049 2.014 15.0883V21.7016H0V4.47229ZM4.14932 5.88942C3.72872 5.88942 3.32431 5.89771 2.93607 5.91428C2.54783 5.93086 2.24047 5.97229 2.014 6.03859V13.2485C2.09488 13.2817 2.22429 13.3065 2.40224 13.3231C2.58018 13.3231 2.76621 13.3314 2.96033 13.348C3.15445 13.348 3.34048 13.348 3.51843 13.348C3.69637 13.348 3.82578 13.348 3.90667 13.348C4.45667 13.348 4.99859 13.2983 5.53242 13.1988C6.08243 13.0828 6.57582 12.8839 7.01259 12.6021C7.44936 12.3204 7.79716 11.9226 8.05598 11.4088C8.33099 10.8949 8.46849 10.2402 8.46849 9.44467C8.46849 8.76511 8.33907 8.20157 8.08025 7.75406C7.8376 7.28997 7.50598 6.92533 7.08538 6.66014C6.68096 6.37837 6.21993 6.17948 5.70228 6.06345C5.18462 5.94743 4.66697 5.88942 4.14932 5.88942Z" fill="#FEFEFE"/>
<path d="M14.7194 4.29826H24.6923V6.13804H16.7334V11.8314H24.0857V13.6712H16.7334V19.8618H24.8136V21.7016H14.7194V4.29826Z" fill="#FEFEFE"/>
<path d="M27.6431 4.29826H40.261V8.84798H38.4653V6.13804H34.9469V19.8618H37.6161V21.7016H30.2638V19.8618H32.9329V6.13804H29.4388V8.84798H27.6431V4.29826Z" fill="#FEFEFE"/>
<path d="M53.8199 19.4143C54.3052 19.6795 54.8471 19.9032 55.4456 20.0856C56.0603 20.2513 56.6751 20.3342 57.2898 20.3342C57.8236 20.3342 58.3251 20.2844 58.7942 20.185C59.2633 20.069 59.6677 19.8949 60.0075 19.6629C60.3633 19.4143 60.6383 19.1077 60.8325 18.743C61.0428 18.3784 61.1479 17.9474 61.1479 17.4502C61.1479 16.7706 60.9214 16.2154 60.4685 15.7844C60.0317 15.3535 59.4817 14.9723 58.8185 14.6408C58.1552 14.3093 57.4354 13.9861 56.6589 13.6712C55.8824 13.3563 55.1625 12.9833 54.4993 12.5524C53.8361 12.1215 53.278 11.5994 52.825 10.9861C52.3882 10.3563 52.1699 9.56069 52.1699 8.59936C52.1699 7.91981 52.2993 7.30655 52.5581 6.75958C52.8331 6.21262 53.2132 5.74854 53.6985 5.36732C54.1838 4.9861 54.7662 4.69605 55.4456 4.49715C56.1412 4.28168 56.9096 4.17395 57.7508 4.17395C58.7214 4.17395 59.603 4.24854 60.3957 4.39771C61.1883 4.5303 61.8192 4.71262 62.2884 4.94467L62.3369 4.91981V4.96953H62.3612L62.3369 5.04411V9.02202H60.5413V6.3618C60.1369 6.26235 59.692 6.17947 59.2067 6.11318C58.7214 6.04688 58.2038 6.01373 57.6537 6.01373C57.1199 6.01373 56.6346 6.08003 56.1978 6.21262C55.7773 6.34522 55.4133 6.52754 55.1059 6.75958C54.8147 6.97505 54.5883 7.23196 54.4265 7.5303C54.2647 7.82865 54.1838 8.14356 54.1838 8.47505C54.1838 9.12146 54.4022 9.66014 54.839 10.0911C55.292 10.522 55.85 10.9115 56.5133 11.2596C57.1765 11.5911 57.8964 11.9226 58.6729 12.2541C59.4494 12.5856 60.1692 12.9751 60.8325 13.4226C61.4957 13.8535 62.0457 14.3756 62.4825 14.9889C62.9354 15.6021 63.1619 16.3646 63.1619 17.2762C63.1619 18.022 63.0244 18.6933 62.7494 19.29C62.4906 19.8867 62.1104 20.4005 61.6089 20.8314C61.1236 21.2623 60.517 21.5938 59.7891 21.8259C59.0773 22.0579 58.2685 22.174 57.3626 22.174C56.7479 22.174 56.1655 22.1242 55.6155 22.0248C55.0655 21.9253 54.5559 21.801 54.0868 21.6519C53.6338 21.5027 53.2213 21.3452 52.8493 21.1795C52.4934 21.0137 52.2103 20.8728 52 20.7568L52.0243 20.6822V16.6546H53.8199V19.4143Z" fill="#FEFEFE"/>
<path d="M75.8188 13.8949H68.1995V21.8756H66.1855V4.47229H68.1995V12.0552H75.8188V4.47229H77.8327V21.8756H75.8188V13.8949Z" fill="#FEFEFE"/>
<path d="M80.4439 13.174C80.4439 10.29 80.9373 8.06898 81.9241 6.51097C82.927 4.95296 84.4638 4.17395 86.5344 4.17395C87.6668 4.17395 88.6212 4.38942 89.3977 4.82036C90.1903 5.2513 90.8293 5.86456 91.3146 6.66014C91.7999 7.43914 92.1477 8.38389 92.358 9.49439C92.5683 10.5883 92.6735 11.8148 92.6735 13.174C92.6735 16.0579 92.172 18.2789 91.169 19.8369C90.1823 21.3949 88.6374 22.174 86.5344 22.174C85.4182 22.174 84.4719 21.9585 83.6954 21.5275C82.9189 21.0966 82.288 20.4916 81.8027 19.7126C81.3174 18.917 80.9696 17.9723 80.7593 16.8784C80.549 15.7679 80.4439 14.5331 80.4439 13.174ZM82.5792 13.174C82.5792 14.1353 82.6358 15.0469 82.7491 15.9088C82.8785 16.7706 83.0969 17.5331 83.4042 18.1961C83.7116 18.8425 84.116 19.3646 84.6175 19.7623C85.1189 20.1436 85.7579 20.3342 86.5344 20.3342C87.9256 20.3342 88.9366 19.7541 89.5675 18.5938C90.2146 17.4336 90.5381 15.627 90.5381 13.174C90.5381 12.2292 90.4734 11.3259 90.344 10.464C90.2308 9.58555 90.0205 8.82312 89.7131 8.17671C89.4058 7.51373 88.9933 6.99163 88.4756 6.61041C87.958 6.21262 87.3109 6.01373 86.5344 6.01373C85.1594 6.01373 84.1564 6.60213 83.5256 7.77892C82.8947 8.93914 82.5792 10.7375 82.5792 13.174Z" fill="#FEFEFE"/>
<path d="M96.2552 4.64633C96.8699 4.49715 97.5332 4.39771 98.2449 4.34798C98.9567 4.29826 99.6604 4.2734 100.356 4.2734C101.1 4.2734 101.852 4.34798 102.613 4.49715C103.389 4.64632 104.093 4.91981 104.724 5.3176C105.355 5.71539 105.864 6.26235 106.252 6.95848C106.657 7.65461 106.859 8.54135 106.859 9.6187C106.859 10.6795 106.673 11.5745 106.301 12.3038C105.929 13.0331 105.435 13.6298 104.821 14.0938C104.206 14.5414 103.502 14.8646 102.71 15.0635C101.917 15.2623 101.1 15.3618 100.259 15.3618C100.178 15.3618 100.041 15.3618 99.8464 15.3618C99.6685 15.3618 99.4743 15.3618 99.2641 15.3618C99.0699 15.3452 98.8758 15.3286 98.6817 15.3121C98.4876 15.2955 98.3501 15.2789 98.2692 15.2623V21.8756H96.2552V4.64633ZM100.405 6.06345C99.9839 6.06345 99.5795 6.07174 99.1913 6.08831C98.803 6.10489 98.4957 6.14633 98.2692 6.21262V13.4226C98.3501 13.4557 98.4795 13.4806 98.6574 13.4972C98.8354 13.4972 99.0214 13.5054 99.2155 13.522C99.4097 13.522 99.5957 13.522 99.7736 13.522C99.9516 13.522 100.081 13.522 100.162 13.522C100.712 13.522 101.254 13.4723 101.788 13.3728C102.338 13.2568 102.831 13.0579 103.268 12.7762C103.705 12.4944 104.052 12.0966 104.311 11.5828C104.586 11.069 104.724 10.4143 104.724 9.6187C104.724 8.93914 104.594 8.37561 104.335 7.92809C104.093 7.464 103.761 7.09936 103.341 6.83417C102.936 6.5524 102.475 6.35351 101.957 6.23749C101.44 6.12146 100.922 6.06345 100.405 6.06345Z" fill="#FEFEFE"/>
</svg>
