<svg width="139" height="48" viewBox="0 0 139 48" fill="none" xmlns="http://www.w3.org/2000/svg">
<path d="M55.1663 19.2629H59.343V32.3879H55.1663V19.2629Z" fill="black"/>
<path d="M60.2224 19.2629H64.244V21.0604H64.3215C65.2914 19.6509 66.5457 18.8879 68.369 18.8879C71.2397 18.8879 72.9336 20.944 72.9336 23.8664V32.4009H68.7569V24.7069C68.7569 23.3233 68.0586 22.3793 66.7009 22.3793C65.3172 22.3793 64.3991 23.5302 64.3991 25.1466V32.4009H60.2224V19.2629Z" fill="black"/>
<path d="M57.2613 18.2672C58.6468 18.2672 59.7699 17.1441 59.7699 15.7586C59.7699 14.3731 58.6468 13.25 57.2613 13.25C55.8758 13.25 54.7527 14.3731 54.7527 15.7586C54.7527 17.1441 55.8758 18.2672 57.2613 18.2672Z" fill="black"/>
<path d="M102.312 19.069C102.196 19.056 102.054 19.056 101.899 19.056C100.308 19.056 99.2349 19.7543 98.3039 21.306H98.2263V19.2629H94.2306V32.3879H98.4073V26.4914C98.4073 23.7629 99.9202 22.4957 102.312 22.7155V19.069Z" fill="black"/>
<path d="M122.822 24.1121C121.153 23.8017 119.666 23.6724 119.666 22.7543C119.666 21.9397 120.455 21.5517 121.49 21.5517C122.641 21.5517 123.442 21.9138 123.597 23.0905H127.438C127.231 20.5043 125.24 18.8879 121.515 18.8879C118.412 18.8879 115.852 20.3233 115.852 23.0905C115.852 26.1681 118.283 26.7759 120.572 27.1638C122.317 27.4741 123.908 27.6035 123.908 28.7802C123.908 29.6207 123.119 30.0862 121.852 30.0862C120.597 30.0862 119.757 29.556 119.498 28.4698H115.516C115.813 31.1724 118.179 32.8017 121.878 32.8017C125.317 32.8017 127.852 31.3147 127.852 28.444C127.839 25.0819 125.123 24.5 122.822 24.1121Z" fill="black"/>
<path d="M109.024 29.7759C107.304 29.7759 106.334 28.6767 106.076 26.9052H115.503C115.528 24.2414 114.765 21.9526 113.201 20.5172C112.076 19.4957 110.589 18.875 108.714 18.875C104.718 18.875 101.977 21.875 101.977 25.7931C101.977 29.7629 104.64 32.7629 108.972 32.7629C110.64 32.7629 111.972 32.3233 113.072 31.5603C114.222 30.7715 114.998 29.6336 115.27 28.4569H111.197C110.847 29.2845 110.136 29.7759 109.024 29.7759ZM108.791 21.8491C110.149 21.8491 111.119 22.8448 111.274 24.4095H106.102C106.386 22.8578 107.214 21.8491 108.791 21.8491Z" fill="black"/>
<path d="M135.197 29.2974C135.003 29.3103 134.744 29.3103 134.498 29.3103C133.606 29.3103 133.037 29.0517 133.037 28.0302V21.875H135.197V19.2629H133.037V15.1121H128.964V19.2629H127.684V21.875H128.964V28.9224C128.964 31.7414 130.71 32.5431 133.141 32.5431C134.072 32.5431 134.77 32.4784 135.197 32.3879V29.2974Z" fill="black"/>
<path d="M80.3946 29.2974C80.2265 29.2974 80.0325 29.3103 79.8515 29.3103C78.9592 29.3103 78.3903 29.0517 78.3903 28.0302V21.875H80.3946V19.2629H78.3903V15.1121H74.317V19.2629H72.9592V21.875H74.317V28.9224C74.317 31.7414 76.0627 32.5431 78.4937 32.5431C79.3213 32.5431 79.9678 32.4914 80.3946 32.4138V29.2974Z" fill="black"/>
<path d="M80.1877 25.806C80.1877 21.8879 82.9291 18.8879 86.9248 18.8879C88.7998 18.8879 90.2869 19.5086 91.4119 20.5302C92.9765 21.9655 93.7395 24.2414 93.7136 26.9181H84.2869C84.5455 28.6897 85.5153 29.7888 87.2352 29.7888C88.3343 29.7888 89.0584 29.2974 89.4076 28.4828H93.4808C93.1964 29.6595 92.4334 30.7845 91.2826 31.5862C90.1834 32.3491 88.8515 32.7888 87.1834 32.7888C82.8515 32.7759 80.1877 29.7759 80.1877 25.806ZM89.4981 24.4224C89.3429 22.8578 88.3731 21.8621 87.0153 21.8621C85.4248 21.8621 84.6102 22.8578 84.3257 24.4224H89.4981Z" fill="black"/>
<path d="M40.4767 14.0647H47.731C49.9551 14.0647 51.5974 14.6854 52.7353 15.7587C53.912 16.8578 54.5844 18.4225 54.5844 20.2716C54.5844 23.7888 52.1534 26.2716 48.3775 26.2716H44.7051V32.4009H40.4767V14.0647ZM47.912 22.6768C49.5543 22.6768 50.4724 21.7069 50.4724 20.2457C50.4724 18.7845 49.5284 17.8923 47.912 17.8923H44.7051V22.6897H47.912V22.6768Z" fill="black"/>
<path fill-rule="evenodd" clip-rule="evenodd" d="M34.6191 23.7112C34.6191 32.3883 27.5849 39.4224 18.9079 39.4224C17.2941 39.4224 15.7371 39.1791 14.2717 38.7272C14.9182 37.6789 15.8702 35.9784 16.2182 34.6121C16.4122 33.875 17.201 30.875 17.201 30.875C17.7053 31.8577 19.2053 32.6853 20.7958 32.6853C25.5285 32.6853 28.9423 28.3276 28.9423 22.9095C28.9423 17.7112 24.701 13.8319 19.257 13.8319C12.4682 13.8319 8.87338 18.3836 8.87338 23.3362C8.87338 25.6379 10.0889 28.5086 12.0285 29.4396C12.326 29.5819 12.4941 29.5172 12.5587 29.2327C12.5802 29.1415 12.6396 28.9031 12.71 28.6203C12.8092 28.222 12.9303 27.7356 12.9984 27.4483C13.0372 27.2931 13.0242 27.1509 12.8949 26.9957C12.2484 26.2069 11.7311 24.7586 11.7311 23.4138C11.7311 19.9483 14.3561 16.5991 18.8303 16.5991C22.6966 16.5991 25.3992 19.2241 25.3992 22.9871C25.3992 27.2284 23.2527 30.1767 20.4596 30.1767C18.9208 30.1767 17.757 28.8965 18.132 27.3319C18.2931 26.6644 18.5051 25.9788 18.7112 25.312C19.0841 24.1058 19.438 22.9609 19.438 22.0948C19.438 20.8922 18.7915 19.8836 17.4467 19.8836C15.8691 19.8836 14.6018 21.5129 14.6018 23.6983C14.6018 25.0819 15.0673 26.0259 15.0673 26.0259C15.0673 26.0259 13.5156 32.6077 13.2311 33.8362C12.9211 35.1925 13.0369 37.1037 13.179 38.3452C7.33505 36.0557 3.19666 30.3667 3.19666 23.7112C3.19666 15.0341 10.2308 8 18.9079 8C23.5932 8 27.7997 10.0512 30.6804 13.3066C33.1314 16.0778 34.6191 19.7207 34.6191 23.7112Z" fill="black"/>
</svg>
