<svg width="48" height="39" viewBox="0 0 48 39" fill="none" xmlns="http://www.w3.org/2000/svg">
<path d="M43.1008 0H47.6008V4.50001H45.8008C42.0808 4.50001 39.3208 5.70001 37.5208 8.1C35.8408 10.38 35.0008 14.58 35.0008 20.7V38.7H23.3008V26.1C23.3008 16.62 24.9208 9.90001 28.1608 5.94001C31.5208 1.98 36.5008 0 43.1008 0ZM20.6008 0H25.1008V4.50001H23.3008C19.5808 4.50001 16.8208 5.70001 15.0208 8.1C13.3408 10.38 12.5008 14.58 12.5008 20.7V38.7H0.800781V26.1C0.800781 16.62 2.42078 9.90001 5.66078 5.94001C9.02078 1.98 14.0008 0 20.6008 0Z" fill="black"/>
</svg>
