<svg width="145" height="50" viewBox="0 0 145 50" fill="none" xmlns="http://www.w3.org/2000/svg">
<g clip-path="url(#clip0_2363_5453)">
<path d="M85.6475 47.2974L88.8017 27.6353H95.2278C96.4711 27.6353 97.4658 27.865 98.2249 28.3109C98.984 28.7569 99.5075 29.365 99.7823 30.1488C100.07 30.919 100.136 31.7974 99.9656 32.7839C99.8347 33.6082 99.586 34.2974 99.2326 34.892C98.8793 35.4731 98.4343 35.9326 97.9239 36.2974C97.4134 36.6623 96.8637 36.919 96.2748 37.0812L96.2486 37.2298C96.8507 37.2704 97.4134 37.5001 97.937 37.9055C98.4474 38.2974 98.84 38.865 99.0887 39.5812C99.3504 40.2974 99.4028 41.1488 99.2457 42.1488C99.0887 43.1353 98.7222 44.0271 98.1725 44.8109C97.6228 45.5812 96.8638 46.2028 95.9083 46.6488C94.9529 47.0947 93.8012 47.3109 92.427 47.3109H85.6475V47.2974ZM87.6499 45.6893H92.6887C94.1546 45.6893 95.2932 45.3515 96.1047 44.6758C96.9161 44.0001 97.4134 43.1623 97.5836 42.1353C97.7014 41.392 97.6359 40.7028 97.3742 40.0947C97.1255 39.4866 96.7067 39.0001 96.1308 38.6353C95.555 38.2704 94.8351 38.0947 93.9844 38.0947H88.8671L87.6368 45.6623L87.6499 45.6893ZM89.1419 36.5271H93.9844C94.7304 36.5271 95.411 36.365 96.0261 36.0407C96.6413 35.7163 97.1517 35.2839 97.5443 34.7163C97.95 34.1488 98.1987 33.5136 98.3165 32.7839C98.4866 31.7434 98.3034 30.892 97.7537 30.2434C97.204 29.5812 96.2879 29.2569 94.9791 29.2569H90.2937L89.1419 36.5271ZM106.208 47.6353C105.345 47.6353 104.586 47.4596 103.931 47.1217C103.277 46.7704 102.779 46.2704 102.465 45.6082C102.151 44.9461 102.06 44.1353 102.204 43.1893C102.321 42.4596 102.557 41.8515 102.91 41.3515C103.264 40.8515 103.709 40.4461 104.245 40.1217C104.782 39.7974 105.41 39.5407 106.104 39.3515C106.81 39.1623 107.57 39.0271 108.394 38.9326C109.206 38.8244 109.886 38.7434 110.462 38.6623C111.038 38.5812 111.47 38.4596 111.797 38.2974C112.111 38.1353 112.307 37.865 112.36 37.4866L112.412 37.1353C112.569 36.1353 112.412 35.338 111.967 34.7704C111.509 34.1893 110.737 33.892 109.664 33.892C108.59 33.892 107.74 34.1353 106.981 34.6082C106.235 35.0812 105.672 35.6217 105.305 36.2434L103.84 35.6623C104.285 34.8515 104.834 34.2163 105.489 33.7298C106.143 33.2434 106.837 32.892 107.583 32.6893C108.329 32.4731 109.062 32.365 109.781 32.365C110.331 32.365 110.881 32.4326 111.444 32.5812C112.006 32.7298 112.517 32.9866 112.962 33.3515C113.42 33.7163 113.747 34.2163 113.956 34.865C114.179 35.5001 114.205 36.3109 114.048 37.2974L112.425 47.3109H110.776L111.156 44.9731H111.051C110.789 45.4055 110.436 45.8244 109.978 46.2434C109.52 46.6488 108.983 46.9866 108.355 47.2569C107.727 47.5136 107.007 47.6488 106.222 47.6488L106.208 47.6353ZM106.627 46.0677C107.504 46.0677 108.303 45.865 109.022 45.4596C109.742 45.0542 110.331 44.5271 110.789 43.8515C111.26 43.1758 111.548 42.4461 111.679 41.6353L112.019 39.5001C111.889 39.6217 111.666 39.7298 111.352 39.8244C111.051 39.919 110.711 40.0136 110.318 40.0812C109.938 40.1488 109.559 40.2163 109.179 40.2569C108.8 40.3109 108.473 40.3515 108.172 40.392C107.347 40.5001 106.627 40.6488 106.012 40.8785C105.41 41.0947 104.913 41.392 104.559 41.7839C104.193 42.1623 103.97 42.6488 103.866 43.2434C103.722 44.1353 103.918 44.838 104.429 45.3244C104.952 45.8109 105.685 46.0542 106.627 46.0542V46.0677ZM119.964 38.0812L118.485 47.2974H116.836L119.218 32.5542H120.828L120.461 34.865H120.605C121.05 34.1082 121.665 33.5001 122.45 33.0542C123.249 32.5947 124.165 32.365 125.212 32.365C126.167 32.365 126.966 32.5677 127.633 32.9866C128.301 33.392 128.772 34.0001 129.047 34.7974C129.335 35.5947 129.387 36.5812 129.191 37.7434L127.633 47.2974H125.984L127.502 37.8515C127.699 36.6488 127.529 35.6893 126.992 34.9866C126.468 34.2704 125.644 33.919 124.545 33.919C123.799 33.919 123.092 34.0812 122.45 34.419C121.809 34.7569 121.273 35.2298 120.828 35.865C120.383 36.4866 120.095 37.2298 119.951 38.0812H119.964ZM134.387 41.7298L134.727 39.4731H135.093L142.894 32.5542H145.014L137.305 39.392L137.161 39.419L134.387 41.7298ZM131.991 47.2974L135.159 27.6353H136.808L133.641 47.2974H131.991ZM140.917 47.2974L136.324 39.7298L137.672 38.5542L143.011 47.3109H140.917V47.2974Z" fill="#FEFEFE"/>
<path d="M17.6826 39.3379C17.1198 42.8919 18.7951 43.7838 21.5828 43.7838C23.5329 43.7838 26.0326 42.8919 26.3206 40.8244C26.8834 38.1622 23.258 37.8649 19.6327 36.3784C16.0074 35.1892 12.67 33.4189 13.7824 27.7973C15.1698 21.2838 21.5828 18.9189 26.3075 18.9189C31.595 18.9189 36.0579 21.8784 34.6575 28.3919H27.6948C28.8073 26.0271 26.8572 25.1352 24.9071 25.1352C23.5198 25.1352 21.5697 25.7298 21.0069 27.7973C20.4441 30.1622 24.3443 30.4595 27.6948 31.6487C31.3201 32.8379 34.6575 34.9054 33.5451 40.2298C31.8698 47.6352 25.7447 50 19.9075 50C14.0704 50 9.33258 47.0406 10.7199 39.3379H17.6826ZM65.0213 19.8108H71.984L65.584 49.4054H58.6213L65.0213 19.8108ZM39.9581 19.8108H52.2083C56.6581 19.8108 61.3959 21 60.0086 27.2162C59.4459 29.8784 57.5089 31.946 55.2708 33.1352C57.7706 34.0271 58.8962 36.6892 58.3334 40.2433C56.9461 47.3514 51.9334 49.4189 46.0832 49.4189H33.5581L39.9581 19.8244V19.8108ZM44.4079 31.3514H49.6954C50.8079 31.3514 52.758 30.7568 53.0328 28.6892C53.5956 26.6216 52.1952 25.7298 50.8079 25.7298H45.5204L44.4079 31.3514ZM41.9082 43.1892H47.4836C49.7085 43.1892 51.3838 42.2973 51.9334 39.9325C52.4962 37.2703 51.0958 36.3784 48.8709 36.3784H43.3086L41.9213 43.1892H41.9082Z" fill="#FEFEFE"/>
<path d="M81.7989 8.60776C77.8856 -1.77062 56.3954 -2.91927 33.5048 6.01316C17.0273 12.351 4.46295 22.1483 0 31.0807C6.13819 24.4591 16.1896 17.824 28.4791 13.2159C51.3697 3.99965 73.1479 5.1483 76.7732 15.5267C77.8856 18.4051 77.336 21.8645 75.6607 25.324C81.2492 19.5672 83.7621 13.5132 81.7989 8.60776Z" fill="#FEFEFE"/>
</g>
<defs>
<clipPath id="clip0_2363_5453">
<rect width="145" height="50" fill="white"/>
</clipPath>
</defs>
</svg>
