<svg width="120" height="24" viewBox="0 0 120 24" fill="none" xmlns="http://www.w3.org/2000/svg">
<path d="M10.5669 2.92705C10.8663 2.00574 12.1697 2.00574 12.469 2.92705L13.8794 7.26773C14.0133 7.67975 14.3972 7.95871 14.8304 7.95871H19.3945C20.3632 7.95871 20.766 9.19833 19.9823 9.76773L16.2899 12.4504C15.9394 12.7051 15.7927 13.1564 15.9266 13.5684L17.337 17.9091C17.6363 18.8304 16.5819 19.5966 15.7981 19.0272L12.1057 16.3445C11.7553 16.0898 11.2807 16.0898 10.9302 16.3445L7.23777 19.0272C6.45406 19.5966 5.39958 18.8304 5.69893 17.9091L7.1093 13.5684C7.24317 13.1564 7.09652 12.7051 6.74603 12.4504L3.05363 9.76773C2.26991 9.19833 2.67269 7.95871 3.64141 7.95871H8.20547C8.6387 7.95871 9.02265 7.67975 9.15653 7.26773L10.5669 2.92705Z" fill="#FF3D2E"/>
<path d="M34.6028 2.92705C34.9021 2.00574 36.2055 2.00574 36.5049 2.92705L37.9153 7.26773C38.0491 7.67975 38.4331 7.95871 38.8663 7.95871H43.4304C44.3991 7.95871 44.8019 9.19833 44.0182 9.76773L40.3258 12.4504C39.9753 12.7051 39.8286 13.1564 39.9625 13.5684L41.3729 17.9091C41.6722 18.8304 40.6177 19.5966 39.834 19.0272L36.1416 16.3445C35.7911 16.0898 35.3165 16.0898 34.9661 16.3445L31.2737 19.0272C30.4899 19.5966 29.4355 18.8304 29.7348 17.9091L31.1452 13.5684C31.2791 13.1564 31.1324 12.7051 30.7819 12.4504L27.0895 9.76773C26.3058 9.19833 26.7086 7.95871 27.6773 7.95871H32.2414C32.6746 7.95871 33.0585 7.67975 33.1924 7.26773L34.6028 2.92705Z" fill="#FF3D2E"/>
<path d="M58.6387 2.92705C58.938 2.00574 60.2414 2.00574 60.5408 2.92705L61.9512 7.26773C62.085 7.67975 62.469 7.95871 62.9022 7.95871H67.4663C68.435 7.95871 68.8378 9.19833 68.0541 9.76773L64.3617 12.4504C64.0112 12.7051 63.8645 13.1564 63.9984 13.5684L65.4088 17.9091C65.7081 18.8304 64.6536 19.5966 63.8699 19.0272L60.1775 16.3445C59.827 16.0898 59.3524 16.0898 59.0019 16.3445L55.3095 19.0272C54.5258 19.5966 53.4714 18.8304 53.7707 17.9091L55.1811 13.5684C55.315 13.1564 55.1683 12.7051 54.8178 12.4504L51.1254 9.76773C50.3417 9.19833 50.7445 7.95871 51.7132 7.95871H56.2772C56.7105 7.95871 57.0944 7.67975 57.2283 7.26773L58.6387 2.92705Z" fill="#FF3D2E"/>
<path d="M82.6747 2.92705C82.974 2.00574 84.2774 2.00574 84.5768 2.92705L85.9872 7.26773C86.121 7.67975 86.505 7.95871 86.9382 7.95871H91.5023C92.471 7.95871 92.8738 9.19833 92.0901 9.76773L88.3977 12.4504C88.0472 12.7051 87.9005 13.1564 88.0344 13.5684L89.4448 17.9091C89.7441 18.8304 88.6896 19.5966 87.9059 19.0272L84.2135 16.3445C83.863 16.0898 83.3884 16.0898 83.038 16.3445L79.3456 19.0272C78.5618 19.5966 77.5074 18.8304 77.8067 17.9091L79.2171 13.5684C79.351 13.1564 79.2043 12.7051 78.8538 12.4504L75.1614 9.76773C74.3777 9.19833 74.7805 7.95871 75.7492 7.95871H80.3133C80.7465 7.95871 81.1304 7.67975 81.2643 7.26773L82.6747 2.92705Z" fill="#FF3D2E"/>
<path d="M106.71 2.92705C107.01 2.00574 108.313 2.00574 108.613 2.92705L110.023 7.26773C110.157 7.67975 110.541 7.95871 110.974 7.95871H115.538C116.507 7.95871 116.91 9.19833 116.126 9.76773L112.433 12.4504C112.083 12.7051 111.936 13.1564 112.07 13.5684L113.481 17.9091C113.78 18.8304 112.725 19.5966 111.942 19.0272L108.249 16.3445C107.899 16.0898 107.424 16.0898 107.074 16.3445L103.381 19.0272C102.598 19.5966 101.543 18.8304 101.842 17.9091L103.253 13.5684C103.387 13.1564 103.24 12.7051 102.89 12.4504L99.1972 9.76773C98.4135 9.19833 98.8162 7.95871 99.785 7.95871H104.349C104.782 7.95871 105.166 7.67975 105.3 7.26773L106.71 2.92705Z" fill="#FF3D2E"/>
</svg>
