<svg width="176" height="32" viewBox="0 0 176 32" fill="none" xmlns="http://www.w3.org/2000/svg">
<path d="M14.5734 4.39057C15.0224 3.00861 16.9776 3.00861 17.4266 4.39058L19.2555 10.0193C19.4563 10.6373 20.0322 11.0557 20.682 11.0557H26.6004C28.0535 11.0557 28.6576 12.9152 27.4821 13.7693L22.694 17.248C22.1683 17.6299 21.9483 18.307 22.1491 18.925L23.978 24.5537C24.427 25.9357 22.8453 27.0848 21.6697 26.2307L16.8817 22.752C16.3559 22.3701 15.6441 22.3701 15.1183 22.752L10.3303 26.2307C9.15471 27.0849 7.57299 25.9357 8.02202 24.5537L9.85089 18.925C10.0517 18.307 9.83171 17.6299 9.30598 17.248L4.51794 13.7693C3.34237 12.9151 3.94654 11.0557 5.39962 11.0557H11.318C11.9678 11.0557 12.5437 10.6373 12.7445 10.0193L14.5734 4.39057Z" fill="#FFC700"/>
<path d="M50.5734 4.39057C51.0224 3.00861 52.9776 3.00861 53.4266 4.39058L55.2555 10.0193C55.4563 10.6373 56.0322 11.0557 56.682 11.0557H62.6004C64.0535 11.0557 64.6576 12.9152 63.4821 13.7693L58.694 17.248C58.1683 17.6299 57.9483 18.307 58.1491 18.925L59.978 24.5537C60.427 25.9357 58.8453 27.0848 57.6697 26.2307L52.8817 22.752C52.3559 22.3701 51.6441 22.3701 51.1183 22.752L46.3303 26.2307C45.1547 27.0849 43.573 25.9357 44.022 24.5537L45.8509 18.925C46.0517 18.307 45.8317 17.6299 45.306 17.248L40.5179 13.7693C39.3424 12.9151 39.9465 11.0557 41.3996 11.0557H47.318C47.9678 11.0557 48.5437 10.6373 48.7445 10.0193L50.5734 4.39057Z" fill="#FFC700"/>
<path d="M86.5734 4.39057C87.0224 3.00861 88.9776 3.00861 89.4266 4.39058L91.2555 10.0193C91.4563 10.6373 92.0322 11.0557 92.682 11.0557H98.6004C100.053 11.0557 100.658 12.9152 99.4821 13.7693L94.694 17.248C94.1683 17.6299 93.9483 18.307 94.1491 18.925L95.978 24.5537C96.427 25.9357 94.8453 27.0848 93.6697 26.2307L88.8817 22.752C88.3559 22.3701 87.6441 22.3701 87.1183 22.752L82.3303 26.2307C81.1547 27.0849 79.573 25.9357 80.022 24.5537L81.8509 18.925C82.0517 18.307 81.8317 17.6299 81.306 17.248L76.5179 13.7693C75.3424 12.9151 75.9465 11.0557 77.3996 11.0557H83.318C83.9678 11.0557 84.5437 10.6373 84.7445 10.0193L86.5734 4.39057Z" fill="#FFC700"/>
<path d="M122.573 4.39057C123.022 3.00861 124.978 3.00861 125.427 4.39058L127.255 10.0193C127.456 10.6373 128.032 11.0557 128.682 11.0557H134.6C136.053 11.0557 136.658 12.9152 135.482 13.7693L130.694 17.248C130.168 17.6299 129.948 18.307 130.149 18.925L131.978 24.5537C132.427 25.9357 130.845 27.0848 129.67 26.2307L124.882 22.752C124.356 22.3701 123.644 22.3701 123.118 22.752L118.33 26.2307C117.155 27.0849 115.573 25.9357 116.022 24.5537L117.851 18.925C118.052 18.307 117.832 17.6299 117.306 17.248L112.518 13.7693C111.342 12.9151 111.947 11.0557 113.4 11.0557H119.318C119.968 11.0557 120.544 10.6373 120.745 10.0193L122.573 4.39057Z" fill="#FFC700"/>
<path d="M158.573 4.39057C159.022 3.00861 160.978 3.00861 161.427 4.39058L163.255 10.0193C163.456 10.6373 164.032 11.0557 164.682 11.0557H170.6C172.053 11.0557 172.658 12.9152 171.482 13.7693L166.694 17.248C166.168 17.6299 165.948 18.307 166.149 18.925L167.978 24.5537C168.427 25.9357 166.845 27.0848 165.67 26.2307L160.882 22.752C160.356 22.3701 159.644 22.3701 159.118 22.752L154.33 26.2307C153.155 27.0849 151.573 25.9357 152.022 24.5537L153.851 18.925C154.052 18.307 153.832 17.6299 153.306 17.248L148.518 13.7693C147.342 12.9151 147.947 11.0557 149.4 11.0557H155.318C155.968 11.0557 156.544 10.6373 156.745 10.0193L158.573 4.39057Z" fill="#FFC700"/>
</svg>
