<svg width="148" height="148" viewBox="0 0 148 148" fill="none" xmlns="http://www.w3.org/2000/svg">
<path d="M54 20C54 8.9543 62.9543 0 74 0C85.0457 0 94 8.9543 94 20V128C94 139.046 85.0457 148 74 148C62.9543 148 54 139.046 54 128V20Z" fill="#97C1FF"/>
<path d="M20 94C8.9543 94 -3.91405e-07 85.0457 -8.74228e-07 74C-1.35705e-06 62.9543 8.9543 54 20 54L128 54C139.046 54 148 62.9543 148 74C148 85.0457 139.046 94 128 94L20 94Z" fill="#97C1FF"/>
<path d="M21.674 50.5436C13.7019 42.5715 13.7019 29.6462 21.674 21.6742C29.6461 13.7021 42.5714 13.7021 50.5434 21.6742L126.326 97.4565C134.298 105.429 134.298 118.354 126.326 126.326C118.354 134.298 105.428 134.298 97.4563 126.326L21.674 50.5436Z" fill="#97C1FF"/>
<path d="M97.4569 21.674C105.429 13.7019 118.354 13.7019 126.326 21.674C134.298 29.6461 134.298 42.5714 126.326 50.5434L50.544 126.326C42.5719 134.298 29.6466 134.298 21.6745 126.326C13.7024 118.354 13.7025 105.428 21.6745 97.4563L97.4569 21.674Z" fill="#97C1FF"/>
<path d="M55.0473 63.984C53.1699 62.32 52.2313 60.0587 52.2313 57.2C52.2313 54.3413 53.1699 52.08 55.0473 50.416C56.9246 48.752 59.0793 47.92 61.5113 47.92C63.9433 47.92 66.0979 48.752 67.9753 50.416C69.8526 52.08 70.7913 54.3413 70.7913 57.2C70.7913 60.0587 69.8526 62.32 67.9753 63.984C66.0979 65.648 63.9433 66.48 61.5113 66.48C59.0793 66.48 56.9246 65.648 55.0473 63.984ZM57.6713 53.04C56.6046 54.1067 56.0713 55.4933 56.0713 57.2C56.0713 58.9067 56.6046 60.2933 57.6713 61.36C58.7379 62.4267 60.0179 62.96 61.5113 62.96C63.0046 62.96 64.2846 62.4267 65.3513 61.36C66.4179 60.2933 66.9513 58.9067 66.9513 57.2C66.9513 55.4933 66.4179 54.1067 65.3513 53.04C64.2846 51.9733 63.0046 51.44 61.5113 51.44C60.0179 51.44 58.7379 51.9733 57.6713 53.04ZM92.9353 79.216C94.8126 80.88 95.7513 83.1413 95.7513 86C95.7513 88.8587 94.8126 91.12 92.9353 92.784C91.0579 94.448 88.9033 95.28 86.4713 95.28C84.0393 95.28 81.8846 94.448 80.0073 92.784C78.1299 91.12 77.1913 88.8587 77.1913 86C77.1913 83.1413 78.1299 80.88 80.0073 79.216C81.8846 77.552 84.0393 76.72 86.4713 76.72C88.9033 76.72 91.0579 77.552 92.9353 79.216ZM90.3113 90.16C91.3779 89.0933 91.9113 87.7067 91.9113 86C91.9113 84.2933 91.3779 82.9067 90.3113 81.84C89.2446 80.7733 87.9646 80.24 86.4713 80.24C84.9779 80.24 83.6979 80.7733 82.6313 81.84C81.5646 82.9067 81.0312 84.2933 81.0312 86C81.0312 87.7067 81.5646 89.0933 82.6313 90.16C83.6979 91.2267 84.9779 91.76 86.4713 91.76C87.9646 91.76 89.2446 91.2267 90.3113 90.16ZM89.5433 47.6L92.5513 49.84L58.4392 95.6L55.4313 93.36L89.5433 47.6Z" fill="black"/>
</svg>
