<svg width="96" height="55" viewBox="0 0 96 55" fill="none" xmlns="http://www.w3.org/2000/svg">
<path d="M51.9872 0.802979V9.93364H43.2441V0.802979H36.8674V25.2558H43.2441V16.1251H51.9872V25.2558H58.3639V16.1251V9.93364V0.802979H51.9872Z" fill="#1A1A1A"/>
<path d="M82.1002 6.97038V0.802979H62.3474V9.93364V16.1251V25.2558H62.5218H68.7241H82.1002V19.0884H68.7241V16.1251H82.1002V9.93364H68.7241V6.97038H82.1002Z" fill="#1A1A1A"/>
<path d="M15.6931 29.2068V38.3615H6.97497V29.2068H0.573364V53.6596H6.97497V44.5289H15.6931V53.6596H22.0947V44.5289V38.3615V29.2068H15.6931Z" fill="#1A1A1A"/>
<path d="M60.5784 47.4922V29.2068H54.2017V53.6596H54.3511H60.5784H72.8087V47.4922H60.5784Z" fill="#1A1A1A"/>
<path d="M95.9994 35.3983V29.2068H76.2217V38.3615V44.5289V53.6596H76.396H82.6233H95.9994V47.4922H82.6233V44.5289H95.9994V38.3615H82.6233V35.3983H95.9994Z" fill="#1A1A1A"/>
<path d="M15.718 29.2791V38.4338H6.97497V29.2791H0.573364V53.756H6.97497V44.6012H15.718V53.756H22.0947V44.6012V38.4338V29.2791H15.718Z" fill="#1A1A1A"/>
<path d="M60.5784 47.5644V29.2791H54.2017V53.756H54.3511H60.5784H72.8087V47.5644H60.5784Z" fill="#1A1A1A"/>
<path d="M95.9998 35.4706V29.2791H76.2469V38.4338V44.6012V53.756H76.3964H82.6237H95.9998V47.5644H82.6237V44.6012H95.9998V38.4338H82.6237V35.4706H95.9998Z" fill="#1A1A1A"/>
<path d="M33.329 0.802979H25.3083H10.886V6.97038H18.9316V25.3522H25.3083V7.06676V6.97038H33.329V0.802979Z" fill="#1A1A1A"/>
<path fill-rule="evenodd" clip-rule="evenodd" d="M47.8688 32.2797C53.1606 37.3978 53.1606 45.6958 47.8688 50.8139C42.5771 55.9319 33.9975 55.9319 28.7057 50.8139C23.414 45.6958 23.414 37.3978 28.7057 32.2797C33.9975 27.1616 42.5771 27.1616 47.8688 32.2797ZM45.3602 41.4937C45.3602 45.2591 42.2041 48.3115 38.3109 48.3115C34.4178 48.3115 31.2617 45.2591 31.2617 41.4937C31.2617 37.7282 34.4178 34.6758 38.3109 34.6758C42.2041 34.6758 45.3602 37.7282 45.3602 41.4937Z" fill="#1A1A1A"/>
</svg>
