<svg width="72" height="72" viewBox="0 0 72 72" fill="none" xmlns="http://www.w3.org/2000/svg">
<mask id="path-1-inside-1" fill="white">
<path d="M61.9247 37.978C61.4789 43.8205 59.0726 49.3412 55.0961 53.6448C51.1195 57.9485 45.8058 60.7827 40.0166 61.6879C34.2274 62.5931 28.3022 61.5162 23.2017 58.6319C18.1012 55.7476 14.1245 51.2249 11.9165 45.7973C9.70855 40.3697 9.3987 34.3554 11.0372 28.7296C12.6757 23.1038 16.1665 18.1964 20.9436 14.8032C25.7207 11.41 31.5039 9.72988 37.3555 10.0354C43.207 10.3408 48.7839 12.614 53.1816 16.4861L51.7656 18.0944C47.7302 14.5414 42.613 12.4556 37.2437 12.1753C31.8744 11.895 26.5679 13.4366 22.1845 16.5502C17.8012 19.6637 14.5981 24.1667 13.0946 29.3288C11.5911 34.4909 11.8754 40.0095 13.9015 44.9898C15.9275 49.9701 19.5764 54.12 24.2565 56.7666C28.9366 59.4132 34.3735 60.4013 39.6856 59.5707C44.9976 58.7401 49.8734 56.1395 53.5222 52.1906C57.171 48.2417 59.379 43.176 59.788 37.8149L61.9247 37.978Z"/>
</mask>
<path d="M61.9247 37.978C61.4789 43.8205 59.0726 49.3412 55.0961 53.6448C51.1195 57.9485 45.8058 60.7827 40.0166 61.6879C34.2274 62.5931 28.3022 61.5162 23.2017 58.6319C18.1012 55.7476 14.1245 51.2249 11.9165 45.7973C9.70855 40.3697 9.3987 34.3554 11.0372 28.7296C12.6757 23.1038 16.1665 18.1964 20.9436 14.8032C25.7207 11.41 31.5039 9.72988 37.3555 10.0354C43.207 10.3408 48.7839 12.614 53.1816 16.4861L51.7656 18.0944C47.7302 14.5414 42.613 12.4556 37.2437 12.1753C31.8744 11.895 26.5679 13.4366 22.1845 16.5502C17.8012 19.6637 14.5981 24.1667 13.0946 29.3288C11.5911 34.4909 11.8754 40.0095 13.9015 44.9898C15.9275 49.9701 19.5764 54.12 24.2565 56.7666C28.9366 59.4132 34.3735 60.4013 39.6856 59.5707C44.9976 58.7401 49.8734 56.1395 53.5222 52.1906C57.171 48.2417 59.379 43.176 59.788 37.8149L61.9247 37.978Z" stroke="black" stroke-width="4" mask="url(#path-1-inside-1)"/>
<mask id="path-2-inside-2" fill="white">
<path d="M23.4235 47.4381C20.8457 44.6038 19.3009 40.9818 19.0396 37.1595C18.7783 33.3371 19.8158 29.5386 21.9838 26.3798C24.1519 23.2211 27.3234 20.8872 30.9841 19.7568C34.6448 18.6264 38.58 18.7657 42.1516 20.152C45.7232 21.5384 48.7218 24.0906 50.6611 27.3947C52.6005 30.6988 53.3669 34.5612 52.836 38.3555C52.3052 42.1498 50.5082 45.6535 47.7365 48.2985C44.9649 50.9436 41.381 52.5748 37.566 52.9277L37.3577 50.6758C40.6651 50.3698 43.7722 48.9556 46.1752 46.6624C48.5781 44.3693 50.136 41.3316 50.5963 38.0421C51.0565 34.7526 50.3921 31.4041 48.7107 28.5395C47.0294 25.6749 44.4297 23.4623 41.3332 22.2603C38.2367 21.0584 34.8251 20.9377 31.6514 21.9177C28.4777 22.8978 25.7281 24.9211 23.8485 27.6597C21.9688 30.3982 21.0694 33.6914 21.2959 37.0052C21.5224 40.319 22.8617 43.4592 25.0966 45.9165L23.4235 47.4381Z"/>
</mask>
<path d="M23.4235 47.4381C20.8457 44.6038 19.3009 40.9818 19.0396 37.1595C18.7783 33.3371 19.8158 29.5386 21.9838 26.3798C24.1519 23.2211 27.3234 20.8872 30.9841 19.7568C34.6448 18.6264 38.58 18.7657 42.1516 20.152C45.7232 21.5384 48.7218 24.0906 50.6611 27.3947C52.6005 30.6988 53.3669 34.5612 52.836 38.3555C52.3052 42.1498 50.5082 45.6535 47.7365 48.2985C44.9649 50.9436 41.381 52.5748 37.566 52.9277L37.3577 50.6758C40.6651 50.3698 43.7722 48.9556 46.1752 46.6624C48.5781 44.3693 50.136 41.3316 50.5963 38.0421C51.0565 34.7526 50.3921 31.4041 48.7107 28.5395C47.0294 25.6749 44.4297 23.4623 41.3332 22.2603C38.2367 21.0584 34.8251 20.9377 31.6514 21.9177C28.4777 22.8978 25.7281 24.9211 23.8485 27.6597C21.9688 30.3982 21.0694 33.6914 21.2959 37.0052C21.5224 40.319 22.8617 43.4592 25.0966 45.9165L23.4235 47.4381Z" stroke="black" stroke-width="4" mask="url(#path-2-inside-2)"/>
<circle cx="36" cy="36" r="3" stroke="black" stroke-width="2"/>
</svg>
