<svg width="72" height="72" viewBox="0 0 72 72" fill="none" xmlns="http://www.w3.org/2000/svg">
<circle cx="36" cy="36" r="4" stroke="black" stroke-width="2"/>
<mask id="path-2-inside-1" fill="white">
<path d="M62.6725 48.6975C61.7235 51.2168 60.2876 53.5245 58.4467 55.4889C56.6059 57.4532 54.3961 59.0358 51.9437 60.1461L43.4884 41.4711L62.6725 48.6975Z"/>
</mask>
<path d="M62.6725 48.6975C61.7235 51.2168 60.2876 53.5245 58.4467 55.4889C56.6059 57.4532 54.3961 59.0358 51.9437 60.1461L43.4884 41.4711L62.6725 48.6975Z" stroke="black" stroke-width="4" mask="url(#path-2-inside-1)"/>
<mask id="path-3-inside-2" fill="white">
<path d="M44.5417 58.2705C39.4309 60.2999 33.7859 60.551 28.5151 58.9832C23.2443 57.4154 18.6542 54.1201 15.4833 49.6273C12.3124 45.1346 10.7452 39.7057 11.0338 34.2143C11.3223 28.7228 13.45 23.4881 17.0743 19.3525C20.6986 15.2168 25.6088 12.4207 31.0149 11.414C36.421 10.4074 42.0085 11.2486 46.8785 13.8026C51.7485 16.3565 55.6177 20.4745 57.8636 25.494C60.1094 30.5135 60.6013 36.1426 59.2601 41.4755L57.3593 40.9975C58.5932 36.0912 58.1407 30.9124 56.0745 26.2945C54.0083 21.6765 50.4486 17.8879 45.9683 15.5384C41.4879 13.1888 36.3473 12.4148 31.3737 13.3409C26.4001 14.2671 21.8827 16.8395 18.5483 20.6443C15.214 24.4491 13.2566 29.265 12.9911 34.3171C12.7256 39.3693 14.1674 44.3638 17.0846 48.4971C20.0018 52.6305 24.2247 55.6622 29.0739 57.1046C33.923 58.5469 39.1164 58.316 43.8184 56.4489L44.5417 58.2705Z"/>
</mask>
<path d="M44.5417 58.2705C39.4309 60.2999 33.7859 60.551 28.5151 58.9832C23.2443 57.4154 18.6542 54.1201 15.4833 49.6273C12.3124 45.1346 10.7452 39.7057 11.0338 34.2143C11.3223 28.7228 13.45 23.4881 17.0743 19.3525C20.6986 15.2168 25.6088 12.4207 31.0149 11.414C36.421 10.4074 42.0085 11.2486 46.8785 13.8026C51.7485 16.3565 55.6177 20.4745 57.8636 25.494C60.1094 30.5135 60.6013 36.1426 59.2601 41.4755L57.3593 40.9975C58.5932 36.0912 58.1407 30.9124 56.0745 26.2945C54.0083 21.6765 50.4486 17.8879 45.9683 15.5384C41.4879 13.1888 36.3473 12.4148 31.3737 13.3409C26.4001 14.2671 21.8827 16.8395 18.5483 20.6443C15.214 24.4491 13.2566 29.265 12.9911 34.3171C12.7256 39.3693 14.1674 44.3638 17.0846 48.4971C20.0018 52.6305 24.2247 55.6622 29.0739 57.1046C33.923 58.5469 39.1164 58.316 43.8184 56.4489L44.5417 58.2705Z" stroke="black" stroke-width="4" mask="url(#path-3-inside-2)"/>
</svg>
