<svg width="139" height="27" viewBox="0 0 139 27" fill="none" xmlns="http://www.w3.org/2000/svg">
<g clip-path="url(#clip0)">
<path d="M73.7891 22.4123V5.13379H84.5234V9.14697H78.265V22.4123H73.7891Z" fill="black"/>
<path d="M98.0277 22.4123V15.6452H91.3783V22.4123H86.9023V5.13379H91.3783V11.582H98.0277V5.13379H102.504V22.4123H98.0277Z" fill="black"/>
<path d="M128.478 22.4123V9.14697H123.25V5.13379H138.21V9.14697H132.956V22.4123H128.478Z" fill="black"/>
<path d="M116.665 22.4096V12.5647L109.54 22.4096H105.797V5.13574H110.273V14.8782L117.278 5.13574H121.143V22.4096H116.665Z" fill="black"/>
<path d="M48.0662 22.4123V12.1438L43.5972 17.5685L39.1283 12.1438V22.4123H34.6523V5.13379H39.0697L43.5972 11.075L48.1247 5.13379H52.542V22.4123H48.0662Z" fill="black"/>
<path d="M61.0422 16.3355H65.202L63.1221 10.9179L61.0422 16.3355ZM67.5348 22.41L66.598 19.9892H59.6393L58.7024 22.41H54.2031L61.0868 5.13379H65.2255L72.1115 22.41H67.5348Z" fill="black"/>
<path d="M-0.0078125 8.64411C-0.00347867 6.55736 0.814292 4.55738 2.26645 3.08204C3.7186 1.6067 5.68682 0.776234 7.74016 0.772461H25.6275V4.77374H7.74485C6.7359 4.77812 5.76948 5.18722 5.05582 5.91205C4.34218 6.63686 3.93903 7.61875 3.9341 8.64411L3.91067 15.3613C3.82903 16.2219 3.46922 17.0308 2.88742 17.6618C2.30564 18.2926 1.53464 18.7099 0.694845 18.8485L-0.0078125 18.958V8.64411Z" fill="black"/>
<path d="M-0.00390625 26.7724V22.771H17.8834C18.8926 22.7661 19.859 22.3564 20.5726 21.6313C21.2861 20.906 21.6893 19.9239 21.6942 18.8984V12.5239C21.6991 11.5991 22.0274 10.7062 22.6203 10.0046C23.2133 9.30308 24.0323 8.83855 24.9311 8.69403L25.6337 8.58691V18.8984C25.6294 20.9854 24.8117 22.9856 23.3596 24.4613C21.9075 25.937 19.9393 26.7679 17.8857 26.7724H-0.00390625Z" fill="black"/>
<path d="M15.1511 18.9721V13.7997L12.8183 16.6299L10.4878 13.7997V18.9721H7.39844V8.79395H10.3238L12.8183 12.0669L15.3127 8.79395H18.2382V18.9721H15.1511Z" fill="black"/>
</g>
<defs>
<clipPath id="clip0">
<rect width="138.21" height="26" fill="white" transform="translate(0 0.772461)"/>
</clipPath>
</defs>
</svg>
