<svg width="77" height="24" viewBox="0 0 77 24" fill="none" xmlns="http://www.w3.org/2000/svg">
<path d="M33.7112 2.9015L33.4152 4.13297C33.4152 4.13297 32.4735 4.02351 31.155 5.14551L25.3162 9.87984L23.2713 11.5492C23.2713 11.5492 24.2399 13.0817 25.3162 14.751C26.5001 16.6119 27.8186 18.6096 28.0607 18.8833C28.5451 19.4306 29.3523 20.3337 30.59 20.3337L30.2671 21.6472C28.1414 21.6472 26.5808 21.702 25.2893 21.6472C21.5223 21.483 20.446 20.2516 16.1409 13.2185C16.1409 13.2185 14.9032 17.7339 14.6072 18.8559C14.3112 20.0053 15.8718 20.3063 15.8718 20.3063L15.5489 21.6472H5.8355H5.80859L5.8355 21.5651L6.13148 20.3337C6.61581 20.3063 7.98807 20.4705 8.84909 17.1592C9.06435 16.5298 8.68765 17.6792 11.8089 6.21279C12.2394 4.5161 10.9747 4.2698 10.5442 4.13297L10.8402 2.9015H20.177L19.881 4.13297C19.881 4.13297 18.6164 4.2698 18.2666 5.47391L16.6252 11.6313C16.6252 11.6313 24.3745 5.61074 24.4821 5.50127C25.2355 4.78976 24.3207 4.1877 23.648 4.13297L23.9439 2.9015H25.3431H33.7112ZM64.6005 2.7373C63.5511 2.7373 62.5825 2.76467 61.6138 2.9015C53.7839 3.83195 49.0482 8.83993 49.0751 13.8753C49.0751 18.0896 52.4385 22.1398 60.1878 22.1125C60.6721 22.1125 61.1564 22.0851 61.6138 22.0577C63.4973 21.9483 65.1387 21.702 66.6454 21.3736L67.5334 17.4602C66.0266 17.9802 64.1431 18.3907 62.6094 18.3907C62.2596 18.3907 61.9098 18.3633 61.5869 18.3359C58.0352 17.9802 55.7212 15.6267 55.6943 12.6438C55.6943 9.55145 57.9007 7.11587 61.5869 6.48645C62.2058 6.37699 62.8516 6.32225 63.5511 6.32225C65.919 6.32225 67.1298 7.11587 67.9101 8.18314H68.5559L69.8205 3.55829C68.5559 3.1478 66.6185 2.76467 64.6005 2.7373ZM44.0166 2.92887H34.8144L34.5184 4.16034C34.5184 4.16034 36.3481 4.3519 35.7831 6.24016L31.6125 21.6746L39.9536 21.702L40.2765 20.3884C40.2765 20.3884 38.7159 20.0053 39.1195 18.5275C39.1464 18.3907 40.3573 13.93 40.3573 13.93H44.0435H44.205C46.1154 13.93 46.7342 14.9426 46.7342 14.9426L47.8374 10.3451H44.0435H41.3797L42.3484 6.73274H44.0435H47.945C48.9675 6.73274 49.694 7.44426 49.694 7.93685H50.3398L51.5775 2.92887H44.0166Z" fill="black"/>
</svg>
