<svg width="70" height="26" viewBox="0 0 70 26" fill="none" xmlns="http://www.w3.org/2000/svg">
<g clip-path="url(#clip0)">
<path d="M11.9381 0C19.4737 0 25.2379 5.174 25.2379 12.8579C25.2379 20.5799 19.4347 25.8709 11.9381 25.8709H3.48461C1.79201 25.87 0.382812 24.7191 0.382812 22.7665V3.22053C0.382812 1.25493 1.79201 0 3.48548 0H11.9381Z" fill="black"/>
<path d="M2.30855 18.9623C1.66722 18.9235 1.02414 18.9235 0.382812 18.9623L0.382813 19.8169C1.49475 19.5967 2.19241 19.4416 2.19241 19.4416L2.30855 18.9632V18.9623ZM20.2104 6.80299C19.4737 6.14432 18.5169 5.80719 17.6641 5.80719C16.4491 5.80719 15.4541 6.14432 13.9669 6.14432C12.933 6.20845 12.0152 3.95772 10.801 3.69945C10.2836 2.52165 9.06855 2.36652 8.33188 2.96192C7.67321 2.56065 6.60028 2.78079 6.56128 3.51832C5.78561 3.29819 4.79068 3.69945 5.23008 4.69525C3.30435 4.79925 2.96808 6.46759 4.26028 6.68685C2.59281 7.60552 3.34248 9.19672 4.73868 8.87345C4.99695 11.2793 6.10801 14.4487 4.29928 15.2244C4.07915 15.3024 3.30435 15.4835 1.75301 15.1464C1.27461 15.0303 0.835213 14.9271 0.382813 14.772V16.0269C1.71401 16.3632 3.04521 16.5825 3.88588 16.5053C6.21201 16.2462 6.32815 14.3187 6.21201 12.6244C6.09588 10.9951 5.51435 9.00259 5.73361 7.67052L5.65561 7.59252C4.81581 8.53719 4.22128 8.27805 4.18228 7.98079C4.06615 7.38539 5.07495 6.68685 5.65561 6.42859C5.65561 6.38959 5.69548 6.35059 5.69548 6.31245C5.13908 6.39045 4.51855 6.31245 4.48041 5.93719C4.44141 5.49692 5.37221 5.04452 6.58641 5.16065L6.66441 5.08265C6.58641 5.04452 6.52228 5.00552 6.40615 4.96652C6.10888 4.82439 6.00575 4.52712 6.10888 4.33299C6.22501 4.11285 6.54828 4.03572 6.84555 4.03572C7.28495 4.03572 7.66021 4.15185 7.91848 4.25499C7.95748 4.25499 7.99648 4.21685 7.99648 4.21685C7.87948 4.13885 7.81448 4.07385 7.77635 3.95772C7.69835 3.84159 7.66021 3.66045 7.81448 3.55645C7.99648 3.41432 8.40988 3.37619 8.81028 3.73845L9.02955 3.95772C9.06855 3.95772 9.10755 3.95772 9.17168 3.91872C9.10377 3.83083 9.05532 3.7295 9.02955 3.62145C8.99141 3.47932 9.06855 3.36319 9.21155 3.28519C9.30012 3.26739 9.39192 3.27495 9.4764 3.30699C9.56087 3.33903 9.63459 3.39426 9.68908 3.46632C9.79128 3.63904 9.86558 3.82682 9.90921 4.02272C9.05555 4.13885 8.06061 4.42312 7.44008 5.27765C6.84555 6.13132 6.58728 7.42439 6.96168 8.61432C7.18181 9.86925 7.69835 11.0592 8.13775 12.237V12.2751C9.09455 15.0823 10.9431 21.9255 1.93415 25.5854C2.45068 25.7674 2.96808 25.8835 3.48548 25.8835H4.40241C6.25101 24.8869 7.50508 23.7749 8.39688 22.559C12.4936 24.3703 16.2679 23.4517 17.8834 20.4504C18.9563 19.8169 19.6549 18.4969 19.732 17.5271C20.3907 16.6735 20.5077 15.5997 20.3265 14.9011C20.2875 14.72 20.1454 14.72 19.8871 14.8621C16.5262 16.8546 13.5665 17.1909 10.0635 16.1951C9.94735 14.785 9.68908 13.6332 9.57295 12.9347C9.46895 11.5255 9.94735 10.8269 12.5326 11.6806C14.2001 12.12 14.9757 12.8965 15.5963 13.3099C15.8935 13.5301 16.2289 13.7502 16.4491 13.6072C16.5912 13.5292 16.5912 13.2709 16.5912 12.9745C16.5522 12.198 16.2168 10.9041 15.8545 10.4257C16.616 10.3651 17.3811 10.3651 18.1425 10.4257C19.0985 10.6068 19.1765 11.0852 19.3186 11.3183C19.6159 12.133 21.1672 11.9519 21.3093 11.2013C21.5026 9.97239 21.6196 8.09692 20.2104 6.80385V6.80299ZM10.0635 17.593C11.2404 17.9293 12.9079 18.1104 14.2772 17.9934C16.1241 17.854 17.9104 17.2729 19.4859 16.2991C18.8922 17.8513 16.6042 18.7691 14.3942 19.0672C14.3942 19.1833 14.3552 19.2873 14.3552 19.4035C16.0227 19.3255 17.5991 18.7699 18.3107 18.2907C17.9094 19.8047 15.8667 20.3993 14.0319 20.5033C13.9929 20.6194 13.9158 20.7225 13.8898 20.8395C14.8048 20.8643 15.7176 20.7375 16.5912 20.4643C15.7765 22.0555 12.0802 23.1293 9.01655 21.6802C9.72721 20.2571 10.0253 18.8861 10.0635 17.593ZM20.5848 10.2714C20.5467 10.6077 20.1844 10.5687 20.0301 10.3104C19.5127 9.41772 18.8142 9.27472 17.7421 9.19759C16.9275 9.15859 15.9707 9.23659 15.0789 9.27559C14.9367 9.27559 14.8596 9.15859 14.8977 9.09359C15.0797 8.35692 15.7124 6.90785 16.3711 6.80472C16.7073 6.76572 17.4059 6.66259 17.8063 6.66259C19.6549 6.64959 20.6628 8.75732 20.5848 10.2714Z" fill="white"/>
<path d="M10.2065 5.17434C10.5038 5.05821 10.9042 5.35634 11.1235 5.80787C11.3436 6.24814 11.3055 6.70054 11.0073 6.80454C10.7101 6.92067 10.3097 6.62254 10.0895 6.17014C10.0514 6.09214 10.0514 6.05401 10.0115 5.98901H10.0514C10.1675 6.06701 10.2707 6.10601 10.3487 6.06701C10.4648 5.98901 10.4267 5.80787 10.3487 5.66574C10.2707 5.54961 10.1285 5.40747 10.0124 5.40747L9.97339 5.36847C10.0635 5.29047 10.0895 5.21247 10.2065 5.17434ZM12.3905 10.1291C10.9813 9.83094 9.39186 9.39154 8.57719 8.16174C8.57719 8.12361 8.53906 8.12361 8.49919 8.12361C8.46106 8.12361 8.46106 8.16261 8.46106 8.20161C8.46106 8.27961 8.46106 8.34374 8.50006 8.42087L8.39606 8.45987C8.17679 8.16261 8.13779 7.80034 8.35793 7.50307C8.65519 7.12781 9.31386 7.16681 9.68913 7.38607L9.61113 7.50307C9.43086 7.46407 9.21073 7.46407 9.05646 7.58107C8.93946 7.65821 8.91346 7.76134 8.97846 7.91647C9.67613 9.21041 11.6799 9.46867 14.032 9.28754C14.2903 9.24941 14.3293 9.14541 14.3683 9.02927C14.5875 8.21461 14.9628 7.47707 15.5183 6.92067C15.0789 6.99867 14.6655 6.99867 14.3423 7.03681C13.1272 7.11481 12.4165 6.95881 12.1964 6.77854L12.2354 6.66241C12.3775 6.70054 12.4937 6.70054 12.5327 6.66241C12.5717 6.62341 12.5327 6.58441 12.4937 6.51941L11.2015 5.22634C11.0853 4.33367 9.76626 4.30767 9.24973 5.18734L9.06859 5.14834C9.10759 4.96721 9.21073 4.77307 9.28873 4.66994C8.17679 4.92907 7.55626 5.92487 7.44013 6.88167C6.96173 11.0209 13.2052 10.0641 14.9758 11.6813C15.0148 11.7194 15.0919 11.8234 15.1569 11.7593C15.1951 11.5253 14.4203 10.5685 12.3905 10.1291Z" fill="black"/>
<path d="M35.0978 2.55066H32.3912C31.8339 2.55066 31.3945 2.95366 31.3945 3.59152V9.83759C31.3945 10.4755 31.8339 10.8005 32.3912 10.8005H35.0978C37.5071 10.8005 39.3583 9.12259 39.3583 6.67512C39.3202 4.19039 37.5071 2.54979 35.0978 2.54979V2.55066ZM35.0978 8.87472H33.4009V4.45039H35.0978C36.4706 4.45039 37.3901 5.27026 37.3901 6.64999C37.3901 8.02886 36.4706 8.87472 35.0978 8.87472ZM53.7857 2.55066H51.0791C50.5219 2.55066 50.0825 2.95366 50.0825 3.59152V9.83759C50.0825 10.4755 50.5219 10.8005 51.0791 10.8005H53.7857C56.1951 10.8005 58.0471 9.12259 58.0471 6.67512C58.0341 4.19039 56.1821 2.54979 53.7857 2.54979V2.55066ZM53.7857 8.87472H52.0897V4.45039H53.7857C55.1585 4.45039 56.0781 5.27026 56.0781 6.64999C56.0781 8.02886 55.1455 8.87472 53.7857 8.87472ZM63.2922 2.47266C60.9219 2.47266 59.0698 4.25539 59.0698 6.67599C59.0698 9.09572 60.8829 10.8793 63.2922 10.8793C65.6617 10.8793 67.5137 9.05672 67.5137 6.63699C67.5137 4.26839 65.6617 2.47266 63.2922 2.47266ZM63.2922 8.97872C61.9965 8.97872 61.0389 8.01672 61.0389 6.63699C61.0389 5.33526 61.9575 4.33339 63.2922 4.33339C64.587 4.33339 65.5455 5.29626 65.5455 6.63699C65.5455 8.01586 64.665 8.97872 63.2922 8.97872ZM44.5653 2.47266C42.1949 2.47266 40.3429 4.25539 40.3429 6.67599C40.3429 9.09572 42.1559 10.8793 44.5653 10.8793C46.9347 10.8793 48.7868 9.05672 48.7868 6.63699C48.7868 4.26839 46.9737 2.47266 44.5653 2.47266ZM44.5653 8.97872C43.2696 8.97872 42.3119 8.01672 42.3119 6.63699C42.3119 5.33526 43.2306 4.33339 44.5653 4.33339C45.8601 4.33339 46.8186 5.29626 46.8186 6.63699C46.8316 8.01586 45.9381 8.97872 44.5653 8.97872Z" fill="black"/>
<path d="M35.7201 15.121H32.3921C31.8349 15.121 31.4336 15.4989 31.4336 16.0848V22.447C31.4336 23.0848 31.8739 23.4098 32.4303 23.4098C32.9875 23.4098 33.3897 23.0328 33.3897 22.447V20.9632H35.682C37.4561 20.9632 38.6087 19.7014 38.6087 18.0226C38.6477 16.3829 37.5341 15.1202 35.7201 15.1202V15.121ZM35.7201 19.1034H33.4278V17.0216H35.7201C36.3805 17.0216 36.7177 17.5026 36.7177 18.0616C36.7307 18.6484 36.3935 19.1034 35.721 19.1034H35.7201ZM41.1983 15.082C40.6419 15.082 40.1627 15.4599 40.1627 16.0848V22.4738C40.1627 23.1117 40.6419 23.4757 41.1983 23.4757C41.7556 23.4757 42.2349 23.0987 42.2349 22.4738V16.0848C42.2349 15.4599 41.7556 15.082 41.1983 15.082ZM50.5228 21.472H46.4174L50.4847 17.7886C51.0801 17.2686 51.3002 16.8648 51.3002 16.3058V16.2278C51.3002 15.5639 50.8989 15.147 50.1475 15.147H44.9285C44.2941 15.147 43.9699 15.5899 43.9699 16.1108C43.9699 16.6698 44.3461 17.0346 44.9285 17.0346H48.7357L44.8123 20.6001C44.0349 21.3021 43.8538 21.719 43.8538 22.2008V22.2788C43.8538 22.9418 44.2551 23.3587 45.0065 23.3587H50.5228C51.1581 23.3587 51.4813 22.9548 51.4813 22.3958C51.5203 21.888 51.1581 21.472 50.5228 21.472ZM59.1487 21.472H55.0433L59.1097 17.7886C59.7051 17.2686 59.9252 16.8648 59.9252 16.3058V16.2278C59.9252 15.5639 59.524 15.147 58.7726 15.147H53.5535C52.9191 15.147 52.595 15.5899 52.595 16.1108C52.595 16.6698 52.9711 17.0346 53.5535 17.0346H57.3617L53.4504 20.6261C52.673 21.3281 52.4919 21.745 52.4919 22.2268V22.3048C52.4919 22.9687 52.8931 23.3847 53.6445 23.3847H59.1479C59.7831 23.3847 60.1073 22.9817 60.1073 22.4218C60.1454 21.888 59.7831 21.472 59.1487 21.472ZM69.1076 21.992L66.401 16.0848C66.1028 15.4209 65.6626 15.16 65.0663 15.16H64.9502C64.3158 15.16 63.8755 15.4599 63.5774 16.0848L60.8708 21.992C60.6117 22.5908 60.7928 23.1117 61.3111 23.2937C61.7903 23.4757 62.2696 23.3717 62.5287 22.8118L63.1241 21.511C63.7225 21.705 64.3472 21.8058 64.9762 21.81C65.6366 21.81 66.2328 21.693 66.7502 21.511L67.3465 22.7728C67.6057 23.3327 68.1231 23.4367 68.5633 23.2547C69.1336 23.0727 69.3667 22.5518 69.1076 21.992ZM65.0282 20.0272C64.6269 20.0272 64.1736 19.9882 63.8495 19.8842L65.0022 17.3206L66.1549 19.8842C65.8437 19.9492 65.4424 20.0272 65.0282 20.0272Z" fill="black"/>
</g>
<defs>
<clipPath id="clip0">
<rect width="69.3333" height="26" fill="white" transform="translate(0.382812)"/>
</clipPath>
</defs>
</svg>
