<svg width="122" height="32" viewBox="0 0 122 32" fill="none" xmlns="http://www.w3.org/2000/svg">
<g clip-path="url(#clip0)">
<path d="M8.40748 19.6177L14.5739 13.6302L0.785156 0.24707H13.2892L26.9922 13.5448L20.7331 19.6177H8.40748Z" fill="black"/>
<path d="M33.435 31.9359L20.7383 19.6123H33.2423L45.9319 31.9359H33.435Z" fill="black"/>
<path d="M92.8218 11.1366C92.7647 11.869 92.7076 12.6015 92.6291 13.341C92.5577 14.0735 92.4435 14.877 92.2936 15.6166C91.8868 17.7499 90.7734 19.101 88.6752 19.2148H88.04V16.6761C89.2033 16.7117 89.5387 16.2637 89.7529 15.1615C89.8956 14.4361 90.0241 13.4761 90.1097 12.4806C90.2453 11.2006 90.3452 9.92057 90.4166 8.63346H98.2031V19.2006H95.5981V11.1366H92.8218ZM43.3481 8.63346V11.1295H40.3362V19.2006H37.7384V11.1295H34.7266V8.63346H43.3481ZM81.9236 11.0512C80.2321 11.0512 79.2543 12.2388 79.2543 13.9099C79.2543 15.5739 80.2107 16.7686 81.9236 16.7686C83.6364 16.7686 84.5643 15.5597 84.5643 13.8886C84.5643 12.2317 83.6222 11.0441 81.9236 11.0441V11.0512ZM81.9378 19.2859C78.7976 19.2859 76.6565 17.0886 76.6565 13.9099C76.6565 10.7312 78.7619 8.54102 81.9378 8.54102C85.1138 8.54102 87.1764 10.717 87.1764 13.8886C87.1764 17.0601 85.0781 19.2859 81.9378 19.2859ZM69.8692 12.3526H70.1761L73.2093 8.63346H76.5494L72.3314 13.5401L76.8991 19.1935H73.4591L70.1261 14.749H69.8692V19.1935H67.2713V8.63346H69.8692V12.3526ZM49.5287 8.63346C51.8125 8.63346 53.5683 10.1339 53.5683 12.4948C53.5683 14.8557 51.784 16.3348 49.5002 16.3348H47.6874V19.1935H45.0895V8.63346H49.5287ZM50.9561 12.5019C50.9561 11.5703 50.4351 11.1366 49.5358 11.1366H47.6659V13.8388H49.5787C50.4422 13.8388 50.9632 13.3908 50.9632 12.5019H50.9561ZM61.7615 8.63346H64.4522V19.1935H61.9471V12.5517L58.0217 19.1935H55.3311V8.63346H57.8433V15.2397L61.7615 8.63346ZM108.109 13.8886C108.109 12.2175 107.167 11.0441 105.469 11.0441C103.777 11.0441 102.799 12.2388 102.799 13.9099C102.799 15.5739 103.756 16.7686 105.476 16.7686C107.189 16.7686 108.116 15.5455 108.116 13.8886H108.109ZM105.483 19.2859C102.357 19.2859 100.201 17.0886 100.201 13.917C100.201 10.7455 102.3 8.54813 105.483 8.54813C108.666 8.54813 110.714 10.7241 110.714 13.8957C110.714 17.0672 108.609 19.2859 105.483 19.2859ZM117.088 8.63346C119.364 8.63346 121.12 10.1339 121.12 12.4948C121.12 14.8557 119.343 16.3348 117.059 16.3348H115.246V19.1935H112.641V8.63346H117.088ZM118.515 12.5019C118.515 11.5703 118.001 11.1366 117.109 11.1366H115.246V13.8388H117.152C118.008 13.8388 118.529 13.3908 118.529 12.5019H118.515Z" fill="black"/>
</g>
<defs>
<clipPath id="clip0">
<rect width="120.615" height="32" fill="white" transform="translate(0.71875)"/>
</clipPath>
</defs>
</svg>
