<svg width="115" height="23" viewBox="0 0 115 23" fill="none" xmlns="http://www.w3.org/2000/svg">
<path d="M38.7951 2.7909V16.4924C38.7951 19.5125 36.1163 21.8086 32.5795 21.8086C29.042 21.8086 26.3633 19.5125 26.3633 16.4924V6.01065C26.3633 4.23814 27.8037 2.7909 29.5976 2.7909H29.8251V16.4679C29.8251 18.091 31.291 19.088 32.706 19.088C34.0701 19.088 35.5353 18.1644 35.5353 16.4679V5.83611C35.5353 4.16343 36.9249 2.7909 38.6177 2.7909" fill="black"/>
<path d="M45.6121 7.63092C50.337 7.63092 51.0947 10.2517 51.0947 11.8239V21.6074H50.9435C49.1998 21.6074 47.7098 20.1595 47.7098 18.4386V11.8748C47.7098 10.9505 47.3303 9.85235 45.4856 9.85235C44.6268 9.85235 44.1215 9.95218 43.5652 10.1518V21.6074H40.1797V8.65437C41.6201 8.03091 43.9448 7.63092 45.6121 7.63092Z" fill="black"/>
<path d="M55.9339 7.63092V18.4624C55.9339 20.1846 54.5189 21.6074 52.7505 21.6074H52.5986V7.63092H55.9339ZM54.2659 2.78939C55.2766 2.78939 56.0852 3.53846 56.0852 4.46141C56.0852 5.3599 55.2766 6.08385 54.2659 6.08385C53.2559 6.08385 52.4219 5.3599 52.4219 4.46141C52.4219 3.53846 53.2559 2.78939 54.2659 2.78939Z" fill="black"/>
<path d="M65.5575 2.51719C67.1498 2.51719 68.6398 2.86627 69.8788 3.61468V6.90914C69.1211 5.93594 68.0334 5.26224 66.2911 5.26224C62.854 5.26224 60.7321 8.60629 60.7321 12.0753C60.7321 15.3446 62.9557 18.9141 66.2911 18.9141C67.7563 18.9141 69.0956 18.4897 69.8788 17.4411V20.6853C68.8928 21.4093 67.352 21.8086 65.5327 21.8086C60.0748 21.8086 57.1953 16.8679 57.1953 12.1004C57.1953 7.4083 60.0748 2.51719 65.5575 2.51719Z" fill="black"/>
<path d="M75.8586 7.63092C76.4141 7.63092 77.1223 7.68117 77.7535 7.781V10.4513C76.5915 9.62756 75.0507 9.9026 74.3679 10.2517V18.4624C74.3679 20.1846 72.9282 21.6074 71.1839 21.6074H71.0078V8.70461C72.3217 8.0805 73.6611 7.63092 75.8586 7.63092Z" fill="black"/>
<path d="M86.5406 12.8739C86.4402 10.1031 84.6966 9.80427 83.7608 9.80427H83.6343C81.7401 9.85386 80.8559 11.1768 80.8559 13.6475L86.5406 12.8739ZM89.4717 14.7708L81.0573 15.9178C81.3358 18.1895 82.4984 19.3875 84.6203 19.3875C86.9697 19.3875 88.1571 18.6391 89.0165 18.0401V20.8103C88.1571 21.2598 86.5667 21.8086 84.2923 21.8086C80.1738 21.8086 77.7227 19.0635 77.7227 14.6709C77.7227 10.4033 79.9964 7.63243 83.7361 7.63243C87.4242 7.63243 89.4717 10.0535 89.4717 14.2465" fill="black"/>
<path d="M98.2995 10.3279C97.9461 10.2287 97.5666 10.1785 97.1375 10.1785C94.3578 10.1785 93.7768 12.8244 93.7768 15.02C93.7768 18.091 94.8129 19.6123 96.91 19.6123C97.2627 19.6123 98.0459 19.5369 98.2995 19.488V10.3279ZM101.609 2.7909V21.4344C100.801 21.6089 98.1483 21.8086 97.0358 21.8086H96.8089C92.6904 21.759 90.4414 19.4126 90.4414 15.1945C90.4414 10.9276 92.7915 8.18184 96.43 8.18184C97.1375 8.18184 97.7433 8.25721 98.2741 8.3815V5.96107C98.2741 4.21433 99.6891 2.7909 101.458 2.7909" fill="black"/>
<path d="M106.519 7.63092V18.4624C106.519 20.1846 105.104 21.6074 103.335 21.6074H103.184V7.63092H106.519ZM104.851 2.78939C105.863 2.78939 106.671 3.53846 106.671 4.46141C106.671 5.3599 105.863 6.08385 104.851 6.08385C103.841 6.08385 103.008 5.3599 103.008 4.46141C103.008 3.53846 103.841 2.78939 104.851 2.78939Z" fill="black"/>
<path d="M112.431 2.7909V7.63243H114.604V10.3028H112.431V17.7161C112.431 18.614 112.735 18.8883 113.72 18.8883C113.972 18.8883 114.351 18.8136 114.604 18.7145V21.484C114.453 21.5342 113.796 21.8086 112.911 21.8086C110.435 21.8086 109.071 20.6106 109.071 18.4401V10.3028H107.605V7.63243H109.071V5.93528C109.071 4.21367 110.486 2.7909 112.229 2.7909" fill="black"/>
<path fill-rule="evenodd" clip-rule="evenodd" d="M17.0646 21.2953C20.5174 19.3296 22.6417 15.6975 22.6358 11.7695C22.6388 9.73343 22.0695 7.77683 21.0395 6.09062C20.7356 6.41404 20.3088 6.79056 19.8097 7.23079C19.6677 7.35605 19.5199 7.48646 19.3674 7.62227C19.3674 7.62227 17.3115 9.50629 15.8096 10.8022C14.3085 12.0981 9.50667 16.0931 8.57294 16.8148C7.79967 17.4124 5.18519 19.3392 4.17591 20.0828C4.70572 20.5354 5.28304 20.9422 5.90321 21.2953C9.35603 23.261 13.6118 23.261 17.0646 21.2953ZM3.14986 19.0844C1.35753 17.0985 0.327933 14.5058 0.332044 11.7695C0.326143 7.84155 2.45039 4.20945 5.90321 2.24378C9.35603 0.278114 13.6118 0.278114 17.0646 2.24378C17.8428 2.68682 18.5536 3.21452 19.1876 3.81118C16.7021 3.64663 11.3534 4.08828 10.7101 4.21537C10.0335 4.34891 9.99351 4.99029 10.2233 5.16396C10.3781 5.28096 10.9534 5.62221 11.418 5.89781C11.643 6.03129 11.8421 6.14936 11.9549 6.21912C12.3005 6.43291 12.2519 6.59342 12.13 6.79406C12.0088 6.99404 10.7328 8.62414 10.7328 8.62414C10.2847 9.1561 5.20171 16.2292 3.36873 18.7798C3.28948 18.8901 3.21631 18.9919 3.14986 19.0844Z" fill="black"/>
<path fill-rule="evenodd" clip-rule="evenodd" d="M17.0646 21.2953C20.5174 19.3296 22.6417 15.6975 22.6358 11.7695C22.6388 9.73343 22.0695 7.77683 21.0395 6.09062C20.7356 6.41404 20.3088 6.79056 19.8097 7.23079C19.6677 7.35605 19.5199 7.48646 19.3674 7.62227C19.3674 7.62227 17.3115 9.50629 15.8096 10.8022C14.3085 12.0981 9.50667 16.0931 8.57294 16.8148C7.79967 17.4124 5.18519 19.3392 4.17591 20.0828C4.70572 20.5354 5.28304 20.9422 5.90321 21.2953C9.35603 23.261 13.6118 23.261 17.0646 21.2953ZM3.14986 19.0844C1.35753 17.0985 0.327933 14.5058 0.332044 11.7695C0.326143 7.84155 2.45039 4.20945 5.90321 2.24378C9.35603 0.278114 13.6118 0.278114 17.0646 2.24378C17.8428 2.68682 18.5536 3.21452 19.1876 3.81118C16.7021 3.64663 11.3534 4.08828 10.7101 4.21537C10.0335 4.34891 9.99351 4.99029 10.2233 5.16396C10.3781 5.28096 10.9534 5.62221 11.418 5.89781C11.643 6.03129 11.8421 6.14936 11.9549 6.21912C12.3005 6.43291 12.2519 6.59342 12.13 6.79406C12.0088 6.99404 10.7328 8.62414 10.7328 8.62414C10.2847 9.1561 5.20171 16.2292 3.36873 18.7798C3.28948 18.8901 3.21631 18.9919 3.14986 19.0844Z" fill="black"/>
</svg>
