<svg width="143" height="26" viewBox="0 0 143 26" fill="none" xmlns="http://www.w3.org/2000/svg">
<g clip-path="url(#clip0)">
<path d="M0.664062 13.2754H26.516V-9.63211e-05H0.664062V13.2754Z" fill="black"/>
<path d="M0.664062 26.0303H26.5179V13.015H0.664062V26.0303Z" fill="black"/>
<path d="M5.17188 13.8076H21.9924V12.2233H5.17188V13.8076Z" fill="white"/>
<path d="M43.0111 6.50024C45.8243 6.50024 47.5905 8.35166 47.5905 10.91C47.5905 13.5741 45.8243 15.1081 43.0111 15.1081H37.4153V19.4629H35.0312V6.50024H43.0111ZM43.1476 12.9654C44.3825 12.9654 45.1558 12.1038 45.1558 10.9447C45.1558 9.66649 44.3825 8.64533 43.0111 8.64533H37.4153V12.9654H43.1476Z" fill="black"/>
<path d="M56.428 19.8252C52.3277 19.8252 48.9297 17.0794 48.9297 12.9654C48.9297 8.90479 52.3277 6.10445 56.428 6.10445C60.5475 6.10445 63.8912 8.90479 63.8912 12.9654C63.8912 17.0794 60.5475 19.8252 56.428 19.8252ZM56.428 8.31769C53.4403 8.31769 51.3981 10.3557 51.3981 12.9654C51.3981 15.645 53.3555 17.6299 56.428 17.6299C59.4829 17.6299 61.4195 15.6283 61.4195 12.9654C61.4195 10.3557 59.4829 8.31769 56.428 8.31769Z" fill="black"/>
<path d="M73.7785 19.8096C69.4703 19.8096 66.2266 17.0614 66.2266 12.9494C66.2266 8.90471 69.5196 6.10438 73.7785 6.10438C76.3196 6.10438 78.136 6.8321 79.7688 8.03857L78.4946 9.94258C77.3123 9.02385 75.8199 8.35159 73.8478 8.35159C70.705 8.35159 68.7494 10.3556 68.7494 12.9494C68.7494 15.6282 70.7238 17.5605 73.8807 17.5605C75.8533 17.5605 77.4144 16.9213 78.5992 16.0085L79.8685 17.9084C78.2399 19.1173 76.3196 19.8096 73.7785 19.8096Z" fill="black"/>
<path d="M100.48 16.3168L99.0054 19.4639H96.4297L102.692 6.49999H105.196L111.479 19.4639H108.904L107.43 16.3168H100.48ZM101.475 14.2095H106.436L103.963 8.9548L101.475 14.2095Z" fill="black"/>
<path d="M124.104 19.4629V13.9172H115.679V19.4629H113.293V6.50024H115.679V11.7913H124.104V6.50024H126.491V19.4629H124.104Z" fill="black"/>
<path d="M130.023 19.4629V6.50024H132.412V12.5493L138.879 6.50024H141.809L135.156 12.7418L142.085 19.4629H138.879L132.412 13.1723V19.4629H130.023Z" fill="black"/>
<path d="M90.5336 11.2527H84.9446V8.51977H94.1519V6.48946H82.5586V19.4414H90.5336C93.3434 19.4414 95.2801 17.9025 95.2801 15.3473C95.2801 12.6885 93.3434 11.2527 90.5336 11.2527ZM90.671 17.2987H84.9446V13.3971H90.671C92.1659 13.3971 93.0157 14.191 93.0157 15.3473C93.0157 16.6243 92.3403 17.2987 90.671 17.2987Z" fill="black"/>
</g>
<defs>
<clipPath id="clip0">
<rect width="141.477" height="26" fill="white" transform="translate(0.605469)"/>
</clipPath>
</defs>
</svg>
