<svg width="32" height="32" viewBox="0 0 32 32" fill="none" xmlns="http://www.w3.org/2000/svg">
<path fill-rule="evenodd" clip-rule="evenodd" d="M14.598 5.05392C14.598 5.0839 14.4542 5.10784 14.2745 5.10784C14.0948 5.10784 13.951 5.13178 13.951 5.16176C13.951 5.19142 13.8297 5.21569 13.6814 5.21569C13.5331 5.21569 13.4118 5.23995 13.4118 5.26961C13.4118 5.29926 13.3147 5.32353 13.1961 5.32353C13.0775 5.32353 12.9804 5.34779 12.9804 5.37745C12.9804 5.40711 12.918 5.43137 12.8418 5.43137C12.7655 5.43137 12.6666 5.46788 12.6219 5.51252C12.5497 5.58478 12.5649 5.61681 12.7606 5.80489C12.8815 5.92103 12.9804 6.04354 12.9804 6.07719C12.9804 6.11084 13.126 6.28123 13.3039 6.45588C13.4819 6.63053 13.6275 6.80093 13.6275 6.83457C13.6275 6.86822 13.7245 6.98895 13.8431 7.10294C13.9618 7.21693 14.0588 7.33825 14.0588 7.37255C14.0588 7.40684 14.1559 7.52817 14.2745 7.64216C14.3931 7.75615 14.4902 7.87796 14.4902 7.91284C14.4902 7.94778 14.563 8.04436 14.652 8.12745C14.7409 8.21054 14.8137 8.31202 14.8137 8.35284C14.8137 8.39372 14.8623 8.46214 14.9216 8.5049C14.9809 8.54766 15.0294 8.61609 15.0294 8.65696C15.0294 8.69778 15.1022 8.79926 15.1912 8.88235C15.2801 8.96545 15.3529 9.06693 15.3529 9.10774C15.3529 9.14862 15.4015 9.21704 15.4608 9.2598C15.5201 9.30256 15.5686 9.37536 15.5686 9.42157C15.5686 9.46778 15.6172 9.54057 15.6765 9.58333C15.7358 9.62609 15.7843 9.69889 15.7843 9.7451C15.7843 9.79131 15.8328 9.8641 15.8922 9.90686C15.9515 9.94962 16 10.0224 16 10.0686C16 10.1148 16.0485 10.1876 16.1078 10.2304C16.1672 10.2732 16.2157 10.3513 16.2157 10.4041C16.2157 10.4568 16.24 10.5 16.2696 10.5C16.2993 10.5 16.3235 10.5432 16.3235 10.5959C16.3235 10.6487 16.3721 10.7268 16.4314 10.7696C16.4907 10.8124 16.5392 10.8905 16.5392 10.9433C16.5392 10.996 16.5635 11.0392 16.5931 11.0392C16.6228 11.0392 16.6471 11.0877 16.6471 11.1471C16.6471 11.2064 16.6713 11.2549 16.701 11.2549C16.7306 11.2549 16.7549 11.2981 16.7549 11.3508C16.7549 11.4036 16.8034 11.4818 16.8627 11.5245C16.9221 11.5673 16.9706 11.6454 16.9706 11.6982C16.9706 11.7509 16.9949 11.7941 17.0245 11.7941C17.0542 11.7941 17.0784 11.8322 17.0784 11.8788C17.0784 11.997 17.2511 12.1658 17.2808 12.0767C17.2931 12.0399 17.3496 12.0098 17.4064 12.0098C17.4633 12.0098 17.5098 11.9855 17.5098 11.9559C17.5098 11.9262 17.5826 11.902 17.6716 11.902C17.7605 11.902 17.8333 11.8777 17.8333 11.848C17.8333 11.8184 17.8819 11.7941 17.9412 11.7941C18.0005 11.7941 18.049 11.7699 18.049 11.7402C18.049 11.7105 18.0975 11.6863 18.1569 11.6863C18.2162 11.6863 18.2647 11.662 18.2647 11.6324C18.2647 11.6027 18.3132 11.5784 18.3725 11.5784C18.4319 11.5784 18.4804 11.5542 18.4804 11.5245C18.4804 11.4949 18.5289 11.4706 18.5882 11.4706C18.6475 11.4706 18.6961 11.4463 18.6961 11.4167C18.6961 11.387 18.7446 11.3627 18.8039 11.3627C18.8632 11.3627 18.9118 11.3385 18.9118 11.3088C18.9118 11.2792 18.9603 11.2549 19.0196 11.2549C19.0789 11.2549 19.1275 11.2306 19.1275 11.201C19.1275 11.1713 19.176 11.1471 19.2353 11.1471C19.2946 11.1471 19.3431 11.1228 19.3431 11.0931C19.3431 11.0635 19.3863 11.0392 19.4391 11.0392C19.4919 11.0392 19.57 10.9907 19.6127 10.9314C19.6555 10.8721 19.7336 10.8235 19.7864 10.8235C19.8392 10.8235 19.8824 10.7993 19.8824 10.7696C19.8824 10.74 19.9309 10.7157 19.9902 10.7157C20.0495 10.7157 20.098 10.6914 20.098 10.6618C20.098 10.6321 20.1412 10.6078 20.194 10.6078C20.2468 10.6078 20.3249 10.5593 20.3676 10.5C20.4104 10.4407 20.4885 10.3922 20.5413 10.3922C20.5941 10.3922 20.6373 10.3679 20.6373 10.3382C20.6373 10.3086 20.6804 10.2843 20.7332 10.2843C20.786 10.2843 20.8641 10.2358 20.9069 10.1765C20.9496 10.1172 21.0224 10.0686 21.0686 10.0686C21.1148 10.0686 21.1876 10.0201 21.2304 9.96078C21.2732 9.90147 21.3459 9.85294 21.3922 9.85294C21.4384 9.85294 21.5112 9.80441 21.5539 9.7451C21.5967 9.68578 21.6695 9.63725 21.7157 9.63725C21.7619 9.63725 21.8347 9.58873 21.8775 9.52941C21.9202 9.4701 21.9886 9.42157 22.0295 9.42157C22.0703 9.42157 22.1718 9.34877 22.2549 9.2598C22.338 9.17083 22.4351 9.09804 22.4706 9.09804C22.5061 9.09804 22.6032 9.02525 22.6863 8.93627C22.7694 8.8473 22.8664 8.77451 22.902 8.77451C22.9375 8.77451 23.0346 8.70172 23.1176 8.61275C23.2007 8.52377 23.2965 8.45098 23.3305 8.45098C23.4083 8.45098 23.6569 8.20558 23.6569 8.12875C23.6569 8.05266 23.083 7.48039 23.0067 7.48039C22.9741 7.48039 22.8542 7.38333 22.7402 7.26471C22.6262 7.14608 22.5 7.04902 22.4598 7.04902C22.4195 7.04902 22.3516 7.00049 22.3088 6.94118C22.2661 6.88186 22.1933 6.83333 22.1471 6.83333C22.1008 6.83333 22.0281 6.7848 21.9853 6.72549C21.9425 6.66618 21.8644 6.61765 21.8116 6.61765C21.7589 6.61765 21.7157 6.59338 21.7157 6.56373C21.7157 6.53407 21.6725 6.5098 21.6198 6.5098C21.567 6.5098 21.4888 6.46127 21.4461 6.40196C21.4033 6.34265 21.3252 6.29412 21.2724 6.29412C21.2197 6.29412 21.1765 6.26985 21.1765 6.2402C21.1765 6.21054 21.1279 6.18627 21.0686 6.18627C21.0093 6.18627 20.9608 6.16201 20.9608 6.13235C20.9608 6.1027 20.9123 6.07843 20.8529 6.07843C20.7936 6.07843 20.7451 6.05417 20.7451 6.02451C20.7451 5.99485 20.6966 5.97059 20.6373 5.97059C20.5779 5.97059 20.5294 5.94632 20.5294 5.91667C20.5294 5.88701 20.4566 5.86275 20.3676 5.86275C20.2787 5.86275 20.2059 5.83848 20.2059 5.80882C20.2059 5.77917 20.1574 5.7549 20.098 5.7549C20.0387 5.7549 19.9902 5.73064 19.9902 5.70098C19.9902 5.67132 19.9174 5.64706 19.8284 5.64706C19.7395 5.64706 19.6667 5.62279 19.6667 5.59314C19.6667 5.56348 19.5939 5.53922 19.5049 5.53922C19.4159 5.53922 19.3431 5.51495 19.3431 5.48529C19.3431 5.45564 19.2703 5.43137 19.1814 5.43137C19.0924 5.43137 19.0196 5.40711 19.0196 5.37745C19.0196 5.34779 18.9225 5.32353 18.8039 5.32353C18.6853 5.32353 18.5882 5.29926 18.5882 5.26961C18.5882 5.23995 18.4912 5.21569 18.3725 5.21569C18.2539 5.21569 18.1569 5.19142 18.1569 5.16176C18.1569 5.13178 18.0131 5.10784 17.8333 5.10784C17.6536 5.10784 17.5098 5.0839 17.5098 5.05392C17.5098 5.0193 16.9885 5 16.0539 5C15.1193 5 14.598 5.0193 14.598 5.05392ZM10.6078 6.34804C10.6078 6.3777 10.5647 6.40196 10.5119 6.40196C10.4591 6.40196 10.381 6.45049 10.3382 6.5098C10.2955 6.56912 10.2227 6.61765 10.1765 6.61765C10.1303 6.61765 10.0575 6.66618 10.0147 6.72549C9.97195 6.7848 9.89915 6.83333 9.85294 6.83333C9.80673 6.83333 9.73394 6.88186 9.69118 6.94118C9.64842 7.00049 9.57999 7.04902 9.53912 7.04902C9.4983 7.04902 9.39682 7.12181 9.31373 7.21078C9.23063 7.29975 9.13573 7.37255 9.10289 7.37255C9.02562 7.37255 7.48039 8.91675 7.48039 8.99397C7.48039 9.02622 7.38333 9.14581 7.26471 9.2598C7.14608 9.37379 7.04902 9.49997 7.04902 9.54025C7.04902 9.58053 7.00049 9.64842 6.94118 9.69118C6.88186 9.73394 6.83333 9.80673 6.83333 9.85294C6.83333 9.89915 6.7848 9.97195 6.72549 10.0147C6.66618 10.0575 6.61765 10.1356 6.61765 10.1884C6.61765 10.2411 6.59338 10.2843 6.56373 10.2843C6.53407 10.2843 6.5098 10.3275 6.5098 10.3802C6.5098 10.433 6.46127 10.5112 6.40196 10.5539C6.34265 10.5967 6.29412 10.6748 6.29412 10.7276C6.29412 10.7803 6.26985 10.8235 6.2402 10.8235C6.21054 10.8235 6.18627 10.8721 6.18627 10.9314C6.18627 10.9907 6.16201 11.0392 6.13235 11.0392C6.1027 11.0392 6.07843 11.0877 6.07843 11.1471C6.07843 11.2064 6.05417 11.2549 6.02451 11.2549C5.99485 11.2549 5.97059 11.3034 5.97059 11.3627C5.97059 11.4221 5.94632 11.4706 5.91667 11.4706C5.88701 11.4706 5.86275 11.5434 5.86275 11.6324C5.86275 11.7213 5.83848 11.7941 5.80882 11.7941C5.77917 11.7941 5.7549 11.8426 5.7549 11.902C5.7549 11.9613 5.73064 12.0098 5.70098 12.0098C5.67132 12.0098 5.64706 12.0826 5.64706 12.1716C5.64706 12.2605 5.62279 12.3333 5.59314 12.3333C5.56348 12.3333 5.53922 12.4061 5.53922 12.4951C5.53922 12.5841 5.51495 12.6569 5.48529 12.6569C5.45564 12.6569 5.43137 12.7297 5.43137 12.8186C5.43137 12.9076 5.40711 12.9804 5.37745 12.9804C5.34779 12.9804 5.32353 13.0775 5.32353 13.1961C5.32353 13.3147 5.29926 13.4118 5.26961 13.4118C5.23995 13.4118 5.21569 13.5331 5.21569 13.6814C5.21569 13.8297 5.19142 13.951 5.16176 13.951C5.08169 13.951 5.09652 14.1091 5.1849 14.1975C5.24761 14.2602 5.51765 14.2745 6.64078 14.2745C7.52407 14.2745 8.01961 14.2552 8.01961 14.2206C8.01961 14.1874 8.28922 14.1667 8.72059 14.1667C9.15196 14.1667 9.42157 14.1459 9.42157 14.1127C9.42157 14.0813 9.60129 14.0588 9.85294 14.0588C10.1046 14.0588 10.2843 14.0363 10.2843 14.0049C10.2843 13.9741 10.4461 13.951 10.6618 13.951C10.8775 13.951 11.0392 13.9278 11.0392 13.8971C11.0392 13.8671 11.183 13.8431 11.3627 13.8431C11.5425 13.8431 11.6863 13.8192 11.6863 13.7892C11.6863 13.7596 11.8076 13.7353 11.9559 13.7353C12.1042 13.7353 12.2255 13.711 12.2255 13.6814C12.2255 13.6517 12.3225 13.6275 12.4412 13.6275C12.5598 13.6275 12.6569 13.6032 12.6569 13.5735C12.6569 13.5439 12.7539 13.5196 12.8725 13.5196C12.9912 13.5196 13.0882 13.4953 13.0882 13.4657C13.0882 13.436 13.1853 13.4118 13.3039 13.4118C13.4225 13.4118 13.5196 13.3875 13.5196 13.3578C13.5196 13.3282 13.6167 13.3039 13.7353 13.3039C13.8539 13.3039 13.951 13.2797 13.951 13.25C13.951 13.2203 14.0238 13.1961 14.1127 13.1961C14.2017 13.1961 14.2745 13.1718 14.2745 13.1422C14.2745 13.1125 14.3716 13.0882 14.4902 13.0882C14.6088 13.0882 14.7059 13.064 14.7059 13.0343C14.7059 13.0047 14.7787 12.9804 14.8676 12.9804C14.9566 12.9804 15.0294 12.9561 15.0294 12.9265C15.0294 12.8968 15.0918 12.8725 15.168 12.8725C15.3254 12.8725 15.531 12.7072 15.4199 12.6702C15.383 12.6579 15.3529 12.6067 15.3529 12.5564C15.3529 12.5062 15.3044 12.43 15.2451 12.3873C15.1858 12.3445 15.1373 12.2664 15.1373 12.2136C15.1373 12.1608 15.113 12.1176 15.0833 12.1176C15.0537 12.1176 15.0294 12.0691 15.0294 12.0098C15.0294 11.9505 15.0051 11.902 14.9755 11.902C14.9458 11.902 14.9216 11.8588 14.9216 11.806C14.9216 11.7532 14.873 11.6751 14.8137 11.6324C14.7544 11.5896 14.7059 11.5168 14.7059 11.4706C14.7059 11.4244 14.6574 11.3516 14.598 11.3088C14.5387 11.2661 14.4902 11.1879 14.4902 11.1351C14.4902 11.0824 14.4659 11.0392 14.4363 11.0392C14.4066 11.0392 14.3824 10.996 14.3824 10.9433C14.3824 10.8905 14.3338 10.8124 14.2745 10.7696C14.2152 10.7268 14.1667 10.6541 14.1667 10.6078C14.1667 10.5616 14.1181 10.4888 14.0588 10.4461C13.9995 10.4033 13.951 10.3349 13.951 10.294C13.951 10.2532 13.8782 10.1517 13.7892 10.0686C13.7002 9.98553 13.6275 9.88405 13.6275 9.84324C13.6275 9.80236 13.5789 9.73394 13.5196 9.69118C13.4603 9.64842 13.4118 9.57999 13.4118 9.53912C13.4118 9.4983 13.339 9.39682 13.25 9.31373C13.161 9.23063 13.0882 9.13406 13.0882 9.09912C13.0882 9.06423 12.9912 8.94242 12.8725 8.82843C12.7539 8.71444 12.6569 8.59312 12.6569 8.55882C12.6569 8.52453 12.5598 8.40321 12.4412 8.28922C12.3225 8.17523 12.2255 8.0545 12.2255 8.02085C12.2255 7.9872 12.0799 7.81681 11.902 7.64216C11.724 7.4675 11.5784 7.29862 11.5784 7.26692C11.5784 7.21046 10.6903 6.29412 10.6356 6.29412C10.6203 6.29412 10.6078 6.31838 10.6078 6.34804ZM24.7353 9.69118C24.6612 9.77837 24.5682 9.85046 24.5289 9.85132C24.4895 9.85224 24.364 9.95 24.25 10.0686C24.136 10.1873 24.0142 10.2843 23.9793 10.2843C23.9444 10.2843 23.8478 10.3571 23.7647 10.4461C23.6816 10.535 23.5801 10.6078 23.5393 10.6078C23.4984 10.6078 23.43 10.6564 23.3873 10.7157C23.3445 10.775 23.2717 10.8235 23.2255 10.8235C23.1793 10.8235 23.1065 10.8721 23.0637 10.9314C23.021 10.9907 22.9525 11.0392 22.9117 11.0392C22.8708 11.0392 22.7694 11.112 22.6863 11.201C22.6032 11.29 22.4964 11.3627 22.449 11.3627C22.4015 11.3627 22.3627 11.387 22.3627 11.4167C22.3627 11.4463 22.3196 11.4706 22.2668 11.4706C22.214 11.4706 22.1359 11.5191 22.0931 11.5784C22.0504 11.6377 21.9776 11.6863 21.9314 11.6863C21.8852 11.6863 21.8124 11.7348 21.7696 11.7941C21.7268 11.8534 21.6487 11.902 21.5959 11.902C21.5432 11.902 21.5 11.9262 21.5 11.9559C21.5 11.9855 21.4568 12.0098 21.4041 12.0098C21.3513 12.0098 21.2732 12.0583 21.2304 12.1176C21.1876 12.177 21.1095 12.2255 21.0567 12.2255C21.004 12.2255 20.9608 12.2498 20.9608 12.2794C20.9608 12.3091 20.9123 12.3333 20.8529 12.3333C20.7936 12.3333 20.7451 12.3576 20.7451 12.3873C20.7451 12.4169 20.7019 12.4412 20.6492 12.4412C20.5964 12.4412 20.5183 12.4897 20.4755 12.549C20.4327 12.6083 20.3546 12.6569 20.3018 12.6569C20.2491 12.6569 20.2059 12.6811 20.2059 12.7108C20.2059 12.7404 20.1574 12.7647 20.098 12.7647C20.0387 12.7647 19.9902 12.789 19.9902 12.8186C19.9902 12.8483 19.9417 12.8725 19.8824 12.8725C19.823 12.8725 19.7745 12.8968 19.7745 12.9265C19.7745 12.9561 19.726 12.9804 19.6667 12.9804C19.6074 12.9804 19.5588 13.0047 19.5588 13.0343C19.5588 13.064 19.5103 13.0882 19.451 13.0882C19.3917 13.0882 19.3431 13.1125 19.3431 13.1422C19.3431 13.1718 19.2946 13.1961 19.2353 13.1961C19.176 13.1961 19.1275 13.2203 19.1275 13.25C19.1275 13.2797 19.0789 13.3039 19.0196 13.3039C18.9603 13.3039 18.9118 13.3282 18.9118 13.3578C18.9118 13.3875 18.8632 13.4118 18.8039 13.4118C18.7446 13.4118 18.6961 13.436 18.6961 13.4657C18.6961 13.4953 18.6233 13.5196 18.5343 13.5196C18.4453 13.5196 18.3725 13.5439 18.3725 13.5735C18.3725 13.6032 18.3344 13.6275 18.2878 13.6275C18.2412 13.6275 18.1684 13.6621 18.1261 13.7045C18.0377 13.7928 18.0229 13.951 18.1029 13.951C18.1326 13.951 18.1569 13.9995 18.1569 14.0588C18.1569 14.1181 18.1811 14.1667 18.2108 14.1667C18.2404 14.1667 18.2647 14.2152 18.2647 14.2745C18.2647 14.3338 18.289 14.3824 18.3186 14.3824C18.3483 14.3824 18.3725 14.4551 18.3725 14.5441C18.3725 14.6331 18.3968 14.7059 18.4265 14.7059C18.4561 14.7059 18.4804 14.7544 18.4804 14.8137C18.4804 14.873 18.5047 14.9216 18.5343 14.9216C18.564 14.9216 18.5882 14.9944 18.5882 15.0833C18.5882 15.1723 18.6125 15.2451 18.6422 15.2451C18.6718 15.2451 18.6961 15.2936 18.6961 15.3529C18.6961 15.4123 18.7203 15.4608 18.75 15.4608C18.7797 15.4608 18.8039 15.5232 18.8039 15.5994C18.8039 15.6757 18.8386 15.7728 18.881 15.8151C18.9693 15.9035 19.1275 15.9183 19.1275 15.8382C19.1275 15.8083 19.2713 15.7843 19.451 15.7843C19.6307 15.7843 19.7745 15.7604 19.7745 15.7304C19.7745 15.699 19.9542 15.6765 20.2059 15.6765C20.4575 15.6765 20.6373 15.654 20.6373 15.6225C20.6373 15.5878 21.1944 15.5686 22.201 15.5686C23.2075 15.5686 23.7647 15.5878 23.7647 15.6225C23.7647 15.654 23.9444 15.6765 24.1961 15.6765C24.4477 15.6765 24.6275 15.699 24.6275 15.7304C24.6275 15.7604 24.7713 15.7843 24.951 15.7843C25.1307 15.7843 25.2745 15.8083 25.2745 15.8382C25.2745 15.8679 25.3958 15.8922 25.5441 15.8922C25.6924 15.8922 25.8137 15.9164 25.8137 15.9461C25.8137 15.9757 25.9108 16 26.0294 16C26.148 16 26.2451 16.0243 26.2451 16.0539C26.2451 16.0836 26.3422 16.1078 26.4608 16.1078C26.5794 16.1078 26.6765 16.1321 26.6765 16.1618C26.6765 16.1914 26.7493 16.2157 26.8382 16.2157H27V15.3529C27 14.8137 26.9798 14.4902 26.9461 14.4902C26.9161 14.4902 26.8922 14.3464 26.8922 14.1667C26.8922 13.9869 26.8682 13.8431 26.8382 13.8431C26.8086 13.8431 26.7843 13.7461 26.7843 13.6275C26.7843 13.5088 26.76 13.4118 26.7304 13.4118C26.7007 13.4118 26.6765 13.3147 26.6765 13.1961C26.6765 13.0775 26.6522 12.9804 26.6225 12.9804C26.5929 12.9804 26.5686 12.9076 26.5686 12.8186C26.5686 12.7297 26.5444 12.6569 26.5147 12.6569C26.485 12.6569 26.4608 12.5841 26.4608 12.4951C26.4608 12.4061 26.4365 12.3333 26.4069 12.3333C26.3772 12.3333 26.3529 12.2605 26.3529 12.1716C26.3529 12.0826 26.3287 12.0098 26.299 12.0098C26.2694 12.0098 26.2451 11.9613 26.2451 11.902C26.2451 11.8426 26.2208 11.7941 26.1912 11.7941C26.1615 11.7941 26.1373 11.7213 26.1373 11.6324C26.1373 11.5434 26.113 11.4706 26.0833 11.4706C26.0537 11.4706 26.0294 11.4221 26.0294 11.3627C26.0294 11.3034 26.0051 11.2549 25.9755 11.2549C25.9458 11.2549 25.9216 11.2064 25.9216 11.1471C25.9216 11.0877 25.8973 11.0392 25.8676 11.0392C25.838 11.0392 25.8137 10.9907 25.8137 10.9314C25.8137 10.8721 25.7895 10.8235 25.7598 10.8235C25.7301 10.8235 25.7059 10.7803 25.7059 10.7276C25.7059 10.6748 25.6574 10.5967 25.598 10.5539C25.5387 10.5112 25.4902 10.433 25.4902 10.3802C25.4902 10.3275 25.4659 10.2843 25.4363 10.2843C25.4066 10.2843 25.3824 10.2411 25.3824 10.1884C25.3824 10.1356 25.3338 10.0575 25.2745 10.0147C25.2152 9.97195 25.1667 9.90481 25.1667 9.86556C25.1667 9.80474 24.933 9.52628 24.886 9.53103C24.8773 9.53189 24.8094 9.60399 24.7353 9.69118ZM16.2157 14.4363C16.2157 14.4659 16.1672 14.4902 16.1078 14.4902C16.0485 14.4902 16 14.5145 16 14.5441C16 14.5738 15.9272 14.598 15.8382 14.598C15.7493 14.598 15.6765 14.6223 15.6765 14.652C15.6765 14.6816 15.5794 14.7059 15.4608 14.7059C15.3422 14.7059 15.2451 14.7301 15.2451 14.7598C15.2451 14.7895 15.1723 14.8137 15.0833 14.8137C14.9944 14.8137 14.9216 14.838 14.9216 14.8676C14.9216 14.8973 14.8488 14.9216 14.7598 14.9216C14.6708 14.9216 14.598 14.9458 14.598 14.9755C14.598 15.0051 14.501 15.0294 14.3824 15.0294C14.2637 15.0294 14.1667 15.0537 14.1667 15.0833C14.1667 15.113 14.0939 15.1373 14.0049 15.1373C13.9159 15.1373 13.8431 15.1615 13.8431 15.1912C13.8431 15.2208 13.7218 15.2451 13.5735 15.2451C13.4252 15.2451 13.3039 15.2694 13.3039 15.299C13.3039 15.3287 13.2069 15.3529 13.0882 15.3529C12.9696 15.3529 12.8725 15.3772 12.8725 15.4069C12.8725 15.4365 12.7512 15.4608 12.6029 15.4608C12.4547 15.4608 12.3333 15.485 12.3333 15.5147C12.3333 15.5444 12.212 15.5686 12.0637 15.5686C11.9154 15.5686 11.7941 15.5929 11.7941 15.6225C11.7941 15.6522 11.6728 15.6765 11.5245 15.6765C11.3762 15.6765 11.2549 15.7007 11.2549 15.7304C11.2549 15.7612 11.0931 15.7843 10.8775 15.7843C10.6618 15.7843 10.5 15.8074 10.5 15.8382C10.5 15.8702 10.3023 15.8922 10.0147 15.8922C9.72714 15.8922 9.52941 15.9141 9.52941 15.9461C9.52941 15.979 9.27776 16 8.88235 16C8.48695 16 8.23529 16.021 8.23529 16.0539C8.23529 16.0886 7.66011 16.1078 6.61765 16.1078H5V16.8088C5 17.2402 5.02076 17.5098 5.05392 17.5098C5.0839 17.5098 5.10784 17.6536 5.10784 17.8333C5.10784 18.0131 5.13178 18.1569 5.16176 18.1569C5.19142 18.1569 5.21569 18.2539 5.21569 18.3725C5.21569 18.4912 5.23995 18.5882 5.26961 18.5882C5.29926 18.5882 5.32353 18.6853 5.32353 18.8039C5.32353 18.9225 5.34779 19.0196 5.37745 19.0196C5.40711 19.0196 5.43137 19.0924 5.43137 19.1814C5.43137 19.2703 5.45564 19.3431 5.48529 19.3431C5.51495 19.3431 5.53922 19.4159 5.53922 19.5049C5.53922 19.5939 5.56348 19.6667 5.59314 19.6667C5.62279 19.6667 5.64706 19.7395 5.64706 19.8284C5.64706 19.9174 5.67132 19.9902 5.70098 19.9902C5.73064 19.9902 5.7549 20.0387 5.7549 20.098C5.7549 20.1574 5.77917 20.2059 5.80882 20.2059C5.83848 20.2059 5.86275 20.2787 5.86275 20.3676C5.86275 20.4566 5.88701 20.5294 5.91667 20.5294C5.94632 20.5294 5.97059 20.5779 5.97059 20.6373C5.97059 20.6966 5.99485 20.7451 6.02451 20.7451C6.05417 20.7451 6.07843 20.7936 6.07843 20.8529C6.07843 20.9123 6.1027 20.9608 6.13235 20.9608C6.16201 20.9608 6.18627 21.0093 6.18627 21.0686C6.18627 21.1279 6.21054 21.1765 6.2402 21.1765C6.26985 21.1765 6.29412 21.225 6.29412 21.2843C6.29412 21.3436 6.31838 21.3922 6.34804 21.3922C6.3777 21.3922 6.40196 21.4353 6.40196 21.4881C6.40196 21.5409 6.45049 21.619 6.5098 21.6618C6.56912 21.7045 6.61765 21.7773 6.61765 21.8235C6.61765 21.8697 6.66618 21.9425 6.72549 21.9853C6.7848 22.0281 6.83333 22.1008 6.83333 22.1471C6.83333 22.1933 6.88186 22.2661 6.94118 22.3088C7.00049 22.3516 7.04902 22.42 7.04902 22.4609C7.04902 22.5017 7.12181 22.6032 7.21078 22.6863C7.29975 22.7694 7.37255 22.8645 7.37255 22.8976C7.37255 22.9888 8.05962 23.6569 8.15339 23.6569C8.19847 23.6569 8.23529 23.6137 8.23529 23.5609C8.23529 23.5081 8.28382 23.43 8.34314 23.3873C8.40245 23.3445 8.45098 23.2717 8.45098 23.2255C8.45098 23.1793 8.49951 23.1065 8.55882 23.0637C8.61814 23.021 8.66667 22.9482 8.66667 22.902C8.66667 22.8558 8.7152 22.783 8.77451 22.7402C8.83382 22.6974 8.88235 22.6246 8.88235 22.5784C8.88235 22.5322 8.93088 22.4594 8.9902 22.4167C9.04951 22.3739 9.09804 22.3055 9.09804 22.2646C9.09804 22.2238 9.17083 22.1223 9.2598 22.0392C9.34877 21.9561 9.42157 21.8595 9.42157 21.8246C9.42157 21.7897 9.51863 21.6679 9.63725 21.5539C9.75588 21.4399 9.85294 21.3203 9.85294 21.2881C9.85294 21.2117 11.6136 19.451 11.6901 19.451C11.7223 19.451 11.8419 19.3539 11.9559 19.2353C12.0699 19.1167 12.1917 19.0196 12.2266 19.0196C12.2615 19.0196 12.3581 18.9468 12.4412 18.8578C12.5243 18.7689 12.6213 18.6961 12.6569 18.6961C12.6924 18.6961 12.7895 18.6233 12.8725 18.5343C12.9556 18.4453 13.0571 18.3725 13.0979 18.3725C13.1388 18.3725 13.2072 18.324 13.25 18.2647C13.2928 18.2054 13.3656 18.1569 13.4118 18.1569C13.458 18.1569 13.5308 18.1083 13.5735 18.049C13.6163 17.9897 13.6944 17.9412 13.7472 17.9412C13.7999 17.9412 13.8431 17.9169 13.8431 17.8873C13.8431 17.8576 13.8917 17.8333 13.951 17.8333C14.0103 17.8333 14.0588 17.8091 14.0588 17.7794C14.0588 17.7498 14.102 17.7255 14.1548 17.7255C14.2075 17.7255 14.2857 17.677 14.3284 17.6176C14.3712 17.5583 14.4493 17.5098 14.5021 17.5098C14.5548 17.5098 14.598 17.4855 14.598 17.4559C14.598 17.4262 14.6466 17.402 14.7059 17.402C14.7652 17.402 14.8137 17.3777 14.8137 17.348C14.8137 17.3184 14.8623 17.2941 14.9216 17.2941C14.9809 17.2941 15.0294 17.2699 15.0294 17.2402C15.0294 17.2105 15.0779 17.1863 15.1373 17.1863C15.1966 17.1863 15.2451 17.162 15.2451 17.1324C15.2451 17.1027 15.2936 17.0784 15.3529 17.0784C15.4123 17.0784 15.4608 17.0542 15.4608 17.0245C15.4608 16.9949 15.5336 16.9706 15.6225 16.9706C15.7115 16.9706 15.7843 16.9463 15.7843 16.9167C15.7843 16.887 15.8328 16.8627 15.8922 16.8627C15.9515 16.8627 16 16.8385 16 16.8088C16 16.7792 16.0485 16.7549 16.1078 16.7549C16.1672 16.7549 16.2157 16.7306 16.2157 16.701C16.2157 16.6713 16.2885 16.6471 16.3775 16.6471C16.4664 16.6471 16.5392 16.6228 16.5392 16.5931C16.5392 16.5635 16.612 16.5392 16.701 16.5392C16.79 16.5392 16.8627 16.515 16.8627 16.4853C16.8627 16.4556 16.9113 16.4314 16.9706 16.4314C17.0545 16.4314 17.0784 16.3954 17.0784 16.2696C17.0784 16.1806 17.0542 16.1078 17.0245 16.1078C16.9949 16.1078 16.9706 16.035 16.9706 15.9461C16.9706 15.8571 16.9463 15.7843 16.9167 15.7843C16.887 15.7843 16.8627 15.7358 16.8627 15.6765C16.8627 15.6172 16.8385 15.5686 16.8088 15.5686C16.7792 15.5686 16.7549 15.4958 16.7549 15.4069C16.7549 15.3179 16.7306 15.2451 16.701 15.2451C16.6713 15.2451 16.6471 15.1966 16.6471 15.1373C16.6471 15.0779 16.6228 15.0294 16.5931 15.0294C16.5635 15.0294 16.5392 14.9809 16.5392 14.9216C16.5392 14.8623 16.515 14.8137 16.4853 14.8137C16.4556 14.8137 16.4314 14.7652 16.4314 14.7059C16.4314 14.6466 16.4071 14.598 16.3775 14.598C16.3478 14.598 16.3235 14.5495 16.3235 14.4902C16.3235 14.4309 16.2993 14.3824 16.2696 14.3824C16.24 14.3824 16.2157 14.4066 16.2157 14.4363ZM20.7451 17.4559C20.7451 17.4867 20.5833 17.5098 20.3676 17.5098C20.152 17.5098 19.9902 17.5329 19.9902 17.5637C19.9902 17.5934 19.8931 17.6176 19.7745 17.6176C19.5708 17.6176 19.5588 17.6267 19.5588 17.7794C19.5588 17.8684 19.5831 17.9412 19.6127 17.9412C19.6424 17.9412 19.6667 18.014 19.6667 18.1029C19.6667 18.1919 19.6909 18.2647 19.7206 18.2647C19.7502 18.2647 19.7745 18.3618 19.7745 18.4804C19.7745 18.599 19.7988 18.6961 19.8284 18.6961C19.8581 18.6961 19.8824 18.7689 19.8824 18.8578C19.8824 18.9468 19.9066 19.0196 19.9363 19.0196C19.9659 19.0196 19.9902 19.1167 19.9902 19.2353C19.9902 19.3539 20.0145 19.451 20.0441 19.451C20.0738 19.451 20.098 19.548 20.098 19.6667C20.098 19.7853 20.1223 19.8824 20.152 19.8824C20.1816 19.8824 20.2059 20.0037 20.2059 20.152C20.2059 20.3002 20.2301 20.4216 20.2598 20.4216C20.2895 20.4216 20.3137 20.5186 20.3137 20.6373C20.3137 20.7559 20.338 20.8529 20.3676 20.8529C20.3973 20.8529 20.4216 20.9743 20.4216 21.1225C20.4216 21.2708 20.4458 21.3922 20.4755 21.3922C20.5055 21.3922 20.5294 21.536 20.5294 21.7157C20.5294 21.8954 20.5534 22.0392 20.5833 22.0392C20.6133 22.0392 20.6373 22.183 20.6373 22.3627C20.6373 22.5425 20.6612 22.6863 20.6912 22.6863C20.7226 22.6863 20.7451 22.866 20.7451 23.1176C20.7451 23.3693 20.7676 23.549 20.799 23.549C20.8314 23.549 20.8529 23.7647 20.8529 24.0882C20.8529 24.4118 20.8745 24.6275 20.9069 24.6275C20.9395 24.6275 20.9608 24.8611 20.9608 25.2206C20.9608 25.7778 20.9673 25.8137 21.0686 25.8137C21.1279 25.8137 21.1765 25.7895 21.1765 25.7598C21.1765 25.7301 21.2197 25.7059 21.2724 25.7059C21.3252 25.7059 21.4033 25.6574 21.4461 25.598C21.4888 25.5387 21.567 25.4902 21.6198 25.4902C21.6725 25.4902 21.7157 25.4659 21.7157 25.4363C21.7157 25.4066 21.7589 25.3824 21.8116 25.3824C21.8644 25.3824 21.9425 25.3338 21.9853 25.2745C22.0281 25.2152 22.0965 25.1667 22.1374 25.1667C22.1782 25.1667 22.2797 25.0939 22.3627 25.0049C22.4458 24.9159 22.5429 24.8431 22.5784 24.8431C22.614 24.8431 22.711 24.7703 22.7941 24.6814C22.8772 24.5924 22.9721 24.5196 23.005 24.5196C23.0823 24.5196 24.5196 23.0834 24.5196 23.0061C24.5196 22.9738 24.6167 22.8542 24.7353 22.7402C24.8539 22.6262 24.951 22.5 24.951 22.4598C24.951 22.4195 24.9995 22.3516 25.0588 22.3088C25.1181 22.2661 25.1667 22.1933 25.1667 22.1471C25.1667 22.1008 25.2152 22.0281 25.2745 21.9853C25.3338 21.9425 25.3824 21.8644 25.3824 21.8116C25.3824 21.7589 25.4066 21.7157 25.4363 21.7157C25.4659 21.7157 25.4902 21.6725 25.4902 21.6198C25.4902 21.567 25.5387 21.4888 25.598 21.4461C25.6574 21.4033 25.7059 21.3252 25.7059 21.2724C25.7059 21.2197 25.7301 21.1765 25.7598 21.1765C25.7895 21.1765 25.8137 21.1279 25.8137 21.0686C25.8137 21.0093 25.838 20.9608 25.8676 20.9608C25.8973 20.9608 25.9216 20.9123 25.9216 20.8529C25.9216 20.7936 25.9458 20.7451 25.9755 20.7451C26.0051 20.7451 26.0294 20.6966 26.0294 20.6373C26.0294 20.5779 26.0537 20.5294 26.0833 20.5294C26.113 20.5294 26.1373 20.4566 26.1373 20.3676C26.1373 20.2787 26.1615 20.2059 26.1912 20.2059C26.2208 20.2059 26.2451 20.1574 26.2451 20.098C26.2451 20.0387 26.2694 19.9902 26.299 19.9902C26.3287 19.9902 26.3529 19.9174 26.3529 19.8284C26.3529 19.7395 26.3772 19.6667 26.4069 19.6667C26.4365 19.6667 26.4608 19.5939 26.4608 19.5049C26.4608 19.4159 26.485 19.3431 26.5147 19.3431C26.5444 19.3431 26.5686 19.2703 26.5686 19.1814C26.5686 19.0924 26.5929 19.0196 26.6225 19.0196C26.6522 19.0196 26.6765 18.9225 26.6765 18.8039C26.6765 18.6853 26.7007 18.5882 26.7304 18.5882C26.8131 18.5882 26.7944 18.2132 26.7073 18.1261C26.6649 18.0837 26.5679 18.049 26.4916 18.049C26.4153 18.049 26.3529 18.0248 26.3529 17.9951C26.3529 17.9654 26.2801 17.9412 26.1912 17.9412C26.1022 17.9412 26.0294 17.9169 26.0294 17.8873C26.0294 17.8576 25.9324 17.8333 25.8137 17.8333C25.6951 17.8333 25.598 17.8091 25.598 17.7794C25.598 17.7498 25.4767 17.7255 25.3284 17.7255C25.1801 17.7255 25.0588 17.7012 25.0588 17.6716C25.0588 17.6419 24.9375 17.6176 24.7892 17.6176C24.6409 17.6176 24.5196 17.5934 24.5196 17.5637C24.5196 17.5323 24.3399 17.5098 24.0882 17.5098C23.8366 17.5098 23.6569 17.4873 23.6569 17.4559C23.6569 17.4213 23.1356 17.402 22.201 17.402C21.2664 17.402 20.7451 17.4213 20.7451 17.4559ZM17.5098 18.2108C17.5098 18.2404 17.437 18.2647 17.348 18.2647C17.2591 18.2647 17.1863 18.289 17.1863 18.3186C17.1863 18.3483 17.1135 18.3725 17.0245 18.3725C16.9355 18.3725 16.8627 18.3968 16.8627 18.4265C16.8627 18.4561 16.8142 18.4804 16.7549 18.4804C16.6956 18.4804 16.6471 18.5047 16.6471 18.5343C16.6471 18.564 16.5743 18.5882 16.4853 18.5882C16.3963 18.5882 16.3235 18.6125 16.3235 18.6422C16.3235 18.6718 16.275 18.6961 16.2157 18.6961C16.1564 18.6961 16.1078 18.7203 16.1078 18.75C16.1078 18.7797 16.0593 18.8039 16 18.8039C15.9407 18.8039 15.8922 18.8282 15.8922 18.8578C15.8922 18.8875 15.8436 18.9118 15.7843 18.9118C15.725 18.9118 15.6765 18.936 15.6765 18.9657C15.6765 18.9953 15.6279 19.0196 15.5686 19.0196C15.5093 19.0196 15.4608 19.0439 15.4608 19.0735C15.4608 19.1032 15.4123 19.1275 15.3529 19.1275C15.2936 19.1275 15.2451 19.1517 15.2451 19.1814C15.2451 19.211 15.2019 19.2353 15.1492 19.2353C15.0964 19.2353 15.0183 19.2838 14.9755 19.3431C14.9327 19.4025 14.8546 19.451 14.8018 19.451C14.7491 19.451 14.7059 19.4752 14.7059 19.5049C14.7059 19.5346 14.6627 19.5588 14.61 19.5588C14.5572 19.5588 14.479 19.6074 14.4363 19.6667C14.3935 19.726 14.3207 19.7745 14.2745 19.7745C14.2283 19.7745 14.1555 19.823 14.1127 19.8824C14.07 19.9417 14.0016 19.9902 13.9607 19.9902C13.9199 19.9902 13.8184 20.063 13.7353 20.152C13.6522 20.2409 13.5556 20.3137 13.5207 20.3137C13.4858 20.3137 13.364 20.4108 13.25 20.5294C13.136 20.648 13.0164 20.7451 12.9842 20.7451C12.9077 20.7451 11.2549 22.3979 11.2549 22.4744C11.2549 22.5066 11.1578 22.6262 11.0392 22.7402C10.9206 22.8542 10.8235 22.976 10.8235 23.0109C10.8235 23.0458 10.7507 23.1424 10.6618 23.2255C10.5728 23.3086 10.5 23.4101 10.5 23.4509C10.5 23.4918 10.4515 23.5602 10.3922 23.6029C10.3328 23.6457 10.2843 23.7185 10.2843 23.7647C10.2843 23.8109 10.2358 23.8837 10.1765 23.9265C10.1172 23.9692 10.0686 24.042 10.0686 24.0882C10.0686 24.1344 10.0201 24.2072 9.96078 24.25C9.90147 24.2928 9.85294 24.3709 9.85294 24.4237C9.85294 24.4764 9.82868 24.5196 9.79902 24.5196C9.76936 24.5196 9.7451 24.5681 9.7451 24.6275C9.7451 24.6868 9.72083 24.7353 9.69118 24.7353C9.60932 24.7353 9.62674 25.0021 9.71431 25.0896C9.75664 25.132 9.82409 25.1667 9.86416 25.1667C9.90422 25.1667 9.97195 25.2152 10.0147 25.2745C10.0575 25.3338 10.1356 25.3824 10.1884 25.3824C10.2411 25.3824 10.2843 25.4066 10.2843 25.4363C10.2843 25.4659 10.3275 25.4902 10.3802 25.4902C10.433 25.4902 10.5112 25.5387 10.5539 25.598C10.5967 25.6574 10.6748 25.7059 10.7276 25.7059C10.7803 25.7059 10.8235 25.7301 10.8235 25.7598C10.8235 25.7895 10.8721 25.8137 10.9314 25.8137C10.9907 25.8137 11.0392 25.838 11.0392 25.8676C11.0392 25.8973 11.0877 25.9216 11.1471 25.9216C11.2064 25.9216 11.2549 25.9458 11.2549 25.9755C11.2549 26.0051 11.3034 26.0294 11.3627 26.0294C11.4221 26.0294 11.4706 26.0537 11.4706 26.0833C11.4706 26.113 11.5434 26.1373 11.6324 26.1373C11.7213 26.1373 11.7941 26.1615 11.7941 26.1912C11.7941 26.2208 11.8426 26.2451 11.902 26.2451C11.9613 26.2451 12.0098 26.2694 12.0098 26.299C12.0098 26.3287 12.0826 26.3529 12.1716 26.3529C12.2605 26.3529 12.3333 26.3772 12.3333 26.4069C12.3333 26.4365 12.4061 26.4608 12.4951 26.4608C12.5841 26.4608 12.6569 26.485 12.6569 26.5147C12.6569 26.5444 12.7297 26.5686 12.8186 26.5686C12.9076 26.5686 12.9804 26.5929 12.9804 26.6225C12.9804 26.6522 13.0775 26.6765 13.1961 26.6765C13.3147 26.6765 13.4118 26.7007 13.4118 26.7304C13.4118 26.76 13.5088 26.7843 13.6275 26.7843C13.7461 26.7843 13.8431 26.8086 13.8431 26.8382C13.8431 26.8682 13.9869 26.8922 14.1667 26.8922C14.3464 26.8922 14.4902 26.9161 14.4902 26.9461C14.4902 26.9807 15.0115 27 15.9461 27C16.8807 27 17.402 26.9807 17.402 26.9461C17.402 26.9153 17.5637 26.8922 17.7794 26.8922C17.9951 26.8922 18.1569 26.869 18.1569 26.8382C18.1569 26.8086 18.2539 26.7843 18.3725 26.7843C18.4912 26.7843 18.5882 26.76 18.5882 26.7304C18.5882 26.7007 18.6853 26.6765 18.8039 26.6765C18.9225 26.6765 19.0196 26.6522 19.0196 26.6225C19.0196 26.5929 19.0681 26.5686 19.1275 26.5686C19.1868 26.5686 19.2353 26.5444 19.2353 26.5147C19.2353 26.485 19.211 26.4608 19.1814 26.4608C19.1477 26.4608 19.1275 26.1373 19.1275 25.598C19.1275 25.0588 19.1072 24.7353 19.0735 24.7353C19.0412 24.7353 19.0196 24.5196 19.0196 24.1961C19.0196 23.8725 18.998 23.6569 18.9657 23.6569C18.9349 23.6569 18.9118 23.4951 18.9118 23.2794C18.9118 23.0637 18.8886 22.902 18.8578 22.902C18.8271 22.902 18.8039 22.7402 18.8039 22.5245C18.8039 22.3088 18.7808 22.1471 18.75 22.1471C18.7203 22.1471 18.6961 22.0257 18.6961 21.8775C18.6961 21.7292 18.6718 21.6078 18.6422 21.6078C18.6125 21.6078 18.5882 21.4865 18.5882 21.3382C18.5882 21.19 18.564 21.0686 18.5343 21.0686C18.5047 21.0686 18.4804 20.9473 18.4804 20.799C18.4804 20.6507 18.4561 20.5294 18.4265 20.5294C18.3968 20.5294 18.3725 20.4324 18.3725 20.3137C18.3725 20.1951 18.3483 20.098 18.3186 20.098C18.289 20.098 18.2647 20.001 18.2647 19.8824C18.2647 19.7637 18.2404 19.6667 18.2108 19.6667C18.1811 19.6667 18.1569 19.5696 18.1569 19.451C18.1569 19.3324 18.1326 19.2353 18.1029 19.2353C18.0733 19.2353 18.049 19.1625 18.049 19.0735C18.049 18.9846 18.0248 18.9118 17.9951 18.9118C17.9654 18.9118 17.9412 18.8147 17.9412 18.6961C17.9412 18.5775 17.9169 18.4804 17.8873 18.4804C17.8576 18.4804 17.8333 18.4076 17.8333 18.3186C17.8333 18.1748 17.8154 18.1569 17.6716 18.1569C17.5826 18.1569 17.5098 18.1811 17.5098 18.2108Z" fill="black"/>
</svg>
