<svg width="32" height="32" viewBox="0 0 32 32" fill="none" xmlns="http://www.w3.org/2000/svg">
<path fill-rule="evenodd" clip-rule="evenodd" d="M2 14.784V24.5679H7.09766C10.4772 24.5679 12.1953 24.5575 12.1953 24.537C12.1953 24.5194 12.2803 24.5062 12.3936 24.5062C12.5068 24.5062 12.5918 24.4929 12.5918 24.4753C12.5918 24.4583 12.6555 24.4444 12.7334 24.4444C12.8113 24.4444 12.875 24.4306 12.875 24.4136C12.875 24.3966 12.926 24.3827 12.9883 24.3827C13.0506 24.3827 13.1016 24.3688 13.1016 24.3519C13.1016 24.3349 13.1525 24.321 13.2148 24.321C13.2771 24.321 13.3281 24.3071 13.3281 24.2901C13.3281 24.2731 13.3664 24.2593 13.4131 24.2593C13.4598 24.2593 13.498 24.2454 13.498 24.2284C13.498 24.2114 13.5363 24.1975 13.583 24.1975C13.6297 24.1975 13.668 24.1836 13.668 24.1667C13.668 24.1497 13.7062 24.1358 13.7529 24.1358C13.7997 24.1358 13.8379 24.1219 13.8379 24.1049C13.8379 24.088 13.8761 24.0741 13.9229 24.0741C13.9696 24.0741 14.0078 24.0602 14.0078 24.0432C14.0078 24.0262 14.0333 24.0123 14.0645 24.0123C14.0956 24.0123 14.1211 23.9985 14.1211 23.9815C14.1211 23.9645 14.1466 23.9506 14.1777 23.9506C14.2089 23.9506 14.2344 23.9367 14.2344 23.9198C14.2344 23.9028 14.2599 23.8889 14.291 23.8889C14.3222 23.8889 14.3477 23.875 14.3477 23.858C14.3477 23.841 14.3731 23.8272 14.4043 23.8272C14.4354 23.8272 14.4609 23.8133 14.4609 23.7963C14.4609 23.7793 14.4864 23.7654 14.5176 23.7654C14.5487 23.7654 14.5742 23.7515 14.5742 23.7346C14.5742 23.7176 14.5997 23.7037 14.6309 23.7037C14.662 23.7037 14.6875 23.6898 14.6875 23.6728C14.6875 23.6559 14.7102 23.642 14.7379 23.642C14.7656 23.642 14.8066 23.6142 14.8291 23.5802C14.8516 23.5463 14.8898 23.5185 14.9141 23.5185C14.9383 23.5185 14.9766 23.4907 14.999 23.4568C15.0215 23.4228 15.0597 23.3951 15.084 23.3951C15.1083 23.3951 15.1465 23.3673 15.1689 23.3333C15.1914 23.2994 15.2262 23.2716 15.2463 23.2716C15.2907 23.2716 16.0469 22.4527 16.0469 22.4046C16.0469 22.3858 16.0851 22.3315 16.1318 22.284C16.1786 22.2364 16.2168 22.1783 16.2168 22.1549C16.2168 22.1315 16.2423 22.0924 16.2734 22.0679C16.3046 22.0434 16.3301 22.0018 16.3301 21.9753C16.3301 21.9489 16.3556 21.9072 16.3867 21.8827C16.4179 21.8582 16.4434 21.8135 16.4434 21.7833C16.4434 21.7531 16.4561 21.7284 16.4717 21.7284C16.4873 21.7284 16.5 21.7006 16.5 21.6667C16.5 21.6327 16.5127 21.6049 16.5283 21.6049C16.5439 21.6049 16.5566 21.5772 16.5566 21.5432C16.5566 21.5093 16.5694 21.4815 16.585 21.4815C16.6005 21.4815 16.6133 21.4398 16.6133 21.3889C16.6133 21.338 16.626 21.2963 16.6416 21.2963C16.6572 21.2963 16.6699 21.2685 16.6699 21.2346C16.6699 21.2006 16.6827 21.1728 16.6982 21.1728C16.7138 21.1728 16.7266 21.1312 16.7266 21.0802C16.7266 21.0293 16.7393 20.9877 16.7549 20.9877C16.7705 20.9877 16.7832 20.946 16.7832 20.8951C16.7832 20.8441 16.7959 20.8025 16.8115 20.8025C16.8271 20.8025 16.8398 20.7608 16.8398 20.7099C16.8398 20.659 16.8526 20.6173 16.8682 20.6173C16.8837 20.6173 16.8965 20.5617 16.8965 20.4938C16.8965 20.4259 16.9092 20.3704 16.9248 20.3704C16.9406 20.3704 16.9531 20.2881 16.9531 20.1852C16.9531 20.0823 16.9657 20 16.9814 20C16.9976 20 17.0098 19.9074 17.0098 19.784C17.0098 19.6605 17.0219 19.5679 17.0381 19.5679C17.0563 19.5679 17.0664 19.2695 17.0664 18.7346C17.0664 18.1996 17.0563 17.9012 17.0381 17.9012C17.0219 17.9012 17.0098 17.8086 17.0098 17.6852C17.0098 17.5617 16.9976 17.4691 16.9814 17.4691C16.9657 17.4691 16.9531 17.3868 16.9531 17.284C16.9531 17.1811 16.9406 17.0988 16.9248 17.0988C16.9092 17.0988 16.8965 17.0432 16.8965 16.9753C16.8965 16.9074 16.8837 16.8519 16.8682 16.8519C16.8526 16.8519 16.8398 16.7963 16.8398 16.7284C16.8398 16.6605 16.8271 16.6049 16.8115 16.6049C16.7959 16.6049 16.7832 16.5633 16.7832 16.5123C16.7832 16.4614 16.7705 16.4198 16.7549 16.4198C16.7393 16.4198 16.7266 16.3781 16.7266 16.3272C16.7266 16.2762 16.7138 16.2346 16.6982 16.2346C16.6827 16.2346 16.6699 16.2068 16.6699 16.1728C16.6699 16.1389 16.6572 16.1111 16.6416 16.1111C16.626 16.1111 16.6133 16.0694 16.6133 16.0185C16.6133 15.9676 16.6005 15.9259 16.585 15.9259C16.5694 15.9259 16.5566 15.8981 16.5566 15.8642C16.5566 15.8302 16.5439 15.8025 16.5283 15.8025C16.5127 15.8025 16.5 15.7777 16.5 15.7476C16.5 15.7173 16.4745 15.6726 16.4434 15.6481C16.4122 15.6237 16.3867 15.579 16.3867 15.5487C16.3867 15.5185 16.374 15.4938 16.3584 15.4938C16.3428 15.4938 16.3301 15.4716 16.3301 15.4445C16.3301 15.4173 16.2918 15.3562 16.2451 15.3086C16.1984 15.2611 16.1602 15.2067 16.1602 15.1878C16.1602 15.1397 15.6308 14.5679 15.5862 14.5679C15.5661 14.5679 15.5312 14.5401 15.5088 14.5062C15.4863 14.4722 15.4481 14.4444 15.4238 14.4444C15.3996 14.4444 15.3613 14.4167 15.3389 14.3827C15.3149 14.3465 15.2655 14.321 15.2193 14.321C15.1761 14.321 15.1406 14.3071 15.1406 14.2901C15.1406 14.2731 15.1151 14.2593 15.084 14.2593C15.0528 14.2593 15.0273 14.2454 15.0273 14.2284C15.0273 14.2114 15.0019 14.1975 14.9707 14.1975C14.9396 14.1975 14.9141 14.1836 14.9141 14.1667C14.9141 14.1497 14.8758 14.1358 14.8291 14.1358C14.7824 14.1358 14.7441 14.1219 14.7441 14.1049C14.7441 14.088 14.6932 14.0741 14.6309 14.0741C14.5686 14.0741 14.5176 14.0602 14.5176 14.0432C14.5176 14.026 14.442 14.0123 14.3477 14.0123C14.2533 14.0123 14.1777 13.9986 14.1777 13.9815C14.1777 13.9643 14.1022 13.9506 14.0078 13.9506C13.9134 13.9506 13.8379 13.9369 13.8379 13.9198C13.8379 13.9028 13.9016 13.8889 13.9795 13.8889C14.0574 13.8889 14.1211 13.875 14.1211 13.858C14.1211 13.841 14.1593 13.8272 14.2061 13.8272C14.2528 13.8272 14.291 13.8133 14.291 13.7963C14.291 13.7793 14.3292 13.7654 14.376 13.7654C14.4227 13.7654 14.4609 13.7515 14.4609 13.7346C14.4609 13.7176 14.4864 13.7037 14.5176 13.7037C14.5487 13.7037 14.5742 13.6898 14.5742 13.6728C14.5742 13.6559 14.5997 13.642 14.6309 13.642C14.662 13.642 14.6875 13.6281 14.6875 13.6111C14.6875 13.5941 14.713 13.5802 14.7441 13.5802C14.7753 13.5802 14.8008 13.5664 14.8008 13.5494C14.8008 13.5324 14.8263 13.5185 14.8574 13.5185C14.8886 13.5185 14.9141 13.5046 14.9141 13.4877C14.9141 13.4707 14.9367 13.4568 14.9644 13.4568C14.9922 13.4568 15.0332 13.429 15.0557 13.3951C15.0781 13.3611 15.1141 13.3333 15.1355 13.3333C15.157 13.3333 15.2103 13.2917 15.2539 13.2407C15.2975 13.1898 15.3476 13.1481 15.3651 13.1481C15.4063 13.1481 15.6504 12.8827 15.6504 12.8379C15.6504 12.8191 15.7014 12.7504 15.7637 12.6852C15.826 12.6199 15.877 12.5447 15.877 12.5178C15.877 12.491 15.8897 12.4691 15.9053 12.4691C15.9208 12.4691 15.9336 12.4444 15.9336 12.4142C15.9336 12.384 15.9591 12.3393 15.9902 12.3148C16.0214 12.2903 16.0469 12.2456 16.0469 12.2154C16.0469 12.1852 16.0596 12.1605 16.0752 12.1605C16.0908 12.1605 16.1035 12.1327 16.1035 12.0988C16.1035 12.0648 16.1163 12.037 16.1318 12.037C16.1474 12.037 16.1602 11.9954 16.1602 11.9444C16.1602 11.8935 16.1729 11.8519 16.1885 11.8519C16.2041 11.8519 16.2168 11.8102 16.2168 11.7593C16.2168 11.7083 16.2295 11.6667 16.2451 11.6667C16.2607 11.6667 16.2734 11.625 16.2734 11.5741C16.2734 11.5231 16.2862 11.4815 16.3018 11.4815C16.3173 11.4815 16.3301 11.412 16.3301 11.3272C16.3301 11.2423 16.3428 11.1728 16.3584 11.1728C16.374 11.1728 16.3867 11.1034 16.3867 11.0185C16.3867 10.9336 16.3995 10.8642 16.415 10.8642C16.4331 10.8642 16.4434 10.6173 16.4434 10.1852C16.4434 9.75309 16.4331 9.50617 16.415 9.50617C16.3989 9.50617 16.3867 9.41358 16.3867 9.29012C16.3867 9.16667 16.3746 9.07407 16.3584 9.07407C16.3428 9.07407 16.3301 9.00463 16.3301 8.91975C16.3301 8.83488 16.3173 8.76543 16.3018 8.76543C16.2862 8.76543 16.2734 8.70988 16.2734 8.64198C16.2734 8.57407 16.2607 8.51852 16.2451 8.51852C16.2295 8.51852 16.2168 8.47685 16.2168 8.42593C16.2168 8.375 16.2041 8.33333 16.1885 8.33333C16.1729 8.33333 16.1602 8.29167 16.1602 8.24074C16.1602 8.18981 16.1474 8.14815 16.1318 8.14815C16.1163 8.14815 16.1035 8.10648 16.1035 8.05556C16.1035 8.00463 16.0908 7.96296 16.0752 7.96296C16.0596 7.96296 16.0469 7.93519 16.0469 7.90123C16.0469 7.86728 16.0341 7.83951 16.0186 7.83951C16.003 7.83951 15.9902 7.81173 15.9902 7.77778C15.9902 7.74383 15.9775 7.71605 15.9619 7.71605C15.9463 7.71605 15.9336 7.68827 15.9336 7.65432C15.9336 7.62037 15.9208 7.59259 15.9053 7.59259C15.8897 7.59259 15.877 7.56481 15.877 7.53086C15.877 7.49691 15.8642 7.46914 15.8486 7.46914C15.8331 7.46914 15.8203 7.44441 15.8203 7.41423C15.8203 7.38401 15.7948 7.33929 15.7637 7.31481C15.7325 7.29034 15.707 7.24867 15.707 7.22222C15.707 7.19577 15.6815 7.1541 15.6504 7.12963C15.6192 7.10515 15.5938 7.0663 15.5938 7.04324C15.5938 7.02019 15.5428 6.94796 15.4805 6.88272C15.4182 6.81747 15.3672 6.74889 15.3672 6.73031C15.3672 6.68586 14.9525 6.23457 14.9117 6.23457C14.8944 6.23457 14.8444 6.1929 14.8008 6.14198C14.7571 6.09105 14.7038 6.04938 14.6824 6.04938C14.6609 6.04938 14.625 6.0216 14.6025 5.98765C14.5801 5.9537 14.5418 5.92593 14.5176 5.92593C14.4933 5.92593 14.4551 5.89815 14.4326 5.8642C14.4102 5.83025 14.3691 5.80247 14.3414 5.80247C14.3137 5.80247 14.291 5.78858 14.291 5.7716C14.291 5.75463 14.2655 5.74074 14.2344 5.74074C14.2032 5.74074 14.1777 5.72685 14.1777 5.70988C14.1777 5.6929 14.1522 5.67901 14.1211 5.67901C14.0899 5.67901 14.0645 5.66512 14.0645 5.64815C14.0645 5.63117 14.039 5.61728 14.0078 5.61728C13.9767 5.61728 13.9512 5.6034 13.9512 5.58642C13.9512 5.56944 13.9257 5.55556 13.8945 5.55556C13.8634 5.55556 13.8379 5.54167 13.8379 5.52469C13.8379 5.50772 13.8124 5.49383 13.7812 5.49383C13.7501 5.49383 13.7246 5.47994 13.7246 5.46296C13.7246 5.44599 13.6864 5.4321 13.6396 5.4321C13.5929 5.4321 13.5547 5.41821 13.5547 5.40123C13.5547 5.38426 13.5292 5.37037 13.498 5.37037C13.4669 5.37037 13.4414 5.35648 13.4414 5.33951C13.4414 5.32253 13.3904 5.30864 13.3281 5.30864C13.2658 5.30864 13.2148 5.29475 13.2148 5.27778C13.2148 5.2608 13.1766 5.24691 13.1299 5.24691C13.0832 5.24691 13.0449 5.23302 13.0449 5.21605C13.0449 5.19907 12.9939 5.18519 12.9316 5.18519C12.8693 5.18519 12.8184 5.1713 12.8184 5.15432C12.8184 5.13716 12.7428 5.12346 12.6484 5.12346C12.554 5.12346 12.4785 5.10975 12.4785 5.09259C12.4785 5.0746 12.3841 5.06173 12.252 5.06173C12.1198 5.06173 12.0254 5.04886 12.0254 5.03086C12.0254 5.0104 10.3356 5 7.0127 5H2V14.784ZM20.8047 7.33244C20.8047 8.2963 20.8115 8.49951 20.8452 8.53614C20.8798 8.57392 21.4126 8.58025 24.5551 8.58025H28.2246V7.37654V6.17284H24.5146H20.8047V7.33244ZM11.459 8.48765C11.459 8.50463 11.51 8.51852 11.5723 8.51852C11.6346 8.51852 11.6855 8.53241 11.6855 8.54938C11.6855 8.56636 11.711 8.58025 11.7422 8.58025C11.7733 8.58025 11.7988 8.59414 11.7988 8.61111C11.7988 8.62809 11.8215 8.64198 11.8492 8.64198C11.8769 8.64198 11.918 8.66975 11.9404 8.7037C11.9629 8.73765 11.998 8.76543 12.0184 8.76543C12.0667 8.76543 12.252 8.96728 12.252 9.01994C12.252 9.04222 12.2774 9.08046 12.3086 9.10494C12.3397 9.12941 12.3652 9.17414 12.3652 9.20435C12.3652 9.23454 12.378 9.25926 12.3936 9.25926C12.4091 9.25926 12.4219 9.28704 12.4219 9.32099C12.4219 9.35494 12.4346 9.38272 12.4502 9.38272C12.4658 9.38272 12.4785 9.42438 12.4785 9.47531C12.4785 9.52623 12.4913 9.5679 12.5068 9.5679C12.5224 9.5679 12.5352 9.62346 12.5352 9.69136C12.5352 9.75926 12.5479 9.81482 12.5635 9.81482C12.5796 9.81482 12.5918 9.90741 12.5918 10.0309C12.5918 10.1543 12.6039 10.2469 12.6201 10.2469C12.6366 10.2469 12.6484 10.3498 12.6484 10.4938C12.6484 10.6379 12.6366 10.7407 12.6201 10.7407C12.603 10.7407 12.5918 10.8745 12.5918 11.0802C12.5918 11.286 12.5806 11.4198 12.5635 11.4198C12.5479 11.4198 12.5352 11.4892 12.5352 11.5741C12.5352 11.659 12.5224 11.7284 12.5068 11.7284C12.4913 11.7284 12.4785 11.7562 12.4785 11.7901C12.4785 11.8241 12.4658 11.8519 12.4502 11.8519C12.4346 11.8519 12.4219 11.8935 12.4219 11.9444C12.4219 11.9954 12.4091 12.037 12.3936 12.037C12.378 12.037 12.3652 12.0618 12.3652 12.0919C12.3652 12.1222 12.3397 12.1669 12.3086 12.1914C12.2774 12.2158 12.252 12.2539 12.252 12.276C12.252 12.3322 11.951 12.6543 11.8986 12.6543C11.8749 12.6543 11.8555 12.6682 11.8555 12.6852C11.8555 12.7022 11.8172 12.716 11.7705 12.716C11.7238 12.716 11.6855 12.7299 11.6855 12.7469C11.6855 12.7639 11.6346 12.7778 11.5723 12.7778C11.51 12.7778 11.459 12.7917 11.459 12.8086C11.459 12.829 10.5527 12.8395 8.79688 12.8395H6.13477V10.6481V8.45679H8.79688C10.5527 8.45679 11.459 8.46728 11.459 8.48765ZM23.75 10.0309C23.75 10.0489 23.6556 10.0617 23.5234 10.0617C23.3913 10.0617 23.2969 10.0746 23.2969 10.0926C23.2969 10.1096 23.2332 10.1235 23.1553 10.1235C23.0774 10.1235 23.0137 10.1373 23.0137 10.1543C23.0137 10.1713 22.95 10.1852 22.8721 10.1852C22.7942 10.1852 22.7305 10.1991 22.7305 10.216C22.7305 10.233 22.6795 10.2469 22.6172 10.2469C22.5549 10.2469 22.5039 10.2608 22.5039 10.2778C22.5039 10.2948 22.4529 10.3086 22.3906 10.3086C22.3283 10.3086 22.2773 10.3225 22.2773 10.3395C22.2773 10.3565 22.2391 10.3704 22.1924 10.3704C22.1457 10.3704 22.1074 10.3843 22.1074 10.4012C22.1074 10.4182 22.0692 10.4321 22.0225 10.4321C21.9757 10.4321 21.9375 10.446 21.9375 10.463C21.9375 10.4799 21.912 10.4938 21.8809 10.4938C21.8497 10.4938 21.8242 10.5077 21.8242 10.5247C21.8242 10.5417 21.786 10.5556 21.7393 10.5556C21.6925 10.5556 21.6543 10.5694 21.6543 10.5864C21.6543 10.6034 21.6288 10.6173 21.5977 10.6173C21.5665 10.6173 21.541 10.6312 21.541 10.6481C21.541 10.6651 21.5155 10.679 21.4844 10.679C21.4532 10.679 21.4277 10.6929 21.4277 10.7099C21.4277 10.7269 21.4022 10.7407 21.3711 10.7407C21.3399 10.7407 21.3145 10.7546 21.3145 10.7716C21.3145 10.7886 21.289 10.8025 21.2578 10.8025C21.2267 10.8025 21.2012 10.8164 21.2012 10.8333C21.2012 10.8503 21.1757 10.8642 21.1445 10.8642C21.1134 10.8642 21.0879 10.8781 21.0879 10.8951C21.0879 10.912 21.0652 10.9259 21.0375 10.9259C21.0098 10.9259 20.9687 10.9537 20.9463 10.9877C20.9238 11.0216 20.8828 11.0494 20.8551 11.0494C20.8274 11.0494 20.8047 11.0633 20.8047 11.0802C20.8047 11.0972 20.7843 11.1111 20.7594 11.1111C20.7345 11.1111 20.6784 11.1528 20.6348 11.2037C20.5911 11.2546 20.5401 11.2963 20.5215 11.2963C20.5028 11.2963 20.4518 11.338 20.4082 11.3889C20.3646 11.4398 20.3147 11.4815 20.2975 11.4815C20.2533 11.4815 19.3887 12.4291 19.3887 12.4775C19.3887 12.4994 19.3632 12.5373 19.332 12.5617C19.3009 12.5862 19.2754 12.6254 19.2754 12.6488C19.2754 12.6721 19.2372 12.7302 19.1904 12.7778C19.1437 12.8253 19.1055 12.8834 19.1055 12.9068C19.1055 12.9302 19.08 12.9694 19.0488 12.9938C19.0177 13.0183 18.9922 13.06 18.9922 13.0864C18.9922 13.1129 18.9667 13.1545 18.9355 13.179C18.9044 13.2035 18.8789 13.2482 18.8789 13.2784C18.8789 13.3086 18.8662 13.3333 18.8506 13.3333C18.835 13.3333 18.8223 13.3611 18.8223 13.3951C18.8223 13.429 18.8095 13.4568 18.7939 13.4568C18.7784 13.4568 18.7656 13.4815 18.7656 13.5117C18.7656 13.5419 18.7401 13.5866 18.709 13.6111C18.6778 13.6356 18.6523 13.6803 18.6523 13.7105C18.6523 13.7407 18.6396 13.7654 18.624 13.7654C18.6084 13.7654 18.5957 13.8071 18.5957 13.858C18.5957 13.909 18.583 13.9506 18.5674 13.9506C18.5518 13.9506 18.5391 13.9784 18.5391 14.0123C18.5391 14.0463 18.5263 14.0741 18.5107 14.0741C18.4952 14.0741 18.4824 14.1019 18.4824 14.1358C18.4824 14.1698 18.4697 14.1975 18.4541 14.1975C18.4385 14.1975 18.4258 14.2253 18.4258 14.2593C18.4258 14.2932 18.413 14.321 18.3975 14.321C18.3819 14.321 18.3691 14.3627 18.3691 14.4136C18.3691 14.4645 18.3564 14.5062 18.3408 14.5062C18.3252 14.5062 18.3125 14.5478 18.3125 14.5988C18.3125 14.6497 18.2998 14.6914 18.2842 14.6914C18.2686 14.6914 18.2559 14.733 18.2559 14.784C18.2559 14.8349 18.2431 14.8765 18.2275 14.8765C18.212 14.8765 18.1992 14.9182 18.1992 14.9691C18.1992 15.0201 18.1865 15.0617 18.1709 15.0617C18.1553 15.0617 18.1426 15.1034 18.1426 15.1543C18.1426 15.2052 18.1298 15.2469 18.1143 15.2469C18.0987 15.2469 18.0859 15.3025 18.0859 15.3704C18.0859 15.4383 18.0732 15.4938 18.0576 15.4938C18.042 15.4938 18.0293 15.5494 18.0293 15.6173C18.0293 15.6852 18.0166 15.7407 18.001 15.7407C17.9854 15.7407 17.9727 15.8102 17.9727 15.8951C17.9727 15.9799 17.9599 16.0494 17.9443 16.0494C17.9288 16.0494 17.916 16.1188 17.916 16.2037C17.916 16.2886 17.9033 16.358 17.8877 16.358C17.8712 16.358 17.8594 16.4609 17.8594 16.6049C17.8594 16.749 17.8476 16.8519 17.8311 16.8519C17.8128 16.8519 17.8027 17.1914 17.8027 17.8086C17.8027 18.4259 17.8128 18.7654 17.8311 18.7654C17.8472 18.7654 17.8594 18.858 17.8594 18.9815C17.8594 19.1049 17.8715 19.1975 17.8877 19.1975C17.9033 19.1975 17.916 19.267 17.916 19.3519C17.916 19.4367 17.9288 19.5062 17.9443 19.5062C17.9599 19.5062 17.9727 19.5617 17.9727 19.6296C17.9727 19.6975 17.9854 19.7531 18.001 19.7531C18.0166 19.7531 18.0293 19.8086 18.0293 19.8765C18.0293 19.9444 18.042 20 18.0576 20C18.0732 20 18.0859 20.0556 18.0859 20.1235C18.0859 20.1914 18.0987 20.2469 18.1143 20.2469C18.1298 20.2469 18.1426 20.2886 18.1426 20.3395C18.1426 20.3904 18.1553 20.4321 18.1709 20.4321C18.1865 20.4321 18.1992 20.4738 18.1992 20.5247C18.1992 20.5756 18.212 20.6173 18.2275 20.6173C18.2431 20.6173 18.2559 20.6451 18.2559 20.679C18.2559 20.713 18.2686 20.7407 18.2842 20.7407C18.2998 20.7407 18.3125 20.7824 18.3125 20.8333C18.3125 20.8843 18.3252 20.9259 18.3408 20.9259C18.3564 20.9259 18.3691 20.9537 18.3691 20.9877C18.3691 21.0216 18.3819 21.0494 18.3975 21.0494C18.413 21.0494 18.4258 21.091 18.4258 21.142C18.4258 21.1929 18.4385 21.2346 18.4541 21.2346C18.4697 21.2346 18.4824 21.2623 18.4824 21.2963C18.4824 21.3302 18.4952 21.358 18.5107 21.358C18.5263 21.358 18.5391 21.3827 18.5391 21.4129C18.5391 21.4431 18.5646 21.4879 18.5957 21.5123C18.6269 21.5368 18.6523 21.5815 18.6523 21.6118C18.6523 21.6419 18.6651 21.6667 18.6807 21.6667C18.6962 21.6667 18.709 21.6944 18.709 21.7284C18.709 21.7623 18.7217 21.7901 18.7373 21.7901C18.7529 21.7901 18.7656 21.8179 18.7656 21.8519C18.7656 21.8858 18.7784 21.9136 18.7939 21.9136C18.8095 21.9136 18.8223 21.9358 18.8223 21.9629C18.8223 21.9901 18.8605 22.0512 18.9072 22.0988C18.954 22.1463 18.9922 22.2044 18.9922 22.2278C18.9922 22.2512 19.0177 22.2903 19.0488 22.3148C19.08 22.3393 19.1055 22.3785 19.1055 22.4019C19.1055 22.4252 19.1437 22.4833 19.1904 22.5309C19.2372 22.5784 19.2754 22.6328 19.2754 22.6516C19.2754 22.696 19.8597 23.3333 19.9003 23.3333C19.9173 23.3333 19.9802 23.3889 20.04 23.4568C20.0999 23.5247 20.1639 23.5802 20.1822 23.5802C20.2006 23.5802 20.2513 23.6219 20.2949 23.6728C20.3386 23.7238 20.3919 23.7654 20.4133 23.7654C20.4348 23.7654 20.4707 23.7932 20.4932 23.8272C20.5156 23.8611 20.5567 23.8889 20.5844 23.8889C20.6121 23.8889 20.6348 23.9028 20.6348 23.9198C20.6348 23.9367 20.6574 23.9506 20.6851 23.9506C20.7129 23.9506 20.7539 23.9784 20.7764 24.0123C20.7988 24.0463 20.8399 24.0741 20.8676 24.0741C20.8953 24.0741 20.918 24.088 20.918 24.1049C20.918 24.1219 20.9435 24.1358 20.9746 24.1358C21.0058 24.1358 21.0312 24.1497 21.0312 24.1667C21.0312 24.1836 21.0567 24.1975 21.0879 24.1975C21.119 24.1975 21.1445 24.2114 21.1445 24.2284C21.1445 24.2454 21.17 24.2593 21.2012 24.2593C21.2323 24.2593 21.2578 24.2731 21.2578 24.2901C21.2578 24.3071 21.296 24.321 21.3428 24.321C21.3895 24.321 21.4277 24.3349 21.4277 24.3519C21.4277 24.3688 21.4532 24.3827 21.4844 24.3827C21.5155 24.3827 21.541 24.3966 21.541 24.4136C21.541 24.4306 21.5792 24.4444 21.626 24.4444C21.6727 24.4444 21.7109 24.4583 21.7109 24.4753C21.7109 24.4923 21.7492 24.5062 21.7959 24.5062C21.8426 24.5062 21.8809 24.5201 21.8809 24.537C21.8809 24.554 21.9191 24.5679 21.9658 24.5679C22.0125 24.5679 22.0508 24.5818 22.0508 24.5988C22.0508 24.6157 22.089 24.6296 22.1357 24.6296C22.1825 24.6296 22.2207 24.6435 22.2207 24.6605C22.2207 24.6775 22.2717 24.6914 22.334 24.6914C22.3963 24.6914 22.4473 24.7052 22.4473 24.7222C22.4473 24.7392 22.4982 24.7531 22.5605 24.7531C22.6229 24.7531 22.6738 24.767 22.6738 24.784C22.6738 24.8009 22.7375 24.8148 22.8154 24.8148C22.8933 24.8148 22.957 24.8287 22.957 24.8457C22.957 24.8633 23.042 24.8765 23.1553 24.8765C23.2686 24.8765 23.3535 24.8898 23.3535 24.9074C23.3535 24.9259 23.4668 24.9383 23.6367 24.9383C23.8066 24.9383 23.9199 24.9506 23.9199 24.9691C23.9199 24.989 24.2314 25 24.7979 25C25.3643 25 25.6758 24.989 25.6758 24.9691C25.6758 24.9508 25.7796 24.9383 25.9307 24.9383C26.0817 24.9383 26.1855 24.9257 26.1855 24.9074C26.1855 24.8902 26.2611 24.8765 26.3555 24.8765C26.4499 24.8765 26.5254 24.8628 26.5254 24.8457C26.5254 24.8287 26.5891 24.8148 26.667 24.8148C26.7449 24.8148 26.8086 24.8009 26.8086 24.784C26.8086 24.767 26.8596 24.7531 26.9219 24.7531C26.9842 24.7531 27.0352 24.7392 27.0352 24.7222C27.0352 24.7052 27.0861 24.6914 27.1484 24.6914C27.2107 24.6914 27.2617 24.6775 27.2617 24.6605C27.2617 24.6435 27.3127 24.6296 27.375 24.6296C27.4373 24.6296 27.4883 24.6157 27.4883 24.5988C27.4883 24.5818 27.5265 24.5679 27.5732 24.5679C27.62 24.5679 27.6582 24.554 27.6582 24.537C27.6582 24.5201 27.6964 24.5062 27.7432 24.5062C27.7899 24.5062 27.8281 24.4923 27.8281 24.4753C27.8281 24.4583 27.8536 24.4444 27.8848 24.4444C27.9159 24.4444 27.9414 24.4306 27.9414 24.4136C27.9414 24.3966 27.9796 24.3827 28.0264 24.3827C28.0731 24.3827 28.1113 24.3688 28.1113 24.3519C28.1113 24.3349 28.1368 24.321 28.168 24.321C28.1991 24.321 28.2246 24.3071 28.2246 24.2901C28.2246 24.2731 28.2501 24.2593 28.2812 24.2593C28.3124 24.2593 28.3379 24.2454 28.3379 24.2284C28.3379 24.2114 28.3634 24.1975 28.3945 24.1975C28.4257 24.1975 28.4512 24.1836 28.4512 24.1667C28.4512 24.1497 28.4767 24.1358 28.5078 24.1358C28.539 24.1358 28.5645 24.1219 28.5645 24.1049C28.5645 24.088 28.5871 24.0741 28.6148 24.0741C28.6426 24.0741 28.6836 24.0463 28.7061 24.0123C28.7285 23.9784 28.7695 23.9506 28.7973 23.9506C28.825 23.9506 28.8477 23.9367 28.8477 23.9198C28.8477 23.9028 28.868 23.8889 28.8929 23.8889C28.9178 23.8889 28.9739 23.8472 29.0176 23.7963C29.0612 23.7454 29.1145 23.7037 29.136 23.7037C29.1574 23.7037 29.1934 23.6759 29.2158 23.642C29.2383 23.608 29.2731 23.5802 29.2932 23.5802C29.3377 23.5802 29.9238 22.9467 29.9238 22.8986C29.9238 22.8797 29.9621 22.8253 30.0088 22.7778C30.0555 22.7302 30.0938 22.6721 30.0938 22.6488C30.0938 22.6254 30.1192 22.5862 30.1504 22.5617C30.1815 22.5373 30.207 22.4956 30.207 22.4691C30.207 22.4427 30.2325 22.401 30.2637 22.3765C30.2948 22.3521 30.3203 22.3073 30.3203 22.2771C30.3203 22.2469 30.3331 22.2222 30.3486 22.2222C30.3642 22.2222 30.377 22.1944 30.377 22.1605C30.377 22.1265 30.3897 22.0988 30.4053 22.0988C30.4208 22.0988 30.4336 22.071 30.4336 22.037C30.4336 22.0031 30.4463 21.9753 30.4619 21.9753C30.4775 21.9753 30.4902 21.9336 30.4902 21.8827C30.4902 21.8318 30.503 21.7901 30.5186 21.7901C30.5341 21.7901 30.5469 21.7623 30.5469 21.7284C30.5469 21.6944 30.5596 21.6667 30.5752 21.6667C30.5908 21.6667 30.6035 21.6111 30.6035 21.5432C30.6035 21.4753 30.6163 21.4198 30.6318 21.4198C30.6474 21.4198 30.6602 21.3781 30.6602 21.3272C30.6602 21.2762 30.6729 21.2346 30.6885 21.2346C30.7041 21.2346 30.7168 21.1651 30.7168 21.0802C30.7168 20.9954 30.7295 20.9259 30.7451 20.9259C30.7609 20.9259 30.7734 20.8436 30.7734 20.7407C30.7734 20.6379 30.786 20.5556 30.8018 20.5556C30.8191 20.5556 30.8301 20.4115 30.8301 20.1852V19.8148H29.2441H27.6582V20C27.6582 20.1029 27.6456 20.1852 27.6299 20.1852C27.6143 20.1852 27.6016 20.2269 27.6016 20.2778C27.6016 20.3287 27.5888 20.3704 27.5732 20.3704C27.5577 20.3704 27.5449 20.412 27.5449 20.463C27.5449 20.5139 27.5322 20.5556 27.5166 20.5556C27.501 20.5556 27.4883 20.5803 27.4883 20.6105C27.4883 20.6407 27.4628 20.6854 27.4316 20.7099C27.4005 20.7344 27.375 20.7723 27.375 20.7943C27.375 20.8504 26.9036 21.358 26.8515 21.358C26.8279 21.358 26.8086 21.3719 26.8086 21.3889C26.8086 21.4059 26.7831 21.4198 26.752 21.4198C26.7208 21.4198 26.6953 21.4336 26.6953 21.4506C26.6953 21.4676 26.6698 21.4815 26.6387 21.4815C26.6075 21.4815 26.582 21.4954 26.582 21.5123C26.582 21.5293 26.5565 21.5432 26.5254 21.5432C26.4942 21.5432 26.4688 21.5571 26.4688 21.5741C26.4688 21.591 26.4433 21.6049 26.4121 21.6049C26.381 21.6049 26.3555 21.6188 26.3555 21.6358C26.3555 21.6528 26.3172 21.6667 26.2705 21.6667C26.2238 21.6667 26.1855 21.6806 26.1855 21.6975C26.1855 21.7145 26.1346 21.7284 26.0723 21.7284C26.01 21.7284 25.959 21.7423 25.959 21.7593C25.959 21.7762 25.8953 21.7901 25.8174 21.7901C25.7395 21.7901 25.6758 21.804 25.6758 21.821C25.6758 21.8393 25.5719 21.8519 25.4209 21.8519C25.2699 21.8519 25.166 21.8644 25.166 21.8827C25.166 21.9018 25.015 21.9136 24.7695 21.9136C24.5241 21.9136 24.373 21.9018 24.373 21.8827C24.373 21.8656 24.2975 21.8519 24.2031 21.8519C24.1087 21.8519 24.0332 21.8381 24.0332 21.821C24.0332 21.804 23.9695 21.7901 23.8916 21.7901C23.8137 21.7901 23.75 21.7762 23.75 21.7593C23.75 21.7423 23.699 21.7284 23.6367 21.7284C23.5744 21.7284 23.5234 21.7145 23.5234 21.6975C23.5234 21.6806 23.4979 21.6667 23.4668 21.6667C23.4356 21.6667 23.4102 21.6528 23.4102 21.6358C23.4102 21.6188 23.3719 21.6049 23.3252 21.6049C23.2785 21.6049 23.2402 21.591 23.2402 21.5741C23.2402 21.5571 23.2147 21.5432 23.1836 21.5432C23.1524 21.5432 23.127 21.5293 23.127 21.5123C23.127 21.4954 23.1015 21.4815 23.0703 21.4815C23.0392 21.4815 23.0137 21.4676 23.0137 21.4506C23.0137 21.4336 22.9933 21.4198 22.9684 21.4198C22.9435 21.4198 22.8874 21.3781 22.8438 21.3272C22.8001 21.2762 22.7502 21.2346 22.7329 21.2346C22.6886 21.2346 22.2207 20.7195 22.2207 20.6708C22.2207 20.6489 22.1952 20.6109 22.1641 20.5864C22.1329 20.5619 22.1074 20.5203 22.1074 20.4938C22.1074 20.4674 22.0819 20.4257 22.0508 20.4012C22.0196 20.3768 21.9941 20.332 21.9941 20.3018C21.9941 20.2716 21.9814 20.2469 21.9658 20.2469C21.9502 20.2469 21.9375 20.2191 21.9375 20.1852C21.9375 20.1512 21.9248 20.1235 21.9092 20.1235C21.8936 20.1235 21.8809 20.0818 21.8809 20.0309C21.8809 19.9799 21.8681 19.9383 21.8525 19.9383C21.837 19.9383 21.8242 19.8966 21.8242 19.8457C21.8242 19.7948 21.8115 19.7531 21.7959 19.7531C21.7803 19.7531 21.7676 19.6975 21.7676 19.6296C21.7676 19.5617 21.7548 19.5062 21.7393 19.5062C21.7237 19.5062 21.7109 19.4367 21.7109 19.3519C21.7109 19.267 21.6982 19.1975 21.6826 19.1975C21.6655 19.1975 21.6543 19.0638 21.6543 18.858V18.5185H26.2988H30.9434V18.3642C30.9434 18.2793 30.9561 18.2099 30.9717 18.2099C30.9898 18.2099 31 17.9218 31 17.4074C31 16.893 30.9898 16.6049 30.9717 16.6049C30.9549 16.6049 30.9434 16.4918 30.9434 16.3272C30.9434 16.1626 30.9318 16.0494 30.915 16.0494C30.8989 16.0494 30.8867 15.9568 30.8867 15.8333C30.8867 15.7099 30.8746 15.6173 30.8584 15.6173C30.8428 15.6173 30.8301 15.5478 30.8301 15.463C30.8301 15.3781 30.8173 15.3086 30.8018 15.3086C30.7862 15.3086 30.7734 15.2392 30.7734 15.1543C30.7734 15.0694 30.7607 15 30.7451 15C30.7295 15 30.7168 14.9444 30.7168 14.8765C30.7168 14.8086 30.7041 14.7531 30.6885 14.7531C30.6729 14.7531 30.6602 14.7114 30.6602 14.6605C30.6602 14.6096 30.6474 14.5679 30.6318 14.5679C30.6163 14.5679 30.6035 14.5123 30.6035 14.4444C30.6035 14.3765 30.5908 14.321 30.5752 14.321C30.5596 14.321 30.5469 14.2793 30.5469 14.2284C30.5469 14.1775 30.5341 14.1358 30.5186 14.1358C30.503 14.1358 30.4902 14.108 30.4902 14.0741C30.4902 14.0401 30.4775 14.0123 30.4619 14.0123C30.4463 14.0123 30.4336 13.9707 30.4336 13.9198C30.4336 13.8688 30.4208 13.8272 30.4053 13.8272C30.3897 13.8272 30.377 13.7994 30.377 13.7654C30.377 13.7315 30.3642 13.7037 30.3486 13.7037C30.3331 13.7037 30.3203 13.662 30.3203 13.6111C30.3203 13.5602 30.3076 13.5185 30.292 13.5185C30.2764 13.5185 30.2637 13.4907 30.2637 13.4568C30.2637 13.4228 30.2509 13.3951 30.2354 13.3951C30.2198 13.3951 30.207 13.3673 30.207 13.3333C30.207 13.2994 30.1943 13.2716 30.1787 13.2716C30.1631 13.2716 30.1504 13.2438 30.1504 13.2099C30.1504 13.1759 30.1376 13.1481 30.1221 13.1481C30.1065 13.1481 30.0938 13.1234 30.0938 13.0932C30.0938 13.063 30.0683 13.0183 30.0371 12.9938C30.006 12.9694 29.9805 12.9246 29.9805 12.8944C29.9805 12.8642 29.9677 12.8395 29.9521 12.8395C29.9366 12.8395 29.9238 12.8117 29.9238 12.7778C29.9238 12.7438 29.9111 12.716 29.8955 12.716C29.8799 12.716 29.8672 12.6939 29.8672 12.6667C29.8672 12.6396 29.829 12.5784 29.7822 12.5309C29.7355 12.4833 29.6973 12.4277 29.6973 12.4074C29.6973 12.3871 29.659 12.3315 29.6123 12.284C29.5656 12.2364 29.5273 12.1821 29.5273 12.1632C29.5273 12.1186 28.8295 11.358 28.7885 11.358C28.7712 11.358 28.7214 11.3164 28.6777 11.2654C28.6341 11.2145 28.5831 11.1728 28.5645 11.1728C28.5458 11.1728 28.4948 11.1312 28.4512 11.0802C28.4075 11.0293 28.3514 10.9877 28.3265 10.9877C28.3016 10.9877 28.2812 10.9738 28.2812 10.9568C28.2812 10.9398 28.2558 10.9259 28.2246 10.9259C28.1935 10.9259 28.168 10.912 28.168 10.8951C28.168 10.8781 28.1453 10.8642 28.1176 10.8642C28.0899 10.8642 28.0488 10.8364 28.0264 10.8025C28.0039 10.7685 27.9629 10.7407 27.9351 10.7407C27.9074 10.7407 27.8848 10.7269 27.8848 10.7099C27.8848 10.6929 27.8593 10.679 27.8281 10.679C27.797 10.679 27.7715 10.6651 27.7715 10.6481C27.7715 10.6312 27.7333 10.6173 27.6865 10.6173C27.6398 10.6173 27.6016 10.6034 27.6016 10.5864C27.6016 10.5694 27.5761 10.5556 27.5449 10.5556C27.5138 10.5556 27.4883 10.5417 27.4883 10.5247C27.4883 10.5077 27.45 10.4938 27.4033 10.4938C27.3566 10.4938 27.3184 10.4799 27.3184 10.463C27.3184 10.446 27.2929 10.4321 27.2617 10.4321C27.2306 10.4321 27.2051 10.4182 27.2051 10.4012C27.2051 10.3843 27.1668 10.3704 27.1201 10.3704C27.0734 10.3704 27.0352 10.3565 27.0352 10.3395C27.0352 10.3225 26.9842 10.3086 26.9219 10.3086C26.8596 10.3086 26.8086 10.2948 26.8086 10.2778C26.8086 10.2608 26.7704 10.2469 26.7236 10.2469C26.6769 10.2469 26.6387 10.233 26.6387 10.216C26.6387 10.1991 26.575 10.1852 26.4971 10.1852C26.4192 10.1852 26.3555 10.1713 26.3555 10.1543C26.3555 10.1373 26.2917 10.1235 26.2139 10.1235C26.136 10.1235 26.0723 10.1096 26.0723 10.0926C26.0723 10.0743 25.9684 10.0617 25.8174 10.0617C25.6664 10.0617 25.5625 10.0492 25.5625 10.0309C25.5625 10.0109 25.2415 10 24.6562 10C24.071 10 23.75 10.0109 23.75 10.0309ZM25.0527 12.8704C25.0527 12.888 25.1377 12.9012 25.251 12.9012C25.3643 12.9012 25.4492 12.9145 25.4492 12.9321C25.4492 12.9491 25.5129 12.963 25.5908 12.963C25.6687 12.963 25.7324 12.9769 25.7324 12.9938C25.7324 13.0108 25.7579 13.0247 25.7891 13.0247C25.8202 13.0247 25.8457 13.0386 25.8457 13.0556C25.8457 13.0725 25.8839 13.0864 25.9307 13.0864C25.9774 13.0864 26.0156 13.1003 26.0156 13.1173C26.0156 13.1343 26.0411 13.1481 26.0723 13.1481C26.1034 13.1481 26.1289 13.162 26.1289 13.179C26.1289 13.196 26.1544 13.2099 26.1855 13.2099C26.2167 13.2099 26.2422 13.2238 26.2422 13.2407C26.2422 13.2577 26.2626 13.2716 26.2875 13.2716C26.3124 13.2716 26.3685 13.3133 26.4121 13.3642C26.4558 13.4151 26.5058 13.4568 26.5232 13.4568C26.5646 13.4568 26.8652 13.7845 26.8652 13.8295C26.8652 13.8485 26.9035 13.9031 26.9502 13.9506C26.9969 13.9982 27.0352 14.0593 27.0352 14.0865C27.0352 14.1136 27.0479 14.1358 27.0635 14.1358C27.0791 14.1358 27.0918 14.1636 27.0918 14.1975C27.0918 14.2315 27.1045 14.2593 27.1201 14.2593C27.1357 14.2593 27.1484 14.287 27.1484 14.321C27.1484 14.3549 27.1612 14.3827 27.1768 14.3827C27.1923 14.3827 27.2051 14.4105 27.2051 14.4444C27.2051 14.4784 27.2178 14.5062 27.2334 14.5062C27.249 14.5062 27.2617 14.5478 27.2617 14.5988C27.2617 14.6497 27.2745 14.6914 27.29 14.6914C27.3056 14.6914 27.3184 14.733 27.3184 14.784C27.3184 14.8349 27.3311 14.8765 27.3467 14.8765C27.3623 14.8765 27.375 14.9182 27.375 14.9691C27.375 15.0201 27.3877 15.0617 27.4033 15.0617C27.4189 15.0617 27.4316 15.1312 27.4316 15.216C27.4316 15.3009 27.4444 15.3704 27.46 15.3704C27.4765 15.3704 27.4883 15.4732 27.4883 15.6173V15.8642H24.543C21.6165 15.8642 21.5977 15.8638 21.5977 15.8025C21.5977 15.7685 21.6104 15.7407 21.626 15.7407C21.6416 15.7407 21.6543 15.6852 21.6543 15.6173C21.6543 15.5494 21.667 15.4938 21.6826 15.4938C21.6982 15.4938 21.7109 15.4522 21.7109 15.4012C21.7109 15.3503 21.7237 15.3086 21.7393 15.3086C21.7548 15.3086 21.7676 15.267 21.7676 15.216C21.7676 15.1651 21.7803 15.1235 21.7959 15.1235C21.8115 15.1235 21.8242 15.0818 21.8242 15.0309C21.8242 14.9799 21.837 14.9383 21.8525 14.9383C21.8681 14.9383 21.8809 14.9105 21.8809 14.8765C21.8809 14.8426 21.8936 14.8148 21.9092 14.8148C21.9248 14.8148 21.9375 14.787 21.9375 14.7531C21.9375 14.7191 21.9502 14.6914 21.9658 14.6914C21.9814 14.6914 21.9941 14.6666 21.9941 14.6365C21.9941 14.6062 22.0196 14.5615 22.0508 14.537C22.0819 14.5126 22.1074 14.4678 22.1074 14.4376C22.1074 14.4074 22.1202 14.3827 22.1357 14.3827C22.1513 14.3827 22.1641 14.358 22.1641 14.3278C22.1641 14.2976 22.1896 14.2529 22.2207 14.2284C22.2519 14.2039 22.2773 14.166 22.2773 14.144C22.2773 14.0954 22.802 13.5185 22.8462 13.5185C22.8635 13.5185 22.9134 13.4769 22.957 13.4259C23.0007 13.375 23.0568 13.3333 23.0817 13.3333C23.1066 13.3333 23.127 13.3194 23.127 13.3025C23.127 13.2855 23.1524 13.2716 23.1836 13.2716C23.2147 13.2716 23.2402 13.2577 23.2402 13.2407C23.2402 13.2238 23.2657 13.2099 23.2969 13.2099C23.328 13.2099 23.3535 13.196 23.3535 13.179C23.3535 13.162 23.379 13.1481 23.4102 13.1481C23.4413 13.1481 23.4668 13.1343 23.4668 13.1173C23.4668 13.1003 23.505 13.0864 23.5518 13.0864C23.5985 13.0864 23.6367 13.0725 23.6367 13.0556C23.6367 13.0386 23.675 13.0247 23.7217 13.0247C23.7684 13.0247 23.8066 13.0108 23.8066 12.9938C23.8066 12.9769 23.8576 12.963 23.9199 12.963C23.9822 12.963 24.0332 12.9491 24.0332 12.9321C24.0332 12.9141 24.1276 12.9012 24.2598 12.9012C24.3919 12.9012 24.4863 12.8884 24.4863 12.8704C24.4863 12.8519 24.5996 12.8395 24.7695 12.8395C24.9395 12.8395 25.0527 12.8519 25.0527 12.8704ZM11.5723 15.8951C11.5723 15.912 11.6232 15.9259 11.6855 15.9259C11.7479 15.9259 11.7988 15.9398 11.7988 15.9568C11.7988 15.9738 11.8371 15.9877 11.8838 15.9877C11.9305 15.9877 11.9688 16.0015 11.9688 16.0185C11.9688 16.0355 11.9942 16.0494 12.0254 16.0494C12.0565 16.0494 12.082 16.0633 12.082 16.0802C12.082 16.0972 12.1075 16.1111 12.1387 16.1111C12.1698 16.1111 12.1953 16.125 12.1953 16.142C12.1953 16.159 12.218 16.1728 12.2457 16.1728C12.2734 16.1728 12.3145 16.2006 12.3369 16.2346C12.3594 16.2685 12.3943 16.2963 12.4146 16.2963C12.4626 16.2963 12.7617 16.6223 12.7617 16.6746C12.7617 16.6967 12.7872 16.7348 12.8184 16.7593C12.8495 16.7837 12.875 16.8254 12.875 16.8519C12.875 16.8783 12.9005 16.92 12.9316 16.9444C12.9649 16.9706 12.9883 17.0244 12.9883 17.0747C12.9883 17.1219 13.001 17.1605 13.0166 17.1605C13.0322 17.1605 13.0449 17.1883 13.0449 17.2222C13.0449 17.2562 13.0577 17.284 13.0732 17.284C13.0888 17.284 13.1016 17.3256 13.1016 17.3765C13.1016 17.4275 13.1143 17.4691 13.1299 17.4691C13.1455 17.4691 13.1582 17.5386 13.1582 17.6235C13.1582 17.7083 13.1709 17.7778 13.1865 17.7778C13.2033 17.7778 13.2148 17.891 13.2148 18.0556C13.2148 18.2202 13.2264 18.3333 13.2432 18.3333C13.26 18.3333 13.2715 18.4465 13.2715 18.6111C13.2715 18.7757 13.26 18.8889 13.2432 18.8889C13.2267 18.8889 13.2148 18.9918 13.2148 19.1358C13.2148 19.2798 13.203 19.3827 13.1865 19.3827C13.1709 19.3827 13.1582 19.4383 13.1582 19.5062C13.1582 19.5741 13.1455 19.6296 13.1299 19.6296C13.1143 19.6296 13.1016 19.6574 13.1016 19.6914C13.1016 19.7253 13.0888 19.7531 13.0732 19.7531C13.0577 19.7531 13.0449 19.7948 13.0449 19.8457C13.0449 19.8966 13.0322 19.9383 13.0166 19.9383C13.001 19.9383 12.9883 19.966 12.9883 20C12.9883 20.034 12.9755 20.0617 12.96 20.0617C12.9444 20.0617 12.9316 20.0839 12.9316 20.1111C12.9316 20.1382 12.8934 20.1994 12.8467 20.2469C12.8 20.2945 12.7617 20.3491 12.7617 20.3684C12.7617 20.4168 12.5737 20.6173 12.5282 20.6173C12.5077 20.6173 12.4727 20.6451 12.4502 20.679C12.4277 20.713 12.3867 20.7407 12.359 20.7407C12.3313 20.7407 12.3086 20.7546 12.3086 20.7716C12.3086 20.7886 12.2859 20.8025 12.2582 20.8025C12.2305 20.8025 12.1895 20.8302 12.167 20.8642C12.143 20.9004 12.0937 20.9259 12.0475 20.9259C12.0042 20.9259 11.9688 20.9398 11.9688 20.9568C11.9688 20.9738 11.9305 20.9877 11.8838 20.9877C11.8371 20.9877 11.7988 21.0015 11.7988 21.0185C11.7988 21.0357 11.7233 21.0494 11.6289 21.0494C11.5345 21.0494 11.459 21.0631 11.459 21.0802C11.459 21.1006 10.5527 21.1111 8.79688 21.1111H6.13477V18.4877V15.8642H8.85352C10.6471 15.8642 11.5723 15.8747 11.5723 15.8951Z" fill="black"/>
</svg>
