<svg width="32" height="32" viewBox="0 0 32 32" fill="none" xmlns="http://www.w3.org/2000/svg">
<path d="M27.546 9.30797C26.354 7.26397 24.7367 5.6453 22.6913 4.45464C20.6473 3.26397 18.4167 2.66797 15.9993 2.66797C13.582 2.66797 11.3513 3.26397 9.30602 4.45464C7.26202 5.6453 5.64335 7.26397 4.45268 9.30797C3.26202 11.352 2.66602 13.584 2.66602 16.0013C2.66602 18.4186 3.26068 20.6506 4.45268 22.6946C5.64468 24.74 7.26202 26.3573 9.30735 27.548C11.3513 28.7386 13.582 29.3346 15.9993 29.3346C18.4167 29.3346 20.6474 28.7386 22.6927 27.548C24.7367 26.3573 26.3554 24.74 27.5473 22.6946C28.738 20.6506 29.3327 18.4186 29.3327 16.0013C29.3327 13.584 28.738 11.352 27.546 9.30797ZM15.9993 4.8813C18.666 4.8813 21.0287 5.73464 23.0927 7.43997C21.866 9.0053 20.0447 10.2933 17.626 11.3066C16.29 8.8893 14.842 6.87064 13.278 5.2533C14.1873 5.0053 15.0913 4.8813 15.9993 4.8813ZM7.34602 9.06797C8.35135 7.8053 9.55402 6.81997 10.9607 6.10797C12.5767 7.7093 14.0607 9.70797 15.414 12.108C12.7473 12.908 9.92868 13.308 6.95935 13.308C6.19535 13.308 5.61802 13.2906 5.22602 13.2546C5.63535 11.7253 6.34202 10.3306 7.34602 9.06797ZM4.87935 16.0013C4.87935 15.9293 4.88335 15.8413 4.89268 15.7346C4.90202 15.628 4.90602 15.54 4.90602 15.468C5.24468 15.4866 5.76068 15.4946 6.45402 15.4946C10.0087 15.4946 13.3153 15.0053 16.3727 14.028C16.622 14.5253 16.8807 15.0853 17.146 15.708C15.386 16.0986 13.5807 17.0493 11.7313 18.5613C9.88202 20.0733 8.53268 21.664 7.67935 23.3346C5.81268 21.2186 4.87935 18.7746 4.87935 16.0013ZM15.9993 27.1213C13.474 27.1213 11.2073 26.3386 9.19802 24.776C9.99935 23.1933 11.23 21.68 12.8927 20.2413C14.554 18.8013 16.2033 17.904 17.8393 17.548C18.8687 20.392 19.5633 23.3333 19.9193 26.3746C18.6207 26.872 17.314 27.1213 15.9993 27.1213ZM25.4394 21.8413C24.5513 23.2626 23.4047 24.428 21.9993 25.336C21.6793 22.5626 21.066 19.86 20.1607 17.228C21.4034 17.14 22.514 17.0946 23.494 17.0946C24.5593 17.0946 25.742 17.14 27.0394 17.228C26.8607 18.8813 26.3274 20.4186 25.4394 21.8413ZM23.786 15.1746C22.2393 15.1746 20.8087 15.2373 19.4927 15.3613C19.154 14.4906 18.8527 13.7706 18.586 13.2013C21.3407 11.9933 23.2954 10.5266 24.4514 8.8013C26.0514 10.6866 26.9233 12.8373 27.0647 15.2546C25.982 15.2013 24.8887 15.1746 23.786 15.1746Z" fill="white"/>
</svg>
