<svg width="32" height="32" viewBox="0 0 32 32" fill="none" xmlns="http://www.w3.org/2000/svg">
<circle cx="16" cy="16" r="11.5" fill="black" stroke="black"/>
<mask id="mask0" mask-type="alpha" maskUnits="userSpaceOnUse" x="4" y="4" width="24" height="24">
<circle cx="16" cy="16" r="11.5" fill="black" stroke="black"/>
</mask>
<g mask="url(#mask0)">
<path d="M18.5451 28V23.0072C18.5724 22.6608 18.5255 22.3127 18.4077 21.9858C18.2898 21.6589 18.1036 21.3609 17.8615 21.1114C20.1451 20.8572 22.5451 19.9928 22.5451 16.027C22.5449 15.0129 22.1543 14.0377 21.4542 13.3032C21.7857 12.416 21.7623 11.4353 21.3887 10.5649C21.3887 10.5649 20.5306 10.3106 18.5451 11.6399C16.8782 11.1887 15.1211 11.1887 13.4542 11.6399C11.4687 10.3106 10.6106 10.5649 10.6106 10.5649C10.237 11.4353 10.2136 12.416 10.5451 13.3032C9.83974 14.0431 9.44875 15.0272 9.45419 16.0488C9.45419 19.9856 11.8542 20.8499 14.1378 21.1332C13.8986 21.3801 13.714 21.6746 13.5962 21.9975C13.4784 22.3204 13.4301 22.6644 13.4542 23.0072V28" fill="#F1F0F0"/>
<path d="M13.4542 23.6391C10.0317 24.9697 9.81783 22.349 8.36328 21.9858M18.5451 28V23.0072C18.5724 22.6608 18.5255 22.3127 18.4077 21.9858C18.2898 21.6589 18.1036 21.3609 17.8615 21.1114C20.1451 20.8572 22.5451 19.9928 22.5451 16.027C22.5449 15.0129 22.1543 14.0377 21.4542 13.3032C21.7857 12.416 21.7623 11.4353 21.3887 10.5649C21.3887 10.5649 20.5306 10.3106 18.5451 11.6399C16.8782 11.1887 15.1211 11.1887 13.4542 11.6399C11.4687 10.3106 10.6106 10.5649 10.6106 10.5649C10.237 11.4353 10.2136 12.416 10.5451 13.3032C9.83974 14.0431 9.44875 15.0272 9.45419 16.0488C9.45419 19.9856 11.8542 20.8499 14.1378 21.1332C13.8986 21.3801 13.714 21.6746 13.5962 21.9975C13.4784 22.3204 13.4301 22.6644 13.4542 23.0072V28H18.5451Z" stroke="#F1F0F0" stroke-linecap="round" stroke-linejoin="round"/>
</g>
</svg>
