<svg width="32" height="32" viewBox="0 0 32 32" fill="none" xmlns="http://www.w3.org/2000/svg">
<path fill-rule="evenodd" clip-rule="evenodd" d="M16.035 2.66797C8.68966 2.66797 2.73633 8.6213 2.73633 15.9666C2.73633 21.8413 6.54566 26.8266 11.831 28.5866C12.4963 28.7066 12.7363 28.2973 12.7363 27.9453C12.7363 27.6293 12.7257 26.792 12.7217 25.684C9.02166 26.4866 8.24033 23.9 8.24033 23.9C7.63766 22.364 6.76433 21.9546 6.76433 21.9546C5.55766 21.1293 6.85633 21.148 6.85633 21.148C8.19233 21.2413 8.89233 22.5186 8.89233 22.5186C10.079 24.5506 12.007 23.964 12.7617 23.624C12.883 22.764 13.2297 22.1773 13.6083 21.8453C10.6563 21.5106 7.55233 20.3693 7.55233 15.272C7.55233 13.8226 8.071 12.6333 8.91766 11.7053C8.783 11.368 8.323 10.0146 9.04966 8.1853C9.04966 8.1853 10.1657 7.82664 12.7057 9.54664C13.7697 9.25197 14.9043 9.10397 16.0337 9.09864C17.1657 9.10397 18.3017 9.25197 19.3617 9.54664C21.903 7.8253 23.0177 8.1853 23.0177 8.1853C23.7443 10.0146 23.2883 11.368 23.1497 11.7053C24.003 12.6333 24.515 13.8213 24.515 15.272C24.515 20.3826 21.4083 21.5053 18.4457 21.8346C18.919 22.2453 19.3457 23.056 19.3457 24.296C19.3457 26.0746 19.3297 27.5093 19.3297 27.9453C19.3297 28.3013 19.567 28.7146 20.2457 28.584C25.5283 26.8213 29.3337 21.84 29.3337 15.9666C29.3337 8.6213 23.3803 2.66797 16.035 2.66797Z" fill="white"/>
</svg>
