<svg width="32" height="32" viewBox="0 0 32 32" fill="none" xmlns="http://www.w3.org/2000/svg">
<path fill-rule="evenodd" clip-rule="evenodd" d="M6.4375 4.04688C6.4375 4.07266 6.35313 4.09375 6.25 4.09375C6.14687 4.09375 6.0625 4.11484 6.0625 4.14062C6.0625 4.16641 5.99922 4.1875 5.92188 4.1875C5.84453 4.1875 5.78125 4.20859 5.78125 4.23438C5.78125 4.26016 5.73906 4.28125 5.6875 4.28125C5.63594 4.28125 5.59375 4.30234 5.59375 4.32812C5.59375 4.35391 5.5562 4.375 5.51036 4.375C5.46447 4.375 5.39655 4.41719 5.35938 4.46875C5.3222 4.52031 5.26441 4.5625 5.23098 4.5625C5.15172 4.5625 4.5625 5.15172 4.5625 5.23098C4.5625 5.26441 4.52031 5.3222 4.46875 5.35938C4.41719 5.39655 4.375 5.46447 4.375 5.51036C4.375 5.5562 4.35391 5.59375 4.32812 5.59375C4.30234 5.59375 4.28125 5.63594 4.28125 5.6875C4.28125 5.73906 4.26016 5.78125 4.23438 5.78125C4.20859 5.78125 4.1875 5.84453 4.1875 5.92188C4.1875 5.99922 4.16641 6.0625 4.14062 6.0625C4.11484 6.0625 4.09375 6.14687 4.09375 6.25C4.09375 6.35313 4.07266 6.4375 4.04688 6.4375C4.01847 6.4375 4 6.64061 4 6.95312C4 7.26564 4.01847 7.46875 4.04688 7.46875C4.07266 7.46875 4.09375 7.55312 4.09375 7.65625C4.09375 7.75938 4.11484 7.84375 4.14062 7.84375C4.16641 7.84375 4.1875 7.90703 4.1875 7.98438C4.1875 8.06172 4.20859 8.125 4.23438 8.125C4.26016 8.125 4.28125 8.16719 4.28125 8.21875C4.28125 8.27031 4.30234 8.3125 4.32812 8.3125C4.35391 8.3125 4.375 8.35005 4.375 8.39589C4.375 8.44178 4.41719 8.5097 4.46875 8.54688C4.52031 8.58405 4.5625 8.64184 4.5625 8.67527C4.5625 8.75453 5.15172 9.34375 5.23098 9.34375C5.26441 9.34375 5.3222 9.38594 5.35938 9.4375C5.39655 9.48906 5.46447 9.53125 5.51036 9.53125C5.5562 9.53125 5.59375 9.55234 5.59375 9.57812C5.59375 9.60391 5.63594 9.625 5.6875 9.625C5.73906 9.625 5.78125 9.64609 5.78125 9.67188C5.78125 9.69766 5.84453 9.71875 5.92188 9.71875C5.99922 9.71875 6.0625 9.73984 6.0625 9.76562C6.0625 9.79141 6.14687 9.8125 6.25 9.8125C6.35313 9.8125 6.4375 9.83359 6.4375 9.85938C6.4375 9.88778 6.64061 9.90625 6.95312 9.90625C7.26564 9.90625 7.46875 9.88778 7.46875 9.85938C7.46875 9.83359 7.55312 9.8125 7.65625 9.8125C7.75938 9.8125 7.84375 9.79141 7.84375 9.76562C7.84375 9.73984 7.88594 9.71875 7.9375 9.71875C7.98906 9.71875 8.03125 9.69766 8.03125 9.67188C8.03125 9.64609 8.08989 9.625 8.16152 9.625C8.23802 9.625 8.31967 9.58628 8.35938 9.53125C8.39655 9.47969 8.45603 9.4375 8.49156 9.4375C8.52705 9.4375 8.61527 9.37422 8.6875 9.29688C8.75973 9.21953 8.84298 9.15625 8.87252 9.15625C8.94208 9.15625 9.15625 8.94208 9.15625 8.87252C9.15625 8.84298 9.21953 8.75973 9.29688 8.6875C9.37422 8.61527 9.4375 8.52241 9.4375 8.4812C9.4375 8.43995 9.45859 8.40625 9.48438 8.40625C9.51016 8.40625 9.53125 8.36406 9.53125 8.3125C9.53125 8.26094 9.55234 8.21875 9.57812 8.21875C9.60391 8.21875 9.625 8.17656 9.625 8.125C9.625 8.07344 9.64609 8.03125 9.67188 8.03125C9.69766 8.03125 9.71875 7.94688 9.71875 7.84375C9.71875 7.74062 9.73984 7.65625 9.76562 7.65625C9.79478 7.65625 9.8125 7.39061 9.8125 6.95312C9.8125 6.51564 9.79478 6.25 9.76562 6.25C9.73984 6.25 9.71875 6.16563 9.71875 6.0625C9.71875 5.95938 9.69766 5.875 9.67188 5.875C9.64609 5.875 9.625 5.83281 9.625 5.78125C9.625 5.72969 9.60391 5.6875 9.57812 5.6875C9.55234 5.6875 9.53125 5.64531 9.53125 5.59375C9.53125 5.54219 9.51016 5.5 9.48438 5.5C9.45859 5.5 9.4375 5.4663 9.4375 5.42505C9.4375 5.38384 9.37422 5.29098 9.29688 5.21875C9.21953 5.14652 9.15625 5.06327 9.15625 5.03373C9.15625 4.96417 8.94208 4.75 8.87252 4.75C8.84298 4.75 8.75973 4.68672 8.6875 4.60938C8.61527 4.53203 8.52705 4.46875 8.49156 4.46875C8.45603 4.46875 8.39655 4.42656 8.35938 4.375C8.31967 4.31997 8.23802 4.28125 8.16152 4.28125C8.08989 4.28125 8.03125 4.26016 8.03125 4.23438C8.03125 4.20859 7.98906 4.1875 7.9375 4.1875C7.88594 4.1875 7.84375 4.16641 7.84375 4.14062C7.84375 4.11484 7.75938 4.09375 7.65625 4.09375C7.55312 4.09375 7.46875 4.07266 7.46875 4.04688C7.46875 4.01847 7.26564 4 6.95312 4C6.64061 4 6.4375 4.01847 6.4375 4.04688ZM21.4375 11.5469C21.4375 11.5729 21.3125 11.5938 21.1562 11.5938C21 11.5938 20.875 11.6146 20.875 11.6406C20.875 11.6664 20.7906 11.6875 20.6875 11.6875C20.5844 11.6875 20.5 11.7086 20.5 11.7344C20.5 11.7602 20.4156 11.7812 20.3125 11.7812C20.2094 11.7812 20.125 11.8023 20.125 11.8281C20.125 11.8539 20.0828 11.875 20.0312 11.875C19.9797 11.875 19.9375 11.8961 19.9375 11.9219C19.9375 11.9477 19.8742 11.9688 19.7969 11.9688C19.7195 11.9688 19.6562 11.9898 19.6562 12.0156C19.6562 12.0414 19.6141 12.0625 19.5625 12.0625C19.5109 12.0625 19.4688 12.0836 19.4688 12.1094C19.4688 12.1352 19.4312 12.1562 19.3854 12.1562C19.3395 12.1562 19.2715 12.1984 19.2344 12.25C19.1972 12.3016 19.1293 12.3438 19.0834 12.3438C19.0375 12.3438 19 12.3648 19 12.3906C19 12.4164 18.9663 12.4375 18.925 12.4375C18.8838 12.4375 18.791 12.5008 18.7188 12.5781C18.6465 12.6555 18.564 12.7188 18.5354 12.7188C18.4683 12.7188 17.4062 13.7796 17.4062 13.8466C17.4062 13.8997 17.2917 14.0312 17.2455 14.0312C17.2308 14.0312 17.2188 13.6727 17.2188 13.2344V12.4375H14.8281H12.4375V20.2188V28H14.8281H17.2188V23.3594C17.2188 20.2969 17.2347 18.7188 17.2656 18.7188C17.2914 18.7188 17.3125 18.6133 17.3125 18.4844C17.3125 18.3555 17.3336 18.25 17.3594 18.25C17.3852 18.25 17.4062 18.1867 17.4062 18.1094C17.4062 18.032 17.4273 17.9688 17.4531 17.9688C17.4789 17.9688 17.5 17.9266 17.5 17.875C17.5 17.8234 17.5211 17.7812 17.5469 17.7812C17.5727 17.7812 17.5938 17.7226 17.5938 17.651C17.5938 17.5745 17.6325 17.4928 17.6875 17.4531C17.7391 17.416 17.7812 17.3565 17.7812 17.3209C17.7812 17.2855 17.8445 17.1972 17.9219 17.125C17.9992 17.0528 18.0625 16.969 18.0625 16.9388C18.0625 16.868 18.1805 16.75 18.2513 16.75C18.2815 16.75 18.3653 16.6867 18.4375 16.6094C18.5097 16.532 18.6026 16.4688 18.6438 16.4688C18.685 16.4688 18.7188 16.4477 18.7188 16.4219C18.7188 16.3961 18.7609 16.375 18.8125 16.375C18.8641 16.375 18.9062 16.3539 18.9062 16.3281C18.9062 16.3023 18.9484 16.2812 19 16.2812C19.0516 16.2812 19.0938 16.2602 19.0938 16.2344C19.0938 16.2086 19.157 16.1875 19.2344 16.1875C19.3117 16.1875 19.375 16.1664 19.375 16.1406C19.375 16.1148 19.4805 16.0938 19.6094 16.0938C19.7383 16.0938 19.8438 16.0727 19.8438 16.0469C19.8438 16.0185 20.0469 16 20.3594 16C20.6719 16 20.875 16.0185 20.875 16.0469C20.875 16.0727 20.9594 16.0938 21.0625 16.0938C21.1656 16.0938 21.25 16.1148 21.25 16.1406C21.25 16.1664 21.3133 16.1875 21.3906 16.1875C21.468 16.1875 21.5312 16.2086 21.5312 16.2344C21.5312 16.2602 21.5734 16.2812 21.625 16.2812C21.6766 16.2812 21.7188 16.3023 21.7188 16.3281C21.7188 16.3539 21.7563 16.375 21.8021 16.375C21.848 16.375 21.916 16.4172 21.9531 16.4688C21.9903 16.5203 22.0487 16.5625 22.0828 16.5625C22.1589 16.5625 22.375 16.7724 22.375 16.8462C22.375 16.8758 22.4383 16.959 22.5156 17.0312C22.593 17.1035 22.6562 17.1963 22.6562 17.2375C22.6562 17.2788 22.6773 17.3125 22.7031 17.3125C22.7289 17.3125 22.75 17.3547 22.75 17.4062C22.75 17.4578 22.7711 17.5 22.7969 17.5C22.8227 17.5 22.8438 17.5422 22.8438 17.5938C22.8438 17.6453 22.8648 17.6875 22.8906 17.6875C22.9164 17.6875 22.9375 17.7508 22.9375 17.8281C22.9375 17.9055 22.9586 17.9688 22.9844 17.9688C23.0102 17.9688 23.0312 18.0531 23.0312 18.1562C23.0312 18.2594 23.0523 18.3438 23.0781 18.3438C23.1049 18.3438 23.125 18.4844 23.125 18.6719C23.125 18.8594 23.1451 19 23.1719 19C23.2028 19 23.2188 20.5313 23.2188 23.5V28H25.6094H28V22.4688C28 18.8125 27.9841 16.9375 27.9531 16.9375C27.9258 16.9375 27.9062 16.7813 27.9062 16.5625C27.9062 16.3437 27.8867 16.1875 27.8594 16.1875C27.8336 16.1875 27.8125 16.1031 27.8125 16C27.8125 15.8969 27.7914 15.8125 27.7656 15.8125C27.7398 15.8125 27.7188 15.7281 27.7188 15.625C27.7188 15.5219 27.6977 15.4375 27.6719 15.4375C27.6461 15.4375 27.625 15.3742 27.625 15.2969C27.625 15.2195 27.6039 15.1562 27.5781 15.1562C27.5523 15.1562 27.5312 15.093 27.5312 15.0156C27.5312 14.9383 27.5102 14.875 27.4844 14.875C27.4586 14.875 27.4375 14.8328 27.4375 14.7812C27.4375 14.7297 27.4164 14.6875 27.3906 14.6875C27.3648 14.6875 27.3438 14.6453 27.3438 14.5938C27.3438 14.5422 27.3227 14.5 27.2969 14.5C27.2711 14.5 27.25 14.4578 27.25 14.4062C27.25 14.3547 27.2289 14.3125 27.2031 14.3125C27.1773 14.3125 27.1562 14.2703 27.1562 14.2188C27.1562 14.1672 27.1352 14.125 27.1094 14.125C27.0836 14.125 27.0625 14.0875 27.0625 14.0416C27.0625 13.9957 27.0203 13.9278 26.9688 13.8906C26.9172 13.8535 26.875 13.794 26.875 13.7584C26.875 13.723 26.8117 13.6347 26.7344 13.5625C26.657 13.4903 26.5938 13.4075 26.5938 13.3786C26.5938 13.3102 26.0961 12.8125 26.0276 12.8125C25.9988 12.8125 25.916 12.7492 25.8438 12.6719C25.7715 12.5945 25.6833 12.5312 25.6478 12.5312C25.6123 12.5312 25.5528 12.4891 25.5156 12.4375C25.4785 12.3859 25.4105 12.3438 25.3646 12.3438C25.3188 12.3438 25.2812 12.3227 25.2812 12.2969C25.2812 12.2711 25.2391 12.25 25.1875 12.25C25.1359 12.25 25.0938 12.2289 25.0938 12.2031C25.0938 12.1773 25.0516 12.1562 25 12.1562C24.9484 12.1562 24.9062 12.1352 24.9062 12.1094C24.9062 12.0836 24.8641 12.0625 24.8125 12.0625C24.7609 12.0625 24.7188 12.0414 24.7188 12.0156C24.7188 11.9898 24.6766 11.9688 24.625 11.9688C24.5734 11.9688 24.5312 11.9477 24.5312 11.9219C24.5312 11.8961 24.468 11.875 24.3906 11.875C24.3133 11.875 24.25 11.8539 24.25 11.8281C24.25 11.8023 24.1656 11.7812 24.0625 11.7812C23.9594 11.7812 23.875 11.7602 23.875 11.7344C23.875 11.7086 23.7906 11.6875 23.6875 11.6875C23.5844 11.6875 23.5 11.6664 23.5 11.6406C23.5 11.6139 23.3594 11.5938 23.1719 11.5938C22.9844 11.5938 22.8438 11.5736 22.8438 11.5469C22.8438 11.5177 22.5781 11.5 22.1406 11.5C21.7031 11.5 21.4375 11.5177 21.4375 11.5469ZM4 20.2188V28H7H10V20.2188V12.4375H7H4V20.2188Z" fill="black"/>
</svg>
