<svg width="32" height="32" viewBox="0 0 32 32" fill="none" xmlns="http://www.w3.org/2000/svg">
<path d="M26.6667 4H5.33333C4.596 4 4 4.59733 4 5.33333V26.6667C4 27.4027 4.596 28 5.33333 28H26.6667C27.404 28 28 27.4027 28 26.6667V5.33333C28 4.59733 27.404 4 26.6667 4ZM11.1187 24.4493H7.556V12.996H11.1187V24.4493ZM9.33733 11.432C8.196 11.432 7.27333 10.5067 7.27333 9.368C7.27333 8.22933 8.19467 7.304 9.33733 7.304C10.476 7.304 11.4013 8.228 11.4013 9.368C11.4013 10.508 10.476 11.432 9.33733 11.432ZM24.4507 24.4493H20.892V18.88C20.892 17.552 20.868 15.844 19.0413 15.844C17.188 15.844 16.9067 17.292 16.9067 18.7867V24.4507H13.3507V12.9973H16.764V14.5627H16.8133C17.2867 13.6627 18.4493 12.7133 20.1787 12.7133C23.784 12.7133 24.4493 15.084 24.4493 18.1693L24.4507 24.4493Z" fill="white"/>
</svg>
