<svg width="32" height="32" viewBox="0 0 32 32" fill="none" xmlns="http://www.w3.org/2000/svg">
<path fill-rule="evenodd" clip-rule="evenodd" d="M13.4658 4.78117C14.292 4.51963 14.792 4.41735 16.2152 4.21839C16.8229 4.13341 19.1443 4.25489 19.901 4.41115C22.1171 4.86895 24.16 5.92852 25.8198 7.48117L26.4616 8.08154L24.7025 9.89534C23.7349 10.8929 22.8917 11.7206 22.8286 11.7348C22.7654 11.7489 22.4558 11.5389 22.1402 11.2679C21.347 10.5868 20.5535 10.1238 19.6135 9.79366C18.886 9.53822 18.6897 9.51293 17.415 9.51143C15.8288 9.50943 15.0249 9.69339 13.9049 10.3145C10.8913 11.9862 9.82305 16.108 11.5491 19.4043C12.252 20.7467 13.5141 21.8262 15.0676 22.4139C15.768 22.6788 15.9133 22.697 17.365 22.7017C18.8033 22.7063 18.9673 22.6874 19.648 22.4389C20.6096 22.0876 21.3383 21.6409 22.1326 20.9157L22.7803 20.3244L24.6444 22.1884L26.5085 24.0525L26.0608 24.511C24.5447 26.064 22.3818 27.2337 20.0144 27.7807C18.8201 28.0567 16.1157 28.0763 14.9388 27.8176C9.43544 26.6075 5.89342 22.4306 5.5179 16.708C5.30215 13.4198 6.45309 10.1146 8.63401 7.75891C9.81205 6.48639 11.6426 5.35824 13.4658 4.78117ZM17.2401 19.887C19.3659 19.887 21.0892 18.1637 21.0892 16.0379C21.0892 13.9121 19.3659 12.1887 17.2401 12.1887C15.1142 12.1887 13.3909 13.9121 13.3909 16.0379C13.3909 18.1637 15.1142 19.887 17.2401 19.887Z" fill="black"/>
</svg>
