<svg width="32" height="32" viewBox="0 0 32 32" fill="none" xmlns="http://www.w3.org/2000/svg">
<circle cx="17" cy="17" r="13" fill="white"/>
<path d="M27 11.8269C26.3214 12.1154 25.5459 12.3077 24.7704 12.4038C25.5459 11.9231 26.2245 11.1538 26.5153 10.2885C25.7398 10.7692 24.9643 11.0577 23.9949 11.25C23.3163 10.4808 22.25 10 21.1837 10C19.051 10 17.3061 11.7308 17.3061 13.8462C17.3061 14.1346 17.3061 14.4231 17.4031 14.7115C14.2041 14.5192 11.2959 12.9808 9.35714 10.6731C9.06632 11.25 8.87244 11.9231 8.87244 12.5961C8.87244 13.9423 9.55102 15.0962 10.6173 15.7692C9.93877 15.7692 9.35714 15.5769 8.87244 15.2885C8.87244 17.1154 10.2296 18.75 11.9745 19.0385C11.6837 19.1346 11.2959 19.1346 10.9082 19.1346C10.6173 19.1346 10.4235 19.1346 10.1327 19.0385C10.6173 20.5769 12.0714 21.7308 13.8163 21.7308C12.4592 22.7885 10.8112 23.3654 8.96939 23.3654C8.67857 23.3654 8.38776 23.3654 8 23.2692C9.7449 24.3269 11.7806 25 14.0102 25C21.1837 25 25.0612 19.1346 25.0612 14.0385V13.5577C25.8367 13.2692 26.5153 12.5961 27 11.8269Z" fill="#1A1A1A"/>
</svg>
