<svg width="32" height="32" viewBox="0 0 32 32" fill="none" xmlns="http://www.w3.org/2000/svg">
<path fill-rule="evenodd" clip-rule="evenodd" d="M26.098 18.4452C27.0268 19.4753 28.0071 20.4445 28.8401 21.5785C29.2081 22.0824 29.5565 22.6024 29.823 23.1873C30.2007 24.0186 29.8586 24.9334 29.2024 24.9831L25.1233 24.981C24.0712 25.0802 23.2319 24.599 22.5262 23.7819C21.9615 23.1284 21.4385 22.4329 20.8954 21.7574C20.6728 21.4813 20.4398 21.2215 20.1614 21.0162C19.6045 20.6056 19.1212 20.7313 18.803 21.391C18.4789 22.062 18.4053 22.8051 18.3735 23.5529C18.3298 24.6441 18.0395 24.9309 17.0746 24.9809C15.0126 25.0913 13.0557 24.737 11.2377 23.5553C9.63497 22.5136 8.3921 21.043 7.31032 19.3781C5.20406 16.1363 3.59109 12.574 2.14141 8.91193C1.8151 8.08686 2.05374 7.64396 2.85512 7.62829C4.18584 7.59892 5.51639 7.60101 6.84868 7.6262C7.38952 7.63518 7.74757 7.98758 7.95641 8.568C8.67637 10.579 9.55733 12.4923 10.6631 14.2657C10.9576 14.7379 11.2579 15.21 11.6855 15.5424C12.1585 15.9103 12.5187 15.7884 12.7412 15.1898C12.8824 14.8102 12.9443 14.4014 12.9761 13.9949C13.0815 12.5963 13.0954 11.2001 12.9105 9.80639C12.797 8.93659 12.3657 8.37351 11.6017 8.20892C11.2118 8.125 11.2698 7.9602 11.4586 7.7074C11.7865 7.2714 12.0949 7 12.7096 7H17.3196C18.0454 7.16271 18.2065 7.53308 18.3059 8.36265L18.3099 14.1797C18.3019 14.5009 18.4511 15.4539 18.9603 15.6664C19.3678 15.8177 19.6364 15.4474 19.881 15.1538C20.9847 13.8231 21.7725 12.2503 22.4763 10.6218C22.7886 9.90577 23.0571 9.16211 23.3174 8.41908C23.5102 7.86771 23.8128 7.59641 24.3595 7.60843L28.7964 7.61292C28.928 7.61292 29.0611 7.61512 29.1885 7.63989C29.9362 7.78463 30.141 8.14998 29.9101 8.97933C29.5463 10.2805 28.8384 11.3649 28.1462 12.4542C27.4063 13.6173 26.6149 14.7405 25.8812 15.9104C25.207 16.9788 25.2605 17.5173 26.098 18.4452Z" fill="black"/>
</svg>
