<svg width="72" height="72" viewBox="0 0 72 72" fill="none" xmlns="http://www.w3.org/2000/svg">
<rect x="13" y="13" width="46" height="46" stroke="#1A1A1A" stroke-width="2"/>
<line x1="30" y1="14" x2="30" y2="6" stroke="#1A1A1A" stroke-width="2"/>
<line x1="36" y1="14" x2="36" y2="6" stroke="#1A1A1A" stroke-width="2"/>
<line x1="42" y1="14" x2="42" y2="6" stroke="#1A1A1A" stroke-width="2"/>
<line x1="30" y1="66" x2="30" y2="58" stroke="#1A1A1A" stroke-width="2"/>
<line x1="36" y1="66" x2="36" y2="58" stroke="#1A1A1A" stroke-width="2"/>
<line x1="42" y1="66" x2="42" y2="58" stroke="#1A1A1A" stroke-width="2"/>
<line x1="66" y1="42" x2="58" y2="42" stroke="#1A1A1A" stroke-width="2"/>
<line x1="66" y1="36" x2="58" y2="36" stroke="#1A1A1A" stroke-width="2"/>
<line x1="66" y1="30" x2="58" y2="30" stroke="#1A1A1A" stroke-width="2"/>
<line x1="14" y1="42" x2="6" y2="42" stroke="#1A1A1A" stroke-width="2"/>
<line x1="14" y1="36" x2="6" y2="36" stroke="#1A1A1A" stroke-width="2"/>
<line x1="14" y1="30" x2="6" y2="30" stroke="#1A1A1A" stroke-width="2"/>
<rect x="26" y="26" width="7" height="7" stroke="#1A1A1A" stroke-width="2"/>
<rect x="26" y="39" width="7" height="7" stroke="#1A1A1A" stroke-width="2"/>
<rect x="39" y="26" width="7" height="7" stroke="#1A1A1A" stroke-width="2"/>
<rect x="39" y="39" width="7" height="7" stroke="#1A1A1A" stroke-width="2"/>
</svg>
