<svg width="110" height="110" viewBox="0 0 110 110" fill="none" xmlns="http://www.w3.org/2000/svg">
<circle cx="55" cy="55" r="55" fill="#F4BF01"/>
<path d="M29.7267 29.3822L30.6456 28.7756C30.8294 29.0486 31.0745 29.3064 31.3502 29.5338C31.6412 29.7613 31.9934 29.9584 32.407 30.1252C32.8205 30.292 33.3106 30.3375 33.8773 30.2466C34.444 30.1556 35.0107 29.9129 35.608 29.5187C36.1287 29.1699 36.5269 28.806 36.8179 28.4117C37.1089 28.0174 37.2927 27.6383 37.354 27.3047C37.4152 26.956 37.4152 26.6527 37.354 26.3646C37.2927 26.0916 37.2008 25.849 37.063 25.6367C36.8179 25.2576 36.4963 25.0453 36.1134 24.9695C35.7305 24.8937 35.317 24.9392 34.8728 25.0908C34.4287 25.2424 33.9692 25.4396 33.4791 25.6822C32.989 25.9248 32.4988 26.1523 31.9934 26.3797C31.488 26.6072 30.9979 26.774 30.5231 26.8801C30.0483 26.9863 29.5888 26.956 29.1447 26.7892C28.7005 26.6224 28.3176 26.3039 27.996 25.8338C27.4752 25.0605 27.3221 24.1961 27.5671 23.256C27.8122 22.3158 28.4401 21.5121 29.4357 20.8449C30.0789 20.4203 30.6916 20.1473 31.2889 20.0109C31.8862 19.8744 32.4223 19.8895 32.9124 20.026C33.4025 20.1625 33.8313 20.39 34.2142 20.6781C34.5971 20.9662 34.9341 21.3453 35.2404 21.785L34.3214 22.3916C34.1683 22.1793 34.0151 21.9822 33.8466 21.785C33.6782 21.6031 33.4484 21.4211 33.1727 21.2695C32.8971 21.1027 32.6061 20.9965 32.2997 20.951C31.9934 20.9055 31.6412 20.9207 31.2429 21.0268C30.8447 21.133 30.4159 21.315 29.987 21.6031C29.2213 22.1035 28.7618 22.7101 28.5933 23.4228C28.4248 24.1355 28.4861 24.6965 28.7771 25.1363C29.0221 25.4851 29.3285 25.6974 29.696 25.758C30.0789 25.8187 30.4772 25.7732 30.9213 25.6215C31.3655 25.4699 31.825 25.2728 32.3151 25.0301C32.8052 24.7875 33.3106 24.5601 33.816 24.3478C34.3214 24.1355 34.8269 23.9687 35.3017 23.8777C35.7764 23.7715 36.2359 23.8019 36.6801 23.9687C37.1242 24.1355 37.5071 24.4539 37.8288 24.9392C38.3801 25.758 38.5333 26.6527 38.2729 27.6383C38.0279 28.624 37.308 29.5035 36.1287 30.292C35.4395 30.747 34.7656 31.0351 34.107 31.1867C33.4331 31.3232 32.8358 31.3232 32.2844 31.1867C31.7331 31.0351 31.2429 30.8076 30.8141 30.5043C30.3853 30.2011 30.0177 29.822 29.7267 29.3822Z" fill="black"/>
<path d="M39.4165 19.5873L40.8255 23.8939C41.0859 24.6824 41.4688 25.2131 41.9742 25.4861C42.4797 25.759 43.0617 25.8045 43.7049 25.5922C44.4248 25.3648 44.9455 24.9098 45.2671 24.2426C45.5888 23.5754 45.5888 22.7566 45.2825 21.8012L44.0572 18.086L45.114 17.7524L47.5033 25.0312L46.5996 25.3193L46.0942 23.7574L45.941 23.8029C45.8185 24.4853 45.6041 25.0615 45.3131 25.5164C45.0221 25.9713 44.532 26.3049 43.8581 26.5324C41.8517 27.1693 40.4886 26.3656 39.7381 24.0758L38.375 19.9209L39.4165 19.5873Z" fill="black"/>
<path d="M49.3943 17.1156L49.5321 18.7533L49.6853 18.7382C49.8078 18.1771 50.0375 17.707 50.3898 17.2976C50.7421 16.8882 51.1556 16.6607 51.6304 16.6152C52.2277 16.5697 52.7025 16.7365 53.0701 17.1308C53.4377 17.525 53.6521 18.1316 53.7287 18.9353L53.7746 19.4812L52.6719 19.5722L52.6412 19.1779C52.5953 18.6927 52.4728 18.2832 52.2584 17.9345C52.0439 17.6009 51.7223 17.4492 51.2934 17.4796C50.8187 17.525 50.4358 17.8132 50.1448 18.3439C49.8538 18.8746 49.7465 19.6025 49.8231 20.5123L50.1907 24.7128L49.088 24.8038L48.4141 17.1763L49.3943 17.1156Z" fill="black"/>
<path d="M57.3404 17.7817L55.6094 17.6301L55.686 16.7809L57.417 16.9325L57.6315 14.4456C57.6774 13.8542 57.8153 13.46 58.0144 13.2477C58.2289 13.0354 58.6578 12.9596 59.3319 13.0202L60.7412 13.1415L60.6646 13.9907L59.2553 13.8694C58.9336 13.8391 58.7651 13.9907 58.7497 14.294L58.52 17.0235L60.4042 17.1752L60.3276 18.0243L58.4434 17.8727L57.8612 24.6358L56.7583 24.5448L57.3404 17.7817Z" fill="black"/>
<path d="M70.5624 15.6437L66.5182 26.6528L65.4766 26.2737L69.5207 15.2646L70.5624 15.6437Z" fill="black"/>
<path d="M72.6244 20.9518L69.3315 27.8666L68.3359 27.3965L71.6289 20.4817L72.6244 20.9518ZM72.0271 19.6325L72.6703 18.2981L73.6659 18.7682L73.0226 20.1026L72.0271 19.6325Z" fill="black"/>
<path d="M81.1235 26.2124L76.59 26.6824L76.4981 32.3386L75.4107 31.5956L75.5332 26.7886L73.4043 27.0161L71.888 29.1845L70.9844 28.5628L77.6927 18.9033L78.5964 19.525L74.0322 26.091L80.0361 25.439L81.1235 26.2124Z" fill="black"/>
<path d="M80.0962 35.2503C80.617 35.8266 81.1683 36.1905 81.7657 36.3421C82.363 36.4938 82.8837 36.4331 83.3279 36.145L84.063 36.9639C83.2819 37.4643 82.4702 37.5856 81.6431 37.3581C80.8161 37.1307 80.0656 36.6303 79.3764 35.8721C78.5034 34.9016 78.1205 33.8704 78.1971 32.7786C78.2736 31.6868 78.7637 30.7466 79.6521 29.9581C80.5404 29.1696 81.5359 28.8056 82.6387 28.836C83.7414 28.8663 84.7216 29.3667 85.5946 30.3372C86.4983 31.338 86.9118 32.3389 86.8199 33.3397C86.7433 34.3405 86.2838 35.2049 85.4415 35.9327L85.0892 36.2512L80.28 30.8831C79.6674 31.4745 79.2998 32.1569 79.2079 32.9303C79.116 33.7036 79.407 34.477 80.0962 35.2503ZM84.9054 30.9741C84.2928 30.2917 83.6495 29.9278 82.9603 29.8671C82.2711 29.8065 81.5972 29.9733 80.9692 30.3524L85.0126 34.8409C85.2117 34.6135 85.3955 34.3708 85.518 34.0979C85.6559 33.8249 85.7325 33.5216 85.7784 33.188C85.8244 32.8544 85.7784 32.4905 85.6253 32.1114C85.4874 31.7171 85.2424 31.338 84.9054 30.9741Z" fill="black"/>
<path d="M92.105 40.573L92.5798 41.8164C92.6717 42.0742 92.8402 42.2107 93.0852 42.241C93.3303 42.2714 93.6979 42.2107 94.188 42.0439L95.9799 41.4525L96.2556 42.1804L93.1618 43.348L93.9429 45.3951L93.1312 45.6984L92.3501 43.6513L87.1886 45.6074C86.8976 45.7136 86.8057 45.9259 86.9129 46.214L87.4184 47.5333L86.6066 47.8365L86.1012 46.5173C85.8562 45.8956 85.8102 45.4558 85.9634 45.198C86.1012 44.9402 86.4535 44.7128 87.0202 44.5005L91.9519 42.6353L91.278 40.8914L92.105 40.573Z" fill="black"/>
<path d="M88.0671 55.1603L92.9069 54.4324C94.3619 54.2201 94.9899 53.4316 94.7754 52.0971C94.6529 51.3238 94.316 50.6869 93.734 50.1561C93.152 49.6406 92.4168 49.4434 91.5132 49.5799L87.3013 50.2168L87.1328 49.1402L98.8341 47.366L99.0026 48.4426L94.3313 49.1553H93.2898L93.3204 49.307C94.7295 49.8074 95.5412 50.7779 95.771 52.2488C96.062 54.0988 95.1583 55.1906 93.0754 55.4939L88.2356 56.2217L88.0671 55.1603Z" fill="black"/>
<path d="M88.4618 61.5144C88.3699 62.2726 88.4771 62.9399 88.7528 63.4706C89.0438 64.0165 89.442 64.3501 89.9474 64.4866L89.8249 65.5784C88.9366 65.3358 88.2933 64.8354 87.9104 64.062C87.5275 63.2886 87.3897 62.4091 87.5122 61.4083C87.65 60.1194 88.1708 59.1489 89.0438 58.4665C89.9168 57.7993 90.9583 57.5263 92.1376 57.6476C93.3169 57.7841 94.2665 58.2542 94.971 59.1034C95.6756 59.9374 95.9666 60.9989 95.8287 62.2878C95.6756 63.6222 95.2008 64.5927 94.4043 65.1993C93.6079 65.8058 92.643 66.0485 91.5403 65.9272L91.0655 65.8817L91.8619 58.7394C91.0042 58.6788 90.2537 58.8759 89.6105 59.3157C88.9672 59.7403 88.5843 60.4833 88.4618 61.5144ZM94.8944 62.1817C95.0017 61.287 94.8332 60.5591 94.4197 60.0132C94.0061 59.4673 93.4394 59.0882 92.7349 58.8759L92.0763 64.8505C92.3826 64.8505 92.6736 64.805 92.9647 64.7292C93.2557 64.6382 93.5467 64.5017 93.8223 64.3198C94.098 64.1378 94.3431 63.8497 94.5269 63.4858C94.726 63.1067 94.8485 62.6821 94.8944 62.1817Z" fill="black"/>
<path d="M93.8829 70.0524L92.3207 69.4913L92.2747 69.6429C92.7342 69.9765 93.0711 70.4011 93.3009 70.8864C93.5306 71.3716 93.5612 71.8417 93.4081 72.2966C93.209 72.8577 92.8414 73.2216 92.3207 73.3733C91.7999 73.5401 91.1566 73.4794 90.3909 73.2065L89.8701 73.0245L90.2377 71.9934L90.6053 72.1298C91.0648 72.2966 91.5089 72.3573 91.8918 72.3118C92.29 72.2663 92.5657 72.0388 92.7035 71.6446C92.8567 71.2048 92.7648 70.7347 92.3972 70.2495C92.0297 69.7642 91.417 69.3548 90.544 69.0515L86.5312 67.6261L86.8988 66.595L94.1739 69.188L93.8829 70.0524Z" fill="black"/>
<path d="M83.1466 76.1326C82.7178 76.7847 82.5187 77.4064 82.5187 78.0129C82.534 78.6195 82.7331 79.1047 83.1313 79.4535L82.534 80.3634C81.8448 79.7416 81.5078 79.0138 81.5078 78.1646C81.5078 77.3154 81.7988 76.4662 82.3502 75.617C83.0547 74.5404 83.9583 73.8883 85.0458 73.676C86.1332 73.4638 87.1747 73.676 88.1855 74.3129C89.1811 74.9498 89.809 75.799 90.0694 76.8756C90.3298 77.9371 90.1 79.0138 89.3802 80.0904C88.645 81.2125 87.772 81.8646 86.7918 82.0466C85.7963 82.2285 84.8314 82.0162 83.8971 81.4248L83.4989 81.1671L87.4504 75.147C86.7152 74.7072 85.9647 74.5556 85.1683 74.6617C84.3872 74.783 83.7133 75.2683 83.1466 76.1326ZM88.5837 79.59C89.0892 78.8318 89.273 78.1039 89.1351 77.4367C89.0126 76.7543 88.6756 76.1629 88.1396 75.6625L84.8467 80.697C85.1224 80.8334 85.398 80.9244 85.7044 80.9851C85.9954 81.0457 86.317 81.0457 86.6539 81.0002C86.9909 80.9548 87.3278 80.8183 87.6648 80.5757C88.0017 80.333 88.3081 80.0146 88.5837 79.59Z" fill="black"/>
<path d="M85.9631 85.2005L86.2388 84.9124L86.5299 85.1853L86.4227 85.3066C86.2082 85.5492 86.1163 85.7919 86.1622 86.0345C86.2082 86.2771 86.4227 86.5956 86.8209 86.9443L87.9699 88.0058L87.2652 88.7488L86.4533 88.0058C85.8405 87.4447 85.5035 86.9443 85.4576 86.5046C85.3963 86.0497 85.5648 85.6251 85.9631 85.2005Z" fill="black"/>
<path d="M79.7294 83.7912L78.8564 84.4584C78.5042 84.0186 77.9987 83.7912 77.3095 83.776C76.6203 83.776 76.0077 83.9731 75.4869 84.3674C74.6905 84.974 74.231 85.5502 74.0626 86.1113C73.9094 86.6723 73.986 87.1424 74.2923 87.5367C74.4608 87.749 74.7058 87.8248 75.0428 87.7338C75.3797 87.658 75.7473 87.476 76.1302 87.2182C76.5131 86.9453 76.9573 86.6723 77.4167 86.3842C77.8915 86.0961 78.3357 85.8383 78.7645 85.626C79.1934 85.4137 79.6222 85.3076 80.0357 85.3379C80.4493 85.3682 80.8015 85.5502 81.0772 85.899C81.6133 86.5965 81.7818 87.3244 81.552 88.0977C81.3223 88.8711 80.8015 89.5686 79.9745 90.2055C79.6529 90.4482 79.3312 90.6453 78.979 90.8121C78.6267 90.9789 78.2591 91.1002 77.8609 91.176C77.4627 91.2518 77.0645 91.2215 76.6816 91.0699C76.2834 90.9182 75.9464 90.6604 75.6401 90.2662L76.5131 89.599C76.85 90.0236 77.2942 90.2055 77.8303 90.1449C78.3816 90.069 78.9024 89.8416 79.4078 89.4625C80.097 88.9469 80.4952 88.4313 80.6331 87.9461C80.7709 87.4608 80.679 87.0211 80.388 86.642C80.2195 86.4297 79.9745 86.3539 79.6375 86.4449C79.3006 86.5358 78.933 86.7026 78.5501 86.9604C78.1519 87.2334 77.723 87.5063 77.2636 87.7945C76.7888 88.0826 76.3446 88.3404 75.9158 88.5526C75.4869 88.7649 75.0581 88.8711 74.6446 88.8408C74.231 88.8104 73.8788 88.6285 73.6031 88.2797C73.0364 87.567 72.8832 86.7936 73.1283 85.9596C73.3733 85.1256 73.9707 84.3522 74.9356 83.6092C75.7779 82.9723 76.6356 82.6387 77.5239 82.6235C78.3816 82.6235 79.1168 83.0178 79.7294 83.7912Z" fill="black"/>
<path d="M60.7127 90.3863L61.9686 95.0719C62.3515 96.4822 63.1939 97.0129 64.5111 96.6642C65.2616 96.467 65.8436 96.0576 66.2571 95.451C66.6706 94.8445 66.7625 94.1014 66.5328 93.2219L65.4453 89.1428L66.5175 88.8699L68.4932 96.2699L67.5743 96.5125L67.1454 94.9203L66.9922 94.9658C66.6553 96.4064 65.7976 97.301 64.4498 97.6498C62.6272 98.1351 61.4326 97.3617 60.8965 95.3449L59.6406 90.6592L60.7127 90.3863Z" fill="black"/>
<path d="M57.4774 91.783C58.2738 92.6018 58.6567 93.5875 58.6414 94.7399C58.6261 95.8924 58.1972 96.8629 57.3855 97.6514C56.5584 98.44 55.5476 98.8191 54.3223 98.8039C53.097 98.7887 52.1015 98.3641 51.3051 97.5453C50.5086 96.7264 50.1258 95.7408 50.1411 94.5883C50.1564 93.4358 50.5852 92.4654 51.397 91.6768C52.224 90.8883 53.2349 90.5092 54.4601 90.5244C55.6701 90.5547 56.6809 90.9793 57.4774 91.783ZM56.6809 96.9539C57.2323 96.317 57.5233 95.574 57.5386 94.7399C57.554 93.8908 57.2936 93.1477 56.7575 92.4957C56.2215 91.8436 55.4557 91.51 54.4448 91.4949C53.434 91.4797 52.6529 91.783 52.1015 92.4199C51.5501 93.0567 51.2591 93.7998 51.2438 94.6338C51.2285 95.483 51.4889 96.226 52.0249 96.8781C52.561 97.5301 53.3268 97.8637 54.3376 97.8789C55.3485 97.8941 56.1296 97.5908 56.6809 96.9539Z" fill="black"/>
<path d="M42.2067 96.7406L40.9508 96.2553C40.6904 96.1643 40.476 96.1947 40.2922 96.3463C40.1084 96.498 39.9093 96.8164 39.7102 97.2865L38.9597 99L38.2246 98.7119L39.4192 95.6488L37.3516 94.8603L37.6579 94.0566L39.7255 94.8451L41.7166 89.75C41.8238 89.4619 41.7472 89.2496 41.4409 89.1434L40.1237 88.6582L40.4301 87.8545L41.7472 88.3549C42.3752 88.5975 42.7428 88.8553 42.8346 89.1283C42.9265 89.4012 42.8653 89.8258 42.6509 90.3717L40.7517 95.2545L42.513 95.9369L42.2067 96.7406Z" fill="black"/>
<path d="M38.0615 87.7488C38.2913 88.8557 38.0769 89.902 37.4336 90.8574C36.7903 91.8127 35.902 92.4193 34.7839 92.6316C33.6659 92.859 32.5938 92.6316 31.5829 91.9643C30.5721 91.2971 29.9441 90.4025 29.7144 89.2955C29.4847 88.1885 29.6991 87.1422 30.3423 86.1869C30.9856 85.2315 31.8739 84.625 32.992 84.4127C34.11 84.1852 35.1822 84.4127 36.193 85.0799C37.2192 85.7471 37.8471 86.6266 38.0615 87.7488ZM34.5848 91.6611C35.3966 91.4184 36.0398 90.9484 36.5146 90.2508C36.9894 89.5533 37.1732 88.7799 37.0813 87.9459C36.9894 87.1119 36.5146 86.4143 35.6723 85.8533C34.8299 85.3074 34.0028 85.1406 33.1911 85.3832C32.3794 85.6258 31.7361 86.0959 31.2613 86.7934C30.7865 87.491 30.6027 88.2643 30.6946 89.0984C30.7865 89.9324 31.2613 90.6299 32.1037 91.191C32.946 91.7369 33.7731 91.9037 34.5848 91.6611Z" fill="black"/>
<path d="M26.5899 76.2996L22.8375 79.4082C22.2249 79.9086 21.8573 80.3332 21.7042 80.682C21.551 81.0308 21.5969 81.3492 21.8573 81.6525C22.1789 82.0316 22.6078 82.1984 23.1745 82.1529C23.7412 82.1074 24.3538 81.8193 25.043 81.2582L28.4278 78.468L29.1324 79.3021L25.38 82.4107C24.7673 82.9111 24.3997 83.3357 24.2466 83.6845C24.0934 84.0332 24.1394 84.3517 24.3997 84.655C24.7214 85.0341 25.1655 85.2009 25.7475 85.1402C26.3295 85.0795 26.9728 84.7611 27.6927 84.1697L30.9703 81.4705L31.6748 82.3045L25.7322 87.2025L25.1196 86.4898L26.2683 85.5345L26.1611 85.4132C25.0277 85.9287 24.1241 85.7922 23.4502 85.0037C23.0979 84.5943 22.9447 84.1849 23.006 83.7754C23.052 83.366 23.2817 82.9414 23.6952 82.4865L23.634 82.4107C22.5006 82.9263 21.5969 82.7898 20.923 82.0013C20.4636 81.4554 20.341 80.9246 20.5555 80.3939C20.7699 79.8631 21.2906 79.2566 22.133 78.559L25.8854 75.4656L26.5899 76.2996Z" fill="black"/>
<path d="M24.0888 73.8426C23.66 74.8889 22.9095 75.6471 21.8374 76.102C20.7653 76.5569 19.6932 76.5721 18.6364 76.1475C17.5796 75.7229 16.7985 74.9647 16.3237 73.8426C15.8489 72.7356 15.8182 71.6438 16.2471 70.5975C16.6759 69.5512 17.4264 68.793 18.4985 68.3381C19.5706 67.8831 20.6427 67.868 21.6995 68.2926C22.7563 68.7172 23.5374 69.4754 24.0122 70.5975C24.487 71.7045 24.5023 72.7811 24.0888 73.8426ZM19.0039 75.2225C19.8157 75.4651 20.6121 75.4196 21.3932 75.086C22.1743 74.7524 22.7563 74.2065 23.1392 73.4635C23.5221 72.7053 23.5221 71.8713 23.1239 70.9614C22.7257 70.0364 22.1131 69.4602 21.3013 69.2176C20.4896 68.9749 19.6932 69.0204 18.912 69.3541C18.1309 69.6877 17.5489 70.2336 17.166 70.9766C16.7831 71.7348 16.7831 72.5688 17.1813 73.4787C17.5796 74.4037 18.1922 74.9799 19.0039 75.2225Z" fill="black"/>
<path d="M14.1168 65.9881L15.7556 65.7152L15.7249 65.5635C15.1582 65.4877 14.6528 65.2906 14.2086 64.9873C13.7645 64.6689 13.5041 64.2898 13.4275 63.8045C13.3356 63.2131 13.4582 62.7279 13.8411 62.3336C14.2086 61.9393 14.806 61.6816 15.6024 61.5451L16.1538 61.4541L16.3376 62.5307L15.9547 62.5914C15.4646 62.6672 15.0663 62.834 14.7447 63.0615C14.4231 63.2889 14.3005 63.6226 14.3618 64.0471C14.4384 64.5021 14.76 64.866 15.3267 65.1086C15.8934 65.3512 16.6286 65.4119 17.5322 65.2603L21.7287 64.5627L21.9125 65.6394L14.2852 66.9131L14.1168 65.9881Z" fill="black"/>
<path d="M13.2613 57.9655L14.9154 58.011V57.8593C14.3793 57.6774 13.9198 57.3893 13.5369 56.995C13.1694 56.6007 12.9856 56.1761 13.0009 55.6909C13.0162 55.0995 13.2459 54.6446 13.6901 54.3261C14.1343 54.0077 14.7622 53.8712 15.574 53.8864L16.1253 53.9015L16.0947 54.9934L15.6965 54.9782C15.2064 54.963 14.7775 55.0388 14.4099 55.2057C14.0424 55.3725 13.8586 55.6757 13.8433 56.1003C13.8279 56.5704 14.073 56.9798 14.5784 57.3286C15.0838 57.6774 15.7884 57.8745 16.7226 57.9048L20.9805 58.0262L20.9498 59.118L13.2306 58.8905L13.2613 57.9655Z" fill="black"/>
<path d="M20.5045 51.7334C19.5089 52.2945 18.4521 52.4309 17.3188 52.1277C16.1854 51.8244 15.343 51.1875 14.761 50.2018C14.1943 49.2313 14.0718 48.1547 14.3934 47.0022C14.7151 45.8346 15.3583 44.9702 16.3539 44.4092C17.3494 43.8481 18.4062 43.7116 19.5396 44.0149C20.6729 44.3182 21.5153 44.9551 22.0973 45.9407C22.664 46.9264 22.8018 48.003 22.4802 49.1707C22.1433 50.308 21.5 51.1723 20.5045 51.7334ZM15.6493 49.7166C16.1394 50.4141 16.798 50.8539 17.6098 51.0813C18.4215 51.3088 19.2332 51.233 19.999 50.869C20.7648 50.5203 21.2856 49.8531 21.5459 48.8826C21.8063 47.9121 21.6991 47.0932 21.209 46.3957C20.7189 45.7133 20.0603 45.2584 19.2486 45.0309C18.4215 44.8186 17.6251 44.8793 16.8593 45.2432C16.0935 45.592 15.5728 46.2592 15.3124 47.2297C15.0367 48.2002 15.1592 49.0342 15.6493 49.7166Z" fill="black"/>
<path d="M22.9126 30.8235L27.9822 37.1772L27.293 38.2387L20.7378 36.5403L25.0569 41.7112L24.3217 42.8485L16.6484 40.5133L17.2917 39.5276L23.801 41.6202L19.3747 36.2977L19.9567 35.403L26.6957 37.1469L22.2847 31.794L22.9126 30.8235Z" fill="black"/>
</svg>
