<svg width="165" height="50" viewBox="0 0 165 50" fill="none" xmlns="http://www.w3.org/2000/svg">
<path d="M48.6438 5.47046C59.4827 5.47046 67.7736 13.0823 67.7736 24.3867C67.7736 35.7471 59.4266 43.5311 48.6438 43.5311H36.4849C34.0503 43.5299 32.0234 41.8366 32.0234 38.964V10.2084C32.0234 7.31669 34.0503 5.47046 36.4861 5.47046H48.6438Z" fill="black"/>
<path d="M34.7933 33.3678C33.8709 33.3107 32.9459 33.3107 32.0234 33.3678V34.625C33.6228 34.3011 34.6263 34.0729 34.6263 34.0729L34.7933 33.3691V33.3678ZM60.5423 15.4793C59.4827 14.5103 58.1065 14.0143 56.8799 14.0143C55.1322 14.0143 53.7011 14.5103 51.562 14.5103C50.0749 14.6046 48.7548 11.2934 47.0084 10.9134C46.2642 9.18066 44.5165 8.95244 43.4569 9.82838C42.5095 9.23804 40.9663 9.5619 40.9102 10.6469C39.7945 10.3231 38.3635 10.9134 38.9955 12.3784C36.2256 12.5314 35.7419 14.9858 37.6006 15.3084C35.2022 16.6599 36.2804 19.0009 38.2887 18.5253C38.6601 22.0648 40.2582 26.7275 37.6567 27.8687C37.34 27.9834 36.2256 28.2499 33.9943 27.7539C33.3061 27.5831 32.6741 27.4313 32.0234 27.2031V29.0493C33.9382 29.544 35.8529 29.8666 37.062 29.7531C40.4078 29.3719 40.5749 26.5363 40.4078 24.0436C40.2408 21.6466 39.4043 18.7153 39.7197 16.7556L39.6075 16.6408C38.3996 18.0306 37.5445 17.6494 37.4884 17.212C37.3213 16.3361 38.7723 15.3084 39.6075 14.9285C39.6075 14.8711 39.6649 14.8137 39.6649 14.7576C38.8646 14.8724 37.972 14.7576 37.9172 14.2055C37.8611 13.5578 39.1999 12.8923 40.9463 13.0631L41.0585 12.9484C40.9463 12.8923 40.8541 12.8349 40.687 12.7775C40.2595 12.5684 40.1111 12.1311 40.2595 11.8455C40.4265 11.5216 40.8915 11.4081 41.319 11.4081C41.9511 11.4081 42.4908 11.579 42.8623 11.7307C42.9184 11.7307 42.9745 11.6746 42.9745 11.6746C42.8062 11.5599 42.7127 11.4642 42.6579 11.2934C42.5457 11.1225 42.4908 10.856 42.7127 10.703C42.9745 10.4939 43.5691 10.4378 44.145 10.9708L44.4604 11.2934C44.5165 11.2934 44.5726 11.2934 44.6648 11.236C44.5671 11.1067 44.4975 10.9576 44.4604 10.7987C44.4055 10.5896 44.5165 10.4187 44.7222 10.304C44.8496 10.2778 44.9816 10.2889 45.1031 10.336C45.2246 10.3832 45.3306 10.4644 45.409 10.5704C45.556 10.8245 45.6629 11.1008 45.7256 11.389C44.4978 11.5599 43.0667 11.9781 42.1742 13.2352C41.319 14.4911 40.9476 16.3935 41.4861 18.1441C41.8027 19.9903 42.5457 21.7409 43.1777 23.4737V23.5298C44.5539 27.6596 47.2128 37.7271 34.2548 43.1115C34.9977 43.3793 35.7419 43.5502 36.4861 43.5502H37.805C40.4639 42.0839 42.2677 40.448 43.5504 38.6592C49.4429 41.324 54.8717 39.9724 57.1953 35.557C58.7385 34.625 59.7432 32.6831 59.8542 31.2564C60.8016 30.0005 60.9698 28.4207 60.7093 27.3931C60.6532 27.1266 60.4488 27.1266 60.0773 27.3357C55.2431 30.267 50.9861 30.7617 45.9475 29.2967C45.7805 27.2222 45.409 25.5277 45.242 24.5001C45.0924 22.4269 45.7805 21.3992 49.499 22.6551C51.8974 23.3015 53.013 24.444 53.9056 25.0521C54.3332 25.376 54.8156 25.6998 55.1322 25.4895C55.3366 25.3747 55.3366 24.9948 55.3366 24.5587C55.2805 23.4163 54.7981 21.5127 54.2771 20.8089C55.3723 20.7198 56.4727 20.7198 57.568 20.8089C58.9429 21.0753 59.0551 21.7792 59.2596 22.1221C59.6871 23.3207 61.9185 23.0542 62.1229 21.95C62.4009 20.142 62.5692 17.3829 60.5423 15.4805V15.4793ZM45.9475 31.3533C47.6404 31.848 50.0387 32.1145 52.0083 31.9424C54.6647 31.7373 57.2341 30.8824 59.5002 29.4497C58.6463 31.7333 55.3553 33.0835 52.1766 33.5221C52.1766 33.693 52.1205 33.846 52.1205 34.0168C54.5189 33.9021 56.7864 33.0848 57.8098 32.3797C57.2327 34.6072 54.2945 35.4818 51.6555 35.6348C51.5994 35.8057 51.4885 35.9574 51.4511 36.1295C52.7672 36.1659 54.0801 35.9794 55.3366 35.5774C54.1649 37.9184 48.8483 39.4981 44.4417 37.3663C45.4639 35.2727 45.8927 33.2556 45.9475 31.3533ZM61.0808 20.5819C61.0259 21.0766 60.5049 21.0192 60.283 20.6393C59.5388 19.326 58.5341 19.1156 56.9921 19.0022C55.8203 18.9448 54.4441 19.0595 53.1614 19.1169C52.9569 19.1169 52.846 18.9448 52.9009 18.8492C53.1626 17.7654 54.0726 15.6336 55.02 15.4818C55.5037 15.4244 56.5084 15.2727 57.0843 15.2727C59.7432 15.2536 61.193 18.3544 61.0808 20.5819Z" fill="white"/>
<path d="M46.165 13.0822C46.5925 12.9113 47.1684 13.3499 47.4838 14.0142C47.8004 14.6619 47.7456 15.3275 47.3168 15.4805C46.8892 15.6513 46.3133 15.2127 45.9967 14.5472C45.9418 14.4324 45.9418 14.3763 45.8845 14.2807H45.9418C46.1089 14.3954 46.2572 14.4528 46.3694 14.3954C46.5364 14.2807 46.4816 14.0142 46.3694 13.8051C46.2572 13.6342 46.0528 13.4251 45.8857 13.4251L45.8296 13.3678C45.9593 13.253 45.9967 13.1383 46.165 13.0822ZM49.3063 20.3715C47.2794 19.9328 44.9932 19.2864 43.8214 17.4772C43.8214 17.4211 43.7666 17.4211 43.7092 17.4211C43.6544 17.4211 43.6544 17.4784 43.6544 17.5358C43.6544 17.6506 43.6544 17.7449 43.7105 17.8584L43.5609 17.9158C43.2455 17.4784 43.1894 16.9455 43.506 16.5081C43.9336 15.9561 44.881 16.0134 45.4208 16.336L45.3086 16.5081C45.0493 16.4508 44.7327 16.4508 44.5108 16.6229C44.3425 16.7364 44.3051 16.8881 44.3986 17.1163C45.4021 19.0199 48.2841 19.3999 51.6673 19.1334C52.0387 19.0773 52.0948 18.9243 52.1509 18.7535C52.4663 17.5549 53.0061 16.4699 53.8051 15.6513C53.1731 15.7661 52.5785 15.7661 52.1135 15.8222C50.3659 15.9369 49.3437 15.7074 49.0271 15.4422L49.0832 15.2714C49.2876 15.3275 49.4546 15.3275 49.5107 15.2714C49.5668 15.214 49.5107 15.1566 49.4546 15.061L47.596 13.1587C47.429 11.8454 45.5317 11.8071 44.7887 13.1013L44.5282 13.0439C44.5843 12.7774 44.7327 12.4918 44.8448 12.3401C43.2455 12.7213 42.353 14.1863 42.1859 15.5939C41.4978 21.6835 50.4781 20.2758 53.0248 22.655C53.0809 22.7111 53.1918 22.8641 53.2853 22.7698C53.3402 22.4255 52.2257 21.0179 49.3063 20.3715Z" fill="black"/>
<path d="M81.9438 9.22242H78.0507C77.2492 9.22242 76.6172 9.8153 76.6172 10.7537V19.9428C76.6172 20.8812 77.2492 21.3594 78.0507 21.3594H81.9438C85.4092 21.3594 88.0718 18.8909 88.0718 15.2902C88.017 11.6348 85.4092 9.22114 81.9438 9.22114V9.22242ZM81.9438 18.5263H79.503V12.0173H81.9438C83.9183 12.0173 85.2409 13.2234 85.2409 15.2533C85.2409 17.2818 83.9183 18.5263 81.9438 18.5263ZM108.823 9.22242H104.93C104.129 9.22242 103.497 9.8153 103.497 10.7537V19.9428C103.497 20.8812 104.129 21.3594 104.93 21.3594H108.823C112.289 21.3594 114.953 18.8909 114.953 15.2902C114.934 11.6348 112.27 9.22114 108.823 9.22114V9.22242ZM108.823 18.5263H106.384V12.0173H108.823C110.798 12.0173 112.121 13.2234 112.121 15.2533C112.121 17.2818 110.779 18.5263 108.823 18.5263ZM122.497 9.10767C119.088 9.10767 116.424 11.7304 116.424 15.2915C116.424 18.8514 119.031 21.4754 122.497 21.4754C125.905 21.4754 128.569 18.794 128.569 15.2341C128.569 11.7495 125.905 9.10767 122.497 9.10767ZM122.497 18.6793C120.633 18.6793 119.256 17.264 119.256 15.2341C119.256 13.3191 120.577 11.8451 122.497 11.8451C124.359 11.8451 125.738 13.2617 125.738 15.2341C125.738 17.2627 124.471 18.6793 122.497 18.6793ZM95.5612 9.10767C92.1518 9.10767 89.4879 11.7304 89.4879 15.2915C89.4879 18.8514 92.0958 21.4754 95.5612 21.4754C98.9693 21.4754 101.633 18.794 101.633 15.2341C101.633 11.7495 99.0254 9.10767 95.5612 9.10767ZM95.5612 18.6793C93.6976 18.6793 92.3201 17.264 92.3201 15.2341C92.3201 13.3191 93.6415 11.8451 95.5612 11.8451C97.4236 11.8451 98.8023 13.2617 98.8023 15.2341C98.821 17.2627 97.5357 18.6793 95.5612 18.6793Z" fill="black"/>
<path d="M82.8217 27.7158H78.0349C77.2334 27.7158 76.6562 28.2717 76.6562 29.1336V38.4936C76.6562 39.432 77.2895 39.9101 78.0898 39.9101C78.8913 39.9101 79.4697 39.3555 79.4697 38.4936V36.3107H82.7669C85.3186 36.3107 86.9765 34.4543 86.9765 31.9846C87.0326 29.5723 85.4308 27.7145 82.8217 27.7145V27.7158ZM82.8217 33.5745H79.5246V30.5119H82.8217C83.7716 30.5119 84.2565 31.2196 84.2565 32.042C84.2752 32.9052 83.7903 33.5745 82.823 33.5745H82.8217ZM90.7013 27.6584C89.901 27.6584 89.2116 28.2144 89.2116 29.1336V38.5331C89.2116 39.4715 89.901 40.007 90.7013 40.007C91.5028 40.007 92.1921 39.4524 92.1921 38.5331V29.1336C92.1921 28.2144 91.5028 27.6584 90.7013 27.6584ZM104.113 37.0592H98.208L104.058 31.6403C104.915 30.8753 105.231 30.2812 105.231 29.4588V29.344C105.231 28.3674 104.654 27.7541 103.573 27.7541H96.0665C95.154 27.7541 94.6878 28.4056 94.6878 29.1719C94.6878 29.9943 95.2288 30.5311 96.0665 30.5311H101.543L95.8994 35.7765C94.7813 36.8093 94.5207 37.4226 94.5207 38.1315V38.2462C94.5207 39.2216 95.0979 39.8349 96.1786 39.8349H104.113C105.027 39.8349 105.492 39.2407 105.492 38.4184C105.548 37.6712 105.027 37.0592 104.113 37.0592ZM116.52 37.0592H110.615L116.464 31.6403C117.32 30.8753 117.637 30.2812 117.637 29.4588V29.344C117.637 28.3674 117.06 27.7541 115.979 27.7541H108.472C107.56 27.7541 107.094 28.4056 107.094 29.1719C107.094 29.9943 107.635 30.5311 108.472 30.5311H113.95L108.324 35.8148C107.206 36.8475 106.945 37.4608 106.945 38.1697V38.2845C106.945 39.2611 107.522 39.8732 108.603 39.8732H116.519C117.433 39.8732 117.899 39.2803 117.899 38.4566C117.954 37.6712 117.433 37.0592 116.52 37.0592ZM130.844 37.8242L126.951 29.1336C126.522 28.157 125.889 27.7732 125.032 27.7732H124.865C123.952 27.7732 123.319 28.2144 122.89 29.1336L118.997 37.8242C118.624 38.7052 118.885 39.4715 119.63 39.7393C120.32 40.007 121.009 39.854 121.382 39.0304L122.238 37.1166C123.099 37.402 123.997 37.5503 124.902 37.5564C125.852 37.5564 126.709 37.3843 127.454 37.1166L128.311 38.973C128.684 39.7967 129.428 39.9497 130.061 39.6819C130.882 39.4141 131.217 38.6479 130.844 37.8242ZM124.977 34.9337C124.4 34.9337 123.748 34.8763 123.281 34.7233L124.939 30.9518L126.597 34.7233C126.15 34.819 125.573 34.9337 124.977 34.9337Z" fill="black"/>
</svg>
