<svg width="480" height="130" viewBox="0 0 480 130" fill="none" xmlns="http://www.w3.org/2000/svg">
<path d="M479.075 64.0864C479.189 81.4729 464.171 97.4695 439.434 109.214C414.736 120.938 380.524 128.33 342.656 128.583C304.787 128.835 270.481 121.901 245.631 110.507C220.741 99.0939 205.513 83.2991 205.399 65.9126C205.284 48.5262 220.302 32.5296 245.04 20.7856C269.737 9.06077 303.949 1.66901 341.818 1.41632C379.686 1.16362 413.993 8.09818 438.842 19.4923C463.733 30.9052 478.96 46.7 479.075 64.0864Z" stroke="#F13605"/>
<path d="M274.598 64.0874C274.713 81.4738 259.695 97.4705 234.957 109.214C210.26 120.939 176.048 128.331 138.179 128.584C100.311 128.836 66.0041 121.902 41.1546 110.508C16.2643 99.0949 1.03677 83.3 0.922215 65.9136C0.807661 48.5272 15.8257 32.5306 40.5634 20.7865C65.2606 9.06175 99.4727 1.66998 137.341 1.41729C175.21 1.1646 209.516 8.09915 234.366 19.4933C259.256 30.9062 274.484 46.701 274.598 64.0874Z" stroke="#F13605"/>
</svg>
