<svg width="165" height="50" viewBox="0 0 165 50" fill="none" xmlns="http://www.w3.org/2000/svg">
<path d="M76.6154 13.2119L76.227 14.8008C76.227 14.8008 74.9912 14.6596 73.261 16.1073L65.599 22.216L62.9155 24.37C62.9155 24.37 64.1866 26.3474 65.599 28.5013C67.1526 30.9024 68.8827 33.4801 69.2005 33.8332C69.8361 34.5394 70.8953 35.7046 72.5196 35.7046L72.0958 37.3995C69.3064 37.3995 67.2585 37.4702 65.5637 37.3995C60.6204 37.1877 59.2081 35.5987 53.5586 26.5239C53.5586 26.5239 51.9344 32.3501 51.546 33.7979C51.1576 35.2809 53.2055 35.6693 53.2055 35.6693L52.7818 37.3995H40.0353H40L40.0353 37.2936L40.4237 35.7046C41.0593 35.6693 42.86 35.8812 43.9899 31.6086C44.2724 30.7965 43.7781 32.2795 47.8739 17.4844C48.4388 15.2952 46.7793 14.9774 46.2144 14.8008L46.6028 13.2119H58.855L58.4666 14.8008C58.4666 14.8008 56.8071 14.9774 56.348 16.531L54.1942 24.4759C54.1942 24.4759 64.3632 16.7076 64.5044 16.5664C65.4931 15.6483 64.2926 14.8715 63.4098 14.8008L63.7982 13.2119H65.6343H76.6154ZM117.15 13C115.773 13 114.502 13.0353 113.231 13.2119C102.956 14.4124 96.7415 20.8742 96.7768 27.3714C96.7768 32.8092 101.19 38.0351 111.359 37.9998C111.995 37.9998 112.631 37.9645 113.231 37.9292C115.702 37.788 117.856 37.4702 119.834 37.0464L120.999 31.997C119.021 32.6679 116.55 33.1976 114.537 33.1976C114.078 33.1976 113.619 33.1623 113.195 33.127C108.535 32.6679 105.498 29.6312 105.463 25.7824C105.463 21.7923 108.358 18.6497 113.195 17.8375C114.008 17.6963 114.855 17.6257 115.773 17.6257C118.88 17.6257 120.469 18.6497 121.493 20.0268H122.34L124 14.0593C122.34 13.5297 119.798 13.0353 117.15 13ZM90.1387 13.2472H78.0631L77.6747 14.8361C77.6747 14.8361 80.0757 15.0833 79.3342 17.5197L73.8613 37.4349L84.8071 37.4702L85.2308 35.7753C85.2308 35.7753 83.1829 35.2809 83.7125 33.3741C83.7478 33.1976 85.3367 27.442 85.3367 27.442H90.174H90.3859C92.8928 27.442 93.7049 28.7485 93.7049 28.7485L95.1526 22.8163H90.174H86.6784L87.9496 18.1553H90.174H95.2938C96.6356 18.1553 97.5889 19.0734 97.5889 19.709H98.4363L100.061 13.2472H90.1387Z" fill="black"/>
</svg>
