<svg width="27" height="33" viewBox="0 0 27 33" fill="none" xmlns="http://www.w3.org/2000/svg">
<path fill-rule="evenodd" clip-rule="evenodd" d="M22 25.4113H17.3654L14.4739 28.899L13.1749 30.4658L11.876 28.899L8.98447 25.4113H4H2V23.4113V6.46582V4.46582H4H22H24V6.46582V23.4113V25.4113H22ZM15.8257 24.1348L13.1749 27.3322L10.5241 24.1348L9.92431 23.4113H8.98447H4V6.46582H22V23.4113H17.3654H16.4256L15.8257 24.1348ZM15 15.4658C15 16.5704 14.1046 17.4658 13 17.4658C11.8954 17.4658 11 16.5704 11 15.4658C11 14.3613 11.8954 13.4658 13 13.4658C14.1046 13.4658 15 14.3613 15 15.4658ZM17 15.4658C17 17.675 15.2091 19.4658 13 19.4658C10.7909 19.4658 9 17.675 9 15.4658C9 13.2567 10.7909 11.4658 13 11.4658C15.2091 11.4658 17 13.2567 17 15.4658Z" fill="#1A1A1A"/>
</svg>
