<svg width="72" height="72" viewBox="0 0 72 72" fill="none" xmlns="http://www.w3.org/2000/svg">
<path fill-rule="evenodd" clip-rule="evenodd" d="M58 58H41.5L37.2874 63.3615L36 65L34.7888 63.3043L31 58H14H12V56V12V10H14H58H60V12V56V58H58ZM39.9274 56.7644L36.0762 61.6658L32.6275 56.8375L32.0292 56H31H14V12H58V56H41.5H40.5279L39.9274 56.7644ZM40 34C40 36.2091 38.2091 38 36 38C33.7909 38 32 36.2091 32 34C32 31.7909 33.7909 30 36 30C38.2091 30 40 31.7909 40 34ZM42 34C42 37.3137 39.3137 40 36 40C32.6863 40 30 37.3137 30 34C30 30.6863 32.6863 28 36 28C39.3137 28 42 30.6863 42 34Z" fill="black"/>
</svg>
