<svg width="165" height="50" viewBox="0 0 165 50" fill="none" xmlns="http://www.w3.org/2000/svg">
<g clip-path="url(#clip0_12879_19785)">
<path d="M87.125 33.6253V16.7616H97.6016V20.6784H91.4935V33.6253H87.125Z" fill="black"/>
<path d="M110.788 33.6253V27.0206H104.298V33.6253H99.9297V16.7616H104.298V23.055H110.788V16.7616H115.156V33.6253H110.788Z" fill="black"/>
<path d="M140.501 33.6253V20.6784H135.398V16.7616H149.999V20.6784H144.871V33.6253H140.501Z" fill="black"/>
<path d="M128.974 33.623V24.0145L122.02 33.623H118.367V16.7639H122.736V26.2725L129.573 16.7639H133.345V33.623H128.974Z" fill="black"/>
<path d="M62.0214 33.6253V23.6033L57.6597 28.8978L53.2982 23.6033V33.6253H48.9297V16.7616H53.241L57.6597 22.5602L62.0786 16.7616H66.3898V33.6253H62.0214Z" fill="black"/>
<path d="M74.6827 27.6943H78.7425L76.7126 22.4068L74.6827 27.6943ZM81.0194 33.623L80.1051 31.2603H73.3135L72.399 33.623H68.0078L74.7262 16.7616H78.7655L85.4862 33.623H81.0194Z" fill="black"/>
<path d="M15.1016 20.1881C15.1058 18.1515 15.9039 16.1995 17.3212 14.7596C18.7385 13.3197 20.6595 12.5092 22.6635 12.5055H40.1214V16.4107H22.6681C21.6834 16.415 20.7401 16.8143 20.0436 17.5217C19.3471 18.2291 18.9536 19.1874 18.9488 20.1881L18.926 26.7441C18.8463 27.584 18.4951 28.3735 17.9273 28.9893C17.3595 29.605 16.607 30.0122 15.7873 30.1475L15.1016 30.2543V20.1881Z" fill="black"/>
<path d="M15.1094 37.8812V33.9759H32.5672C33.5522 33.9711 34.4954 33.5712 35.1919 32.8635C35.8882 32.1556 36.2817 31.1971 36.2865 30.1962V23.9748C36.2913 23.0722 36.6117 22.2007 37.1904 21.516C37.7691 20.8313 38.5684 20.3779 39.4456 20.2369L40.1315 20.1323V30.1962C40.1272 32.2331 39.3292 34.1853 37.9119 35.6256C36.4947 37.0658 34.5738 37.8768 32.5695 37.8812H15.1094Z" fill="black"/>
<path d="M29.8947 30.2681V25.2199L27.6178 27.9821L25.3433 25.2199V30.2681H22.3281V20.3344H25.1833L27.6178 23.5287L30.0524 20.3344H32.9076V30.2681H29.8947Z" fill="black"/>
</g>
<defs>
<clipPath id="clip0_12879_19785">
<rect width="134.892" height="25.3757" fill="white" transform="translate(15.1094 12.5055)"/>
</clipPath>
</defs>
</svg>
