<svg width="201" height="201" viewBox="0 0 201 201" fill="none" xmlns="http://www.w3.org/2000/svg">
<path d="M100.586 0.341797L111.991 10.0594L125.455 3.48348L134.085 15.7321L148.761 12.7111L154.074 26.7213L169.041 27.4449L170.703 42.3362L185.019 46.7591L182.925 61.5959L195.692 69.4401L189.974 83.2901L200.389 94.0627L191.406 106.056L198.815 119.08L187.132 128.462L191.069 142.92L177.42 149.102L177.637 164.084L162.88 166.678L159.364 181.243L144.426 180.086L137.398 193.319L123.217 188.483L113.119 199.553L100.586 191.342L88.0526 199.553L77.9552 188.483L63.7735 193.319L56.7464 180.086L41.8074 181.243L38.2922 166.678L23.5346 164.084L23.7521 149.102L10.1032 142.92L14.0398 128.462L2.35722 119.08L9.76551 106.056L0.783264 94.0627L11.1978 83.2901L5.48029 69.4401L18.2467 61.5959L16.1531 46.7591L30.4692 42.3362L32.1312 27.4449L47.0975 26.7213L52.4106 12.7111L67.0866 15.7321L75.7169 3.48348L89.1806 10.0594L100.586 0.341797Z" fill="#F13605"/>
<g clip-path="url(#clip0_12657_34111)">
<path d="M48.9718 42.5663C48.9276 44.156 49.4851 45.7041 50.5335 46.9027C51.498 48.1791 52.9168 49.0379 54.4977 49.3022C55.2597 49.42 56.0383 49.3701 56.7789 49.156C57.5195 48.942 58.2042 48.569 58.7849 48.0632C59.83 47.2997 60.5861 46.2069 60.9306 44.9616C61.1864 43.8054 60.9766 42.5953 60.3466 41.5917L61.5437 40.6253C61.9756 41.2765 62.2715 42.0078 62.4139 42.7755C62.5562 43.5432 62.542 44.3317 62.3721 45.0938C61.9672 46.722 61.0083 48.1597 59.6589 49.1618C58.9272 49.7956 58.0687 50.267 57.1403 50.5447C56.2118 50.8224 55.2348 50.9 54.274 50.7724C53.295 50.6416 52.3518 50.3187 51.4986 49.8225C50.6455 49.3264 49.8993 48.6667 49.3032 47.8815C47.9921 46.3882 47.3239 44.44 47.4433 42.4589C47.5126 41.5084 47.7849 40.5836 48.2422 39.7466C48.6994 38.9096 49.331 38.1799 50.0944 37.6063C51.3593 36.4992 52.9689 35.8616 54.6509 35.8015C55.4348 35.7989 56.2113 35.9532 56.9343 36.2554C57.6572 36.5576 58.3119 37.0016 58.8595 37.5609L57.6624 38.5273C56.8038 37.7151 55.6604 37.2703 54.4769 37.2883C53.1848 37.3605 51.9554 37.8672 50.9891 38.7255C50.3922 39.1802 49.9023 39.7597 49.5538 40.4232C49.2054 41.0867 49.0067 41.8182 48.9718 42.5663Z" fill="#231F20"/>
<path d="M61.2412 36.6069L60.7109 35.6281L68.5813 31.3909L69.1115 32.382L65.7977 34.1662L70.0104 41.8808L68.7677 42.5581L64.555 34.8269L61.2412 36.6069Z" fill="#231F20"/>
<path d="M79.4141 27.3394L82.7279 36.6853L81.39 37.1561L78.5939 29.3093L76.034 39.06L74.5013 39.601L71.1875 30.2551L72.5255 29.7801L75.3215 37.6269L77.8814 27.8762L79.4141 27.3394Z" fill="#231F20"/>
<path d="M89.9935 26.2863L86.895 26.8356L87.127 28.1324C87.3423 29.2583 87.4532 30.4016 87.4584 31.5478C87.4763 32.3285 87.3871 33.108 87.1933 33.8647C87.0506 34.3773 86.7944 34.8515 86.4435 35.2523C86.1812 35.565 85.8586 35.8219 85.4949 36.0081C85.1736 36.1508 84.8354 36.2521 84.4884 36.3096C84.3748 36.3307 84.2599 36.3445 84.1446 36.3509H83.9167L83.8505 36.322L83.6641 35.2647C83.8015 35.2837 83.9409 35.2837 84.0783 35.2647C86.0749 34.904 86.6686 32.4674 85.8595 27.9548L85.5032 25.9642L91.1989 24.9482L92.9469 34.7113L91.5468 34.9591L89.9935 26.2863Z" fill="#231F20"/>
<path d="M95.2637 34.5006L95.0234 24.5888L96.4525 24.5352L96.5602 29.078L99.0995 29.0202C99.7938 28.9901 100.489 29.0442 101.171 29.1813C101.635 29.2626 102.07 29.4617 102.434 29.7595C102.69 29.9871 102.891 30.2695 103.022 30.5854C103.146 30.91 103.209 31.2543 103.209 31.6014C103.223 31.9481 103.177 32.2947 103.072 32.6256C102.951 32.9377 102.763 33.2197 102.521 33.4516C102.169 33.7705 101.742 33.9938 101.278 34.1C100.602 34.2769 99.9063 34.3685 99.2072 34.3726L95.2637 34.5006ZM96.5809 30.2179L96.6555 33.3525L99.1409 33.2947C99.871 33.331 100.599 33.1893 101.262 32.8817C101.473 32.7558 101.643 32.5721 101.753 32.3525C101.862 32.1328 101.906 31.8865 101.879 31.6427C101.89 31.4022 101.833 31.1634 101.714 30.9543C101.594 30.7451 101.417 30.5742 101.204 30.4616C100.525 30.1905 99.7908 30.083 99.0622 30.1477L96.5809 30.2179Z" fill="#231F20"/>
<path d="M113.813 32.7948L113.477 34.0668C113.328 34.6409 113.138 34.9878 112.91 35.1117C112.528 35.2343 112.116 35.2226 111.742 35.0787L110.859 34.8474L111.141 33.7695L111.634 33.8975C111.816 33.9471 111.936 33.9347 111.999 33.8604C112.088 33.725 112.15 33.5735 112.181 33.4143L112.566 31.9482C112.636 31.646 112.761 31.359 112.935 31.1016C113.057 30.9104 113.225 30.7528 113.423 30.6432C113.575 30.5662 113.737 30.5107 113.904 30.478C114.027 30.4514 114.154 30.4514 114.277 30.478H114.418L114.471 30.2797C114.425 30.269 114.379 30.2538 114.335 30.2343C114.236 30.1793 114.144 30.1128 114.061 30.0361C113.928 29.9227 113.82 29.7818 113.747 29.6231C113.654 29.409 113.603 29.179 113.597 28.9458C113.583 28.6029 113.623 28.2599 113.718 27.9298L113.95 27.0502C114.021 26.8629 114.034 26.6585 113.987 26.4637C113.937 26.3605 113.788 26.2737 113.539 26.2118L113.245 26.1333L113.527 25.0554L114.215 25.2371C114.803 25.3899 115.163 25.613 115.3 25.9062C115.429 26.3934 115.403 26.9087 115.225 27.3806L115.097 27.872C115.014 28.1859 114.96 28.4089 114.927 28.5493C114.893 28.7334 114.872 28.9198 114.865 29.1068C114.843 29.2931 114.877 29.4816 114.964 29.6479C115.069 29.7988 115.197 29.9314 115.345 30.0402C115.558 30.1949 115.801 30.3046 116.058 30.3623L117.984 30.8621L119.074 26.7322L120.449 27.0915L119.355 31.242L121.281 31.7459C121.534 31.8199 121.799 31.8424 122.06 31.8119C122.243 31.7891 122.421 31.7361 122.586 31.655C122.741 31.5538 122.863 31.4105 122.938 31.242C123.023 31.0736 123.096 30.8997 123.158 30.7216C123.199 30.5853 123.261 30.3623 123.344 30.0485L123.473 29.5611C123.551 29.0615 123.782 28.5984 124.135 28.2354C124.392 28.0455 124.819 28.0289 125.407 28.1818L126.095 28.3635L125.813 29.4372L125.519 29.3629C125.437 29.3285 125.349 29.3108 125.26 29.3108C125.171 29.3108 125.083 29.3285 125.001 29.3629C124.866 29.5103 124.778 29.6943 124.748 29.8915L124.517 30.7753C124.436 31.1078 124.306 31.4265 124.131 31.7211C124.017 31.9256 123.857 32.1009 123.663 32.2332C123.52 32.3214 123.363 32.3869 123.199 32.4273C123.089 32.4612 122.974 32.471 122.86 32.4562H122.715L122.665 32.6503C122.715 32.6625 122.763 32.6791 122.81 32.6999C122.916 32.7505 123.014 32.8143 123.104 32.8898C123.243 32.9962 123.362 33.1262 123.456 33.2739C123.562 33.4709 123.627 33.6872 123.647 33.9099C123.677 34.2196 123.647 34.5322 123.56 34.8309L123.174 36.297C123.143 36.407 123.118 36.5187 123.1 36.6315C123.094 36.6668 123.095 36.703 123.104 36.7378C123.112 36.7726 123.128 36.8053 123.15 36.8339C123.215 36.9167 123.31 36.9714 123.415 36.9867L123.903 37.1147L123.622 38.1926L122.739 37.9613C122.342 37.9045 121.977 37.7135 121.704 37.4203C121.567 37.2014 121.571 36.8091 121.704 36.2309L122.035 34.9589C122.104 34.7001 122.15 34.5143 122.172 34.4014C122.2 34.2488 122.213 34.0939 122.209 33.9388C122.222 33.7769 122.179 33.6155 122.089 33.4804C121.981 33.343 121.849 33.2255 121.7 33.1335C121.476 33.0014 121.233 32.9039 120.979 32.8444L119.053 32.3406L117.905 36.7058L116.534 36.3466L117.678 31.9813L115.756 31.4774C115.462 31.3896 115.155 31.3533 114.848 31.37C114.74 31.3765 114.634 31.4059 114.537 31.4565C114.441 31.5071 114.356 31.5775 114.289 31.6632C114.172 31.805 114.074 31.962 113.999 32.1299C113.922 32.3471 113.86 32.5692 113.813 32.7948Z" fill="#231F20"/>
<path d="M137.405 33.8769L133.072 42.8016L131.792 42.1821L135.437 34.6823L126.689 39.7125L125.227 39.0063L129.564 30.0857L130.844 30.701L127.198 38.2051L135.959 33.1707L137.405 33.8769Z" fill="#231F20"/>
<path d="M136.761 40.8317L137.917 41.6577C137.687 41.9518 137.526 42.2927 137.445 42.6561C137.363 43.0195 137.363 43.3964 137.444 43.7598C137.61 44.4922 138.2 45.2191 139.213 45.9404C140.227 46.6618 141.07 47.0224 141.744 47.0224C142.053 47.0455 142.363 46.9884 142.643 46.8567C142.923 46.7249 143.164 46.5231 143.343 46.2708C143.525 46.054 143.628 45.7826 143.636 45.5002C143.644 45.2178 143.557 44.9409 143.388 44.7138C142.86 44.0301 142.22 43.4396 141.495 42.9669L139.747 41.7279L140.394 40.8193L142.229 42.1285C142.795 42.5792 143.452 42.9031 144.155 43.0784C144.413 43.1218 144.679 43.0857 144.916 42.9751C145.154 42.8645 145.352 42.6844 145.484 42.4589C146.191 41.4705 145.686 40.3692 143.968 39.155C143.354 38.6997 142.629 38.4147 141.868 38.329C141.545 38.2798 141.214 38.3222 140.914 38.4515C140.614 38.5808 140.356 38.7916 140.17 39.06L139.014 38.234C139.34 37.756 139.795 37.3806 140.327 37.152C140.816 36.9507 141.352 36.8919 141.872 36.9827C142.381 37.0734 142.879 37.2202 143.355 37.4204C143.822 37.62 144.265 37.8707 144.677 38.168C145.632 38.7815 146.396 39.6481 146.885 40.6707C147.07 41.069 147.143 41.5103 147.096 41.947C147.048 42.3837 146.882 42.7992 146.615 43.1486C146.353 43.5606 145.952 43.8664 145.484 44.0118C145.157 44.127 144.801 44.127 144.474 44.0118L144.097 43.8424L143.981 44.0076C144.022 44.0407 144.08 44.0861 144.151 44.1522C144.271 44.2816 144.382 44.4196 144.482 44.5652C144.627 44.7644 144.738 44.9863 144.809 45.2218C144.876 45.4923 144.885 45.7738 144.834 46.0478C144.775 46.4031 144.633 46.7396 144.42 47.0307C144.147 47.4379 143.771 47.7665 143.33 47.9839C142.89 48.2013 142.4 48.2998 141.91 48.2697C140.852 48.2366 139.718 47.7878 138.509 46.9233C137.255 46.0313 136.461 45.0552 136.127 43.9952C135.967 43.4563 135.941 42.8865 136.052 42.3354C136.162 41.7842 136.405 41.2681 136.761 40.8317Z" fill="#231F20"/>
<path d="M157.315 49.868L150.252 56.8475L149.25 55.844L152.423 52.7094L148.281 48.5423L145.112 51.6769L144.109 50.6692L151.172 43.6897L152.174 44.6933L149.076 47.7576L153.218 51.9247L156.317 48.8603L157.315 49.868Z" fill="#231F20"/>
<path d="M164.868 59.9779L156.741 65.6937L155.912 64.5373L162.743 59.7301L152.636 59.9077L151.695 58.5861L159.827 52.8662L160.655 54.0267L153.82 58.8339L163.932 58.6563L164.868 59.9779Z" fill="#231F20"/>
<path d="M160.75 73.3465L170.083 69.9187L171.739 74.3831C172.543 76.6022 172.172 77.9968 170.625 78.5667C170.184 78.7486 169.688 78.7486 169.246 78.5667C168.874 78.4296 168.549 78.1888 168.31 77.8729L168.007 77.4599L167.817 77.5301C167.842 77.592 167.866 77.6746 167.9 77.782C167.939 77.9723 167.96 78.1659 167.962 78.3602C167.976 78.6267 167.951 78.8939 167.887 79.1531C167.803 79.4398 167.652 79.7029 167.448 79.9213C167.184 80.2042 166.854 80.4171 166.487 80.5408C166.135 80.6739 165.76 80.7327 165.384 80.7135C165.008 80.6943 164.64 80.5975 164.304 80.4293C163.57 80.0879 162.985 79.3486 162.552 78.2115L160.75 73.3465ZM165.621 73.0698L162.308 74.3088L163.55 77.7077C163.72 78.2935 164.095 78.7991 164.606 79.1325C164.816 79.2495 165.05 79.3188 165.29 79.3352C165.53 79.3516 165.77 79.3148 165.994 79.2275C167.099 78.8145 167.324 77.7035 166.669 75.8946L165.621 73.0698ZM169.523 71.6326L166.669 72.6816L167.813 75.779C168.314 77.1336 169.055 77.6209 170.087 77.2493C170.973 76.923 171.168 76.0805 170.667 74.73L169.523 71.6326Z" fill="#231F20"/>
<path d="M170.706 88.3008L170.814 89.7132C170.364 89.7493 169.922 89.8552 169.505 90.0271C169.019 90.2267 168.566 90.4967 168.159 90.8283C167.668 91.2418 167.302 91.7819 167.098 92.3894C166.835 93.1589 166.742 93.976 166.825 94.7847C166.864 95.4956 167.027 96.1943 167.306 96.8497C167.508 97.3491 167.824 97.7945 168.229 98.1506C168.543 98.411 168.901 98.6138 169.286 98.7494C169.609 98.8618 169.951 98.9081 170.292 98.8857C170.55 98.8778 170.803 98.8168 171.036 98.7067C171.27 98.5965 171.477 98.4395 171.647 98.2456C171.987 97.824 172.213 97.3218 172.301 96.7877C172.416 96.1475 172.488 95.5005 172.517 94.8508C172.554 94.1528 172.604 93.4466 172.674 92.7404C172.732 92.0774 172.855 91.4217 173.043 90.7829C173.21 90.2044 173.546 89.6885 174.008 89.3002C174.522 88.8859 175.157 88.6484 175.818 88.6229C176.403 88.5721 176.993 88.6501 177.545 88.8514C178.096 89.0526 178.597 89.3722 179.012 89.7875C179.97 90.7567 180.524 92.0528 180.561 93.4136C180.646 94.2861 180.569 95.1668 180.333 96.0113C180.15 96.6895 179.793 97.3086 179.297 97.8078C178.846 98.2459 178.316 98.5961 177.736 98.8403C177.125 99.0913 176.477 99.2419 175.818 99.2863L175.71 97.8739C176.043 97.8491 176.372 97.7966 176.696 97.7169C177.053 97.6292 177.395 97.4901 177.711 97.304C178.056 97.1028 178.363 96.8428 178.618 96.5358C178.897 96.1673 179.097 95.7456 179.206 95.2968C179.356 94.7216 179.403 94.1249 179.347 93.5334C179.324 92.5116 178.904 91.5389 178.175 90.82C177.911 90.5369 177.59 90.3122 177.233 90.1607C176.876 90.0092 176.492 89.9341 176.104 89.9403C175.855 89.9489 175.612 90.0101 175.389 90.1197C175.166 90.2294 174.969 90.385 174.811 90.5764C174.482 91.0012 174.268 91.5032 174.19 92.0342C174.078 92.6749 174.005 93.3217 173.97 93.9711C173.929 94.6691 173.867 95.3753 173.784 96.0856C173.705 96.7491 173.566 97.4042 173.37 98.0432C173.193 98.6225 172.85 99.1377 172.384 99.5258C171.864 99.939 171.226 100.176 170.561 100.203C169.949 100.256 169.333 100.174 168.756 99.9635C168.18 99.753 167.656 99.4189 167.223 98.9848C166.262 98.0762 165.709 96.7148 165.566 94.9004C165.474 93.9475 165.565 92.986 165.835 92.0672C166.053 91.3059 166.451 90.6078 166.995 90.0312C167.481 89.5282 168.057 89.1193 168.693 88.8253C169.327 88.5318 170.009 88.3542 170.706 88.3008Z" fill="#231F20"/>
<path d="M176.055 104.787L170.186 104.16C169.121 104.044 168.293 104.213 167.7 104.667C167.397 104.902 167.148 105.198 166.968 105.537C166.789 105.875 166.684 106.247 166.661 106.629C166.603 107.085 166.644 107.548 166.78 107.988C166.915 108.427 167.143 108.832 167.448 109.177C168.077 109.908 169.038 110.346 170.347 110.482L175.392 111.023L175.239 112.432L165.352 111.374L165.48 110.164L167.601 110.392L167.622 110.193C166.955 109.755 166.379 109.194 165.923 108.541C165.524 107.864 165.378 107.069 165.509 106.295C165.785 103.613 167.477 102.437 170.583 102.768L176.237 103.375L176.055 104.787Z" fill="#231F20"/>
<path d="M174.119 117.359L172.048 116.81L171.998 117.008C172.601 117.376 173.103 117.887 173.461 118.495C173.628 118.76 173.74 119.057 173.788 119.366C173.836 119.676 173.821 119.992 173.742 120.296C173.673 120.63 173.523 120.943 173.307 121.207C173.091 121.472 172.814 121.68 172.5 121.816C171.693 122.086 170.821 122.086 170.014 121.816L169.331 121.634L169.695 120.263L170.184 120.395C170.722 120.551 171.289 120.582 171.841 120.486C172.08 120.441 172.301 120.326 172.474 120.155C172.646 119.985 172.764 119.766 172.81 119.528C172.88 119.211 172.867 118.882 172.771 118.572C172.675 118.262 172.5 117.982 172.264 117.76C171.586 117.078 170.721 116.609 169.778 116.413L164.484 115.005L164.849 113.638L174.459 116.19L174.119 117.359Z" fill="#231F20"/>
<path d="M170.104 126.449L170.932 124.384L171.968 124.797L171.139 126.862L174.159 128.06C174.696 128.212 175.169 128.536 175.505 128.981C175.688 129.315 175.617 129.881 175.298 130.687L174.623 132.38L173.587 131.967L174.258 130.274C174.3 130.202 174.324 130.121 174.329 130.038C174.334 129.955 174.319 129.872 174.286 129.796C174.253 129.72 174.203 129.652 174.139 129.599C174.075 129.546 174 129.508 173.919 129.489L170.605 128.179L169.706 130.439L168.666 130.026L169.565 127.771L161.359 124.524L161.885 123.207L170.104 126.449Z" fill="#231F20"/>
<path d="M158.03 143.477L157.023 142.791L161.369 136.455L162.375 137.137L158.03 143.477Z" fill="#231F20"/>
<path d="M152.6 156.692C152.633 155.102 152.064 153.558 151.005 152.368C150.032 151.099 148.607 150.25 147.025 149.997C146.261 149.888 145.482 149.946 144.743 150.168C144.004 150.39 143.322 150.77 142.746 151.282C141.708 152.052 140.962 153.149 140.629 154.396C140.378 155.554 140.597 156.764 141.238 157.762L140.045 158.736C139.606 158.09 139.301 157.362 139.15 156.595C138.998 155.829 139.002 155.04 139.163 154.276C139.553 152.643 140.502 151.197 141.847 150.187C142.571 149.551 143.423 149.075 144.345 148.79C145.268 148.505 146.24 148.418 147.199 148.535C148.176 148.664 149.117 148.983 149.97 149.475C150.823 149.967 151.571 150.621 152.169 151.402C153.491 152.888 154.174 154.832 154.071 156.816C154.007 157.766 153.741 158.693 153.289 159.532C152.838 160.372 152.212 161.106 151.453 161.685C150.195 162.807 148.583 163.457 146.896 163.523C146.113 163.532 145.336 163.384 144.611 163.088C143.886 162.793 143.227 162.355 142.675 161.801L143.864 160.822C144.727 161.634 145.875 162.079 147.062 162.061C148.352 161.98 149.576 161.464 150.533 160.599C151.149 160.143 151.655 159.556 152.013 158.88C152.37 158.204 152.571 157.456 152.6 156.692Z" fill="#231F20"/>
<path d="M140.357 162.75L140.895 163.725L133.074 168.024L132.536 167.05L135.825 165.241L131.562 157.518L132.805 156.836L137.063 164.547L140.357 162.75Z" fill="#231F20"/>
<path d="M122.287 172.158L118.891 162.837L120.224 162.354L123.083 170.201L125.568 160.425L127.092 159.876L130.493 169.193L129.155 169.676L126.297 161.829L123.812 171.601L122.287 172.158Z" fill="#231F20"/>
<path d="M111.718 173.294L114.808 172.72L114.568 171.423C114.344 170.299 114.224 169.157 114.208 168.012C114.184 167.23 114.268 166.449 114.456 165.691C114.596 165.178 114.847 164.703 115.194 164.299C115.455 163.984 115.776 163.725 116.138 163.535C116.458 163.391 116.795 163.287 117.14 163.225C117.254 163.204 117.369 163.19 117.484 163.184C117.56 163.178 117.636 163.178 117.712 163.184L117.778 163.213L117.977 164.27C117.84 164.249 117.7 164.249 117.563 164.27C115.566 164.642 114.991 167.082 115.836 171.592L116.208 173.583L110.538 174.648L108.711 164.902L110.111 164.642L111.718 173.294Z" fill="#231F20"/>
<path d="M106.393 165.121L106.707 175.033L105.287 175.078L105.142 170.535L102.607 170.614C101.913 170.648 101.218 170.599 100.535 170.469C100.071 170.391 99.6342 170.195 99.2679 169.899C99.0102 169.672 98.8076 169.39 98.6756 169.073C98.5519 168.748 98.486 168.405 98.4809 168.057C98.4619 167.71 98.5054 167.361 98.6093 167.029C98.7284 166.718 98.9135 166.436 99.1519 166.203C99.5026 165.881 99.9306 165.655 100.395 165.546C101.07 165.365 101.766 165.268 102.466 165.257L106.393 165.121ZM105.109 169.412L105.005 166.277L102.52 166.356C101.789 166.331 101.062 166.482 100.403 166.798C100.194 166.925 100.025 167.109 99.9164 167.329C99.8079 167.548 99.764 167.793 99.7898 168.037C99.7811 168.277 99.841 168.515 99.9628 168.723C100.085 168.93 100.263 169.099 100.477 169.209C101.158 169.475 101.892 169.577 102.619 169.507L105.109 169.412Z" fill="#231F20"/>
<path d="M87.8384 166.959L88.1656 165.687C88.3106 165.109 88.497 164.762 88.7248 164.638C89.1014 164.505 89.5122 164.505 89.8888 164.638L90.7752 164.865L90.5019 165.943L90.0089 165.819C89.8267 165.774 89.7024 165.786 89.6444 165.86C89.5564 165.996 89.4959 166.147 89.4663 166.306L89.0935 167.777C89.0238 168.08 88.9004 168.368 88.7289 168.627C88.6096 168.82 88.4427 168.979 88.2443 169.09C88.0919 169.166 87.9305 169.223 87.7638 169.259C87.6423 169.286 87.5166 169.286 87.3951 169.259H87.2502L87.2005 169.453L87.3371 169.499C87.4351 169.553 87.5268 169.618 87.6105 169.693C87.744 169.807 87.8526 169.948 87.9295 170.106C88.0266 170.317 88.0788 170.546 88.0827 170.779C88.0985 171.121 88.0608 171.464 87.9709 171.795L87.7472 172.679C87.6762 172.866 87.6647 173.071 87.7141 173.265C87.7638 173.37 87.9129 173.452 88.1615 173.513L88.4597 173.587L88.1822 174.665L87.4946 174.492C86.9063 174.343 86.5418 174.124 86.4051 173.831C86.2743 173.343 86.296 172.827 86.4673 172.352L86.5915 171.865C86.6744 171.551 86.7282 171.324 86.7531 171.184C86.7874 171 86.8081 170.813 86.8152 170.626C86.8355 170.44 86.7979 170.253 86.7075 170.089C86.6061 169.93 86.4771 169.79 86.3264 169.676C86.1112 169.525 85.8675 169.418 85.6098 169.362L83.6836 168.875L82.6274 173.034L81.248 172.683L82.3043 168.528L80.3781 168.037C80.1251 167.965 79.8602 167.945 79.5993 167.979C79.4176 168.001 79.241 168.054 79.0774 168.136C78.9218 168.236 78.7993 168.38 78.7253 168.549C78.6418 168.717 78.5698 168.891 78.5099 169.069C78.4685 169.205 78.4105 169.428 78.3277 169.742L78.2034 170.234C78.1301 170.732 77.9028 171.196 77.5531 171.56C77.2962 171.754 76.8696 171.774 76.2814 171.626L75.5938 171.452L75.8671 170.374L76.1612 170.449C76.2426 170.483 76.3299 170.5 76.4181 170.5C76.5063 170.5 76.5936 170.483 76.6749 170.449C76.812 170.301 76.9002 170.115 76.9276 169.916L77.1513 169.036C77.2271 168.702 77.3542 168.382 77.5282 168.086C77.6412 167.879 77.8015 167.7 77.9963 167.566C78.1379 167.48 78.2914 167.414 78.4519 167.372C78.5623 167.334 78.6805 167.324 78.7957 167.343H78.9366L78.9863 167.149L78.8413 167.103C78.7381 167.048 78.6397 166.985 78.5472 166.913C78.4068 166.807 78.2862 166.677 78.191 166.529C78.084 166.334 78.0178 166.119 77.9963 165.897C77.9651 165.588 77.9918 165.276 78.075 164.976L78.4478 163.506C78.4796 163.395 78.5045 163.282 78.5224 163.168C78.5284 163.133 78.5267 163.097 78.5174 163.063C78.5081 163.028 78.4914 162.997 78.4685 162.969C78.403 162.887 78.3081 162.832 78.2034 162.817L77.7146 162.693L77.988 161.615L78.8744 161.838C79.2705 161.892 79.6359 162.08 79.91 162.371C80.0509 162.589 80.0467 162.982 79.91 163.56L79.5869 164.836C79.5165 165.096 79.4751 165.282 79.4544 165.398C79.4281 165.549 79.4156 165.703 79.4171 165.856C79.408 166.018 79.4516 166.179 79.5414 166.315C79.6583 166.452 79.7985 166.568 79.9556 166.657C80.1785 166.791 80.422 166.887 80.6763 166.942L82.6066 167.43L83.7168 163.056L85.0962 163.403L83.9819 167.781L85.9122 168.268C86.2057 168.351 86.5106 168.386 86.8152 168.371C86.9241 168.363 87.03 168.333 87.1263 168.282C87.2227 168.23 87.3071 168.16 87.3744 168.074C87.4891 167.93 87.5852 167.771 87.6602 167.603C87.7326 167.392 87.7921 167.177 87.8384 166.959Z" fill="#231F20"/>
<path d="M64.2266 166.062L68.4973 157.105L69.7772 157.716L66.19 165.245L74.9137 160.144L76.38 160.842L72.1093 169.796L70.8294 169.189L74.4166 161.648L65.6929 166.744L64.2266 166.062Z" fill="#231F20"/>
<path d="M64.821 159.112L63.6612 158.286C63.8881 157.99 64.0466 157.648 64.1254 157.284C64.2042 156.919 64.2012 156.542 64.1168 156.18C63.9456 155.453 63.3505 154.731 62.3315 154.016C61.3125 153.3 60.4661 152.953 59.7923 152.975C59.4835 152.954 59.1745 153.013 58.8956 153.147C58.6167 153.281 58.3776 153.485 58.2016 153.739C58.0208 153.957 57.9192 154.23 57.9132 154.514C57.9072 154.797 57.9971 155.074 58.1685 155.3C58.7024 155.979 59.3465 156.564 60.0739 157.03L61.8303 158.269L61.1882 159.178L59.3449 157.889C58.7766 157.442 58.1182 157.122 57.4146 156.952C57.1559 156.91 56.8905 156.948 56.6538 157.06C56.4171 157.172 56.2201 157.353 56.0891 157.58C55.3876 158.574 55.8999 159.675 57.6258 160.884C58.2421 161.342 58.9701 161.627 59.7343 161.71C60.0582 161.757 60.3891 161.713 60.6888 161.581C60.9885 161.45 61.2449 161.236 61.4285 160.966L62.5883 161.792C62.2681 162.273 61.8148 162.65 61.2835 162.878C60.7987 163.088 60.263 163.151 59.7426 163.06C59.2323 162.981 58.7331 162.843 58.2555 162.647C57.7867 162.451 57.3409 162.204 56.9258 161.912C55.9692 161.306 55.1993 160.449 54.7014 159.434C54.5133 159.037 54.437 158.597 54.4808 158.161C54.5246 157.724 54.6867 157.308 54.9499 156.956C55.2099 156.544 55.6075 156.237 56.0725 156.089C56.3996 155.974 56.7561 155.974 57.0832 156.089L57.4643 156.258L57.5803 156.093C57.5207 156.048 57.464 156 57.4105 155.948C57.2877 155.82 57.1755 155.682 57.0749 155.535C56.9292 155.335 56.816 155.114 56.7394 154.879C56.6726 154.608 56.6627 154.327 56.7104 154.053C56.7684 153.696 56.9104 153.357 57.1246 153.066C57.3952 152.662 57.7668 152.335 58.2026 152.118C58.6384 151.9 59.1235 151.8 59.61 151.827C60.8533 151.92 62.041 152.379 63.0233 153.144C64.2866 154.032 65.0944 154.998 65.4258 156.035C65.5753 156.559 65.5985 157.111 65.4934 157.646C65.3883 158.18 65.1579 158.683 64.821 159.112Z" fill="#231F20"/>
<path d="M44.2109 150.241L51.2197 143.22L52.2304 144.219L49.0823 147.379L53.2577 151.509L56.4058 148.349L57.4124 149.349L50.4078 156.37L49.3971 155.374L52.4707 152.285L48.2952 148.155L45.2216 151.24L44.2109 150.241Z" fill="#231F20"/>
<path d="M36.5703 140.172L44.6726 134.39L45.5011 135.543L38.7077 140.404L48.8149 140.172L49.7594 141.486L41.6777 147.267L40.8493 146.115L47.6468 141.254L37.5396 141.51L36.5703 140.172Z" fill="#231F20"/>
<path d="M40.5944 126.783L31.2908 130.285L29.6049 125.837C28.7764 123.635 29.1368 122.238 30.686 121.646C31.1277 121.464 31.6237 121.464 32.0654 121.646C32.4397 121.779 32.7675 122.017 33.0098 122.331L33.3122 122.744L33.5028 122.67C33.4779 122.608 33.453 122.525 33.4199 122.422C33.3763 122.231 33.3541 122.036 33.3536 121.84C33.3372 121.574 33.3595 121.306 33.4199 121.047C33.5017 120.76 33.6508 120.497 33.8549 120.279C34.1153 119.991 34.4445 119.774 34.8117 119.647C35.1631 119.514 35.5381 119.454 35.9135 119.471C36.289 119.488 36.6569 119.581 36.9947 119.746C37.7279 120.08 38.3202 120.815 38.7593 121.947L40.5944 126.783ZM31.8334 128.567L34.6833 127.498L33.5152 124.408C33.0015 123.062 32.2394 122.575 31.2286 122.955C30.3422 123.288 30.1544 124.13 30.6653 125.482L31.8334 128.567ZM35.7272 127.105L39.041 125.866L37.7569 122.476C37.5852 121.891 37.2071 121.388 36.6923 121.059C36.4819 120.943 36.248 120.875 36.0079 120.861C35.7678 120.847 35.5275 120.886 35.3047 120.977C34.2 121.398 33.9847 122.51 34.6585 124.313L35.7272 127.105Z" fill="#231F20"/>
<path d="M30.5179 111.903L30.402 110.491C30.8513 110.453 31.2918 110.344 31.7068 110.168C32.1903 109.959 32.6409 109.681 33.0447 109.342C33.5328 108.924 33.8955 108.38 34.0927 107.769C34.352 106.999 34.4396 106.181 34.3496 105.374C34.3043 104.662 34.1361 103.963 33.8525 103.309C33.6476 102.81 33.3268 102.367 32.9163 102.016C32.6024 101.758 32.2447 101.558 31.86 101.425C31.5356 101.314 31.1915 101.27 30.8493 101.297C30.5916 101.307 30.3387 101.37 30.1064 101.481C29.874 101.593 29.6672 101.751 29.4989 101.946C29.162 102.371 28.9421 102.876 28.861 103.412C28.7487 104.052 28.6808 104.699 28.658 105.349C28.6249 106.047 28.5793 106.753 28.5172 107.459C28.4641 108.123 28.3462 108.78 28.1651 109.421C28.0011 110.001 27.6681 110.52 27.2082 110.912C26.6962 111.329 26.0629 111.571 25.4022 111.602C24.8171 111.656 24.2272 111.581 23.674 111.384C23.1208 111.186 22.6177 110.87 22.2002 110.458C21.2342 109.494 20.6715 108.201 20.6261 106.84C20.5325 105.97 20.6028 105.09 20.8333 104.246C21.0162 103.566 21.3714 102.945 21.8647 102.441C22.3125 102.003 22.8377 101.65 23.4139 101.401C24.0216 101.147 24.6665 100.994 25.3235 100.946L25.4395 102.359C25.1083 102.385 24.7799 102.439 24.4578 102.52C24.0999 102.618 23.758 102.766 23.4429 102.962C23.0988 103.164 22.7942 103.427 22.544 103.738C22.2654 104.106 22.0678 104.528 21.9641 104.977C21.8189 105.555 21.7768 106.153 21.8398 106.745C21.8685 107.766 22.2966 108.735 23.0328 109.446C23.2974 109.727 23.6188 109.95 23.9757 110.098C24.3327 110.247 24.7172 110.319 25.104 110.309C25.3522 110.299 25.5955 110.236 25.8176 110.125C26.0397 110.014 26.2356 109.857 26.3922 109.665C26.7202 109.239 26.9315 108.735 27.0053 108.203C27.1094 107.561 27.1772 106.915 27.2082 106.266C27.2455 105.568 27.2994 104.862 27.3781 104.151C27.444 103.487 27.5716 102.83 27.7592 102.189C27.9306 101.606 28.2706 101.086 28.7367 100.694C29.2528 100.278 29.8882 100.037 30.5511 100.005C31.1631 99.9482 31.7802 100.026 32.3591 100.232C32.938 100.438 33.4646 100.768 33.9022 101.198C34.8687 102.099 35.421 103.456 35.5591 105.27C35.6572 106.222 35.5729 107.183 35.3106 108.104C35.1004 108.873 34.7083 109.581 34.1673 110.168C33.6836 110.673 33.1107 111.085 32.4772 111.383C31.8602 111.67 31.1968 111.847 30.5179 111.903Z" fill="#231F20"/>
<path d="M25.0402 95.4579L30.8974 96.0402C31.7627 96.1898 32.6525 96.002 33.3828 95.5157C33.6838 95.2776 33.9307 94.9785 34.1071 94.6382C34.2834 94.2979 34.3853 93.9241 34.4059 93.5416C34.457 93.0838 34.4095 92.6205 34.2666 92.1825C34.1237 91.7445 33.8888 91.342 33.5775 91.0017C32.9451 90.2748 31.9785 89.8467 30.6779 89.7173L25.6284 89.2176L25.7693 87.8052L35.6652 88.7881L35.5451 89.9981L33.4242 89.7875V89.9899C34.0934 90.4201 34.6741 90.9738 35.135 91.6212C35.5451 92.2926 35.7049 93.0865 35.5865 93.8637C35.3103 96.5482 33.6272 97.7376 30.537 97.432L24.8828 96.8703L25.0402 95.4579Z" fill="#231F20"/>
<path d="M26.8856 82.8746L28.9567 83.4074L29.0065 83.2092C28.401 82.8458 27.8945 82.3394 27.5318 81.7346C27.3628 81.47 27.2493 81.1741 27.1981 80.8646C27.1468 80.5551 27.1589 80.2385 27.2336 79.9338C27.3023 79.5983 27.4511 79.2842 27.6675 79.0182C27.8838 78.7521 28.1612 78.542 28.4762 78.4056C29.2829 78.1373 30.155 78.1373 30.9616 78.4056L31.6492 78.5832L31.2971 79.9545L30.8042 79.8305C30.259 79.6732 29.6842 79.6463 29.1266 79.7521C28.8874 79.798 28.6678 79.9148 28.4963 80.0872C28.3248 80.2597 28.2096 80.4797 28.1656 80.7186C28.0984 81.0357 28.1145 81.3647 28.2125 81.6737C28.3105 81.9828 28.487 82.2613 28.7248 82.4822C29.4166 83.1596 30.2921 83.6205 31.2433 83.8081L36.5496 85.1711L36.1933 86.5465L26.5625 84.0683L26.8856 82.8746Z" fill="#231F20"/>
<path d="M30.8285 73.7477L30.0207 75.8129L28.981 75.3998L29.7887 73.3347L26.7607 72.1658C26.04 71.8904 25.5885 71.5848 25.4062 71.2489C25.2239 70.9184 25.2861 70.3484 25.6009 69.5472L26.2595 67.8455L27.3034 68.2585L26.6406 69.9561C26.5999 70.0287 26.5767 70.1098 26.5728 70.1929C26.5689 70.276 26.5845 70.3589 26.6182 70.435C26.652 70.5111 26.703 70.5783 26.7673 70.6314C26.8315 70.6845 26.9073 70.7219 26.9885 70.7408L30.3024 72.0212L31.1806 69.7578L32.2244 70.1708L31.3421 72.4343L39.5728 75.6188L39.0592 76.9363L30.8285 73.7477Z" fill="#231F20"/>
<path d="M42.7643 56.6287L43.775 57.306L39.4795 63.6915L38.4688 63.0142L42.7643 56.6287Z" fill="#231F20"/>
<path d="M159.675 144.138C161.942 144.138 163.78 142.305 163.78 140.045C163.78 137.784 161.942 135.951 159.675 135.951C157.408 135.951 155.57 137.784 155.57 140.045C155.57 142.305 157.408 144.138 159.675 144.138Z" fill="#231F20"/>
<path d="M41.4019 64.344C43.669 64.344 45.5069 62.5115 45.5069 60.2509C45.5069 57.9903 43.669 56.1577 41.4019 56.1577C39.1347 56.1577 37.2969 57.9903 37.2969 60.2509C37.2969 62.5115 39.1347 64.344 41.4019 64.344Z" fill="#231F20"/>
</g>
<defs>
<clipPath id="clip0_12657_34111">
<rect width="160" height="150.526" fill="white" transform="translate(20.5859 24.5518)"/>
</clipPath>
</defs>
</svg>
