<svg width="165" height="50" viewBox="0 0 165 50" fill="none" xmlns="http://www.w3.org/2000/svg">
<path d="M100.785 29.6379L99.0006 20.3899C98.6041 18.188 97.8111 17.7476 96.4235 17.7476C95.0358 17.7476 94.2429 18.4082 93.8464 20.3899L92.0623 29.6379C91.0711 34.7022 89.287 36.684 85.7188 36.684V36.0234C86.3135 35.8032 86.9082 34.7022 88.0976 29.4177L90.0799 20.1697C90.8729 16.6467 92.657 14.2246 96.4235 14.2246C99.9917 14.2246 101.776 16.4265 102.569 20.1697L104.551 29.4177C105.741 34.4821 106.335 35.8032 106.93 36.0234V36.684C103.56 36.4638 101.776 34.7022 100.785 29.6379Z" fill="black"/>
<path d="M42.9011 17.5232H39.5311V25.0097H42.9011C44.6852 25.0097 46.2711 23.6885 46.2711 21.2664C46.2711 19.0645 44.6852 17.5232 42.9011 17.5232ZM39.5311 29.6336C39.5311 35.3586 38.1434 36.4595 34.7734 36.4595V36.0191C35.3681 35.7989 35.9629 35.5788 35.9629 29.4134V20.1655C35.9629 15.9819 35.7646 15.1011 34.7734 15.1011V14.4406H43.6941C47.2623 14.4406 49.8394 17.5232 49.8394 21.4866C49.8394 25.45 47.0641 28.3125 43.6941 28.3125H39.5311V29.6336Z" fill="black"/>
<path d="M124.176 29.6379L123.78 28.0966H115.057L114.661 29.6379C113.472 34.7022 112.084 36.684 108.516 36.684V36.0234C109.11 35.8032 109.705 34.7022 110.894 29.4177L112.877 20.1697C113.67 16.4265 115.652 14.2246 119.22 14.2246C122.789 14.2246 124.771 16.4265 125.564 20.1697L127.546 29.4177C128.736 34.4821 129.33 35.8032 129.925 36.0234V36.684C126.753 36.4638 125.167 34.7022 124.176 29.6379ZM122.194 20.6101C121.599 18.188 120.806 17.5275 119.419 17.5275C117.833 17.5275 117.04 18.188 116.643 20.6101L115.85 24.7937H123.383L122.194 20.6101Z" fill="black"/>
<path d="M52.6162 20.1653C52.6162 15.9817 52.4179 15.3211 51.625 15.1009V14.4404H56.1844V28.3123L56.3827 28.5325L69.268 14H69.8627V29.6335C69.8627 35.7988 70.4574 36.019 71.0521 36.2392V36.8997C67.6821 36.8997 66.4927 35.7988 66.4927 30.0738C66.4927 28.5325 66.4927 22.5874 66.4927 22.5874L66.2945 22.3672L53.4091 36.8997H52.8144V20.1653H52.6162Z" fill="black"/>
<path d="M72.6406 14.4406H87.3101V19.0645H86.7154C86.5171 17.9636 85.526 17.7434 81.9577 17.7434H77.5965V29.4134C77.5965 35.3586 76.2089 36.6797 72.6406 36.6797V36.0191C73.2353 35.7989 73.83 35.5788 73.83 29.1933V20.3857C73.83 15.9819 73.6318 15.3213 72.6406 15.1011V14.4406Z" fill="black"/>
</svg>
