<svg width="165" height="50" viewBox="0 0 165 50" fill="none" xmlns="http://www.w3.org/2000/svg">
<path d="M25.2891 15.7171V35.0345H28.9154V31.071H32.86C34.0037 31.0324 35.1171 30.662 36.0843 29.9983C37.2837 29.2395 38.2441 28.1052 38.8396 26.7439C39.409 25.4972 39.6413 24.1009 39.5096 22.7168C39.4356 21.7521 39.1941 20.8114 38.7978 19.9442C38.1756 18.5703 37.1823 17.435 35.9503 16.6898C34.9317 16.0488 33.7777 15.7043 32.6003 15.6898L25.2891 15.7171ZM28.9154 27.153V19.6624H31.6456C32.1818 19.6444 32.7182 19.6902 33.2452 19.7987C33.8659 19.9317 34.4361 20.262 34.8835 20.7476C35.3309 21.2332 35.6352 21.8522 35.7577 22.5259C35.8618 23.0005 35.8769 23.4929 35.8021 23.9739C35.7273 24.4549 35.5641 24.9147 35.3222 25.3258C35.076 25.7478 34.7554 26.1128 34.3789 26.3998C34.0023 26.6869 33.5772 26.8903 33.128 26.9985C32.8244 27.0611 32.5156 27.0885 32.2067 27.0803L28.9154 27.153Z" fill="black"/>
<path d="M107.868 35.3686C110.325 35.4398 112.707 34.4487 114.491 32.6135C116.274 30.7782 117.313 28.2492 117.378 25.5827C117.444 22.9161 116.531 20.3306 114.84 18.3948C113.149 16.4589 110.819 15.3315 108.363 15.2603H108.103C105.666 15.2355 103.317 16.2507 101.562 18.0875C100.26 19.4748 99.3639 21.2474 98.9844 23.1843C98.6049 25.1211 98.7594 27.1364 99.4284 28.9786C100.097 30.8208 101.251 32.4083 102.746 33.5431C104.241 34.6779 106.011 35.3096 107.835 35.3595L107.868 35.3686ZM104.184 21.0965C104.698 20.542 105.31 20.1063 105.984 19.8157C106.657 19.5251 107.378 19.3856 108.103 19.4056C109.542 19.4176 110.919 20.048 111.931 21.1587C112.943 22.2695 113.509 23.7702 113.505 25.3327C113.492 26.8816 112.918 28.3628 111.907 29.4565C110.896 30.5501 109.53 31.1684 108.103 31.1779C107.028 31.1689 105.979 30.8154 105.088 30.1618C104.197 29.5082 103.503 28.5836 103.095 27.504C102.686 26.4244 102.58 25.2378 102.79 24.093C103 22.9483 103.517 21.8964 104.276 21.0692" fill="black"/>
<path d="M135.35 15.7258V31.0797H131.246V15.7258H127.553V31.0797H123.449V15.7258H119.781V35.0432H139.002V17.6439C138.997 17.3747 138.941 17.1094 138.838 16.8646C138.735 16.6197 138.586 16.4005 138.402 16.2207C138.217 16.0408 138 15.904 137.765 15.8189C137.53 15.7337 137.281 15.702 137.034 15.7258H135.35Z" fill="black"/>
<path d="M88.801 19.6988H97.9129V15.6898H85.1328V35.0345H88.801V19.6988Z" fill="black"/>
<path d="M75.5385 25.3695C75.7646 25.0604 75.9907 24.724 76.0661 24.5968C76.7938 23.3839 77.0722 21.9173 76.8454 20.491C76.6186 19.0647 75.9035 17.7841 74.8434 16.9062C73.5148 16.0323 71.9719 15.6199 70.4214 15.7244H60.5391V35.0418H70.4214C71.5102 35.0418 73.8384 34.6418 74.8266 33.8237C75.8867 32.9457 76.6019 31.6652 76.8286 30.2389C77.0554 28.8126 76.777 27.3459 76.0494 26.1331C75.974 26.0058 75.7227 25.6513 75.5217 25.3695H75.5385ZM64.1654 19.6515H71.4599C71.9435 19.6542 72.4067 19.8632 72.7496 20.2333C72.9694 20.4863 73.1178 20.8023 73.1771 21.144C73.2365 21.4857 73.2043 21.8387 73.0844 22.1612C72.9645 22.4836 72.762 22.762 72.5008 22.9633C72.2396 23.1646 71.9306 23.2803 71.6107 23.2968H64.1654V19.6515ZM72.7664 30.4965C72.5991 30.6835 72.3985 30.8316 72.1767 30.9316C71.955 31.0316 71.7168 31.0816 71.4767 31.0783H64.1821V27.4421H71.6274C71.9457 27.4601 72.2528 27.5763 72.5124 27.7771C72.772 27.9779 72.9734 28.2549 73.093 28.5756C73.2126 28.8964 73.2454 29.2475 73.1875 29.5877C73.1297 29.928 72.9836 30.2433 72.7664 30.4965Z" fill="black"/>
<path d="M41.6406 17.6447C41.6453 17.3747 41.7013 17.1086 41.805 16.8631C41.9088 16.6175 42.0581 16.3979 42.2436 16.2179C42.4291 16.0379 42.6468 15.9013 42.8831 15.8168C43.1195 15.7322 43.3693 15.7016 43.6171 15.7266H45.2921V28.3443C45.2921 28.3443 53.7675 16.4357 54.3621 15.7266H57.8963V35.044H54.27V22.3718L45.2921 35.044H41.6574L41.6406 17.6447Z" fill="black"/>
</svg>
