<svg width="165" height="50" viewBox="0 0 165 50" fill="none" xmlns="http://www.w3.org/2000/svg">
<path d="M15.0391 25.4462H41.172V10.6011H15.0391V25.4462Z" fill="black"/>
<path d="M15.0391 39.7126H41.1739V25.1585H15.0391V39.7126Z" fill="black"/>
<rect x="20.3203" y="25.1262" width="15.8449" height="1.3204" fill="white"/>
<path d="M57.8478 17.8726C60.6916 17.8726 62.477 19.943 62.477 22.8038C62.477 25.7828 60.6916 27.4983 57.8478 27.4983H52.1912V32.3679H49.7812V17.8726H57.8478ZM57.9858 25.1022C59.2341 25.1022 60.0159 24.1387 60.0159 22.8426C60.0159 21.4132 59.2341 20.2713 57.8478 20.2713H52.1912V25.1022H57.9858Z" fill="black"/>
<path d="M71.408 32.7703C67.2631 32.7703 63.8281 29.6998 63.8281 25.0994C63.8281 20.5587 67.2631 17.4272 71.408 17.4272C75.5722 17.4272 78.9523 20.5587 78.9523 25.0994C78.9523 29.6998 75.5722 32.7703 71.408 32.7703ZM71.408 19.9022C68.3877 19.9022 66.3233 22.1812 66.3233 25.0994C66.3233 28.0958 68.302 30.3154 71.408 30.3154C74.496 30.3154 76.4537 28.0772 76.4537 25.0994C76.4537 22.1812 74.496 19.9022 71.408 19.9022Z" fill="black"/>
<path d="M88.9465 32.7548C84.5915 32.7548 81.3125 29.6817 81.3125 25.0834C81.3125 20.5606 84.6413 17.4291 88.9465 17.4291C91.5152 17.4291 93.3513 18.2429 95.0019 19.592L93.7139 21.7211C92.5186 20.6938 91.01 19.942 89.0166 19.942C85.8396 19.942 83.8627 22.183 83.8627 25.0834C83.8627 28.079 85.8586 30.2397 89.0498 30.2397C91.0438 30.2397 92.6219 29.525 93.8196 28.5042L95.1026 30.6288C93.4564 31.9806 91.5152 32.7548 88.9465 32.7548Z" fill="black"/>
<path d="M115.938 28.8487L114.447 32.3679H111.844L118.174 17.8713H120.706L127.056 32.3679H124.453L122.963 28.8487H115.938ZM116.944 26.4923H121.959L119.459 20.6163L116.944 26.4923Z" fill="black"/>
<path d="M139.819 32.3679V26.1665H131.303V32.3679H128.891V17.8726H131.303V23.7892H139.819V17.8726H142.232V32.3679H139.819Z" fill="black"/>
<path d="M145.805 32.3679V17.8726H148.219V24.637L154.757 17.8726H157.719L150.993 24.8522L157.998 32.3679H154.757L148.219 25.3335V32.3679H145.805Z" fill="black"/>
<path d="M105.89 23.1903H100.24V20.1342H109.547V17.8639H97.8281V32.3472H105.89C108.73 32.3472 110.688 30.6263 110.688 27.769C110.688 24.7958 108.73 23.1903 105.89 23.1903ZM106.029 29.9511H100.24V25.5882H106.029C107.54 25.5882 108.399 26.476 108.399 27.769C108.399 29.197 107.716 29.9511 106.029 29.9511Z" fill="black"/>
</svg>
