<svg width="39" height="39" viewBox="0 0 39 39" fill="none" xmlns="http://www.w3.org/2000/svg">
<circle cx="19.5" cy="19.4997" r="18.5" fill="#FFC000"/>
<path d="M19.3919 0.238007C8.84996 0.238007 0.273438 8.8147 0.273438 19.3569C0.273438 29.8995 8.84996 38.4757 19.3919 38.4757C29.9343 38.4757 38.5104 29.8991 38.5104 19.3569C38.5104 8.8147 29.9339 0.238007 19.3919 0.238007ZM19.3919 37.1903C9.55867 37.1903 1.55889 29.1903 1.55889 19.3569C1.55889 9.52342 9.55867 1.52348 19.3919 1.52348C29.2252 1.52348 37.225 9.52342 37.225 19.3569C37.225 29.1903 29.2252 37.1903 19.3919 37.1903Z" fill="black"/>
<path d="M27.2544 22.4626H11.5333C11.1781 22.4626 10.8906 22.7505 10.8906 23.1053C10.8906 27.7943 14.7046 31.6092 19.393 31.6092C24.0819 31.6092 27.8971 27.7947 27.8971 23.1053C27.8971 22.7505 27.6092 22.4626 27.2544 22.4626ZM19.393 30.3237C15.6301 30.3237 12.5309 27.4284 12.2048 23.7481H26.583C26.2565 27.4284 23.1564 30.3237 19.393 30.3237Z" fill="black"/>
<path d="M14.7407 13.6219C14.7407 11.8887 13.3301 10.4781 11.5969 10.4781C9.86369 10.4781 8.45312 11.8887 8.45312 13.6219C8.45312 15.3552 9.86369 16.7658 11.5969 16.7658C13.3305 16.7658 14.7407 15.3552 14.7407 13.6219ZM9.73857 13.6219C9.73857 12.597 10.572 11.7636 11.5969 11.7636C12.6218 11.7636 13.4552 12.597 13.4552 13.6219C13.4552 14.6469 12.6214 15.4803 11.5969 15.4803C10.5724 15.4803 9.73857 14.6465 9.73857 13.6219Z" fill="black"/>
<path d="M26.8235 10.4781C25.0898 10.4781 23.6797 11.8887 23.6797 13.6219C23.6797 15.3552 25.0898 16.7658 26.8235 16.7658C28.5571 16.7658 29.9677 15.3552 29.9677 13.6219C29.9677 11.8887 28.5567 10.4781 26.8235 10.4781ZM26.8235 15.4803C25.7985 15.4803 24.9651 14.6469 24.9651 13.6219C24.9651 12.597 25.7985 11.7636 26.8235 11.7636C27.8484 11.7636 28.6822 12.597 28.6822 13.6219C28.6822 14.6469 27.848 15.4803 26.8235 15.4803Z" fill="black"/>
</svg>
