<svg xmlns="http://www.w3.org/2000/svg" viewBox="0 0 165 50" style="enable-background:new 0 0 165 50;">
<path d="M85.6,4.8V12h-6.8V4.8h-5v19.1h5v-7.1h6.8v7.1h5v-7.1V12V4.8H85.6z"/>
<path d="M109.1,9.7V4.8H93.7V12v4.8v7.1h0.1h4.8h10.5v-4.8H98.7v-2.3h10.5V12H98.7V9.7H109.1z"/>
<path d="M57.3,27v7.2h-6.8V27h-5v19.1h5V39h6.8v7.1h5V39v-4.8V27H57.3z"/>
<path d="M92.3,41.3V27h-5v19.1h0.1h4.9h9.6v-4.8H92.3z"/>
<path d="M120,31.9V27h-15.5v7.2V39v7.1h0.1h4.9H120v-4.8h-10.5V39H120v-4.8h-10.5v-2.3H120z"/>
<path d="M57.3,27.1v7.2h-6.8v-7.2h-5v19.1h5v-7.2h6.8v7.2h5v-7.2v-4.8v-7.2H57.3z"/>
<path d="M92.3,41.4V27.1h-5v19.1h0.1h4.9h9.6v-4.8H92.3z"/>
<path d="M120,31.9v-4.8h-15.4v7.2v4.8v7.2h0.1h4.9H120v-4.8h-10.5v-2.3H120v-4.8h-10.5v-2.3H120z"/>
<path d="M71,4.8h-6.3H53.5v4.8h6.3V24h5V9.7V9.7H71V4.8z"/>
<path d="M82.4,29.4c-4.1-4-10.8-4-15,0s-4.1,10.5,0,14.5c4.1,4,10.8,4,15,0C86.5,39.9,86.5,33.4,82.4,29.4z M74.9,42
	c-3,0-5.5-2.4-5.5-5.3c0-2.9,2.5-5.3,5.5-5.3c3,0,5.5,2.4,5.5,5.3C80.4,39.6,78,42,74.9,42z"/>
</svg>
