<svg width="165" height="50" viewBox="0 0 165 50" fill="none" xmlns="http://www.w3.org/2000/svg">
<g clip-path="url(#clip0_12879_19803)">
<path d="M10.2398 30.1331L18.4542 22.1569L0.0859375 4.32898H16.7428L34.997 22.0432L26.659 30.1331H10.2398Z" fill="black"/>
<path d="M43.5855 46.5429L26.6719 30.1265H43.3288L60.2329 46.5429H43.5855Z" fill="black"/>
<path d="M122.695 18.8348C122.618 19.8105 122.542 20.7862 122.438 21.7714C122.343 22.7471 122.191 23.8175 121.991 24.8027C121.449 27.6446 119.966 29.4444 117.171 29.596H116.325V26.2142C117.874 26.2615 118.321 25.6647 118.606 24.1964C118.797 23.2302 118.968 21.9514 119.082 20.6252C119.262 18.92 119.396 17.2149 119.491 15.5003H129.863V29.577H126.393V18.8348H122.695ZM56.7896 15.5003V18.8253H52.7775V29.577H49.3168V18.8253H45.3047V15.5003H56.7896ZM108.177 18.7211C105.924 18.7211 104.621 20.3031 104.621 22.5292C104.621 24.7459 105.895 26.3373 108.177 26.3373C110.459 26.3373 111.695 24.7269 111.695 22.5008C111.695 20.2936 110.44 18.7116 108.177 18.7116V18.7211ZM108.196 29.6907C104.013 29.6907 101.16 26.7636 101.16 22.5292C101.16 18.2948 103.965 15.3772 108.196 15.3772C112.427 15.3772 115.174 18.2759 115.174 22.5008C115.174 26.7257 112.379 29.6907 108.196 29.6907ZM92.1189 20.4547H92.5277L96.5683 15.5003H101.018L95.3989 22.0366L101.484 29.5675H96.9011L92.4612 23.647H92.1189V29.5675H88.6582V15.5003H92.1189V20.4547ZM65.0229 15.5003C68.0653 15.5003 70.4041 17.4991 70.4041 20.6441C70.4041 23.7891 68.0273 25.7595 64.9849 25.7595H62.57V29.5675H59.1094V15.5003H65.0229ZM66.9244 20.6536C66.9244 19.4126 66.2304 18.8348 65.0324 18.8348H62.5415V22.4345H65.0895C66.2399 22.4345 66.9339 21.8377 66.9339 20.6536H66.9244ZM81.3185 15.5003H84.9028V29.5675H81.5657V20.7199L76.3367 29.5675H72.7524V15.5003H76.099V24.3006L81.3185 15.5003ZM143.059 22.5008C143.059 20.2747 141.804 18.7116 139.542 18.7116C137.288 18.7116 135.986 20.3031 135.986 22.5292C135.986 24.7459 137.26 26.3373 139.551 26.3373C141.833 26.3373 143.069 24.708 143.069 22.5008H143.059ZM139.561 29.6907C135.396 29.6907 132.525 26.7636 132.525 22.5387C132.525 18.3138 135.32 15.3867 139.561 15.3867C143.801 15.3867 146.529 18.2854 146.529 22.5103C146.529 26.7352 143.725 29.6907 139.561 29.6907ZM155.02 15.5003C158.052 15.5003 160.391 17.4991 160.391 20.6441C160.391 23.7891 158.024 25.7595 154.982 25.7595H152.567V29.5675H149.096V15.5003H155.02ZM156.921 20.6536C156.921 19.4126 156.237 18.8348 155.048 18.8348H152.567V22.4345H155.105C156.246 22.4345 156.94 21.8377 156.94 20.6536H156.921Z" fill="black"/>
</g>
<defs>
<clipPath id="clip0_12879_19803">
<rect width="160.674" height="42.6279" fill="white" transform="translate(0 4)"/>
</clipPath>
</defs>
</svg>
