<svg width="135" height="135" viewBox="0 0 135 135" fill="none" xmlns="http://www.w3.org/2000/svg">
<circle cx="67.4615" cy="67.0696" r="53" transform="rotate(18.485 67.4615 67.0696)" fill="#F13605"/>
<path d="M32.8102 68.1378L31.8017 67.8007L31.4646 68.8091L32.4731 69.1463L32.8102 68.1378ZM40.1342 46.2296L40.4714 45.2211L39.4629 44.884L39.1258 45.8925L40.1342 46.2296ZM42.4815 47.0143L43.49 47.3514L43.8271 46.343L42.8187 46.0058L42.4815 47.0143ZM35.7853 67.0447L34.7768 66.7075L34.4397 67.716L35.4482 68.0531L35.7853 67.0447ZM47.9913 71.1252L48.9998 71.4623L49.3369 70.4538L48.3284 70.1167L47.9913 71.1252ZM47.3635 73.003L47.0264 74.0115L48.0348 74.3486L48.372 73.3402L47.3635 73.003ZM33.8187 68.4749L41.1427 46.5667L39.1258 45.8925L31.8017 67.8007L33.8187 68.4749ZM39.7971 47.2381L42.1444 48.0228L42.8187 46.0058L40.4714 45.2211L39.7971 47.2381ZM41.4731 46.6772L34.7768 66.7075L36.7938 67.3818L43.49 47.3514L41.4731 46.6772ZM35.4482 68.0531L47.6541 72.1336L48.3284 70.1167L36.1224 66.0362L35.4482 68.0531ZM46.9828 70.788L46.355 72.6659L48.372 73.3402L48.9998 71.4623L46.9828 70.788ZM47.7006 71.9946L33.1473 67.1293L32.4731 69.1463L47.0264 74.0115L47.7006 71.9946ZM58.1364 52.2478L58.4735 51.2393L57.465 50.9022L57.1279 51.9107L58.1364 52.2478ZM60.4837 53.0325L61.4921 53.3696L61.8293 52.3612L60.8208 52.024L60.4837 53.0325ZM53.1596 74.9407L52.8225 75.9492L53.831 76.2863L54.1681 75.2778L53.1596 74.9407ZM50.8123 74.156L49.8039 73.8188L49.4667 74.8273L50.4752 75.1644L50.8123 74.156ZM57.7992 53.2563L60.1465 54.041L60.8208 52.024L58.4735 51.2393L57.7992 53.2563ZM59.4752 52.6954L52.1512 74.6036L54.1681 75.2778L61.4921 53.3696L59.4752 52.6954ZM53.4968 73.9322L51.1495 73.1475L50.4752 75.1644L52.8225 75.9492L53.4968 73.9322ZM51.8208 74.4931L59.1448 52.5849L57.1279 51.9107L49.8039 73.8188L51.8208 74.4931ZM82.0666 60.2478L82.5379 61.201L84.8511 60.0575L82.4038 59.2393L82.0666 60.2478ZM70.6035 65.9147L70.1323 64.9615L69.4001 65.3234L69.561 66.1242L70.6035 65.9147ZM73.8037 81.8421L73.4666 82.8506L75.2079 83.4327L74.8462 81.6326L73.8037 81.8421ZM71.1747 80.9632L70.1294 81.1583L70.2442 81.7733L70.8376 81.9717L71.1747 80.9632ZM68.5572 66.9356L69.6025 66.7406L69.3449 65.3599L68.0859 65.9824L68.5572 66.9356ZM62.6795 69.842L62.2082 68.8888L61.8114 69.085L61.671 69.5048L62.6795 69.842ZM60.1893 77.2908L59.8522 78.2992L60.8607 78.6364L61.1978 77.6279L60.1893 77.2908ZM57.842 76.506L56.8336 76.1689L56.4964 77.1774L57.5049 77.5145L57.842 76.506ZM65.166 54.5978L65.5032 53.5894L64.4947 53.2522L64.1576 54.2607L65.166 54.5978ZM67.5134 55.3826L68.5218 55.7197L68.859 54.7112L67.8505 54.3741L67.5134 55.3826ZM63.5061 67.3695L62.4976 67.0323L61.6791 69.4806L63.9845 68.3191L63.5061 67.3695ZM79.4064 59.3585L79.7435 58.35L79.3235 58.2096L78.9279 58.4088L79.4064 59.3585ZM81.5954 59.2946L70.1323 64.9615L71.0747 66.8679L82.5379 61.201L81.5954 59.2946ZM69.561 66.1242L72.7612 82.0516L74.8462 81.6326L71.646 65.7052L69.561 66.1242ZM74.1409 80.8336L71.5119 79.9548L70.8376 81.9717L73.4666 82.8506L74.1409 80.8336ZM72.22 80.7682L69.6025 66.7406L67.512 67.1306L70.1294 81.1583L72.22 80.7682ZM68.0859 65.9824L62.2082 68.8888L63.1508 70.7951L69.0286 67.8888L68.0859 65.9824ZM61.671 69.5048L59.1809 76.9536L61.1978 77.6279L63.688 70.1791L61.671 69.5048ZM60.5265 76.2823L58.1792 75.4976L57.5049 77.5145L59.8522 78.2992L60.5265 76.2823ZM58.8505 76.8432L66.1745 54.935L64.1576 54.2607L56.8336 76.1689L58.8505 76.8432ZM64.8289 55.6063L67.1762 56.391L67.8505 54.3741L65.5032 53.5894L64.8289 55.6063ZM66.5049 55.0454L62.4976 67.0323L64.5145 67.7066L68.5218 55.7197L66.5049 55.0454ZM63.9845 68.3191L79.8848 60.3081L78.9279 58.4088L63.0276 66.4199L63.9845 68.3191ZM79.0692 60.3669L81.7295 61.2563L82.4038 59.2393L79.7435 58.35L79.0692 60.3669ZM78.0142 83.2497L77.0057 82.9126L76.6686 83.921L77.6771 84.2582L78.0142 83.2497ZM85.3382 61.3415L85.6753 60.333L84.6669 59.9959L84.3297 61.0044L85.3382 61.3415ZM100.517 66.416L101.526 66.7531L101.863 65.7447L100.855 65.4075L100.517 66.416ZM99.8897 68.2938L99.5525 69.3023L100.561 69.6394L100.898 68.631L99.8897 68.2938ZM87.0577 64.0041L87.3949 62.9956L86.3864 62.6585L86.0493 63.6669L87.0577 64.0041ZM84.4943 71.6719L83.4859 71.3348L83.1487 72.3433L84.1572 72.6804L84.4943 71.6719ZM94.1965 74.9154L95.205 75.2526L95.5421 74.2441L94.5337 73.9069L94.1965 74.9154ZM93.5688 76.7933L93.2316 77.8017L94.2401 78.1389L94.5772 77.1304L93.5688 76.7933ZM83.8666 73.5498L84.2037 72.5413L83.1952 72.2042L82.8581 73.2126L83.8666 73.5498ZM80.9893 82.1566L79.9808 81.8194L79.6437 82.8279L80.6521 83.165L80.9893 82.1566ZM93.8212 86.4463L94.8297 86.7835L95.1668 85.775L94.1584 85.4379L93.8212 86.4463ZM93.1934 88.3242L92.8563 89.3327L93.8648 89.6698L94.2019 88.6613L93.1934 88.3242ZM79.0227 83.5868L86.3467 61.6786L84.3297 61.0044L77.0057 82.9126L79.0227 83.5868ZM85.0011 62.35L100.18 67.4245L100.855 65.4075L85.6753 60.333L85.0011 62.35ZM99.509 66.0789L98.8812 67.9567L100.898 68.631L101.526 66.7531L99.509 66.0789ZM100.227 67.2854L87.3949 62.9956L86.7206 65.0125L99.5525 69.3023L100.227 67.2854ZM86.0493 63.6669L83.4859 71.3348L85.5028 72.0091L88.0662 64.3412L86.0493 63.6669ZM84.1572 72.6804L93.8594 75.9239L94.5337 73.9069L84.8315 70.6635L84.1572 72.6804ZM93.1881 74.5783L92.5603 76.4561L94.5772 77.1304L95.205 75.2526L93.1881 74.5783ZM93.9059 75.7848L84.2037 72.5413L83.5294 74.5582L93.2316 77.8017L93.9059 75.7848ZM82.8581 73.2126L79.9808 81.8194L81.9977 82.4937L84.875 73.8869L82.8581 73.2126ZM80.6521 83.165L93.4841 87.4548L94.1584 85.4379L81.3264 81.1481L80.6521 83.165ZM92.8127 86.1092L92.185 87.987L94.2019 88.6613L94.8297 86.7835L92.8127 86.1092ZM93.5306 87.3157L78.3513 82.2412L77.6771 84.2582L92.8563 89.3327L93.5306 87.3157Z" fill="white"/>
</svg>
