<svg width="134" height="91" viewBox="0 0 134 91" fill="none" xmlns="http://www.w3.org/2000/svg">
<rect width="122.249" height="62.6268" transform="matrix(0.970909 -0.23945 0.244416 0.969671 0 29.5656)" fill="#4205F1"/>
<path d="M52.6542 58.4396L53.568 58.9886L54.1553 58.0112L53.133 57.4931L52.6542 58.4396ZM51.4337 60.4709L50.9434 61.4114L51.8332 61.8759L52.3475 61.0199L51.4337 60.4709ZM38.8932 53.9234L38.0139 53.3206L37.3367 54.3072L38.4029 54.8638L38.8932 53.9234ZM46.8582 42.3186L47.4045 41.4095L46.5441 40.8926L45.979 41.7159L46.8582 42.3186ZM48.9 43.5454L49.7719 44.1587L50.4286 43.2266L49.4462 42.6363L48.9 43.5454ZM42.1554 53.1188L41.2835 52.5055L40.5772 53.508L41.6767 54.0652L42.1554 53.1188ZM51.7404 57.8905L50.5199 59.9218L52.3475 61.0199L53.568 58.9886L51.7404 57.8905ZM51.924 59.5304L39.3835 52.9829L38.4029 54.8638L50.9434 61.4114L51.924 59.5304ZM39.7725 54.5261L47.7375 42.9214L45.979 41.7159L38.0139 53.3206L39.7725 54.5261ZM46.312 43.2278L48.3538 44.4545L49.4462 42.6363L47.4045 41.4095L46.312 43.2278ZM48.0281 42.9321L41.2835 52.5055L43.0274 53.7321L49.7719 44.1587L48.0281 42.9321ZM41.6767 54.0652L52.1754 59.386L53.133 57.4931L42.6342 52.1724L41.6767 54.0652ZM71.9976 29.8978L72.4058 28.9187L71.423 28.5073L71.0146 29.4857L71.9976 29.8978ZM74.1651 30.8051L75.1482 31.2172L75.557 30.2379L74.5733 29.8261L74.1651 30.8051ZM60.4556 63.6428L60.0475 64.6218L61.0302 65.0332L61.4387 64.0549L60.4556 63.6428ZM58.2881 62.7354L57.3051 62.3233L56.8962 63.3026L57.88 63.7145L58.2881 62.7354ZM71.5894 30.8768L73.7569 31.7842L74.5733 29.8261L72.4058 28.9187L71.5894 30.8768ZM73.1821 30.393L59.4726 63.2307L61.4387 64.0549L75.1482 31.2172L73.1821 30.393ZM60.8638 62.6637L58.6963 61.7564L57.88 63.7145L60.0475 64.6218L60.8638 62.6637ZM59.2712 63.1475L72.9807 30.3099L71.0146 29.4857L57.3051 62.3233L59.2712 63.1475ZM79.9757 35.8814L79.062 35.3323L78.4747 36.3097L79.497 36.8278L79.9757 35.8814ZM81.1963 33.85L81.6866 32.9095L80.7968 32.445L80.2825 33.301L81.1963 33.85ZM93.7368 40.3976L94.6161 41.0003L95.2932 40.0137L94.2271 39.4571L93.7368 40.3976ZM85.7717 52.0023L85.2255 52.9114L86.0859 53.4284L86.651 52.605L85.7717 52.0023ZM83.73 50.7755L82.8581 50.1622L82.2013 51.0944L83.1837 51.6846L83.73 50.7755ZM90.4745 41.2021L91.3464 41.8154L92.0527 40.8129L90.9533 40.2557L90.4745 41.2021ZM80.8895 36.4304L82.11 34.3991L80.2825 33.301L79.062 35.3323L80.8895 36.4304ZM80.7059 34.7905L93.2465 41.3381L94.2271 39.4571L81.6866 32.9095L80.7059 34.7905ZM92.8575 39.7948L84.8924 51.3996L86.651 52.605L94.6161 41.0003L92.8575 39.7948ZM86.318 51.0932L84.2762 49.8664L83.1837 51.6846L85.2255 52.9114L86.318 51.0932ZM84.6019 51.3888L91.3464 41.8154L89.6026 40.5888L82.8581 50.1622L84.6019 51.3888ZM90.9533 40.2557L80.4545 34.9349L79.497 36.8278L89.9958 42.1485L90.9533 40.2557Z" fill="white"/>
</svg>
