<svg width="132" height="132" viewBox="0 0 132 132" fill="none" xmlns="http://www.w3.org/2000/svg">
<path d="M62.0866 18.4954C62.9815 14.2661 69.0185 14.2661 69.9134 18.4954L71.1339 24.264C71.8516 27.6559 76.2503 28.5909 78.2855 25.7841L81.7468 21.0107C84.2845 17.511 89.7996 19.9665 88.8969 24.1941L87.6656 29.9604C86.9416 33.351 90.5797 35.9942 93.5807 34.2579L98.6842 31.305C102.426 29.1401 106.466 33.6264 103.921 37.1214L100.451 41.8884C98.4107 44.6914 100.659 48.5858 104.107 48.2202L109.97 47.5984C114.269 47.1426 116.135 52.8841 112.389 55.0421L107.28 57.9855C104.276 59.7162 104.746 64.1885 108.044 65.2568L113.653 67.0737C117.766 68.4057 117.135 74.4096 112.835 74.8575L106.971 75.4684C103.522 75.8276 102.133 80.1044 104.711 82.4219L109.097 86.3632C112.312 89.2528 109.294 94.481 105.183 93.1414L99.5775 91.3141C96.2812 90.2397 93.2721 93.5815 94.6852 96.7475L97.0885 102.132C98.8504 106.079 93.9664 109.628 90.7565 106.732L86.3784 102.783C83.8041 100.461 79.6959 102.29 79.6991 105.757L79.7046 111.653C79.7086 115.976 73.8035 117.231 72.0489 113.28L69.6557 107.891C68.2485 104.723 63.7515 104.723 62.3443 107.891L59.9511 113.28C58.1965 117.231 52.2914 115.976 52.2954 111.653L52.3009 105.757C52.3041 102.29 48.1959 100.461 45.6216 102.783L41.2435 106.732C38.0336 109.628 33.1496 106.079 34.9115 102.132L37.3148 96.7475C38.7279 93.5815 35.7188 90.2397 32.4225 91.3141L26.8165 93.1414C22.7064 94.481 19.6879 89.2529 22.9031 86.3632L27.2886 82.4219C29.8672 80.1044 28.4776 75.8276 25.0292 75.4684L19.1647 74.8575C14.865 74.4096 14.234 68.4057 18.3466 67.0737L23.956 65.2568C27.2543 64.1885 27.7244 59.7162 24.7202 57.9855L19.6112 55.0421C15.8654 52.8841 17.7309 47.1426 22.0297 47.5984L27.8931 48.2202C31.3408 48.5858 33.5893 44.6914 31.5488 41.8884L28.0787 37.1214C25.5344 33.6264 29.574 29.1401 33.3158 31.305L38.4193 34.2579C41.4203 35.9942 45.0584 33.351 44.3344 29.9604L43.1031 24.1941C42.2004 19.9665 47.7155 17.511 50.2532 21.0107L53.7145 25.7841C55.7497 28.5909 60.1484 27.6559 60.8661 24.264L62.0866 18.4954Z" fill="#01964A"/>
<path d="M47.5887 76.1839L46.0856 75.6814L45.5831 77.1845L47.0862 77.687L47.5887 76.1839ZM49.1483 71.5189L49.6508 70.0158L48.1476 69.5133L47.6451 71.0164L49.1483 71.5189ZM52.647 72.6886L54.1501 73.1911L54.6526 71.6879L53.1495 71.1854L52.647 72.6886ZM51.0874 77.3535L50.5849 78.8566L52.0881 79.3592L52.5906 77.856L51.0874 77.3535ZM51.0023 67.9897L49.4841 67.5349L49.0434 69.006L50.4998 69.4929L51.0023 67.9897ZM59.0518 41.1189L59.5543 39.6157L58.003 39.0971L57.5336 40.6641L59.0518 41.1189ZM63.017 42.4444L64.5036 42.9941L65.0709 41.4599L63.5195 40.9413L63.017 42.4444ZM53.2881 68.7539L52.7856 70.257L54.242 70.7439L54.7747 69.3036L53.2881 68.7539ZM49.0919 76.6864L50.6514 72.0214L47.6451 71.0164L46.0856 75.6814L49.0919 76.6864ZM48.6457 73.0221L52.1444 74.1917L53.1495 71.1854L49.6508 70.0158L48.6457 73.0221ZM51.1438 72.1861L49.5843 76.851L52.5906 77.856L54.1501 73.1911L51.1438 72.1861ZM51.59 75.8504L48.0912 74.6807L47.0862 77.687L50.5849 78.8566L51.59 75.8504ZM52.5206 68.4445L60.5701 41.5737L57.5336 40.6641L49.4841 67.5349L52.5206 68.4445ZM58.5493 42.622L62.5145 43.9476L63.5195 40.9413L59.5543 39.6157L58.5493 42.622ZM61.5305 41.8947L51.8016 68.2042L54.7747 69.3036L64.5036 42.9941L61.5305 41.8947ZM53.7906 67.2507L51.5048 66.4866L50.4998 69.4929L52.7856 70.257L53.7906 67.2507ZM58.5677 79.8542L57.0646 79.3517L56.5621 80.8548L58.0652 81.3573L58.5677 79.8542ZM60.1273 75.1893L60.6298 73.6861L59.1266 73.1836L58.6241 74.6868L60.1273 75.1893ZM63.626 76.3589L65.1291 76.8614L65.6316 75.3583L64.1285 74.8558L63.626 76.3589ZM62.0664 81.0238L61.5639 82.527L63.0671 83.0295L63.5696 81.5263L62.0664 81.0238ZM61.9813 71.6601L60.4631 71.2052L60.0224 72.6763L61.4788 73.1632L61.9813 71.6601ZM70.0308 44.7892L70.5333 43.2861L68.982 42.7674L68.5126 44.3344L70.0308 44.7892ZM73.996 46.1148L75.4826 46.6645L76.0499 45.1303L74.4985 44.6116L73.996 46.1148ZM64.2671 72.4242L63.7646 73.9274L65.221 74.4142L65.7537 72.9739L64.2671 72.4242ZM60.0709 80.3567L61.6304 75.6918L58.6241 74.6868L57.0646 79.3517L60.0709 80.3567ZM59.6247 76.6924L63.1235 77.862L64.1285 74.8558L60.6298 73.6861L59.6247 76.6924ZM62.1228 75.8564L60.5633 80.5213L63.5696 81.5263L65.1291 76.8614L62.1228 75.8564ZM62.569 79.5207L59.0703 78.3511L58.0652 81.3573L61.5639 82.527L62.569 79.5207ZM63.4996 72.1149L71.5491 45.244L68.5126 44.3344L60.4631 71.2052L63.4996 72.1149ZM69.5283 46.2923L73.4935 47.6179L74.4985 44.6116L70.5333 43.2861L69.5283 46.2923ZM72.5095 45.5651L62.7806 71.8745L65.7537 72.9739L75.4826 46.6645L72.5095 45.5651ZM64.7696 70.9211L62.4838 70.1569L61.4788 73.1632L63.7646 73.9274L64.7696 70.9211ZM69.5467 83.5245L68.0436 83.022L67.5411 84.5252L69.0442 85.0277L69.5467 83.5245ZM71.1063 78.8596L71.6088 77.3565L70.1056 76.854L69.6031 78.3571L71.1063 78.8596ZM74.605 80.0292L76.1081 80.5317L76.6106 79.0286L75.1075 78.5261L74.605 80.0292ZM73.0455 84.6942L72.5429 86.1973L74.0461 86.6998L74.5486 85.1967L73.0455 84.6942ZM72.9603 75.3304L71.4421 74.8756L71.0014 76.3466L72.4578 76.8335L72.9603 75.3304ZM81.0098 48.4595L81.5123 46.9564L79.961 46.4378L79.4916 48.0047L81.0098 48.4595ZM84.975 49.7851L86.4616 50.3348L87.0289 48.8006L85.4775 48.282L84.975 49.7851ZM75.2461 76.0945L74.7436 77.5977L76.2 78.0846L76.7327 76.6442L75.2461 76.0945ZM71.0499 84.027L72.6094 79.3621L69.6031 78.3571L68.0436 83.022L71.0499 84.027ZM70.6038 80.3627L74.1025 81.5324L75.1075 78.5261L71.6088 77.3565L70.6038 80.3627ZM73.1018 79.5267L71.5423 84.1917L74.5486 85.1967L76.1081 80.5317L73.1018 79.5267ZM73.548 83.191L70.0493 82.0214L69.0442 85.0277L72.5429 86.1973L73.548 83.191ZM74.4786 75.7852L82.5281 48.9143L79.4916 48.0047L71.4421 74.8756L74.4786 75.7852ZM80.5073 49.9627L84.4725 51.2883L85.4775 48.282L81.5123 46.9564L80.5073 49.9627ZM83.4885 49.2354L73.7596 75.5448L76.7327 76.6442L86.4616 50.3348L83.4885 49.2354ZM75.7486 74.5914L73.4628 73.8272L72.4578 76.8335L74.7436 77.5977L75.7486 74.5914Z" fill="white"/>
</svg>
