<svg width="1240" height="602" viewBox="0 0 1240 602" fill="none" xmlns="http://www.w3.org/2000/svg">
<path d="M1220 1L1239 20" stroke="black"/>
<path d="M1220 20L1239 40" stroke="black"/>
<path d="M1220 40L1239 59" stroke="black"/>
<path d="M1220 59L1239 78" stroke="black"/>
<path d="M1220 78L1239 98" stroke="black"/>
<path d="M1220 98L1239 117" stroke="black"/>
<path d="M1220 117L1239 136" stroke="black"/>
<path d="M1220 136L1239 156" stroke="black"/>
<path d="M1220 156L1239 175" stroke="black"/>
<path d="M1220 175L1239 195" stroke="black"/>
<path d="M1220 195L1239 214" stroke="black"/>
<path d="M1220 214L1239 233" stroke="black"/>
<path d="M1220 233L1239 253" stroke="black"/>
<path d="M1220 253L1239 272" stroke="black"/>
<path d="M1220 272L1239 291" stroke="black"/>
<path d="M1220 291L1239 311" stroke="black"/>
<path d="M1220 311L1239 330" stroke="black"/>
<path d="M1220 330L1239 349" stroke="black"/>
<path d="M1220 349L1239 369" stroke="black"/>
<path d="M1220 369L1239 388" stroke="black"/>
<path d="M1220 388L1239 407" stroke="black"/>
<path d="M1220 407L1239 427" stroke="black"/>
<path d="M1220 427L1239 446" stroke="black"/>
<path d="M1220 446L1239 466" stroke="black"/>
<path d="M1220 466L1239 485" stroke="black"/>
<path d="M1220 485L1239 504" stroke="black"/>
<path d="M1220 504L1239 524" stroke="black"/>
<path d="M1220 524L1239 543" stroke="black"/>
<path d="M1220 543L1239 562" stroke="black"/>
<path d="M1220 562L1239 582" stroke="black"/>
<path d="M1220 582L1239 601" stroke="black"/>
<path d="M1203 582L1222 601" stroke="black"/>
<path d="M1184 582L1203 601" stroke="black"/>
<path d="M1165 582L1184 601" stroke="black"/>
<path d="M1146 582L1165 601" stroke="black"/>
<path d="M1127 582L1146 601" stroke="black"/>
<path d="M1108 582L1127 601" stroke="black"/>
<path d="M1089 582L1108 601" stroke="black"/>
<path d="M1069 582L1089 601" stroke="black"/>
<path d="M1050 582L1069 601" stroke="black"/>
<path d="M516 582L535 601" stroke="black"/>
<path d="M497 582L516 601" stroke="black"/>
<path d="M478 582L497 601" stroke="black"/>
<path d="M458 582L478 601" stroke="black"/>
<path d="M439 582L458 601" stroke="black"/>
<path d="M420 582L439 601" stroke="black"/>
<path d="M401 582L420 601" stroke="black"/>
<path d="M382 582L401 601" stroke="black"/>
<path d="M363 582L382 601" stroke="black"/>
<path d="M344 582L363 601" stroke="black"/>
<path d="M325 582L344 601" stroke="black"/>
<path d="M306 582L325 601" stroke="black"/>
<path d="M287 582L306 601" stroke="black"/>
<path d="M268 582L287 601" stroke="black"/>
<path d="M249 582L268 601" stroke="black"/>
<path d="M230 582L249 601" stroke="black"/>
<path d="M211 582L230 601" stroke="black"/>
<path d="M192 582L211 601" stroke="black"/>
<path d="M173 582L192 601" stroke="black"/>
<path d="M153 582L173 601" stroke="black"/>
<path d="M134 582L153 601" stroke="black"/>
<path d="M115 582L134 601" stroke="black"/>
<path d="M96 582L115 601" stroke="black"/>
<path d="M77 582L96 601" stroke="black"/>
<path d="M58 582L77 601" stroke="black"/>
<path d="M39 582L58 601" stroke="black"/>
<path d="M20 582L39 601" stroke="black"/>
<path d="M1 582L20 601" stroke="black"/>
<path d="M1031 582L1050 601" stroke="black"/>
<path d="M1012 582L1031 601" stroke="black"/>
<path d="M993 582L1012 601" stroke="black"/>
<path d="M974 582L993 601" stroke="black"/>
<path d="M955 582L974 601" stroke="black"/>
<path d="M936 582L955 601" stroke="black"/>
<path d="M917 582L936 601" stroke="black"/>
<path d="M898 582L917 601" stroke="black"/>
<path d="M879 582L898 601" stroke="black"/>
<path d="M860 582L879 601" stroke="black"/>
<path d="M841 582L860 601" stroke="black"/>
<path d="M822 582L841 601" stroke="black"/>
<path d="M803 582L822 601" stroke="black"/>
<path d="M784 582L803 601" stroke="black"/>
<path d="M764 582L784 601" stroke="black"/>
<path d="M745 582L764 601" stroke="black"/>
<path d="M726 582L745 601" stroke="black"/>
<path d="M707 582L726 601" stroke="black"/>
<path d="M688 582L707 601" stroke="black"/>
<path d="M669 582L688 601" stroke="black"/>
<path d="M650 582L669 601" stroke="black"/>
<path d="M631 582L650 601" stroke="black"/>
<path d="M611 582L631 601" stroke="black"/>
<path d="M592 582L611 601" stroke="black"/>
<path d="M573 582L592 601" stroke="black"/>
<path d="M554 582L573 601" stroke="black"/>
<path d="M535 582L554 601" stroke="black"/>
<path d="M1239 20V601" stroke="black"/>
<path d="M20 601H1239" stroke="black"/>
</svg>
