<svg width="126" height="95" viewBox="0 0 126 95" fill="none" xmlns="http://www.w3.org/2000/svg">
<path d="M122.24 0.578562C119.438 -0.11658 116.517 -0.186233 113.686 0.374582C110.854 0.935397 108.181 2.11289 105.855 3.82343C103.53 5.53398 101.61 7.73563 100.232 10.2719C98.8531 12.8082 98.0501 15.6169 97.8795 18.4985L97.6596 22.1685C97.5825 23.469 97.2197 24.7366 96.5968 25.8808C95.9739 27.025 95.1063 28.0178 94.0559 28.7884C93.0055 29.559 91.7981 30.0885 90.5197 30.3392C89.2412 30.5898 87.9232 30.5554 86.6596 30.2385L79.5195 28.4586C77.1534 27.8734 74.6875 27.8157 72.2966 28.2897C69.9058 28.7638 67.6485 29.758 65.6847 31.2017C63.7209 32.6455 62.0986 34.5035 60.933 36.6441C59.7673 38.7847 59.0868 41.1556 58.9396 43.5886L58.5095 50.9385C58.4325 52.2391 58.0697 53.5066 57.4468 54.6508C56.8239 55.7951 55.9563 56.7878 54.9059 57.5584C53.8555 58.329 52.6481 58.8586 51.3696 59.1092C50.0912 59.3598 48.7732 59.3254 47.5095 59.0085L40.3695 57.2285C38.0033 56.6414 35.5369 56.5825 33.1453 57.0559C30.7537 57.5292 28.4955 58.5231 26.5313 59.9672C24.567 61.4113 22.9448 63.27 21.7797 65.4116C20.6145 67.5531 19.9351 69.9248 19.7896 72.3585L19.5696 76.0285C19.4669 77.7748 18.9807 79.4771 18.1458 81.0144C17.3108 82.5516 16.1475 83.8859 14.7384 84.9227C13.3294 85.9594 11.7092 86.6731 9.99317 87.0129C8.27713 87.3526 6.50736 87.3101 4.80958 86.8885C3.81236 86.6405 2.75744 86.7989 1.87696 87.3287C0.996477 87.8585 0.362487 88.7164 0.11451 89.7136C-0.133468 90.7108 0.0249049 91.7656 0.554695 92.6461C1.08449 93.5266 1.94237 94.1605 2.93958 94.4085C4.49691 94.7939 6.09517 94.9886 7.69947 94.9885C12.7087 94.9797 17.5261 93.061 21.1698 89.6236C24.8135 86.1862 27.0092 81.4887 27.3096 76.4885L27.5295 72.8186C27.6048 71.5174 27.9665 70.2489 28.5889 69.1037C29.2112 67.9585 30.0789 66.965 31.1298 66.194C32.1806 65.4231 33.3888 64.8937 34.668 64.6439C35.9472 64.394 37.2658 64.4297 38.5295 64.7485L45.6696 66.5285C48.0366 67.1157 50.5039 67.1744 52.8961 66.7005C55.2884 66.2266 57.5469 65.2317 59.5114 63.7866C61.4758 62.3414 63.0979 60.4814 64.2625 58.3387C65.427 56.1959 66.1054 53.823 66.2495 51.3885L66.6896 44.0485C66.7649 42.7474 67.1265 41.4788 67.7489 40.3337C68.3713 39.1885 69.2389 38.195 70.2898 37.424C71.3407 36.6531 72.5488 36.1237 73.828 35.8738C75.1072 35.624 76.4258 35.6597 77.6896 35.9785L84.8295 37.7585C87.195 38.3438 89.6604 38.4016 92.0508 37.9274C94.4411 37.4533 96.6979 36.459 98.661 35.0151C100.624 33.5712 102.245 31.713 103.41 29.5723C104.574 27.4317 105.254 25.061 105.4 22.6285L105.62 18.9486C105.727 17.2033 106.216 15.503 107.053 13.968C107.891 12.4329 109.055 11.1005 110.464 10.0654C111.873 9.03021 113.493 8.3175 115.208 7.97761C116.923 7.63772 118.692 7.67905 120.39 8.09858C120.883 8.22071 121.396 8.24429 121.899 8.16816C122.402 8.09204 122.885 7.91765 123.321 7.65486C123.756 7.39207 124.136 7.04611 124.437 6.63667C124.739 6.22722 124.957 5.76227 125.079 5.2685C125.202 4.77473 125.225 4.26178 125.149 3.75886C125.073 3.25594 124.899 2.77286 124.636 2.33735C124.373 1.90184 124.027 1.52244 123.618 1.22065C123.208 0.918861 122.743 0.700691 122.25 0.578562H122.24Z" fill="#0F0F0F"/>
</svg>
