<svg width="122" height="269" viewBox="0 0 122 269" fill="none" xmlns="http://www.w3.org/2000/svg">
<path d="M-53.1899 36.54L-78.6899 51.26L-93.4199 25.76L-67.9099 11.04L-53.1899 36.54ZM-122.07 55L-136.8 80.54L-111.29 95.26L-96.5701 69.76L-122.07 55ZM-147 120.15V149.54H-117.55V120.14L-147 120.15ZM-136 189.03L-121.28 214.54L-95.78 199.82L-110.48 174.29L-136 189.03ZM-92 243.19L-66.5 257.91L-51.77 232.41L-77.27 217.69L-92 243.19ZM-26.8501 268.11H2.52002V238.65H-26.9299L-26.8501 268.11ZM42.03 257.11L67.52 242.39L52.79 216.89L27.29 231.61L42.03 257.11ZM96.1899 213.11L110.92 187.61L85.4199 172.89L70.6899 198.39L96.1899 213.11ZM121.12 147.96V118.54H91.6201V147.98L121.12 147.96ZM110.12 79.08L95.3901 53.58L69.8901 68.3L84.6201 93.8L110.12 79.08ZM66.1201 24.92L40.6201 10.2L25.8901 35.7L51.3999 50.42L66.1201 24.92ZM0.969971 0H-28.48V29.44H0.969971V0Z" fill="#FFDB43"/>
</svg>
