<svg width="383" height="71" viewBox="0 0 383 71" fill="none" xmlns="http://www.w3.org/2000/svg">
<path d="M32.9155 0C36.176 0 39.1881 0.248035 41.9518 0.99214C44.7154 1.48821 46.9822 2.51135 49.0006 3.75153C51.0191 4.9917 52.5096 6.75895 53.5343 9.02227C54.528 11.2856 55.0559 14.045 55.0559 17.0524C55.0559 20.5559 54.3106 23.5633 52.5406 25.8266C51.0191 28.09 48.5349 30.1052 45.4917 31.5935C49.777 32.8336 53.0375 35.0969 55.0248 38.1044C57.0122 41.1118 58.2853 44.8633 58.2853 49.1419C58.2853 52.6454 57.5401 55.6528 56.2669 58.1642C55.0248 60.6755 53.0064 62.9389 50.7396 64.4271C48.4728 65.9463 45.7091 67.1865 42.697 67.9306C39.6849 68.6747 36.6729 69.1707 33.6608 69.1707L0 69.2327V0H32.9155ZM30.8971 28.09C33.6608 28.09 35.9276 27.3458 37.6665 26.0747C39.4055 24.8035 40.1818 22.5712 40.1818 19.8118C40.1818 18.2926 39.9334 16.8044 39.4365 15.8122C38.9397 14.8201 38.1944 14.045 37.1697 13.3009C36.176 12.8048 35.1513 12.3087 33.9092 12.0607C32.6671 11.8127 31.394 11.8127 29.9034 11.8127H15.3399V28.121C15.3399 28.09 30.8971 28.09 30.8971 28.09ZM31.6424 57.6991C33.1639 57.6991 34.6544 57.4511 35.9276 57.2031C37.1697 56.955 38.4428 56.459 39.4365 55.6838C40.4302 54.9087 41.2065 54.1646 41.9518 52.9245C42.4486 51.6843 42.9454 50.1651 42.9454 48.3978C42.9454 44.8943 41.9518 42.383 39.9334 40.6157C37.915 39.0965 35.1513 38.3524 31.8908 38.3524H15.3399V57.6681H31.6424V57.6991Z" fill="white"/>
<path d="M80.1462 57.4511C82.1646 59.4664 85.1767 60.4585 89.1825 60.4585C91.9461 60.4585 94.4614 59.7144 96.4798 58.4432C98.4982 56.924 99.7403 55.4358 100.237 53.9166H112.534C110.515 59.9314 107.503 64.21 103.498 66.9694C99.4919 69.4808 94.7098 70.969 88.9341 70.969C84.9283 70.969 81.3883 70.2249 78.1278 68.9537C74.8673 67.7135 72.3521 65.9463 70.0853 63.4349C67.8184 61.1716 66.0795 58.4122 65.0548 55.1568C63.8127 51.9013 63.2848 48.3978 63.2848 44.3672C63.2848 40.6157 63.7816 37.0812 65.0548 33.8257C66.3279 30.5703 68.0669 27.8109 70.3337 25.2995C72.6005 23.0362 75.3642 21.0209 78.3762 19.7808C81.6367 18.5406 84.8972 17.7655 88.9341 17.7655C93.2193 17.7655 96.9766 18.5096 100.237 20.2768C103.498 22.0441 106.013 24.0284 108.031 27.0358C110.05 29.7952 111.54 33.0506 112.565 36.5541C113.062 40.0576 113.31 43.5921 113.062 47.5917H76.6373C76.6373 51.6843 78.1278 55.4358 80.1462 57.4511ZM95.9829 31.0974C94.213 29.3301 91.4493 28.338 88.1888 28.338C85.922 28.338 84.183 28.834 82.6615 29.5782C81.1399 30.3223 80.1462 31.3454 79.1526 32.3375C78.1589 33.3297 77.631 34.6009 77.3826 35.841C77.1341 37.0812 76.8857 38.1044 76.8857 39.0965H99.4919C98.995 35.376 97.7219 32.8646 95.9829 31.0974ZM73.8736 4.77466H102.007V11.5336H73.8736V4.77466Z" fill="white"/>
<path d="M132.656 0V26.0747H132.904C134.674 23.0672 136.91 21.052 139.674 19.8118C142.437 18.5716 144.952 17.7965 147.716 17.7965C151.473 17.7965 154.486 18.2926 156.752 19.3157C159.019 20.3079 161.038 21.8271 162.28 23.5943C163.522 25.3616 164.546 27.5939 165.043 30.1052C165.54 32.6166 165.789 35.376 165.789 38.6314V69.4808H151.97V41.1428C151.97 36.8642 151.225 33.8568 149.952 31.8725C148.679 29.8882 146.474 28.8341 143.214 28.8341C139.456 28.8341 136.693 30.0742 135.171 32.0895C133.401 34.3528 132.656 38.1044 132.656 43.1271V69.4808H118.837V0H132.656Z" fill="white"/>
<path d="M175.881 26.6018C177.402 24.3384 179.141 22.8502 181.408 21.331C183.675 20.0908 186.19 19.0677 188.954 18.5716C191.717 18.0756 194.481 17.8275 197.245 17.8275C199.76 17.8275 202.275 18.0755 205.039 18.3236C207.554 18.5716 210.069 19.3157 212.088 20.3389C214.355 21.331 215.845 22.8502 217.367 24.6175C218.609 26.3847 219.385 28.8961 219.385 31.9035V58.2572C219.385 60.5205 219.633 62.7838 219.882 64.7681C220.13 66.7834 220.876 68.5197 221.652 69.5428H207.585C207.088 69.0467 206.84 68.0236 206.591 67.2795C206.343 66.5354 206.343 65.5122 206.343 64.7681C204.076 67.0314 201.561 68.5197 198.549 69.5428C195.537 70.5349 192.525 70.783 189.513 70.783C186.997 70.783 184.979 70.5349 182.743 69.7908C180.725 69.2948 178.986 68.2716 177.216 67.0314C175.694 65.7913 174.452 64.2721 173.459 62.2568C172.713 60.2415 172.216 58.2572 172.216 55.4978C172.216 52.7384 172.713 50.2271 173.738 48.4598C174.732 46.6926 176.005 45.2044 177.495 43.9332C179.017 42.941 181.004 41.9179 183.023 41.4218C185.041 40.9258 187.028 40.4297 189.295 40.1817C191.314 39.9336 193.301 39.6856 195.319 39.4376C197.338 39.1895 199.077 38.9415 200.598 38.6935C202.12 38.1974 203.362 37.7013 204.356 36.9262C205.349 36.1821 205.598 35.159 205.598 33.6707C205.598 32.1515 205.349 30.9114 204.852 30.1673C204.356 29.4231 203.61 28.648 202.834 28.152C202.089 27.6559 201.064 27.4079 200.07 27.1598C199.077 26.9118 197.804 26.9118 196.562 26.9118C193.798 26.9118 191.779 27.4079 190.289 28.679C188.767 29.9192 187.774 31.9345 187.525 34.4459H173.707C173.614 31.3454 174.607 28.586 175.881 26.6018ZM203.269 46.1655C202.524 46.4135 201.499 46.6616 200.505 46.9096C199.511 47.1576 198.487 47.1576 197.245 47.4057C196.251 47.6537 194.978 47.6537 193.984 47.9018C192.99 48.1498 191.966 48.3978 190.972 48.6459C189.978 48.8939 188.954 49.39 188.457 49.886C187.712 50.3821 187.215 51.1262 186.687 51.9013C185.942 52.8935 185.942 53.9166 185.942 55.1568C185.942 56.3969 186.19 57.4201 186.687 58.1642C187.184 58.9083 187.681 59.6834 188.457 60.1795C189.202 60.6756 190.227 60.9236 191.22 61.1716C192.214 61.4197 193.239 61.4197 194.481 61.4197C197.245 61.4197 199.263 60.9236 200.754 60.1795C202.275 59.1873 203.269 58.1642 204.014 56.924C204.759 55.6838 205.256 54.4127 205.256 53.1725C205.505 51.9323 205.505 50.9092 205.505 50.1651V44.8943C204.759 45.3904 204.014 45.9175 203.269 46.1655Z" fill="white"/>
<path d="M240.19 19.0677V26.1057H240.439C242.209 23.0983 244.444 21.083 247.208 19.8428C249.972 18.6026 252.984 17.8275 255.747 17.8275C259.505 17.8275 262.517 18.3236 264.784 19.3467C267.299 20.3389 269.069 21.8581 270.311 23.6253C271.553 25.3926 272.578 27.6249 273.323 30.1362C273.82 32.6476 274.068 35.407 274.068 38.6624V69.5118H260.25V41.1738C260.25 36.8952 259.505 33.8878 258.232 31.9035C256.989 29.8882 254.723 28.648 251.183 28.648C247.425 28.648 244.662 30.1673 242.892 32.3996C241.122 34.6629 240.376 38.4144 240.376 43.4371V69.7908H226.558V19.0677C226.62 19.0677 240.19 19.0677 240.19 19.0677Z" fill="white"/>
<path d="M305.027 28.09C302.761 28.09 301.022 28.586 299.5 29.6092C297.979 30.6013 296.736 31.8725 295.743 33.6087C294.749 35.1279 294.221 36.8642 293.724 38.8795C293.228 40.8948 293.228 42.631 293.228 44.6463C293.228 46.4135 293.476 48.3978 293.724 50.1651C294.221 52.1804 294.718 53.6686 295.743 55.1878C296.736 56.707 297.761 57.9472 299.252 58.9393C300.773 59.9314 302.512 60.4585 304.779 60.4585C308.04 60.4585 310.555 59.4664 312.573 57.6991C314.343 55.9319 315.585 53.4205 315.834 50.1651H329.155C328.161 56.924 325.646 61.9467 321.361 65.4812C317.076 68.9847 311.548 70.752 304.779 70.752C301.022 70.752 297.482 70.0079 294.47 68.7367C291.209 67.4965 288.694 65.7293 286.427 63.4659C284.16 61.2026 282.421 58.4432 281.148 55.4358C279.906 52.1804 279.378 48.9249 279.378 45.1424C279.378 41.1428 279.875 37.6083 281.148 34.3528C282.39 31.0974 283.912 28.09 286.179 25.5786C288.445 23.0673 291.209 21.3 294.221 19.8118C297.482 18.5716 300.991 17.7965 305.027 17.7965C308.04 17.7965 310.803 18.2926 313.567 19.0367C316.33 19.7808 318.846 21.052 320.864 22.5402C323.131 24.0594 324.87 26.0437 326.143 28.555C327.385 30.8183 328.161 33.8258 328.41 37.0812H314.84C314.312 31.0974 311.052 28.09 305.027 28.09Z" fill="white"/>
<path d="M349.991 57.4511C352.01 59.4664 355.27 60.4585 359.028 60.4585C361.791 60.4585 364.306 59.7144 366.325 58.4432C368.343 56.924 369.585 55.4358 370.082 53.9166H382.131C380.112 59.9314 377.1 64.21 373.094 66.9694C369.089 69.4808 364.306 70.969 358.531 70.969C354.525 70.969 350.985 70.2249 347.725 68.9537C344.464 67.7135 341.949 65.9463 339.682 63.4349C337.415 61.1716 335.676 58.4122 334.651 55.1568C333.409 51.9013 332.881 48.3978 332.881 44.3673C332.881 40.6157 333.378 37.0812 334.651 33.8258C335.894 30.5703 337.664 27.8109 339.93 25.2996C342.197 23.0362 344.961 21.021 347.973 19.7808C351.233 18.5406 354.742 17.7655 358.531 17.7655C362.816 17.7655 366.573 18.5096 369.585 20.2769C372.846 22.0441 375.361 24.0284 377.38 27.0358C379.398 29.7952 380.888 33.0507 381.913 36.5542C382.907 40.0576 383.155 43.8402 382.907 47.8397H346.482C346.482 51.6843 347.973 55.4358 349.991 57.4511ZM366.076 31.0974C364.306 29.3301 361.543 28.338 358.282 28.338C356.016 28.338 354.277 28.8341 352.755 29.5782C351.233 30.3223 349.991 31.3454 349.246 32.3376C348.501 33.3297 347.725 34.6009 347.476 35.841C347.228 37.0812 346.979 38.1044 346.979 39.0965H369.585C368.84 35.376 367.567 32.8646 366.076 31.0974Z" fill="white"/>
</svg>
