<svg width="272" height="286" viewBox="0 0 272 286" fill="none" xmlns="http://www.w3.org/2000/svg">
<path d="M38.5901 65.0451C37.0978 65.0488 35.633 64.6287 34.354 63.8304C33.075 63.032 32.0306 61.8856 31.3338 60.5154C30.6369 59.1451 30.3141 57.6033 30.4003 56.0564C30.4866 54.5095 30.9787 53.0165 31.8232 51.7389C37.8002 42.6935 45.2239 34.7771 53.7733 28.3325C58.8287 24.5319 64.2335 21.2591 69.9086 18.5617C70.8954 17.9607 71.9924 17.581 73.1292 17.4475C74.2659 17.3139 75.4171 17.4294 76.5082 17.7863C77.5993 18.1432 78.6061 18.7337 79.4639 19.5196C80.3217 20.3055 81.0114 21.2695 81.4882 22.3492C81.9651 23.429 82.2188 24.6004 82.2327 25.7881C82.2466 26.9758 82.0203 28.1535 81.5688 29.2449C81.1173 30.3363 80.4502 31.3174 79.611 32.1246C78.7719 32.9319 77.7791 33.5474 76.6966 33.9317C72.0185 36.1571 67.563 38.8564 63.3952 41.9901C56.3651 47.2893 50.2636 53.8026 45.3569 61.2463C44.6125 62.4041 43.607 63.3554 42.4276 64.0175C41.2482 64.6795 39.9307 65.0325 38.5901 65.0451V65.0451ZM8.22355 141.017H8.45587C9.53439 140.986 10.5967 140.733 11.5809 140.274C12.5652 139.815 13.4522 139.159 14.1912 138.343C14.9302 137.526 15.5063 136.566 15.8867 135.518C16.267 134.469 16.4438 133.354 16.4071 132.234C16.1577 123.215 17.4097 114.22 20.1078 105.644C21.7093 100.571 23.7844 95.6736 26.3036 91.0203C26.8589 90.0488 27.2221 88.9719 27.3718 87.853C27.5215 86.734 27.4548 85.5955 27.1756 84.5037C26.8965 83.4118 26.4106 82.3884 25.7461 81.4939C25.0816 80.5994 24.2518 79.8516 23.3056 79.2939C22.3594 78.7363 21.3156 78.38 20.2353 78.2462C19.155 78.1124 18.0597 78.2036 17.0137 78.5145C15.9677 78.8254 14.9922 79.3497 14.1437 80.0567C13.2952 80.7638 12.5906 81.6395 12.0719 82.6325C8.99706 88.2699 6.47539 94.2136 4.54402 100.374C1.25311 110.804 -0.271163 121.747 0.0394858 132.717C0.0892045 134.936 0.973248 137.047 2.50265 138.598C4.03206 140.149 6.08564 141.017 8.22355 141.017V141.017ZM21.1016 183.548C19.4953 178.475 18.3968 173.243 17.8238 167.936C17.5798 165.694 16.4884 163.645 14.7891 162.238C13.0897 160.832 10.9218 160.185 8.76254 160.438C6.60328 160.691 4.62933 161.825 3.27501 163.589C1.92069 165.354 1.29686 167.605 1.54083 169.847C3.45409 187.261 9.89428 203.808 20.1713 217.713C20.9352 218.747 21.9184 219.584 23.0444 220.159C24.1703 220.734 25.4087 221.031 26.6635 221.029C28.4721 221.034 30.2297 220.408 31.6539 219.25C32.5053 218.568 33.2193 217.719 33.7546 216.751C34.2898 215.783 34.6357 214.715 34.7732 213.607C34.9107 212.5 34.8371 211.375 34.5559 210.298C34.2746 209.22 33.7912 208.211 33.134 207.327C27.8335 200.18 23.7629 192.135 21.1016 183.548ZM89.1731 257.829C75.8475 253.737 63.8497 245.948 54.4713 235.301C53.0047 233.638 50.9621 232.649 48.7928 232.55C46.6235 232.451 44.5053 233.251 42.9041 234.774C41.3029 236.297 40.3497 238.418 40.2546 240.67C40.1594 242.922 40.93 245.122 42.3966 246.784C53.7845 259.728 68.3666 269.19 84.5632 274.143C85.3106 274.378 86.0876 274.496 86.8684 274.494C88.8457 274.507 90.7607 273.775 92.2589 272.435C93.757 271.095 94.7373 269.237 95.0184 267.205C95.2995 265.173 94.862 263.103 93.7876 261.38C92.7131 259.656 91.0738 258.395 89.1731 257.829V257.829ZM163.082 264.416C149.988 269.228 135.88 270.253 122.268 267.38C121.214 267.157 120.128 267.151 119.072 267.363C118.016 267.576 117.011 268.002 116.114 268.618C114.301 269.861 113.039 271.801 112.604 274.011C112.169 276.221 112.598 278.52 113.795 280.402C114.993 282.284 116.862 283.594 118.99 284.046C135.527 287.562 152.675 286.317 168.579 280.445C169.593 280.07 170.526 279.491 171.324 278.742C172.122 277.993 172.771 277.088 173.232 276.079C173.694 275.07 173.959 273.976 174.014 272.86C174.068 271.744 173.91 270.628 173.549 269.576C173.188 268.523 172.631 267.555 171.909 266.726C171.188 265.897 170.317 265.224 169.345 264.745C168.373 264.266 167.319 263.99 166.244 263.934C165.17 263.877 164.095 264.041 163.082 264.416ZM238.026 222.5C237.141 221.866 236.144 221.419 235.092 221.186C234.041 220.954 232.955 220.939 231.897 221.143C230.84 221.347 229.833 221.765 228.932 222.375C228.031 222.985 227.255 223.774 226.648 224.696C221.745 232.143 215.635 238.651 208.589 243.93C204.437 247.076 199.987 249.776 195.309 251.988C194.227 252.372 193.234 252.988 192.394 253.795C191.555 254.603 190.889 255.584 190.437 256.675C189.986 257.767 189.759 258.944 189.773 260.132C189.787 261.319 190.041 262.491 190.518 263.571C190.995 264.651 191.684 265.614 192.542 266.4C193.4 267.186 194.407 267.777 195.498 268.134C196.589 268.49 197.74 268.606 198.877 268.472C200.013 268.339 201.111 267.959 202.097 267.358C217.448 260.087 230.605 248.619 240.162 234.181C241.328 232.336 241.757 230.092 241.359 227.924C240.96 225.756 239.765 223.835 238.026 222.566V222.5ZM263.55 145.035C262.471 145.066 261.409 145.318 260.425 145.777C259.441 146.236 258.554 146.893 257.815 147.709C257.076 148.525 256.5 149.485 256.119 150.534C255.739 151.582 255.562 152.698 255.599 153.818C255.939 168.231 252.519 182.471 245.702 195.031C245.146 196.003 244.784 197.079 244.634 198.198C244.484 199.317 244.551 200.456 244.83 201.548C245.109 202.64 245.595 203.663 246.26 204.557C246.924 205.452 247.754 206.2 248.7 206.758C249.646 207.315 250.69 207.671 251.771 207.805C252.851 207.939 253.946 207.848 254.992 207.537C256.038 207.226 257.014 206.702 257.862 205.995C258.711 205.288 259.415 204.412 259.933 203.419C268.26 188.172 272.421 170.855 271.966 153.335C271.9 151.085 270.976 148.954 269.398 147.41C267.82 145.866 265.717 145.036 263.55 145.101V145.035ZM250.862 102.504C252.468 107.577 253.566 112.808 254.139 118.115C254.324 120.23 255.265 122.195 256.775 123.626C258.286 125.056 260.258 125.848 262.302 125.844C262.612 125.866 262.923 125.866 263.233 125.844C264.302 125.724 265.339 125.385 266.282 124.847C267.225 124.309 268.056 123.581 268.726 122.707C269.397 121.833 269.894 120.83 270.188 119.755C270.483 118.681 270.57 117.556 270.444 116.447C268.546 99.0314 262.112 82.4829 251.835 68.5802C250.469 66.9152 248.539 65.8593 246.444 65.6313C244.349 65.4033 242.249 66.0205 240.581 67.3553C238.912 68.69 237.802 70.6398 237.48 72.8011C237.158 74.9625 237.648 77.1698 238.85 78.9659C244.14 86.0592 248.218 94.0433 250.904 102.57L250.862 102.504ZM217.492 50.751C218.218 51.5742 219.094 52.2407 220.068 52.7127C221.042 53.1847 222.097 53.4528 223.171 53.5018C224.245 53.5507 225.317 53.3795 226.328 52.9979C227.338 52.6163 228.267 52.0319 229.059 51.2779C229.852 50.5239 230.494 49.6149 230.949 48.6032C231.404 47.5916 231.662 46.497 231.709 45.3817C231.756 44.2665 231.591 43.1523 231.224 42.1032C230.856 41.0541 230.293 40.0904 229.567 39.2671C218.182 26.3301 203.609 16.8698 187.422 11.9086C185.338 11.2709 183.096 11.5189 181.188 12.5977C179.28 13.6766 177.864 15.498 177.25 17.6614C176.636 19.8248 176.874 22.1529 177.913 24.1335C178.952 26.1142 180.706 27.5852 182.79 28.2229C191.138 30.779 199.005 34.7962 206.051 40.1015C210.211 43.2695 214.058 46.8589 217.535 50.8166L217.492 50.751ZM149.695 18.6056C151.824 19.057 154.038 18.6117 155.85 17.3681C157.662 16.1246 158.925 14.1845 159.36 11.9745C159.794 9.76456 159.366 7.46568 158.168 5.58386C156.97 3.70204 155.102 2.39128 152.973 1.93997C136.428 -1.5556 119.279 -0.310779 103.363 5.54098C101.537 6.20885 99.9988 7.52722 99.0206 9.26152C98.0424 10.9958 97.6878 13.034 98.02 15.014C98.3522 16.994 99.3494 18.7876 100.835 20.0763C102.32 21.365 104.197 22.0653 106.133 22.0528C107.069 22.0533 107.998 21.89 108.882 21.5698C121.996 16.7791 136.118 15.7772 149.738 18.6713L149.695 18.6056Z" fill="#FFDB43"/>
</svg>
