<svg width="448" height="471" viewBox="0 0 448 471" fill="none" xmlns="http://www.w3.org/2000/svg">
<path d="M63.5601 107.12C61.1022 107.126 58.6896 106.434 56.583 105.119C54.4765 103.804 52.7563 101.916 51.6085 99.6599C50.4608 97.4034 49.929 94.8642 50.0711 92.3166C50.2132 89.7691 51.0237 87.3103 52.4147 85.2064C62.2591 70.31 74.4864 57.2727 88.5678 46.6595C96.8943 40.4004 105.796 35.0106 115.144 30.5684C116.769 29.5786 118.576 28.9534 120.448 28.7334C122.32 28.5135 124.216 28.7036 126.014 29.2914C127.811 29.8791 129.469 30.8517 130.882 32.146C132.295 33.4403 133.431 35.0278 134.216 36.8059C135.001 38.5841 135.419 40.5132 135.442 42.4692C135.465 44.4252 135.092 46.3647 134.349 48.1621C133.605 49.9594 132.506 51.5751 131.124 52.9045C129.742 54.234 128.107 55.2477 126.324 55.8805C118.619 59.5454 111.28 63.9907 104.416 69.1515C92.8367 77.8786 82.7872 88.6049 74.7055 100.864C73.4795 102.77 71.8233 104.337 69.8807 105.427C67.9381 106.518 65.7683 107.099 63.5601 107.12ZM13.5447 232.234H13.9273C15.7037 232.183 17.4533 231.767 19.0744 231.011C20.6956 230.255 22.1566 229.174 23.3738 227.83C24.5909 226.486 25.5399 224.905 26.1663 223.178C26.7927 221.452 27.0838 219.614 27.0234 217.77C26.6127 202.918 28.6747 188.104 33.1187 173.98C35.7565 165.626 39.1743 157.56 43.3237 149.897C44.2381 148.297 44.8364 146.524 45.083 144.681C45.3296 142.838 45.2197 140.963 44.7599 139.165C44.3001 137.367 43.4998 135.682 42.4053 134.209C41.3108 132.735 39.9442 131.504 38.3857 130.585C36.8273 129.667 35.1081 129.08 33.3287 128.86C31.5493 128.64 29.7454 128.79 28.0226 129.302C26.2998 129.814 24.6931 130.677 23.2955 131.842C21.898 133.006 20.7375 134.448 19.8831 136.084C14.8187 145.368 10.6653 155.156 7.48427 165.301C2.06394 182.477 -0.446622 200.499 0.0650354 218.565C0.146925 222.22 1.603 225.696 4.12202 228.251C6.64104 230.805 10.0234 232.235 13.5447 232.234ZM34.7556 302.276C32.1099 293.922 30.3006 285.306 29.3568 276.566C28.955 272.874 27.1574 269.499 24.3585 267.183C21.5596 264.867 17.9889 263.8 14.4324 264.218C10.876 264.635 7.62477 266.501 5.39413 269.407C3.16349 272.313 2.136 276.02 2.53783 279.712C5.68908 308.392 16.2965 335.641 33.2233 358.541C34.4815 360.243 36.101 361.622 37.9554 362.569C39.8099 363.516 41.8497 364.006 43.9163 364.002C46.8953 364.011 49.7901 362.979 52.1358 361.073C53.5382 359.95 54.7142 358.552 55.5958 356.957C56.4774 355.363 57.0471 353.603 57.2735 351.78C57.4999 349.956 57.3788 348.104 56.9155 346.33C56.4523 344.555 55.656 342.893 54.5737 341.438C45.8434 329.667 39.1388 316.418 34.7556 302.276ZM146.873 424.606C124.925 417.867 105.164 405.04 89.7175 387.506C87.3019 384.768 83.9375 383.138 80.3646 382.976C76.7916 382.813 73.3029 384.13 70.6656 386.638C68.0283 389.146 66.4584 392.639 66.3016 396.348C66.1448 400.057 67.4141 403.679 69.8297 406.417C88.5862 427.734 112.604 443.316 139.281 451.473C140.512 451.86 141.791 452.054 143.077 452.052C146.334 452.072 149.488 450.867 151.956 448.661C154.423 446.454 156.038 443.394 156.501 440.048C156.964 436.701 156.243 433.292 154.474 430.454C152.704 427.615 150.004 425.538 146.873 424.606ZM268.605 435.454C247.038 443.379 223.802 445.067 201.383 440.336C199.647 439.968 197.858 439.958 196.119 440.308C194.38 440.658 192.724 441.36 191.246 442.374C188.261 444.422 186.181 447.617 185.465 451.256C184.749 454.896 185.455 458.682 187.428 461.781C189.4 464.88 192.478 467.038 195.984 467.782C223.221 473.572 251.465 471.521 277.66 461.851C279.33 461.234 280.866 460.281 282.181 459.048C283.495 457.814 284.563 456.324 285.323 454.662C286.083 453 286.521 451.198 286.611 449.361C286.7 447.523 286.44 445.685 285.846 443.952C285.251 442.219 284.333 440.624 283.145 439.259C281.957 437.894 280.521 436.785 278.92 435.996C277.319 435.207 275.584 434.753 273.814 434.66C272.044 434.567 270.274 434.837 268.605 435.454ZM392.042 366.424C390.585 365.38 388.943 364.645 387.211 364.262C385.479 363.878 383.69 363.854 381.949 364.19C380.207 364.526 378.548 365.215 377.064 366.219C375.581 367.223 374.302 368.522 373.303 370.04C365.228 382.306 355.164 393.024 343.559 401.717C336.72 406.898 329.391 411.344 321.686 414.987C319.903 415.62 318.267 416.634 316.885 417.964C315.503 419.293 314.405 420.909 313.661 422.706C312.917 424.504 312.545 426.443 312.568 428.399C312.59 430.355 313.008 432.284 313.794 434.062C314.579 435.841 315.715 437.428 317.128 438.722C318.541 440.016 320.199 440.989 321.996 441.577C323.793 442.164 325.689 442.354 327.562 442.134C329.434 441.915 331.241 441.289 332.866 440.3C358.149 428.325 379.82 409.439 395.56 385.661C397.481 382.623 398.189 378.928 397.532 375.358C396.876 371.788 394.907 368.623 392.042 366.533V366.424ZM434.082 238.851C432.306 238.902 430.556 239.318 428.935 240.074C427.314 240.83 425.853 241.911 424.636 243.255C423.419 244.599 422.47 246.18 421.843 247.907C421.217 249.633 420.926 251.471 420.986 253.315C421.547 277.052 415.914 300.504 404.685 321.188C403.771 322.788 403.173 324.561 402.927 326.404C402.68 328.246 402.79 330.122 403.25 331.92C403.71 333.718 404.51 335.403 405.604 336.876C406.699 338.349 408.066 339.581 409.624 340.5C411.182 341.418 412.902 342.004 414.681 342.225C416.46 342.445 418.264 342.295 419.987 341.783C421.71 341.271 423.317 340.407 424.714 339.243C426.112 338.078 427.271 336.636 428.126 335.001C441.84 309.892 448.693 281.374 447.945 252.52C447.835 248.814 446.314 245.305 443.715 242.762C441.116 240.22 437.652 238.853 434.082 238.96V238.851ZM413.184 168.809C415.83 177.163 417.638 185.779 418.582 194.519C418.887 198 420.436 201.238 422.924 203.593C425.412 205.949 428.66 207.252 432.027 207.247C432.537 207.283 433.049 207.283 433.559 207.247C435.322 207.05 437.028 206.491 438.582 205.605C440.135 204.718 441.503 203.52 442.608 202.081C443.712 200.642 444.53 198.989 445.016 197.22C445.502 195.45 445.645 193.598 445.437 191.77C442.311 163.09 431.715 135.837 414.786 112.941C412.537 110.199 409.358 108.461 405.907 108.085C402.457 107.71 398.999 108.726 396.251 110.924C393.502 113.122 391.674 116.333 391.143 119.893C390.613 123.452 391.421 127.087 393.4 130.045C402.113 141.727 408.829 154.875 413.254 168.917L413.184 168.809ZM358.222 83.5794C359.419 84.9351 360.86 86.0327 362.465 86.81C364.07 87.5874 365.806 88.029 367.575 88.1096C369.345 88.1901 371.111 87.9081 372.775 87.2797C374.439 86.6513 375.969 85.6889 377.274 84.4472C378.58 83.2054 379.638 81.7084 380.387 80.0424C381.135 78.3763 381.561 76.5738 381.638 74.7371C381.716 72.9004 381.444 71.0655 380.839 69.3378C380.234 67.61 379.306 66.0229 378.11 64.6672C359.359 43.3618 335.356 27.7821 308.694 19.6117C305.263 18.5616 301.569 18.9699 298.427 20.7466C295.285 22.5233 292.952 25.5229 291.941 29.0857C290.929 32.6485 291.322 36.4826 293.034 39.7444C294.745 43.0062 297.634 45.4288 301.066 46.479C314.816 50.6886 327.773 57.3042 339.379 66.0413C346.23 71.2586 352.566 77.1697 358.292 83.6875L358.222 83.5794ZM246.557 30.6408C250.063 31.384 253.709 30.6507 256.694 28.6028C259.679 26.5548 261.759 23.3598 262.475 19.7203C263.191 16.0808 262.485 12.2949 260.512 9.1958C258.54 6.09672 255.462 3.93809 251.956 3.19484C224.705 -2.56185 196.459 -0.511807 170.245 9.12517C167.238 10.2251 164.704 12.3962 163.093 15.2524C161.482 18.1085 160.898 21.4651 161.445 24.7259C161.992 27.9867 163.634 30.9405 166.081 33.0628C168.527 35.1851 171.619 36.3382 174.807 36.3177C176.349 36.3185 177.88 36.0496 179.335 35.5223C200.935 27.6327 224.194 25.9827 246.627 30.7489L246.557 30.6408Z" fill="#4EB66E"/>
</svg>
