<svg width="153" height="34" viewBox="0 0 153 34" fill="none" xmlns="http://www.w3.org/2000/svg">
<path d="M152.194 25.5888C150.705 23.1462 148.689 21.0576 146.29 19.4713C143.891 17.8851 141.168 16.8402 138.314 16.4108C135.461 15.9814 132.546 16.1781 129.778 16.9869C127.01 17.7956 124.456 19.1966 122.298 21.0903L119.547 23.5003C118.573 24.3549 117.42 24.9868 116.171 25.351C114.921 25.7152 113.606 25.8026 112.318 25.6072C111.03 25.4117 109.802 24.9382 108.721 24.2203C107.64 23.5023 106.732 22.5576 106.063 21.4536L102.273 15.2228C101.013 13.1613 99.3104 11.3985 97.2846 10.0595C95.2588 8.72062 92.9596 7.83832 90.5501 7.47505C88.1406 7.11178 85.6797 7.27647 83.3418 7.9575C81.0039 8.63853 78.8463 9.81927 77.0218 11.4159L71.5205 16.2496C70.5464 17.1043 69.3936 17.7362 68.144 18.1004C66.8945 18.4646 65.579 18.552 64.2914 18.3565C63.0037 18.1611 61.7755 17.6876 60.6943 16.9696C59.6131 16.2517 58.7054 15.307 58.036 14.2029L54.2459 7.97208C52.9878 5.90914 51.2854 4.14518 49.2597 2.80523C47.2339 1.46527 44.9343 0.58221 42.5242 0.218857C40.1141 -0.144499 37.6527 0.0207323 35.3146 0.702754C32.9764 1.38478 30.8189 2.56687 28.9952 4.16518L26.2445 6.57512C24.9371 7.72327 23.3896 8.57273 21.7122 9.06326C20.0348 9.55379 18.2686 9.67327 16.5392 9.4132C14.8098 9.15314 13.1595 8.51998 11.7058 7.55861C10.2521 6.59724 9.0308 5.33133 8.12842 3.85087C7.59863 2.98108 6.7407 2.35482 5.74349 2.10986C4.74627 1.86489 3.69136 2.02129 2.81087 2.54464C1.93039 3.068 1.29652 3.91542 1.04855 4.90053C0.800571 5.88563 0.958884 6.92774 1.48867 7.79753C2.31738 9.15455 3.30984 10.407 4.44433 11.5275C7.99261 15.0204 12.7557 17.0453 17.7628 17.1894C22.7699 17.3334 27.6442 15.5859 31.3923 12.303L34.1428 9.8931C35.1161 9.03679 36.2688 8.40335 37.5187 8.03816C38.7685 7.67298 40.0846 7.58504 41.3728 7.78057C42.661 7.9761 43.8896 8.45027 44.9708 9.16925C46.052 9.88823 46.9592 10.8343 47.6274 11.9397L51.4175 18.1706C52.676 20.2341 54.3791 21.9986 56.4058 23.3386C58.4325 24.6786 60.733 25.5613 63.144 25.924C65.5549 26.2868 68.0171 26.1206 70.3557 25.4373C72.6943 24.754 74.852 23.5704 76.6753 21.9705L82.1766 17.1507C83.1499 16.2944 84.3027 15.661 85.5525 15.2958C86.8023 14.9306 88.1184 14.8427 89.4066 15.0382C90.6948 15.2337 91.9234 15.7079 93.0046 16.4269C94.0858 17.1459 94.993 18.0919 95.6612 19.1974L99.4512 25.4281C100.71 27.4894 102.413 29.2518 104.438 30.5904C106.463 31.9289 108.762 32.8108 111.171 33.1734C113.581 33.5361 116.041 33.3706 118.378 32.6887C120.715 32.0069 122.872 30.8255 124.695 29.2281L127.453 26.8113C128.762 25.6671 130.311 24.8213 131.988 24.3339C133.666 23.8464 135.431 23.7291 137.16 23.9903C138.888 24.2516 140.537 24.8849 141.99 25.8456C143.443 26.8062 144.665 28.0707 145.569 29.5495C145.831 29.9797 146.178 30.3545 146.587 30.6526C146.996 30.9507 147.461 31.1664 147.955 31.287C148.449 31.4077 148.962 31.431 149.465 31.3558C149.968 31.2806 150.451 31.1082 150.886 30.8486C151.322 30.589 151.701 30.2473 152.003 29.8428C152.305 29.4383 152.523 28.9791 152.645 28.4913C152.767 28.0035 152.791 27.4969 152.715 27C152.639 26.5032 152.464 26.0261 152.201 25.5958L152.194 25.5888Z" fill="#4EB66E"/>
</svg>
