<svg width="95" height="95" viewBox="0 0 95 95" fill="none" xmlns="http://www.w3.org/2000/svg">
<path d="M67.5171 23.3511C65.367 17.4835 61.7858 12.2965 57.1243 8.29847C52.4627 4.30043 46.8809 1.62844 40.9257 0.544356C34.9704 -0.539725 28.8461 0.00133163 23.1528 2.1144C17.4595 4.22747 12.3926 7.84001 8.44845 12.5982C4.50432 17.3565 1.81829 23.0971 0.653615 29.2575C-0.511061 35.418 -0.114361 41.787 1.80466 47.7404C3.72368 53.6938 7.09928 59.0274 11.6007 63.2186C16.1021 67.4098 21.5749 70.3147 27.4828 71.6489C29.6329 77.5165 33.2142 82.7034 37.8757 86.7015C42.5372 90.6995 48.1191 93.3715 54.0743 94.4556C60.0295 95.5397 66.1538 94.9988 71.8471 92.8857C77.5404 90.7726 82.6074 87.16 86.5515 82.4017C90.4956 77.6435 93.1817 71.9029 94.3463 65.7424C95.511 59.582 95.1144 53.213 93.1954 47.2596C91.2764 41.3062 87.9008 35.9726 83.3994 31.7814C78.898 27.5902 73.4251 24.6852 67.5171 23.3511ZM62.4013 36.2379C62.3937 43.8041 59.4964 51.0582 54.3448 56.4093C49.1933 61.7603 42.2081 64.7714 34.9215 64.7819C34.336 64.7819 33.7696 64.7222 33.2034 64.6923C32.349 60.5346 32.4008 56.2312 33.355 52.097C34.3091 47.9628 36.1415 44.1024 38.7179 40.7985C41.2943 37.4945 44.5496 34.8306 48.2455 33.0017C51.9414 31.1727 55.9843 30.2251 60.0785 30.228C60.664 30.228 61.2303 30.228 61.7966 30.3177C62.203 32.2863 62.4057 34.2943 62.4013 36.3076V36.2379ZM7.43204 36.2379C7.43143 29.8978 9.4644 23.7379 13.21 18.7309C16.9556 13.7238 22.2004 10.1547 28.1166 8.58693C34.0328 7.01913 40.2834 7.54198 45.8817 10.0729C51.4799 12.6038 56.1069 16.9986 59.0323 22.5637C49.9646 22.8484 41.3594 26.7854 35.0376 33.5414C28.7158 40.2973 25.1733 49.3423 25.16 58.7622C25.1684 60.1748 25.2549 61.5857 25.4192 62.988C20.1602 60.9734 15.6195 57.3387 12.4049 52.5705C9.19032 47.8022 7.45522 42.128 7.43204 36.3076V36.2379ZM60.0785 87.3064C55.1457 87.3017 50.3048 85.9198 46.0629 83.3054C41.8211 80.691 38.3342 76.9404 35.9677 72.4463C45.0354 72.1565 53.6393 68.2166 59.9604 61.4596C66.2815 54.7025 69.8243 45.658 69.84 36.2379C69.8312 34.8286 69.7447 33.4209 69.5808 32.0219C75.6401 34.3298 80.7229 38.7801 83.9372 44.5917C87.1514 50.4032 88.2916 57.2046 87.1576 63.8021C86.0236 70.3995 82.688 76.3715 77.7361 80.6696C72.7843 84.9678 66.5326 87.3175 60.0785 87.3064Z" fill="#111111"/>
</svg>
