<svg width="388" height="99" viewBox="0 0 388 99" fill="none" xmlns="http://www.w3.org/2000/svg">
<g clip-path="url(#clip0_393_33)">
<path d="M384.618 62.1407C383.764 61.521 383.086 61.4334 382.526 62.6122C372.921 83.383 356.746 73.0128 358.366 73.9255C361.961 72.2752 371.389 64.7328 369.975 54.2736C369.121 47.8804 363.64 45.0519 357.807 46.0825C347.642 47.8507 343.93 58.811 345.815 68.5043C346.139 70.1836 346.729 71.5389 347.348 72.8942C335.886 82.2339 331.32 64.5563 330.789 62.4351C330.76 62.3172 339.658 54.9216 342.132 37.2737C344.725 18.7999 338.832 15.4116 332.793 15.5295C321.626 15.7356 318.621 39.0412 322.657 58.4574C322.333 58.5456 320.742 59.4294 318.208 59.5183C316.382 53.7724 308.574 48.7345 306.541 50.6792C301.444 55.5407 307.778 65.0271 312.257 65.7641C309.576 82.2931 292.782 78.1976 295.905 57.4854C301.355 47.3496 305.539 32.2351 304.773 23.1312C304.508 19.9188 302.121 15.5888 296.73 15.7949C286.359 16.2072 285.239 39.5128 286.447 56.0708C286.388 55.6585 285.799 58.0741 281.556 59.2826C280.554 53.7138 271.568 48.0865 269.447 50.7971C265.499 55.8357 272.364 64.8217 275.605 65.4401C272.924 81.9691 256.13 77.8736 259.253 57.1614C264.733 47.0255 268.887 31.9407 268.15 22.8368C267.886 19.6251 265.499 15.2937 260.107 15.5005C249.736 15.9128 248.616 39.2184 249.825 55.7758C249.766 55.3635 249.176 57.868 244.757 59.0468C244.61 51.7988 235.594 48.4987 233.414 50.7971C229.554 54.9216 234.297 63.3775 238.687 65.4401C236.006 81.9691 219.213 77.8736 222.335 57.1614C227.786 47.0255 231.97 31.9111 231.204 22.8072C230.968 19.6251 228.582 15.2937 223.19 15.5005C212.819 15.9128 211.994 40.3965 213.202 56.9546C209.784 71.5982 198.323 89.8652 199.825 53.243C199.973 50.6792 200.12 49.7065 198.853 48.7345C197.881 47.9982 195.701 48.3512 194.522 48.3809C193.079 48.4401 192.696 49.2943 192.401 50.5613C191.665 53.8614 191.517 57.0725 191.399 61.4624C191.341 63.525 191.163 64.468 190.368 67.2669C189.572 70.0657 185.094 75.163 182.619 74.3088C179.201 73.13 180.321 63.4953 180.969 56.8663C181.5 51.6223 179.791 49.2949 175.431 48.4395C172.867 47.91 171.305 47.9982 168.654 47.1434C166.12 46.3486 165.56 41.5754 160.198 43.1664C157.252 44.0502 159.137 50.2663 158.43 54.8927C154.953 77.6082 147.735 78.2265 144.376 67.2076C159.461 30.2021 148.708 15.6178 142.432 15.6178C135.891 15.6178 128.407 20.1262 131.56 48.9999C130.028 48.558 129.556 48.3223 127.847 48.3223C118.331 48.2926 111.819 56.0122 111.819 65.5283C111.819 75.0451 118.331 82.7647 127.877 82.7647C133.504 82.7647 137.452 80.2009 140.457 76.2529C142.402 79.0524 144.789 82.8233 149.149 82.6468C162.113 82.1456 165.884 55.5407 166.326 54.0385C167.711 54.244 169.037 54.6569 170.304 54.863C172.426 55.187 172.602 56.0418 172.543 58.163C171.984 76.2529 175.313 82.5882 182.885 82.5882C187.098 82.5882 190.869 78.4333 193.462 75.487C195.407 79.4943 198.47 82.4696 202.625 82.5875C212.642 82.8233 216.502 66.8546 216.148 68.9469C215.883 70.5959 219.389 82.4696 229.731 82.5289C242.518 82.5875 244.904 68.534 245.17 66.177C245.228 65.7641 245.199 65.7055 245.17 66.177V66.3238C249.235 65.5579 251.327 63.4071 251.327 63.4071C251.327 63.4071 254.597 82.7647 266.648 82.5579C279.17 82.3221 281.556 69.6245 281.851 67.149C281.91 66.6189 281.881 66.5596 281.851 67.149V67.2076C286.683 65.4401 287.95 63.7021 287.95 63.7021C287.95 63.7021 290.543 82.6764 303.27 82.8529C314.614 83.0004 318.827 71.3624 318.857 66.501C320.772 66.53 324.307 65.3518 324.219 65.2932C324.219 65.2932 328.373 81.8809 339.982 82.735C345.432 83.1473 349.527 79.6708 351.855 78.0804C357.335 82.5289 375.573 88.1859 387.093 68.6518C388.743 65.8819 385.237 62.553 384.618 62.14V62.1407ZM127.405 76.3115C121.837 76.3115 118.271 71.1557 118.271 65.6165C118.271 60.0774 121.542 54.9209 127.111 54.9209C129.615 54.9209 131 55.1863 132.974 56.8946C133.327 58.2802 134.33 61.4913 134.83 62.9645C135.478 64.9093 136.274 66.5886 137.039 68.3858C135.891 73.0404 132.237 76.3115 127.405 76.3115ZM140.959 57.0428C140.723 56.6595 140.781 56.8946 140.517 56.5417C139.515 53.7724 137.541 47.5846 137.305 40.5434C137.04 32.588 138.366 23.2484 142.284 23.2484C144.936 23.2484 147.765 42.1634 140.959 57.0428ZM219.359 48.7635C218.741 44.0495 218.711 22.983 223.75 23.5724C226.549 24.692 221.982 44.55 219.359 48.7635ZM256.277 48.7635C255.658 44.0495 255.629 22.983 260.667 23.5724C263.466 24.692 258.899 44.55 256.277 48.7635ZM292.9 49.0578C292.281 44.3439 292.252 23.2781 297.29 23.8668C300.088 24.9574 295.522 44.8451 292.9 49.0578ZM333.323 22.3054C337.949 21.8338 337.743 42.0166 328.491 54.7445C327.283 50.1484 325.457 23.8964 333.323 22.3054ZM352.769 65.7634C351.296 58.2506 355.126 53.3299 359.074 52.7997C360.459 52.5936 362.462 53.4774 362.845 55.1574C363.493 58.3099 362.756 62.9942 353.888 68.9159C353.918 68.9455 353.093 67.4137 352.769 65.7634ZM196.055 42.606C199.207 42.606 201.77 40.0429 201.77 36.8904C201.77 33.7379 199.207 31.1748 196.055 31.1748C192.902 31.1748 190.338 33.7379 190.338 36.8904C190.338 40.0429 192.902 42.606 196.055 42.606Z" fill="white"/>
</g>
<g clip-path="url(#clip1_393_33)">
<path d="M49.1736 0.000488281C22.0144 0.000488281 0 22.0179 0 49.1741C0 76.3303 22.0144 98.3474 49.1736 98.3474C76.3329 98.3474 98.3472 76.33 98.3472 49.1738C98.3472 22.0175 76.3325 0.000488281 49.1736 0.000488281ZM81.4403 23.8004C86.7263 30.5127 89.9628 38.8965 90.2177 48.0212C79.1845 46.0882 69.6695 46.0298 61.4481 47.3329C60.4063 44.9417 59.3338 42.6184 58.2336 40.3687C67.0511 36.7423 74.9589 31.4529 81.4403 23.8004ZM75.7822 17.9242C69.9922 24.9529 62.7235 29.7903 54.4995 33.0821C49.2347 23.3274 43.8197 15.1982 39.4925 9.26367C42.5997 8.50442 45.8358 8.09898 49.1706 8.09898C59.3216 8.0956 68.6091 11.8051 75.7822 17.9242ZM31.5172 12.094C35.7 17.6781 41.2659 25.7672 46.7088 35.6849C35.1717 38.8536 22.2665 39.708 9.20478 39.7448C12.0875 27.5254 20.4284 17.3956 31.5172 12.094ZM8.10119 49.1704L8.13495 47.8426H8.35607C22.9913 47.8426 37.522 46.8839 50.55 43.0451C51.5212 45.0214 52.4769 47.0496 53.4114 49.1366C36.2715 54.1617 25.5854 65.4406 18.2617 76.1727C11.943 68.9539 8.10119 59.5034 8.10119 49.1704ZM24.2485 81.7851C31.182 71.3421 40.8445 61.0094 56.5679 56.6696C60.2405 66.0804 63.237 76.3512 64.823 87.1387C59.9978 89.1426 54.7148 90.2489 49.1766 90.2489C39.8058 90.2489 31.1638 87.0927 24.2485 81.7851ZM72.3773 83.0453C70.6961 73.189 67.9424 63.7878 64.6262 55.0718C71.8118 54.159 80.0727 54.3804 89.6492 56.1413C87.7347 67.2724 81.336 76.8894 72.3773 83.0453Z" fill="white"/>
</g>
<defs>
<clipPath id="clip0_393_33">
<rect width="276.181" height="67.3611" fill="white" transform="translate(111.819 15.493)"/>
</clipPath>
<clipPath id="clip1_393_33">
<rect width="98.3472" height="98.3472" fill="white"/>
</clipPath>
</defs>
</svg>
