<svg width="382" height="103" viewBox="0 0 382 103" fill="none" xmlns="http://www.w3.org/2000/svg">
<g clip-path="url(#clip0_217_169)">
<path d="M73.5725 44.0826H41.4687C40.6415 44.0826 39.9733 44.7488 39.9733 45.5735V61.2228C39.9733 62.0476 40.6415 62.7243 41.4687 62.7243H53.9942V82.1697C53.9942 82.1697 51.1836 83.1213 43.4096 83.1213C34.2355 83.1213 21.4237 79.78 21.4237 51.6958C21.4237 23.6116 34.7658 19.9108 47.2913 19.9108C58.1304 19.9108 62.8076 21.8141 65.7772 22.734C66.7105 23.0195 67.5696 22.089 67.5696 21.2642L71.1544 6.14359C71.1544 5.75236 71.0271 5.28711 70.5817 4.98047C69.3726 4.12398 62.0122 0.0107514 43.4096 0.0107514C21.9858 0.000177532 0 9.0937 0 52.7849C0 96.4761 25.1676 102.99 46.3792 102.99C63.9424 102.99 74.5907 95.5033 74.5907 95.5033C75.0255 95.2601 75.0785 94.6468 75.0785 94.3719V45.5841C75.0785 44.7593 74.4103 44.0932 73.5831 44.0932L73.5725 44.0826Z" fill="white"/>
<path d="M239.012 5.23403C239.012 4.3987 238.355 3.73254 237.528 3.73254H219.455C218.628 3.73254 217.96 4.40927 217.96 5.23403V40.0643H189.791V5.23403C189.791 4.3987 189.123 3.73254 188.295 3.73254H170.223C169.396 3.73254 168.728 4.40927 168.728 5.23403V99.5317C168.728 100.367 169.396 101.044 170.223 101.044H188.295C189.123 101.044 189.791 100.367 189.791 99.5317V59.1925H217.96L217.907 99.5212C217.907 100.357 218.575 101.033 219.402 101.033H237.517C238.344 101.033 239.002 100.357 239.012 99.5212V5.23403Z" fill="white"/>
<path d="M107.681 17.6055C107.681 11.1132 102.463 5.86853 96.025 5.86853C89.5873 5.86853 84.3693 11.1132 84.3693 17.6055C84.3693 24.0979 89.5873 29.3425 96.025 29.3425C102.463 29.3425 107.681 24.0873 107.681 17.6055Z" fill="white"/>
<path d="M106.387 79.6424V36.1098C106.387 35.285 105.719 34.6083 104.892 34.6083H86.8723C86.045 34.6083 85.3026 35.4542 85.3026 36.2895V98.6542C85.3026 100.483 86.448 101.033 87.9329 101.033H104.17C105.952 101.033 106.387 100.166 106.387 98.6224V79.6424Z" fill="white"/>
<path d="M307.696 34.7563H289.761C288.934 34.7563 288.266 35.433 288.266 36.2684V82.5079C288.266 82.5079 283.705 85.8281 277.246 85.8281C270.788 85.8281 269.059 82.8991 269.059 76.5865V36.2578C269.059 35.4225 268.391 34.7457 267.563 34.7457H249.364C248.547 34.7457 247.868 35.4225 247.868 36.2578V79.6318C247.868 98.3792 258.347 102.968 272.771 102.968C284.596 102.968 294.142 96.4548 294.142 96.4548C294.142 96.4548 294.598 99.8913 294.799 100.293C295.001 100.695 295.542 101.107 296.114 101.107L307.696 101.054C308.512 101.054 309.191 100.378 309.191 99.5529V36.2578C309.191 35.4225 308.512 34.7457 307.685 34.7457L307.696 34.7563Z" fill="white"/>
<path d="M356.726 32.6309C346.534 32.6309 339.609 37.1671 339.609 37.1671V5.23403C339.609 4.3987 338.94 3.73254 338.113 3.73254H319.988C319.161 3.73254 318.492 4.40927 318.492 5.23403V99.5318C318.492 100.367 319.161 101.044 319.988 101.044H332.566C333.128 101.044 333.563 100.748 333.881 100.24C334.189 99.7327 334.645 95.8943 334.645 95.8943C334.645 95.8943 342.059 102.894 356.09 102.894C372.561 102.894 382.011 94.562 382.011 65.4945C382.011 36.4269 366.919 32.6309 356.726 32.6309ZM349.652 85.754C343.427 85.5637 339.216 82.751 339.216 82.751V52.8904C339.216 52.8904 343.374 50.3421 348.486 49.8875C354.945 49.3059 361.17 51.2515 361.17 66.6153C361.17 82.8145 358.36 86.0078 349.663 85.754H349.652Z" fill="white"/>
<path d="M158.334 34.5977H144.78L144.759 16.7385C144.759 16.0618 144.409 15.7234 143.624 15.7234H125.149C124.427 15.7234 124.046 16.0406 124.046 16.7279V35.1793C124.046 35.1793 114.787 37.4104 114.161 37.5901C113.535 37.7699 113.079 38.3409 113.079 39.0282V50.6277C113.079 51.463 113.747 52.1292 114.575 52.1292H124.046V80.023C124.046 100.748 138.628 102.778 148.46 102.778C152.957 102.778 158.334 101.34 159.225 101.012C159.766 100.811 160.073 100.261 160.073 99.6587V86.9066C160.084 86.0713 159.384 85.4051 158.589 85.4051C157.793 85.4051 155.778 85.7224 153.699 85.7224C147.039 85.7224 144.78 82.6348 144.78 78.6379C144.78 74.641 144.78 52.1292 144.78 52.1292H158.334C159.161 52.1292 159.829 51.4525 159.829 50.6277V36.0992C159.829 35.2639 159.161 34.5977 158.334 34.5977Z" fill="white"/>
</g>
<defs>
<clipPath id="clip0_217_169">
<rect width="382" height="103" fill="white"/>
</clipPath>
</defs>
</svg>
