<svg width="129" height="48" viewBox="0 0 129 48" fill="none" xmlns="http://www.w3.org/2000/svg">
<path d="M0.635461 41.4833L26.7054 1.74327C27.2874 0.924425 28.1645 0.363258 29.1518 0.177821C30.1392 -0.007617 31.1599 0.197136 31.9994 0.749003C32.8388 1.30087 33.4316 2.15683 33.6528 3.13679C33.874 4.11675 33.7065 5.14431 33.1855 6.00328L7.10543 45.7333C6.82637 46.1581 6.46637 46.5238 6.04598 46.8095C5.62559 47.0952 5.15308 47.2953 4.65536 47.3984C4.15764 47.5014 3.64451 47.5055 3.14523 47.4102C2.64595 47.315 2.17027 47.1223 1.74545 46.8433C1.32062 46.5642 0.954972 46.2042 0.669275 45.7838C0.383578 45.3634 0.183481 44.8909 0.0804077 44.3932C-0.0226653 43.8954 -0.0266761 43.3823 0.0685669 42.883C0.16381 42.3837 0.356402 41.9081 0.635461 41.4833ZM25.4355 46.8433C25.8599 47.1237 26.3355 47.3175 26.835 47.4135C27.3346 47.5095 27.8482 47.5058 28.3463 47.4026C28.8444 47.2995 29.3172 47.0989 29.7375 46.8124C30.1578 46.5259 30.5174 46.1592 30.7955 45.7333L56.8654 6.00328C57.4304 5.1453 57.6313 4.09805 57.424 3.09191C57.2168 2.08578 56.6184 1.20318 55.7605 0.63827C54.9025 0.0733588 53.8552 -0.127582 52.8491 0.0796457C51.8429 0.286873 50.9604 0.88529 50.3955 1.74327L24.3155 41.4833C24.0364 41.9081 23.8437 42.3837 23.7484 42.883C23.6531 43.3823 23.6571 43.8955 23.7602 44.3932C23.8633 44.8909 24.0633 45.3635 24.3491 45.7839C24.6348 46.2043 25.0006 46.5643 25.4255 46.8433H25.4355ZM49.1154 46.8433C49.5406 47.124 50.0171 47.3179 50.5174 47.4141C51.0177 47.5102 51.532 47.5066 52.031 47.4035C52.5299 47.3003 53.0036 47.0997 53.4248 46.8131C53.846 46.5265 54.2064 46.1595 54.4854 45.7333L80.5555 5.99327C81.1178 5.13396 81.3156 4.0865 81.1056 3.08131C80.8955 2.07611 80.2948 1.19552 79.4355 0.633265C78.5762 0.0710061 77.5287 -0.126855 76.5235 0.0831857C75.5183 0.293226 74.6377 0.893974 74.0754 1.75328L48.0055 41.4833C47.4408 42.34 47.2395 43.3859 47.4458 44.391C47.652 45.3961 48.249 46.2782 49.1054 46.8433H49.1154ZM72.8055 46.8433C73.2299 47.1237 73.7055 47.3175 74.205 47.4135C74.7046 47.5095 75.2182 47.5058 75.7163 47.4026C76.2144 47.2995 76.6872 47.0989 77.1075 46.8124C77.5278 46.5259 77.8874 46.1592 78.1655 45.7333L104.245 5.99327C104.808 5.13396 105.006 4.0865 104.795 3.08131C104.585 2.07611 103.985 1.19552 103.125 0.633265C102.266 0.0710061 101.219 -0.126855 100.213 0.0831857C99.2083 0.293226 98.3277 0.893974 97.7655 1.75328L71.6955 41.4833C71.4146 41.9071 71.2201 42.3822 71.1234 42.8813C71.0266 43.3805 71.0295 43.8938 71.1317 44.3919C71.2339 44.8899 71.4334 45.3629 71.719 45.7836C72.0045 46.2042 72.3704 46.5644 72.7955 46.8433H72.8055ZM126.806 0.633265C125.947 0.0721971 124.901 -0.125999 123.896 0.0820108C122.892 0.290021 122.011 0.88731 121.446 1.74327L95.3654 41.4833C94.8019 42.3426 94.6027 43.3906 94.8119 44.3967C95.021 45.4028 95.6211 46.2847 96.4804 46.8483C97.3397 47.4119 98.3877 47.611 99.3939 47.4019C100.4 47.1928 101.282 46.5926 101.845 45.7333L127.915 6.00328C128.196 5.5781 128.39 5.10169 128.486 4.60137C128.582 4.10106 128.579 3.58668 128.476 3.08776C128.373 2.58884 128.172 2.11518 127.885 1.69398C127.599 1.27278 127.232 0.912313 126.806 0.633265Z" fill="#0F0F0F"/>
</svg>
