<svg width="169" height="60" viewBox="0 0 169 60" fill="none" xmlns="http://www.w3.org/2000/svg">
<path d="M32.265 26.7865C32.9905 27.5138 33.3978 28.4992 33.3978 29.5265C33.3978 30.5538 32.9905 31.5391 32.265 32.2665L6.61499 57.9165C5.8883 58.6432 4.9027 59.0514 3.875 59.0514C2.8473 59.0514 1.8617 58.6432 1.13501 57.9165C0.408317 57.1898 0 56.2042 0 55.1765C0 54.1488 0.408317 53.1631 1.13501 52.4364L24.045 29.5265L1.13501 6.60645C0.409643 5.87975 0.00260236 4.89468 0.00354004 3.86792C0.00447772 2.84116 0.413321 1.85684 1.14001 1.13147C1.86671 0.406104 2.85178 -0.000936065 3.87854 1.61649e-06C4.9053 0.000939298 5.88962 0.409783 6.61499 1.13648L32.265 26.7865ZM40.365 1.13648C39.6396 0.409783 38.6553 0.000939298 37.6285 1.61649e-06C36.6018 -0.000936065 35.6167 0.406104 34.89 1.13147C34.1633 1.85684 33.7545 2.84116 33.7535 3.86792C33.7526 4.89468 34.1596 5.87975 34.885 6.60645L57.795 29.5265L34.885 52.4364C34.1583 53.1631 33.75 54.1488 33.75 55.1765C33.75 56.2042 34.1583 57.1898 34.885 57.9165C35.6117 58.6432 36.5973 59.0514 37.625 59.0514C38.6527 59.0514 39.6383 58.6432 40.365 57.9165L66.015 32.2665C66.7405 31.5391 67.1478 30.5538 67.1478 29.5265C67.1478 28.4992 66.7405 27.5138 66.015 26.7865L40.365 1.13648ZM74.115 1.13648C73.3896 0.409783 72.4053 0.000939298 71.3785 1.61649e-06C70.3518 -0.000936065 69.3667 0.406104 68.64 1.13147C67.9133 1.85684 67.5045 2.84116 67.5035 3.86792C67.5026 4.89468 67.9096 5.87975 68.635 6.60645L91.5551 29.5265L68.635 52.4364C67.9083 53.1631 67.5 54.1488 67.5 55.1765C67.5 56.2042 67.9083 57.1898 68.635 57.9165C69.3617 58.6432 70.3473 59.0514 71.375 59.0514C72.4027 59.0514 73.3883 58.6432 74.115 57.9165L99.765 32.2665C100.127 31.9077 100.414 31.4808 100.609 31.0105C100.805 30.5402 100.906 30.0359 100.906 29.5265C100.906 29.0171 100.805 28.5126 100.609 28.0424C100.414 27.5721 100.127 27.1453 99.765 26.7865L74.115 1.13648ZM107.865 1.13648C107.132 0.450336 106.161 0.0760107 105.156 0.092653C104.152 0.109295 103.194 0.515647 102.484 1.22571C101.774 1.93577 101.368 2.89403 101.351 3.89807C101.335 4.90211 101.709 5.87324 102.395 6.60645L125.305 29.5265L102.375 52.4364C101.648 53.1618 101.24 54.1462 101.239 55.173C101.238 56.1997 101.645 57.1848 102.37 57.9115C103.095 58.6382 104.08 59.0469 105.106 59.0479C106.133 59.0488 107.118 58.6419 107.845 57.9165L133.495 32.2665C133.857 31.9077 134.144 31.4808 134.339 31.0105C134.535 30.5402 134.636 30.0359 134.636 29.5265C134.636 29.0171 134.535 28.5126 134.339 28.0424C134.144 27.5721 133.857 27.1453 133.495 26.7865L107.865 1.13648ZM141.625 1.13648C140.9 0.409783 139.915 0.000939298 138.889 1.61649e-06C137.862 -0.000936065 136.877 0.406104 136.15 1.13147C135.423 1.85684 135.014 2.84116 135.014 3.86792C135.013 4.89468 135.42 5.87975 136.145 6.60645L159.055 29.5265L136.145 52.4364C135.418 53.1631 135.01 54.1488 135.01 55.1765C135.01 56.2042 135.418 57.1898 136.145 57.9165C136.872 58.6432 137.857 59.0514 138.885 59.0514C139.913 59.0514 140.898 58.6432 141.625 57.9165L167.275 32.2665C168 31.5391 168.408 30.5538 168.408 29.5265C168.408 28.4992 168 27.5138 167.275 26.7865L141.625 1.13648Z" fill="#0F0F0F"/>
</svg>
