<svg width="97" height="97" viewBox="0 0 97 97" fill="none" xmlns="http://www.w3.org/2000/svg">
<path d="M0 48.14C0.00264771 47.1127 0.412538 46.1284 1.13989 45.4029C1.86725 44.6774 2.85257 44.27 3.87988 44.27H23.77C24.7637 44.3205 25.6998 44.7508 26.3853 45.4719C27.0707 46.1931 27.4529 47.15 27.4529 48.145C27.4529 49.1399 27.0707 50.0969 26.3853 50.818C25.6998 51.5392 24.7637 51.9695 23.77 52.02H3.87988C2.85084 52.02 1.86387 51.6112 1.13623 50.8836C0.408589 50.1559 0 49.169 0 48.14ZM48.1499 68.54C47.1235 68.54 46.1391 68.9477 45.4133 69.6735C44.6876 70.3993 44.2798 71.3836 44.2798 72.41V92.31C44.2798 92.8182 44.38 93.3215 44.5745 93.791C44.7689 94.2605 45.054 94.6871 45.4133 95.0465C45.7727 95.4059 46.1994 95.6909 46.6689 95.8854C47.1385 96.0799 47.6417 96.18 48.1499 96.18C48.6581 96.18 49.1613 96.0799 49.6309 95.8854C50.1004 95.6909 50.5271 95.4059 50.8865 95.0465C51.2458 94.6871 51.5309 94.2605 51.7253 93.791C51.9198 93.3215 52.02 92.8182 52.02 92.31V72.41C52.02 71.3836 51.6122 70.3993 50.8865 69.6735C50.1607 68.9477 49.1763 68.54 48.1499 68.54ZM72.3999 51.91H92.2998C93.3262 51.91 94.3106 51.5023 95.0364 50.7765C95.7621 50.0507 96.1699 49.0664 96.1699 48.04C96.1699 47.0136 95.7621 46.0293 95.0364 45.3035C94.3106 44.5777 93.3262 44.17 92.2998 44.17H72.3999C71.3735 44.17 70.3891 44.5777 69.6633 45.3035C68.9376 46.0293 68.5298 47.0136 68.5298 48.04C68.5298 49.0664 68.9376 50.0507 69.6633 50.7765C70.3891 51.5023 71.3735 51.91 72.3999 51.91ZM48.02 27.63C49.0464 27.63 50.0306 27.2223 50.7563 26.4965C51.4821 25.7707 51.8899 24.7864 51.8899 23.76V3.87C51.8899 2.84361 51.4821 1.85925 50.7563 1.13348C50.0306 0.407718 49.0464 0 48.02 0C46.9936 0 46.0092 0.407718 45.2834 1.13348C44.5577 1.85925 44.1499 2.84361 44.1499 3.87V23.76C44.1499 24.2707 44.2509 24.7764 44.4473 25.2479C44.6436 25.7194 44.9314 26.1474 45.2939 26.5072C45.6565 26.8669 46.0868 27.1513 46.5598 27.3441C47.0328 27.5368 47.5391 27.6339 48.0498 27.63H48.02Z" fill="#0F0F0F"/>
</svg>
