<svg width="144" height="268" viewBox="0 0 144 268" fill="none" xmlns="http://www.w3.org/2000/svg">
<path d="M93.768 36.525L68.2795 51.2389L53.5561 25.7494L79.0547 11.0355L93.768 36.525ZM24.9188 54.9775L10.1954 80.507L35.694 95.2209L50.4073 69.7314L24.9188 54.9775ZM0 120.101V149.479H29.4368V120.091L0 120.101ZM10.9951 188.952L25.7084 214.452L51.197 199.738L36.5037 174.218L10.9951 188.952ZM54.9754 243.09L80.4639 257.804L95.1873 232.315L69.6987 217.601L54.9754 243.09ZM120.096 268H149.453V238.552H120.016L120.096 268ZM188.945 257.005L214.424 242.291L199.701 216.801L174.212 231.515L188.945 257.005ZM243.081 213.023L257.804 187.533L232.316 172.819L217.592 198.309L243.081 213.023ZM268 147.899V118.491H238.513V147.919L268 147.899ZM257.005 79.0475L242.282 53.558L216.793 68.272L231.516 93.7615L257.005 79.0475ZM213.025 24.9098L187.536 10.1958L172.813 35.6853L198.311 50.3993L213.025 24.9098ZM147.904 0H118.467V29.428H147.904V0Z" fill="#111111"/>
</svg>
