<svg width="130" height="130" viewBox="0 0 130 130" fill="none" xmlns="http://www.w3.org/2000/svg">
<path d="M18.4438 29.5659C17.7305 29.5676 17.0305 29.3767 16.4192 29.0138C15.8079 28.6509 15.3087 28.1298 14.9757 27.507C14.6426 26.8842 14.4883 26.1833 14.5296 25.4802C14.5708 24.777 14.806 24.0984 15.2096 23.5177C18.0663 19.4062 21.6144 15.8078 25.7005 12.8784C28.1167 11.1508 30.6999 9.66323 33.4122 8.43713C33.8838 8.16395 34.4081 7.99137 34.9514 7.93067C35.4947 7.86997 36.0449 7.92245 36.5664 8.08467C37.0879 8.24689 37.5691 8.51533 37.9791 8.87256C38.389 9.22979 38.7187 9.66797 38.9466 10.1587C39.1745 10.6495 39.2958 11.182 39.3024 11.7219C39.309 12.2617 39.2009 12.797 38.9851 13.2931C38.7693 13.7892 38.4505 14.2352 38.0494 14.6021C37.6483 14.969 37.1738 15.2488 36.6565 15.4235C34.4206 16.435 32.2911 17.662 30.2992 19.0864C26.9392 21.4951 24.0231 24.4557 21.6779 27.8392C21.3222 28.3655 20.8416 28.7979 20.2779 29.0988C19.7142 29.3998 19.0845 29.5602 18.4438 29.5659V29.5659ZM3.93037 64.0985H4.04141C4.55688 64.0844 5.06458 63.9697 5.53499 63.7611C6.00541 63.5525 6.42938 63.2541 6.78257 62.883C7.13576 62.512 7.41112 62.0756 7.5929 61.599C7.77467 61.1225 7.85915 60.6153 7.84162 60.1063C7.72243 56.007 8.32079 51.9182 9.61034 48.0199C10.3758 45.7143 11.3675 43.488 12.5716 41.3729C12.837 40.9313 13.0106 40.4418 13.0821 39.9332C13.1537 39.4246 13.1218 38.9071 12.9884 38.4108C12.8549 37.9144 12.6227 37.4493 12.3051 37.0427C11.9875 36.6361 11.5909 36.2962 11.1387 36.0427C10.6865 35.7892 10.1876 35.6273 9.67128 35.5664C9.15494 35.5056 8.63148 35.5471 8.13156 35.6884C7.63163 35.8297 7.16541 36.068 6.75987 36.3894C6.35432 36.7108 6.01757 37.1089 5.76965 37.5602C4.30007 40.1227 3.09485 42.8244 2.17178 45.6246C0.598912 50.3653 -0.1296 55.3394 0.0188719 60.3259C0.0426345 61.3346 0.465155 62.2941 1.19612 62.9991C1.92709 63.7042 2.90858 64.0988 3.93037 64.0985V64.0985ZM10.0853 83.4308C9.3176 81.1249 8.79259 78.7469 8.51871 76.3347C8.40211 75.3156 7.88049 74.384 7.06831 73.7448C6.25612 73.1056 5.21998 72.8111 4.18798 72.9263C3.15598 73.0414 2.21255 73.5566 1.56526 74.3587C0.917977 75.1607 0.619822 76.1839 0.736424 77.203C1.65085 85.1188 4.72888 92.6398 9.64069 98.9605C10.0058 99.4303 10.4757 99.8107 11.0139 100.072C11.552 100.333 12.1439 100.469 12.7436 100.468C13.608 100.47 14.448 100.185 15.1287 99.6592C15.5356 99.3493 15.8769 98.9633 16.1327 98.5232C16.3885 98.0831 16.5538 97.5975 16.6195 97.0942C16.6853 96.5909 16.6501 96.0797 16.5157 95.59C16.3812 95.1002 16.1502 94.6413 15.8361 94.2397C13.3028 90.9909 11.3572 87.3341 10.0853 83.4308ZM42.6195 117.195C36.2506 115.335 30.5164 111.794 26.0341 106.955C25.3331 106.199 24.3569 105.749 23.3201 105.704C22.2833 105.66 21.2709 106.023 20.5056 106.715C19.7403 107.408 19.2848 108.372 19.2393 109.395C19.1938 110.419 19.5621 111.419 20.2631 112.175C25.7058 118.058 32.6752 122.359 40.4162 124.61C40.7735 124.717 41.1448 124.771 41.518 124.77C42.463 124.776 43.3783 124.443 44.0943 123.834C44.8103 123.225 45.2788 122.381 45.4132 121.457C45.5475 120.533 45.3385 119.592 44.8249 118.809C44.3114 118.025 43.5279 117.452 42.6195 117.195V117.195ZM77.9434 120.189C71.6852 122.376 64.9425 122.842 58.437 121.536C57.9333 121.435 57.4143 121.432 56.9096 121.529C56.4049 121.625 55.9243 121.819 55.4954 122.099C54.6292 122.664 54.0258 123.546 53.818 124.551C53.6103 125.555 53.8151 126.6 54.3875 127.455C54.9599 128.311 55.8531 128.907 56.8703 129.112C64.774 130.71 72.9696 130.144 80.571 127.475C81.0555 127.305 81.5012 127.041 81.8828 126.701C82.2643 126.361 82.5742 125.949 82.7948 125.49C83.0153 125.032 83.1424 124.535 83.1683 124.027C83.1943 123.52 83.1188 123.013 82.9463 122.534C82.7737 122.056 82.5074 121.616 82.1626 121.239C81.8178 120.862 81.4013 120.556 80.9367 120.339C80.4721 120.121 79.9686 119.996 79.455 119.97C78.9414 119.944 78.4278 120.019 77.9434 120.189ZM113.762 101.136C113.339 100.848 112.863 100.645 112.36 100.539C111.858 100.433 111.339 100.427 110.833 100.519C110.328 100.612 109.847 100.802 109.416 101.08C108.985 101.357 108.614 101.715 108.325 102.134C105.981 105.52 103.061 108.478 99.6935 110.877C97.7088 112.307 95.5821 113.534 93.3463 114.54C92.829 114.715 92.3542 114.995 91.9532 115.362C91.5521 115.729 91.2335 116.174 91.0177 116.671C90.8019 117.167 90.6938 117.702 90.7004 118.242C90.707 118.782 90.8283 119.314 91.0562 119.805C91.2841 120.296 91.6138 120.734 92.0237 121.091C92.4337 121.448 92.9149 121.717 93.4364 121.879C93.9579 122.041 94.5081 122.094 95.0514 122.033C95.5947 121.972 96.119 121.8 96.5906 121.526C103.927 118.221 110.216 113.009 114.783 106.446C115.341 105.607 115.546 104.587 115.355 103.602C115.165 102.617 114.593 101.743 113.762 101.166V101.136ZM125.961 65.9249C125.446 65.9391 124.938 66.0538 124.468 66.2624C123.997 66.471 123.573 66.7694 123.22 67.1405C122.867 67.5115 122.592 67.9478 122.41 68.4243C122.228 68.9009 122.144 69.4082 122.161 69.9171C122.324 76.4686 120.689 82.9415 117.431 88.6506C117.166 89.0922 116.992 89.5816 116.921 90.0902C116.849 90.5988 116.881 91.1164 117.014 91.6127C117.148 92.109 117.38 92.5741 117.698 92.9807C118.015 93.3873 118.412 93.7273 118.864 93.9808C119.316 94.2343 119.815 94.3961 120.332 94.4569C120.848 94.5177 121.371 94.4764 121.871 94.3351C122.371 94.1938 122.837 93.9553 123.243 93.6339C123.648 93.3125 123.985 92.9145 124.233 92.4631C128.212 85.5329 130.201 77.6616 129.984 69.6976C129.952 68.6748 129.511 67.7062 128.757 67.0045C128.002 66.3028 126.997 65.9253 125.961 65.9549V65.9249ZM119.897 46.5927C120.665 48.8986 121.19 51.2765 121.464 53.6888C121.552 54.6498 122.002 55.5433 122.724 56.1934C123.446 56.8436 124.388 57.2034 125.365 57.202C125.513 57.2119 125.662 57.2119 125.81 57.202C126.321 57.1474 126.816 56.9934 127.267 56.7486C127.718 56.5039 128.115 56.1733 128.435 55.776C128.756 55.3788 128.993 54.9228 129.134 54.4343C129.275 53.9458 129.317 53.4347 129.256 52.9303C128.349 45.0143 125.274 37.4922 120.362 31.1728C119.709 30.416 118.787 29.936 117.786 29.8324C116.784 29.7288 115.781 30.0093 114.983 30.616C114.186 31.2227 113.655 32.109 113.501 33.0914C113.347 34.0739 113.582 35.0772 114.156 35.8936C116.685 39.1178 118.633 42.7469 119.917 46.6226L119.897 46.5927ZM103.948 23.0686C104.296 23.4428 104.714 23.7458 105.18 23.9603C105.645 24.1749 106.149 24.2967 106.662 24.319C107.176 24.3412 107.688 24.2634 108.171 24.0899C108.654 23.9165 109.098 23.6509 109.477 23.3081C109.856 22.9654 110.163 22.5522 110.38 22.0924C110.597 21.6325 110.721 21.135 110.743 20.6281C110.766 20.1211 110.687 19.6147 110.511 19.1378C110.336 18.6609 110.067 18.2229 109.719 17.8487C104.278 11.9682 97.313 7.6681 89.5765 5.413C88.5806 5.12316 87.5089 5.23585 86.5972 5.72623C85.6855 6.21662 85.0085 7.04454 84.715 8.0279C84.4215 9.01126 84.5354 10.0695 85.032 10.9698C85.5286 11.8701 86.367 12.5387 87.3629 12.8286C91.3529 13.9905 95.1128 15.8164 98.4805 18.228C100.469 19.668 102.307 21.2995 103.969 23.0985L103.948 23.0686ZM71.5456 8.45711C72.5629 8.66225 73.6209 8.45987 74.4871 7.89461C75.3533 7.32935 75.9568 6.44751 76.1645 5.44297C76.3723 4.43844 76.1675 3.39349 75.595 2.53812C75.0226 1.68275 74.1295 1.08695 73.1122 0.881804C65.2046 -0.707091 57.0083 -0.141263 49.4014 2.51863C48.5289 2.82221 47.7935 3.42146 47.326 4.20978C46.8585 4.9981 46.689 5.92455 46.8478 6.82455C47.0066 7.72456 47.4832 8.53983 48.1931 9.12561C48.903 9.71138 49.8001 10.0297 50.7252 10.024C51.1726 10.0242 51.6168 9.95001 52.0392 9.80446C58.3071 7.62686 65.0563 7.17143 71.5658 8.48696L71.5456 8.45711Z" fill="#111111"/>
</svg>
