<svg width="132" height="43" viewBox="0 0 132 43" fill="none" xmlns="http://www.w3.org/2000/svg">
<path d="M19.5 28.3662C23.0898 28.3662 26 25.4561 26 21.8662C26 18.2764 23.0898 15.3662 19.5 15.3662C15.9102 15.3662 13 18.2764 13 21.8662C13 25.4561 15.9102 28.3662 19.5 28.3662Z" fill="#FE3D2F"/>
<path d="M27.3563 29.8254C25.3448 31.4172 22.5287 32.6111 19.7127 32.6111C13.2759 32.6111 8.85057 27.8356 8.85057 21.4682C8.85057 15.1009 13.2759 10.7233 19.7127 10.7233C22.5287 10.7233 25.3448 11.5193 27.3563 13.5091L28.5632 14.7029L35 8.73355L33.3908 7.53967C29.7701 4.356 24.9425 2.36621 19.7127 2.36621C8.44828 2.36621 0 10.7234 0 21.8662C0 33.0091 8.44828 41.3662 19.7127 41.3662C24.9425 41.3662 29.7701 39.3764 33.3908 36.1927L35 34.9989L28.5632 28.6315L27.3563 29.8254Z" fill="white"/>
<path d="M49.186 35.6182C48.4207 35.6182 47.772 35.4689 47.24 35.1702C46.708 34.8715 46.302 34.4749 46.022 33.9802C45.7513 33.4855 45.616 32.9489 45.616 32.3702H46.932C46.932 33.0049 47.1327 33.5089 47.534 33.8822C47.9447 34.2555 48.4953 34.4422 49.186 34.4422C49.6433 34.4422 50.04 34.3582 50.376 34.1902C50.712 34.0222 50.9733 33.7842 51.16 33.4762C51.3467 33.1589 51.44 32.7902 51.44 32.3702C51.44 31.7355 51.2347 31.2222 50.824 30.8302C50.4227 30.4382 49.8813 30.2422 49.2 30.2422C48.9107 30.2422 48.6587 30.2795 48.444 30.3542C48.2387 30.4195 48.0567 30.5035 47.898 30.6062L47.226 29.4022L51.132 26.5462L50.992 26.2942H46.022V25.1462H52.252V27.0082L49.018 29.3602L48.038 29.4022C48.1967 29.3462 48.3693 29.2995 48.556 29.2622C48.752 29.2249 48.9807 29.2062 49.242 29.2062C49.9887 29.2062 50.6233 29.3462 51.146 29.6262C51.6687 29.9062 52.0653 30.2795 52.336 30.7462C52.616 31.2129 52.756 31.7215 52.756 32.2722V32.4682C52.756 33.0095 52.616 33.5229 52.336 34.0082C52.0653 34.4842 51.664 34.8715 51.132 35.1702C50.6093 35.4689 49.9607 35.6182 49.186 35.6182ZM57.7856 35.6182C57.0203 35.6182 56.3716 35.4689 55.8396 35.1702C55.3076 34.8715 54.9016 34.4749 54.6216 33.9802C54.3509 33.4855 54.2156 32.9489 54.2156 32.3702H55.5316C55.5316 33.0049 55.7323 33.5089 56.1336 33.8822C56.5443 34.2555 57.0949 34.4422 57.7856 34.4422C58.2429 34.4422 58.6396 34.3582 58.9756 34.1902C59.3116 34.0222 59.5729 33.7842 59.7596 33.4762C59.9463 33.1589 60.0396 32.7902 60.0396 32.3702C60.0396 31.7355 59.8343 31.2222 59.4236 30.8302C59.0223 30.4382 58.4809 30.2422 57.7996 30.2422C57.5103 30.2422 57.2583 30.2795 57.0436 30.3542C56.8383 30.4195 56.6563 30.5035 56.4976 30.6062L55.8256 29.4022L59.7316 26.5462L59.5916 26.2942H54.6216V25.1462H60.8516V27.0082L57.6176 29.3602L56.6376 29.4022C56.7963 29.3462 56.9689 29.2995 57.1556 29.2622C57.3516 29.2249 57.5803 29.2062 57.8416 29.2062C58.5883 29.2062 59.2229 29.3462 59.7456 29.6262C60.2683 29.9062 60.6649 30.2795 60.9356 30.7462C61.2156 31.2129 61.3556 31.7215 61.3556 32.2722V32.4682C61.3556 33.0095 61.2156 33.5229 60.9356 34.0082C60.6649 34.4842 60.2636 34.8715 59.7316 35.1702C59.2089 35.4689 58.5603 35.6182 57.7856 35.6182ZM66.8688 35.3662V25.0902H68.2408V35.3662H66.8688ZM73.1828 35.3662L69.7948 30.8162H71.4048L74.8488 35.3662H73.1828ZM67.7228 31.6702V30.4522H70.4668C70.8961 30.4522 71.2648 30.3635 71.5728 30.1862C71.8808 30.0089 72.1188 29.7662 72.2868 29.4582C72.4548 29.1409 72.5388 28.7815 72.5388 28.3802C72.5388 27.9789 72.4548 27.6242 72.2868 27.3162C72.1188 26.9989 71.8808 26.7515 71.5728 26.5742C71.2648 26.3875 70.8961 26.2942 70.4668 26.2942H67.7228V25.0902H70.2148C70.9614 25.0902 71.6148 25.2022 72.1748 25.4262C72.7348 25.6502 73.1688 25.9955 73.4768 26.4622C73.7848 26.9289 73.9388 27.5309 73.9388 28.2682V28.4922C73.9388 29.2295 73.7801 29.8315 73.4628 30.2982C73.1548 30.7649 72.7208 31.1102 72.1608 31.3342C71.6101 31.5582 70.9614 31.6702 70.2148 31.6702H67.7228ZM79.5168 35.6182C78.8634 35.6182 78.2988 35.5062 77.8228 35.2822C77.3468 35.0582 76.9594 34.7642 76.6608 34.4002C76.3621 34.0269 76.1381 33.6115 75.9888 33.1542C75.8488 32.6969 75.7788 32.2302 75.7788 31.7542V31.5022C75.7788 31.0169 75.8488 30.5455 75.9888 30.0882C76.1381 29.6309 76.3621 29.2202 76.6608 28.8562C76.9594 28.4829 77.3374 28.1889 77.7948 27.9742C78.2614 27.7502 78.8074 27.6382 79.4328 27.6382C80.2448 27.6382 80.9121 27.8155 81.4348 28.1702C81.9668 28.5155 82.3588 28.9635 82.6108 29.5142C82.8721 30.0649 83.0028 30.6529 83.0028 31.2782V31.8802H76.3668V30.8722H82.0228L81.7148 31.4182C81.7148 30.8862 81.6308 30.4289 81.4628 30.0462C81.2948 29.6542 81.0428 29.3509 80.7068 29.1362C80.3708 28.9215 79.9461 28.8142 79.4328 28.8142C78.9008 28.8142 78.4574 28.9355 78.1028 29.1782C77.7574 29.4209 77.4961 29.7522 77.3188 30.1722C77.1508 30.5922 77.0668 31.0775 77.0668 31.6282C77.0668 32.1602 77.1508 32.6409 77.3188 33.0702C77.4961 33.4902 77.7668 33.8262 78.1308 34.0782C78.4948 34.3209 78.9568 34.4422 79.5168 34.4422C80.1048 34.4422 80.5808 34.3115 80.9448 34.0502C81.3181 33.7889 81.5421 33.4855 81.6168 33.1402H82.8768C82.7741 33.6535 82.5688 34.0969 82.2608 34.4702C81.9528 34.8435 81.5654 35.1282 81.0988 35.3242C80.6321 35.5202 80.1048 35.6182 79.5168 35.6182ZM86.4524 35.3662L83.9044 27.8902H85.3044L87.7964 35.3662H86.4524ZM86.7884 35.3662V34.3022H88.4124V35.3662H86.7884ZM87.4324 35.3662L89.6024 27.8902H90.9184L88.7064 35.3662H87.4324ZM93.0407 35.3662V27.8902H94.3847V35.3662H93.0407ZM91.8927 28.9542V27.8902H94.3847V28.9542H91.8927ZM93.4187 26.6862C93.12 26.6862 92.896 26.6069 92.7467 26.4482C92.6067 26.2895 92.5367 26.0889 92.5367 25.8462C92.5367 25.6035 92.6067 25.4029 92.7467 25.2442C92.896 25.0855 93.12 25.0062 93.4187 25.0062C93.7173 25.0062 93.9367 25.0855 94.0767 25.2442C94.226 25.4029 94.3007 25.6035 94.3007 25.8462C94.3007 26.0889 94.226 26.2895 94.0767 26.4482C93.9367 26.6069 93.7173 26.6862 93.4187 26.6862ZM100.161 35.6182C99.508 35.6182 98.9433 35.5062 98.4673 35.2822C97.9913 35.0582 97.604 34.7642 97.3053 34.4002C97.0066 34.0269 96.7826 33.6115 96.6333 33.1542C96.4933 32.6969 96.4233 32.2302 96.4233 31.7542V31.5022C96.4233 31.0169 96.4933 30.5455 96.6333 30.0882C96.7826 29.6309 97.0066 29.2202 97.3053 28.8562C97.604 28.4829 97.982 28.1889 98.4393 27.9742C98.906 27.7502 99.452 27.6382 100.077 27.6382C100.889 27.6382 101.557 27.8155 102.079 28.1702C102.611 28.5155 103.003 28.9635 103.255 29.5142C103.517 30.0649 103.647 30.6529 103.647 31.2782V31.8802H97.0113V30.8722H102.667L102.359 31.4182C102.359 30.8862 102.275 30.4289 102.107 30.0462C101.939 29.6542 101.687 29.3509 101.351 29.1362C101.015 28.9215 100.591 28.8142 100.077 28.8142C99.5453 28.8142 99.102 28.9355 98.7473 29.1782C98.402 29.4209 98.1406 29.7522 97.9633 30.1722C97.7953 30.5922 97.7113 31.0775 97.7113 31.6282C97.7113 32.1602 97.7953 32.6409 97.9633 33.0702C98.1406 33.4902 98.4113 33.8262 98.7753 34.0782C99.1393 34.3209 99.6013 34.4422 100.161 34.4422C100.749 34.4422 101.225 34.3115 101.589 34.0502C101.963 33.7889 102.187 33.4855 102.261 33.1402H103.521C103.419 33.6535 103.213 34.0969 102.905 34.4702C102.597 34.8435 102.21 35.1282 101.743 35.3242C101.277 35.5202 100.749 35.6182 100.161 35.6182ZM107.685 35.3662L109.197 28.1422H111.017L112.781 35.3662H111.633L109.869 28.1702H110.317L108.791 35.3662H107.685ZM106.999 35.3662V34.3022H108.553V35.3662H106.999ZM106.691 35.3662L104.577 27.8902H105.865L107.923 35.3662H106.691ZM111.913 35.3662V34.3022H113.467V35.3662H111.913ZM112.543 35.3662L114.335 27.8902H115.553L113.719 35.3662H112.543ZM119.763 35.5902C118.783 35.5902 118.023 35.3802 117.481 34.9602C116.949 34.5402 116.674 33.9662 116.655 33.2382H117.915C117.934 33.5275 118.079 33.8029 118.349 34.0642C118.629 34.3162 119.101 34.4422 119.763 34.4422C120.361 34.4422 120.818 34.3255 121.135 34.0922C121.453 33.8495 121.611 33.5555 121.611 33.2102C121.611 32.9022 121.495 32.6642 121.261 32.4962C121.028 32.3189 120.65 32.2022 120.127 32.1462L119.315 32.0622C118.606 31.9875 118.027 31.7775 117.579 31.4322C117.131 31.0775 116.907 30.5829 116.907 29.9482C116.907 29.4722 117.029 29.0662 117.271 28.7302C117.514 28.3849 117.85 28.1235 118.279 27.9462C118.709 27.7595 119.203 27.6662 119.763 27.6662C120.603 27.6662 121.285 27.8529 121.807 28.2262C122.33 28.5995 122.601 29.1549 122.619 29.8922H121.359C121.35 29.5935 121.21 29.3415 120.939 29.1362C120.678 28.9215 120.286 28.8142 119.763 28.8142C119.241 28.8142 118.844 28.9215 118.573 29.1362C118.303 29.3509 118.167 29.6215 118.167 29.9482C118.167 30.2282 118.261 30.4522 118.447 30.6202C118.643 30.7882 118.961 30.8955 119.399 30.9422L120.211 31.0262C121.014 31.1102 121.658 31.3342 122.143 31.6982C122.629 32.0529 122.871 32.5569 122.871 33.2102C122.871 33.6769 122.736 34.0922 122.465 34.4562C122.204 34.8109 121.84 35.0909 121.373 35.2962C120.907 35.4922 120.37 35.5902 119.763 35.5902Z" fill="white"/>
<path d="M50.1359 2.8498C50.5216 2.18753 51.4784 2.18753 51.8641 2.8498L53.6878 5.98079C53.8291 6.22339 54.0658 6.39542 54.3402 6.45484L57.8815 7.22169C58.6306 7.3839 58.9262 8.29382 58.4156 8.86533L56.0013 11.5672C55.8143 11.7766 55.7238 12.0549 55.7521 12.3343L56.1171 15.9392C56.1943 16.7017 55.4203 17.2641 54.719 16.955L51.4032 15.4939C51.1463 15.3807 50.8537 15.3807 50.5968 15.4939L47.281 16.955C46.5797 17.2641 45.8057 16.7017 45.8829 15.9392L46.2479 12.3343C46.2762 12.0549 46.1857 11.7766 45.9987 11.5672L43.5844 8.86533C43.0738 8.29382 43.3694 7.3839 44.1185 7.22169L47.6598 6.45484C47.9342 6.39542 48.1709 6.22339 48.3122 5.98079L50.1359 2.8498Z" fill="#FE3D2F"/>
<path d="M68.1359 2.8498C68.5216 2.18753 69.4784 2.18753 69.8641 2.8498L71.6878 5.98079C71.8291 6.22339 72.0658 6.39542 72.3402 6.45484L75.8815 7.22169C76.6306 7.3839 76.9262 8.29382 76.4156 8.86533L74.0013 11.5672C73.8143 11.7766 73.7238 12.0549 73.7521 12.3343L74.1171 15.9392C74.1943 16.7017 73.4203 17.2641 72.719 16.955L69.4032 15.4939C69.1463 15.3807 68.8537 15.3807 68.5968 15.4939L65.281 16.955C64.5797 17.2641 63.8057 16.7017 63.8829 15.9392L64.2479 12.3343C64.2762 12.0549 64.1857 11.7766 63.9987 11.5672L61.5844 8.86533C61.0738 8.29382 61.3694 7.3839 62.1185 7.22169L65.6598 6.45484C65.9342 6.39542 66.1709 6.22339 66.3122 5.98079L68.1359 2.8498Z" fill="#FE3D2F"/>
<path d="M86.1359 2.8498C86.5216 2.18753 87.4784 2.18753 87.8641 2.8498L89.6878 5.98079C89.8291 6.22339 90.0658 6.39542 90.3402 6.45484L93.8815 7.22169C94.6306 7.3839 94.9262 8.29382 94.4156 8.86533L92.0013 11.5672C91.8143 11.7766 91.7238 12.0549 91.7521 12.3343L92.1171 15.9392C92.1943 16.7017 91.4203 17.2641 90.719 16.955L87.4032 15.4939C87.1463 15.3807 86.8537 15.3807 86.5968 15.4939L83.281 16.955C82.5797 17.2641 81.8057 16.7017 81.8829 15.9392L82.2479 12.3343C82.2762 12.0549 82.1857 11.7766 81.9987 11.5672L79.5844 8.86533C79.0738 8.29382 79.3694 7.3839 80.1185 7.22169L83.6598 6.45484C83.9342 6.39542 84.1709 6.22339 84.3122 5.98079L86.1359 2.8498Z" fill="#FE3D2F"/>
<path d="M104.136 2.8498C104.522 2.18753 105.478 2.18753 105.864 2.8498L107.688 5.98079C107.829 6.22339 108.066 6.39542 108.34 6.45484L111.882 7.22169C112.631 7.3839 112.926 8.29382 112.416 8.86533L110.001 11.5672C109.814 11.7766 109.724 12.0549 109.752 12.3343L110.117 15.9392C110.194 16.7017 109.42 17.2641 108.719 16.955L105.403 15.4939C105.146 15.3807 104.854 15.3807 104.597 15.4939L101.281 16.955C100.58 17.2641 99.8057 16.7017 99.8829 15.9392L100.248 12.3343C100.276 12.0549 100.186 11.7766 99.9987 11.5672L97.5844 8.86533C97.0738 8.29382 97.3694 7.3839 98.1185 7.22169L101.66 6.45484C101.934 6.39542 102.171 6.22339 102.312 5.98079L104.136 2.8498Z" fill="#FE3D2F"/>
<path d="M122.136 2.8498C122.522 2.18753 123.478 2.18753 123.864 2.8498L125.688 5.98079C125.829 6.22339 126.066 6.39542 126.34 6.45484L129.882 7.22169C130.631 7.3839 130.926 8.29382 130.416 8.86533L128.001 11.5672C127.814 11.7766 127.724 12.0549 127.752 12.3343L128.117 15.9392C128.194 16.7017 127.42 17.2641 126.719 16.955L123.403 15.4939C123.146 15.3807 122.854 15.3807 122.597 15.4939L119.281 16.955C118.58 17.2641 117.806 16.7017 117.883 15.9392L118.248 12.3343C118.276 12.0549 118.186 11.7766 117.999 11.5672L115.584 8.86533C115.074 8.29382 115.369 7.3839 116.118 7.22169L119.66 6.45484C119.934 6.39542 120.171 6.22339 120.312 5.98079L122.136 2.8498Z" fill="#FE3D2F"/>
</svg>
