<svg width="77" height="51" viewBox="0 0 77 51" fill="none" xmlns="http://www.w3.org/2000/svg">
<path d="M33.746 17.574C32.3157 19.6264 26.5857 22.7048 20.9267 22.5914C21.8114 24.1462 23.8461 25.584 27.7248 24.9621C35.8852 23.6538 45.696 13.8238 44.9932 7.10013H44.9884C44.9598 7.10013 44.9308 7.10013 44.9023 7.09996C44.6877 9.30861 43.161 12.4784 41.7319 13.5733C42.5835 12.564 44.1687 9.82234 44.1321 6.95164C44.0417 -0.139308 34.059 -2.11122 22.5016 2.45861C22.4983 2.4599 22.529 2.45221 22.5898 2.43695L22.5929 2.43616C23.399 2.23379 29.321 0.747028 32.0309 1.0703C14.3571 3.65074 0.366256 15.861 0.00985197 24.041C-0.340792 32.0898 8.7348 33.3613 16.6332 34.4678C22.8559 35.3397 28.3481 36.1091 27.9246 40.0096C29.1461 36.4227 23.424 34.0839 20.8359 33.0261C20.2933 32.8043 19.8883 32.6387 19.7141 32.5299C19.8227 32.4847 19.9003 32.486 19.9734 32.5001C22.4516 32.9636 28.4656 35.4481 28.6024 38.7188C28.8366 44.3126 20.5545 45.5721 18.9211 44.4272C19.1631 45.2992 21.1243 46.3984 23.2537 45.9109C22.2916 46.3942 18.2055 46.4081 18.0067 43.4912C17.8865 41.7302 18.8103 40.5914 18.8103 40.5914C18.6282 40.606 18.2271 41.144 18.0995 41.3748C18.0126 41.531 17.9288 41.654 17.6993 41.6402C17.5996 41.6343 17.4396 41.7109 17.3901 41.7995C15.7085 44.8303 18.0736 48.404 22.6493 48.0868C25.6369 47.8801 27.6458 46.571 28.4646 45.7428C28.0225 46.0256 27.1927 46.5136 26.553 46.5988C26.5479 46.5872 26.543 46.5755 26.538 46.5638C26.533 46.5521 26.5279 46.5404 26.5228 46.5287C28.6708 45.3582 30.4483 43.6278 30.7597 41.295C31.7136 34.1445 22.8867 31.6023 14.9842 29.3264C9.17348 27.6528 3.86257 26.1233 3.30764 23.0113C1.55886 13.2037 34.3077 0.00153351 41.9584 6.25721C41.1607 2.53572 31.4081 3.76623 29.8805 3.95898L29.8797 3.95908C29.7502 3.97543 29.6801 3.98427 29.6798 3.98195C35.2614 2.24514 42.7779 2.57124 42.9541 6.78695C43.0954 10.1617 36.0638 18.494 22.6212 21.2255C25.332 22.0635 31.1328 19.7467 33.746 17.574Z" fill="white"/>
<path d="M28.3038 6.15647C13.5671 9.37934 -1.65454 21.0804 6.30624 23.9625C3.97862 20.4661 10.2814 11.7161 28.3038 6.15647Z" fill="white"/>
<path d="M46.7201 24.5564C46.6303 24.3901 46.47 24.2484 46.3031 24.1011C45.9843 23.8195 45.6421 23.5172 45.7263 22.9825C45.7292 22.9628 45.7106 22.9399 45.6931 22.9187C45.6883 22.9128 45.6835 22.9068 45.6792 22.9012C45.4983 22.6576 45.3301 22.6745 45.148 22.9325C44.7042 23.5601 44.2484 24.1824 43.7915 24.799C42.5351 26.4943 37.8463 32.0996 36.2277 32.2847C35.9064 32.3208 35.7731 32.091 35.7497 31.8374C35.6628 30.8844 36.6815 28.4741 38.2338 26.6288C36.7464 29.1266 36.5062 30.6422 36.8185 30.9852C37.92 27.1739 41.5601 23.5786 44.5847 21.1383L44.5979 21.1256C44.6548 21.0708 44.7017 21.0258 44.701 20.9766C44.6899 20.1573 43.4144 19.2559 41.996 19.3096C42.186 18.7319 41.6648 18.3335 41.2599 18.3498C40.8618 19.0511 38.7373 22.0885 37.5793 23.2776C34.5158 26.4645 30.0881 29.7453 25.3518 31.6331C25.2591 31.6782 26.2104 32.5514 28.1741 31.6903C28.1324 31.781 27.5912 32.2333 27.0963 32.2908C27.3667 32.5203 28.4198 32.5439 29.2565 32.2896C31.1377 31.7168 34.0511 28.8415 34.9218 27.763C34.8699 27.8457 34.8013 27.9518 34.7194 28.0783C33.9698 29.2378 32.1093 32.1152 31.7158 34.4266C31.4878 35.766 31.6535 36.8739 32.4844 36.9887C32.6464 38.2689 33.672 39.1957 34.4136 39.1072C34.5405 39.0925 34.673 38.9956 34.7124 38.8071C35.4447 35.2905 40.5021 29.4108 40.9619 30.0061C39.3479 32.0544 37.9015 36.0044 38.6222 37.8763C39.0553 39.0014 40.8723 39.4333 43.2361 38.546C41.3463 37.6981 41.7726 33.3583 42.5011 31.66C41.9113 34.42 42.2889 36.8726 43.0743 37.4442L43.1224 37.4157C41.9075 32.2366 44.6813 27.3671 46.69 25.3536C46.8699 25.0673 46.8749 24.8431 46.7201 24.5564Z" fill="white"/>
<path d="M75.1346 31.7489C76.0687 30.7034 76.0486 29.0496 75.7506 28.7412C78.2935 28.5377 76.3664 31.4281 75.1346 31.7489Z" fill="white"/>
<path d="M21.0636 39.4507C17.7366 40.7444 18.8676 44.601 21.1237 44.217C19.4412 43.9427 19.3844 40.7374 23.4795 39.9339C23.4609 39.103 21.9399 39.1093 21.0636 39.4507Z" fill="white"/>
<path d="M16.2609 47.7394C16.772 48.1303 16.7213 48.7583 15.9525 48.8795C15.2697 48.9872 14.5452 48.3418 14.2809 47.5795C13.8575 46.3576 14.5539 45.1226 15.2239 44.6662C14.7306 45.4938 15.1724 46.9084 16.2609 47.7394Z" fill="white"/>
<path fill-rule="evenodd" clip-rule="evenodd" d="M74.7194 28.3868C74.1283 26.9903 67.864 27.5596 64.1681 29.0628C64.0882 28.8928 64.004 28.734 63.9137 28.5868C64.9654 26.059 68.1603 21.4378 71.5803 18.289C72.1703 17.7458 72.7666 17.2466 73.3598 16.8094C73.4297 15.867 70.7711 14.6427 69.0154 15.985C66.8732 18.1338 64.6729 22.3186 63.6987 24.3014L63.4957 24.3079C63.9464 22.0876 66.3332 18.0418 67.7904 16.7195C65.8825 16.7824 61.8737 24.2766 59.7164 31.1678H59.7116C57.4367 32.0746 53.1979 34.4965 51.7487 35.9483C51.6681 36.0292 51.5628 35.7305 51.5558 35.6244C51.3302 32.2783 55.1602 29.7754 58.6137 27.5185C58.938 27.3066 59.2589 27.0969 59.5728 26.8888C60.035 26.5822 59.7195 25.6805 59.526 25.5231C58.8411 26.4762 57.5659 27.4527 56.2449 28.4643C54.9092 29.4871 53.5267 30.5458 52.6599 31.6525C53.273 30.5333 54.8897 29.1798 56.3694 27.941C57.9097 26.6515 59.3015 25.4863 59.2585 24.8391C59.1366 23.0033 56.6682 21.1085 55.6113 20.604C55.8031 20.2905 56.2821 19.4207 56.1222 18.4936C55.9395 17.433 54.7702 16.9664 53.7807 17.0572C53.9583 17.6777 53.7643 18.6471 53.5842 19.1603C51.6589 17.9339 48.6663 17.7468 48.6397 19.3154C49.9711 18.4151 52.7296 19.069 53.9465 19.8498C48.5773 18.206 47.2001 20.9458 47.8941 22.396C47.8941 22.396 50.1294 22.3324 51.9263 22.959C51.5212 24.0405 48.8459 29.0672 45.7881 32.1932C45.8625 32.1705 45.9359 32.1507 46.0078 32.1313C46.1446 32.0945 46.2767 32.0589 46.3985 32.0076C46.7688 31.8523 50.161 27.5577 51.1004 26.222C51.1188 26.3061 50.3468 27.8223 48.923 29.889C50.5059 28.17 53.0596 24.4197 53.6996 23.4582C53.6996 23.4582 55.5734 24.1515 55.6555 25.3885C55.7148 26.2822 53.9776 27.7111 51.9773 29.3566C49.2881 31.5686 46.1232 34.1719 46.2061 36.3928C46.2326 37.1034 46.6261 38.1402 47.4128 38.8148C47.0941 38.2109 46.9363 37.42 47.0396 36.5354C47.1833 35.3051 47.8312 33.8943 49.2541 32.5525C46.6345 35.6213 47.5599 38.3982 48.1205 39.1606C39.5716 39.6708 32.6443 42.5393 32.6116 46.9943C32.6317 47.0924 32.543 47.2261 32.4763 47.3252C31.6156 48.6075 31.9917 50.2072 32.5784 50.4C36.6092 45.8125 43.5141 42.0651 49.5746 40.9891C49.5757 40.8826 49.0856 40.8985 48.2917 41.0178C45.3582 41.4077 41.6408 42.4077 38.6494 44.1054C38.5688 41.7411 49.4402 39.345 56.2854 40.2619C56.3978 39.3246 54.28 38.9598 51.9236 38.9232C53.044 34.728 60.0613 31.2514 62.7607 30.3814C60.0963 31.4516 55.8149 33.9442 53.9064 36.6587C55.7101 35.139 58.1103 33.499 59.1254 33.0554C56.6227 42.829 59.2746 46.8059 61.1688 46.7436C62.4853 46.7003 63.7042 45.4153 64.4664 42.4723C63.8678 43.7928 63.1069 44.6833 62.3849 44.7071C60.5937 44.7662 60.3567 42.2602 60.3567 42.2602C61.5017 45.0113 64.7901 42.8714 65.1499 37.9633C65.1753 37.6239 65.1977 37.2757 65.2153 36.9136C65.2934 35.3189 65.2191 33.3463 64.9133 31.6195C67.4748 30.879 71.6235 30.827 72.744 31.6439C73.0209 30.1874 70.1731 29.8455 65.5601 30.7956C68.6829 29.8405 73.0996 29.5038 73.3902 30.9057C73.5377 31.6173 73.1023 32.6678 72.7702 33.0718C72.6098 33.2665 73.1414 33.1189 73.2813 32.9491C74.0515 32.0154 75.3214 29.8091 74.7194 28.3868ZM62.1814 41.4117C60.7581 41.4917 60.9978 36.2897 62.704 32.1322C62.8629 32.0675 63.0428 32.0086 63.2369 31.9529C63.5314 35.1537 62.984 38.5778 62.4176 40.0816C63.231 40.055 64.1237 36.7113 64.0724 33.5366L64.2413 33.5314C64.6986 38.5852 63.0772 41.3819 62.1814 41.4117Z" fill="white"/>
</svg>
