<svg width="65" height="64" viewBox="0 0 65 64" fill="none" xmlns="http://www.w3.org/2000/svg">
<path d="M25.1013 8.38284C20.8069 10.2817 17.909 14.7843 17.7518 16.7002C17.6865 17.4529 18.6984 17.5604 18.7944 16.7614C19.7009 13.2824 22.4743 9.99647 25.1013 8.38284ZM39.3233 11.6205C41.6332 11.0564 42.9052 10.9686 42.9242 9.93343C42.9637 8.20748 38.0248 6.19635 33.5057 6.55641C38.1092 6.8647 40.8757 8.63558 40.8873 9.87897C40.8988 10.6644 40.2196 11.3435 39.3233 11.6205ZM40.7501 49.8857C44.2245 48.5109 47.5634 45.9036 49.4023 42.0019C49.942 40.8708 48.4039 40.2895 47.9704 41.6201C46.8856 44.3989 44.6655 47.6629 40.7501 49.8857Z" fill="#1A1A1A"/>
<path d="M32.8 0.0012207C15.1296 0.0012207 0.800049 14.3245 0.800049 31.9991C0.800049 49.6757 15.1296 63.9991 32.8 63.9991C50.4746 63.9991 64.8 49.6757 64.8 31.9991C64.8 14.3245 50.4746 0.0012207 32.8 0.0012207ZM33.0347 2.91002C36.1306 2.91002 38.9074 3.3993 41.7059 4.29498C39.8962 3.88186 37.4783 3.46394 34.8125 3.46394C18.4957 3.46394 6.79032 15.5155 6.79032 30.7972C6.79032 36.7611 8.58104 42.0131 11.6524 46.1646L11.6469 50.5401L14.4713 49.3279C19.1482 53.715 25.6205 56.2173 32.9455 56.116C43.0038 55.9744 50.6916 49.7179 54.6859 40.7269L59.5683 43.3763C56.8637 50.0378 48.392 61.1006 32.6891 61.1006C16.2532 61.1006 3.72306 47.7361 3.72306 31.7643C3.7237 17.1129 15.5187 2.91002 33.0347 2.91002ZM34.9867 5.84282C35.7245 5.84628 36.4363 5.88378 37.1084 5.95546C44.7513 6.77485 46.9135 10.4527 46.9135 10.4527C46.9135 10.4527 47.1905 10.7801 47.053 11.1136C46.9592 11.3368 46.7339 11.4179 46.482 11.4655C42.9546 12.0664 37.4582 13.1485 30.7757 14.918C26.0722 16.1702 18.6308 18.6408 16.1311 19.4867C15.8384 19.584 15.6029 19.5882 15.4403 19.3853C15.2811 19.1832 15.3483 18.7135 15.3892 18.561C15.3892 18.561 16.4509 12.276 23.5242 8.45524C26.7026 6.74375 30.9796 5.87476 34.6689 5.84346C34.7753 5.84257 34.8813 5.84237 34.9867 5.84282ZM51.3707 12.8446C53.0344 12.8392 54.1204 13.868 54.0963 15.2717C54.0854 16.6369 53.2272 17.4482 52.4943 17.9409C52.4943 17.9409 53.8364 19.46 54.197 19.8458C54.6687 20.3855 54.6497 21.3057 53.9453 21.7556C53.2436 22.2055 52.5412 21.9727 52.141 21.5201L49.9373 18.938C49.9373 18.938 49.9448 20.521 49.9414 21.218C49.9367 21.9183 49.5311 22.4252 48.8103 22.5641L47.3791 22.8458L47.3838 13.458C47.3838 13.458 50.1266 12.9714 50.8364 12.8802C51.0136 12.8574 51.192 12.8455 51.3707 12.8446ZM46.708 13.5862C46.708 13.5862 46.7005 14.313 46.7005 14.684C46.7005 15.257 46.5025 15.6722 45.8941 15.8008C45.1243 15.9635 43.6829 16.2636 43.6829 16.2636L43.6843 17.716L46.4521 17.1245C46.4521 17.1245 46.4569 17.6207 46.4569 18.1917C46.4569 18.809 46.1752 19.0989 45.6457 19.2159C45.2203 19.3119 43.6856 19.6325 43.6856 19.6325L43.6794 21.468L46.804 20.7853C46.804 20.7853 46.8006 21.2652 46.8006 21.9056C46.8006 22.6005 46.4406 23.0067 45.8621 23.132C44.1565 23.5056 41.0416 24.2392 41.0416 24.2392L41.0646 14.7221C42.7096 14.3484 45.3312 13.8285 46.708 13.5862ZM50.6142 14.8551C50.3643 14.8492 50.1085 14.9012 49.9278 14.9423L49.9325 17.4794C49.9366 17.4794 51.4557 16.8977 51.4386 15.6849C51.4306 15.0353 51.0306 14.8648 50.6142 14.8551ZM38.226 15.3846C39.7112 15.4002 40.3942 15.9365 40.3738 16.7672C40.354 17.5887 39.7858 18.0734 38.7772 17.9127C38.3668 17.8583 37.8346 17.7841 37.254 17.9311C36.0998 18.2312 35.2389 19.3078 35.2103 21.1127C35.2218 22.499 35.7458 23.2184 36.6809 23.2388C37.3391 23.2572 37.9822 22.9761 37.9774 22.5487L37.972 21.4693C37.972 21.4693 37.7155 21.5285 37.3949 21.5966C36.8954 21.7021 36.5421 21.3755 36.5346 20.8732C36.5374 20.1947 36.5422 19.785 36.5422 19.785L40.4262 18.9105L40.4268 22.6019C40.4262 23.1619 40.2185 23.8201 39.7272 24.2611C39.2297 24.698 38.5009 25.1683 37.0587 25.4576C34.4847 25.9203 32.388 24.5006 32.388 21.2856C32.388 18.1427 34.265 15.5157 37.9183 15.3885C38.0245 15.3848 38.127 15.3835 38.226 15.3846ZM29.7153 17.7449C31.1352 17.7672 32.0645 18.6111 32.044 19.9206C32.0319 21.46 31.1824 22.3993 30.4113 23.0294L32.0964 24.654C32.6212 25.1637 32.6559 26.0662 32.0672 26.6216C31.72 26.9469 30.8006 27.2831 30.0731 26.5454L27.8196 24.217C27.8196 24.217 27.8136 26.0397 27.8121 26.7747C27.8047 27.4648 27.3331 27.9643 26.7369 28.1916C26.236 28.3549 25.1832 28.7224 25.1832 28.7224L25.1873 18.9331C25.1873 18.9331 27.3719 18.164 28.6596 17.8652C29.0338 17.7784 29.3876 17.7398 29.7153 17.7449ZM23.6412 19.4838C24.12 19.5018 24.4603 19.7973 24.4603 20.4491L24.4651 25.9019C24.4385 28.7711 23.1026 29.8907 21.1085 30.4835C18.849 31.1429 17.3558 30.0778 17.3674 27.9224C17.377 26.0808 17.3694 21.4862 17.3694 21.4862C17.3694 21.4862 17.8622 21.2882 18.6884 21.0173C19.4173 20.7724 20.0339 21.0391 20.0339 21.9272L20.042 27.2351C20.0434 27.8803 20.3217 28.2776 20.9363 28.1341C21.7326 27.934 21.834 27.1242 21.8388 26.4762L21.8456 19.985C21.8456 19.985 22.5398 19.7188 23.1236 19.5555C23.3065 19.5027 23.4816 19.4778 23.6412 19.4838ZM28.5993 19.8668C28.5735 19.8665 28.5474 19.867 28.5213 19.8682C28.2704 19.8796 28.0094 19.9566 27.8149 20.0289V22.7463C27.8184 22.7443 29.3592 21.9575 29.3394 20.6849C29.3307 20.0548 28.9869 19.8717 28.5993 19.8668ZM14.7264 22.7398C16.0487 22.7432 16.7948 23.5755 16.7948 24.7066C16.7948 25.7057 16.3654 26.5605 15.4303 27.3139C16.3504 27.4649 17.1378 28.2156 17.1534 29.2616C17.1867 31.259 15.7406 32.3317 13.8622 33.1116L10.0075 34.7429L9.99851 24.3118C9.99851 24.3118 12.4262 23.3202 13.2184 23.0323C13.781 22.8297 14.2857 22.7386 14.7264 22.7398ZM52.3963 22.8926C53.4422 22.8882 54.4504 23.0561 55.2943 23.399C57.1339 24.1109 56.5656 27.1408 54.5382 26.8352C53.9447 26.7427 52.9129 26.3132 51.1128 26.7263C49.4978 27.0966 48.1802 28.4414 48.14 30.7955C48.1645 32.9801 49.069 34.2114 51.0869 33.8956C52.6196 33.5989 52.5243 32.9155 52.5278 32.9468L52.5223 31.7775C52.5223 31.7775 52.0432 31.9287 51.7308 31.9811C50.7521 32.1628 50.2961 31.6483 50.2859 30.7146C50.2893 29.7461 50.2893 29.2867 50.2893 29.2867L56.3832 27.9704C56.3832 27.9704 56.4131 31.6748 56.3832 32.8625C56.3832 33.6648 56.196 34.7367 55.3944 35.5207C54.5184 36.3891 52.9273 37.3039 50.6283 37.5694C47.4207 37.9375 43.8422 36.3626 43.8327 31.5053C43.8436 25.4094 48.2578 23.5338 50.5003 23.086C51.1276 22.9599 51.7687 22.8952 52.3963 22.8926ZM13.4421 24.8916C13.2184 24.8948 12.9517 24.9703 12.659 25.121L12.6576 27.3322C12.8237 27.2686 12.9866 27.1969 13.1456 27.1171C13.7207 26.8367 14.1325 26.3187 14.1359 25.6416C14.1399 25.1423 13.8692 24.8854 13.4421 24.8916ZM43.1675 25.1701C43.1675 25.1701 43.1778 33.9992 43.1702 37.6192C43.1498 38.7034 42.4556 39.4758 41.6151 39.71C40.8025 39.9461 39.9259 39.8862 39.2181 39.164L34.8611 34.1462C34.8611 34.1462 34.8618 37.4206 34.8822 39.1077C34.887 40.6513 34.3493 41.5448 32.8425 42.0675C32.6812 42.1219 30.811 42.7596 30.811 42.7596L30.8082 28.3892L32.8956 27.7658C32.8956 27.7658 34.3126 27.2568 35.1612 28.1102C36.7695 29.7102 39.2155 32.7817 39.2155 32.7817C39.2155 32.7817 39.2189 29.11 39.2189 28.4621C39.2189 26.6627 40.0472 25.9752 41.1122 25.6703C42.048 25.4063 43.1675 25.1701 43.1675 25.1701ZM13.541 28.6982C13.3012 28.6953 13.0127 28.7682 12.6801 28.9356L12.6765 31.4709C12.6765 31.4709 13.0203 31.3183 13.2728 31.2006C13.8948 30.9209 14.3835 30.4037 14.3672 29.6237C14.3601 29.0786 14.0685 28.7046 13.541 28.6982ZM29.4922 28.7172C29.4922 28.7172 29.4882 39.4179 29.4882 40.8613C29.4882 42.5458 28.879 43.3782 27.2742 43.9846C26.1424 44.4127 24.931 44.8264 24.931 44.8264C24.931 44.8264 24.9357 34.8056 24.9357 32.8877C24.9357 30.7929 25.7389 29.9905 27.1163 29.491C28.1835 29.1023 29.4922 28.7172 29.4922 28.7172ZM22.0271 31.3484C22.3291 31.3431 22.6541 31.4046 22.9926 31.5564H22.9927C24.0823 32.0511 24.3818 33.2496 23.7877 34.2058C23.3358 34.932 20.5848 39.2707 20.5848 39.2707L23.7114 42.4142C24.3287 43.0927 24.4968 44.6138 23.3929 45.4972C22.1795 46.4881 20.7876 46.092 20.0424 45.2998L16.6117 41.6689L16.608 46.2076C16.608 46.2076 16.6196 47.0952 16.2854 47.6233C15.9206 48.1841 15.3157 48.3542 15.3157 48.3542L12.2469 49.648L12.2619 35.3199L16.6197 33.517L16.6258 38.5806L20.3138 32.2981C20.6317 31.8104 21.2549 31.3617 22.0271 31.3484ZM51.6123 38.5555C51.7927 38.5528 51.9391 38.5998 52.0548 38.7215C52.2774 38.9501 52.2325 39.3354 52.1733 39.5708C51.8949 40.7346 49.4278 48.9859 37.7545 51.8069C30.1213 53.6662 23.0752 51.1331 21.4915 49.1445C21.4915 49.1445 21.1213 48.7708 21.2825 48.3992C21.3874 48.1556 21.5405 48.1113 21.8747 47.9677C29.653 44.6356 43.1366 40.5134 51.2504 38.6085C51.3837 38.5766 51.5041 38.5571 51.6123 38.5555Z" fill="#1A1A1A"/>
</svg>
