<svg width="106" height="34" viewBox="0 0 106 34" fill="none" xmlns="http://www.w3.org/2000/svg">
<path fill-rule="evenodd" clip-rule="evenodd" d="M79.2614 6.50084C74.8494 9.98293 72.4054 14.6861 72.4185 19.3929C72.4407 26.3699 77.8412 33.0888 90.3567 33.0456C93.4636 33.0235 96.2031 32.6957 98.6942 32.2537C99.4199 32.1304 100.133 31.9931 100.809 31.8477L102.264 25.3535C99.8397 26.2001 96.7746 26.9003 94.3188 26.9119C87.6538 26.934 83.1843 22.8052 83.1738 17.3915C83.1634 14.5058 84.2984 11.9717 86.3514 10.1178C88.5508 8.1313 91.7912 6.93003 95.8449 6.93003C99.0538 6.93003 100.932 7.85685 102.212 9.18049C102.469 9.43976 102.706 9.71195 102.913 9.99692H103.957L106 2.33256C103.895 1.60682 100.775 0.996265 97.482 0.95778C89.8179 0.85085 83.5897 3.08387 79.2614 6.50084ZM68.8186 7.56535C69.7182 7.56535 70.4649 7.90718 70.9657 8.35501C71.3946 8.73533 71.6522 9.18768 71.6522 9.57852H72.6787L74.6715 1.25593H47.623L47.2281 2.88412L47.1353 3.27962C47.1353 3.27962 50.0957 3.62731 49.1882 6.7187L42.4369 32.3447L53.9206 32.368H55.9343L56.4456 30.1674C56.4456 30.1674 53.9206 29.5313 54.581 27.0947C54.6032 26.9834 55.1184 25.0032 55.6153 23.0917C55.797 22.3903 55.9775 21.6981 56.1305 21.1111C56.3842 20.1667 56.5646 19.4875 56.5646 19.4875L62.7459 19.4828C63.7567 19.4828 64.5308 19.6771 65.1297 19.9191C66.368 20.4146 66.8427 21.1657 66.8427 21.1657L68.6368 13.5502H58.2162L59.3421 9.20047L59.7644 7.57814L68.8186 7.56535ZM28.2071 15.567C28.2071 15.567 35.1559 26.8751 35.9562 27.7705L35.9915 27.8107C36.7892 28.7084 38.0955 30.179 40.053 30.1665L39.5326 32.3553C38.9167 32.3553 38.34 32.3596 37.783 32.3638L37.5189 32.3657C37.2142 32.3678 36.9147 32.3704 36.6231 32.3728C29.4272 32.4306 26.3137 32.4556 23.3937 28.2486C22.4404 26.8815 21.7095 25.8621 21.0857 24.9931C19.5532 22.854 18.6731 21.6266 16.7274 18.3688C16.7274 18.3688 16.2475 20.1738 15.7061 22.2334L15.6329 22.5157C15.0941 24.5654 14.5057 26.8029 14.2742 27.709C13.7969 29.5954 16.2997 30.113 16.2997 30.113L15.7741 32.3436H13.7655H0L0.320366 30.9969L0.526999 30.1456C0.571459 30.1428 0.622444 30.1411 0.677365 30.1392C0.792437 30.1351 0.928441 30.1303 1.07882 30.1152C2.09616 30.0002 3.78564 29.3803 4.91151 24.8759C4.95467 24.7474 4.98214 24.6639 5.0096 24.5799C5.1966 23.986 5.30117 23.364 9.71054 6.7199C10.3957 4.0031 8.5219 3.51146 7.73339 3.30479C7.70201 3.2964 7.67062 3.28841 7.64316 3.28082L7.74257 2.8796L8.12962 1.25713L23.2106 1.25247L22.715 3.28202C22.715 3.28202 20.6882 3.51931 20.1377 5.48947L17.5316 15.3531L17.4335 15.7066C17.4335 15.7066 29.9685 5.7 30.1294 5.55685C31.3546 4.3625 29.8561 3.35992 28.7825 3.28202L28.8753 2.88079L29.2689 1.25833L45.0652 1.23396L44.5722 3.28202C44.5722 3.28202 43.7301 3.18201 42.4251 3.88325C41.9714 4.12987 41.4535 4.46943 40.9043 4.94975L40.4963 5.29172L28.2071 15.567Z" fill="#1A1A1A"/>
</svg>
