<svg width="104" height="30" viewBox="0 0 104 30" fill="none" xmlns="http://www.w3.org/2000/svg">
<path d="M41.3152 0.769424C40.8345 0.769424 40.6285 1.05569 40.4397 1.4599C29.2638 26.8392 28.3196 28.8432 28.3196 28.8432H34.6543L35.9762 25.6603H45.5212L46.843 28.8432H54.2935C54.2935 28.8432 53.6583 27.5465 42.1735 1.4599C42.019 1.05569 41.7959 0.769424 41.3152 0.769424ZM38.0019 20.7932L40.7659 14.141L43.5297 20.7932H38.0019ZM24.6116 1.34211C24.955 1.00529 25.3155 0.769424 25.8648 0.769424V28.8432H19.9078V15.4211L13.0238 22.1742L6.13977 15.4211V28.8432H0.199951V0.769424C0.749298 0.769424 1.10981 1.00529 1.45315 1.34211L13.0409 12.7097L24.6116 1.34211ZM73.1087 16.0104C75.306 14.7306 76.954 12.4738 76.954 9.25731C76.954 6.73113 75.924 4.64286 74.1387 3.22821C72.319 1.79671 70.2246 1.022 65.9328 1.022H56.7656V28.8432H63.5466V18.4861C63.5981 18.4861 65.0573 18.4861 65.6409 18.4861C67.9242 18.4861 69.0744 19.3449 70.0357 21.6016C70.8426 23.5046 71.4262 25.7782 72.1645 28.8432H79.718C78.6537 25.694 78.1043 24.1951 77.2975 21.9722C76.2159 18.9408 74.8769 17.0546 73.1087 16.0104ZM68.7826 12.6086C67.9586 13.2317 66.9114 13.417 65.0058 13.417C64.5079 13.417 63.5638 13.417 63.5638 13.417C63.5638 13.417 63.5466 6.00696 63.5638 6.00696C63.5809 6.00696 64.3706 6.00696 65.0058 6.00696C66.9972 6.00696 67.9757 6.22584 68.7826 6.81537C69.6924 7.489 70.1044 8.51629 70.1044 9.71192C70.1044 10.9919 69.6409 11.9518 68.7826 12.6086ZM102.43 24.111C100.816 27.7822 96.8508 29.5 92.3358 29.5C87.6835 29.5 83.8553 28.018 81.263 24.9529L85.16 20.9449C86.9281 23.1172 89.3316 24.3467 92.0268 24.2793C93.9667 24.2288 95.1513 23.5046 95.6319 22.4268C96.1813 21.1974 95.6663 20.0691 94.7564 19.3617C92.1984 17.3914 86.293 17.2735 83.4948 13.4339C82.0527 11.4465 81.6407 8.68463 82.8253 6.04066C84.336 2.63882 87.7351 0.5 92.2499 0.5C96.1126 0.5 99.7864 1.94834 102.087 4.33974L98.1899 8.34781C96.7306 6.64689 94.6362 5.60276 92.3014 5.60276C90.6019 5.60276 89.4518 6.34378 89.1084 7.489C88.8338 8.41521 89.1256 9.3751 89.9839 10.0319C92.1641 11.6992 97.6919 12.1876 100.731 15.0168C103.34 17.4925 103.838 20.8943 102.43 24.111Z" fill="#1A1A1A"/>
</svg>
