<svg width="92" height="46" viewBox="0 0 92 46" fill="none" xmlns="http://www.w3.org/2000/svg">
<path d="M0.400024 45.4325H46.3452L91.4 0.5H0.400024V45.4325Z" fill="#1A1A1A"/>
<path d="M54.3589 8.94492L45.4548 8.94314V30.1967L37.6192 8.94314H29.9617L23.1945 26.7179C22.4822 22.2404 17.8521 20.6929 14.1124 19.5344C11.7973 18.7562 9.12605 17.612 9.30414 16.3611C9.30414 15.3235 10.5507 14.3711 13.2219 14.5133C15.0028 14.6039 16.6055 14.7514 19.811 16.2758L23.0165 10.862C19.9891 9.39799 16.0713 8.4723 12.8658 8.46875C8.94797 8.46875 5.7425 9.69827 3.78359 11.7362C2.53702 13.1541 1.64661 14.9539 1.64661 16.9492C1.64661 19.6943 2.7151 21.6416 4.674 23.1928C6.63291 24.4987 8.76989 25.3497 10.9069 25.9734C13.4 26.7427 15.3589 27.409 15.3589 28.8375C15.3589 29.3652 15.1808 29.8449 14.8247 30.2305C14.1124 30.8684 13.2219 31.11 11.7973 31.1402C9.30414 31.1864 7.52331 30.7902 4.49592 29.0259L1.64661 34.5072C4.674 36.2057 8.23564 37.2043 11.7973 37.2043L12.3315 37.2007C15.3589 37.1439 18.0302 36.2466 19.9891 34.6155C20.1671 34.5196 20.1671 34.4308 20.3452 34.3419L19.4548 36.7281H27.6466L28.8932 32.5918C30.3178 33.068 31.9206 33.3452 33.7014 33.3452C35.4822 33.3452 36.9069 33.0769 38.3315 32.6256L39.7562 36.7281H52.9343V28.1481H55.9617C62.9069 28.1481 67.0027 24.5928 67.0027 18.63C67.0027 11.9921 63.0849 8.94492 54.3589 8.94492ZM33.7014 27.1407C32.6329 27.1407 31.7425 26.9559 30.8521 26.6326L33.7014 17.6919L36.5507 26.661C35.6603 26.9666 34.7699 27.1407 33.7014 27.1407ZM54.8932 21.9988H52.9343V14.7905H54.8932C57.5644 14.7905 59.7014 15.6628 59.7014 18.3582C59.7014 21.1299 57.5644 21.9988 54.8932 21.9988Z" fill="white"/>
<path d="M57.5637 42.5618C57.5637 41.1884 58.6322 40.1419 59.8788 40.1419C61.1254 40.1419 62.1939 41.1884 62.1939 42.5618C62.1939 43.9868 61.1254 45.0138 59.8788 45.0138C58.6322 45.0138 57.5637 43.9868 57.5637 42.5618ZM59.8788 45.5006C61.4815 45.5006 62.9062 44.2551 62.9062 42.5618C62.9062 40.8934 61.4815 39.6675 59.8788 39.6675C58.276 39.6675 56.8514 40.8934 56.8514 42.5618C56.8514 44.2551 58.276 45.5006 59.8788 45.5006ZM59.3445 42.8052H59.8788L60.7692 44.2551H61.3035L60.413 42.7768C60.7692 42.7164 61.3035 42.4552 61.3035 41.8582C61.3035 41.1884 60.7692 40.8934 60.0569 40.8934H58.8103V44.2551H59.3445V42.8052ZM59.3445 42.3717V41.3216H60.0569C60.235 41.3216 60.7692 41.4034 60.7692 41.828C60.7692 42.338 60.235 42.3717 59.8788 42.3717H59.3445Z" fill="#1A1A1A"/>
</svg>
