<svg xmlns="http://www.w3.org/2000/svg" fill="#1a1a1a" viewBox="0 0 110.79 37">
    <path d="M65.44,35l2.41-14.55h4.91c.95,0,1.71,.17,2.29,.5,.58,.33,.98,.78,1.19,1.36,.22,.57,.27,1.22,.14,1.95-.1,.61-.29,1.12-.56,1.56-.27,.43-.61,.77-1,1.04-.39,.27-.81,.46-1.26,.58l-.02,.11c.46,.03,.89,.2,1.29,.5,.39,.29,.69,.71,.88,1.24,.2,.53,.24,1.16,.12,1.9-.12,.73-.4,1.39-.82,1.97-.42,.57-1,1.03-1.73,1.36-.73,.33-1.61,.49-2.66,.49h-5.18Zm1.53-1.19h3.85c1.12,0,1.99-.25,2.61-.75,.62-.5,1-1.12,1.13-1.88,.09-.55,.04-1.06-.16-1.51-.19-.45-.51-.81-.95-1.08-.44-.27-.99-.4-1.64-.4h-3.91l-.94,5.6Zm1.14-6.78h3.7c.57,0,1.09-.12,1.56-.36,.47-.24,.86-.56,1.16-.98,.31-.42,.5-.89,.59-1.43,.13-.77-.01-1.4-.43-1.88-.42-.49-1.12-.73-2.12-.73h-3.58l-.88,5.38Zm13.04,8.22c-.66,0-1.24-.13-1.74-.38-.5-.26-.88-.63-1.12-1.12-.24-.49-.31-1.09-.2-1.79,.09-.54,.27-.99,.54-1.36,.27-.37,.61-.67,1.02-.91,.41-.24,.89-.43,1.42-.57,.54-.14,1.12-.24,1.75-.31,.62-.08,1.14-.14,1.58-.2,.44-.06,.77-.15,1.02-.27,.24-.12,.39-.32,.43-.6l.04-.26c.12-.74,0-1.33-.34-1.75-.35-.43-.94-.65-1.76-.65s-1.47,.18-2.05,.53c-.57,.35-1,.75-1.28,1.21l-1.12-.43c.34-.6,.76-1.07,1.26-1.43,.5-.36,1.03-.62,1.6-.77,.57-.16,1.13-.24,1.68-.24,.42,0,.84,.05,1.27,.16,.43,.11,.82,.3,1.16,.57,.35,.27,.6,.64,.76,1.12,.17,.47,.19,1.07,.07,1.8l-1.24,7.41h-1.26l.29-1.73h-.08c-.2,.32-.47,.63-.82,.94-.35,.3-.76,.55-1.24,.75-.48,.19-1.03,.29-1.63,.29Zm.32-1.16c.67,0,1.28-.15,1.83-.45,.55-.3,1-.69,1.35-1.19,.36-.5,.58-1.04,.68-1.64l.26-1.58c-.1,.09-.27,.17-.51,.24-.23,.07-.49,.14-.79,.19-.29,.05-.58,.1-.87,.13-.29,.04-.54,.07-.77,.1-.63,.08-1.18,.19-1.65,.36-.46,.16-.84,.38-1.11,.67-.28,.28-.45,.64-.53,1.08-.11,.66,.04,1.18,.43,1.54,.4,.36,.96,.54,1.68,.54Zm10.19-5.91l-1.13,6.82h-1.26l1.82-10.91h1.23l-.28,1.71h.11c.34-.56,.81-1.01,1.41-1.34,.61-.34,1.31-.51,2.11-.51,.73,0,1.34,.15,1.85,.46,.51,.3,.87,.75,1.08,1.34,.22,.59,.26,1.32,.11,2.18l-1.19,7.07h-1.26l1.16-6.99c.15-.89,.02-1.6-.39-2.12-.4-.53-1.03-.79-1.87-.79-.57,0-1.11,.12-1.6,.37-.49,.25-.9,.6-1.24,1.07-.34,.46-.56,1.01-.67,1.64Zm11.02,2.7l.26-1.67h.28l5.96-5.12h1.62l-5.89,5.06-.11,.02-2.12,1.71Zm-1.83,4.12l2.42-14.55h1.26l-2.42,14.55h-1.26Zm6.82,0l-3.51-5.6,1.03-.87,4.08,6.48h-1.6Z"/>
    <path d="M13.51,29.11c-.43,2.63,.85,3.29,2.98,3.29,1.49,0,3.4-.66,3.62-2.19,.43-1.97-2.34-2.19-5.11-3.29-2.77-.88-5.32-2.19-4.47-6.35,1.06-4.82,5.96-6.57,9.57-6.57,4.04,0,7.45,2.19,6.38,7.01h-5.32c.85-1.75-.64-2.41-2.13-2.41-1.06,0-2.55,.44-2.98,1.97-.43,1.75,2.55,1.97,5.11,2.85,2.77,.88,5.32,2.41,4.47,6.35-1.28,5.48-5.96,7.23-10.42,7.23s-8.08-2.19-7.02-7.89h5.32ZM49.68,14.66h5.32l-4.89,21.9h-5.32l4.89-21.9Zm-19.15,0h9.36c3.4,0,7.02,.88,5.96,5.48-.43,1.97-1.91,3.5-3.62,4.38,1.91,.66,2.77,2.63,2.34,5.26-1.06,5.26-4.89,6.79-9.36,6.79h-9.57l4.89-21.9Zm3.4,8.54h4.04c.85,0,2.34-.44,2.55-1.97,.43-1.53-.64-2.19-1.7-2.19h-4.04l-.85,4.16Zm-1.91,8.76h4.26c1.7,0,2.98-.66,3.4-2.41,.43-1.97-.64-2.63-2.34-2.63h-4.25l-1.06,5.04Z"/>
    <path d="M62.5,6.37c-2.99-7.68-19.41-8.53-36.9-1.92C13.01,9.14,3.41,16.39,0,23c4.69-4.9,12.37-9.81,21.76-13.22,17.49-6.82,34.13-5.97,36.9,1.71,.85,2.13,.43,4.69-.85,7.25,4.27-4.26,6.19-8.74,4.69-12.37Z"/>
</svg>