<svg width="48" height="48" viewBox="0 0 48 48" fill="none" xmlns="http://www.w3.org/2000/svg">
<path d="M20.1031 5.4635C21.6682 2.94624 25.3318 2.94624 26.8969 5.4635L30.5145 11.2819C31.0652 12.1676 31.94 12.8031 32.9525 13.0532L39.604 14.6957C42.4817 15.4064 43.6139 18.8907 41.7034 21.1571L37.2877 26.3956C36.6156 27.193 36.2814 28.2214 36.3565 29.2616L36.8498 36.0952C37.0632 39.0516 34.0992 41.2051 31.3534 40.0885L25.0067 37.5077C24.0407 37.1149 22.9593 37.1149 21.9933 37.5077L15.6466 40.0885C12.9008 41.2051 9.93682 39.0516 10.1502 36.0952L10.6435 29.2616C10.7186 28.2214 10.3844 27.193 9.71227 26.3956L5.29655 21.1571C3.38614 18.8907 4.51828 15.4064 7.39598 14.6957L14.0475 13.0532C15.06 12.8031 15.9348 12.1676 16.4855 11.2819L20.1031 5.4635Z" fill="#FBE200"/>
</svg>
