<svg width="170" height="170" viewBox="0 0 170 170" fill="none" xmlns="http://www.w3.org/2000/svg">
<path d="M69.2271 20.8026C77.148 10.3564 92.852 10.3564 100.773 20.8026C105.095 26.5024 112.156 29.4271 119.242 28.4528C132.229 26.6671 143.334 37.7715 141.548 50.759C140.574 57.8454 143.499 64.9062 149.198 69.2281C159.645 77.1489 159.645 92.853 149.198 100.774C143.499 105.096 140.574 112.157 141.548 119.243C143.334 132.23 132.229 143.335 119.242 141.549C112.156 140.575 105.095 143.5 100.773 149.199C92.852 159.646 77.148 159.646 69.2271 149.199C64.9052 143.5 57.8444 140.575 50.758 141.549C37.7705 143.335 26.6661 132.23 28.4518 119.243C29.4261 112.157 26.5015 105.096 20.8016 100.774C10.3554 92.853 10.3554 77.1489 20.8016 69.2281C26.5015 64.9062 29.4261 57.8454 28.4518 50.759C26.6661 37.7715 37.7705 26.6671 50.758 28.4528C57.8444 29.4271 64.9052 26.5024 69.2271 20.8026Z" fill="#C4BAFF"/>
<path d="M82.0709 116.501V107.568H88.2474V116.501H82.0709ZM83.1415 100.421L81.6592 49.501H88.6592L87.1768 100.421H83.1415Z" fill="black"/>
</svg>
