<svg width="182" height="148" viewBox="0 0 182 148" fill="none" xmlns="http://www.w3.org/2000/svg">
<path fill-rule="evenodd" clip-rule="evenodd" d="M158.086 41.0836C154.014 41.949 150.012 39.35 149.146 35.2784L144.944 15.5063C143.566 9.0237 137.194 4.88554 130.711 6.26346L12.6413 31.36C6.15869 32.7379 2.02054 39.1101 3.39845 45.5927L9.16816 72.737L11.4409 83.4295L16.9405 109.303C16.9531 109.362 16.9153 109.42 16.8562 109.433C16.7971 109.445 16.7594 109.503 16.7719 109.563L22.3123 135.628C23.6902 142.11 30.0624 146.248 36.545 144.871L131.024 124.788C137.506 123.411 141.645 117.038 140.267 110.556L137.255 96.3862C135.877 89.9036 140.015 83.5314 146.498 82.1535L161.571 78.9495C168.054 77.5716 172.192 71.1994 170.814 64.7168L167.025 46.8888C166.159 42.8172 162.157 40.2182 158.086 41.0836Z" fill="#FFCB8D"/>
<path d="M17.4161 49.6932L27.5889 47.5309L28.3498 51.1109L26.9022 51.4186L26.4489 49.2862L23.6123 49.8892L25.9076 60.6879L28.0595 60.2305L28.3673 61.6782L22.4397 62.9381L22.132 61.4905L24.2839 61.0331L21.9886 50.2343L19.1715 50.8331L19.6247 52.9655L18.1771 53.2732L17.4161 49.6932ZM32.5657 60.7858L32.287 59.4751L34.928 58.9137L33.4061 51.7537L30.7651 52.315L30.4865 51.0043L34.1448 50.2267L34.7281 51.4318L34.8259 51.411C35.1834 50.9124 35.6055 50.4615 36.0923 50.0581C36.5791 49.6548 37.2007 49.3727 37.9571 49.2119C38.4006 49.1177 38.7707 49.1276 39.0676 49.2417C39.3775 49.353 39.6388 49.5565 39.8516 49.852C40.0774 50.1448 40.2663 50.5204 40.4183 50.9788C40.5675 51.4242 40.7044 51.9403 40.8292 52.5272L39.4639 52.8379C39.2865 52.0032 39.0714 51.4082 38.8187 51.053C38.5791 50.695 38.244 50.5618 37.8137 50.6532C37.4094 50.7392 37.0567 50.8755 36.7556 51.0622C36.4545 51.2489 36.198 51.4533 35.9863 51.6755C35.7876 51.895 35.6214 52.1075 35.4879 52.3131C35.3544 52.5186 35.261 52.6884 35.2077 52.8225L36.4344 58.5935L40.1905 57.7951L40.4691 59.1059L32.5657 60.7858ZM48.0269 47.276L50.8048 46.6855L52.2228 53.3565C52.3586 53.9956 52.528 54.6002 52.731 55.1705L54.0417 54.8919L54.312 56.1635L51.7101 56.7165L51.298 55.0661L51.2197 55.0828C50.9999 55.7156 50.6469 56.2677 50.161 56.7391C49.675 57.2104 49.0343 57.5306 48.2387 57.6997C47.6388 57.8273 47.1084 57.865 46.6475 57.813C46.2024 57.7713 45.8069 57.61 45.461 57.3292C45.115 57.0483 44.8172 56.6413 44.5676 56.1082C44.3152 55.5621 44.0989 54.8652 43.9187 54.0175L43.0039 49.7136L41.6932 49.9922L41.4146 48.6815L44.2512 48.0785L45.3781 53.3801C45.4917 53.9148 45.6139 54.3932 45.7445 54.8153C45.8854 55.2215 46.0594 55.5594 46.2666 55.8289C46.4711 56.0853 46.7269 56.2627 47.034 56.361C47.3514 56.4434 47.7449 56.4348 48.2144 56.335C48.8926 56.1908 49.4324 55.8444 49.8337 55.2956C50.2481 54.744 50.515 54.108 50.6345 53.3874L49.5575 48.3206L48.3055 48.5867L48.0269 47.276ZM62.742 51.6113C62.6533 51.194 62.4223 50.9091 62.0491 50.7567C61.6732 50.5912 61.2301 50.4946 60.7198 50.4667C60.2068 50.4258 59.6508 50.4077 59.052 50.4123C58.4663 50.4141 57.9113 50.3685 57.3872 50.2754C56.8631 50.1824 56.4033 50.0075 56.008 49.7507C55.6098 49.4809 55.347 49.0461 55.2195 48.4461C55.1142 47.9505 55.1284 47.5045 55.2622 47.108C55.4091 46.7088 55.635 46.3608 55.94 46.0643C56.2423 45.7547 56.6171 45.4978 57.0644 45.2937C57.5089 45.0765 57.9855 44.9139 58.4942 44.8057C59.4071 44.6117 60.2146 44.5627 60.9166 44.6589C61.6289 44.7392 62.207 44.8617 62.6509 45.0263L62.2868 46.3919C61.8066 46.2486 61.2899 46.1267 60.7369 46.0261C60.1942 45.9097 59.5446 45.932 58.7882 46.0927C58.5013 46.1537 58.2213 46.2473 57.9482 46.3735C57.6854 46.4839 57.4491 46.6227 57.2393 46.79C57.0426 46.9545 56.8932 47.1498 56.7914 47.3759C56.6997 47.5863 56.683 47.8284 56.7413 48.1022C56.8133 48.4413 57.0318 48.6675 57.3967 48.7808C57.7615 48.8941 58.1991 48.9646 58.7094 48.9925C59.2169 49.0073 59.7635 49.0138 60.3492 49.012C60.9453 48.9943 61.5067 49.0386 62.0336 49.1447C62.5606 49.2508 63.0245 49.4452 63.4254 49.7281C63.8262 50.0109 64.0905 50.4523 64.218 51.0522C64.4093 51.9521 64.2086 52.7717 63.6161 53.5111C63.0365 54.2477 62.036 54.767 60.6144 55.0692C60.184 55.1607 59.7518 55.2117 59.3179 55.2221C58.8839 55.2326 58.4705 55.2114 58.0776 55.1586C57.6847 55.1058 57.3216 55.033 56.9884 54.9403C56.6524 54.8345 56.3685 54.7176 56.1369 54.5897L56.6491 53.1517C56.8389 53.275 57.0822 53.3936 57.3791 53.5077C57.6732 53.6088 57.9906 53.6913 58.3313 53.7552C58.672 53.8191 59.0268 53.8527 59.3956 53.8561C59.7774 53.8567 60.1509 53.8182 60.516 53.7406C60.8682 53.6658 61.1887 53.5704 61.4775 53.4545C61.7767 53.3227 62.0312 53.1732 62.241 53.0059C62.448 52.8256 62.5959 52.6238 62.6848 52.4004C62.7839 52.1613 62.803 51.8982 62.742 51.6113ZM64.9922 43.6699L67.3202 43.1751L66.9085 41.2383L68.343 40.4836L68.8461 42.8507L74.0694 41.7405L74.348 43.0512L69.1247 44.1615L70.1061 48.7783C70.3084 49.7304 70.6864 50.3861 71.2399 50.7456C71.8064 51.1022 72.52 51.1891 73.3808 51.0061C73.9677 50.8814 74.4528 50.6624 74.836 50.3492C75.2323 50.0333 75.5788 49.7074 75.8755 49.3717L76.6295 50.4178C76.2506 50.88 75.7653 51.2899 75.1733 51.6475C74.5944 52.0022 73.9724 52.2503 73.3073 52.3917C72.7856 52.5026 72.2734 52.5297 71.7706 52.473C71.2836 52.4265 70.8308 52.2842 70.4122 52.0461C69.9935 51.8079 69.6285 51.4697 69.3173 51.0315C69.0033 50.5803 68.7742 50.0156 68.6301 49.3374L67.5988 44.4858L65.2708 44.9806L64.9922 43.6699ZM88.2818 47.6548C88.0914 47.9134 87.8526 48.1686 87.5654 48.4205C87.2912 48.6696 86.9788 48.8996 86.6283 49.1104C86.2778 49.3212 85.9009 49.5036 85.4974 49.6575C85.1097 49.8217 84.7072 49.9481 84.2899 50.0368C83.5073 50.2032 82.7912 50.2327 82.1413 50.1255C81.4887 50.0052 80.9132 49.7663 80.4146 49.4088C79.9133 49.0383 79.4917 48.5622 79.15 47.9805C78.8083 47.3989 78.5542 46.7168 78.3879 45.9343C78.2133 45.1126 78.1689 44.3587 78.2548 43.6725C78.3537 42.9836 78.5726 42.3782 78.9115 41.8563C79.2504 41.3344 79.7028 40.8975 80.2686 40.5455C80.8317 40.1804 81.4915 39.9175 82.2479 39.7567C82.7956 39.6403 83.3521 39.597 83.9174 39.6268C84.4826 39.6566 85.0103 39.8307 85.5005 40.149C86.001 40.4516 86.437 40.9314 86.8084 41.5886C87.177 42.2327 87.4466 43.1159 87.617 44.2384L80.0461 45.8476C80.2956 47.0214 80.7958 47.8352 81.5465 48.289C82.3076 48.727 83.2163 48.8338 84.2727 48.6092C84.6248 48.5344 84.9621 48.4218 85.2846 48.2714C85.6173 48.1053 85.9277 47.9303 86.2157 47.7464C86.5038 47.5625 86.7499 47.3738 86.9542 47.1805C87.1715 46.9843 87.3329 46.8137 87.4384 46.6686L88.2818 47.6548ZM82.5615 41.0396C82.1311 41.1311 81.73 41.264 81.3581 41.4385C80.9993 41.6102 80.6935 41.8388 80.4406 42.1242C80.1981 42.3939 80.0164 42.7256 79.8956 43.1193C79.7851 43.4972 79.7578 43.946 79.8137 44.4657L85.8978 43.1725C85.6497 42.3256 85.2279 41.7201 84.6325 41.3559C84.0474 40.9759 83.357 40.8705 82.5615 41.0396ZM93.8418 33.4484L97.011 32.7747L99.2107 43.1235C99.2357 43.2409 99.2741 43.3895 99.3259 43.5693C99.375 43.7361 99.4269 43.9159 99.4815 44.1088C99.5492 44.2989 99.6168 44.4889 99.6845 44.679C99.7494 44.8561 99.8101 45.0135 99.8667 45.1515L101.177 44.8729L101.448 46.1445L98.8458 46.6975L98.33 45.2327L98.2518 45.2494C98.0702 45.806 97.7285 46.3148 97.2268 46.7758C96.7352 47.2211 96.1178 47.5227 95.3744 47.6807C93.9007 47.994 92.7243 47.8146 91.8454 47.1427C90.9768 46.4549 90.3567 45.2372 89.9853 43.4896C89.8106 42.668 89.7741 41.9192 89.8758 41.2433C89.9748 40.5543 90.195 39.9554 90.5367 39.4466C90.8887 38.922 91.3476 38.4837 91.9134 38.1316C92.4793 37.7796 93.1404 37.5232 93.8968 37.3625C94.1707 37.3042 94.4134 37.2595 94.6248 37.2282C94.8493 37.1941 95.0556 37.1707 95.2437 37.158C95.4319 37.1452 95.6097 37.1483 95.7773 37.1672C95.9552 37.1703 96.1475 37.1771 96.3542 37.1877L95.7637 34.4098L94.1204 34.7591L93.8418 33.4484ZM95.3501 46.316C96.1457 46.1469 96.7287 45.8116 97.0993 45.3103C97.467 44.796 97.6484 44.1099 97.6433 43.2522L96.6785 38.7136C96.35 38.579 95.9935 38.5048 95.6089 38.4912C95.2374 38.4747 94.7582 38.5289 94.1713 38.6536C93.1279 38.8754 92.3714 39.3565 91.9018 40.097C91.4294 40.8245 91.3318 41.8403 91.609 43.1445C91.7226 43.6792 91.875 44.1716 92.0661 44.6217C92.2675 45.056 92.515 45.4191 92.8088 45.7111C93.1157 46.0003 93.479 46.2025 93.8988 46.3178C94.3186 46.433 94.8024 46.4324 95.3501 46.316ZM110.514 29.9046L113.644 29.2393L114.712 34.267L114.81 34.2462C115.058 33.7437 115.424 33.3183 115.909 32.9699C116.394 32.6215 116.949 32.3807 117.575 32.2477C120.444 31.6378 122.231 32.9892 122.935 36.3019C123.293 37.9843 123.104 39.3738 122.37 40.4706C121.632 41.5542 120.409 42.2777 118.701 42.6408C117.892 42.8127 117.145 42.8897 116.46 42.8718C115.774 42.8539 115.26 42.7725 114.915 42.6276L112.416 30.8702L110.792 31.2154L110.514 29.9046ZM117.658 33.6C116.876 33.7663 116.29 34.1225 115.902 34.6685C115.514 35.2145 115.295 35.9153 115.245 36.7711L116.201 41.2705C116.534 41.3633 116.919 41.4109 117.356 41.4135C117.793 41.4161 118.239 41.3689 118.696 41.2719C119.218 41.161 119.672 40.9895 120.059 40.7573C120.456 40.5093 120.771 40.1969 121.005 39.8202C121.235 39.4303 121.376 38.971 121.427 38.4422C121.491 37.9105 121.452 37.3056 121.307 36.6274C121.202 36.1318 121.05 35.6734 120.851 35.2522C120.653 34.8309 120.402 34.4822 120.098 34.2061C119.804 33.9141 119.455 33.7156 119.051 33.6107C118.644 33.4927 118.18 33.4891 117.658 33.6ZM130.879 38.3141L131.623 38.1561L132.29 29.3654L133.874 29.0286L133.022 38.3903C132.976 38.8773 132.935 39.4243 132.901 40.0314C132.882 40.6488 132.79 41.2409 132.624 41.8078C132.458 42.3746 132.178 42.884 131.783 43.336C131.389 43.7879 130.813 44.0943 130.057 44.255C129.887 44.2911 129.7 44.3103 129.496 44.3128C129.305 44.3125 129.112 44.2991 128.915 44.2727C128.722 44.2594 128.538 44.2302 128.365 44.1852C128.192 44.1402 128.058 44.0869 127.963 44.0253L128.211 42.5003C128.304 42.5489 128.422 42.5919 128.566 42.6294C128.723 42.6641 128.884 42.6844 129.049 42.6903C129.23 42.7064 129.401 42.7109 129.563 42.7037C129.728 42.7096 129.863 42.7014 129.967 42.6792C130.945 42.4713 131.434 41.5018 131.434 39.7706L130.124 40.0492L123.936 31.141L125.697 30.7667L130.879 38.3141Z" fill="black"/>
<path d="M40.9818 122.274C40.893 121.857 40.6621 121.572 40.2889 121.42C39.913 121.254 39.4699 121.158 38.9596 121.13C38.4465 121.089 37.8906 121.071 37.2918 121.075C36.7061 121.077 36.1511 121.032 35.627 120.938C35.1029 120.845 34.6431 120.671 34.2478 120.414C33.8496 120.144 33.5868 119.709 33.4593 119.109C33.354 118.614 33.3682 118.168 33.502 117.771C33.6489 117.372 33.8748 117.024 34.1798 116.727C34.4821 116.418 34.8568 116.161 35.3042 115.957C35.7487 115.74 36.2253 115.577 36.734 115.469C37.6469 115.275 38.4544 115.226 39.1564 115.322C39.8686 115.402 40.4467 115.525 40.8907 115.689L40.5266 117.055C40.0463 116.912 39.5297 116.79 38.9767 116.689C38.434 116.573 37.7844 116.595 37.028 116.756C36.7411 116.817 36.4611 116.91 36.188 117.037C35.9252 117.147 35.6889 117.286 35.4791 117.453C35.2823 117.618 35.133 117.813 35.0311 118.039C34.9395 118.249 34.9228 118.491 34.981 118.765C35.0531 119.104 35.2716 119.331 35.6365 119.444C36.0013 119.557 36.4389 119.628 36.9492 119.656C37.4567 119.67 38.0033 119.677 38.589 119.675C39.1851 119.657 39.7465 119.702 40.2734 119.808C40.8003 119.914 41.2642 120.108 41.6651 120.391C42.066 120.674 42.3302 121.115 42.4578 121.715C42.649 122.615 42.4484 123.435 41.8558 124.174C41.2763 124.911 40.2758 125.43 38.8542 125.732C38.4238 125.824 37.9916 125.875 37.5577 125.885C37.1237 125.896 36.7102 125.874 36.3174 125.822C35.9245 125.769 35.5614 125.696 35.2282 125.603C34.8922 125.498 34.6083 125.381 34.3767 125.253L34.8889 123.815C35.0787 123.938 35.322 124.057 35.6189 124.171C35.913 124.272 36.2304 124.354 36.5711 124.418C36.9118 124.482 37.2666 124.516 37.6354 124.519C38.0172 124.52 38.3906 124.481 38.7558 124.404C39.108 124.329 39.4285 124.233 39.7173 124.118C40.0165 123.986 40.271 123.836 40.4808 123.669C40.6878 123.489 40.8357 123.287 40.9246 123.063C41.0237 122.824 41.0427 122.561 40.9818 122.274ZM43.232 114.333L45.56 113.838L45.1483 111.901L46.5828 111.147L47.0859 113.514L52.3092 112.404L52.5878 113.714L47.3645 114.825L48.3459 119.441C48.5482 120.393 48.9262 121.049 49.4796 121.409C50.0462 121.765 50.7598 121.852 51.6206 121.669C52.2075 121.544 52.6926 121.325 53.0758 121.012C53.4721 120.696 53.8186 120.37 54.1153 120.035L54.8693 121.081C54.4904 121.543 54.005 121.953 53.4131 122.311C52.8342 122.665 52.2122 122.913 51.5471 123.055C51.0254 123.166 50.5132 123.193 50.0104 123.136C49.5234 123.09 49.0706 122.947 48.6519 122.709C48.2333 122.471 47.8683 122.133 47.5571 121.695C47.2431 121.243 47.014 120.679 46.8698 120L45.8386 115.149L43.5106 115.644L43.232 114.333ZM56.6307 112.282C57.1222 111.837 57.7048 111.468 58.3786 111.175C59.0523 110.882 59.7283 110.663 60.4065 110.519C61.0716 110.377 61.6351 110.367 62.0968 110.487C62.5715 110.604 62.9623 110.807 63.2691 111.096C63.5862 111.37 63.8296 111.713 63.9994 112.127C64.1794 112.525 64.3151 112.939 64.4066 113.369C64.5119 113.865 64.6112 114.396 64.7043 114.962C64.7974 115.529 64.897 116.094 65.0032 116.657C65.1418 117.309 65.3126 117.921 65.5156 118.491L66.8263 118.212L67.0966 119.484L64.4947 120.037L64.0068 118.607L63.909 118.628C63.8557 118.762 63.7702 118.937 63.6525 119.153C63.5348 119.368 63.3649 119.595 63.1429 119.833C62.9312 120.056 62.6565 120.271 62.3191 120.479C61.9816 120.687 61.5651 120.844 61.0695 120.949C60.1044 121.154 59.2888 121.068 58.6226 120.692C57.9565 120.316 57.5319 119.697 57.349 118.836C57.2076 118.171 57.2332 117.586 57.4259 117.082C57.6316 116.575 57.9834 116.146 58.4813 115.794C58.9791 115.443 59.6087 115.166 60.3698 114.964C61.144 114.758 62.0289 114.625 63.0245 114.563C62.9622 113.949 62.8634 113.452 62.728 113.072C62.603 112.676 62.4307 112.379 62.2113 112.18C62.0049 111.978 61.742 111.864 61.4226 111.836C61.1135 111.793 60.7438 111.817 60.3134 111.909C59.7265 112.033 59.1837 112.237 58.685 112.52C58.1836 112.791 57.7422 113.055 57.3609 113.313L56.6307 112.282ZM61.1822 119.555C61.5474 119.477 61.874 119.347 62.162 119.163C62.4501 118.979 62.6921 118.771 62.888 118.538C63.084 118.306 63.238 118.068 63.3502 117.826C63.4595 117.572 63.5326 117.338 63.5692 117.126L63.2782 115.756C62.575 115.783 61.9365 115.857 61.3627 115.979C60.7888 116.101 60.3071 116.272 59.9175 116.491C59.5251 116.697 59.2392 116.956 59.0599 117.266C58.8806 117.577 58.8353 117.941 58.924 118.358C59.0155 118.789 59.2394 119.136 59.5956 119.402C59.9621 119.651 60.491 119.702 61.1822 119.555ZM69.4561 118.982L69.1775 117.672L71.8185 117.11L70.2966 109.95L67.6556 110.512L67.377 109.201L71.0352 108.423L71.6185 109.628L71.7163 109.607C72.0738 109.109 72.496 108.658 72.9827 108.255C73.4695 107.851 74.0911 107.569 74.8476 107.408C75.291 107.314 75.6611 107.324 75.958 107.438C76.2679 107.55 76.5293 107.753 76.742 108.048C76.9678 108.341 77.1567 108.717 77.3087 109.175C77.4579 109.621 77.5949 110.137 77.7196 110.724L76.3544 111.034C76.1769 110.2 75.9619 109.605 75.7092 109.249C75.4695 108.891 75.1345 108.758 74.7041 108.85C74.2998 108.936 73.9471 109.072 73.646 109.259C73.3449 109.445 73.0885 109.65 72.8767 109.872C72.678 110.091 72.5119 110.304 72.3784 110.51C72.2449 110.715 72.1515 110.885 72.0981 111.019L73.3248 116.79L77.0809 115.992L77.3595 117.302L69.4561 118.982ZM78.4224 106.853L80.7504 106.358L80.3387 104.421L81.7731 103.667L82.2763 106.034L87.4996 104.924L87.7782 106.234L82.5549 107.345L83.5362 111.961C83.7386 112.913 84.1165 113.569 84.67 113.929C85.2366 114.285 85.9502 114.372 86.811 114.189C87.3979 114.064 87.883 113.846 88.2662 113.532C88.6625 113.216 89.009 112.891 89.3057 112.555L90.0597 113.601C89.6808 114.063 89.1954 114.473 88.6035 114.831C88.0246 115.185 87.4026 115.433 86.7375 115.575C86.2158 115.686 85.7036 115.713 85.2008 115.656C84.7138 115.61 84.261 115.467 83.8423 115.229C83.4237 114.991 83.0587 114.653 82.7475 114.215C82.4335 113.763 82.2044 113.199 82.0602 112.521L81.029 107.669L78.701 108.164L78.4224 106.853ZM96.6474 102.979L99.4254 102.389L100.843 109.06C100.979 109.699 101.149 110.303 101.352 110.874L102.662 110.595L102.933 111.867L100.331 112.42L99.9186 110.769L99.8403 110.786C99.6204 111.419 99.2675 111.971 98.7815 112.442C98.2956 112.914 97.6548 113.234 96.8593 113.403C96.2593 113.53 95.7289 113.568 95.2681 113.516C94.823 113.474 94.4275 113.313 94.0815 113.032C93.7356 112.751 93.4378 112.344 93.1881 111.811C92.9358 111.265 92.7195 110.568 92.5393 109.721L91.6245 105.417L90.3137 105.695L90.0351 104.385L92.8718 103.782L93.9987 109.083C94.1123 109.618 94.2344 110.096 94.365 110.518C94.5059 110.925 94.68 111.263 94.8872 111.532C95.0916 111.788 95.3474 111.966 95.6546 112.064C95.972 112.147 96.3655 112.138 96.835 112.038C97.5132 111.894 98.0529 111.548 98.4543 110.999C98.8687 110.447 99.1356 109.811 99.255 109.091L98.178 104.024L96.926 104.29L96.6474 102.979ZM103.882 105.02C103.857 104.902 103.819 104.754 103.767 104.574C103.725 104.378 103.677 104.184 103.622 103.991C103.565 103.785 103.502 103.587 103.435 103.397C103.38 103.204 103.325 103.039 103.268 102.901L101.957 103.18L101.687 101.908L104.289 101.355L104.776 102.683L104.873 102.662C105.129 102.131 105.492 101.658 105.963 101.245C106.444 100.815 107.076 100.517 107.858 100.351C109.254 100.054 110.385 100.216 111.253 100.836C112.121 101.455 112.741 102.639 113.112 104.387C113.287 105.208 113.321 105.978 113.214 106.696C113.118 107.398 112.897 108.024 112.551 108.575C112.204 109.126 111.744 109.592 111.171 109.972C110.598 110.353 109.933 110.624 109.176 110.785C108.902 110.843 108.652 110.883 108.425 110.904C108.213 110.935 108.012 110.951 107.821 110.95C107.646 110.96 107.468 110.957 107.287 110.941C107.107 110.925 106.91 110.898 106.698 110.862L107.571 114.97L106.065 115.29L103.882 105.02ZM107.907 101.833C107.516 101.916 107.16 102.067 106.838 102.285C106.529 102.501 106.263 102.755 106.039 103.048C105.828 103.338 105.668 103.645 105.56 103.968C105.451 104.291 105.408 104.6 105.43 104.895L106.378 109.355C106.706 109.49 107.059 109.579 107.436 109.621C107.824 109.648 108.311 109.599 108.898 109.474C109.941 109.252 110.704 108.736 111.186 107.925C111.665 107.1 111.764 106.03 111.484 104.712C111.249 103.604 110.845 102.797 110.274 102.291C109.714 101.769 108.925 101.617 107.907 101.833ZM123.093 104.821C123.004 104.404 122.773 104.119 122.4 103.967C122.024 103.801 121.581 103.704 121.07 103.677C120.557 103.636 120.002 103.618 119.403 103.622C118.817 103.624 118.262 103.578 117.738 103.485C117.214 103.392 116.754 103.217 116.359 102.961C115.961 102.691 115.698 102.256 115.57 101.656C115.465 101.16 115.479 100.714 115.613 100.318C115.76 99.9186 115.986 99.5707 116.291 99.2741C116.593 98.9645 116.968 98.7077 117.415 98.5035C117.86 98.2863 118.336 98.1237 118.845 98.0156C119.758 97.8215 120.565 97.7726 121.267 97.8687C121.98 97.9491 122.558 98.0715 123.002 98.2362L122.638 99.6017C122.157 99.4584 121.641 99.3365 121.088 99.236C120.545 99.1196 119.895 99.1418 119.139 99.3026C118.852 99.3636 118.572 99.4572 118.299 99.5834C118.036 99.6937 117.8 99.8326 117.59 99.9998C117.393 100.164 117.244 100.36 117.142 100.586C117.05 100.796 117.034 101.038 117.092 101.312C117.164 101.651 117.382 101.877 117.747 101.991C118.112 102.104 118.55 102.174 119.06 102.202C119.568 102.217 120.114 102.224 120.7 102.222C121.296 102.204 121.857 102.248 122.384 102.355C122.911 102.461 123.375 102.655 123.776 102.938C124.177 103.221 124.441 103.662 124.569 104.262C124.76 105.162 124.559 105.982 123.967 106.721C123.387 107.458 122.387 107.977 120.965 108.279C120.535 108.371 120.103 108.421 119.669 108.432C119.235 108.442 118.821 108.421 118.428 108.368C118.035 108.316 117.672 108.243 117.339 108.15C117.003 108.044 116.719 107.927 116.488 107.8L117 106.362C117.19 106.485 117.433 106.603 117.73 106.718C118.024 106.819 118.341 106.901 118.682 106.965C119.023 107.029 119.377 107.063 119.746 107.066C120.128 107.067 120.502 107.028 120.867 106.95C121.219 106.876 121.539 106.78 121.828 106.664C122.127 106.533 122.382 106.383 122.592 106.216C122.799 106.035 122.947 105.834 123.035 105.61C123.135 105.371 123.154 105.108 123.093 104.821Z" fill="black"/>
<g clip-path="url(#clip0_238_2938)">
<rect width="135.663" height="26.8317" transform="translate(21.9966 75.0898) rotate(-12)" fill="#FFCB8D"/>
<path d="M48.7482 69.4038L21.4092 75.2148L27.0047 101.54L54.3437 95.7286L48.7482 69.4038Z" fill="#1A1A1A"/>
<path d="M37.338 87.42L30.79 79.9155L32.9772 79.4506L36.8488 84.2223C36.8675 84.31 36.9773 84.3784 37.087 84.4468C37.1968 84.5151 37.2155 84.6029 37.3439 84.759L37.4537 84.8274L37.4723 84.9152C37.6008 85.0713 37.6194 85.159 37.7479 85.3152C37.8576 85.3835 37.8949 85.559 38.0047 85.6274C38.0399 85.3448 38.1849 85.1306 38.2014 84.7602C38.2366 84.4776 38.3629 84.1756 38.4892 83.8736L40.0853 77.9398L42.0902 77.5136L39.1793 87.1203L40.3357 92.5608L38.5131 92.9482L37.338 87.42Z" fill="white"/>
<path d="M62.3146 71.8401C63.6816 71.5495 64.9409 71.6487 66.0014 72.157L65.3139 73.4037C64.3818 73.0515 63.487 72.8748 62.4846 73.0879C60.9354 73.4172 59.9186 74.4588 59.5977 76.0861C59.4197 77.0411 59.48 78.2206 59.797 79.7123C60.0395 80.8531 60.4269 81.7796 60.8495 82.4235C61.933 83.9357 63.2855 84.4737 65.1081 84.0863C66.1106 83.8732 66.9659 83.4162 67.6555 82.6277L68.8093 83.5747C67.7738 84.5285 66.5726 85.1507 65.2056 85.4412C63.5653 85.7899 62.0678 85.4662 60.6944 84.3824C59.3398 83.3864 58.5297 81.816 58.1007 79.7977C57.6717 77.7795 57.8828 76.0838 58.6966 74.5351C59.4565 73.1813 60.6743 72.1887 62.3146 71.8401Z" fill="black"/>
<path d="M69.3548 79.422C69.019 77.8425 69.1224 76.5365 69.7561 75.4847C70.3897 74.4329 71.2802 73.6933 72.5561 73.4221C74.0141 73.1122 75.3107 73.3869 76.3734 74.3533C77.1978 75.0952 77.7323 76.2656 78.0494 77.7573C78.4224 79.5123 78.1741 81.0325 77.3582 82.1231C76.7597 82.8923 75.923 83.437 74.8294 83.6694C73.4625 83.96 72.3668 83.7343 71.3415 82.9434C70.3348 82.2402 69.6905 81.0015 69.3548 79.422ZM75.193 75.5213C74.5694 74.8284 73.8383 74.5253 72.8358 74.7384C71.8334 74.9514 71.2701 75.438 70.9637 76.2369C70.7111 76.8409 70.8064 77.7377 71.0489 78.8785C71.366 80.3702 71.7721 81.3845 72.3583 81.9019C72.9445 82.4192 73.657 82.6347 74.5683 82.441C75.6619 82.2085 76.279 81.527 76.4384 80.4843C76.5087 79.9191 76.4506 79.1977 76.2641 78.3202C76.0755 76.9846 75.688 76.0581 75.193 75.5213Z" fill="black"/>
<path d="M80.4251 74.5932C80.22 73.628 79.961 72.8576 79.557 72.3014L81.0316 71.6211C81.3983 72.0018 81.6013 72.5089 81.6946 72.9477L81.7132 73.0354C82.0031 72.6069 82.2931 72.1784 82.7839 71.799C83.3472 71.3124 83.8567 71.0207 84.4034 70.9044C85.2236 70.7301 86.0273 70.9261 86.6135 71.4435C86.7419 71.5997 86.9801 71.8242 87.1086 71.9803C87.9783 70.6949 88.8688 69.9553 89.9624 69.7229C90.6914 69.5679 91.3853 69.6956 91.9342 70.0374C92.5018 70.4671 92.9057 71.0232 93.0549 71.7252L94.603 79.0084L92.9627 79.3571L91.4332 72.1616C91.2281 71.1964 90.6792 70.8545 89.859 71.0288C89.4033 71.1257 88.8939 71.4174 88.5128 71.8653C88.3679 72.0795 88.0593 72.4202 87.6782 72.8681L87.5333 73.0823L89.0441 80.19L87.3126 80.5581L85.8578 73.7136C85.7272 73.0993 85.5428 72.68 85.3233 72.5432C84.9939 72.3381 84.7019 72.3084 84.2462 72.4053C83.5172 72.5603 82.7903 73.1733 81.9744 74.2639L83.5038 81.4594L81.9546 81.7887L80.4251 74.5932Z" fill="black"/>
<path d="M94.4994 64.6318L96.0651 63.9321C96.3966 64.5954 96.6556 65.3657 96.8608 66.331L97.3271 68.5247C97.439 69.0512 97.5136 69.4022 97.5509 69.5777C98.2757 68.5065 99.1849 67.8547 100.187 67.6416C101.372 67.3898 102.468 67.6155 103.292 68.3574C104.208 69.0799 104.833 70.2309 105.15 71.7227C105.486 73.3022 105.383 74.6081 104.859 75.7283C104.335 76.8486 103.426 77.5004 102.241 77.7522C101.694 77.8684 101.22 77.8775 100.617 77.7305C100.015 77.5835 99.5941 77.3977 99.2461 77.1048C99.2482 77.5629 99.2317 77.9333 99.1965 78.2159L97.6473 78.5452C97.7363 78.0677 97.6596 77.2586 97.3984 76.0301L95.44 66.8164C95.1251 65.7828 94.8661 65.0124 94.4994 64.6318ZM98.4105 70.037C98.1744 70.2706 97.957 70.592 97.8307 70.894L98.8938 75.8957C99.6996 76.5498 100.594 76.7265 101.597 76.5134C102.417 76.3391 102.999 75.9403 103.233 75.2485C103.539 74.4497 103.608 73.4263 103.309 72.0223C103.048 70.7938 102.679 69.9551 102.112 69.5254C101.635 69.0764 100.941 68.9488 100.03 69.1425C99.4646 69.1709 98.864 69.482 98.4105 70.037Z" fill="black"/>
<path d="M105.879 63.4968C105.804 63.1458 105.839 62.8632 106.057 62.5418C106.274 62.2205 106.529 62.0746 106.893 61.9971C107.258 61.9196 107.55 61.9493 107.879 62.1544C108.209 62.3596 108.356 62.6034 108.43 62.9544C108.505 63.3054 108.47 63.5881 108.252 63.9094C108.035 64.2308 107.78 64.3766 107.416 64.4541C107.051 64.5316 106.759 64.502 106.43 64.2968C106.1 64.0917 105.953 63.8478 105.879 63.4968ZM108.929 76.0553L106.877 66.4028L108.462 65.7909L110.57 75.7066L108.929 76.0553Z" fill="black"/>
<path d="M112.594 67.755C112.445 67.053 112.351 66.6142 112.223 66.4581C112.167 66.1949 111.929 65.9703 111.653 65.5703L113.109 64.8023C113.495 65.2707 113.679 65.6901 113.791 66.2166C114.588 65.0382 115.57 64.2793 116.663 64.0469C117.21 63.9306 117.684 63.9215 118.196 64.0879C118.708 64.2543 119.147 64.5278 119.422 64.9279C119.679 65.2401 119.845 65.5717 119.938 66.0105L121.505 73.3814L119.956 73.7107L118.557 67.1295C118.389 66.3398 118.186 65.8327 117.857 65.6275C117.527 65.4224 117.125 65.3244 116.67 65.4212C116.305 65.4987 115.796 65.7904 115.305 66.1699C114.814 66.5494 114.433 66.9972 114.143 67.4257L115.673 74.6211L114.123 74.9504L112.594 67.755Z" fill="black"/>
<path d="M123.546 65.0605L122.502 64.1818C123.682 63.0137 124.956 62.2844 126.414 61.9745C127.872 61.6646 128.896 61.9974 129.556 62.8658C129.813 63.178 129.925 63.7045 130.093 64.4943L130.205 65.0208L130.785 68.1991C130.804 68.2869 130.841 68.4624 130.878 68.6379C130.99 69.1644 131.065 69.5154 131.212 69.7593C131.378 70.0909 131.707 70.296 132.109 70.394L131.513 71.6214C130.728 71.5131 130.179 71.1712 129.847 70.5079C129.122 71.5791 128.213 72.2309 127.211 72.444C126.208 72.6571 125.332 72.5682 124.583 72.1773C123.942 71.8547 123.52 71.2109 123.333 70.3334C123.091 69.1926 123.379 68.306 124.159 67.4981C124.94 66.6901 126.251 66.1363 127.891 65.7877C128.165 65.7295 128.347 65.6908 128.621 65.6327L128.471 64.9307C128.303 64.141 128.1 63.6338 127.79 63.5164C127.351 63.2429 126.949 63.1449 126.311 63.2805C125.764 63.3967 125.163 63.7078 124.49 64.126C124.254 64.3596 123.946 64.7004 123.546 65.0605ZM129.476 69.2111L129.027 66.6469C128.571 66.7438 128.298 66.8019 128.206 66.8213C126.748 67.1312 125.893 67.5882 125.458 68.2309C125.168 68.6594 125.098 69.2246 125.247 69.9266C125.49 71.0673 126.167 71.5654 127.352 71.3135C128.426 70.9934 129.135 70.2925 129.476 69.2111Z" fill="black"/>
<path d="M134.672 60.4953L137.224 59.9529L137.029 61.2782L134.933 61.7238L136.258 67.954C136.37 68.4805 136.535 68.8121 136.773 69.0366C136.993 69.1734 137.395 69.2714 137.85 69.1745C138.215 69.0971 138.561 68.9318 138.816 68.786L139.203 69.7125C138.712 70.0919 138.184 70.2959 137.546 70.4315C135.997 70.7608 135.119 70.2138 134.802 68.722L133.384 62.0531L132.017 62.3436L131.756 61.1151L133.032 60.8439L132.995 60.6684C132.957 60.4929 132.899 59.7716 132.748 58.6115L132.692 58.3482L134.258 57.6485C134.299 58.7403 134.504 59.7055 134.672 60.4953Z" fill="black"/>
<path d="M139.89 64.4291C139.554 62.8496 139.658 61.5436 140.291 60.4918C140.834 59.4593 141.815 58.7004 143.091 58.4292C144.549 58.1193 145.846 58.394 146.909 59.3604C147.733 60.1023 148.267 61.2727 148.585 62.7644C148.958 64.5194 148.709 66.0396 147.893 67.1302C147.295 67.8994 146.458 68.4441 145.365 68.6765C143.998 68.9671 142.902 68.7414 141.877 67.9505C140.961 67.228 140.226 66.0086 139.89 64.4291ZM145.819 60.509C145.196 59.8162 144.465 59.513 143.462 59.7261C142.46 59.9391 141.896 60.4257 141.59 61.2246C141.337 61.8286 141.433 62.7254 141.675 63.8662C141.992 65.3579 142.398 66.3722 142.985 66.8896C143.571 67.407 144.283 67.6224 145.195 67.4287C146.288 67.1962 146.905 66.5148 147.065 65.472C147.135 64.9068 147.077 64.1854 146.89 63.3079C146.611 61.9917 146.223 61.0652 145.819 60.509Z" fill="black"/>
<path d="M151.014 59.4062C150.827 58.5287 150.587 57.8461 150.202 57.3777L151.658 56.6097C152.043 57.0781 152.227 57.4974 152.339 58.0239L152.377 58.1994C152.973 56.9721 153.772 56.2519 154.866 56.0195C155.048 55.9807 155.23 55.942 155.431 55.991L155.148 57.7938C154.947 57.7448 154.765 57.7836 154.673 57.8029C154.309 57.8804 153.872 58.065 153.563 58.4057C153.255 58.7465 152.946 59.0872 152.839 59.4769C152.803 59.7596 152.787 60.1299 152.88 60.5687L154.167 66.6234L152.618 66.9527L151.014 59.4062Z" fill="black"/>
</g>
<defs>
<clipPath id="clip0_238_2938">
<rect width="135.663" height="26.8317" fill="white" transform="translate(21.9966 75.0898) rotate(-12)"/>
</clipPath>
</defs>
</svg>
