<svg width="386" height="189" viewBox="0 0 386 189" fill="none" xmlns="http://www.w3.org/2000/svg">
<path fill-rule="evenodd" clip-rule="evenodd" d="M18.2964 163.973C18.2963 163.972 18.2963 163.972 18.2963 163.972C18.2963 163.972 18.2962 163.972 18.2962 163.972L4.15823 97.4585C1.8617 86.6541 8.75864 76.0338 19.563 73.7373L342.352 5.12642C353.156 2.82989 363.776 9.72682 366.073 20.5311L376.053 67.4822C378.349 78.2865 371.452 88.9069 360.648 91.2034L200.721 125.197C193.968 126.632 189.658 133.27 191.093 140.023C192.528 146.776 188.218 153.414 181.465 154.849L35.7213 185.828C28.9685 187.263 22.3306 182.952 20.8953 176.2L18.2964 163.973Z" fill="#FFCB8D"/>
<path d="M27.0927 104.544L39.3 101.95L40.2132 106.246L38.476 106.615L37.9321 104.056L34.5281 104.78L37.2825 117.738L39.8648 117.189L40.2341 118.927L33.121 120.438L32.7517 118.701L35.3341 118.152L32.5796 105.194L29.1992 105.912L29.7431 108.471L28.0059 108.841L27.0927 104.544ZM45.2722 117.856L44.9378 116.283L48.107 115.609L46.2807 107.017L43.1115 107.691L42.7772 106.118L47.1671 105.185L47.8671 106.631L47.9845 106.606C48.4135 106.008 48.92 105.466 49.5042 104.982C50.0883 104.498 50.8342 104.16 51.7419 103.967C52.274 103.854 52.7182 103.866 53.0745 104.003C53.4464 104.136 53.76 104.38 54.0153 104.735C54.2863 105.086 54.5129 105.537 54.6953 106.087C54.8743 106.622 55.0387 107.241 55.1884 107.945L53.5501 108.318C53.3372 107.317 53.0791 106.603 52.7759 106.176C52.4883 105.747 52.0862 105.587 51.5698 105.697C51.0846 105.8 50.6614 105.963 50.3 106.187C49.9387 106.411 49.631 106.657 49.3769 106.923C49.1384 107.187 48.9391 107.442 48.7789 107.688C48.6187 107.935 48.5066 108.139 48.4426 108.3L49.9147 115.225L54.422 114.267L54.7563 115.84L45.2722 117.856ZM63.8256 101.644L67.1591 100.935L68.8607 108.94C69.0237 109.707 69.227 110.433 69.4706 111.117L71.0434 110.783L71.3678 112.309L68.2455 112.973L67.751 110.992L67.6571 111.012C67.3932 111.771 66.9697 112.434 66.3866 113C65.8034 113.565 65.0345 113.949 64.0798 114.152C63.3599 114.305 62.7234 114.351 62.1704 114.288C61.6363 114.238 61.1617 114.045 60.7465 113.708C60.3314 113.371 59.974 112.882 59.6745 112.243C59.3716 111.587 59.1121 110.751 58.8958 109.734L57.7981 104.569L56.2252 104.903L55.8909 103.33L59.2948 102.607L60.6471 108.969C60.7835 109.61 60.93 110.185 61.0868 110.691C61.2558 111.179 61.4647 111.584 61.7133 111.907C61.9587 112.215 62.2656 112.428 62.6342 112.546C63.0151 112.645 63.4873 112.634 64.0507 112.515C64.8645 112.342 65.5122 111.926 65.9938 111.267C66.4911 110.606 66.8114 109.842 66.9547 108.978L65.6624 102.897L64.1599 103.217L63.8256 101.644ZM81.4837 106.846C81.3773 106.345 81.1002 106.004 80.6523 105.821C80.2012 105.622 79.6695 105.506 79.0571 105.473C78.4415 105.424 77.7744 105.402 77.0558 105.407C76.3529 105.41 75.687 105.355 75.058 105.243C74.4291 105.132 73.8774 104.922 73.4029 104.614C72.9252 104.29 72.6098 103.768 72.4568 103.048C72.3304 102.453 72.3475 101.918 72.5081 101.442C72.6843 100.963 72.9554 100.546 73.3214 100.19C73.6841 99.8183 74.1338 99.5101 74.6706 99.2651C75.2041 99.0045 75.776 98.8093 76.3864 98.6796C77.4819 98.4467 78.4509 98.388 79.2933 98.5034C80.148 98.5998 80.8417 98.7467 81.3744 98.9443L80.9376 100.583C80.3612 100.411 79.7413 100.265 79.0777 100.144C78.4264 100.004 77.6469 100.031 76.7392 100.224C76.3949 100.297 76.0589 100.409 75.7312 100.561C75.4159 100.693 75.1323 100.86 74.8806 101.061C74.6444 101.258 74.4653 101.492 74.343 101.764C74.2331 102.016 74.213 102.307 74.2829 102.635C74.3694 103.042 74.6315 103.314 75.0694 103.45C75.5072 103.586 76.0323 103.67 76.6446 103.704C77.2536 103.721 77.9096 103.729 78.6125 103.727C79.3277 103.706 80.0015 103.759 80.6337 103.886C81.266 104.014 81.8227 104.247 82.3038 104.586C82.7849 104.926 83.1019 105.455 83.2549 106.175C83.4845 107.255 83.2437 108.239 82.5326 109.126C81.8372 110.01 80.6366 110.633 78.9307 110.996C78.4142 111.106 77.8956 111.167 77.3748 111.179C76.854 111.192 76.3579 111.166 75.8865 111.103C75.415 111.04 74.9793 110.952 74.5794 110.841C74.1762 110.714 73.8356 110.574 73.5576 110.42L74.1723 108.695C74.4 108.843 74.692 108.985 75.0483 109.122C75.4012 109.243 75.7821 109.342 76.191 109.419C76.5998 109.496 77.0255 109.536 77.468 109.54C77.9262 109.541 78.3744 109.495 78.8126 109.401C79.2352 109.312 79.6198 109.197 79.9664 109.058C80.3254 108.9 80.6308 108.721 80.8825 108.52C81.131 108.303 81.3085 108.061 81.4151 107.793C81.534 107.506 81.5569 107.191 81.4837 106.846ZM84.184 97.3166L86.9776 96.7228L86.4836 94.3987L88.2049 93.493L88.8087 96.3336L95.0767 95.0013L95.411 96.5741L89.143 97.9064L90.3207 103.447C90.5635 104.589 91.017 105.376 91.6812 105.807C92.361 106.235 93.2174 106.34 94.2504 106.12C94.9546 105.97 95.5367 105.708 95.9966 105.332C96.4722 104.953 96.888 104.562 97.244 104.159L98.1488 105.414C97.6941 105.969 97.1117 106.461 96.4014 106.89C95.7067 107.315 94.9603 107.613 94.1621 107.783C93.5361 107.916 92.9214 107.948 92.3181 107.88C91.7337 107.825 91.1904 107.654 90.688 107.368C90.1856 107.082 89.7476 106.676 89.3741 106.151C88.9973 105.609 88.7224 104.931 88.5494 104.118L87.3119 98.2956L84.5184 98.8894L84.184 97.3166ZM112.132 102.098C111.903 102.409 111.617 102.715 111.272 103.017C110.943 103.316 110.568 103.592 110.147 103.845C109.727 104.098 109.274 104.317 108.79 104.502C108.325 104.699 107.842 104.85 107.341 104.957C106.402 105.156 105.543 105.192 104.763 105.063C103.98 104.919 103.289 104.632 102.691 104.203C102.089 103.759 101.583 103.187 101.173 102.489C100.763 101.791 100.458 100.973 100.259 100.034C100.049 99.0478 99.996 98.1431 100.099 97.3197C100.218 96.493 100.48 95.7665 100.887 95.1402C101.294 94.514 101.837 93.9897 102.516 93.5673C103.191 93.1292 103.983 92.8137 104.891 92.6208C105.548 92.4811 106.216 92.4291 106.894 92.4649C107.572 92.5006 108.206 92.7095 108.794 93.0916C109.395 93.4546 109.918 94.0304 110.363 94.819C110.806 95.5919 111.129 96.6518 111.334 97.9987L102.249 99.9298C102.548 101.338 103.148 102.315 104.049 102.86C104.962 103.385 106.053 103.513 107.321 103.244C107.743 103.154 108.148 103.019 108.535 102.838C108.934 102.639 109.307 102.429 109.652 102.208C109.998 101.988 110.293 101.761 110.538 101.529C110.799 101.294 110.993 101.089 111.119 100.915L112.132 102.098ZM105.267 94.1602C104.751 94.27 104.269 94.4295 103.823 94.6389C103.393 94.8449 103.026 95.1192 102.722 95.4618C102.431 95.7854 102.213 96.1834 102.068 96.6558C101.935 97.1093 101.903 97.6479 101.97 98.2716L109.271 96.7197C108.973 95.7034 108.467 94.9768 107.752 94.5398C107.05 94.0838 106.222 93.9573 105.267 94.1602ZM118.804 85.0507L122.607 84.2424L125.246 96.6609C125.276 96.8018 125.322 96.9801 125.385 97.1959C125.443 97.396 125.506 97.6118 125.571 97.8432C125.652 98.0713 125.734 98.2994 125.815 98.5275C125.893 98.74 125.966 98.929 126.033 99.0945L127.606 98.7601L127.931 100.286L124.808 100.95L124.189 99.192L124.096 99.2119C123.878 99.8798 123.468 100.49 122.865 101.044C122.276 101.578 121.535 101.94 120.643 102.13C118.874 102.505 117.463 102.29 116.408 101.484C115.366 100.659 114.621 99.1974 114.176 97.1002C113.966 96.1143 113.922 95.2157 114.044 94.4046C114.163 93.5779 114.427 92.8592 114.837 92.2486C115.26 91.6191 115.81 91.0931 116.489 90.6707C117.168 90.2483 117.962 89.9406 118.87 89.7477C119.198 89.6778 119.489 89.6241 119.743 89.5865C120.013 89.5456 120.26 89.5175 120.486 89.5022C120.712 89.487 120.925 89.4907 121.126 89.5134C121.34 89.5171 121.57 89.5253 121.818 89.538L121.11 86.2044L119.138 86.6236L118.804 85.0507ZM120.614 100.492C121.568 100.289 122.268 99.8867 122.712 99.2851C123.154 98.6678 123.371 97.8446 123.365 96.8154L122.208 91.3691C121.813 91.2075 121.386 91.1185 120.924 91.1021C120.478 91.0824 119.903 91.1473 119.199 91.297C117.947 91.5632 117.039 92.1405 116.476 93.0291C115.909 93.9021 115.792 95.121 116.124 96.6861C116.261 97.3277 116.443 97.9186 116.673 98.4588C116.914 98.9799 117.211 99.4157 117.564 99.766C117.932 100.113 118.368 100.356 118.872 100.494C119.376 100.632 119.956 100.632 120.614 100.492ZM138.81 80.7983L142.566 79.9999L143.848 86.0331L143.966 86.0082C144.263 85.4052 144.702 84.8947 145.284 84.4766C145.866 84.0585 146.532 83.7696 147.284 83.6099C150.727 82.8781 152.871 84.4997 153.716 88.4749C154.145 90.4938 153.919 92.1613 153.037 93.4774C152.152 94.7778 150.684 95.6459 148.634 96.0817C147.664 96.2879 146.767 96.3803 145.945 96.3588C145.123 96.3373 144.505 96.2397 144.092 96.0658L141.093 81.957L139.144 82.3711L138.81 80.7983ZM147.383 85.2327C146.444 85.4323 145.742 85.8597 145.276 86.5149C144.81 87.1701 144.547 88.0111 144.487 89.038L145.635 94.4373C146.035 94.5486 146.497 94.6058 147.021 94.6089C147.545 94.612 148.081 94.5554 148.629 94.4389C149.255 94.3059 149.8 94.1 150.264 93.8214C150.74 93.5239 151.119 93.149 151.399 92.6969C151.676 92.2291 151.845 91.6779 151.906 91.0433C151.983 90.4053 151.935 89.6794 151.762 88.8656C151.636 88.2709 151.453 87.7208 151.215 87.2153C150.977 86.7098 150.675 86.2914 150.31 85.96C149.958 85.6096 149.539 85.3715 149.054 85.2455C148.566 85.1039 148.009 85.0996 147.383 85.2327ZM163.249 90.8897L164.141 90.7001L164.941 80.1512L166.843 79.747L165.82 90.9811C165.764 91.5654 165.716 92.2219 165.674 92.9504C165.652 93.6913 165.541 94.4018 165.342 95.082C165.143 95.7623 164.807 96.3735 164.333 96.9159C163.86 97.4582 163.169 97.8258 162.261 98.0187C162.058 98.062 161.834 98.0851 161.589 98.088C161.36 98.0877 161.128 98.0716 160.892 98.0399C160.659 98.0239 160.439 97.9889 160.232 97.9349C160.024 97.8809 159.863 97.817 159.749 97.743L160.047 95.9131C160.158 95.9714 160.3 96.023 160.473 96.068C160.661 96.1097 160.855 96.134 161.053 96.141C161.269 96.1604 161.475 96.1658 161.669 96.1571C161.867 96.1642 162.029 96.1544 162.154 96.1278C163.328 95.8783 163.915 94.7148 163.915 92.6374L162.342 92.9717L154.917 82.2818L157.03 81.8328L163.249 90.8897Z" fill="black"/>
<g clip-path="url(#clip0_229_723)">
<rect width="174" height="35" transform="translate(176.936 63.8) rotate(-12)" fill="#FFCB8D"/>
<path d="M211.247 56.5072L176.183 63.9604L183.482 98.2993L218.546 90.8461L211.247 56.5072Z" fill="#1A1A1A"/>
<path d="M196.682 79.9402L188.244 70.1292L191.049 69.5329L196.04 75.7698C196.064 75.8843 196.205 75.9739 196.346 76.0635C196.488 76.1531 196.512 76.2676 196.678 76.4717L196.819 76.5613L196.843 76.6757C197.009 76.8798 197.033 76.9943 197.198 77.1984C197.34 77.288 197.388 77.5169 197.53 77.6065C197.573 77.2383 197.759 76.9597 197.778 76.477C197.822 76.1088 197.983 75.7157 198.144 75.3226L200.166 67.5951L202.737 67.0485L199.044 79.5577L200.552 86.6544L198.215 87.1513L196.682 79.9402Z" fill="white"/>
<path d="M228.671 59.7431C230.424 59.3705 232.041 59.5053 233.405 60.1726L232.528 61.7946C231.33 61.3314 230.18 61.0972 228.895 61.3704C226.908 61.7928 225.607 63.1459 225.203 65.2657C224.978 66.5097 225.061 68.0474 225.475 69.9933C225.791 71.4813 226.292 72.6907 226.838 73.5319C228.235 75.5079 229.973 76.2151 232.311 75.7182C233.597 75.4449 234.693 74.8531 235.574 73.8283L237.059 75.0679C235.734 76.3065 234.195 77.1122 232.442 77.4849C230.338 77.9321 228.415 77.5035 226.647 76.0847C224.904 74.7803 223.857 72.7297 223.298 70.0971C222.738 67.4644 223.001 65.255 224.039 63.24C225.009 61.4787 226.567 60.1903 228.671 59.7431Z" fill="black"/>
<path d="M237.741 69.6572C237.303 67.5968 237.43 65.895 238.238 64.5267C239.047 63.1585 240.187 62.1985 241.823 61.8506C243.693 61.4531 245.359 61.8169 246.727 63.0814C247.788 64.0521 248.48 65.58 248.893 67.5259C249.38 69.8151 249.068 71.7956 248.025 73.2135C247.261 74.2135 246.189 74.9198 244.787 75.2179C243.033 75.5906 241.626 75.2916 240.306 74.2561C239.011 73.3351 238.179 71.7175 237.741 69.6572ZM245.217 64.5986C244.414 63.6927 243.474 63.2943 242.188 63.5676C240.902 63.8409 240.182 64.4726 239.792 65.5126C239.47 66.2987 239.597 67.4682 239.913 68.9562C240.327 70.9021 240.852 72.2259 241.607 72.9029C242.362 73.58 243.277 73.8639 244.446 73.6155C245.849 73.3173 246.638 72.4318 246.838 71.0733C246.925 70.3369 246.848 69.3963 246.604 68.2517C246.356 66.5099 245.855 65.3005 245.217 64.5986Z" fill="black"/>
<path d="M251.929 63.4121C251.661 62.153 251.326 61.1477 250.805 60.421L252.694 59.5408C253.167 60.0386 253.429 60.7005 253.551 61.2728L253.575 61.3873C253.946 60.8301 254.316 60.2728 254.944 59.7804C255.665 59.1486 256.318 58.7706 257.019 58.6216C258.071 58.398 259.103 58.6571 259.858 59.3341C260.024 59.5382 260.33 59.8319 260.496 60.0359C261.606 58.3643 262.746 57.4042 264.149 57.1061C265.084 56.9073 265.975 57.0768 266.681 57.5249C267.411 58.0874 267.932 58.8141 268.127 59.7299L270.146 69.2303L268.043 69.6775L266.047 60.2915C265.78 59.0324 265.074 58.5843 264.022 58.8079C263.437 58.9321 262.785 59.3101 262.298 59.8922C262.113 60.1708 261.718 60.6136 261.231 61.1957L261.046 61.4743L263.017 70.7458L260.796 71.2178L258.898 62.2897C258.728 61.4885 258.489 60.941 258.207 60.7617C257.783 60.4929 257.408 60.453 256.824 60.5772C255.889 60.7759 254.958 61.5718 253.916 62.9898L255.911 72.3757L253.924 72.7981L251.929 63.4121Z" fill="black"/>
<path d="M269.949 50.4901L271.956 49.585C272.384 50.451 272.72 51.4564 272.988 52.7155L273.596 55.577C273.742 56.2638 273.839 56.7217 273.888 56.9506C274.814 55.5575 275.978 54.7119 277.263 54.4386C278.783 54.1157 280.19 54.4147 281.252 55.3854C282.43 56.3313 283.238 57.8344 283.652 59.7803C284.09 61.8406 283.963 63.5424 283.295 65.0003C282.628 66.4581 281.464 67.3037 279.944 67.6267C279.243 67.7758 278.634 67.7855 277.86 67.5912C277.086 67.3969 276.545 67.1529 276.097 66.7695C276.102 67.3667 276.083 67.8494 276.039 68.2176L274.052 68.64C274.164 68.018 274.062 66.963 273.721 65.3605L271.166 53.3419C270.758 51.9932 270.422 50.9879 269.949 50.4901ZM274.994 57.5531C274.692 57.8565 274.414 58.2745 274.253 58.6675L275.64 65.1919C276.677 66.0482 277.826 66.2824 279.112 66.0091C280.164 65.7855 280.909 65.2682 281.206 64.3676C281.596 63.3277 281.679 61.9941 281.29 60.1627C280.949 58.5602 280.472 57.4653 279.742 56.9027C279.128 56.3153 278.237 56.1458 277.068 56.3943C276.343 56.4289 275.573 56.8317 274.994 57.5531Z" fill="black"/>
<path d="M284.55 49.0615C284.453 48.6036 284.497 48.2354 284.774 47.8175C285.052 47.3995 285.378 47.2105 285.846 47.1112C286.313 47.0118 286.688 47.0517 287.112 47.3206C287.536 47.5894 287.726 47.908 287.823 48.3658C287.92 48.8237 287.876 49.1919 287.599 49.6098C287.321 50.0278 286.995 50.2168 286.527 50.3161C286.06 50.4155 285.685 50.3756 285.261 50.1067C284.837 49.8379 284.648 49.5193 284.55 49.0615ZM288.521 65.4447L285.845 52.8538L287.876 52.0632L290.625 64.9975L288.521 65.4447Z" fill="black"/>
<path d="M293.188 54.6414C292.994 53.7257 292.872 53.1534 292.707 52.9493C292.634 52.6059 292.327 52.3122 291.972 51.7896L293.837 50.7949C294.333 51.4072 294.572 51.9547 294.718 52.6414C295.736 51.1091 296.993 50.1241 298.395 49.826C299.097 49.677 299.705 49.6672 300.363 49.8864C301.02 50.1055 301.585 50.464 301.94 50.9866C302.271 51.3948 302.486 51.8278 302.607 52.4001L304.651 62.015L302.664 62.4373L300.839 53.8526C300.62 52.8225 300.357 52.1605 299.934 51.8917C299.51 51.6228 298.994 51.4933 298.41 51.6175C297.942 51.7169 297.289 52.0949 296.661 52.5873C296.033 53.0798 295.546 53.6618 295.175 54.2191L297.171 63.605L295.184 64.0274L293.188 54.6414Z" fill="black"/>
<path d="M307.234 51.1777L305.89 50.0278C307.4 48.5105 309.031 47.5655 310.902 47.168C312.772 46.7705 314.086 47.2088 314.939 48.3437C315.27 48.7519 315.416 49.4387 315.635 50.4688L315.781 51.1556L316.54 55.3011C316.564 55.4156 316.613 55.6445 316.661 55.8734C316.807 56.5602 316.904 57.018 317.094 57.3366C317.309 57.7696 317.732 58.0385 318.248 58.168L317.488 59.7652C316.48 59.6205 315.774 59.1724 315.346 58.3064C314.42 59.6995 313.256 60.5451 311.971 60.8184C310.685 61.0916 309.56 60.9719 308.596 60.459C307.773 60.0357 307.228 59.1946 306.984 58.0499C306.668 56.5619 307.033 55.4075 308.032 54.3579C309.03 53.3082 310.711 52.5921 312.815 52.1449C313.165 52.0704 313.399 52.0207 313.75 51.9462L313.555 51.0305C313.336 50.0003 313.073 49.3384 312.674 49.184C312.109 48.8255 311.593 48.696 310.775 48.8699C310.073 49.0189 309.304 49.4218 308.442 49.9639C308.14 50.2674 307.745 50.7101 307.234 51.1777ZM314.864 56.6143L314.275 53.27C313.691 53.3943 313.34 53.4688 313.223 53.4936C311.353 53.8911 310.257 54.483 309.702 55.3188C309.332 55.876 309.244 56.6125 309.439 57.5282C309.755 59.0162 310.627 59.6684 312.146 59.3454C313.524 58.9328 314.43 58.0225 314.864 56.6143Z" fill="black"/>
<path d="M321.494 45.2767L324.767 44.5811L324.523 46.3078L321.835 46.8792L323.562 55.0061C323.708 55.6929 323.922 56.1259 324.229 56.4196C324.511 56.5988 325.028 56.7283 325.612 56.6041C326.08 56.5048 326.523 56.2909 326.849 56.1019L327.351 57.3113C326.722 57.8038 326.045 58.0673 325.227 58.2412C323.24 58.6636 322.11 57.9466 321.697 56.0007L319.848 47.3016L318.094 47.6742L317.754 46.0717L319.39 45.7239L319.342 45.495C319.293 45.2661 319.215 44.3255 319.016 42.8127L318.943 42.4693L320.949 41.5642C321.007 42.9875 321.275 44.2466 321.494 45.2767Z" fill="black"/>
<path d="M328.209 50.4277C327.771 48.3673 327.898 46.6655 328.706 45.2973C329.398 43.9539 330.655 42.969 332.291 42.6211C334.161 42.2236 335.827 42.5874 337.195 43.8519C338.256 44.8226 338.948 46.3505 339.361 48.2964C339.848 50.5857 339.536 52.5661 338.493 53.984C337.729 54.984 336.657 55.6903 335.255 55.9885C333.501 56.3611 332.094 56.0621 330.774 55.0266C329.596 54.0807 328.647 52.488 328.209 50.4277ZM335.802 45.3443C334.998 44.4384 334.059 44.04 332.773 44.3132C331.487 44.5865 330.766 45.2183 330.377 46.2582C330.055 47.0444 330.181 48.2138 330.498 49.7019C330.911 51.6477 331.437 52.9716 332.192 53.6486C332.946 54.3256 333.862 54.6096 335.031 54.3611C336.433 54.063 337.222 53.1775 337.422 51.819C337.51 51.0825 337.432 50.142 337.189 48.9974C336.824 47.2804 336.323 46.071 335.802 45.3443Z" fill="black"/>
<path d="M342.464 43.9298C342.221 42.7851 341.909 41.8943 341.413 41.282L343.278 40.2874C343.775 40.8996 344.013 41.4471 344.159 42.1339L344.208 42.3628C344.968 40.7656 345.991 39.8304 347.393 39.5323C347.627 39.4826 347.861 39.4329 348.119 39.4977L347.763 41.8464C347.505 41.7816 347.271 41.8313 347.154 41.8561C346.687 41.9555 346.127 42.1942 345.732 42.637C345.337 43.0797 344.943 43.5225 344.806 44.03C344.763 44.3983 344.743 44.881 344.865 45.4533L346.543 53.3512L344.556 53.7736L342.464 43.9298Z" fill="black"/>
</g>
<path d="M48.8004 151.109C48.694 150.608 48.4169 150.267 47.969 150.084C47.5179 149.885 46.9862 149.769 46.3738 149.736C45.7582 149.687 45.0911 149.665 44.3725 149.67C43.6696 149.673 43.0037 149.618 42.3747 149.506C41.7458 149.395 41.1941 149.185 40.7196 148.877C40.2419 148.553 39.9265 148.031 39.7735 147.311C39.6471 146.716 39.6642 146.181 39.8248 145.705C40.001 145.226 40.2721 144.809 40.6381 144.453C41.0008 144.081 41.4505 143.773 41.9873 143.528C42.5208 143.268 43.0927 143.072 43.7031 142.943C44.7986 142.71 45.7676 142.651 46.61 142.766C47.4647 142.863 48.1584 143.01 48.6911 143.207L48.2543 144.846C47.6779 144.674 47.058 144.528 46.3944 144.407C45.7431 144.267 44.9636 144.294 44.0559 144.487C43.7116 144.56 43.3756 144.673 43.0479 144.824C42.7326 144.956 42.449 145.123 42.1973 145.324C41.9611 145.521 41.782 145.756 41.6597 146.027C41.5498 146.279 41.5297 146.57 41.5996 146.898C41.6861 147.305 41.9482 147.577 42.3861 147.713C42.8239 147.849 43.349 147.933 43.9613 147.967C44.5703 147.985 45.2263 147.992 45.9292 147.99C46.6444 147.969 47.3182 148.022 47.9505 148.149C48.5827 148.277 49.1394 148.51 49.6205 148.849C50.1016 149.189 50.4186 149.718 50.5717 150.438C50.8012 151.518 50.5604 152.502 49.8493 153.389C49.1539 154.273 47.9533 154.896 46.2474 155.259C45.7309 155.369 45.2123 155.43 44.6915 155.442C44.1708 155.455 43.6746 155.429 43.2032 155.366C42.7317 155.303 42.296 155.215 41.8961 155.104C41.4929 154.977 41.1523 154.837 40.8743 154.683L41.489 152.958C41.7167 153.106 42.0087 153.248 42.365 153.385C42.7179 153.506 43.0988 153.605 43.5077 153.682C43.9165 153.759 44.3422 153.799 44.7848 153.803C45.2429 153.804 45.6911 153.758 46.1293 153.664C46.5519 153.575 46.9365 153.46 47.2831 153.321C47.6421 153.163 47.9475 152.984 48.1993 152.783C48.4477 152.566 48.6252 152.324 48.7318 152.056C48.8508 151.769 48.8736 151.454 48.8004 151.109ZM51.5007 141.58L54.2943 140.986L53.8003 138.662L55.5216 137.756L56.1254 140.597L62.3934 139.264L62.7277 140.837L56.4597 142.169L57.6374 147.71C57.8802 148.852 58.3337 149.639 58.9979 150.07C59.6778 150.498 60.5341 150.603 61.5671 150.383C62.2713 150.233 62.8534 149.971 63.3133 149.595C63.7889 149.216 64.2047 148.825 64.5607 148.422L65.4655 149.677C65.0109 150.232 64.4284 150.724 63.7181 151.153C63.0234 151.578 62.277 151.876 61.4788 152.046C60.8528 152.179 60.2381 152.211 59.6348 152.143C59.0504 152.088 58.5071 151.917 58.0047 151.631C57.5023 151.345 57.0643 150.939 56.6908 150.414C56.314 149.872 56.0391 149.194 55.8661 148.381L54.6287 142.559L51.8351 143.152L51.5007 141.58ZM67.5791 139.119C68.1689 138.585 68.8681 138.142 69.6766 137.79C70.4851 137.438 71.2963 137.176 72.1101 137.003C72.9083 136.833 73.5844 136.82 74.1384 136.964C74.7081 137.105 75.1771 137.349 75.5453 137.696C75.9258 138.024 76.2179 138.436 76.4216 138.932C76.6376 139.41 76.8005 139.907 76.9102 140.423C77.0366 141.018 77.1557 141.655 77.2675 142.335C77.3792 143.015 77.4988 143.693 77.6262 144.369C77.7925 145.151 77.9975 145.885 78.2411 146.569L79.8139 146.235L80.1383 147.761L77.016 148.424L76.4305 146.709L76.3131 146.733C76.2492 146.894 76.1466 147.104 76.0053 147.363C75.8641 147.622 75.6603 147.895 75.3938 148.18C75.1397 148.447 74.8102 148.705 74.4052 148.955C74.0003 149.204 73.5005 149.392 72.9058 149.519C71.7476 149.765 70.7689 149.662 69.9695 149.211C69.1701 148.759 68.6607 148.017 68.4411 146.984C68.2714 146.185 68.3022 145.484 68.5334 144.878C68.7803 144.27 69.2024 143.755 69.7999 143.333C70.3973 142.912 71.1527 142.58 72.0661 142.336C72.9951 142.09 74.057 141.93 75.2517 141.856C75.177 141.119 75.0584 140.523 74.896 140.066C74.7459 139.591 74.5392 139.234 74.2759 138.996C74.0282 138.754 73.7127 138.617 73.3295 138.584C72.9586 138.532 72.5149 138.561 71.9984 138.67C71.2941 138.82 70.6428 139.065 70.0444 139.405C69.4426 139.729 68.913 140.046 68.4554 140.356L67.5791 139.119ZM73.0409 147.846C73.4792 147.753 73.8711 147.596 74.2168 147.375C74.5624 147.155 74.8528 146.905 75.088 146.626C75.3231 146.347 75.508 146.062 75.6425 145.772C75.7738 145.466 75.8614 145.186 75.9054 144.931L75.5561 143.288C74.7124 143.32 73.9462 143.409 73.2576 143.555C72.569 143.702 71.9909 143.906 71.5233 144.169C71.0525 144.417 70.7094 144.727 70.4943 145.1C70.2791 145.472 70.2247 145.909 70.3312 146.41C70.4409 146.927 70.7096 147.344 71.137 147.662C71.5768 147.961 72.2115 148.022 73.0409 147.846ZM82.9696 147.159L82.6353 145.586L85.8045 144.912L83.9782 136.32L80.809 136.994L80.4747 135.421L84.8646 134.488L85.5646 135.934L85.6819 135.909C86.1109 135.311 86.6175 134.77 87.2016 134.286C87.7858 133.802 88.5317 133.463 89.4394 133.27C89.9715 133.157 90.4157 133.169 90.7719 133.306C91.1439 133.439 91.4575 133.684 91.7128 134.038C91.9838 134.39 92.2104 134.84 92.3928 135.39C92.5718 135.925 92.7362 136.544 92.8859 137.249L91.2476 137.621C91.0347 136.62 90.7766 135.906 90.4733 135.479C90.1857 135.05 89.7837 134.89 89.2672 135C88.7821 135.103 88.3588 135.266 87.9975 135.49C87.6362 135.714 87.3285 135.96 87.0744 136.226C86.8359 136.49 86.6366 136.745 86.4764 136.992C86.3162 137.238 86.2041 137.442 86.1401 137.603L87.6121 144.528L92.1194 143.57L92.4538 145.143L82.9696 147.159ZM93.7292 132.604L96.5228 132.01L96.0288 129.686L97.7501 128.78L98.3539 131.621L104.622 130.288L104.956 131.861L98.6882 133.194L99.8658 138.734C100.109 139.876 100.562 140.663 101.226 141.094C101.906 141.522 102.763 141.627 103.796 141.407C104.5 141.257 105.082 140.995 105.542 140.619C106.017 140.24 106.433 139.849 106.789 139.446L107.694 140.701C107.239 141.256 106.657 141.748 105.947 142.177C105.252 142.602 104.505 142.9 103.707 143.07C103.081 143.203 102.467 143.235 101.863 143.167C101.279 143.112 100.736 142.941 100.233 142.655C99.7307 142.369 99.2928 141.963 98.9193 141.438C98.5425 140.896 98.2676 140.219 98.0946 139.405L96.8571 133.583L94.0635 134.177L93.7292 132.604ZM115.599 127.955L118.933 127.247L120.634 135.252C120.797 136.019 121.001 136.744 121.244 137.428L122.817 137.094L123.141 138.62L120.019 139.284L119.525 137.303L119.431 137.323C119.167 138.083 118.743 138.745 118.16 139.311C117.577 139.876 116.808 140.261 115.853 140.464C115.134 140.617 114.497 140.662 113.944 140.6C113.41 140.549 112.935 140.356 112.52 140.019C112.105 139.682 111.748 139.193 111.448 138.554C111.145 137.898 110.886 137.062 110.669 136.045L109.572 130.88L107.999 131.215L107.665 129.642L111.068 128.918L112.421 135.28C112.557 135.922 112.704 136.496 112.86 137.002C113.029 137.49 113.238 137.895 113.487 138.219C113.732 138.526 114.039 138.739 114.408 138.857C114.789 138.956 115.261 138.946 115.824 138.826C116.638 138.653 117.286 138.237 117.767 137.579C118.265 136.917 118.585 136.153 118.728 135.289L117.436 129.209L115.934 129.528L115.599 127.955ZM124.281 130.404C124.251 130.263 124.205 130.084 124.142 129.869C124.093 129.634 124.035 129.401 123.969 129.169C123.9 128.922 123.825 128.685 123.744 128.457C123.679 128.225 123.612 128.027 123.544 127.861L121.971 128.196L121.647 126.67L124.769 126.006L125.353 127.599L125.47 127.574C125.777 126.937 126.212 126.37 126.777 125.874C127.355 125.358 128.113 125.001 129.052 124.801C130.727 124.445 132.085 124.639 133.126 125.383C134.167 126.127 134.911 127.547 135.357 129.644C135.566 130.63 135.607 131.554 135.48 132.415C135.364 133.258 135.099 134.009 134.683 134.67C134.267 135.331 133.715 135.89 133.027 136.347C132.339 136.804 131.542 137.129 130.634 137.322C130.305 137.392 130.005 137.439 129.732 137.465C129.478 137.502 129.237 137.521 129.008 137.52C128.797 137.532 128.584 137.529 128.367 137.509C128.151 137.49 127.915 137.458 127.66 137.414L128.708 142.344L126.9 142.728L124.281 130.404ZM129.111 126.58C128.642 126.68 128.214 126.86 127.828 127.122C127.458 127.381 127.138 127.686 126.869 128.038C126.616 128.386 126.424 128.754 126.294 129.141C126.164 129.529 126.112 129.9 126.138 130.254L127.276 135.607C127.67 135.768 128.093 135.874 128.546 135.925C129.011 135.958 129.595 135.899 130.3 135.749C131.552 135.483 132.467 134.863 133.045 133.89C133.62 132.9 133.739 131.616 133.403 130.035C133.121 128.705 132.637 127.736 131.951 127.129C131.279 126.503 130.332 126.32 129.111 126.58ZM147.334 130.165C147.227 129.665 146.95 129.323 146.502 129.14C146.051 128.941 145.519 128.825 144.907 128.792C144.291 128.743 143.624 128.721 142.906 128.727C142.203 128.729 141.537 128.674 140.908 128.562C140.279 128.451 139.727 128.241 139.253 127.933C138.775 127.609 138.46 127.087 138.307 126.367C138.18 125.773 138.197 125.237 138.358 124.762C138.534 124.282 138.805 123.865 139.171 123.509C139.534 123.138 139.984 122.829 140.52 122.584C141.054 122.324 141.626 122.129 142.236 121.999C143.332 121.766 144.301 121.707 145.143 121.823C145.998 121.919 146.692 122.066 147.224 122.263L146.787 123.902C146.211 123.73 145.591 123.584 144.927 123.463C144.276 123.324 143.497 123.35 142.589 123.543C142.245 123.616 141.909 123.729 141.581 123.88C141.266 124.013 140.982 124.179 140.73 124.38C140.494 124.577 140.315 124.812 140.193 125.083C140.083 125.335 140.063 125.626 140.133 125.955C140.219 126.361 140.481 126.633 140.919 126.769C141.357 126.905 141.882 126.989 142.494 127.023C143.103 127.041 143.759 127.048 144.462 127.046C145.177 127.025 145.851 127.078 146.484 127.205C147.116 127.333 147.673 127.566 148.154 127.906C148.635 128.245 148.952 128.775 149.105 129.495C149.334 130.574 149.093 131.558 148.382 132.445C147.687 133.329 146.486 133.952 144.78 134.315C144.264 134.425 143.745 134.486 143.225 134.498C142.704 134.511 142.208 134.486 141.736 134.422C141.265 134.359 140.829 134.272 140.429 134.16C140.026 134.033 139.685 133.893 139.407 133.739L140.022 132.014C140.25 132.162 140.542 132.304 140.898 132.441C141.251 132.562 141.632 132.661 142.041 132.738C142.45 132.815 142.875 132.855 143.318 132.859C143.776 132.86 144.224 132.814 144.662 132.721C145.085 132.631 145.47 132.516 145.816 132.377C146.175 132.219 146.481 132.04 146.732 131.839C146.981 131.623 147.158 131.38 147.265 131.112C147.384 130.825 147.407 130.51 147.334 130.165Z" fill="black"/>
<defs>
<clipPath id="clip0_229_723">
<rect width="174" height="35" fill="white" transform="translate(176.936 63.8) rotate(-12)"/>
</clipPath>
</defs>
</svg>
