<svg width="151" height="30" viewBox="0 0 151 30" fill="none" xmlns="http://www.w3.org/2000/svg">
<path d="M51.0901 2.75635V21.4402C51.0901 25.5585 47.5738 28.6896 42.9312 28.6896C38.2874 28.6896 34.7711 25.5585 34.7711 21.4402V7.14693C34.7711 4.72985 36.661 2.75635 39.0161 2.75635H39.3146V21.4068C39.3146 23.6202 41.2395 24.9797 43.0967 24.9797C44.8875 24.9797 46.8113 23.7203 46.8113 21.4068V6.90899C46.8113 4.62805 48.6347 2.75635 50.8569 2.75635" fill="#1A1A1A"/>
<path d="M60.0418 9.35718C66.2443 9.35718 67.2388 12.9309 67.2388 15.0748V28.4161H67.0394C64.7508 28.4161 62.7956 26.4416 62.7956 24.0949V15.1442C62.7956 13.8839 62.2966 12.3864 59.8751 12.3864C58.7476 12.3864 58.0842 12.5225 57.3544 12.7948V28.4161H52.91V10.7528C54.8011 9.90256 57.8522 9.35718 60.0418 9.35718Z" fill="#1A1A1A"/>
<path d="M73.5882 9.35776V24.1279C73.5882 26.4765 71.7309 28.4166 69.4084 28.4166H69.2091V9.35776H73.5882ZM71.3986 2.75562C72.7254 2.75562 73.7864 3.77712 73.7864 5.03572C73.7864 6.26083 72.7254 7.24812 71.3986 7.24812C70.0718 7.24812 68.9771 6.26083 68.9771 5.03572C68.9771 3.77712 70.0718 2.75562 71.3986 2.75562Z" fill="#1A1A1A"/>
<path d="M86.2148 2.38281C88.3052 2.38281 90.2604 2.85881 91.8868 3.87948V8.37187C90.8923 7.04483 89.4641 6.12609 87.1778 6.12609C82.6658 6.12609 79.8805 10.6862 79.8805 15.4166C79.8805 19.8748 82.7987 24.7424 87.1778 24.7424C89.1003 24.7424 90.8585 24.1635 91.8868 22.7337V27.1576C90.5927 28.1448 88.5699 28.6894 86.1821 28.6894C79.0177 28.6894 75.2379 21.952 75.2379 15.4508C75.2379 9.05255 79.0177 2.38281 86.2148 2.38281Z" fill="#1A1A1A"/>
<path d="M99.7426 9.35718C100.471 9.35718 101.402 9.42573 102.229 9.56186V13.2032C100.704 12.0798 98.6816 12.4549 97.7851 12.9309V24.1273C97.7851 26.4759 95.8952 28.4161 93.6054 28.4161H93.3745V10.8213C95.1 9.97015 96.8582 9.35718 99.7426 9.35718Z" fill="#1A1A1A"/>
<path d="M113.767 16.5062C113.635 12.7277 111.347 12.3203 110.118 12.3203H109.952C107.466 12.3879 106.304 14.1919 106.304 17.5609L113.767 16.5062ZM117.615 19.0928L106.569 20.6569C106.935 23.7547 108.461 25.3883 111.247 25.3883C114.33 25.3883 115.889 24.3678 117.018 23.5509V27.3284C115.889 27.9415 113.801 28.6898 110.816 28.6898C105.41 28.6898 102.192 24.9465 102.192 18.9566C102.192 13.1371 105.177 9.35864 110.085 9.35864C114.927 9.35864 117.615 12.6601 117.615 18.3778" fill="#1A1A1A"/>
<path d="M129.201 13.0341C128.737 12.8989 128.238 12.8303 127.675 12.8303C124.027 12.8303 123.263 16.4384 123.263 19.4325C123.263 23.6202 124.624 25.6946 127.377 25.6946C127.839 25.6946 128.868 25.5919 129.201 25.5251V13.0341ZM133.545 2.75635V28.1793C132.484 28.4174 129.002 28.6896 127.542 28.6896H127.244C121.837 28.6221 118.885 25.4224 118.885 19.6704C118.885 13.8518 121.97 10.1077 126.747 10.1077C127.675 10.1077 128.47 10.2105 129.167 10.38V7.07934C129.167 4.69743 131.025 2.75635 133.346 2.75635" fill="#1A1A1A"/>
<path d="M139.993 9.35776V24.1279C139.993 26.4765 138.134 28.4166 135.813 28.4166H135.615V9.35776H139.993ZM137.803 2.75562C139.131 2.75562 140.192 3.77712 140.192 5.03572C140.192 6.26083 139.131 7.24812 137.803 7.24812C136.478 7.24812 135.383 6.26083 135.383 5.03572C135.383 3.77712 136.478 2.75562 137.803 2.75562Z" fill="#1A1A1A"/>
<path d="M147.748 2.75635V9.35849H150.6V12.9998H147.748V23.109C147.748 24.3333 148.146 24.7075 149.44 24.7075C149.771 24.7075 150.268 24.6055 150.6 24.4704V28.2469C150.402 28.3154 149.539 28.6896 148.378 28.6896C145.127 28.6896 143.336 27.056 143.336 24.0962V12.9998H141.413V9.35849H143.336V7.04417C143.336 4.69659 145.194 2.75635 147.482 2.75635" fill="#1A1A1A"/>
<path fill-rule="evenodd" clip-rule="evenodd" d="M22.5654 27.9896C27.0972 25.3092 29.886 20.3563 29.8778 14.9999C29.8821 12.2233 29.1347 9.55501 27.7825 7.25555C27.3828 7.69771 26.8207 8.21269 26.1631 8.8151C25.9779 8.98482 25.7851 9.16148 25.5862 9.3454C25.5862 9.3454 22.8871 11.9145 20.9156 13.6818C18.9452 15.4489 12.6424 20.8967 11.4171 21.8807C10.4066 22.6915 7.00449 25.2961 5.66538 26.3213C5.65884 26.3263 5.65236 26.3312 5.64593 26.3362C6.34149 26.9534 7.09942 27.5082 7.91362 27.9896C12.4454 30.6701 18.0324 30.6701 22.5654 27.9896ZM4.29864 24.9744C1.94581 22.2665 0.594308 18.7311 0.599993 14.9999C0.591832 9.6436 3.38064 4.69076 7.91362 2.01038C12.4454 -0.670126 18.0324 -0.670126 22.5654 2.01038C23.5872 2.61477 24.5205 3.3347 25.353 4.14875C22.0919 3.92384 15.0668 4.52633 14.2222 4.69965C13.3338 4.88172 13.2813 5.75644 13.5833 5.99318C13.786 6.1528 14.5415 6.61835 15.1515 6.99422C15.4466 7.17611 15.7077 7.337 15.8556 7.43207C16.3092 7.7236 16.2462 7.94252 16.0865 8.21611C15.9268 8.48874 14.2514 10.7117 14.2514 10.7117C13.6493 11.454 6.67534 21.5378 4.42349 24.7939C4.38009 24.8566 4.33845 24.9168 4.29864 24.9744Z" fill="#1A1A1A"/>
</svg>
