<svg width="102" height="102" viewBox="0 0 102 102" fill="none" xmlns="http://www.w3.org/2000/svg">
<path fill-rule="evenodd" clip-rule="evenodd" d="M101.997 51.5917L93.9972 51.5008C93.999 51.3341 94 51.1672 94 51C94 50.8328 93.999 50.6659 93.9972 50.4992L101.997 50.4083C101.999 50.6053 102 50.8025 102 51C102 51.1975 101.999 51.3947 101.997 51.5917ZM98.3524 32.0227L90.9275 35.0011C90.8043 34.6941 90.6777 34.3888 90.5477 34.0853L97.9014 30.9352C98.0557 31.2956 98.2061 31.6581 98.3524 32.0227ZM87.4766 15.3565L81.7552 20.948C81.5235 20.7109 81.2891 20.4765 81.052 20.2448L86.6435 14.5234C86.9244 14.7979 87.2021 15.0756 87.4766 15.3565ZM71.0648 4.09863L67.9147 11.4523C67.6112 11.3223 67.3059 11.1957 66.9989 11.0725L69.9773 3.64764C70.3419 3.7939 70.7044 3.94425 71.0648 4.09863ZM51.5917 0.00336201L51.5008 8.00284C51.3341 8.00095 51.1672 8 51 8C50.8328 8 50.6659 8.00095 50.4992 8.00284L50.4083 0.00336199C50.6053 0.00112267 50.8025 0 51 0C51.1975 0 51.3947 0.00112268 51.5917 0.00336201ZM32.0227 3.64764L35.0011 11.0725C34.6941 11.1957 34.3888 11.3223 34.0853 11.4523L30.9352 4.09863C31.2956 3.94425 31.6581 3.7939 32.0227 3.64764ZM15.3565 14.5234L20.948 20.2448C20.7109 20.4765 20.4765 20.7109 20.2448 20.948L14.5234 15.3565C14.7979 15.0756 15.0756 14.7979 15.3565 14.5234ZM4.09863 30.9352L11.4523 34.0853C11.3223 34.3888 11.1957 34.6941 11.0725 35.0011L3.64764 32.0227C3.7939 31.6581 3.94425 31.2956 4.09863 30.9352ZM0.00336201 50.4083C0.00112268 50.6053 0 50.8025 0 51C0 51.1975 0.00112267 51.3947 0.00336199 51.5917L8.00284 51.5008C8.00095 51.3341 8 51.1672 8 51C8 50.8328 8.00095 50.6659 8.00284 50.4992L0.00336201 50.4083ZM3.64764 69.9773L11.0725 66.9989C11.1957 67.3059 11.3223 67.6112 11.4523 67.9147L4.09863 71.0648C3.94425 70.7044 3.7939 70.3419 3.64764 69.9773ZM14.5234 86.6435L20.2448 81.052C20.4765 81.2891 20.7109 81.5235 20.948 81.7552L15.3565 87.4766C15.0756 87.2021 14.7979 86.9244 14.5234 86.6435ZM30.9352 97.9014L34.0853 90.5477C34.3888 90.6777 34.6941 90.8043 35.0011 90.9275L32.0227 98.3524C31.6581 98.2061 31.2956 98.0558 30.9352 97.9014ZM50.4083 101.997L50.4992 93.9972C50.6659 93.999 50.8328 94 51 94C51.1672 94 51.3341 93.999 51.5008 93.9972L51.5917 101.997C51.3947 101.999 51.1975 102 51 102C50.8025 102 50.6053 101.999 50.4083 101.997ZM69.9773 98.3524L66.9989 90.9275C67.3059 90.8043 67.6112 90.6777 67.9147 90.5477L71.0648 97.9014C70.7044 98.0557 70.3419 98.2061 69.9773 98.3524ZM86.6435 87.4766L81.052 81.7552C81.2891 81.5235 81.5235 81.2891 81.7552 81.052L87.4766 86.6435C87.2021 86.9244 86.9244 87.2021 86.6435 87.4766ZM97.9014 71.0648L90.5477 67.9147C90.6777 67.6112 90.8043 67.3059 90.9275 66.9989L98.3524 69.9773C98.2061 70.3419 98.0558 70.7044 97.9014 71.0648Z" fill="black"/>
</svg>
