<svg width="24" height="24" viewBox="0 0 24 24" fill="none" xmlns="http://www.w3.org/2000/svg">
<path d="M20.8666 11.2081L13.2082 18.8664C12.27 19.8046 10.9976 20.3317 9.67075 20.3317C8.34393 20.3317 7.07145 19.8046 6.13325 18.8664C5.19505 17.9282 4.66797 16.6558 4.66797 15.3289C4.66797 14.0021 5.19505 12.7296 6.13325 11.7914L13.7916 4.1331C14.4171 3.50763 15.2654 3.15625 16.1499 3.15625C17.0345 3.15625 17.8828 3.50763 18.5082 4.1331C19.1337 4.75857 19.4851 5.60689 19.4851 6.49144C19.4851 7.37598 19.1337 8.2243 18.5082 8.84977L10.8416 16.5081C10.5288 16.8208 10.1047 16.9965 9.66242 16.9965C9.22014 16.9965 8.79598 16.8208 8.48325 16.5081C8.17051 16.1954 7.99482 15.7712 7.99482 15.3289C7.99482 14.8867 8.17051 14.4625 8.48325 14.1498L15.5582 7.0831" stroke="black" stroke-linecap="square" stroke-linejoin="round"/>
</svg>
