<svg width="96" height="28" viewBox="0 0 96 28" fill="none" xmlns="http://www.w3.org/2000/svg">
<g clip-path="url(#clip0_2270_9131)">
<path d="M24.9883 0H29.3567V28H24.9883V0ZM44.646 19.068C44.646 23.3531 41.1327 23.6947 40.0876 23.6947C37.4764 23.6947 37.0013 21.1882 37.0013 19.6762V8.96H32.633V19.6538C32.633 22.3082 33.4455 24.4989 34.8696 25.9594C36.1277 27.2507 38.0126 27.9563 40.0548 27.9563C41.503 27.9563 43.5539 27.4938 44.646 26.4712V28H49.0144V8.96H44.646V19.068ZM57.7512 2.24H53.3828V8.96H50.1065V13.44H53.3828V28H57.7512V13.44H61.0274V8.96H57.7512V2.24ZM74.7846 22.307C73.8334 23.184 72.5775 23.6701 71.1992 23.6701C68.161 23.6701 65.9299 21.3819 65.9299 18.2403C65.9299 15.0987 68.09 12.9069 71.1992 12.9069C72.5534 12.9069 73.8334 13.3694 74.8086 14.2464L75.4715 14.831L78.4169 11.8115L77.6797 11.1294C75.9466 9.52448 73.6455 8.624 71.1981 8.624C65.7377 8.624 61.7723 12.665 61.7723 18.2168C61.7723 23.7451 65.8327 27.9306 71.1981 27.9306C73.6914 27.9306 76.0165 27.0301 77.7278 25.3994L78.4398 24.7173L75.4486 21.7L74.7846 22.307ZM94.0087 10.6198C92.7506 9.3296 91.2763 8.624 89.2341 8.624C87.786 8.624 86.1457 9.08656 85.0536 10.108V0H80.6852V28H85.0536V17.5112C85.0536 13.2261 88.0219 12.8856 89.067 12.8856C91.6782 12.8856 91.6061 15.3933 91.6061 16.903V28H95.9745V16.9266C95.9745 14.2722 95.4339 12.0814 94.0087 10.6198Z" fill="#FEFEFE"/>
<path d="M71.0568 15.0505C71.8944 15.0505 72.6978 15.3918 73.2901 15.9992C73.8824 16.6067 74.2151 17.4305 74.2151 18.2896C74.2151 19.1486 73.8824 19.9725 73.2901 20.5799C72.6978 21.1874 71.8944 21.5286 71.0568 21.5286C70.2191 21.5286 69.4158 21.1874 68.8235 20.5799C68.2312 19.9725 67.8984 19.1486 67.8984 18.2896C67.8984 17.4305 68.2312 16.6067 68.8235 15.9992C69.4158 15.3918 70.2191 15.0505 71.0568 15.0505Z" fill="#FF3D2E"/>
<path d="M18.8741 20.9675C17.213 22.7203 14.9568 23.67 12.5825 23.67C7.71616 23.67 4.17777 19.75 4.17777 14.3695C4.17777 8.96442 7.71616 5.04442 12.5825 5.04442C14.9338 5.04442 17.165 5.99306 18.8512 7.72234L19.5152 8.40442L22.4354 5.40954L21.7944 4.72746C19.3732 2.1705 16.0969 0.783936 12.5825 0.783936C5.41293 0.783936 0.0234375 6.62698 0.0234375 14.3931C0.0234375 22.1356 5.43696 27.9551 12.5825 27.9551C16.1209 27.9551 19.3972 26.5439 21.8184 23.987L22.4595 23.3049L19.5632 20.2619L18.8741 20.9675Z" fill="#FEFEFE"/>
</g>
<defs>
<clipPath id="clip0_2270_9131">
<rect width="96" height="28" fill="white"/>
</clipPath>
</defs>
</svg>
