<svg width="328" height="328" viewBox="0 0 328 328" fill="none" xmlns="http://www.w3.org/2000/svg">
<path d="M320.18 327.62C318.708 327.62 317.27 327.184 316.046 326.366C314.823 325.549 313.869 324.387 313.306 323.027C312.743 321.668 312.596 320.172 312.883 318.729C313.17 317.285 313.879 315.96 314.919 314.919C315.96 313.879 317.285 313.17 318.729 312.883C320.172 312.596 321.668 312.743 323.027 313.306C324.387 313.869 325.549 314.823 326.366 316.047C327.184 317.27 327.62 318.709 327.62 320.18C327.617 322.152 326.833 324.043 325.438 325.438C324.043 326.833 322.152 327.617 320.18 327.62ZM285.43 327.62C283.958 327.62 282.52 327.184 281.296 326.366C280.073 325.549 279.119 324.387 278.556 323.027C277.993 321.668 277.846 320.172 278.133 318.729C278.42 317.285 279.129 315.96 280.169 314.919C281.21 313.879 282.535 313.17 283.979 312.883C285.422 312.596 286.918 312.743 288.277 313.306C289.637 313.869 290.799 314.823 291.616 316.047C292.434 317.27 292.87 318.709 292.87 320.18C292.867 322.154 292.081 324.047 290.684 325.441C289.288 326.836 287.394 327.62 285.42 327.62H285.43ZM250.68 327.62C249.209 327.618 247.772 327.18 246.549 326.361C245.327 325.543 244.375 324.38 243.814 323.02C243.252 321.661 243.106 320.165 243.394 318.723C243.682 317.28 244.392 315.955 245.433 314.916C246.474 313.876 247.799 313.169 249.242 312.882C250.685 312.596 252.18 312.744 253.539 313.307C254.898 313.871 256.06 314.824 256.877 316.048C257.694 317.271 258.13 318.709 258.13 320.18C258.129 321.158 257.935 322.127 257.559 323.03C257.184 323.934 256.634 324.754 255.941 325.445C255.248 326.136 254.426 326.684 253.522 327.057C252.617 327.43 251.648 327.621 250.67 327.62H250.68ZM215.94 327.62C214.469 327.62 213.03 327.184 211.806 326.366C210.583 325.549 209.629 324.387 209.066 323.027C208.503 321.668 208.356 320.172 208.643 318.729C208.93 317.285 209.639 315.96 210.679 314.919C211.72 313.879 213.045 313.17 214.489 312.883C215.932 312.596 217.428 312.743 218.787 313.306C220.147 313.869 221.309 314.823 222.126 316.047C222.944 317.27 223.38 318.709 223.38 320.18C223.377 322.154 222.591 324.047 221.194 325.441C219.798 326.836 217.904 327.62 215.93 327.62H215.94ZM181.19 327.62C179.719 327.62 178.28 327.184 177.056 326.366C175.833 325.549 174.879 324.387 174.316 323.027C173.753 321.668 173.606 320.172 173.893 318.729C174.18 317.285 174.889 315.96 175.929 314.919C176.97 313.879 178.295 313.17 179.739 312.883C181.182 312.596 182.678 312.743 184.037 313.306C185.397 313.869 186.559 314.823 187.376 316.047C188.194 317.27 188.63 318.709 188.63 320.18C188.627 322.154 187.841 324.047 186.444 325.441C185.048 326.836 183.154 327.62 181.18 327.62H181.19ZM146.44 327.62C144.969 327.62 143.53 327.184 142.306 326.366C141.083 325.549 140.129 324.387 139.566 323.027C139.003 321.668 138.856 320.172 139.143 318.729C139.43 317.285 140.139 315.96 141.179 314.919C142.22 313.879 143.545 313.17 144.989 312.883C146.432 312.596 147.928 312.743 149.287 313.306C150.647 313.869 151.809 314.823 152.626 316.047C153.444 317.27 153.88 318.709 153.88 320.18C153.877 322.154 153.091 324.047 151.694 325.441C150.298 326.836 148.404 327.62 146.43 327.62H146.44ZM111.69 327.62C110.219 327.618 108.782 327.18 107.559 326.361C106.337 325.543 105.385 324.38 104.824 323.02C104.262 321.661 104.116 320.165 104.404 318.723C104.692 317.28 105.402 315.955 106.443 314.916C107.484 313.876 108.809 313.169 110.252 312.882C111.695 312.596 113.19 312.744 114.549 313.307C115.908 313.871 117.07 314.824 117.887 316.048C118.704 317.271 119.14 318.709 119.14 320.18C119.139 321.158 118.945 322.127 118.569 323.03C118.194 323.934 117.644 324.754 116.951 325.445C116.258 326.136 115.436 326.684 114.532 327.057C113.627 327.43 112.658 327.621 111.68 327.62H111.69ZM76.95 327.62C75.4785 327.62 74.04 327.184 72.8165 326.366C71.593 325.549 70.6393 324.387 70.0762 323.027C69.5131 321.668 69.3658 320.172 69.6529 318.729C69.94 317.285 70.6485 315.96 71.689 314.919C72.7295 313.879 74.0554 313.17 75.4986 312.883C76.9418 312.596 78.4377 312.743 79.7972 313.306C81.1567 313.869 82.3185 314.823 83.136 316.047C83.9536 317.27 84.39 318.709 84.39 320.18C84.3873 322.154 83.6013 324.047 82.2044 325.441C80.8075 326.836 78.9141 327.62 76.94 327.62H76.95ZM42.2 327.62C40.7285 327.62 39.29 327.184 38.0665 326.366C36.843 325.549 35.8893 324.387 35.3262 323.027C34.7631 321.668 34.6158 320.172 34.9029 318.729C35.19 317.285 35.8985 315.96 36.939 314.919C37.9795 313.879 39.3054 313.17 40.7486 312.883C42.1918 312.596 43.6877 312.743 45.0472 313.306C46.4067 313.869 47.5685 314.823 48.386 316.047C49.2036 317.27 49.64 318.709 49.64 320.18C49.6386 321.158 49.4448 322.127 49.0692 323.03C48.6935 323.934 48.1437 324.754 47.451 325.445C46.7583 326.136 45.9362 326.684 45.0318 327.057C44.1274 327.43 43.1583 327.621 42.18 327.62H42.2ZM7.45001 327.62C5.97895 327.618 4.54158 327.18 3.3194 326.361C2.09721 325.543 1.14514 324.38 0.583556 323.02C0.0219729 321.661 -0.12408 320.165 0.164122 318.723C0.452325 317.28 1.1618 315.955 2.2027 314.916C3.2436 313.876 4.56932 313.169 6.01227 312.882C7.45521 312.596 8.95049 312.744 10.3094 313.307C11.6683 313.871 12.8297 314.824 13.6468 316.048C14.4639 317.271 14.9 318.709 14.9 320.18C14.8987 321.158 14.7048 322.127 14.3292 323.03C13.9536 323.934 13.4035 324.754 12.7108 325.445C12.018 326.136 11.1962 326.684 10.2918 327.057C9.38743 327.43 8.41835 327.621 7.44 327.62H7.45001ZM320.18 292.87C318.708 292.87 317.27 292.434 316.046 291.616C314.823 290.799 313.869 289.637 313.306 288.277C312.743 286.918 312.596 285.422 312.883 283.979C313.17 282.535 313.879 281.21 314.919 280.169C315.96 279.129 317.285 278.42 318.729 278.133C320.172 277.846 321.668 277.993 323.027 278.556C324.387 279.119 325.549 280.073 326.366 281.297C327.184 282.52 327.62 283.959 327.62 285.43C327.617 287.402 326.833 289.293 325.438 290.688C324.043 292.083 322.152 292.867 320.18 292.87ZM285.43 292.87C283.958 292.87 282.52 292.434 281.296 291.616C280.073 290.799 279.119 289.637 278.556 288.277C277.993 286.918 277.846 285.422 278.133 283.979C278.42 282.535 279.129 281.21 280.169 280.169C281.21 279.129 282.535 278.42 283.979 278.133C285.422 277.846 286.918 277.993 288.277 278.556C289.637 279.119 290.799 280.073 291.616 281.297C292.434 282.52 292.87 283.959 292.87 285.43C292.867 287.404 292.081 289.297 290.684 290.691C289.288 292.086 287.394 292.87 285.42 292.87H285.43ZM250.68 292.87C249.209 292.868 247.772 292.43 246.549 291.611C245.327 290.793 244.375 289.63 243.814 288.27C243.252 286.911 243.106 285.415 243.394 283.973C243.682 282.53 244.392 281.205 245.433 280.166C246.474 279.126 247.799 278.419 249.242 278.132C250.685 277.846 252.18 277.994 253.539 278.557C254.898 279.121 256.06 280.074 256.877 281.298C257.694 282.521 258.13 283.959 258.13 285.43C258.129 286.408 257.935 287.377 257.559 288.28C257.184 289.184 256.634 290.004 255.941 290.695C255.248 291.386 254.426 291.934 253.522 292.307C252.617 292.68 251.648 292.871 250.67 292.87H250.68ZM215.94 292.87C214.469 292.87 213.03 292.434 211.806 291.616C210.583 290.799 209.629 289.637 209.066 288.277C208.503 286.918 208.356 285.422 208.643 283.979C208.93 282.535 209.639 281.21 210.679 280.169C211.72 279.129 213.045 278.42 214.489 278.133C215.932 277.846 217.428 277.993 218.787 278.556C220.147 279.119 221.309 280.073 222.126 281.297C222.944 282.52 223.38 283.959 223.38 285.43C223.377 287.404 222.591 289.297 221.194 290.691C219.798 292.086 217.904 292.87 215.93 292.87H215.94ZM181.19 292.87C179.719 292.87 178.28 292.434 177.056 291.616C175.833 290.799 174.879 289.637 174.316 288.277C173.753 286.918 173.606 285.422 173.893 283.979C174.18 282.535 174.889 281.21 175.929 280.169C176.97 279.129 178.295 278.42 179.739 278.133C181.182 277.846 182.678 277.993 184.037 278.556C185.397 279.119 186.559 280.073 187.376 281.297C188.194 282.52 188.63 283.959 188.63 285.43C188.627 287.404 187.841 289.297 186.444 290.691C185.048 292.086 183.154 292.87 181.18 292.87H181.19ZM146.44 292.87C144.969 292.87 143.53 292.434 142.306 291.616C141.083 290.799 140.129 289.637 139.566 288.277C139.003 286.918 138.856 285.422 139.143 283.979C139.43 282.535 140.139 281.21 141.179 280.169C142.22 279.129 143.545 278.42 144.989 278.133C146.432 277.846 147.928 277.993 149.287 278.556C150.647 279.119 151.809 280.073 152.626 281.297C153.444 282.52 153.88 283.959 153.88 285.43C153.877 287.404 153.091 289.297 151.694 290.691C150.298 292.086 148.404 292.87 146.43 292.87H146.44ZM111.69 292.87C110.219 292.868 108.782 292.43 107.559 291.611C106.337 290.793 105.385 289.63 104.824 288.27C104.262 286.911 104.116 285.415 104.404 283.973C104.692 282.53 105.402 281.205 106.443 280.166C107.484 279.126 108.809 278.419 110.252 278.132C111.695 277.846 113.19 277.994 114.549 278.557C115.908 279.121 117.07 280.074 117.887 281.298C118.704 282.521 119.14 283.959 119.14 285.43C119.139 286.408 118.945 287.377 118.569 288.28C118.194 289.184 117.644 290.004 116.951 290.695C116.258 291.386 115.436 291.934 114.532 292.307C113.627 292.68 112.658 292.871 111.68 292.87H111.69ZM76.95 292.87C75.4785 292.87 74.04 292.434 72.8165 291.616C71.593 290.799 70.6393 289.637 70.0762 288.277C69.5131 286.918 69.3658 285.422 69.6529 283.979C69.94 282.535 70.6485 281.21 71.689 280.169C72.7295 279.129 74.0554 278.42 75.4986 278.133C76.9418 277.846 78.4377 277.993 79.7972 278.556C81.1567 279.119 82.3185 280.073 83.136 281.297C83.9536 282.52 84.39 283.959 84.39 285.43C84.3873 287.404 83.6013 289.297 82.2044 290.691C80.8075 292.086 78.9141 292.87 76.94 292.87H76.95ZM42.2 292.87C40.7285 292.87 39.29 292.434 38.0665 291.616C36.843 290.799 35.8893 289.637 35.3262 288.277C34.7631 286.918 34.6158 285.422 34.9029 283.979C35.19 282.535 35.8985 281.21 36.939 280.169C37.9795 279.129 39.3054 278.42 40.7486 278.133C42.1918 277.846 43.6877 277.993 45.0472 278.556C46.4067 279.119 47.5685 280.073 48.386 281.297C49.2036 282.52 49.64 283.959 49.64 285.43C49.6386 286.408 49.4448 287.377 49.0692 288.28C48.6935 289.184 48.1437 290.004 47.451 290.695C46.7583 291.386 45.9362 291.934 45.0318 292.307C44.1274 292.68 43.1583 292.871 42.18 292.87H42.2ZM7.45001 292.87C5.97895 292.868 4.54158 292.43 3.3194 291.611C2.09721 290.793 1.14514 289.63 0.583556 288.27C0.0219729 286.911 -0.12408 285.415 0.164122 283.973C0.452325 282.53 1.1618 281.205 2.2027 280.166C3.2436 279.126 4.56932 278.419 6.01227 278.132C7.45521 277.846 8.95049 277.994 10.3094 278.557C11.6683 279.121 12.8297 280.074 13.6468 281.298C14.4639 282.521 14.9 283.959 14.9 285.43C14.8987 286.408 14.7048 287.377 14.3292 288.28C13.9536 289.184 13.4035 290.004 12.7108 290.695C12.018 291.386 11.1962 291.934 10.2918 292.307C9.38743 292.68 8.41835 292.871 7.44 292.87H7.45001ZM320.18 258.12C318.708 258.12 317.27 257.684 316.046 256.866C314.823 256.049 313.869 254.887 313.306 253.527C312.743 252.168 312.596 250.672 312.883 249.229C313.17 247.785 313.879 246.46 314.919 245.419C315.96 244.379 317.285 243.67 318.729 243.383C320.172 243.096 321.668 243.243 323.027 243.806C324.387 244.369 325.549 245.323 326.366 246.547C327.184 247.77 327.62 249.209 327.62 250.68C327.62 251.657 327.428 252.625 327.054 253.527C326.68 254.43 326.132 255.25 325.441 255.941C324.75 256.632 323.93 257.18 323.027 257.554C322.124 257.928 321.157 258.12 320.18 258.12ZM285.43 258.12C283.958 258.12 282.52 257.684 281.296 256.866C280.073 256.049 279.119 254.887 278.556 253.527C277.993 252.168 277.846 250.672 278.133 249.229C278.42 247.785 279.129 246.46 280.169 245.419C281.21 244.379 282.535 243.67 283.979 243.383C285.422 243.096 286.918 243.243 288.277 243.806C289.637 244.369 290.799 245.323 291.616 246.547C292.434 247.77 292.87 249.209 292.87 250.68C292.867 252.654 292.081 254.547 290.684 255.941C289.288 257.336 287.394 258.12 285.42 258.12H285.43ZM250.68 258.12C249.209 258.118 247.772 257.68 246.549 256.861C245.327 256.043 244.375 254.88 243.814 253.52C243.252 252.161 243.106 250.665 243.394 249.223C243.682 247.78 244.392 246.455 245.433 245.416C246.474 244.376 247.799 243.669 249.242 243.382C250.685 243.096 252.18 243.244 253.539 243.807C254.898 244.371 256.06 245.324 256.877 246.548C257.694 247.771 258.13 249.209 258.13 250.68C258.129 251.658 257.935 252.627 257.559 253.53C257.184 254.434 256.634 255.254 255.941 255.945C255.248 256.636 254.426 257.184 253.522 257.557C252.617 257.93 251.648 258.121 250.67 258.12H250.68ZM215.94 258.12C214.469 258.12 213.03 257.684 211.806 256.866C210.583 256.049 209.629 254.887 209.066 253.527C208.503 252.168 208.356 250.672 208.643 249.229C208.93 247.785 209.639 246.46 210.679 245.419C211.72 244.379 213.045 243.67 214.489 243.383C215.932 243.096 217.428 243.243 218.787 243.806C220.147 244.369 221.309 245.323 222.126 246.547C222.944 247.77 223.38 249.209 223.38 250.68C223.377 252.654 222.591 254.547 221.194 255.941C219.798 257.336 217.904 258.12 215.93 258.12H215.94ZM181.19 258.12C179.719 258.12 178.28 257.684 177.056 256.866C175.833 256.049 174.879 254.887 174.316 253.527C173.753 252.168 173.606 250.672 173.893 249.229C174.18 247.785 174.889 246.46 175.929 245.419C176.97 244.379 178.295 243.67 179.739 243.383C181.182 243.096 182.678 243.243 184.037 243.806C185.397 244.369 186.559 245.323 187.376 246.547C188.194 247.77 188.63 249.209 188.63 250.68C188.627 252.654 187.841 254.547 186.444 255.941C185.048 257.336 183.154 258.12 181.18 258.12H181.19ZM146.44 258.12C144.969 258.12 143.53 257.684 142.306 256.866C141.083 256.049 140.129 254.887 139.566 253.527C139.003 252.168 138.856 250.672 139.143 249.229C139.43 247.785 140.139 246.46 141.179 245.419C142.22 244.379 143.545 243.67 144.989 243.383C146.432 243.096 147.928 243.243 149.287 243.806C150.647 244.369 151.809 245.323 152.626 246.547C153.444 247.77 153.88 249.209 153.88 250.68C153.877 252.654 153.091 254.547 151.694 255.941C150.298 257.336 148.404 258.12 146.43 258.12H146.44ZM111.69 258.12C110.219 258.118 108.782 257.68 107.559 256.861C106.337 256.043 105.385 254.88 104.824 253.52C104.262 252.161 104.116 250.665 104.404 249.223C104.692 247.78 105.402 246.455 106.443 245.416C107.484 244.376 108.809 243.669 110.252 243.382C111.695 243.096 113.19 243.244 114.549 243.807C115.908 244.371 117.07 245.324 117.887 246.548C118.704 247.771 119.14 249.209 119.14 250.68C119.139 251.658 118.945 252.627 118.569 253.53C118.194 254.434 117.644 255.254 116.951 255.945C116.258 256.636 115.436 257.184 114.532 257.557C113.627 257.93 112.658 258.121 111.68 258.12H111.69ZM76.95 258.12C75.4785 258.12 74.04 257.684 72.8165 256.866C71.593 256.049 70.6393 254.887 70.0762 253.527C69.5131 252.168 69.3658 250.672 69.6529 249.229C69.94 247.785 70.6485 246.46 71.689 245.419C72.7295 244.379 74.0554 243.67 75.4986 243.383C76.9418 243.096 78.4377 243.243 79.7972 243.806C81.1567 244.369 82.3185 245.323 83.136 246.547C83.9536 247.77 84.39 249.209 84.39 250.68C84.39 251.658 84.1973 252.626 83.8228 253.53C83.4483 254.433 82.8993 255.253 82.2073 255.944C81.5154 256.635 80.6942 257.183 79.7903 257.557C78.8865 257.93 77.9179 258.121 76.94 258.12H76.95ZM42.2 258.12C40.7285 258.12 39.29 257.684 38.0665 256.866C36.843 256.049 35.8893 254.887 35.3262 253.527C34.7631 252.168 34.6158 250.672 34.9029 249.229C35.19 247.785 35.8985 246.46 36.939 245.419C37.9795 244.379 39.3054 243.67 40.7486 243.383C42.1918 243.096 43.6877 243.243 45.0472 243.806C46.4067 244.369 47.5685 245.323 48.386 246.547C49.2036 247.77 49.64 249.209 49.64 250.68C49.6386 251.658 49.4448 252.627 49.0692 253.53C48.6935 254.434 48.1437 255.254 47.451 255.945C46.7583 256.636 45.9362 257.184 45.0318 257.557C44.1274 257.93 43.1583 258.121 42.18 258.12H42.2ZM7.45001 258.12C5.97895 258.118 4.54158 257.68 3.3194 256.861C2.09721 256.043 1.14514 254.88 0.583556 253.52C0.0219729 252.161 -0.12408 250.665 0.164122 249.223C0.452325 247.78 1.1618 246.455 2.2027 245.416C3.2436 244.376 4.56932 243.669 6.01227 243.382C7.45521 243.096 8.95049 243.244 10.3094 243.807C11.6683 244.371 12.8297 245.324 13.6468 246.548C14.4639 247.771 14.9 249.209 14.9 250.68C14.8987 251.658 14.7048 252.627 14.3292 253.53C13.9536 254.434 13.4035 255.254 12.7108 255.945C12.018 256.636 11.1962 257.184 10.2918 257.557C9.38743 257.93 8.41835 258.121 7.44 258.12H7.45001ZM320.18 223.38C318.706 223.382 317.264 222.946 316.037 222.129C314.81 221.311 313.854 220.147 313.289 218.786C312.724 217.424 312.575 215.925 312.863 214.479C313.15 213.033 313.86 211.705 314.902 210.662C315.945 209.62 317.273 208.91 318.719 208.623C320.165 208.336 321.664 208.484 323.026 209.049C324.387 209.614 325.551 210.571 326.369 211.797C327.187 213.024 327.622 214.466 327.62 215.94C327.617 217.912 326.833 219.803 325.438 221.198C324.043 222.593 322.152 223.377 320.18 223.38ZM285.43 223.38C283.956 223.382 282.514 222.946 281.287 222.129C280.06 221.311 279.104 220.147 278.539 218.786C277.974 217.424 277.825 215.925 278.113 214.479C278.4 213.033 279.11 211.705 280.152 210.662C281.195 209.62 282.523 208.91 283.969 208.623C285.415 208.336 286.914 208.484 288.276 209.049C289.637 209.614 290.801 210.571 291.619 211.797C292.437 213.024 292.872 214.466 292.87 215.94C292.867 217.914 292.081 219.807 290.684 221.202C289.288 222.596 287.394 223.38 285.42 223.38H285.43ZM250.68 223.38C249.206 223.38 247.765 222.943 246.54 222.124C245.314 221.305 244.36 220.141 243.796 218.779C243.233 217.417 243.086 215.918 243.374 214.473C243.662 213.028 244.373 211.7 245.416 210.659C246.458 209.617 247.787 208.908 249.233 208.622C250.679 208.336 252.177 208.485 253.538 209.05C254.899 209.615 256.062 210.572 256.879 211.798C257.697 213.025 258.132 214.466 258.13 215.94C258.129 216.918 257.935 217.887 257.559 218.79C257.184 219.694 256.634 220.514 255.941 221.205C255.248 221.896 254.426 222.444 253.522 222.817C252.617 223.19 251.648 223.381 250.67 223.38H250.68ZM215.94 223.38C214.466 223.382 213.024 222.946 211.797 222.129C210.571 221.311 209.614 220.147 209.049 218.786C208.484 217.424 208.335 215.925 208.623 214.479C208.91 213.033 209.62 211.705 210.662 210.662C211.705 209.62 213.033 208.91 214.479 208.623C215.925 208.336 217.424 208.484 218.786 209.049C220.147 209.614 221.311 210.571 222.129 211.797C222.947 213.024 223.382 214.466 223.38 215.94C223.377 217.914 222.591 219.807 221.194 221.202C219.798 222.596 217.904 223.38 215.93 223.38H215.94ZM181.19 223.38C179.716 223.382 178.274 222.946 177.047 222.129C175.821 221.311 174.864 220.147 174.299 218.786C173.734 217.424 173.585 215.925 173.873 214.479C174.16 213.033 174.87 211.705 175.912 210.662C176.955 209.62 178.283 208.91 179.729 208.623C181.175 208.336 182.674 208.484 184.036 209.049C185.397 209.614 186.561 210.571 187.379 211.797C188.197 213.024 188.632 214.466 188.63 215.94C188.627 217.914 187.841 219.807 186.444 221.202C185.048 222.596 183.154 223.38 181.18 223.38H181.19ZM146.44 223.38C144.966 223.382 143.524 222.946 142.297 222.129C141.071 221.311 140.114 220.147 139.549 218.786C138.984 217.424 138.835 215.925 139.123 214.479C139.41 213.033 140.12 211.705 141.162 210.662C142.205 209.62 143.533 208.91 144.979 208.623C146.425 208.336 147.924 208.484 149.286 209.049C150.647 209.614 151.811 210.571 152.629 211.797C153.447 213.024 153.882 214.466 153.88 215.94C153.877 217.914 153.091 219.807 151.694 221.202C150.298 222.596 148.404 223.38 146.43 223.38H146.44ZM111.69 223.38C110.216 223.38 108.775 222.943 107.55 222.124C106.325 221.305 105.37 220.141 104.806 218.779C104.243 217.417 104.096 215.918 104.384 214.473C104.672 213.028 105.383 211.7 106.426 210.659C107.468 209.617 108.797 208.908 110.243 208.622C111.689 208.336 113.187 208.485 114.548 209.05C115.909 209.615 117.072 210.572 117.889 211.798C118.707 213.025 119.142 214.466 119.14 215.94C119.139 216.918 118.945 217.887 118.569 218.79C118.194 219.694 117.644 220.514 116.951 221.205C116.258 221.896 115.436 222.444 114.532 222.817C113.627 223.19 112.658 223.381 111.68 223.38H111.69ZM76.95 223.38C75.4757 223.382 74.0339 222.946 72.8072 222.129C71.5805 221.311 70.624 220.147 70.0589 218.786C69.4938 217.424 69.3455 215.925 69.6326 214.479C69.9198 213.033 70.6294 211.705 71.6719 210.662C72.7144 209.62 74.043 208.91 75.4891 208.623C76.9352 208.336 78.434 208.484 79.7957 209.049C81.1574 209.614 82.3206 210.571 83.1385 211.797C83.9563 213.024 84.3919 214.466 84.39 215.94C84.3873 217.914 83.6013 219.807 82.2044 221.202C80.8075 222.596 78.9141 223.38 76.94 223.38H76.95ZM42.2 223.38C40.7257 223.382 39.2839 222.946 38.0572 222.129C36.8305 221.311 35.874 220.147 35.3089 218.786C34.7438 217.424 34.5955 215.925 34.8826 214.479C35.1698 213.033 35.8794 211.705 36.9219 210.662C37.9644 209.62 39.293 208.91 40.7391 208.623C42.1852 208.336 43.684 208.484 45.0457 209.049C46.4074 209.614 47.5706 210.571 48.3885 211.797C49.2063 213.024 49.6419 214.466 49.64 215.94C49.6386 216.918 49.4448 217.887 49.0692 218.79C48.6935 219.694 48.1437 220.514 47.451 221.205C46.7583 221.896 45.9362 222.444 45.0318 222.817C44.1274 223.19 43.1583 223.381 42.18 223.38H42.2ZM7.45001 223.38C5.97611 223.38 4.53524 222.943 3.30987 222.124C2.08451 221.305 1.1298 220.141 0.566222 218.779C0.002644 217.417 -0.144413 215.918 0.143859 214.473C0.43213 213.028 1.1427 211.7 2.18561 210.659C3.22851 209.617 4.55693 208.908 6.00275 208.622C7.44856 208.336 8.94679 208.485 10.3079 209.05C11.6691 209.615 12.8318 210.572 13.6492 211.798C14.4666 213.025 14.9019 214.466 14.9 215.94C14.8987 216.918 14.7048 217.887 14.3292 218.79C13.9536 219.694 13.4035 220.514 12.7108 221.205C12.018 221.896 11.1962 222.444 10.2918 222.817C9.38743 223.19 8.41835 223.381 7.44 223.38H7.45001ZM320.18 188.63C318.708 188.63 317.27 188.194 316.046 187.376C314.823 186.559 313.869 185.397 313.306 184.037C312.743 182.678 312.596 181.182 312.883 179.739C313.17 178.295 313.879 176.97 314.919 175.929C315.96 174.889 317.285 174.18 318.729 173.893C320.172 173.606 321.668 173.753 323.027 174.316C324.387 174.879 325.549 175.833 326.366 177.057C327.184 178.28 327.62 179.719 327.62 181.19C327.617 183.162 326.833 185.053 325.438 186.448C324.043 187.843 322.152 188.627 320.18 188.63ZM285.43 188.63C283.958 188.63 282.52 188.194 281.296 187.376C280.073 186.559 279.119 185.397 278.556 184.037C277.993 182.678 277.846 181.182 278.133 179.739C278.42 178.295 279.129 176.97 280.169 175.929C281.21 174.889 282.535 174.18 283.979 173.893C285.422 173.606 286.918 173.753 288.277 174.316C289.637 174.879 290.799 175.833 291.616 177.057C292.434 178.28 292.87 179.719 292.87 181.19C292.867 183.164 292.081 185.057 290.684 186.452C289.288 187.846 287.394 188.63 285.42 188.63H285.43ZM250.68 188.63C249.209 188.628 247.772 188.19 246.549 187.371C245.327 186.553 244.375 185.39 243.814 184.03C243.252 182.671 243.106 181.175 243.394 179.733C243.682 178.29 244.392 176.965 245.433 175.926C246.474 174.886 247.799 174.179 249.242 173.892C250.685 173.606 252.18 173.754 253.539 174.317C254.898 174.881 256.06 175.834 256.877 177.058C257.694 178.281 258.13 179.719 258.13 181.19C258.129 182.168 257.935 183.137 257.559 184.04C257.184 184.944 256.634 185.764 255.941 186.455C255.248 187.146 254.426 187.694 253.522 188.067C252.617 188.44 251.648 188.631 250.67 188.63H250.68ZM215.94 188.63C214.469 188.63 213.03 188.194 211.806 187.376C210.583 186.559 209.629 185.397 209.066 184.037C208.503 182.678 208.356 181.182 208.643 179.739C208.93 178.295 209.639 176.97 210.679 175.929C211.72 174.889 213.045 174.18 214.489 173.893C215.932 173.606 217.428 173.753 218.787 174.316C220.147 174.879 221.309 175.833 222.126 177.057C222.944 178.28 223.38 179.719 223.38 181.19C223.377 183.164 222.591 185.057 221.194 186.452C219.798 187.846 217.904 188.63 215.93 188.63H215.94ZM181.19 188.63C179.719 188.63 178.28 188.194 177.056 187.376C175.833 186.559 174.879 185.397 174.316 184.037C173.753 182.678 173.606 181.182 173.893 179.739C174.18 178.295 174.889 176.97 175.929 175.929C176.97 174.889 178.295 174.18 179.739 173.893C181.182 173.606 182.678 173.753 184.037 174.316C185.397 174.879 186.559 175.833 187.376 177.057C188.194 178.28 188.63 179.719 188.63 181.19C188.627 183.164 187.841 185.057 186.444 186.452C185.048 187.846 183.154 188.63 181.18 188.63H181.19ZM146.44 188.63C144.969 188.63 143.53 188.194 142.306 187.376C141.083 186.559 140.129 185.397 139.566 184.037C139.003 182.678 138.856 181.182 139.143 179.739C139.43 178.295 140.139 176.97 141.179 175.929C142.22 174.889 143.545 174.18 144.989 173.893C146.432 173.606 147.928 173.753 149.287 174.316C150.647 174.879 151.809 175.833 152.626 177.057C153.444 178.28 153.88 179.719 153.88 181.19C153.877 183.164 153.091 185.057 151.694 186.452C150.298 187.846 148.404 188.63 146.43 188.63H146.44ZM111.69 188.63C110.219 188.628 108.782 188.19 107.559 187.371C106.337 186.553 105.385 185.39 104.824 184.03C104.262 182.671 104.116 181.175 104.404 179.733C104.692 178.29 105.402 176.965 106.443 175.926C107.484 174.886 108.809 174.179 110.252 173.892C111.695 173.606 113.19 173.754 114.549 174.317C115.908 174.881 117.07 175.834 117.887 177.058C118.704 178.281 119.14 179.719 119.14 181.19C119.139 182.168 118.945 183.137 118.569 184.04C118.194 184.944 117.644 185.764 116.951 186.455C116.258 187.146 115.436 187.694 114.532 188.067C113.627 188.44 112.658 188.631 111.68 188.63H111.69ZM76.95 188.63C75.4785 188.63 74.04 188.194 72.8165 187.376C71.593 186.559 70.6393 185.397 70.0762 184.037C69.5131 182.678 69.3658 181.182 69.6529 179.739C69.94 178.295 70.6485 176.97 71.689 175.929C72.7295 174.889 74.0554 174.18 75.4986 173.893C76.9418 173.606 78.4377 173.753 79.7972 174.316C81.1567 174.879 82.3185 175.833 83.136 177.057C83.9536 178.28 84.39 179.719 84.39 181.19C84.3873 183.164 83.6013 185.057 82.2044 186.452C80.8075 187.846 78.9141 188.63 76.94 188.63H76.95ZM42.2 188.63C40.7285 188.63 39.29 188.194 38.0665 187.376C36.843 186.559 35.8893 185.397 35.3262 184.037C34.7631 182.678 34.6158 181.182 34.9029 179.739C35.19 178.295 35.8985 176.97 36.939 175.929C37.9795 174.889 39.3054 174.18 40.7486 173.893C42.1918 173.606 43.6877 173.753 45.0472 174.316C46.4067 174.879 47.5685 175.833 48.386 177.057C49.2036 178.28 49.64 179.719 49.64 181.19C49.6386 182.168 49.4448 183.137 49.0692 184.04C48.6935 184.944 48.1437 185.764 47.451 186.455C46.7583 187.146 45.9362 187.694 45.0318 188.067C44.1274 188.44 43.1583 188.631 42.18 188.63H42.2ZM7.45001 188.63C5.97895 188.628 4.54158 188.19 3.3194 187.371C2.09721 186.553 1.14514 185.39 0.583556 184.03C0.0219729 182.671 -0.12408 181.175 0.164122 179.733C0.452325 178.29 1.1618 176.965 2.2027 175.926C3.2436 174.886 4.56932 174.179 6.01227 173.892C7.45521 173.606 8.95049 173.754 10.3094 174.317C11.6683 174.881 12.8297 175.834 13.6468 177.058C14.4639 178.281 14.9 179.719 14.9 181.19C14.8987 182.168 14.7048 183.137 14.3292 184.04C13.9536 184.944 13.4035 185.764 12.7108 186.455C12.018 187.146 11.1962 187.694 10.2918 188.067C9.38743 188.44 8.41835 188.631 7.44 188.63H7.45001ZM320.18 153.88C318.708 153.88 317.27 153.444 316.046 152.626C314.823 151.809 313.869 150.647 313.306 149.287C312.743 147.928 312.596 146.432 312.883 144.989C313.17 143.545 313.879 142.22 314.919 141.179C315.96 140.139 317.285 139.43 318.729 139.143C320.172 138.856 321.668 139.003 323.027 139.566C324.387 140.129 325.549 141.083 326.366 142.307C327.184 143.53 327.62 144.969 327.62 146.44C327.62 147.417 327.428 148.385 327.054 149.287C326.68 150.19 326.132 151.01 325.441 151.701C324.75 152.392 323.93 152.94 323.027 153.314C322.124 153.688 321.157 153.88 320.18 153.88ZM285.43 153.88C283.958 153.88 282.52 153.444 281.296 152.626C280.073 151.809 279.119 150.647 278.556 149.287C277.993 147.928 277.846 146.432 278.133 144.989C278.42 143.545 279.129 142.22 280.169 141.179C281.21 140.139 282.535 139.43 283.979 139.143C285.422 138.856 286.918 139.003 288.277 139.566C289.637 140.129 290.799 141.083 291.616 142.307C292.434 143.53 292.87 144.969 292.87 146.44C292.867 148.414 292.081 150.307 290.684 151.702C289.288 153.096 287.394 153.88 285.42 153.88H285.43ZM250.68 153.88C249.209 153.878 247.772 153.44 246.549 152.621C245.327 151.803 244.375 150.64 243.814 149.28C243.252 147.921 243.106 146.425 243.394 144.983C243.682 143.54 244.392 142.215 245.433 141.176C246.474 140.136 247.799 139.429 249.242 139.142C250.685 138.856 252.18 139.004 253.539 139.567C254.898 140.131 256.06 141.084 256.877 142.308C257.694 143.531 258.13 144.969 258.13 146.44C258.129 147.418 257.935 148.387 257.559 149.29C257.184 150.194 256.634 151.014 255.941 151.705C255.248 152.396 254.426 152.944 253.522 153.317C252.617 153.69 251.648 153.881 250.67 153.88H250.68ZM215.94 153.88C214.469 153.88 213.03 153.444 211.806 152.626C210.583 151.809 209.629 150.647 209.066 149.287C208.503 147.928 208.356 146.432 208.643 144.989C208.93 143.545 209.639 142.22 210.679 141.179C211.72 140.139 213.045 139.43 214.489 139.143C215.932 138.856 217.428 139.003 218.787 139.566C220.147 140.129 221.309 141.083 222.126 142.307C222.944 143.53 223.38 144.969 223.38 146.44C223.377 148.414 222.591 150.307 221.194 151.702C219.798 153.096 217.904 153.88 215.93 153.88H215.94ZM181.19 153.88C179.719 153.88 178.28 153.444 177.056 152.626C175.833 151.809 174.879 150.647 174.316 149.287C173.753 147.928 173.606 146.432 173.893 144.989C174.18 143.545 174.889 142.22 175.929 141.179C176.97 140.139 178.295 139.43 179.739 139.143C181.182 138.856 182.678 139.003 184.037 139.566C185.397 140.129 186.559 141.083 187.376 142.307C188.194 143.53 188.63 144.969 188.63 146.44C188.627 148.414 187.841 150.307 186.444 151.702C185.048 153.096 183.154 153.88 181.18 153.88H181.19ZM146.44 153.88C144.969 153.88 143.53 153.444 142.306 152.626C141.083 151.809 140.129 150.647 139.566 149.287C139.003 147.928 138.856 146.432 139.143 144.989C139.43 143.545 140.139 142.22 141.179 141.179C142.22 140.139 143.545 139.43 144.989 139.143C146.432 138.856 147.928 139.003 149.287 139.566C150.647 140.129 151.809 141.083 152.626 142.307C153.444 143.53 153.88 144.969 153.88 146.44C153.877 148.414 153.091 150.307 151.694 151.702C150.298 153.096 148.404 153.88 146.43 153.88H146.44ZM111.69 153.88C110.219 153.878 108.782 153.44 107.559 152.621C106.337 151.803 105.385 150.64 104.824 149.28C104.262 147.921 104.116 146.425 104.404 144.983C104.692 143.54 105.402 142.215 106.443 141.176C107.484 140.136 108.809 139.429 110.252 139.142C111.695 138.856 113.19 139.004 114.549 139.567C115.908 140.131 117.07 141.084 117.887 142.308C118.704 143.531 119.14 144.969 119.14 146.44C119.139 147.418 118.945 148.387 118.569 149.29C118.194 150.194 117.644 151.014 116.951 151.705C116.258 152.396 115.436 152.944 114.532 153.317C113.627 153.69 112.658 153.881 111.68 153.88H111.69ZM76.95 153.88C75.4785 153.88 74.04 153.444 72.8165 152.626C71.593 151.809 70.6393 150.647 70.0762 149.287C69.5131 147.928 69.3658 146.432 69.6529 144.989C69.94 143.545 70.6485 142.22 71.689 141.179C72.7295 140.139 74.0554 139.43 75.4986 139.143C76.9418 138.856 78.4377 139.003 79.7972 139.566C81.1567 140.129 82.3185 141.083 83.136 142.307C83.9536 143.53 84.39 144.969 84.39 146.44C84.39 147.418 84.1973 148.386 83.8228 149.29C83.4483 150.193 82.8993 151.013 82.2073 151.704C81.5154 152.395 80.6942 152.943 79.7903 153.317C78.8865 153.69 77.9179 153.881 76.94 153.88H76.95ZM42.2 153.88C40.7285 153.88 39.29 153.444 38.0665 152.626C36.843 151.809 35.8893 150.647 35.3262 149.287C34.7631 147.928 34.6158 146.432 34.9029 144.989C35.19 143.545 35.8985 142.22 36.939 141.179C37.9795 140.139 39.3054 139.43 40.7486 139.143C42.1918 138.856 43.6877 139.003 45.0472 139.566C46.4067 140.129 47.5685 141.083 48.386 142.307C49.2036 143.53 49.64 144.969 49.64 146.44C49.6386 147.418 49.4448 148.387 49.0692 149.29C48.6935 150.194 48.1437 151.014 47.451 151.705C46.7583 152.396 45.9362 152.944 45.0318 153.317C44.1274 153.69 43.1583 153.881 42.18 153.88H42.2ZM7.45001 153.88C5.97895 153.878 4.54158 153.44 3.3194 152.621C2.09721 151.803 1.14514 150.64 0.583556 149.28C0.0219729 147.921 -0.12408 146.425 0.164122 144.983C0.452325 143.54 1.1618 142.215 2.2027 141.176C3.2436 140.136 4.56932 139.429 6.01227 139.142C7.45521 138.856 8.95049 139.004 10.3094 139.567C11.6683 140.131 12.8297 141.084 13.6468 142.308C14.4639 143.531 14.9 144.969 14.9 146.44C14.8987 147.418 14.7048 148.387 14.3292 149.29C13.9536 150.194 13.4035 151.014 12.7108 151.705C12.018 152.396 11.1962 152.944 10.2918 153.317C9.38743 153.69 8.41835 153.881 7.44 153.88H7.45001ZM320.18 119.14C318.706 119.142 317.265 118.707 316.038 117.889C314.812 117.072 313.855 115.909 313.29 114.548C312.724 113.187 312.576 111.689 312.862 110.243C313.148 108.797 313.857 107.469 314.898 106.426C315.94 105.383 317.268 104.672 318.713 104.384C320.158 104.096 321.657 104.243 323.019 104.806C324.381 105.37 325.545 106.325 326.364 107.55C327.183 108.775 327.62 110.216 327.62 111.69C327.62 113.664 326.836 115.558 325.441 116.954C324.046 118.351 322.154 119.137 320.18 119.14ZM285.43 119.14C283.956 119.142 282.515 118.707 281.288 117.889C280.062 117.072 279.105 115.909 278.54 114.548C277.974 113.187 277.826 111.689 278.112 110.243C278.398 108.797 279.107 107.469 280.148 106.426C281.19 105.383 282.518 104.672 283.963 104.384C285.408 104.096 286.907 104.243 288.269 104.806C289.631 105.37 290.795 106.325 291.614 107.55C292.433 108.775 292.87 110.216 292.87 111.69C292.87 112.668 292.677 113.637 292.303 114.541C291.928 115.445 291.38 116.266 290.688 116.958C289.996 117.65 289.175 118.199 288.271 118.573C287.367 118.947 286.398 119.14 285.42 119.14H285.43ZM250.68 119.14C249.207 119.14 247.766 118.703 246.541 117.884C245.316 117.066 244.361 115.902 243.797 114.541C243.233 113.18 243.086 111.682 243.373 110.237C243.661 108.791 244.37 107.464 245.412 106.422C246.454 105.38 247.781 104.671 249.227 104.383C250.672 104.096 252.17 104.243 253.531 104.807C254.892 105.371 256.056 106.326 256.874 107.551C257.693 108.776 258.13 110.217 258.13 111.69C258.13 112.669 257.937 113.639 257.562 114.543C257.187 115.448 256.637 116.27 255.944 116.962C255.252 117.653 254.429 118.202 253.524 118.576C252.619 118.95 251.649 119.141 250.67 119.14H250.68ZM215.94 119.14C214.466 119.142 213.025 118.707 211.798 117.889C210.572 117.072 209.615 115.909 209.05 114.548C208.484 113.187 208.336 111.689 208.622 110.243C208.908 108.797 209.617 107.469 210.659 106.426C211.7 105.383 213.028 104.672 214.473 104.384C215.918 104.096 217.417 104.243 218.779 104.806C220.141 105.37 221.305 106.325 222.124 107.55C222.943 108.775 223.38 110.216 223.38 111.69C223.377 113.665 222.592 115.558 221.195 116.955C219.799 118.352 217.905 119.137 215.93 119.14H215.94ZM181.19 119.14C179.716 119.142 178.275 118.707 177.048 117.889C175.822 117.072 174.865 115.909 174.3 114.548C173.734 113.187 173.586 111.689 173.872 110.243C174.158 108.797 174.867 107.469 175.909 106.426C176.95 105.383 178.278 104.672 179.723 104.384C181.168 104.096 182.667 104.243 184.029 104.806C185.391 105.37 186.555 106.325 187.374 107.55C188.193 108.775 188.63 110.216 188.63 111.69C188.63 113.666 187.845 115.561 186.448 116.958C185.051 118.355 183.156 119.14 181.18 119.14H181.19ZM146.44 119.14C144.966 119.142 143.525 118.707 142.298 117.889C141.072 117.072 140.115 115.909 139.55 114.548C138.984 113.187 138.836 111.689 139.122 110.243C139.408 108.797 140.117 107.469 141.159 106.426C142.2 105.383 143.528 104.672 144.973 104.384C146.418 104.096 147.917 104.243 149.279 104.806C150.641 105.37 151.805 106.325 152.624 107.55C153.443 108.775 153.88 110.216 153.88 111.69C153.88 113.666 153.095 115.561 151.698 116.958C150.301 118.355 148.406 119.14 146.43 119.14H146.44ZM111.69 119.14C110.217 119.14 108.776 118.703 107.551 117.884C106.326 117.066 105.371 115.902 104.807 114.541C104.243 113.18 104.096 111.682 104.383 110.237C104.671 108.791 105.38 107.464 106.422 106.422C107.464 105.38 108.791 104.671 110.237 104.383C111.682 104.096 113.18 104.243 114.541 104.807C115.902 105.371 117.066 106.326 117.884 107.551C118.703 108.776 119.14 110.217 119.14 111.69C119.14 112.669 118.947 113.639 118.572 114.543C118.197 115.448 117.647 116.27 116.954 116.962C116.262 117.653 115.439 118.202 114.534 118.576C113.629 118.95 112.659 119.141 111.68 119.14H111.69ZM76.95 119.14C75.4761 119.142 74.0346 118.707 72.8082 117.889C71.5817 117.072 70.6253 115.909 70.0599 114.548C69.4945 113.187 69.3456 111.689 69.6319 110.243C69.9182 108.797 70.627 107.469 71.6685 106.426C72.71 105.383 74.0375 104.672 75.483 104.384C76.9284 104.096 78.4267 104.243 79.7886 104.806C81.1505 105.37 82.3148 106.325 83.1339 107.55C83.9529 108.775 84.39 110.216 84.39 111.69C84.39 113.666 83.605 115.561 82.2078 116.958C80.8107 118.355 78.9159 119.14 76.94 119.14H76.95ZM42.2 119.14C40.7261 119.142 39.2846 118.707 38.0582 117.889C36.8317 117.072 35.8753 115.909 35.3099 114.548C34.7445 113.187 34.5956 111.689 34.8819 110.243C35.1682 108.797 35.877 107.469 36.9185 106.426C37.96 105.383 39.2875 104.672 40.733 104.384C42.1784 104.096 43.6767 104.243 45.0386 104.806C46.4005 105.37 47.5648 106.325 48.3839 107.55C49.2029 108.775 49.64 110.216 49.64 111.69C49.64 112.669 49.4469 113.639 49.0718 114.543C48.6968 115.448 48.1473 116.27 47.4544 116.962C46.7616 117.653 45.939 118.202 45.034 118.576C44.129 118.95 43.1592 119.141 42.18 119.14H42.2ZM7.45001 119.14C5.97654 119.14 4.53624 118.703 3.31109 117.884C2.08595 117.066 1.13107 115.902 0.567198 114.541C0.00332552 113.18 -0.144334 111.682 0.143126 110.237C0.430586 108.791 1.14004 107.464 2.18194 106.422C3.22385 105.38 4.55148 104.671 5.99664 104.383C7.4418 104.096 8.93978 104.243 10.3011 104.807C11.6624 105.371 12.8257 106.326 13.6443 107.551C14.463 108.776 14.9 110.217 14.9 111.69C14.9 112.669 14.7069 113.639 14.3318 114.543C13.9568 115.448 13.4073 116.27 12.7144 116.962C12.0216 117.653 11.199 118.202 10.294 118.576C9.38898 118.95 8.41919 119.141 7.44 119.14H7.45001ZM320.18 84.3901C318.708 84.3901 317.27 83.9537 316.046 83.1362C314.823 82.3187 313.869 81.1567 313.306 79.7972C312.743 78.4377 312.596 76.9418 312.883 75.4986C313.17 74.0554 313.879 72.7297 314.919 71.6892C315.96 70.6487 317.285 69.9401 318.729 69.653C320.172 69.366 321.668 69.5133 323.027 70.0764C324.387 70.6395 325.549 71.5931 326.366 72.8166C327.184 74.0401 327.62 75.4785 327.62 76.95C327.617 78.9224 326.833 80.8133 325.438 82.208C324.043 83.6027 322.152 84.3875 320.18 84.3901ZM285.43 84.3901C283.958 84.3901 282.52 83.9537 281.296 83.1362C280.073 82.3187 279.119 81.1567 278.556 79.7972C277.993 78.4377 277.846 76.9418 278.133 75.4986C278.42 74.0554 279.129 72.7297 280.169 71.6892C281.21 70.6487 282.535 69.9401 283.979 69.653C285.422 69.366 286.918 69.5133 288.277 70.0764C289.637 70.6395 290.799 71.5931 291.616 72.8166C292.434 74.0401 292.87 75.4785 292.87 76.95C292.867 78.9242 292.081 80.8165 290.684 82.2115C289.288 83.6065 287.394 84.3901 285.42 84.3901H285.43ZM250.68 84.3901C249.209 84.3881 247.772 83.95 246.549 83.1313C245.327 82.3126 244.375 81.1499 243.814 79.7902C243.252 78.4306 243.106 76.935 243.394 75.4924C243.682 74.0498 244.392 72.7251 245.433 71.6856C246.474 70.6461 247.799 69.9386 249.242 69.6523C250.685 69.366 252.18 69.5139 253.539 70.0774C254.898 70.6408 256.06 71.5943 256.877 72.8176C257.694 74.0409 258.13 75.479 258.13 76.95C258.129 77.9284 257.935 78.8969 257.559 79.8003C257.184 80.7036 256.634 81.5242 255.941 82.215C255.248 82.9059 254.426 83.4536 253.522 83.8267C252.617 84.1999 251.648 84.3914 250.67 84.3901H250.68ZM215.94 84.3901C214.469 84.3901 213.03 83.9537 211.806 83.1362C210.583 82.3187 209.629 81.1567 209.066 79.7972C208.503 78.4377 208.356 76.9418 208.643 75.4986C208.93 74.0554 209.639 72.7297 210.679 71.6892C211.72 70.6487 213.045 69.9401 214.489 69.653C215.932 69.366 217.428 69.5133 218.787 70.0764C220.147 70.6395 221.309 71.5931 222.126 72.8166C222.944 74.0401 223.38 75.4785 223.38 76.95C223.377 78.9242 222.591 80.8165 221.194 82.2115C219.798 83.6065 217.904 84.3901 215.93 84.3901H215.94ZM181.19 84.3901C179.719 84.3901 178.28 83.9537 177.056 83.1362C175.833 82.3187 174.879 81.1567 174.316 79.7972C173.753 78.4377 173.606 76.9418 173.893 75.4986C174.18 74.0554 174.889 72.7297 175.929 71.6892C176.97 70.6487 178.295 69.9401 179.739 69.653C181.182 69.366 182.678 69.5133 184.037 70.0764C185.397 70.6395 186.559 71.5931 187.376 72.8166C188.194 74.0401 188.63 75.4785 188.63 76.95C188.627 78.9242 187.841 80.8165 186.444 82.2115C185.048 83.6065 183.154 84.3901 181.18 84.3901H181.19ZM146.44 84.3901C144.969 84.3901 143.53 83.9537 142.306 83.1362C141.083 82.3187 140.129 81.1567 139.566 79.7972C139.003 78.4377 138.856 76.9418 139.143 75.4986C139.43 74.0554 140.139 72.7297 141.179 71.6892C142.22 70.6487 143.545 69.9401 144.989 69.653C146.432 69.366 147.928 69.5133 149.287 70.0764C150.647 70.6395 151.809 71.5931 152.626 72.8166C153.444 74.0401 153.88 75.4785 153.88 76.95C153.877 78.9242 153.091 80.8165 151.694 82.2115C150.298 83.6065 148.404 84.3901 146.43 84.3901H146.44ZM111.69 84.3901C110.219 84.3881 108.782 83.95 107.559 83.1313C106.337 82.3126 105.385 81.1499 104.824 79.7902C104.262 78.4306 104.116 76.935 104.404 75.4924C104.692 74.0498 105.402 72.7251 106.443 71.6856C107.484 70.6461 108.809 69.9386 110.252 69.6523C111.695 69.366 113.19 69.5139 114.549 70.0774C115.908 70.6408 117.07 71.5943 117.887 72.8176C118.704 74.0409 119.14 75.479 119.14 76.95C119.139 77.9284 118.945 78.8969 118.569 79.8003C118.194 80.7036 117.644 81.5242 116.951 82.215C116.258 82.9059 115.436 83.4536 114.532 83.8267C113.627 84.1999 112.658 84.3914 111.68 84.3901H111.69ZM76.95 84.3901C75.4785 84.3901 74.04 83.9537 72.8165 83.1362C71.593 82.3187 70.6393 81.1567 70.0762 79.7972C69.5131 78.4377 69.3658 76.9418 69.6529 75.4986C69.94 74.0554 70.6485 72.7297 71.689 71.6892C72.7295 70.6487 74.0554 69.9401 75.4986 69.653C76.9418 69.366 78.4377 69.5133 79.7972 70.0764C81.1567 70.6395 82.3185 71.5931 83.136 72.8166C83.9536 74.0401 84.39 75.4785 84.39 76.95C84.3873 78.9242 83.6013 80.8165 82.2044 82.2115C80.8075 83.6065 78.9141 84.3901 76.94 84.3901H76.95ZM42.2 84.3901C40.7285 84.3901 39.29 83.9537 38.0665 83.1362C36.843 82.3187 35.8893 81.1567 35.3262 79.7972C34.7631 78.4377 34.6158 76.9418 34.9029 75.4986C35.19 74.0554 35.8985 72.7297 36.939 71.6892C37.9795 70.6487 39.3054 69.9401 40.7486 69.653C42.1918 69.366 43.6877 69.5133 45.0472 70.0764C46.4067 70.6395 47.5685 71.5931 48.386 72.8166C49.2036 74.0401 49.64 75.4785 49.64 76.95C49.6386 77.9284 49.4448 78.8969 49.0692 79.8003C48.6935 80.7036 48.1437 81.5242 47.451 82.215C46.7583 82.9059 45.9362 83.4536 45.0318 83.8267C44.1274 84.1999 43.1583 84.3914 42.18 84.3901H42.2ZM7.45001 84.3901C5.97895 84.3881 4.54158 83.95 3.3194 83.1313C2.09721 82.3126 1.14514 81.1499 0.583556 79.7902C0.0219729 78.4306 -0.12408 76.935 0.164122 75.4924C0.452325 74.0498 1.1618 72.7251 2.2027 71.6856C3.2436 70.6461 4.56932 69.9386 6.01227 69.6523C7.45521 69.366 8.95049 69.5139 10.3094 70.0774C11.6683 70.6408 12.8297 71.5943 13.6468 72.8176C14.4639 74.0409 14.9 75.479 14.9 76.95C14.8987 77.9284 14.7048 78.8969 14.3292 79.8003C13.9536 80.7036 13.4035 81.5242 12.7108 82.215C12.018 82.9059 11.1962 83.4536 10.2918 83.8267C9.38743 84.1999 8.41835 84.3914 7.44 84.3901H7.45001ZM320.18 49.6401C318.708 49.6401 317.27 49.2037 316.046 48.3862C314.823 47.5687 313.869 46.4067 313.306 45.0472C312.743 43.6877 312.596 42.1918 312.883 40.7486C313.17 39.3054 313.879 37.9797 314.919 36.9392C315.96 35.8987 317.285 35.1901 318.729 34.903C320.172 34.616 321.668 34.7633 323.027 35.3264C324.387 35.8895 325.549 36.8431 326.366 38.0666C327.184 39.2901 327.62 40.7285 327.62 42.2C327.617 44.1724 326.833 46.0633 325.438 47.458C324.043 48.8527 322.152 49.6375 320.18 49.6401ZM285.43 49.6401C283.958 49.6401 282.52 49.2037 281.296 48.3862C280.073 47.5687 279.119 46.4067 278.556 45.0472C277.993 43.6877 277.846 42.1918 278.133 40.7486C278.42 39.3054 279.129 37.9797 280.169 36.9392C281.21 35.8987 282.535 35.1901 283.979 34.903C285.422 34.616 286.918 34.7633 288.277 35.3264C289.637 35.8895 290.799 36.8431 291.616 38.0666C292.434 39.2901 292.87 40.7285 292.87 42.2C292.867 44.1742 292.081 46.0665 290.684 47.4615C289.288 48.8565 287.394 49.6401 285.42 49.6401H285.43ZM250.68 49.6401C249.209 49.6381 247.772 49.2 246.549 48.3813C245.327 47.5626 244.375 46.3999 243.814 45.0402C243.252 43.6806 243.106 42.185 243.394 40.7424C243.682 39.2998 244.392 37.9751 245.433 36.9356C246.474 35.8961 247.799 35.1886 249.242 34.9023C250.685 34.616 252.18 34.7639 253.539 35.3274C254.898 35.8908 256.06 36.8443 256.877 38.0676C257.694 39.2909 258.13 40.729 258.13 42.2C258.129 43.1784 257.935 44.1469 257.559 45.0503C257.184 45.9536 256.634 46.7742 255.941 47.4651C255.248 48.1559 254.426 48.7036 253.522 49.0767C252.617 49.4499 251.648 49.6414 250.67 49.6401H250.68ZM215.94 49.6401C214.469 49.6401 213.03 49.2037 211.806 48.3862C210.583 47.5687 209.629 46.4067 209.066 45.0472C208.503 43.6877 208.356 42.1918 208.643 40.7486C208.93 39.3054 209.639 37.9797 210.679 36.9392C211.72 35.8987 213.045 35.1901 214.489 34.903C215.932 34.616 217.428 34.7633 218.787 35.3264C220.147 35.8895 221.309 36.8431 222.126 38.0666C222.944 39.2901 223.38 40.7285 223.38 42.2C223.377 44.1742 222.591 46.0665 221.194 47.4615C219.798 48.8565 217.904 49.6401 215.93 49.6401H215.94ZM181.19 49.6401C179.719 49.6401 178.28 49.2037 177.056 48.3862C175.833 47.5687 174.879 46.4067 174.316 45.0472C173.753 43.6877 173.606 42.1918 173.893 40.7486C174.18 39.3054 174.889 37.9797 175.929 36.9392C176.97 35.8987 178.295 35.1901 179.739 34.903C181.182 34.616 182.678 34.7633 184.037 35.3264C185.397 35.8895 186.559 36.8431 187.376 38.0666C188.194 39.2901 188.63 40.7285 188.63 42.2C188.627 44.1742 187.841 46.0665 186.444 47.4615C185.048 48.8565 183.154 49.6401 181.18 49.6401H181.19ZM146.44 49.6401C144.969 49.6401 143.53 49.2037 142.306 48.3862C141.083 47.5687 140.129 46.4067 139.566 45.0472C139.003 43.6877 138.856 42.1918 139.143 40.7486C139.43 39.3054 140.139 37.9797 141.179 36.9392C142.22 35.8987 143.545 35.1901 144.989 34.903C146.432 34.616 147.928 34.7633 149.287 35.3264C150.647 35.8895 151.809 36.8431 152.626 38.0666C153.444 39.2901 153.88 40.7285 153.88 42.2C153.877 44.1742 153.091 46.0665 151.694 47.4615C150.298 48.8565 148.404 49.6401 146.43 49.6401H146.44ZM111.69 49.6401C110.219 49.6381 108.782 49.2 107.559 48.3813C106.337 47.5626 105.385 46.3999 104.824 45.0402C104.262 43.6806 104.116 42.185 104.404 40.7424C104.692 39.2998 105.402 37.9751 106.443 36.9356C107.484 35.8961 108.809 35.1886 110.252 34.9023C111.695 34.616 113.19 34.7639 114.549 35.3274C115.908 35.8908 117.07 36.8443 117.887 38.0676C118.704 39.2909 119.14 40.729 119.14 42.2C119.139 43.1784 118.945 44.1469 118.569 45.0503C118.194 45.9536 117.644 46.7742 116.951 47.4651C116.258 48.1559 115.436 48.7036 114.532 49.0767C113.627 49.4499 112.658 49.6414 111.68 49.6401H111.69ZM76.95 49.6401C75.4785 49.6401 74.04 49.2037 72.8165 48.3862C71.593 47.5687 70.6393 46.4067 70.0762 45.0472C69.5131 43.6877 69.3658 42.1918 69.6529 40.7486C69.94 39.3054 70.6485 37.9797 71.689 36.9392C72.7295 35.8987 74.0554 35.1901 75.4986 34.903C76.9418 34.616 78.4377 34.7633 79.7972 35.3264C81.1567 35.8895 82.3185 36.8431 83.136 38.0666C83.9536 39.2901 84.39 40.7285 84.39 42.2C84.3873 44.1742 83.6013 46.0665 82.2044 47.4615C80.8075 48.8565 78.9141 49.6401 76.94 49.6401H76.95ZM42.2 49.6401C40.7285 49.6401 39.29 49.2037 38.0665 48.3862C36.843 47.5687 35.8893 46.4067 35.3262 45.0472C34.7631 43.6877 34.6158 42.1918 34.9029 40.7486C35.19 39.3054 35.8985 37.9797 36.939 36.9392C37.9795 35.8987 39.3054 35.1901 40.7486 34.903C42.1918 34.616 43.6877 34.7633 45.0472 35.3264C46.4067 35.8895 47.5685 36.8431 48.386 38.0666C49.2036 39.2901 49.64 40.7285 49.64 42.2C49.6386 43.1784 49.4448 44.1469 49.0692 45.0503C48.6935 45.9536 48.1437 46.7742 47.451 47.4651C46.7583 48.1559 45.9362 48.7036 45.0318 49.0767C44.1274 49.4499 43.1583 49.6414 42.18 49.6401H42.2ZM7.45001 49.6401C5.97895 49.6381 4.54158 49.2 3.3194 48.3813C2.09721 47.5626 1.14514 46.3999 0.583556 45.0402C0.0219729 43.6806 -0.12408 42.185 0.164122 40.7424C0.452325 39.2998 1.1618 37.9751 2.2027 36.9356C3.2436 35.8961 4.56932 35.1886 6.01227 34.9023C7.45521 34.616 8.95049 34.7639 10.3094 35.3274C11.6683 35.8908 12.8297 36.8443 13.6468 38.0676C14.4639 39.2909 14.9 40.729 14.9 42.2C14.8987 43.1784 14.7048 44.1469 14.3292 45.0503C13.9536 45.9536 13.4035 46.7742 12.7108 47.4651C12.018 48.1559 11.1962 48.7036 10.2918 49.0767C9.38743 49.4499 8.41835 49.6414 7.44 49.6401H7.45001ZM320.18 14.9C318.706 14.902 317.265 14.4668 316.038 13.6494C314.812 12.832 313.855 11.6691 313.29 10.3079C312.724 8.94681 312.576 7.44859 312.862 6.00277C313.148 4.55695 313.857 3.22853 314.898 2.18563C315.94 1.14273 317.268 0.432156 318.713 0.143885C320.158 -0.144387 321.657 0.00267029 323.019 0.566248C324.381 1.12983 325.545 2.08466 326.364 3.31002C327.183 4.53538 327.62 5.97614 327.62 7.45004C327.62 9.42417 326.836 11.3176 325.441 12.7144C324.046 14.1113 322.154 14.8973 320.18 14.9ZM285.43 14.9C283.956 14.902 282.515 14.4668 281.288 13.6494C280.062 12.832 279.105 11.6691 278.54 10.3079C277.974 8.94681 277.826 7.44859 278.112 6.00277C278.398 4.55695 279.107 3.22853 280.148 2.18563C281.19 1.14273 282.518 0.432156 283.963 0.143885C285.408 -0.144387 286.907 0.00267029 288.269 0.566248C289.631 1.12983 290.795 2.08466 291.614 3.31002C292.433 4.53538 292.87 5.97614 292.87 7.45004C292.87 8.42838 292.677 9.39711 292.303 10.301C291.928 11.2049 291.38 12.0262 290.688 12.718C289.996 13.4098 289.175 13.9586 288.271 14.333C287.367 14.7074 286.398 14.9 285.42 14.9H285.43ZM250.68 14.9C249.207 14.9 247.766 14.4631 246.541 13.6445C245.316 12.8259 244.361 11.6623 243.797 10.301C243.233 8.93968 243.086 7.44183 243.373 5.99667C243.661 4.55151 244.37 3.22399 245.412 2.18209C246.454 1.14019 247.781 0.430612 249.227 0.143152C250.672 -0.144307 252.17 0.00322974 253.531 0.567103C254.892 1.13098 256.056 2.08585 256.874 3.311C257.693 4.53615 258.13 5.97657 258.13 7.45004C258.13 8.42923 257.937 9.39878 257.562 10.3033C257.187 11.2078 256.637 12.0296 255.944 12.7215C255.252 13.4134 254.429 13.962 253.524 14.3358C252.619 14.7096 251.649 14.9013 250.67 14.9H250.68ZM215.94 14.9C214.466 14.902 213.025 14.4668 211.798 13.6494C210.572 12.832 209.615 11.6691 209.05 10.3079C208.484 8.94681 208.336 7.44859 208.622 6.00277C208.908 4.55695 209.617 3.22853 210.659 2.18563C211.7 1.14273 213.028 0.432156 214.473 0.143885C215.918 -0.144387 217.417 0.00267029 218.779 0.566248C220.141 1.12983 221.305 2.08466 222.124 3.31002C222.943 4.53538 223.38 5.97614 223.38 7.45004C223.377 9.42509 222.592 11.3185 221.195 12.7151C219.799 14.1116 217.905 14.8973 215.93 14.9H215.94ZM181.19 14.9C179.716 14.902 178.275 14.4668 177.048 13.6494C175.822 12.832 174.865 11.6691 174.3 10.3079C173.734 8.94681 173.586 7.44859 173.872 6.00277C174.158 4.55695 174.867 3.22853 175.909 2.18563C176.95 1.14273 178.278 0.432156 179.723 0.143885C181.168 -0.144387 182.667 0.00267029 184.029 0.566248C185.391 1.12983 186.555 2.08466 187.374 3.31002C188.193 4.53538 188.63 5.97614 188.63 7.45004C188.63 9.4259 187.845 11.3208 186.448 12.718C185.051 14.1151 183.156 14.9 181.18 14.9H181.19ZM146.44 14.9C144.966 14.902 143.525 14.4668 142.298 13.6494C141.072 12.832 140.115 11.6691 139.55 10.3079C138.984 8.94681 138.836 7.44859 139.122 6.00277C139.408 4.55695 140.117 3.22853 141.159 2.18563C142.2 1.14273 143.528 0.432156 144.973 0.143885C146.418 -0.144387 147.917 0.00267029 149.279 0.566248C150.641 1.12983 151.805 2.08466 152.624 3.31002C153.443 4.53538 153.88 5.97614 153.88 7.45004C153.88 9.4259 153.095 11.3208 151.698 12.718C150.301 14.1151 148.406 14.9 146.43 14.9H146.44ZM111.69 14.9C110.217 14.9 108.776 14.4631 107.551 13.6445C106.326 12.8259 105.371 11.6623 104.807 10.301C104.243 8.93968 104.096 7.44183 104.383 5.99667C104.671 4.55151 105.38 3.22399 106.422 2.18209C107.464 1.14019 108.791 0.430612 110.237 0.143152C111.682 -0.144307 113.18 0.00322974 114.541 0.567103C115.902 1.13098 117.066 2.08585 117.884 3.311C118.703 4.53615 119.14 5.97657 119.14 7.45004C119.14 8.42923 118.947 9.39878 118.572 10.3033C118.197 11.2078 117.647 12.0296 116.954 12.7215C116.262 13.4134 115.439 13.962 114.534 14.3358C113.629 14.7096 112.659 14.9013 111.68 14.9H111.69ZM76.95 14.9C75.4761 14.902 74.0346 14.4668 72.8082 13.6494C71.5817 12.832 70.6253 11.6691 70.0599 10.3079C69.4945 8.94681 69.3456 7.44859 69.6319 6.00277C69.9182 4.55695 70.627 3.22853 71.6685 2.18563C72.71 1.14273 74.0375 0.432156 75.483 0.143885C76.9284 -0.144387 78.4267 0.00267029 79.7886 0.566248C81.1505 1.12983 82.3148 2.08466 83.1339 3.31002C83.9529 4.53538 84.39 5.97614 84.39 7.45004C84.39 9.4259 83.605 11.3208 82.2078 12.718C80.8107 14.1151 78.9159 14.9 76.94 14.9H76.95ZM42.2 14.9C40.7261 14.902 39.2846 14.4668 38.0582 13.6494C36.8317 12.832 35.8753 11.6691 35.3099 10.3079C34.7445 8.94681 34.5956 7.44859 34.8819 6.00277C35.1682 4.55695 35.877 3.22853 36.9185 2.18563C37.96 1.14273 39.2875 0.432156 40.733 0.143885C42.1784 -0.144387 43.6767 0.00267029 45.0386 0.566248C46.4005 1.12983 47.5648 2.08466 48.3839 3.31002C49.2029 4.53538 49.64 5.97614 49.64 7.45004C49.64 8.42923 49.4469 9.39878 49.0718 10.3033C48.6968 11.2078 48.1473 12.0296 47.4544 12.7215C46.7616 13.4134 45.939 13.962 45.034 14.3358C44.129 14.7096 43.1592 14.9013 42.18 14.9H42.2ZM7.45001 14.9C5.97654 14.9 4.53624 14.4631 3.31109 13.6445C2.08595 12.8259 1.13107 11.6623 0.567198 10.301C0.00332552 8.93968 -0.144334 7.44183 0.143126 5.99667C0.430586 4.55151 1.14004 3.22399 2.18194 2.18209C3.22385 1.14019 4.55148 0.430612 5.99664 0.143152C7.4418 -0.144307 8.93978 0.00322974 10.3011 0.567103C11.6624 1.13098 12.8257 2.08585 13.6443 3.311C14.463 4.53615 14.9 5.97657 14.9 7.45004C14.9 8.42923 14.7069 9.39878 14.3318 10.3033C13.9568 11.2078 13.4073 12.0296 12.7144 12.7215C12.0216 13.4134 11.199 13.962 10.294 14.3358C9.38898 14.7096 8.41919 14.9013 7.44 14.9H7.45001Z" fill="#FFDB43"/>
</svg>
