<svg width="116" height="57" viewBox="0 0 116 57" fill="none" xmlns="http://www.w3.org/2000/svg">
<path d="M108.04 23.4635C110.108 23.6882 113.044 23.2744 114.397 27.2515C115.751 31.2286 114.837 38.2763 111.534 40.061C109.467 41.1771 106.054 40.2564 105.677 39.9575M108.582 28.8594C109.512 25.4031 107.785 17.0881 93.4448 11.4797C79.1047 5.87125 75.9429 12.4609 76.1547 16.4567C76.2704 16.9069 76.4927 17.4741 76.8411 18.1101M76.8411 18.1101C78.1727 20.5406 81.3446 23.9748 87.4371 25.7171M76.8411 18.1101C74.9396 18.9282 71.702 21.5532 73.9621 25.5084C74.1649 25.8634 74.3771 26.2019 74.5979 26.5242M74.5979 26.5242C77.4517 30.6922 81.7602 32.1548 86.4131 31.3526M74.5979 26.5242C72.7601 28.4228 70.4207 33.1943 74.5367 36.2365C74.9921 36.5735 75.4465 36.875 75.899 37.1416M75.899 37.1416C74.6996 39.1563 73.7597 43.4808 79.597 44.6628C83.8172 45.5171 87.6729 44.2935 89.0533 42.1729M75.899 37.1416C79.8602 39.4773 83.7061 39.1623 87.3083 36.5627M87.3083 36.5627C87.5122 36.4156 87.715 36.2615 87.917 36.0999L87.3083 36.5627ZM87.3083 36.5627C89.7506 38.6046 90.0596 40.6272 89.0533 42.1729M89.0533 42.1729C91.0277 43.3151 95.9461 45.2286 99.8276 43.7462C104.679 41.893 106.325 40.6682 107.401 34.8982M86.5566 13.5585C88.3012 14.4832 91.9462 16.7325 92.571 18.3314M94.8984 17.058C92.7595 17.9141 88.2291 21.1985 87.2159 27.487C85.9497 35.3475 88.8362 36.7607 89.9522 36.8784C90.9946 36.9886 95.53 38.2994 97.9366 28.574M97.9366 28.574C98.1056 27.8916 98.2637 27.1549 98.4097 26.3597L97.9366 28.574ZM97.9366 28.574C97.0974 31.529 101.204 33.1976 103.362 33.6622" stroke="white" stroke-width="1.5" stroke-linecap="round" stroke-linejoin="round"/>
<path d="M7.96044 23.4635C5.89179 23.6882 2.95572 23.2744 1.60277 27.2515C0.249456 31.2286 1.16269 38.2763 4.46638 40.061C6.53315 41.1771 9.94574 40.2564 10.3231 39.9575M7.41784 28.8594C6.48847 25.4031 8.21504 17.0881 22.5552 11.4797C36.8953 5.87125 40.0571 12.4609 39.8453 16.4567C39.7296 16.9069 39.5073 17.4741 39.1589 18.1101M39.1589 18.1101C37.8273 20.5406 34.6554 23.9748 28.5629 25.7171M39.1589 18.1101C41.0604 18.9282 44.298 21.5532 42.0379 25.5084C41.8351 25.8634 41.6229 26.2019 41.4021 26.5242M41.4021 26.5242C38.5483 30.6922 34.2398 32.1548 29.5869 31.3526M41.4021 26.5242C43.2399 28.4228 45.5793 33.1943 41.4633 36.2365C41.0079 36.5735 40.5535 36.875 40.101 37.1416M40.101 37.1416C41.3004 39.1563 42.2403 43.4808 36.403 44.6628C32.1828 45.5171 28.3271 44.2935 26.9467 42.1729M40.101 37.1416C36.1398 39.4773 32.2939 39.1623 28.6917 36.5627M28.6917 36.5627C28.4878 36.4156 28.285 36.2615 28.083 36.0999L28.6917 36.5627ZM28.6917 36.5627C26.2494 38.6046 25.9404 40.6272 26.9467 42.1729M26.9467 42.1729C24.9723 43.3151 20.0539 45.2286 16.1724 43.7462C11.3208 41.893 9.675 40.6682 8.5988 34.8982M29.4434 13.5585C27.6988 14.4832 24.0538 16.7325 23.429 18.3314M21.1016 17.058C23.2405 17.9141 27.7709 21.1985 28.7841 27.487C30.0503 35.3475 27.1638 36.7607 26.0478 36.8784C25.0054 36.9886 20.47 38.2994 18.0634 28.574M18.0634 28.574C17.8944 27.8916 17.7363 27.1549 17.5903 26.3597L18.0634 28.574ZM18.0634 28.574C18.9026 31.529 14.7961 33.1976 12.6381 33.6622" stroke="white" stroke-width="1.5" stroke-linecap="round" stroke-linejoin="round"/>
<path d="M67.7047 46.8319C67.4392 46.5139 66.9662 46.4713 66.6483 46.7368C66.3303 47.0022 66.2877 47.4752 66.5532 47.7931L67.7047 46.8319ZM72.8618 55.35C73.1272 55.6679 73.6002 55.7105 73.9181 55.4451C74.2361 55.1796 74.2787 54.7066 74.0132 54.3887L72.8618 55.35ZM60.0643 49.7584C60.1631 49.3561 59.917 48.95 59.5148 48.8512C59.1125 48.7524 58.7063 48.9984 58.6076 49.4007L60.0643 49.7584ZM57.1232 55.4462C57.0244 55.8484 57.2705 56.2546 57.6727 56.3534C58.075 56.4521 58.4812 56.2061 58.5799 55.8038L57.1232 55.4462ZM51.6786 47.8654C51.984 47.5856 52.0047 47.1112 51.7248 46.8058C51.445 46.5004 50.9706 46.4797 50.6652 46.7596L51.6786 47.8654ZM43.2433 53.5607C42.9379 53.8405 42.9172 54.315 43.1971 54.6203C43.4769 54.9257 43.9513 54.9464 44.2567 54.6666L43.2433 53.5607ZM66.5532 47.7931L72.8618 55.35L74.0132 54.3887L67.7047 46.8319L66.5532 47.7931ZM58.6076 49.4007L57.1232 55.4462L58.5799 55.8038L60.0643 49.7584L58.6076 49.4007ZM50.6652 46.7596L43.2433 53.5607L44.2567 54.6666L51.6786 47.8654L50.6652 46.7596Z" fill="white"/>
<path d="M49.4829 9.79314C49.7483 10.1111 50.2213 10.1537 50.5392 9.88824C50.8572 9.62279 50.8998 9.14983 50.6343 8.83186L49.4829 9.79314ZM44.3257 1.27504C44.0603 0.957063 43.5873 0.914485 43.2694 1.17994C42.9514 1.44539 42.9088 1.91835 43.1743 2.23633L44.3257 1.27504ZM57.1232 6.86661C57.0244 7.26888 57.2705 7.67505 57.6727 7.77382C58.075 7.87259 58.4812 7.62656 58.5799 7.22429L57.1232 6.86661ZM60.0643 1.17884C60.1631 0.776575 59.917 0.370405 59.5148 0.271634C59.1125 0.172864 58.7063 0.418895 58.6076 0.82116L60.0643 1.17884ZM65.5089 8.75955C65.2035 9.0394 65.1828 9.51382 65.4627 9.8192C65.7425 10.1246 66.2169 10.1453 66.5223 9.86545L65.5089 8.75955ZM73.9442 3.06431C74.2496 2.78447 74.2703 2.31005 73.9905 2.00466C73.7106 1.69928 73.2362 1.67857 72.9308 1.95841L73.9442 3.06431ZM50.6343 8.83186L44.3257 1.27504L43.1743 2.23633L49.4829 9.79314L50.6343 8.83186ZM58.5799 7.22429L60.0643 1.17884L58.6076 0.82116L57.1232 6.86661L58.5799 7.22429ZM66.5223 9.86545L73.9442 3.06431L72.9308 1.95841L65.5089 8.75955L66.5223 9.86545Z" fill="white"/>
</svg>
