<svg width="649" height="505" viewBox="0 0 649 505" fill="none" xmlns="http://www.w3.org/2000/svg">
<path d="M648.237 381.832C648.237 381.832 648.237 381.685 648.237 381.601C648.237 381.517 648.237 381.602 648.237 381.434L548.544 79.5711C548.494 79.4916 548.452 79.4072 548.418 79.3192C548.19 78.6795 547.879 78.0725 547.492 77.5138C547.496 77.4579 547.496 77.4019 547.492 77.346C547.067 76.7888 546.571 76.2877 546.019 75.8553L545.598 75.5406C545.035 75.143 544.428 74.8117 543.789 74.5537V74.5537C543.11 74.3188 542.402 74.1777 541.685 74.134C541.608 74.1245 541.53 74.1245 541.453 74.134L225.837 60.0055C225.238 59.9839 224.639 60.0259 224.049 60.1314L223.418 60.2995C223.043 60.3866 222.677 60.5059 222.324 60.6562L221.692 60.9291C221.35 61.1192 221.02 61.3296 220.703 61.559L220.198 61.9157C219.814 62.2605 219.456 62.6324 219.125 63.0284L218.957 63.2176L17.4464 334.031C17.0849 334.512 16.7814 335.033 16.5417 335.584C16.4832 335.728 16.4339 335.875 16.3943 336.025C16.2296 336.44 16.103 336.868 16.0157 337.306C16.0157 337.516 16.0157 337.705 16.0157 337.894C15.9948 338.306 15.9948 338.719 16.0157 339.132C16.0157 339.321 16.0157 339.531 16.0157 339.72C16.0642 340.196 16.1555 340.667 16.289 341.126C16.2771 341.224 16.2771 341.323 16.289 341.42L66.1357 492.362C66.1357 492.362 66.2405 492.551 66.2826 492.635C66.3247 492.719 66.4091 493.097 66.5143 493.328C66.6494 493.546 66.7969 493.756 66.9561 493.957C67.1348 494.281 67.339 494.59 67.5663 494.881C67.8354 495.219 68.1385 495.529 68.471 495.805C68.7445 496.057 68.9973 496.267 69.2708 496.477C69.6451 496.719 70.0388 496.93 70.4487 497.106C70.7404 497.261 71.0431 497.394 71.3538 497.505C71.8262 497.654 72.3127 497.752 72.8056 497.799C73.058 497.799 73.2686 497.925 73.5211 497.946L231.329 505H231.687C232.397 505.002 233.105 504.91 233.791 504.727H233.938L643.082 391.972C643.5 391.842 643.908 391.681 644.302 391.489H644.555C645.085 391.22 645.585 390.896 646.048 390.524L646.28 390.293C646.641 389.981 646.972 389.637 647.269 389.264L647.395 389.138C647.466 389.038 647.529 388.933 647.584 388.823C647.827 388.472 648.039 388.099 648.216 387.711C648.321 387.539 648.406 387.356 648.468 387.165C648.626 386.755 648.753 386.334 648.847 385.905C648.847 385.737 648.847 385.59 648.952 385.443C649.016 384.843 649.016 384.238 648.952 383.638C648.962 383.575 648.962 383.511 648.952 383.449C648.775 382.885 648.535 382.343 648.237 381.832V381.832Z" fill="#FFDB43"/>
<path d="M631.469 327.691C631.636 327.276 631.763 326.846 631.847 326.407C631.895 326.256 631.93 326.101 631.952 325.944C632.016 325.343 632.016 324.737 631.952 324.135C631.952 324.135 631.952 324.009 631.952 323.946C631.899 323.478 631.814 323.014 631.7 322.557C631.703 322.487 631.703 322.417 631.7 322.346C631.7 322.346 631.7 322.22 631.7 322.178L532.079 19.6194C532.041 19.5331 531.999 19.4489 531.953 19.3669C531.717 18.7295 531.406 18.1222 531.028 17.5575C531.024 17.5014 531.024 17.4453 531.028 17.3892C530.603 16.8308 530.108 16.3289 529.556 15.8955L529.136 15.6009C528.586 15.1825 527.977 14.8492 527.328 14.612C526.649 14.3754 525.943 14.2268 525.226 14.17H524.974L209.65 0.00998463C209.052 -0.021355 208.452 0.0211666 207.864 0.136349L207.233 0.283518C206.869 0.38056 206.511 0.500108 206.161 0.641295C205.943 0.722638 205.732 0.821165 205.53 0.935889C205.177 1.11852 204.84 1.32946 204.521 1.56694L204.038 1.92472C203.639 2.24656 203.279 2.61377 202.966 3.01885L202.776 3.20814L1.45293 274.627C1.10709 275.115 0.811457 275.637 0.570188 276.184C0.505149 276.335 0.448831 276.49 0.401852 276.647C0.244021 277.065 0.117684 277.494 0.0236075 277.93C0.0119582 278.127 0.0119582 278.323 0.0236075 278.52C-0.00786917 278.926 -0.00786917 279.334 0.0236075 279.74C0.0131147 279.943 0.0131147 280.147 0.0236075 280.35C0.0740467 280.82 0.165756 281.285 0.297154 281.739C0.30703 281.844 0.30703 281.95 0.297154 282.055L50.0971 433.334C50.0971 433.334 50.2023 433.502 50.2444 433.607C50.3156 433.836 50.3996 434.061 50.4964 434.281C50.6242 434.506 50.7644 434.723 50.9167 434.933C51.1001 435.259 51.3112 435.569 51.5474 435.859C52.0543 436.439 52.6177 436.968 53.2293 437.437C53.6053 437.682 53.9989 437.9 54.4066 438.089C54.7076 438.239 55.0162 438.372 55.3314 438.489C55.8074 438.621 56.292 438.719 56.7818 438.783C57.0107 438.837 57.2424 438.879 57.4757 438.909L215.137 446H215.515C216.225 445.998 216.931 445.906 217.618 445.726H217.765L626.508 332.74C626.931 332.605 627.345 332.443 627.748 332.257H627.979C628.516 331.999 629.017 331.674 629.472 331.289L629.703 331.057C630.058 330.747 630.389 330.409 630.691 330.047C630.691 330.047 630.796 330.047 630.817 329.9C630.892 329.803 630.956 329.697 631.006 329.584C631.255 329.24 631.474 328.874 631.658 328.49C631.322 327.985 631.406 327.985 631.469 327.691ZM220.477 427.8L201.683 370.76L310.344 318.791L572.23 330.552L220.477 427.8ZM206.245 25.4897L264.748 203.175L162.856 278.183L23.3998 271.871L206.245 25.4897ZM270.108 219.46L298.698 306.293L196.617 355.148L175.007 289.524L270.108 219.46ZM314.653 302.674L283.899 209.297L520.076 35.3996L612.571 316.055L314.653 302.674ZM500.904 29.277L278.601 193.012L220.477 16.5897L500.904 29.277ZM159.388 294.384L181.734 362.26L62.3733 419.342L19.1745 288.009L159.388 294.384ZM90.3952 424.013L186.884 377.872L203.702 429.105L90.3952 424.013Z" fill="#0F0F0F"/>
</svg>
