<svg width="87" height="76" viewBox="0 0 87 76" fill="none" xmlns="http://www.w3.org/2000/svg">
<path d="M20.0867 73.6C20.4287 74.1885 20.919 74.6771 21.5084 75.0175C22.0979 75.3578 22.7661 75.538 23.4468 75.54H62.5867C63.2662 75.5392 63.9337 75.3595 64.5217 75.019C65.1098 74.6784 65.5979 74.189 65.9368 73.6L85.5067 39.71C85.8453 39.1195 86.0234 38.4507 86.0234 37.77C86.0234 37.0893 85.8453 36.4205 85.5067 35.83L65.9368 1.94C65.5979 1.35098 65.1098 0.86158 64.5217 0.521027C63.9337 0.180473 63.2662 0.000772896 62.5867 0H23.4468C22.7661 0.00204475 22.0979 0.182198 21.5084 0.522537C20.919 0.862876 20.4287 1.35155 20.0867 1.94L0.516724 35.83C0.178128 36.4205 0 37.0893 0 37.77C0 38.4507 0.178128 39.1195 0.516724 39.71L20.0867 73.6ZM25.6868 7.75H60.3467L77.6768 37.75L60.3467 67.75H25.6467L8.30676 37.75L25.6868 7.75Z" fill="#111111"/>
</svg>
