<svg width="113" height="34" viewBox="0 0 113 34" fill="none" xmlns="http://www.w3.org/2000/svg">
<path d="M100.204 27.5071C102.887 27.4989 106.251 26.7438 108.905 25.8525L107.318 32.7422C103.988 33.4107 100.249 33.9816 95.8566 33.9996C82.1299 34.0604 76.223 26.9363 76.2035 19.5428C76.1719 9.64444 86.7038 -0.234117 103.667 0.00422805C107.266 0.0534348 110.693 0.704655 113 1.46475L110.757 9.59046H109.619C108.216 7.73752 106.085 6.33283 101.881 6.33283C93.2838 6.33283 87.9645 11.0862 87.981 17.4229C87.9973 23.1585 92.8946 27.5277 100.204 27.5071ZM50.6047 0.317612L50.0688 2.47118C50.0688 2.47118 53.3218 2.83069 52.3235 6.10724L44.9271 33.2671L59.7142 33.2924L60.2704 30.9579C60.2704 30.9579 57.5055 30.2813 58.224 27.7061C58.2815 27.4685 60.3946 19.6442 60.3946 19.6442L67.1739 19.6328C70.5486 19.6508 71.6651 21.4184 71.6651 21.4184L73.6307 13.3532H62.2096L63.9083 7.01818L73.8305 7.00665C75.6565 7.00665 76.9351 8.24359 76.9351 9.14545H78.0581L80.2465 0.317767L50.6047 0.317612ZM39.391 28.4183C38.5177 27.4714 30.9064 15.4867 30.9064 15.4867L44.822 4.23677C47.1653 2.2602 48.8299 2.46994 48.8299 2.46994L49.3749 0.302544L32.0658 0.316536L31.5339 2.4701C32.7104 2.55037 34.354 3.61277 33.0081 4.87169C32.841 5.02977 19.1047 15.6261 19.1047 15.6261L22.0603 4.80788C22.6717 2.71829 24.8933 2.4701 24.8933 2.4701L25.4349 0.309156L8.90941 0.31746L8.3791 2.47594C9.1665 2.67584 11.4214 3.11394 10.6364 6.11124C5.12186 26.2526 5.76101 24.2484 5.38869 25.3541C3.87979 31.1707 1.45212 30.8751 0.569889 30.9357L0 33.2671H17.2804L17.8634 30.907C17.8634 30.907 15.117 30.3499 15.6434 28.3555C16.1623 26.3796 18.3321 18.4523 18.3321 18.4523C21.3225 23.3128 22.0237 23.9109 25.6288 28.9263C29.2361 33.9418 33.0966 33.2784 43.3155 33.2817L43.8831 30.9602C41.702 30.9708 40.2659 29.3636 39.391 28.4183Z" fill="white"/>
</svg>
