<svg width="83" height="23" viewBox="0 0 83 23" fill="none" xmlns="http://www.w3.org/2000/svg">
<path fill-rule="evenodd" clip-rule="evenodd" d="M33.1783 0.708763C32.7967 0.708763 32.6275 0.92166 32.4859 1.2263C23.5782 20.4488 22.8307 21.9684 22.8307 21.9684C27.8786 21.9684 27.8786 21.9684 27.8786 21.9684C28.9291 19.5568 28.9291 19.5568 28.9291 19.5568C36.5344 19.5568 36.5344 19.5568 36.5344 19.5568C37.5888 21.9684 37.5888 21.9684 37.5888 21.9684C43.5258 21.9684 43.5258 21.9684 43.5258 21.9684C43.5258 21.9684 43.0183 20.981 33.8707 1.2263C33.7291 0.92166 33.56 0.708763 33.1783 0.708763ZM30.5344 15.879C32.7258 10.8467 32.7258 10.8467 32.7258 10.8467C34.9251 15.879 34.9251 15.879 34.9251 15.879H30.5344ZM58.3941 12.3113C60.1292 11.3422 61.4433 9.65011 61.4433 7.2239C61.4433 5.31888 60.6289 3.74791 59.2124 2.68724C57.7764 1.60805 56.1161 1.02437 52.7206 1.02437C45.4577 1.02437 45.4577 1.02437 45.4577 1.02437C45.4577 21.9684 45.4577 21.9684 45.4577 21.9684C50.8242 21.9684 50.8242 21.9684 50.8242 21.9684C50.8242 14.1721 50.8242 14.1721 50.8242 14.1721C52.4885 14.1721 52.4885 14.1721 52.4885 14.1721C54.2984 14.1721 55.2112 14.8145 55.9704 16.514C56.6118 17.9528 57.0642 19.6596 57.6545 21.9684C63.6387 21.9684 63.6388 21.9684 63.6388 21.9684C62.7889 19.5935 62.3639 18.4703 61.7266 16.7966C60.8531 14.5063 59.7948 13.0968 58.3941 12.3113ZM54.9633 9.74193C54.3141 10.208 53.4761 10.3549 51.9692 10.3549C50.8242 10.3549 50.8242 10.3549 50.8242 10.3549C50.8242 10.3549 50.8124 4.77209 50.8242 4.77209C51.9692 4.77209 51.9692 4.77209 51.9692 4.77209C53.5429 4.77209 54.3259 4.93355 54.9594 5.38128C55.6833 5.89516 56.0059 6.66598 56.0059 7.55795C56.0059 8.53061 55.6439 9.24634 54.9633 9.74193ZM10.7913 9.89974C1.67523 1.3915 1.67523 1.3915 1.67523 1.3915C1.39983 1.13821 1.12442 0.958388 0.69165 0.958388C0.69165 21.9684 0.69165 21.9684 0.69165 21.9684C5.3776 21.9684 5.3776 21.9684 5.3776 21.9684C5.3776 11.9222 5.3776 11.9222 5.3776 11.9222C10.7913 16.9728 10.7913 16.9728 10.7913 16.9728C16.209 11.9222 16.209 11.9222 16.209 11.9222C16.209 21.9684 16.209 21.9684 16.209 21.9684C20.895 21.9684 20.895 21.9684 20.895 21.9684C20.895 0.958388 20.895 0.958388 20.895 0.958388C20.4622 0.958388 20.1868 1.13821 19.9114 1.3915L10.7913 9.89974ZM80.3483 11.5184C77.9562 9.39691 73.6165 9.03344 71.901 7.78556C71.2283 7.29736 70.9882 6.57789 71.2086 5.89151C71.48 5.04 72.3889 4.48208 73.7226 4.48208C75.56 4.48208 77.2085 5.26386 78.3496 6.5302C81.4144 3.53875 81.4144 3.53875 81.4144 3.53875C79.6086 1.74757 76.7247 0.668457 73.6872 0.668457C70.1462 0.668457 67.4748 2.2651 66.2827 4.81239C65.358 6.79079 65.6768 8.85362 66.8138 10.3366C69.0131 13.2069 73.6558 13.295 75.6662 14.7668C76.3823 15.2917 76.7837 16.1396 76.3548 17.0536C75.985 17.8537 75.0525 18.3969 73.5259 18.4337C71.4092 18.4814 69.5207 17.5564 68.1318 15.9377C65.0629 18.9328 65.0629 18.9328 65.0629 18.9328C67.0931 21.2269 70.1148 22.3318 73.7659 22.3318C77.3148 22.3318 80.4309 21.0434 81.7017 18.2978C82.8151 15.8973 82.4138 13.3464 80.3483 11.5184Z" fill="white"/>
</svg>
