<svg width="36" height="35" viewBox="0 0 36 35" fill="none" xmlns="http://www.w3.org/2000/svg">
<path fill-rule="evenodd" clip-rule="evenodd" d="M18.3215 18.3219C18.1262 18.1267 17.8096 18.1267 17.6144 18.3219L6.85319 29.0831C6.65793 29.2784 6.34135 29.2784 6.14609 29.0831L5.86324 28.8003C5.66798 28.605 5.66798 28.2884 5.86324 28.0932L16.6244 17.332C16.8197 17.1367 16.8197 16.8201 16.6244 16.6249L6.8537 6.85417C6.65844 6.65891 6.65844 6.34232 6.8537 6.14706L7.13654 5.86422C7.3318 5.66896 7.64839 5.66896 7.84365 5.86422L17.6144 15.6349C17.8096 15.8302 18.1262 15.8302 18.3215 15.6349L28.0922 5.86422C28.2875 5.66896 28.604 5.66896 28.7993 5.86422L29.0821 6.14706C29.2774 6.34233 29.2774 6.65891 29.0821 6.85417L19.3114 16.6249C19.1162 16.8201 19.1162 17.1367 19.3114 17.332L30.0726 28.0932C30.2679 28.2884 30.2679 28.605 30.0726 28.8003L29.7898 29.0831C29.5945 29.2784 29.2779 29.2784 29.0826 29.0831L18.3215 18.3219Z" fill="white"/>
</svg>
