<svg width="59" height="41" viewBox="0 0 59 41" fill="none" xmlns="http://www.w3.org/2000/svg">
<path d="M33.2394 25.102C33.2394 20.751 33.9042 17.0136 35.2338 13.8898C36.5634 10.6544 38.2808 8.03266 40.3859 6.02449C42.4911 3.90476 44.8732 2.39864 47.5324 1.50612C50.3024 0.502041 53.0169 0 55.6761 0V5.85715C52.7953 5.85715 50.0808 6.86123 47.5324 8.86939C45.0948 10.766 43.6545 13.3878 43.2113 16.7347C43.5437 16.6231 43.9315 16.5116 44.3746 16.4C44.707 16.2884 45.0948 16.1769 45.538 16.0653C46.092 15.9537 46.7014 15.898 47.3662 15.898C50.6901 15.898 53.4601 17.181 55.6761 19.7469C57.892 22.2014 59 25.102 59 28.449C59 31.7959 57.8366 34.7524 55.5099 37.3184C53.2939 39.7728 50.3023 41 46.5352 41C42.3249 41 39.0563 39.4381 36.7296 36.3143C34.4028 33.0789 33.2394 29.3415 33.2394 25.102ZM0 25.102C0 20.751 0.664789 17.0136 1.99437 13.8898C3.32394 10.6544 5.04131 8.03266 7.14648 6.02449C9.25164 3.90476 11.6338 2.39864 14.293 1.50612C17.0629 0.502041 19.7775 0 22.4366 0V5.85715C19.5559 5.85715 16.8413 6.86123 14.293 8.86939C11.8554 10.766 10.415 13.3878 9.97183 16.7347C10.3042 16.6231 10.692 16.5116 11.1352 16.4C11.4676 16.2884 11.8554 16.1769 12.2986 16.0653C12.8526 15.9537 13.462 15.898 14.1268 15.898C17.4507 15.898 20.2207 17.181 22.4366 19.7469C24.6526 22.2014 25.7606 25.102 25.7606 28.449C25.7606 31.7959 24.5972 34.7524 22.2704 37.3184C20.0545 39.7728 17.0629 41 13.2958 41C9.08545 41 5.8169 39.4381 3.49014 36.3143C1.16338 33.0789 0 29.3415 0 25.102Z" fill="#4EB66E"/>
</svg>
