<svg width="110" height="33" viewBox="0 0 110 33" fill="none" xmlns="http://www.w3.org/2000/svg">
<path fill-rule="evenodd" clip-rule="evenodd" d="M32.4758 0.568359V32.6035H0V0.568359H32.4758Z" fill="#111111"/>
<path fill-rule="evenodd" clip-rule="evenodd" d="M0.806641 1.36426H31.6685V31.8067H0.806641V1.36426Z" fill="#FFF22D"/>
<path fill-rule="evenodd" clip-rule="evenodd" d="M30.3519 10.7993L29.1881 9.75095L24.431 14.2935L23.1158 12.9457L23.1663 10.0504L22.0026 11.2481V14.8426L20.1159 16.7101L29.5083 25.9745L25.7124 29.7687L16.3164 20.4698L6.92095 29.7687L3.1256 25.9745L12.5175 16.7101L10.6302 14.8426V11.2481L9.46644 10.0504L9.51693 12.9457L8.20112 14.2935L3.44401 9.75095L2.28027 10.7993C2.46977 5.91335 6.40889 2.1238 10.124 4.70915L14.9821 9.55172L13.8683 10.5496L16.3152 12.9633L18.7621 10.5496L17.6488 9.55172L22.5069 4.70915C26.2233 2.12321 30.1624 5.91335 30.3519 10.7993Z" fill="#111111"/>
<path fill-rule="evenodd" clip-rule="evenodd" d="M40.4388 2.31729V13.1416H39.2608V1.13829H42.5298C43.2486 1.13829 43.8248 1.19162 44.2638 1.29826C44.6903 1.40091 45.0937 1.58116 45.4531 1.82975C45.9384 2.16435 46.3204 2.61204 46.6026 3.17459C46.8854 3.73479 47.025 4.32838 47.025 4.95597C47.025 5.88476 46.7452 6.68345 46.1862 7.35323C45.6242 8.02535 44.925 8.39159 44.0838 8.45078L47.025 13.141H45.604L41.9928 7.35323H43.1453C43.9151 7.35323 44.5401 7.13114 45.0218 6.68638C45.5036 6.24162 45.7466 5.66794 45.7466 4.97004C45.7466 4.54813 45.6723 4.16255 45.5238 3.81624C45.3768 3.46961 45.1526 3.16001 44.868 2.91031C44.6204 2.69268 44.3243 2.53569 44.0036 2.45207C43.6668 2.36241 43.0651 2.31729 42.2007 2.31729H40.4388ZM56.2273 8.54981C56.2273 7.58763 55.8792 6.74908 55.1842 6.03125C54.4874 5.31401 53.683 4.95656 52.7759 4.95656C51.7892 4.95656 50.951 5.31401 50.2578 6.03125C49.5645 6.74908 49.2164 7.63802 49.2164 8.69865C49.2164 9.70947 49.5615 10.5615 50.2518 11.2565C50.9421 11.9514 51.7726 12.3001 52.742 12.3001C53.6777 12.3001 54.4933 11.9344 55.1865 11.2002C55.8792 10.466 56.2273 9.58231 56.2273 8.54981ZM56.2273 11.7065C55.8596 12.2298 55.363 12.6376 54.7351 12.9359C54.1019 13.233 53.4087 13.3848 52.7076 13.3801C51.3615 13.3801 50.2376 12.9248 49.3417 12.0153C48.4429 11.1065 47.9956 9.9843 47.9956 8.64708C47.9956 7.29112 48.4548 6.15665 49.3702 5.24252C50.2857 4.33073 51.4328 3.87483 52.8104 3.87483C53.5179 3.87483 54.1654 4.01547 54.7559 4.29967C55.3421 4.58042 55.8479 5.00121 56.2273 5.52379V4.07172H57.3804V13.1404H56.2273V11.7065ZM60.4379 3.00934H59.2605V1.13829H60.4379V3.00934ZM59.2599 13.1416V4.0729H60.4373V13.1416H59.2599ZM63.9796 13.1416H62.8355V5.08547H61.607V4.07231H62.7844V3.82444C62.7844 2.86518 63.0327 2.15321 63.5258 1.69205C64.0164 1.23029 64.7756 1 65.7938 1H65.9019V2.04657C65.1956 2.0577 64.6954 2.19541 64.402 2.4632C64.1085 2.72748 63.9636 3.18337 63.9636 3.82444V4.07231H65.9025V5.08547H63.9802L63.9796 13.1416ZM68.6832 13.1416H67.5391V5.08547H66.3106V4.07231H67.488V3.82444C67.488 2.86518 67.7363 2.15321 68.2294 1.69205C68.7201 1.23029 69.4793 1 70.4975 1H70.6056V2.04657C69.8993 2.0577 69.3991 2.19541 69.1056 2.4632C68.8122 2.72748 68.666 3.18337 68.666 3.82444V4.07231H70.6062V5.08547H68.6838L68.6832 13.1416ZM80.7661 8.97757H72.4691C72.5398 9.96496 72.9022 10.7613 73.555 11.3719C74.2061 11.9802 75.0181 12.2837 75.9936 12.2837C76.6838 12.2837 77.3058 12.1067 77.8571 11.7551C78.4072 11.4006 78.8349 10.9107 79.1343 10.2802H80.4721C80.0497 11.2846 79.4533 12.0528 78.6887 12.5907C77.9218 13.1281 77.0343 13.3982 76.028 13.3982C74.6902 13.3982 73.558 12.9283 72.6331 11.9884C71.7093 11.0484 71.2466 9.91749 71.2466 8.60079C71.2466 7.21904 71.7004 6.0793 72.6051 5.17923C73.5087 4.27565 74.6671 3.82561 76.0755 3.82561C77.4597 3.82561 78.5866 4.29557 79.4563 5.23256C80.3289 6.17247 80.7649 7.39366 80.7649 8.89554V8.97757H80.7661ZM79.4634 7.99547C79.2406 6.97703 78.8301 6.20881 78.2337 5.69373C77.6373 5.17865 76.8609 4.92257 75.9039 4.92257C75.0128 4.92257 74.2578 5.19857 73.6382 5.75291C73.0198 6.30725 72.6426 7.05262 72.5036 7.99547H79.4634ZM83.3164 3.00934H82.139V1.13829H83.3164V3.00934ZM82.139 13.1416V4.0729H83.3164V13.1416H82.139ZM84.6369 10.2884H85.8494V10.3224C85.8494 10.8879 86.0151 11.3549 86.3436 11.7264C86.6709 12.0979 87.079 12.2837 87.5644 12.2837C88.026 12.2837 88.4079 12.1401 88.7162 11.8565C89.0216 11.5694 89.1754 11.209 89.1754 10.776C89.1754 10.3429 89.0548 9.99367 88.8125 9.72939C88.5701 9.46512 88.1317 9.21724 87.4955 8.98636C86.4767 8.62891 85.8084 8.26326 85.4989 7.89175C85.1882 7.51731 85.0314 7.01629 85.0314 6.38929C85.0314 5.68025 85.2904 5.07786 85.8119 4.58563C86.3317 4.09048 86.9638 3.84261 87.7034 3.84261C88.4911 3.84261 89.113 4.06176 89.5746 4.50125C90.0362 4.94308 90.2845 5.5566 90.3184 6.34124H89.0584C89.0293 5.91112 88.8927 5.57887 88.6444 5.34272C88.396 5.10657 88.0574 4.9882 87.6291 4.9882C87.2442 4.9882 86.9246 5.11419 86.6686 5.37026C86.4107 5.62634 86.2836 5.94453 86.2836 6.32424C86.2836 6.59379 86.3371 6.8194 86.4428 7.00516C86.5486 7.18798 86.7226 7.35382 86.9685 7.50324C87.1913 7.64095 87.5163 7.77338 87.9446 7.89995C88.3693 8.02653 88.6533 8.1197 88.7994 8.17888C89.3727 8.42089 89.795 8.74143 90.0665 9.144C90.3368 9.54657 90.4716 10.0552 90.4716 10.6775C90.4716 11.4575 90.1942 12.1044 89.6441 12.6165C89.0929 13.1257 88.3925 13.3818 87.5477 13.3818C86.6834 13.3818 85.9896 13.1035 85.465 12.5462C84.9399 11.9848 84.666 11.2336 84.6369 10.2884ZM100.899 8.97757H92.6007C92.6726 9.96496 93.0343 10.7613 93.6878 11.3719C94.3377 11.9802 95.1509 12.2837 96.1263 12.2837C96.8166 12.2837 97.4386 12.1067 97.9887 11.7551C98.5399 11.4006 98.9677 10.9107 99.2659 10.2802H100.605C100.182 11.2846 99.5861 12.0528 98.8215 12.5907C98.0546 13.1281 97.1671 13.3982 96.1602 13.3982C94.8224 13.3982 93.6902 12.9283 92.7664 11.9884C91.8415 11.0484 91.3799 9.91749 91.3799 8.60079C91.3799 7.21904 91.8338 6.0793 92.7373 5.17923C93.6409 4.27565 94.8004 3.82561 96.2089 3.82561C97.5919 3.82561 98.72 4.29557 99.5884 5.23256C100.462 6.17247 100.898 7.39366 100.898 8.89554L100.899 8.97757ZM99.595 7.99547C99.3734 6.97703 98.9617 6.20881 98.3665 5.69373C97.7701 5.17865 96.9937 4.92257 96.0355 4.92257C95.1456 4.92257 94.39 5.19857 93.771 5.75291C93.1526 6.30725 92.7753 7.05262 92.6363 7.99547H99.595ZM102.254 4.0729H103.397V5.10599C103.76 4.69228 104.179 4.38815 104.656 4.19126C105.131 3.99144 105.677 3.893 106.289 3.893C106.962 3.893 107.562 4.01664 108.09 4.26393C108.599 4.49631 109.031 4.86478 109.339 5.32749C109.549 5.65095 109.701 6.03067 109.796 6.47015C109.886 6.90612 109.933 7.55012 109.933 8.40273V13.141H108.771V8.0652C108.771 6.99285 108.563 6.21642 108.149 5.7324C107.733 5.24838 107.068 5.00637 106.156 5.00637C105.62 5.00637 105.152 5.11301 104.747 5.32397C104.347 5.53161 104.016 5.84679 103.792 6.23283C103.64 6.49497 103.537 6.78169 103.487 7.07958C103.426 7.39483 103.397 7.94625 103.397 8.73088V13.1398H102.255L102.254 4.0729ZM41.1362 26.7751L40.3443 31.3029H42.0249C43.0116 31.3029 43.7708 31.1201 44.306 30.7515C44.8412 30.383 45.1775 29.8151 45.3105 29.0522C45.4448 28.2875 45.3046 27.7191 44.8911 27.3423C44.4777 26.9643 43.7862 26.7756 42.8167 26.7756L41.1362 26.7751ZM42.0427 21.5903L41.3364 25.6306H42.0552C43.2361 25.6306 44.0916 25.4707 44.6179 25.149C45.1454 24.8261 45.4739 24.2999 45.6016 23.5686C45.7216 22.8818 45.5814 22.3808 45.1799 22.0661C44.7765 21.7485 44.0737 21.5909 43.0728 21.5909L42.0427 21.5903ZM41.0994 20.4441H43.3645C44.742 20.4441 45.7074 20.7002 46.2646 21.2153C46.8218 21.7303 47.0048 22.5296 46.8141 23.6184C46.7184 24.168 46.5277 24.6368 46.2426 25.0282C45.9545 25.4197 45.5737 25.7367 45.0967 25.9852C45.7056 26.2553 46.1333 26.6321 46.3757 27.1184C46.6186 27.606 46.6804 28.2002 46.5569 28.9028C46.3436 30.1239 45.8446 31.0188 45.0634 31.5901C44.2817 32.1614 43.1559 32.4485 41.6898 32.4485H39L41.0994 20.4441ZM47.4147 32.448H46.1535L52.9743 20.4441H54.4119L57.0186 32.448H55.7414L54.9454 28.6801H49.5283L47.4147 32.448ZM54.7143 27.6001L53.4608 21.5727L50.133 27.6001H54.7143ZM66.2607 31.0129L67.9662 20.4441H69.1531L67.0532 32.448H65.6156L60.789 21.8622L59.0716 32.448H57.8942L59.993 20.4441H61.4317L66.2607 31.0129ZM71.1527 28.7445L70.5052 32.448H69.3266L71.4265 20.4441H72.6039L71.4378 27.112L78.2379 20.4441H79.6582L73.7285 26.2494L77.4763 32.448H76.0049L72.8071 27.1296L71.1527 28.7445Z" fill="white"/>
</svg>
