<svg width="72" height="72" viewBox="0 0 72 72" fill="none" xmlns="http://www.w3.org/2000/svg">
<circle cx="34" cy="34" r="7" stroke="#1A1A1A" stroke-width="2"/>
<rect x="7" y="21" width="54" height="26" stroke="#1A1A1A" stroke-width="2"/>
<line x1="11" y1="52" x2="65" y2="52" stroke="#1A1A1A" stroke-width="2"/>
<line x1="66" y1="53" x2="66" y2="25" stroke="#1A1A1A" stroke-width="2"/>
<path d="M14 46C14 45.2121 13.8448 44.4319 13.5433 43.7039C13.2417 42.9759 12.7998 42.3145 12.2426 41.7574C11.6855 41.2002 11.0241 40.7583 10.2961 40.4567C9.56815 40.1552 8.78793 40 8 40" stroke="#1A1A1A" stroke-width="2"/>
<path d="M54 46C54 45.2121 54.1552 44.4319 54.4567 43.7039C54.7583 42.9759 55.2002 42.3145 55.7574 41.7574C56.3145 41.2002 56.9759 40.7583 57.7039 40.4567C58.4319 40.1552 59.2121 40 60 40" stroke="#1A1A1A" stroke-width="2"/>
<path d="M14 22C14 22.7879 13.8448 23.5681 13.5433 24.2961C13.2417 25.0241 12.7998 25.6855 12.2426 26.2426C11.6855 26.7998 11.0241 27.2417 10.2961 27.5433C9.56815 27.8448 8.78793 28 8 28" stroke="#1A1A1A" stroke-width="2"/>
<path d="M54 22C54 22.7879 54.1552 23.5681 54.4567 24.2961C54.7583 25.0241 55.2002 25.6855 55.7574 26.2426C56.3145 26.7998 56.9759 27.2417 57.7039 27.5433C58.4319 27.8448 59.2121 28 60 28" stroke="#1A1A1A" stroke-width="2"/>
</svg>
