<svg width="96" height="49" viewBox="0 0 96 49" fill="none" xmlns="http://www.w3.org/2000/svg">
<g clip-path="url(#clip0_217_65)">
<path fill-rule="evenodd" clip-rule="evenodd" d="M0 48.9972H47.9729L94.921 0.00415039H0V48.9972Z" fill="url(#paint0_linear_217_65)"/>
<path fill-rule="evenodd" clip-rule="evenodd" d="M56.3311 9.80211H46.9565L46.9878 32.8071L38.8247 9.79449H30.7304L23.7621 29.0139C23.0212 24.1233 18.1753 22.4358 14.3624 21.1718C11.8445 20.328 9.17215 19.0868 9.19928 17.715C9.22015 16.5893 10.6288 15.5452 13.4285 15.7009C15.3068 15.8065 16.9659 15.9643 20.2664 17.6279L23.5116 11.727C20.5022 10.1287 16.3408 9.11948 12.9287 9.11621H12.9078C8.92902 9.11621 5.61598 10.4608 3.56241 12.6764C2.13076 14.2224 1.35859 16.1886 1.32728 18.3628C1.27511 21.3547 2.32589 23.4755 4.53389 25.1707C6.39963 26.5969 8.78607 27.5224 10.8887 28.2017C13.4817 29.04 15.6 29.7695 15.5739 31.322C15.5565 31.8914 15.3371 32.4338 14.9582 32.8441C14.3113 33.5409 13.32 33.8022 11.9478 33.8305C9.3005 33.8893 7.33876 33.4549 4.2125 31.5267L1.3252 37.5039C4.44833 39.3569 7.76346 40.2867 11.5304 40.2867L12.3777 40.2801C15.6563 40.2181 18.3172 39.3983 20.4313 37.6236C20.5523 37.5224 20.6609 37.42 20.7735 37.3166L20.4188 39.2241L28.3283 39.1979L29.7475 35.407C31.2396 35.9383 32.9363 36.2322 34.7374 36.2322C36.4925 36.2322 38.1433 35.9535 39.6073 35.4527L40.5965 39.1979L54.7878 39.2121L54.8222 30.5697H57.8421C65.1412 30.5697 69.456 26.6938 69.456 20.1941C69.4539 12.9551 65.2591 9.80211 56.3311 9.80211ZM34.7374 29.4668C33.7164 29.4741 32.7026 29.2889 31.7447 28.9203L34.704 19.1707H34.7614L37.6727 28.9475C36.7962 29.2741 35.7975 29.4668 34.7363 29.4668H34.7374ZM56.88 23.8653H54.8202V16.0079H56.881C59.6254 16.0079 61.8167 16.9616 61.8167 19.886C61.8146 22.9127 59.6254 23.8653 56.881 23.8653" fill="white"/>
</g>
<defs>
<linearGradient id="paint0_linear_217_65" x1="47.4605" y1="0.00415039" x2="47.4605" y2="48.9983" gradientUnits="userSpaceOnUse">
<stop stop-color="#00AEEF"/>
<stop offset="0.212" stop-color="#0097DC"/>
<stop offset="0.519" stop-color="#007CC5"/>
<stop offset="0.792" stop-color="#006CB8"/>
<stop offset="1" stop-color="#0066B3"/>
</linearGradient>
<clipPath id="clip0_217_65">
<rect width="96" height="49" fill="white"/>
</clipPath>
</defs>
</svg>
