<svg width="111" height="51" viewBox="0 0 111 51" fill="none" xmlns="http://www.w3.org/2000/svg">
<path d="M65.4368 35L67.8516 20.4545H72.7592C73.7062 20.4545 74.4685 20.6203 75.0462 20.9517C75.6238 21.2831 76.0215 21.7353 76.2393 22.3082C76.4619 22.8812 76.5092 23.5322 76.3814 24.2614C76.282 24.8674 76.0949 25.3859 75.8203 25.8168C75.5457 26.2429 75.2119 26.5909 74.8189 26.8608C74.4306 27.1259 74.0116 27.3177 73.5618 27.4361L73.5405 27.5497C74.0045 27.5829 74.433 27.7486 74.826 28.0469C75.219 28.3404 75.5125 28.7524 75.7067 29.2827C75.9055 29.813 75.9458 30.4474 75.8274 31.1861C75.7043 31.92 75.4297 32.5758 75.0036 33.1534C74.5821 33.7263 74.0045 34.1785 73.2706 34.5099C72.5414 34.8366 71.656 35 70.6143 35H65.4368ZM66.9638 33.8068H70.8132C71.9354 33.8068 72.8066 33.5582 73.4268 33.0611C74.0471 32.5639 74.4235 31.9389 74.5561 31.1861C74.6461 30.6321 74.594 30.1302 74.3999 29.6804C74.2057 29.2259 73.8885 28.866 73.4482 28.6009C73.0078 28.3357 72.4609 28.2031 71.8075 28.2031H67.9013L66.9638 33.8068ZM68.1001 27.0241H71.8004C72.3733 27.0241 72.8942 26.9058 73.3629 26.669C73.8317 26.4323 74.2199 26.1056 74.5277 25.6889C74.8355 25.2723 75.032 24.7964 75.1172 24.2614C75.2498 23.4896 75.1054 22.8622 74.6839 22.3793C74.2673 21.8916 73.5594 21.6477 72.5604 21.6477H68.9808L68.1001 27.0241ZM81.1417 35.2486C80.4835 35.2486 79.9035 35.1207 79.4016 34.8651C78.8997 34.6046 78.5257 34.2306 78.2795 33.7429C78.038 33.2505 77.9717 32.6539 78.0806 31.9531C78.1753 31.4134 78.3552 30.9588 78.6204 30.5895C78.8903 30.2202 79.2312 29.9171 79.6431 29.6804C80.055 29.4389 80.5285 29.2495 81.0636 29.1122C81.5986 28.9749 82.181 28.8707 82.8107 28.7997C83.4263 28.724 83.9518 28.6577 84.3874 28.6009C84.823 28.544 85.1616 28.4541 85.4031 28.331C85.6445 28.2079 85.7889 28.009 85.8363 27.7344L85.8789 27.4787C86.002 26.7353 85.8884 26.1506 85.538 25.7244C85.1876 25.2936 84.6005 25.0781 83.7766 25.0781C82.9906 25.0781 82.3088 25.2533 81.7312 25.6037C81.1583 25.9493 80.7321 26.3542 80.4528 26.8182L79.3306 26.3849C79.6715 25.7884 80.0906 25.3125 80.5877 24.9574C81.0849 24.5975 81.6175 24.3395 82.1857 24.1832C82.7539 24.0223 83.315 23.9418 83.869 23.9418C84.2856 23.9418 84.7094 23.9962 85.1403 24.1051C85.5711 24.214 85.957 24.4034 86.2979 24.6733C86.6436 24.9384 86.8969 25.3101 87.0579 25.7884C87.2236 26.2618 87.2473 26.8632 87.1289 27.5923L85.8931 35H84.6289L84.9201 33.2741H84.842C84.6431 33.5961 84.3685 33.9086 84.0181 34.2116C83.6725 34.5147 83.2582 34.7633 82.7752 34.9574C82.2923 35.1515 81.7478 35.2486 81.1417 35.2486ZM81.4613 34.0909C82.1336 34.0909 82.7421 33.9418 83.2866 33.6435C83.8358 33.3452 84.2856 32.9498 84.636 32.4574C84.9911 31.9602 85.2184 31.4134 85.3178 30.8168L85.5806 29.2401C85.4764 29.33 85.306 29.4105 85.0692 29.4815C84.8372 29.5526 84.5745 29.6165 84.2809 29.6733C83.9921 29.7254 83.7009 29.7704 83.4073 29.8082C83.1185 29.8461 82.8628 29.8793 82.6403 29.9077C82.0105 29.9834 81.4613 30.1018 80.9925 30.2628C80.5285 30.4238 80.1568 30.6463 79.8775 30.9304C79.5981 31.2098 79.4229 31.5696 79.3519 32.0099C79.243 32.6728 79.3874 33.1866 79.7852 33.5511C80.1876 33.911 80.7463 34.0909 81.4613 34.0909ZM91.6495 28.1818L90.5202 35H89.256L91.0742 24.0909H92.3029L92.0188 25.8026H92.1325C92.4734 25.2438 92.9445 24.7964 93.5458 24.4602C94.1519 24.1193 94.855 23.9489 95.6552 23.9489C96.3844 23.9489 96.9999 24.1027 97.5018 24.4105C98.0084 24.7135 98.3683 25.161 98.5813 25.7528C98.7991 26.3447 98.837 27.0715 98.695 27.9332L97.5089 35H96.2447L97.4094 28.0114C97.5562 27.1212 97.426 26.4157 97.0188 25.8949C96.6164 25.3693 95.9937 25.1065 95.1509 25.1065C94.578 25.1065 94.0453 25.2296 93.5529 25.4759C93.0652 25.7221 92.6533 26.0772 92.3171 26.5412C91.9809 27.0005 91.7584 27.5473 91.6495 28.1818ZM102.67 30.8807L102.926 29.2116H103.21L109.169 24.0909H110.788L104.901 29.1477L104.787 29.169L102.67 30.8807ZM100.838 35L103.253 20.4545H104.517L102.102 35H100.838ZM107.656 35L104.141 29.3963L105.17 28.5227L109.254 35H107.656Z" fill="white"/>
<path d="M13.5144 29.1143C13.0889 31.7429 14.3654 32.4 16.4928 32.4C17.9821 32.4 19.8968 31.7429 20.1095 30.2095C20.535 28.2381 17.7693 28.019 15.0036 26.9238C12.2379 26.0476 9.68494 24.7333 10.5359 20.5714C11.5997 15.7524 16.4928 14 20.1095 14C24.1517 14 27.5557 16.1905 26.4919 21.0095H21.1733C22.0243 19.2571 20.535 18.6 19.0458 18.6C17.9821 18.6 16.4928 19.0381 16.0673 20.5714C15.6418 22.3238 18.6203 22.5429 21.1733 23.419C23.939 24.2952 26.4919 25.8286 25.6409 29.7714C24.3645 35.2476 19.684 37 15.2164 37C10.5359 37 7.13198 34.8095 8.19571 29.1143H13.5144ZM49.6813 14.6571H55L50.1068 36.5619H44.7882L49.6813 14.6571ZM30.5341 14.6571H39.895C43.2989 14.6571 46.9156 15.5333 45.8519 20.1333C45.4264 22.1048 43.9372 23.6381 42.2352 24.5143C44.1499 25.1714 45.0009 27.1429 44.5754 29.7714C43.5117 35.0286 39.6822 36.5619 35.2146 36.5619H25.6409L30.5341 14.6571ZM33.9381 23.2H37.9803C38.8312 23.2 40.3205 22.7619 40.5332 21.2286C40.9587 19.6952 39.895 19.0381 38.8312 19.0381H34.7891L33.9381 23.2ZM32.0233 31.9619H36.2783C37.9803 31.9619 39.2567 31.3048 39.6822 29.5524C40.1077 27.581 39.044 26.9238 37.342 26.9238H33.0871L32.0233 31.9619Z" fill="white"/>
<path d="M62.4983 6.3675C59.512 -1.30903 43.0876 -2.16198 25.5966 4.44837C13.0116 9.13959 3.41288 16.3896 0 23C4.6927 18.0955 12.3717 13.1911 21.7571 9.7793C39.2481 2.95571 55.8858 3.80866 58.6588 11.4852C59.512 13.6176 59.0854 16.1764 57.8056 18.7353C62.0717 14.4705 63.9914 9.99254 62.4983 6.3675Z" fill="#FF0033"/>
<path d="M11.8809 45.4167C11.9165 45.0521 11.8199 44.7526 11.591 44.5182C11.3621 44.2839 11.0234 44.1667 10.575 44.1667C10.2823 44.1667 10.0102 44.2196 9.75881 44.3255C9.50926 44.4297 9.30099 44.5729 9.134 44.7552C8.96701 44.9358 8.86194 45.1424 8.81878 45.375C8.79439 45.5104 8.79627 45.6354 8.82441 45.75C8.85443 45.8628 8.91072 45.967 8.99328 46.0625C9.07771 46.1562 9.18935 46.2413 9.3282 46.3177C9.46892 46.3941 9.63685 46.4618 9.83198 46.5208L10.4512 46.7083C10.6876 46.7795 10.8893 46.8594 11.0563 46.9479C11.2251 47.0365 11.3593 47.1354 11.4587 47.2448C11.5582 47.3542 11.6248 47.4766 11.6586 47.612C11.6942 47.7474 11.697 47.8976 11.667 48.0625C11.6163 48.349 11.4972 48.6007 11.3096 48.8177C11.1219 49.033 10.8799 49.2005 10.5834 49.3203C10.2889 49.4401 9.95207 49.5 9.57306 49.5C9.22406 49.5 8.92761 49.4436 8.68369 49.3307C8.43977 49.2161 8.25871 49.059 8.1405 48.8594C8.02417 48.658 7.98008 48.4271 8.00822 48.1667H8.18835C8.16583 48.3958 8.20711 48.5981 8.31218 48.7734C8.41913 48.9488 8.58237 49.0859 8.8019 49.1849C9.02142 49.2839 9.28973 49.3333 9.60683 49.3333C9.93893 49.3333 10.2382 49.2795 10.5046 49.1719C10.7711 49.0642 10.9897 48.9149 11.1604 48.724C11.333 48.533 11.4418 48.3125 11.4869 48.0625C11.5207 47.8715 11.5047 47.7023 11.439 47.5547C11.3752 47.4071 11.257 47.2769 11.0844 47.1641C10.9118 47.0512 10.6782 46.9514 10.3836 46.8646L9.75318 46.6771C9.32351 46.5486 9.01673 46.3767 8.83286 46.1615C8.64898 45.9444 8.58425 45.6823 8.63866 45.375C8.68744 45.1059 8.80284 44.8681 8.98484 44.6615C9.16871 44.4549 9.40044 44.2934 9.68 44.1771C9.95957 44.059 10.2654 44 10.5975 44C10.9277 44 11.2073 44.0608 11.4362 44.1823C11.6651 44.3038 11.834 44.4714 11.9428 44.6849C12.0516 44.8984 12.091 45.1424 12.061 45.4167H11.8809Z" fill="white"/>
<path d="M14.8649 45.4167L14.8311 45.5833H13.12L13.1537 45.4167H14.8649ZM13.953 44.4583H14.1332L13.4014 48.5729C13.3714 48.7292 13.3836 48.8637 13.438 48.9766C13.4924 49.0877 13.5759 49.1736 13.6885 49.2344C13.8011 49.2934 13.9305 49.3229 14.0769 49.3229C14.1275 49.3229 14.1763 49.3186 14.2232 49.3099C14.272 49.2995 14.3245 49.2865 14.3808 49.2708L14.4033 49.4271C14.3414 49.4479 14.2823 49.4635 14.226 49.474C14.1716 49.4844 14.1106 49.4896 14.0431 49.4896C13.8667 49.4896 13.7101 49.4523 13.5731 49.3776C13.438 49.303 13.3367 49.197 13.2691 49.0599C13.2035 48.9227 13.1875 48.7604 13.2213 48.5729L13.953 44.4583Z" fill="white"/>
<path d="M15.5488 49.4167L16.2693 45.4167H16.4494L16.3369 46.0521H16.3594C16.4945 45.8437 16.6896 45.6771 16.9448 45.5521C17.2018 45.4271 17.4795 45.3646 17.7779 45.3646C17.8004 45.3646 17.8154 45.3646 17.8229 45.3646C17.8304 45.3646 17.8454 45.3646 17.8679 45.3646L17.8342 45.5312C17.8116 45.5312 17.7966 45.5312 17.7891 45.5312C17.7816 45.5312 17.7666 45.5312 17.7441 45.5312C17.4889 45.5312 17.2525 45.5825 17.0349 45.6849C16.8191 45.7873 16.638 45.9288 16.4917 46.1094C16.3472 46.2899 16.2543 46.4965 16.213 46.7292L15.7289 49.4167H15.5488Z" fill="white"/>
<path d="M19.1956 49.5C18.9592 49.5 18.7491 49.4549 18.5652 49.3646C18.3832 49.2743 18.2462 49.1424 18.1543 48.9688C18.0642 48.7951 18.0398 48.5833 18.0811 48.3333C18.1074 48.1979 18.1543 48.0712 18.2218 47.9531C18.2913 47.8333 18.3935 47.7248 18.5286 47.6276C18.6656 47.5304 18.8466 47.447 19.0718 47.3776C19.297 47.3082 19.5784 47.2552 19.9161 47.2188C20.1188 47.1979 20.3111 47.1736 20.4931 47.1458C20.6751 47.1181 20.8261 47.0764 20.9462 47.0208C21.0663 46.9653 21.1357 46.8854 21.1545 46.7812L21.1995 46.5417C21.2558 46.2344 21.1939 45.9878 21.0138 45.8021C20.8336 45.6146 20.5578 45.5208 20.1863 45.5208C19.8824 45.5208 19.6 45.5842 19.3392 45.7109C19.0802 45.8377 18.8861 46.0104 18.7566 46.2292L18.599 46.1667C18.6965 46 18.826 45.8559 18.9874 45.7344C19.1506 45.6128 19.3345 45.5191 19.539 45.4531C19.7454 45.3872 19.9612 45.3542 20.1863 45.3542C20.4059 45.3542 20.5972 45.3845 20.7605 45.4453C20.9237 45.5043 21.056 45.5877 21.1573 45.6953C21.2605 45.8012 21.3309 45.9262 21.3684 46.0703C21.4078 46.2144 21.4115 46.3715 21.3796 46.5417L20.8618 49.4167H20.6817L20.828 48.6042H20.8055C20.6854 48.7847 20.5409 48.9427 20.3721 49.0781C20.2051 49.2118 20.0212 49.316 19.8204 49.3906C19.6216 49.4635 19.4133 49.5 19.1956 49.5ZM19.1956 49.3333C19.4696 49.3333 19.7323 49.2656 19.9837 49.1302C20.237 48.9931 20.4528 48.803 20.631 48.5599C20.8111 48.3151 20.9293 48.0312 20.9856 47.7083L21.0982 47.1042C21.04 47.1406 20.9706 47.1727 20.8899 47.2005C20.8111 47.2283 20.7229 47.2535 20.6254 47.276C20.5297 47.2969 20.4256 47.3151 20.313 47.3307C20.2023 47.3464 20.085 47.3611 19.9612 47.375C19.5671 47.4167 19.2519 47.48 19.0155 47.5651C18.7791 47.6502 18.6027 47.7569 18.4864 47.8854C18.3701 48.0139 18.295 48.1632 18.2612 48.3333C18.2106 48.6354 18.2734 48.8776 18.4498 49.0599C18.6262 49.2422 18.8748 49.3333 19.1956 49.3333Z" fill="white"/>
<path d="M24.4854 45.4167L24.4516 45.5833H22.7404L22.7742 45.4167H24.4854ZM23.5735 44.4583H23.7536L23.0219 48.5729C22.9919 48.7292 23.0041 48.8637 23.0585 48.9766C23.1129 49.0877 23.1964 49.1736 23.309 49.2344C23.4215 49.2934 23.551 49.3229 23.6973 49.3229C23.748 49.3229 23.7968 49.3186 23.8437 49.3099C23.8925 49.2995 23.945 49.2865 24.0013 49.2708L24.0238 49.4271C23.9619 49.4479 23.9028 49.4635 23.8465 49.474C23.7921 49.4844 23.7311 49.4896 23.6636 49.4896C23.4872 49.4896 23.3305 49.4523 23.1936 49.3776C23.0585 49.303 22.9571 49.197 22.8896 49.0599C22.8239 48.9227 22.808 48.7604 22.8418 48.5729L23.5735 44.4583Z" fill="white"/>
<path d="M26.7327 49.5C26.3537 49.5 26.0394 49.4089 25.7899 49.2266C25.5403 49.0443 25.3658 48.7969 25.2664 48.4844C25.167 48.1719 25.1529 47.8194 25.2242 47.4271C25.2955 47.0347 25.4371 46.6823 25.6492 46.3698C25.8612 46.0573 26.1182 45.8099 26.4203 45.6276C26.7224 45.4453 27.0442 45.3542 27.3857 45.3542C27.6371 45.3542 27.8604 45.4045 28.0555 45.5052C28.2525 45.6042 28.4148 45.7413 28.5424 45.9167C28.6719 46.0903 28.761 46.2917 28.8098 46.5208C28.8586 46.7483 28.8604 46.9913 28.8154 47.25L28.7816 47.4167H25.3142L25.348 47.25H28.6353C28.6916 46.9306 28.6738 46.6406 28.5818 46.3802C28.4918 46.1181 28.3426 45.9097 28.1343 45.7552C27.9279 45.599 27.6784 45.5208 27.3857 45.5208C27.0892 45.5208 26.804 45.6024 26.5301 45.7656C26.2561 45.9288 26.0197 46.151 25.8208 46.4323C25.622 46.7135 25.4869 47.0312 25.4156 47.3854L25.4043 47.3958C25.3405 47.7465 25.3471 48.0686 25.424 48.362C25.5009 48.6554 25.6492 48.8906 25.8687 49.0677C26.0882 49.2448 26.38 49.3333 26.744 49.3333C27.0067 49.3333 27.2374 49.2899 27.4363 49.2031C27.6371 49.1163 27.8041 49.0165 27.9373 48.9036C28.0724 48.7908 28.1737 48.6944 28.2413 48.6146L28.3651 48.7083C28.2863 48.809 28.1728 48.921 28.0246 49.0443C27.8763 49.1675 27.6943 49.2743 27.4785 49.3646C27.2628 49.4549 27.0142 49.5 26.7327 49.5Z" fill="white"/>
<path d="M30.8904 51C30.6502 51 30.4325 50.9696 30.2374 50.9089C30.0423 50.8498 29.88 50.7604 29.7505 50.6406C29.621 50.5226 29.5357 50.375 29.4944 50.1979L29.6633 50.1458C29.7008 50.3021 29.7749 50.4306 29.8856 50.5312C29.9963 50.6337 30.137 50.7092 30.3078 50.7578C30.4785 50.8082 30.6727 50.8333 30.8904 50.8333C31.3407 50.8333 31.715 50.7231 32.0133 50.5026C32.3117 50.2821 32.5002 49.9479 32.579 49.5L32.7704 48.4167H32.7479C32.6353 48.6389 32.4908 48.8247 32.3145 48.974C32.14 49.1215 31.9477 49.2326 31.7375 49.3073C31.5292 49.3802 31.3182 49.4167 31.1043 49.4167C30.7665 49.4167 30.4879 49.3325 30.2684 49.1641C30.0488 48.9957 29.8978 48.7622 29.8152 48.4635C29.7327 48.1649 29.7271 47.8194 29.7984 47.4271C29.8697 47.0312 30.001 46.6771 30.1924 46.3646C30.3838 46.0521 30.6202 45.8056 30.9016 45.625C31.1831 45.4444 31.4945 45.3542 31.836 45.3542C32.0687 45.3542 32.2723 45.3984 32.4467 45.487C32.6231 45.5738 32.7667 45.6988 32.8774 45.862C32.9899 46.0234 33.0669 46.2153 33.1081 46.4375H33.1307L33.3108 45.4167H33.4909L32.7592 49.5C32.6991 49.8299 32.5856 50.1059 32.4186 50.3281C32.2516 50.5503 32.0387 50.7179 31.7797 50.8307C31.5208 50.9436 31.2243 51 30.8904 51ZM31.1043 49.25C31.4045 49.25 31.6812 49.1762 31.9345 49.0286C32.1897 48.8811 32.4055 48.671 32.5818 48.3984C32.7601 48.1259 32.883 47.8021 32.9505 47.4271C33.0143 47.066 33.0134 46.7422 32.9477 46.4557C32.8839 46.1675 32.7573 45.9401 32.5678 45.7734C32.3801 45.605 32.1325 45.5208 31.8248 45.5208C31.5208 45.5208 31.2403 45.605 30.9832 45.7734C30.7281 45.9401 30.5123 46.1675 30.3359 46.4557C30.1614 46.7422 30.0423 47.066 29.9785 47.4271C29.9147 47.7882 29.9156 48.1059 29.9813 48.3802C30.0488 48.6528 30.1764 48.8663 30.3641 49.0208C30.5536 49.1736 30.8003 49.25 31.1043 49.25Z" fill="white"/>
<path d="M34.3479 49.4167L35.0684 45.4167H35.2485L34.528 49.4167H34.3479ZM35.2992 44.6875C35.2429 44.6875 35.1979 44.6693 35.1641 44.6328C35.1322 44.5964 35.1209 44.5521 35.1303 44.5C35.1378 44.4635 35.1603 44.4306 35.1979 44.401C35.2354 44.3698 35.2767 44.3542 35.3217 44.3542C35.378 44.3542 35.4221 44.3724 35.454 44.4089C35.4878 44.4453 35.5 44.4896 35.4906 44.5417C35.4831 44.5799 35.4606 44.6137 35.423 44.6432C35.3855 44.6727 35.3442 44.6875 35.2992 44.6875Z" fill="white"/>
<path d="M37.6246 49.5C37.2681 49.5 36.9698 49.4089 36.7296 49.2266C36.4913 49.0443 36.3234 48.7969 36.2258 48.4844C36.1283 48.1701 36.1142 47.8177 36.1836 47.4271C36.253 47.033 36.3938 46.6797 36.6058 46.3672C36.8178 46.0547 37.0767 45.8082 37.3826 45.6276C37.6903 45.4453 38.0186 45.3542 38.3676 45.3542C38.6303 45.3542 38.8602 45.4062 39.0572 45.5104C39.2542 45.6128 39.408 45.7569 39.5187 45.9427C39.6294 46.1267 39.6848 46.3403 39.6848 46.5833H39.4934C39.4934 46.2569 39.3902 45.9983 39.1838 45.8073C38.9793 45.6163 38.7072 45.5208 38.3676 45.5208C38.0505 45.5208 37.7513 45.6042 37.4698 45.7708C37.1903 45.9358 36.952 46.1615 36.755 46.4479C36.5598 46.7344 36.4294 47.0608 36.3638 47.4271C36.3 47.7813 36.3084 48.1024 36.3891 48.3906C36.4716 48.6788 36.618 48.908 36.8281 49.0781C37.0383 49.2483 37.3038 49.3333 37.6246 49.3333C37.8592 49.3333 38.0834 49.2882 38.2973 49.1979C38.5112 49.1076 38.6988 48.9809 38.8602 48.8177C39.0215 48.6545 39.1388 48.4653 39.212 48.25H39.4034C39.3152 48.5052 39.181 48.7266 39.0009 48.9141C38.8208 49.0998 38.6116 49.2439 38.3733 49.3464C38.1369 49.4488 37.8873 49.5 37.6246 49.5Z" fill="white"/>
<path d="M42.8271 49.4167L43.784 44.0833H45.5853C45.908 44.0833 46.1744 44.138 46.3846 44.2474C46.5966 44.355 46.7448 44.5104 46.8293 44.7135C46.9156 44.9149 46.9325 45.1562 46.8799 45.4375C46.8424 45.6458 46.7739 45.8368 46.6745 46.0104C46.575 46.184 46.4493 46.3307 46.2973 46.4505C46.1454 46.5703 45.9718 46.6528 45.7767 46.6979V46.7188C45.9831 46.7361 46.1594 46.8038 46.3058 46.9219C46.4521 47.0399 46.5563 47.1962 46.6182 47.3906C46.6801 47.5851 46.6885 47.8056 46.6435 48.0521C46.5947 48.3264 46.4887 48.566 46.3255 48.7708C46.1641 48.9757 45.9549 49.1345 45.6979 49.2474C45.4427 49.3602 45.15 49.4167 44.8198 49.4167H42.8271ZM43.041 49.25H44.8535C45.2757 49.25 45.6322 49.1406 45.923 48.9219C46.2157 48.7014 46.3958 48.4115 46.4634 48.0521C46.5084 47.8056 46.4878 47.5877 46.4015 47.3984C46.3152 47.2092 46.1763 47.0608 45.9849 46.9531C45.7935 46.8455 45.5628 46.7917 45.2926 46.7917H43.4801L43.041 49.25ZM43.5138 46.625H45.3264C45.5853 46.625 45.8104 46.5703 46.0018 46.4609C46.1932 46.3516 46.348 46.2066 46.4662 46.026C46.5844 45.8455 46.6623 45.6493 46.6998 45.4375C46.7673 45.0573 46.6979 44.7648 46.4915 44.5599C46.287 44.3533 45.9737 44.25 45.5515 44.25H43.9304L43.5138 46.625Z" fill="white"/>
<path d="M50.7976 48.1042L51.2817 45.4167H51.4618L50.7413 49.4167H50.5612L50.6738 48.7812H50.6513C50.5162 48.9896 50.3201 49.1563 50.0631 49.2813C49.8079 49.4063 49.5311 49.4688 49.2328 49.4688C48.9438 49.4688 48.699 49.4106 48.4982 49.2943C48.2975 49.178 48.153 49.0174 48.0648 48.8125C47.9766 48.6076 47.9569 48.3715 48.0057 48.1042L48.4898 45.4167H48.6699L48.1858 48.1042C48.1239 48.4583 48.1924 48.7465 48.3913 48.9688C48.592 49.191 48.8838 49.3021 49.2666 49.3021C49.5217 49.3021 49.7572 49.2509 49.973 49.1484C50.1906 49.046 50.3717 48.9045 50.5162 48.724C50.6625 48.5434 50.7564 48.3368 50.7976 48.1042Z" fill="white"/>
<path d="M55.426 46.2604L55.2459 46.2917C55.2158 46.1181 55.1595 45.9748 55.077 45.862C54.9944 45.7474 54.8847 45.6623 54.7477 45.6068C54.6126 45.5495 54.4484 45.5208 54.2552 45.5208C53.9024 45.5208 53.6032 45.605 53.3574 45.7734C53.1116 45.9418 52.9643 46.1597 52.9155 46.4271C52.8798 46.6337 52.9202 46.8056 53.0365 46.9427C53.1547 47.0799 53.3546 47.1823 53.636 47.25L54.289 47.4062C54.5929 47.4792 54.8106 47.6059 54.9419 47.7865C55.0751 47.9653 55.1201 48.1788 55.077 48.4271C55.0395 48.6441 54.9457 48.8333 54.7956 48.9948C54.6454 49.1545 54.455 49.2786 54.2242 49.3672C53.9953 49.4557 53.7392 49.5 53.4559 49.5C53.0694 49.5 52.7682 49.4123 52.5524 49.237C52.3385 49.0616 52.2231 48.8125 52.2063 48.4896L52.3864 48.4688C52.3976 48.75 52.4943 48.9644 52.6763 49.112C52.8583 49.2595 53.1181 49.3333 53.4559 49.3333C53.8386 49.3333 54.1642 49.2457 54.4325 49.0703C54.7008 48.8932 54.8593 48.6649 54.9081 48.3854C54.9438 48.1806 54.9044 48.0095 54.7899 47.8724C54.6755 47.7352 54.486 47.6354 54.2214 47.5729L53.5797 47.4167C53.2589 47.3385 53.0262 47.2101 52.8817 47.0312C52.7391 46.8524 52.6903 46.6372 52.7354 46.3854C52.7729 46.1788 52.8611 45.9983 52.9999 45.8437C53.1388 45.6892 53.3152 45.5694 53.529 45.4844C53.7448 45.3976 53.9831 45.3542 54.2439 45.3542C54.5835 45.3542 54.8528 45.4314 55.0517 45.5859C55.2505 45.7387 55.3753 45.9635 55.426 46.2604Z" fill="white"/>
<path d="M56.2049 49.4167L56.9254 45.4167H57.1055L56.385 49.4167H56.2049ZM57.1562 44.6875C57.0999 44.6875 57.0548 44.6693 57.0211 44.6328C56.9892 44.5964 56.9779 44.5521 56.9873 44.5C56.9948 44.4635 57.0173 44.4306 57.0548 44.401C57.0924 44.3698 57.1336 44.3542 57.1787 44.3542C57.235 44.3542 57.2791 44.3724 57.311 44.4089C57.3447 44.4453 57.3569 44.4896 57.3475 44.5417C57.34 44.5799 57.3175 44.6137 57.28 44.6432C57.2425 44.6727 57.2012 44.6875 57.1562 44.6875Z" fill="white"/>
<path d="M58.6035 46.7292L58.1194 49.4167H57.9393L58.6598 45.4167H58.8399L58.7273 46.0521H58.7498C58.8849 45.8437 59.0801 45.6771 59.3353 45.5521C59.5923 45.4271 59.87 45.3646 60.1683 45.3646C60.4573 45.3646 60.7021 45.4227 60.9029 45.5391C61.1037 45.6554 61.2481 45.816 61.3363 46.0208C61.4245 46.2257 61.4442 46.4618 61.3954 46.7292L60.9113 49.4167H60.7312L61.2153 46.7292C61.2772 46.375 61.2115 46.0868 61.0183 45.8646C60.8269 45.6424 60.5398 45.5312 60.1571 45.5312C59.9019 45.5312 59.6636 45.5825 59.4422 45.6849C59.2227 45.7873 59.0379 45.9288 58.8878 46.1094C58.7395 46.2899 58.6448 46.4965 58.6035 46.7292Z" fill="white"/>
<path d="M63.108 46.7292L62.6239 49.4167H62.4438L63.1643 45.4167H63.3444L63.2318 46.0521H63.2544C63.3895 45.8437 63.5846 45.6771 63.8398 45.5521C64.0968 45.4271 64.3745 45.3646 64.6728 45.3646C64.9618 45.3646 65.2066 45.4227 65.4074 45.5391C65.6082 45.6554 65.7526 45.816 65.8408 46.0208C65.929 46.2257 65.9487 46.4618 65.8999 46.7292L65.4159 49.4167H65.2357L65.7198 46.7292C65.7817 46.375 65.7161 46.0868 65.5228 45.8646C65.3314 45.6424 65.0443 45.5312 64.6616 45.5312C64.4064 45.5312 64.1681 45.5825 63.9467 45.6849C63.7272 45.7873 63.5424 45.9288 63.3923 46.1094C63.244 46.2899 63.1493 46.4965 63.108 46.7292Z" fill="white"/>
<path d="M68.5582 49.5C68.1792 49.5 67.8649 49.4089 67.6153 49.2266C67.3658 49.0443 67.1913 48.7969 67.0919 48.4844C66.9924 48.1719 66.9783 47.8194 67.0496 47.4271C67.1209 47.0347 67.2626 46.6823 67.4746 46.3698C67.6866 46.0573 67.9437 45.8099 68.2458 45.6276C68.5479 45.4453 68.8696 45.3542 69.2111 45.3542C69.4626 45.3542 69.6858 45.4045 69.881 45.5052C70.078 45.6042 70.2403 45.7413 70.3679 45.9167C70.4973 46.0903 70.5865 46.2917 70.6352 46.5208C70.684 46.7483 70.6859 46.9913 70.6409 47.25L70.6071 47.4167H67.1397L67.1735 47.25H70.4607C70.517 46.9306 70.4992 46.6406 70.4073 46.3802C70.3172 46.1181 70.168 45.9097 69.9598 45.7552C69.7534 45.599 69.5038 45.5208 69.2111 45.5208C68.9147 45.5208 68.6295 45.6024 68.3555 45.7656C68.0816 45.9288 67.8452 46.151 67.6463 46.4323C67.4474 46.7135 67.3123 47.0312 67.241 47.3854L67.2298 47.3958C67.166 47.7465 67.1725 48.0686 67.2495 48.362C67.3264 48.6554 67.4746 48.8906 67.6941 49.0677C67.9137 49.2448 68.2054 49.3333 68.5694 49.3333C68.8321 49.3333 69.0629 49.2899 69.2618 49.2031C69.4626 49.1163 69.6295 49.0165 69.7628 48.9036C69.8979 48.7908 69.9992 48.6944 70.0667 48.6146L70.1906 48.7083C70.1118 48.809 69.9982 48.921 69.85 49.0443C69.7018 49.1675 69.5198 49.2743 69.304 49.3646C69.0882 49.4549 68.8396 49.5 68.5582 49.5Z" fill="white"/>
<path d="M74.6747 46.2604L74.4946 46.2917C74.4645 46.1181 74.4082 45.9748 74.3257 45.862C74.2431 45.7474 74.1334 45.6623 73.9964 45.6068C73.8613 45.5495 73.6971 45.5208 73.5039 45.5208C73.1511 45.5208 72.8519 45.605 72.6061 45.7734C72.3603 45.9418 72.213 46.1597 72.1642 46.4271C72.1285 46.6337 72.1689 46.8056 72.2852 46.9427C72.4034 47.0799 72.6032 47.1823 72.8847 47.25L73.5376 47.4062C73.8416 47.4792 74.0592 47.6059 74.1906 47.7865C74.3238 47.9653 74.3688 48.1788 74.3257 48.4271C74.2882 48.6441 74.1943 48.8333 74.0442 48.9948C73.8941 49.1545 73.7037 49.2786 73.4729 49.3672C73.244 49.4557 72.9879 49.5 72.7046 49.5C72.318 49.5 72.0169 49.4123 71.8011 49.237C71.5872 49.0616 71.4718 48.8125 71.4549 48.4896L71.6351 48.4688C71.6463 48.75 71.743 48.9644 71.925 49.112C72.107 49.2595 72.3668 49.3333 72.7046 49.3333C73.0873 49.3333 73.4129 49.2457 73.6812 49.0703C73.9495 48.8932 74.108 48.6649 74.1568 48.3854C74.1925 48.1806 74.1531 48.0095 74.0386 47.8724C73.9242 47.7352 73.7346 47.6354 73.4701 47.5729L72.8284 47.4167C72.5076 47.3385 72.2749 47.2101 72.1304 47.0312C71.9878 46.8524 71.939 46.6372 71.9841 46.3854C72.0216 46.1788 72.1098 45.9983 72.2486 45.8437C72.3875 45.6892 72.5638 45.5694 72.7777 45.4844C72.9935 45.3976 73.2318 45.3542 73.4926 45.3542C73.8322 45.3542 74.1015 45.4314 74.3004 45.5859C74.4992 45.7387 74.624 45.9635 74.6747 46.2604Z" fill="white"/>
<path d="M78.9322 44.0833L77.9753 49.4167H77.7952L78.7521 44.0833H78.9322Z" fill="white"/>
<path d="M80.3057 46.7292L79.8216 49.4167H79.6415L80.362 45.4167H80.5421L80.4295 46.0521H80.452C80.5871 45.8437 80.7823 45.6771 81.0374 45.5521C81.2945 45.4271 81.5722 45.3646 81.8705 45.3646C82.1595 45.3646 82.4043 45.4227 82.6051 45.5391C82.8058 45.6554 82.9503 45.816 83.0385 46.0208C83.1267 46.2257 83.1464 46.4618 83.0976 46.7292L82.6135 49.4167H82.4334L82.9175 46.7292C82.9794 46.375 82.9137 46.0868 82.7205 45.8646C82.5291 45.6424 82.242 45.5312 81.8592 45.5312C81.6041 45.5312 81.3658 45.5825 81.1444 45.6849C80.9249 45.7873 80.74 45.9288 80.5899 46.1094C80.4417 46.2899 80.347 46.4965 80.3057 46.7292Z" fill="white"/>
<path d="M84.8102 46.7292L84.3261 49.4167H84.146L84.8665 45.4167H85.0466L84.934 46.0521H84.9565C85.0916 45.8437 85.2868 45.6771 85.5419 45.5521C85.799 45.4271 86.0767 45.3646 86.375 45.3646C86.664 45.3646 86.9088 45.4227 87.1096 45.5391C87.3104 45.6554 87.4548 45.816 87.543 46.0208C87.6312 46.2257 87.6509 46.4618 87.6021 46.7292L87.118 49.4167H86.9379L87.422 46.7292C87.4839 46.375 87.4182 46.0868 87.225 45.8646C87.0336 45.6424 86.7465 45.5312 86.3638 45.5312C86.1086 45.5312 85.8703 45.5825 85.6489 45.6849C85.4294 45.7873 85.2446 45.9288 85.0945 46.1094C84.9462 46.2899 84.8515 46.4965 84.8102 46.7292Z" fill="white"/>
<path d="M90.1816 49.5C89.8401 49.5 89.5492 49.4089 89.3091 49.2266C89.0708 49.0443 88.9 48.7951 88.7969 48.4792C88.6955 48.1632 88.6805 47.8056 88.7518 47.4062C88.8231 47.0174 88.9638 46.6684 89.174 46.3594C89.386 46.0486 89.6412 45.8038 89.9395 45.625C90.2397 45.4444 90.5568 45.3542 90.8908 45.3542C91.236 45.3542 91.5278 45.4462 91.7661 45.6302C92.0063 45.8142 92.177 46.0642 92.2783 46.3802C92.3815 46.6962 92.3993 47.0521 92.3318 47.4479C92.2605 47.8368 92.1188 48.1866 91.9068 48.4974C91.6948 48.8064 91.4387 49.0512 91.1385 49.2318C90.8383 49.4106 90.5193 49.5 90.1816 49.5ZM90.1816 49.3333C90.493 49.3333 90.7867 49.25 91.0625 49.0833C91.3383 48.9149 91.5728 48.6858 91.7661 48.3958C91.9594 48.1042 92.0879 47.7743 92.1517 47.4062C92.2155 47.0486 92.2033 46.7274 92.1151 46.4427C92.0269 46.158 91.8777 45.9332 91.6676 45.7682C91.4574 45.6033 91.2023 45.5208 90.9021 45.5208C90.5943 45.5208 90.3026 45.6059 90.0268 45.776C89.751 45.9444 89.5155 46.1745 89.3203 46.4661C89.1252 46.7561 88.9957 47.0833 88.9319 47.4479C88.8644 47.8056 88.8747 48.1267 88.9629 48.4115C89.053 48.6962 89.2031 48.921 89.4132 49.0859C89.6252 49.2509 89.8814 49.3333 90.1816 49.3333Z" fill="white"/>
<path d="M96.7779 45.4167L94.5151 49.4167H94.2674L93.4456 45.4167H93.6257L94.4082 49.2083H94.4307L96.5753 45.4167H96.7779Z" fill="white"/>
<path d="M98.164 49.5C97.9276 49.5 97.7175 49.4549 97.5336 49.3646C97.3516 49.2743 97.2146 49.1424 97.1227 48.9688C97.0326 48.7951 97.0082 48.5833 97.0495 48.3333C97.0758 48.1979 97.1227 48.0712 97.1902 47.9531C97.2597 47.8333 97.3619 47.7248 97.497 47.6276C97.634 47.5304 97.815 47.447 98.0402 47.3776C98.2653 47.3082 98.5468 47.2552 98.8845 47.2188C99.0872 47.1979 99.2795 47.1736 99.4615 47.1458C99.6435 47.1181 99.7945 47.0764 99.9146 47.0208C100.035 46.9653 100.104 46.8854 100.123 46.7812L100.168 46.5417C100.224 46.2344 100.162 45.9878 99.9822 45.8021C99.802 45.6146 99.5262 45.5208 99.1547 45.5208C98.8508 45.5208 98.5684 45.5842 98.3076 45.7109C98.0486 45.8377 97.8544 46.0104 97.725 46.2292L97.5674 46.1667C97.6649 46 97.7944 45.8559 97.9558 45.7344C98.119 45.6128 98.3029 45.5191 98.5074 45.4531C98.7138 45.3872 98.9296 45.3542 99.1547 45.3542C99.3742 45.3542 99.5656 45.3845 99.7289 45.4453C99.8921 45.5043 100.024 45.5877 100.126 45.6953C100.229 45.8012 100.299 45.9262 100.337 46.0703C100.376 46.2144 100.38 46.3715 100.348 46.5417L99.8302 49.4167H99.6501L99.7964 48.6042H99.7739C99.6538 48.7847 99.5093 48.9427 99.3405 49.0781C99.1735 49.2118 98.9896 49.316 98.7888 49.3906C98.59 49.4635 98.3817 49.5 98.164 49.5ZM98.164 49.3333C98.438 49.3333 98.7007 49.2656 98.9521 49.1302C99.2054 48.9931 99.4211 48.803 99.5994 48.5599C99.7795 48.3151 99.8977 48.0312 99.954 47.7083L100.067 47.1042C100.008 47.1406 99.939 47.1727 99.8583 47.2005C99.7795 47.2283 99.6913 47.2535 99.5938 47.276C99.4981 47.2969 99.3939 47.3151 99.2814 47.3307C99.1707 47.3464 99.0534 47.3611 98.9296 47.375C98.5355 47.4167 98.2203 47.48 97.9839 47.5651C97.7475 47.6502 97.5711 47.7569 97.4548 47.8854C97.3385 48.0139 97.2634 48.1632 97.2296 48.3333C97.179 48.6354 97.2418 48.8776 97.4182 49.0599C97.5946 49.2422 97.8432 49.3333 98.164 49.3333Z" fill="white"/>
<path d="M103.454 45.4167L103.42 45.5833H101.709L101.743 45.4167H103.454ZM102.542 44.4583H102.722L101.99 48.5729C101.96 48.7292 101.972 48.8637 102.027 48.9766C102.081 49.0877 102.165 49.1736 102.277 49.2344C102.39 49.2934 102.519 49.3229 102.666 49.3229C102.716 49.3229 102.765 49.3186 102.812 49.3099C102.861 49.2995 102.913 49.2865 102.97 49.2708L102.992 49.4271C102.93 49.4479 102.871 49.4635 102.815 49.474C102.76 49.4844 102.7 49.4896 102.632 49.4896C102.456 49.4896 102.299 49.4523 102.162 49.3776C102.027 49.303 101.926 49.197 101.858 49.0599C101.792 48.9227 101.776 48.7604 101.81 48.5729L102.542 44.4583Z" fill="white"/>
<path d="M105.622 49.5C105.281 49.5 104.99 49.4089 104.75 49.2266C104.512 49.0443 104.341 48.7951 104.238 48.4792C104.136 48.1632 104.121 47.8056 104.193 47.4062C104.264 47.0174 104.405 46.6684 104.615 46.3594C104.827 46.0486 105.082 45.8038 105.38 45.625C105.68 45.4444 105.998 45.3542 106.332 45.3542C106.677 45.3542 106.969 45.4462 107.207 45.6302C107.447 45.8142 107.618 46.0642 107.719 46.3802C107.822 46.6962 107.84 47.0521 107.773 47.4479C107.701 47.8368 107.56 48.1866 107.348 48.4974C107.136 48.8064 106.879 49.0512 106.579 49.2318C106.279 49.4106 105.96 49.5 105.622 49.5ZM105.622 49.3333C105.934 49.3333 106.227 49.25 106.503 49.0833C106.779 48.9149 107.014 48.6858 107.207 48.3958C107.4 48.1042 107.529 47.7743 107.592 47.4062C107.656 47.0486 107.644 46.7274 107.556 46.4427C107.468 46.158 107.318 45.9332 107.108 45.7682C106.898 45.6033 106.643 45.5208 106.343 45.5208C106.035 45.5208 105.743 45.6059 105.468 45.776C105.192 45.9444 104.956 46.1745 104.761 46.4661C104.566 46.7561 104.436 47.0833 104.373 47.4479C104.305 47.8056 104.315 48.1267 104.404 48.4115C104.494 48.6962 104.644 48.921 104.854 49.0859C105.066 49.2509 105.322 49.3333 105.622 49.3333Z" fill="white"/>
<path d="M108.681 49.4167L109.401 45.4167H109.582L109.469 46.0521H109.491C109.627 45.8437 109.822 45.6771 110.077 45.5521C110.334 45.4271 110.612 45.3646 110.91 45.3646C110.932 45.3646 110.947 45.3646 110.955 45.3646C110.962 45.3646 110.977 45.3646 111 45.3646L110.966 45.5312C110.944 45.5312 110.929 45.5312 110.921 45.5312C110.914 45.5312 110.899 45.5312 110.876 45.5312C110.621 45.5312 110.385 45.5825 110.167 45.6849C109.951 45.7873 109.77 45.9288 109.624 46.1094C109.479 46.2899 109.386 46.4965 109.345 46.7292L108.861 49.4167H108.681Z" fill="white"/>
</svg>
