<svg width="164" height="208" viewBox="0 0 164 208" fill="none" xmlns="http://www.w3.org/2000/svg">
<path d="M0.0368535 176.276C0.0368535 176.35 0.0369113 176.425 0.0961081 176.499C0.126892 176.624 0.168941 176.746 0.221844 176.864L0.310725 177.072C0.376012 177.194 0.450248 177.311 0.53275 177.422C0.567926 177.481 0.607435 177.539 0.651078 177.593C0.755332 177.711 0.869155 177.821 0.991431 177.92C1.01969 177.956 1.05206 177.988 1.08772 178.017L39.8986 207.42H39.9356C40.0879 207.519 40.2488 207.603 40.4165 207.673C40.5235 207.739 40.6347 207.799 40.7495 207.851C41.0433 207.948 41.3504 207.999 41.6596 208C41.8916 207.997 42.1227 207.967 42.3479 207.911H42.3923L160.342 175.986C160.342 175.986 160.408 175.948 160.438 175.941C160.663 175.87 160.88 175.773 161.082 175.651L161.267 175.524C161.467 175.384 161.646 175.216 161.8 175.026C161.8 175.026 161.851 174.981 161.874 174.951C162.027 174.738 162.151 174.506 162.244 174.26L162.303 174.096C162.386 173.836 162.434 173.565 162.443 173.292L163.997 42.3483C164.001 42.2988 164.001 42.249 163.997 42.1995C163.996 42.0599 163.984 41.9205 163.96 41.7829C163.96 41.7085 163.96 41.6341 163.901 41.5597C163.87 41.4322 163.828 41.3077 163.775 41.1877L163.679 40.9794C163.617 40.8594 163.546 40.7449 163.465 40.6371C163.42 40.5776 163.383 40.5181 163.339 40.466C163.239 40.3459 163.128 40.2363 163.006 40.1387C162.976 40.1022 162.943 40.0675 162.91 40.0345L124.106 10.5944C123.941 10.4758 123.765 10.3736 123.581 10.2894L123.47 10.2447C123.317 10.1782 123.158 10.1259 122.996 10.0885H122.811C122.669 10.0647 122.526 10.0523 122.382 10.0513H122.175C122.035 10.0596 121.897 10.0795 121.76 10.1108H121.635L3.64055 42.0433H3.59611C3.3346 42.1216 3.08547 42.2368 2.85614 42.3855L2.74522 42.4674C2.53104 42.6179 2.33918 42.7983 2.17544 43.003L2.131 43.0477C1.97497 43.2591 1.85034 43.4921 1.76102 43.7396C1.73687 43.7924 1.71701 43.8472 1.70176 43.9033C1.61448 44.1624 1.56711 44.4333 1.56121 44.7068C1.56121 44.7068 1.56121 44.7068 1.56121 44.744L0 175.688C0 175.74 0 175.785 0 175.837C0.00421835 175.984 0.0164256 176.13 0.0368535 176.276Z" fill="#4EB66E"/>
<path d="M121.59 0L3.64073 31.9251H3.58888C3.32833 32.0059 3.07953 32.121 2.84892 32.2673L2.73782 32.3491C2.52216 32.4978 2.33023 32.6784 2.16821 32.8848L2.12377 32.9294C1.97058 33.1426 1.84617 33.3753 1.75379 33.6214C1.73319 33.6748 1.71584 33.7295 1.70194 33.785C1.61225 34.0437 1.56238 34.3147 1.55399 34.5886C1.55471 34.601 1.55471 34.6134 1.55399 34.6258L0 165.57C0 165.622 0 165.667 0 165.719C0.0074723 165.858 0.0223356 165.997 0.044441 166.135C0.044441 166.21 0.0814896 166.284 0.0962888 166.358C0.132907 166.485 0.177341 166.609 0.229431 166.73C0.229431 166.797 0.281315 166.872 0.318313 166.939C0.385357 167.057 0.459345 167.172 0.540156 167.281C0.575333 167.341 0.615023 167.398 0.658666 167.452C0.762212 167.569 0.873423 167.678 0.991612 167.78L1.09513 167.884L39.8914 197.339C40.0378 197.443 40.1968 197.528 40.3649 197.592C40.4728 197.661 40.5866 197.721 40.7052 197.77C40.9966 197.866 41.3012 197.917 41.6079 197.919C41.8399 197.915 42.0709 197.885 42.2962 197.83H42.3405L160.29 165.905C160.324 165.893 160.356 165.878 160.386 165.86C160.612 165.791 160.829 165.694 161.03 165.57L161.215 165.451C161.414 165.306 161.593 165.136 161.748 164.945L161.815 164.878C161.968 164.665 162.092 164.432 162.185 164.186C162.206 164.133 162.223 164.078 162.236 164.022C162.326 163.764 162.376 163.493 162.384 163.219C162.384 163.219 162.384 163.219 162.384 163.182L163.938 32.2375C163.938 32.1854 163.938 32.1408 163.938 32.0887C163.934 31.9489 163.92 31.8096 163.894 31.6721C163.894 31.5977 163.894 31.5233 163.842 31.4489C163.808 31.3248 163.766 31.203 163.716 31.0843C163.689 31.0129 163.657 30.9433 163.62 30.876C163.56 30.7527 163.488 30.6356 163.405 30.5263C163.361 30.4668 163.324 30.4073 163.28 30.3552C163.178 30.2369 163.067 30.1274 162.947 30.0278C162.914 29.9936 162.879 29.9613 162.843 29.9311L124.047 0.558C123.883 0.435913 123.707 0.331187 123.522 0.24551C123.486 0.227455 123.449 0.212522 123.411 0.200872C123.257 0.137798 123.099 0.0880074 122.937 0.0520628H122.745C122.605 0.028615 122.464 0.0161861 122.323 0.0148718H122.116L121.694 0.0818291L121.59 0ZM123.662 132.276L124.698 45.0343L158.248 35.9575L156.768 157.378L123.662 132.276ZM38.8553 189.296L9.25691 166.879L39.2327 158.762L38.8553 189.296ZM5.7421 161.857L7.22202 40.4364L40.3649 65.5316L39.329 152.773L5.7421 161.857ZM46.0551 66.3202L118.949 46.5893L117.935 131.487L45.0341 151.211L46.0551 66.3202ZM124.772 39.0451L125.135 8.54111L154.733 30.9653L124.772 39.0451ZM119.015 40.6075L43.8204 60.9559L10.8035 35.9575L119.422 6.55464L119.015 40.6075ZM44.9674 157.207L120.162 136.851L153.179 161.85L44.5604 191.253L44.9674 157.207Z" fill="#0F0F0F"/>
</svg>
