<svg width="111" height="90" viewBox="0 0 111 90" fill="none" xmlns="http://www.w3.org/2000/svg">
<path d="M110.481 72.4796C110.821 71.8893 111 71.2201 111 70.539C111 69.8579 110.821 69.1888 110.481 68.5985L71.9904 1.94664C71.6501 1.35499 71.1598 0.863533 70.5689 0.521765C69.978 0.179996 69.3075 0 68.6248 0C67.9422 0 67.2716 0.179996 66.6807 0.521765C66.0898 0.863533 65.5995 1.35499 65.2593 1.94664L50.9744 26.6778L45.6877 17.5215C45.3475 16.9298 44.8572 16.4384 44.2663 16.0966C43.6754 15.7548 43.0048 15.5748 42.3222 15.5748C41.6395 15.5748 40.9688 15.7548 40.3779 16.0966C39.787 16.4384 39.2967 16.9298 38.9565 17.5215L0.515666 84.1732C0.17655 84.7644 -0.00125257 85.4345 6.6421e-06 86.116C0.00126585 86.7976 0.181531 87.4668 0.52283 88.0568C0.864129 88.6468 1.35445 89.1368 1.94472 89.4779C2.53499 89.8189 3.2045 89.999 3.88625 90H80.8683C81.55 89.9992 82.2195 89.819 82.8094 89.4775C83.3994 89.136 83.8889 88.6451 84.2288 88.0543C84.5735 87.4657 84.7553 86.7959 84.7553 86.1138C84.7553 85.4317 84.5735 84.7618 84.2288 84.1732L78.6011 74.4252H107.171C107.844 74.4157 108.503 74.2314 109.084 73.8903C109.664 73.5492 110.146 73.063 110.481 72.4796ZM74.087 82.2276H10.5472L42.3171 27.2295L46.4801 34.4401L26.7581 68.5985C26.4194 69.189 26.2417 69.858 26.2425 70.5387C26.2433 71.2195 26.4227 71.888 26.7628 72.4777C27.1029 73.0674 27.5919 73.5576 28.1808 73.8994C28.7697 74.2411 29.4379 74.4224 30.1188 74.4252H69.5728L74.087 82.2276ZM51.0144 42.2125L65.1289 66.6528H36.9001L51.0144 42.2125ZM74.087 66.6528L55.4886 34.4401L68.6499 11.6546L100.41 66.6528H74.087Z" fill="#111111"/>
</svg>
