<svg width="192" height="184" viewBox="0 0 192 184" fill="none" xmlns="http://www.w3.org/2000/svg">
<path d="M190.345 55.6065C155.652 10.4624 90.4222 1.74667 44.9423 36.1837C-0.53761 70.6208 -9.31818 135.363 25.3751 180.513C27.1505 182.818 30.1167 184 33.9894 184C36.273 183.966 38.5426 183.64 40.7424 183.031C47.3453 181.301 54.8547 177.419 61.8813 172.095C77.3667 160.382 85.0316 146.305 79.7053 139.372C79.6624 139.319 79.6034 139.277 79.5605 139.218C73.9977 131.792 71.6076 122.489 72.9083 113.325C74.2089 104.161 79.0955 95.876 86.5088 90.2644C93.9221 84.6528 103.265 82.1675 112.512 83.347C121.758 84.5265 130.165 89.2759 135.908 96.5657C135.94 96.6261 135.976 96.6848 136.015 96.7415C137.79 99.0522 140.756 100.229 144.629 100.229C146.912 100.194 149.182 99.8698 151.382 99.2651C157.985 97.5348 165.489 93.6534 172.521 88.3292C187.749 76.7969 195.382 63.0178 190.565 55.9686C190.503 55.8415 190.429 55.7204 190.345 55.6065Z" fill="#4EB66E"/>
<path d="M186.188 40.4862C151.511 -4.66318 86.2705 -13.3736 40.7852 21.0528C-4.70006 55.4792 -13.4753 120.232 21.218 165.382C22.9934 167.693 25.9596 168.869 29.8323 168.869C32.1155 168.835 34.3849 168.511 36.5854 167.905C43.1882 166.175 50.6976 162.288 57.7242 156.97C73.2096 145.256 80.8745 131.174 75.5482 124.247C75.5053 124.188 75.4463 124.146 75.4034 124.092C69.8406 116.666 67.4505 107.363 68.7512 98.1995C70.0518 89.0359 74.9384 80.7503 82.3517 75.1388C89.765 69.5272 99.1077 67.0418 108.355 68.2214C117.601 69.4009 126.007 74.1504 131.75 81.4402C131.793 81.4934 131.815 81.5573 131.858 81.6158C133.633 83.9266 136.599 85.1032 140.472 85.1032C142.756 85.0694 145.025 84.7437 147.225 84.1342C153.828 82.4038 161.337 78.5224 168.364 73.2035C183.592 61.6713 191.23 47.8869 186.408 40.8429C186.348 40.7165 186.274 40.5969 186.188 40.4862ZM55.2032 153.695C48.6003 158.695 41.6167 162.326 35.5287 163.918C30.2078 165.318 26.0937 164.929 24.5221 162.885C22.9505 160.84 23.6639 156.804 26.4263 152.077C29.5856 146.672 34.9601 140.944 41.563 135.944C51.4593 128.453 61.0176 124.875 66.9446 124.875C69.3047 124.875 71.0802 125.45 72.0725 126.568C72.1261 126.632 72.1691 126.701 72.2227 126.771L72.2977 126.845C75.3766 131.12 69.1706 143.121 55.2032 153.695ZM79.6891 71.7021C72.3265 77.3032 67.1727 85.2871 65.1229 94.2672C63.073 103.247 64.2566 112.657 68.468 120.861C61.0498 120.169 50.0056 124.38 39.042 132.68C32.0154 138.005 26.26 144.159 22.8325 150.021C21.6086 152.052 20.6702 154.239 20.0433 156.522C-7.84858 113.652 1.74194 55.8253 43.3063 24.3538C84.8706 -7.11764 143.61 -1.0161 177.863 37.0201C170.483 36.8764 160.045 41.0666 149.682 48.9091C142.655 54.2334 136.894 60.3935 133.472 66.2555C132.017 68.6326 130.989 71.2432 130.436 73.9703C123.584 67.7549 114.752 64.1223 105.479 63.7049C96.2066 63.2876 87.08 66.1119 79.6891 71.6861V71.7021ZM165.843 69.9452C159.24 74.9446 152.251 78.5757 146.168 80.1677C140.923 81.5413 136.862 81.1792 135.242 79.2093C135.242 79.2093 135.205 79.1454 135.183 79.1135L135.081 78.991C133.639 76.9092 134.363 72.9533 137.066 68.3426C140.225 62.9331 145.6 57.2043 152.203 52.2048C166.261 41.5564 179.655 38.8197 182.884 43.0152C186.113 47.2107 179.907 59.2807 165.843 69.9292V69.9452Z" fill="#0F0F0F"/>
</svg>
