<svg width="92" height="92" viewBox="0 0 92 92" fill="none" xmlns="http://www.w3.org/2000/svg">
<path d="M26.874 32.2874L13.477 18.8689C12.7505 18.1426 12.3418 17.1569 12.3408 16.1287C12.3399 15.1005 12.747 14.1141 13.4722 13.3864C14.1974 12.6587 15.1814 12.2494 16.2079 12.2485C17.2344 12.2476 18.2193 12.655 18.9458 13.3814L32.3531 26.7999C33.0796 27.5276 33.4876 28.5145 33.4876 29.5436C33.4876 30.5727 33.0796 31.5597 32.3531 32.2874C31.6265 33.0151 30.6411 33.4239 29.6137 33.4239C28.5862 33.4239 27.6006 33.0151 26.874 32.2874ZM0 45.9762C0.00264713 47.0049 0.412448 47.9906 1.13964 48.717C1.86684 49.4435 2.85195 49.8515 3.87904 49.8515H22.8749C23.4002 49.8783 23.9255 49.7977 24.4188 49.6148C24.912 49.4318 25.3631 49.1504 25.7444 48.7874C26.1257 48.4245 26.4291 47.9876 26.6365 47.5035C26.844 47.0193 26.9512 46.498 26.9512 45.9712C26.9512 45.4444 26.844 44.9231 26.6365 44.4389C26.4291 43.9548 26.1257 43.5179 25.7444 43.155C25.3631 42.792 24.912 42.5106 24.4188 42.3277C23.9255 42.1447 23.4002 42.0641 22.8749 42.0909H3.87904C2.85022 42.0909 1.86371 42.5003 1.13623 43.2289C0.408745 43.9576 0 44.9458 0 45.9762ZM16.2465 79.6725C17.2729 79.6722 18.2576 79.2654 18.9859 78.5409L32.3929 65.1125C32.7519 64.7522 33.0367 64.3246 33.2308 63.854C33.4249 63.3835 33.5247 62.8793 33.5242 62.3702C33.5237 61.8611 33.4231 61.357 33.2281 60.8868C33.0332 60.4167 32.7477 59.9896 32.388 59.63C32.0282 59.2703 31.6012 58.9851 31.1314 58.7907C30.6616 58.5963 30.1583 58.4965 29.65 58.4969C29.1418 58.4974 28.6386 58.5982 28.1692 58.7935C27.6997 58.9888 27.2732 59.2747 26.9141 59.635L13.5071 73.0534C12.9645 73.5954 12.5949 74.2865 12.445 75.0392C12.2952 75.7919 12.3718 76.5722 12.6652 77.2812C12.9586 77.9902 13.4556 78.5959 14.0931 79.0216C14.7307 79.4473 15.4802 79.6739 16.2465 79.6725ZM46.05 91.9994C46.5623 92.0087 47.0713 91.916 47.5475 91.7267C48.0237 91.5373 48.4576 91.2551 48.8241 90.8964C49.1906 90.5378 49.4823 90.1098 49.6823 89.6374C49.8823 89.1649 49.9866 88.6573 49.9891 88.1441V69.118C49.9891 68.0902 49.5814 67.1045 48.8558 66.3778C48.1302 65.651 47.146 65.2427 46.1198 65.2427C45.0937 65.2427 44.1097 65.651 43.3841 66.3778C42.6585 67.1045 42.2508 68.0902 42.2508 69.118V88.1441C42.256 89.1615 42.6604 90.1361 43.3768 90.8574C44.0932 91.5787 45.0643 91.9889 46.0801 91.9994H46.05ZM59.687 59.5648C58.9617 60.2932 58.5544 61.2799 58.5544 62.3086C58.5544 63.3373 58.9617 64.324 59.687 65.0523L73.0842 78.4708C73.8107 79.1985 74.7961 79.6074 75.8236 79.6074C76.8511 79.6074 77.8364 79.1985 78.563 78.4708C79.2895 77.7431 79.6975 76.7561 79.6975 75.727C79.6975 74.6979 79.2895 73.711 78.563 72.9833L65.1657 59.5648C64.4398 58.8475 63.4612 58.4454 62.4415 58.4454C61.4217 58.4454 60.4429 58.8475 59.717 59.5648H59.687ZM88.1307 49.7514C89.1569 49.7514 90.1411 49.3431 90.8667 48.6163C91.5923 47.8895 92 46.9039 92 45.8761C92 44.8483 91.5923 43.8625 90.8667 43.1358C90.1411 42.409 89.1569 42.0008 88.1307 42.0008H69.1849C68.1587 42.0008 67.1745 42.409 66.4489 43.1358C65.7233 43.8625 65.3159 44.8483 65.3159 45.8761C65.3159 46.9039 65.7233 47.8895 66.4489 48.6163C67.1745 49.3431 68.1587 49.7514 69.1849 49.7514H88.1307ZM62.3565 33.3589C62.8658 33.3591 63.37 33.2583 63.8401 33.0624C64.3103 32.8664 64.7371 32.5792 65.0959 32.2173L78.4929 18.7989C78.8527 18.4392 79.1381 18.0121 79.3331 17.5419C79.528 17.0717 79.6287 16.5678 79.6292 16.0587C79.6296 15.5496 79.5298 15.0453 79.3358 14.5748C79.1417 14.1043 78.8569 13.6767 78.4978 13.3164C78.1387 12.9561 77.7124 12.6701 77.243 12.4749C76.7735 12.2796 76.2704 12.1788 75.7621 12.1783C75.2538 12.1779 74.7502 12.2777 74.2805 12.4721C73.8107 12.6665 73.3839 12.9517 73.0241 13.3114L59.6169 26.7398C59.0792 27.2837 58.714 27.9744 58.5668 28.7255C58.4197 29.4765 58.4973 30.2543 58.7899 30.9613C59.0826 31.6684 59.5773 32.2732 60.2118 32.6997C60.8462 33.1262 61.5924 33.3556 62.3565 33.3589ZM45.96 26.5896C46.9861 26.5896 47.9703 26.1813 48.6959 25.4545C49.4216 24.7277 49.8292 23.7421 49.8292 22.7143V3.68817C49.7788 2.69314 49.3484 1.75549 48.6274 1.06909C47.9063 0.382701 46.9498 0 45.9551 0C44.9604 0 44.0036 0.382701 43.2826 1.06909C42.5616 1.75549 42.1314 2.69314 42.0809 3.68817V22.7143C42.0822 23.2262 42.1845 23.7328 42.3819 24.205C42.5793 24.6772 42.8678 25.1056 43.2311 25.4658C43.5943 25.8259 44.0252 26.1106 44.4986 26.3034C44.9721 26.4963 45.4789 26.5936 45.99 26.5896H45.96Z" fill="#111111"/>
</svg>
