<svg width="45" height="45" viewBox="0 0 45 45" fill="none" xmlns="http://www.w3.org/2000/svg">
<path d="M6.56692 1.18389L14.9494 9.54646C15.6764 10.2725 16.0848 11.2572 16.0848 12.284C16.0848 13.3108 15.6764 14.2955 14.9494 15.0216C14.2225 15.7476 13.2366 16.1556 12.2086 16.1556C11.1806 16.1556 10.1947 15.7476 9.46782 15.0216L1.0953 6.64901C0.408954 5.91645 0.0346377 4.94619 0.051285 3.94304C0.0679323 2.93988 0.474285 1.98247 1.18456 1.27304C1.89484 0.563608 2.85338 0.157616 3.85773 0.140988C4.86207 0.124361 5.83349 0.498355 6.56692 1.18389ZM14.9895 35.4934C15.3494 35.1339 15.6349 34.7072 15.8297 34.2375C16.0245 33.7677 16.1249 33.2643 16.1249 32.7559C16.1249 32.2474 16.0245 31.7441 15.8297 31.2744C15.6349 30.8047 15.3494 30.3778 14.9895 30.0183C14.6296 29.6588 14.2023 29.3736 13.732 29.1791C13.2618 28.9845 12.7577 28.8844 12.2487 28.8844C11.7397 28.8844 11.2356 28.9845 10.7653 29.1791C10.2951 29.3736 9.8678 29.6588 9.50787 30.0183L1.13535 38.3909C0.40844 39.1169 0 40.1016 0 41.1284C0 42.1552 0.40844 43.1399 1.13535 43.866C1.86226 44.592 2.84816 45 3.87617 45C4.90418 45 5.89007 44.592 6.61698 43.866L14.9895 35.4934ZM38.3866 43.8161C39.1121 44.5422 40.0968 44.9505 41.1238 44.9515C42.1509 44.9524 43.1363 44.5458 43.8632 43.8211C44.5901 43.0964 44.9991 42.1129 45 41.0871C45.0009 40.0612 44.5938 39.0769 43.8682 38.3509L35.4857 29.9783C34.7588 29.2522 33.7729 28.8444 32.7448 28.8444C31.7168 28.8444 30.7309 29.2522 30.004 29.9783C29.2771 30.7043 28.8687 31.6892 28.8687 32.716C28.8687 33.7428 29.2771 34.7275 30.004 35.4535L38.3866 43.8161ZM35.4456 14.9817L43.8281 6.60913C44.5551 5.88308 44.9635 4.89835 44.9635 3.87157C44.9635 2.84478 44.5551 1.85993 43.8281 1.13388C43.1012 0.407833 42.1153 0 41.0873 0C40.0593 0 39.0734 0.407833 38.3465 1.13388L29.964 9.50646C29.2371 10.2325 28.8288 11.2172 28.8288 12.244C28.8288 13.2708 29.2371 14.2557 29.964 14.9817C30.6909 15.7078 31.6768 16.1156 32.7048 16.1156C33.7328 16.1156 34.7187 15.7078 35.4456 14.9817Z" fill="#111111"/>
</svg>
