<svg width="122" height="29" viewBox="0 0 122 29" fill="none" xmlns="http://www.w3.org/2000/svg">
<path d="M103.94 10.2702L101.57 13.0802C100.986 13.795 100.246 14.3673 99.4073 14.7537C98.5687 15.1401 97.6531 15.3304 96.73 15.3102C95.8076 15.3087 94.8973 15.1015 94.0652 14.7036C93.2331 14.3058 92.5002 13.7272 91.92 13.0102L87.26 7.32019C85.4721 5.14528 83.2275 3.39063 80.6852 2.18085C78.1429 0.971064 75.3654 0.335815 72.55 0.320189C69.7355 0.32083 66.9544 0.930743 64.3979 2.108C61.8415 3.28526 59.5701 5.00196 57.74 7.1402L53 12.7602C52.4039 13.4614 51.6621 14.0242 50.8262 14.4093C49.9903 14.7945 49.0804 14.9927 48.16 14.9902C47.2377 14.9888 46.3272 14.7815 45.4951 14.3836C44.663 13.9857 43.9302 13.4072 43.35 12.6902L38.6901 7.00018C36.907 4.82234 34.6646 3.06553 32.1233 1.85541C29.582 0.64528 26.8046 0.0117493 23.99 0.000181926H23.84C21.0466 -0.0119903 18.2845 0.586786 15.7469 1.75452C13.2094 2.92225 10.9578 4.63069 9.15002 6.76019L6.78003 9.57019C5.94722 10.5688 4.91264 11.38 3.74414 11.9505C2.57564 12.5209 1.29962 12.8378 0 12.8802L0.48999 25.7802C3.58311 25.6608 6.61752 24.8984 9.39978 23.5417C12.182 22.185 14.6512 20.2638 16.65 17.9002L19.02 15.0902C19.6196 14.3931 20.3622 13.8332 21.1973 13.4484C22.0324 13.0636 22.9405 12.863 23.86 12.8602C24.7823 12.8616 25.6928 13.0689 26.5249 13.4668C27.357 13.8647 28.0899 14.4432 28.67 15.1602L33.3301 20.8502C35.1147 23.0293 37.3572 24.7889 39.8983 26.0039C42.4394 27.219 45.2169 27.8598 48.0334 27.8808C50.85 27.9018 53.6367 27.3025 56.1957 26.1254C58.7546 24.9484 61.023 23.2225 62.84 21.0702L67.5801 15.4402C68.1834 14.7457 68.9283 14.1883 69.7648 13.8054C70.6013 13.4225 71.5101 13.2229 72.4301 13.2202C73.3521 13.2176 74.2628 13.422 75.0953 13.8183C75.9278 14.2147 76.6607 14.7928 77.24 15.5102L81.9 21.2102C83.6845 23.3865 85.9272 25.1422 88.4681 26.3521C91.0091 27.5621 93.7857 28.1966 96.6 28.2102H96.74C99.5339 28.2133 102.295 27.6054 104.829 26.429C107.363 25.2526 109.609 23.5363 111.41 21.4002L113.78 18.5802C114.648 17.5156 115.748 16.6639 116.996 16.0901C118.244 15.5164 119.607 15.2359 120.98 15.2702L121.07 2.3602C117.808 2.33543 114.582 3.03163 111.62 4.39905C108.659 5.76646 106.036 7.77131 103.94 10.2702Z" fill="#FFDB43"/>
</svg>
