<svg width="100" height="100" viewBox="0 0 100 100" fill="none" xmlns="http://www.w3.org/2000/svg">
<circle cx="50" cy="50" r="50" fill="black"/>
<g clip-path="url(#clip0)">
<path d="M64.0841 41.4553C63.074 41.9028 61.989 42.2053 60.8482 42.3419C62.0253 41.6377 62.9058 40.5292 63.3257 39.2234C62.2198 39.8802 61.0095 40.3426 59.7474 40.5903C58.8987 39.6841 57.7745 39.0835 56.5494 38.8816C55.3244 38.6798 54.0669 38.8881 52.9723 39.4741C51.8777 40.0601 51.0072 40.9912 50.496 42.1226C49.9848 43.2541 49.8614 44.5227 50.145 45.7315C47.9043 45.619 45.7123 45.0366 43.7112 44.0221C41.7102 43.0076 39.9448 41.5837 38.5297 39.8428C38.0458 40.6774 37.7676 41.6452 37.7676 42.6758C37.7671 43.6036 37.9955 44.5172 38.4328 45.3356C38.87 46.1539 39.5025 46.8517 40.274 47.3669C39.3792 47.3385 38.5041 47.0967 37.7216 46.6617V46.7343C37.7215 48.0356 38.1717 49.2968 38.9956 50.304C39.8196 51.3112 40.9667 52.0023 42.2422 52.2601C41.4121 52.4847 40.5418 52.5178 39.697 52.3569C40.0569 53.4766 40.7579 54.4557 41.7019 55.1572C42.6459 55.8587 43.7856 56.2474 44.9615 56.269C42.9654 57.836 40.5001 58.686 37.9623 58.6823C37.5128 58.6824 37.0637 58.6561 36.6172 58.6036C39.1932 60.2599 42.1918 61.1389 45.2543 61.1355C55.6212 61.1355 61.2886 52.5492 61.2886 45.1024C61.2886 44.8605 61.2825 44.6161 61.2716 44.3742C62.374 43.577 63.3256 42.5898 64.0817 41.4589L64.0841 41.4553Z" fill="white"/>
</g>
<defs>
<clipPath id="clip0">
<rect width="29.0323" height="29.0323" fill="white" transform="translate(35.4844 35.4834)"/>
</clipPath>
</defs>
</svg>
