<svg width="100" height="100" viewBox="0 0 100 100" fill="none" xmlns="http://www.w3.org/2000/svg">
<circle cx="50" cy="50" r="50" fill="black"/>
<path fill-rule="evenodd" clip-rule="evenodd" d="M60.098 52.4452C61.0268 53.4753 62.0071 54.4445 62.8401 55.5785C63.2081 56.0824 63.5565 56.6024 63.823 57.1873C64.2007 58.0186 63.8586 58.9334 63.2024 58.9831L59.1233 58.981C58.0712 59.0802 57.2319 58.599 56.5262 57.7819C55.9615 57.1284 55.4385 56.4329 54.8954 55.7574C54.6728 55.4813 54.4398 55.2215 54.1614 55.0162C53.6045 54.6056 53.1212 54.7313 52.803 55.391C52.4789 56.062 52.4053 56.8051 52.3735 57.5529C52.3298 58.6441 52.0395 58.9309 51.0746 58.9809C49.0126 59.0913 47.0557 58.737 45.2377 57.5553C43.635 56.5136 42.3921 55.043 41.3103 53.3781C39.2041 50.1363 37.5911 46.574 36.1414 42.9119C35.8151 42.0869 36.0537 41.644 36.8551 41.6283C38.1858 41.5989 39.5164 41.601 40.8487 41.6262C41.3895 41.6352 41.7476 41.9876 41.9564 42.568C42.6764 44.579 43.5573 46.4923 44.6631 48.2657C44.9576 48.7379 45.2579 49.21 45.6855 49.5424C46.1585 49.9103 46.5187 49.7884 46.7412 49.1898C46.8824 48.8102 46.9443 48.4014 46.9761 47.9949C47.0815 46.5963 47.0954 45.2001 46.9105 43.8064C46.797 42.9366 46.3657 42.3735 45.6017 42.2089C45.2118 42.125 45.2698 41.9602 45.4586 41.7074C45.7865 41.2714 46.0949 41 46.7096 41H51.3196C52.0454 41.1627 52.2065 41.5331 52.3059 42.3626L52.3099 48.1797C52.3019 48.5009 52.4511 49.4539 52.9603 49.6664C53.3678 49.8177 53.6364 49.4474 53.881 49.1538C54.9847 47.8231 55.7725 46.2503 56.4763 44.6218C56.7886 43.9058 57.0571 43.1621 57.3174 42.4191C57.5102 41.8677 57.8128 41.5964 58.3595 41.6084L62.7964 41.6129C62.928 41.6129 63.0611 41.6151 63.1885 41.6399C63.9362 41.7846 64.141 42.15 63.9101 42.9793C63.5463 44.2805 62.8384 45.3649 62.1462 46.4542C61.4063 47.6173 60.6149 48.7405 59.8812 49.9104C59.207 50.9788 59.2605 51.5173 60.098 52.4452Z" fill="white"/>
</svg>
