<svg width="96" height="27" viewBox="0 0 96 27" fill="none" xmlns="http://www.w3.org/2000/svg">
<g clip-path="url(#clip0_217_59)">
<path d="M31.3167 5.93462C30.3048 5.50155 29.241 5.20381 28.281 5.20381C26.8799 5.20381 26.1791 5.52862 26.1791 6.06996C26.1791 7.69399 32.4324 6.39477 32.4324 9.83229C32.4324 11.2668 31.161 12.3495 28.5664 12.3495C27.0359 12.3495 25.8421 12.0247 24.467 11.2398L25.0378 9.96763C26.2313 10.6714 27.3467 10.9691 28.5664 10.9691C30.0972 10.9691 30.9016 10.509 30.9016 9.83229C30.9016 8.07293 24.6486 9.37215 24.6486 6.15116C24.6486 4.77074 25.9197 3.79632 28.2291 3.79632C29.6043 3.79632 30.7718 4.12113 31.8616 4.68954L31.3167 5.93462ZM38.2702 12.4037C35.7791 12.4037 33.7035 10.6714 33.7035 8.07293C33.7035 5.50155 35.7791 3.74219 38.2702 3.74219C40.787 3.74219 42.8107 5.50155 42.8107 8.07293C42.8367 10.6714 40.787 12.4037 38.2702 12.4037ZM38.2702 5.14968C36.454 5.14968 35.2086 6.42183 35.2086 8.07293C35.2086 9.75109 36.4021 11.0232 38.2702 11.0232C40.1383 11.0232 41.3059 9.75109 41.3059 8.07293C41.3318 6.42183 40.1383 5.14968 38.2702 5.14968ZM48.7783 12.4037C46.1575 12.4037 44.1859 10.6714 44.1859 8.07293C44.1859 5.52862 46.1837 3.74219 48.7783 3.74219C50.3351 3.74219 51.4248 4.20233 52.4367 4.96021L51.6583 6.15116C50.9318 5.58275 50.0237 5.14968 48.8305 5.14968C46.9105 5.14968 45.7169 6.42183 45.7169 8.04586C45.7169 9.72402 46.9105 10.9691 48.8305 10.9691C50.024 10.9691 50.984 10.5631 51.7105 9.99469L52.4888 11.1856C51.5026 11.9706 50.3351 12.4037 48.7783 12.4037ZM53.9675 4.03993H55.5243V12.1601H53.9675V4.03993ZM57.5999 12.1601V4.03993H64.8648V5.39328H59.1567V7.28798H63.5675V8.64134H59.1567V10.8067H65.1243V12.1601H57.5999ZM70.5729 5.39328V12.1601H69.0161V5.39328H65.9026V4.03993H73.6864V5.39328H70.5729ZM74.9837 12.1601V4.03993H81.9891V5.39328H76.281V7.28798H80.6918V8.64134H76.281V10.8067H82.2486V12.1601H74.9837ZM28.9297 21.8501C29.734 21.8501 30.6161 21.6606 31.1351 21.3629V18.9268H32.6918V22.1478C31.654 22.8516 30.2788 23.2576 28.9297 23.2576C26.3089 23.2576 24.3113 21.5253 24.3113 18.9268C24.3113 16.3825 26.3089 14.6232 28.9035 14.6232C30.4086 14.6232 31.5499 15.0565 32.5359 15.8412L31.7575 17.0321C31.031 16.4637 30.1229 16.0577 28.9297 16.0577C27.0097 16.0036 25.8161 17.3028 25.8161 18.9268C25.8161 20.6591 27.0097 21.8501 28.9297 21.8501ZM34.508 22.9869V14.8668H41.7729V16.2201H36.0648V18.1148H40.4756V19.4682H36.0648V21.6336H42.0324V22.9869H34.508ZM44.627 22.9869H43.3297V14.8668H44.8086L49.9199 21.0381C49.8421 19.4953 49.7902 18.2502 49.7902 17.0321V14.8668H51.347V22.9869H49.7902L44.7048 16.8697L44.627 16.8968C44.6788 18.1148 44.627 20.2531 44.627 20.9298V22.9869ZM53.4486 22.9869V14.8668H60.454V16.2201H54.7459V18.1148H59.1567V19.4682H54.7459V21.6336H60.7134V22.9869H53.4486ZM66.0583 20.0095H63.827V22.9869H62.2702V14.8668H67.3037C68.9643 14.8668 70.0021 15.9495 70.0021 17.4923C70.0021 18.9536 68.9902 19.793 67.7448 19.9825L70.0799 23.0137H68.2637L66.0583 20.0095ZM67.148 18.6562C68.0561 18.6562 68.5751 18.169 68.5751 17.4652C68.5751 16.6805 68.134 16.2201 67.3037 16.2201H63.827V18.6562H67.148ZM73.0637 21.0922L72.1556 22.9869H70.5729L74.387 14.8668H75.9175L79.7316 22.9869H78.1748L77.2667 21.0922H73.0637ZM73.6605 19.7389H76.6702L75.1653 16.4367L73.6605 19.7389ZM80.9513 22.9869V14.8668H82.2486V21.6336H87.4378V22.9869H80.9513ZM88.4756 22.9869V14.8668H95.7405V16.2201H90.0324V18.1148H94.4432V19.4682H90.0324V21.6336H95.9999V22.9869H88.4756Z" fill="white"/>
<path d="M0 3.76929H18.9405V13.7841H0V3.76929Z" fill="#E90031"/>
<path d="M0 13.5134H18.9405V23.2576H0V13.5134Z" fill="#231F20"/>
<path d="M3.37305 12.9722H15.5676V14.0549H3.37305V12.9722Z" fill="#111111"/>
</g>
<defs>
<clipPath id="clip0_217_59">
<rect width="96" height="27" fill="white"/>
</clipPath>
</defs>
</svg>
