<svg xmlns="http://www.w3.org/2000/svg" style="display: none;">
    <symbol id="star" viewBox="0 0 23 22">
        <path d="M11.4927 0L14.1646 8.31088L22.8696 8.2918L15.8159 13.4091L18.524 21.7082L11.4927 16.56L4.46134 21.7082L7.16943 13.4091L0.115754 8.2918L8.82076 8.31088L11.4927 0Z" fill="currentColor"/>
    </symbol>
    <symbol id="circle" viewBox="0 0 272 275">
        <path d="M38.5901 62.5434C37.0978 62.5469 35.633 62.143 34.354 61.3754C33.075 60.6077 32.0306 59.5053 31.3338 58.1878C30.6369 56.8703 30.3141 55.3878 30.4003 53.9004C30.4866 52.4129 30.9787 50.9774 31.8232 49.749C37.8002 41.0515 45.2239 33.4395 53.7733 27.2428C58.8287 23.5883 64.2335 20.4414 69.9086 17.8478C70.8954 17.2699 71.9924 16.9048 73.1292 16.7764C74.2659 16.648 75.4171 16.759 76.5082 17.1022C77.5993 17.4453 78.6061 18.0132 79.4639 18.7689C80.3217 19.5246 81.0114 20.4515 81.4882 21.4897C81.9651 22.5278 82.2188 23.6542 82.2327 24.7962C82.2466 25.9383 82.0203 27.0707 81.5688 28.1201C81.1173 29.1695 80.4502 30.1128 79.611 30.8891C78.7719 31.6653 77.7791 32.2572 76.6966 32.6266C72.0185 34.7664 67.563 37.3619 63.3952 40.3751C56.3651 45.4705 50.2636 51.7332 45.3569 58.8906C44.6125 60.0039 43.607 60.9187 42.4276 61.5552C41.2482 62.1918 39.9307 62.5312 38.5901 62.5434ZM8.22355 135.593H8.45587C9.53439 135.563 10.5967 135.32 11.5809 134.879C12.5652 134.438 13.4522 133.807 14.1912 133.022C14.9302 132.237 15.5063 131.314 15.8867 130.306C16.267 129.298 16.4438 128.225 16.4071 127.148C16.1577 118.476 17.4097 109.827 20.1078 101.581C21.7093 96.7033 23.7844 91.9938 26.3036 87.5195C26.8589 86.5854 27.2221 85.5499 27.3718 84.474C27.5215 83.3981 27.4548 82.3034 27.1756 81.2535C26.8965 80.2036 26.4106 79.2197 25.7461 78.3595C25.0816 77.4994 24.2518 76.7804 23.3056 76.2442C22.3594 75.708 21.3156 75.3654 20.2353 75.2367C19.155 75.108 18.0597 75.1958 17.0137 75.4947C15.9677 75.7936 14.9922 76.2977 14.1437 76.9776C13.2952 77.6575 12.5906 78.4995 12.0719 79.4544C8.99706 84.8749 6.47539 90.59 4.54402 96.5135C1.25311 106.542 -0.271163 117.064 0.0394858 127.612C0.0892045 129.746 0.973248 131.776 2.50265 133.267C4.03206 134.759 6.08564 135.594 8.22355 135.593ZM21.1016 176.488C19.4953 171.61 18.3968 166.58 17.8238 161.477C17.5798 159.321 16.4884 157.351 14.7891 155.999C13.0897 154.646 10.9218 154.024 8.76254 154.267C6.60328 154.511 4.62933 155.601 3.27501 157.297C1.92069 158.994 1.29686 161.158 1.54083 163.314C3.45409 180.059 9.89428 195.969 20.1713 209.339C20.9352 210.333 21.9184 211.138 23.0444 211.691C24.1703 212.244 25.4087 212.53 26.6635 212.527C28.4721 212.533 30.2297 211.931 31.6539 210.817C32.5053 210.162 33.2193 209.345 33.7546 208.414C34.2898 207.483 34.6357 206.456 34.7732 205.392C34.9107 204.327 34.8371 203.246 34.5559 202.21C34.2746 201.173 33.7912 200.203 33.134 199.353C27.8335 192.481 23.7629 184.745 21.1016 176.488ZM89.1731 247.912C75.8475 243.978 63.8497 236.488 54.4713 226.251C53.0047 224.652 50.9621 223.701 48.7928 223.606C46.6235 223.511 44.5053 224.28 42.9041 225.744C41.3029 227.208 40.3497 229.248 40.2546 231.413C40.1594 233.579 40.93 235.694 42.3966 237.293C53.7845 249.739 68.3666 258.836 84.5632 263.599C85.3106 263.825 86.0876 263.938 86.8684 263.937C88.8457 263.949 90.7607 263.245 92.2589 261.957C93.757 260.668 94.7373 258.882 95.0184 256.928C95.2995 254.974 94.862 252.984 93.7876 251.327C92.7131 249.669 91.0738 248.456 89.1731 247.912ZM163.082 254.246C149.988 258.873 135.88 259.858 122.268 257.096C121.214 256.881 120.128 256.876 119.072 257.08C118.016 257.284 117.011 257.694 116.114 258.286C114.301 259.482 113.039 261.347 112.604 263.472C112.169 265.597 112.598 267.808 113.795 269.617C114.993 271.427 116.862 272.687 118.99 273.121C135.527 276.502 152.675 275.304 168.579 269.658C169.593 269.298 170.526 268.742 171.324 268.021C172.122 267.301 172.771 266.431 173.232 265.461C173.694 264.49 173.959 263.439 174.014 262.366C174.068 261.293 173.91 260.219 173.549 259.207C173.188 258.196 172.631 257.264 171.909 256.467C171.188 255.67 170.317 255.023 169.345 254.562C168.373 254.102 167.319 253.837 166.244 253.782C165.17 253.728 164.095 253.886 163.082 254.246ZM238.026 213.942C237.141 213.332 236.144 212.903 235.092 212.679C234.041 212.455 232.955 212.441 231.897 212.637C230.84 212.833 229.833 213.236 228.932 213.822C228.031 214.409 227.255 215.167 226.648 216.053C221.745 223.215 215.635 229.472 208.589 234.548C204.437 237.573 199.987 240.169 195.309 242.296C194.227 242.666 193.234 243.258 192.394 244.034C191.555 244.81 190.889 245.754 190.437 246.803C189.986 247.852 189.759 248.985 189.773 250.127C189.787 251.269 190.041 252.395 190.518 253.433C190.995 254.472 191.684 255.398 192.542 256.154C193.4 256.91 194.407 257.478 195.498 257.821C196.589 258.164 197.74 258.275 198.877 258.146C200.013 258.018 201.111 257.653 202.097 257.075C217.448 250.084 230.605 239.057 240.162 225.174C241.328 223.4 241.757 221.242 241.359 219.158C240.96 217.073 239.765 215.226 238.026 214.005V213.942ZM263.55 139.457C262.471 139.487 261.409 139.729 260.425 140.17C259.441 140.612 258.554 141.243 257.815 142.028C257.076 142.813 256.5 143.736 256.119 144.744C255.739 145.752 255.562 146.825 255.599 147.902C255.939 161.76 252.519 175.453 245.702 187.53C245.146 188.464 244.784 189.499 244.634 190.575C244.484 191.651 244.551 192.746 244.83 193.796C245.109 194.846 245.595 195.83 246.26 196.69C246.924 197.55 247.754 198.269 248.7 198.806C249.646 199.342 250.69 199.684 251.771 199.813C252.851 199.941 253.946 199.854 254.992 199.555C256.038 199.256 257.014 198.752 257.862 198.072C258.711 197.392 259.415 196.55 259.933 195.595C268.26 180.935 272.421 164.284 271.966 147.437C271.9 145.274 270.976 143.225 269.398 141.74C267.82 140.256 265.717 139.457 263.55 139.52V139.457ZM250.862 98.5614C252.468 103.439 253.566 108.47 254.139 113.572C254.324 115.605 255.265 117.495 256.775 118.871C258.286 120.246 260.258 121.007 262.302 121.004C262.612 121.025 262.923 121.025 263.233 121.004C264.302 120.889 265.339 120.563 266.282 120.045C267.225 119.527 268.056 118.828 268.726 117.988C269.397 117.147 269.894 116.183 270.188 115.149C270.483 114.116 270.57 113.035 270.444 111.968C268.546 95.2225 262.112 79.3105 251.835 65.9425C250.469 64.3415 248.538 63.3262 246.444 63.107C244.349 62.8878 242.249 63.4813 240.581 64.7647C238.912 66.048 237.802 67.9229 237.48 70.0011C237.158 72.0793 237.648 74.2018 238.85 75.9287C244.14 82.7492 248.218 90.4262 250.904 98.6248L250.862 98.5614ZM217.492 48.799C218.218 49.5906 219.094 50.2314 220.068 50.6853C221.042 51.1391 222.097 51.397 223.171 51.444C224.245 51.4911 225.317 51.3264 226.328 50.9595C227.338 50.5926 228.267 50.0307 229.059 49.3057C229.852 48.5807 230.494 47.7066 230.949 46.7339C231.404 45.7611 231.662 44.7087 231.709 43.6363C231.756 42.5639 231.591 41.4926 231.224 40.4838C230.856 39.4751 230.293 38.5484 229.567 37.7569C218.182 25.3174 203.609 16.221 187.422 11.4506C185.338 10.8374 183.096 11.0758 181.188 12.1132C179.28 13.1505 177.864 14.9019 177.25 16.9821C176.636 19.0623 176.874 21.3009 177.913 23.2053C178.952 25.1098 180.706 26.5243 182.79 27.1374C191.138 29.5952 199.005 33.4579 206.051 38.5592C210.211 41.6053 214.058 45.0566 217.535 48.8621L217.492 48.799ZM149.695 17.89C151.824 18.324 154.038 17.8959 155.85 16.7001C157.662 15.5044 158.925 13.639 159.36 11.514C159.794 9.389 159.366 7.17854 158.168 5.3691C156.97 3.55966 155.102 2.29931 152.973 1.86535C136.428 -1.49577 119.279 -0.298826 103.363 5.32786C101.537 5.97005 99.9987 7.23771 99.0206 8.90531C98.0424 10.5729 97.6878 12.5327 98.02 14.4366C98.3522 16.3404 99.3494 18.065 100.835 19.3042C102.32 20.5433 104.197 21.2166 106.133 21.2046C107.069 21.2051 107.998 21.0481 108.882 20.7402C121.996 16.1337 136.118 15.1703 149.738 17.9532L149.695 17.89Z" fill="currentColor"/>
    </symbol>
    <symbol id="arrow-down" viewBox="0 0 48 48">
        <path d="M10 16L24 30L38 16" fill="none" stroke="currentColor" stroke-width="2"/>
    </symbol>
    <symbol id="quote" viewBox="0 0 59 41">
        <path d="M33.2394 25.102C33.2394 20.751 33.9042 17.0136 35.2338 13.8898C36.5634 10.6544 38.2808 8.03266 40.3859 6.02449C42.4911 3.90476 44.8732 2.39864 47.5324 1.50612C50.3024 0.502041 53.0169 0 55.6761 0V5.85715C52.7953 5.85715 50.0808 6.86123 47.5324 8.86939C45.0948 10.766 43.6545 13.3878 43.2113 16.7347C43.5437 16.6231 43.9315 16.5116 44.3746 16.4C44.707 16.2884 45.0948 16.1769 45.538 16.0653C46.092 15.9537 46.7014 15.898 47.3662 15.898C50.6901 15.898 53.4601 17.181 55.6761 19.7469C57.892 22.2014 59 25.102 59 28.449C59 31.7959 57.8366 34.7524 55.5099 37.3184C53.2939 39.7728 50.3023 41 46.5352 41C42.3249 41 39.0563 39.4381 36.7296 36.3143C34.4028 33.0789 33.2394 29.3415 33.2394 25.102ZM0 25.102C0 20.751 0.664789 17.0136 1.99437 13.8898C3.32394 10.6544 5.04131 8.03266 7.14648 6.02449C9.25164 3.90476 11.6338 2.39864 14.293 1.50612C17.0629 0.502041 19.7775 0 22.4366 0V5.85715C19.5559 5.85715 16.8413 6.86123 14.293 8.86939C11.8554 10.766 10.415 13.3878 9.97183 16.7347C10.3042 16.6231 10.692 16.5116 11.1352 16.4C11.4676 16.2884 11.8554 16.1769 12.2986 16.0653C12.8526 15.9537 13.462 15.898 14.1268 15.898C17.4507 15.898 20.2207 17.181 22.4366 19.7469C24.6526 22.2014 25.7606 25.102 25.7606 28.449C25.7606 31.7959 24.5972 34.7524 22.2704 37.3184C20.0545 39.7728 17.0629 41 13.2958 41C9.08545 41 5.8169 39.4381 3.49014 36.3143C1.16338 33.0789 0 29.3415 0 25.102Z" fill="currentColor"/>
    </symbol>
    <symbol id="play" viewBox="0 0 61 70">
        <path d="M1.58593 2.4299L58.5859 35.3389L1.58593 68.2478L1.58593 2.4299Z" stroke="currentColor" stroke-width="2" fill="none"/>
    </symbol>
</svg>