<svg width="72" height="72" viewBox="0 0 72 72" fill="none" xmlns="http://www.w3.org/2000/svg">
<path fill-rule="evenodd" clip-rule="evenodd" d="M6 32L36 16L66 32L55 37.8667V53C55 53 47 61 36 61C25 61 17 53 17 53V37.8667L6 32ZM55 35.6L36 45.5L17 35.6L10.25 32L36 18.2667L61.75 32L55 35.6ZM19 38.9333V52.1221C19.1864 52.2852 19.4152 52.4798 19.684 52.6986C20.5448 53.3988 21.8076 54.339 23.3946 55.2794C26.5855 57.1703 30.9801 59 36 59C41.0199 59 45.4145 57.1703 48.6054 55.2794C50.1924 54.339 51.4552 53.3988 52.3159 52.6986C52.5848 52.4798 52.8136 52.2852 53 52.1221V38.9333L36 48L19 38.9333Z" fill="#1A1A1A"/>
<path d="M61 34L61 42" stroke="#1A1A1A" stroke-width="2"/>
<path d="M58.2198 49L59.8198 41H62.1802L63.7802 49H58.2198Z" stroke="#1A1A1A" stroke-width="2"/>
</svg>
