<svg width="120" height="13" viewBox="0 0 120 13" fill="none" xmlns="http://www.w3.org/2000/svg">
<g clip-path="url(#clip0_217_40)">
<path d="M13.2793 6.49988C13.2793 10.0854 10.3153 12.9917 6.64867 12.9917C2.98199 12.9917 0 10.0854 0 6.49988C0 2.91483 2.98199 0.00805664 6.64867 0.00805664C10.3153 0.00805664 13.2883 2.91431 13.2883 6.49936" fill="#E51E26"/>
<path d="M6.22797 4.69685C6.22797 4.69685 6.99552 3.72671 7.06776 3.60778C7.14159 3.48885 7.17027 3.39277 6.96258 3.26605C6.75436 3.13933 6.05959 2.74099 5.92149 2.63764C5.78338 2.53377 5.80782 2.15257 6.21469 2.07311C6.62104 1.99417 10.1507 1.7075 11.5253 1.85032C12.9 1.99365 12.713 2.37537 12.7205 2.6849C12.7284 2.99495 12.1675 3.44107 11.4191 4.10064C11.4191 4.10064 10.1831 5.22191 9.28061 5.99314C8.37709 6.76436 5.49018 9.14193 4.92873 9.57143C4.36781 10.0009 2.19214 11.5839 2.05085 11.6872C1.90956 11.7911 1.5149 12.1017 1.29977 11.8851C1.08465 11.6685 1.29977 11.4271 1.40866 11.279C1.51861 11.1321 5.9029 5.07909 6.22797 4.69685Z" fill="white"/>
<path d="M12.6366 2.21851C12.6929 2.35094 12.7428 2.6023 12.721 2.68488C12.6419 2.98506 12.1681 3.44001 11.4202 4.10062C11.4202 4.10062 10.1842 5.22188 9.28116 5.99311C8.37764 6.76434 5.49126 9.1419 4.93034 9.5714C4.36889 10.0009 2.19375 11.5834 2.05193 11.6872C1.94463 11.7662 1.46498 11.8342 1.25464 11.8285C1.32263 11.9235 1.44374 12.0289 1.56962 12.1468C1.79112 12.3572 2.17888 12.0534 2.3207 11.9495C2.46199 11.8467 4.6382 10.2632 5.19911 9.83367C5.76056 9.40417 8.64748 7.02661 9.54994 6.25538C10.4524 5.48415 11.689 4.36237 11.689 4.36237C12.4368 3.70228 12.8458 3.34341 12.9255 3.04271C12.9606 2.90612 13.0105 2.47195 12.6366 2.21851Z" fill="#E51E26"/>
<path fill-rule="evenodd" clip-rule="evenodd" d="M22.8404 0.584173V8.85164C22.8404 10.6745 21.2405 12.0591 19.127 12.0591C17.0145 12.0591 15.4136 10.6745 15.4136 8.85164V2.52705C15.4136 1.45823 16.2735 0.584173 17.3465 0.584173H17.4814V8.8371C17.4814 9.8171 18.3573 10.4185 19.2029 10.4185C20.0172 10.4185 20.8942 9.86177 20.8942 8.8371V2.42214C20.8942 1.41253 21.7234 0.583654 22.7342 0.583654H22.8404V0.584173ZM27.0707 3.61144C29.8184 3.61144 30.2598 5.17623 30.2598 6.11313V11.9495H30.1722C29.1576 11.9495 28.2908 11.0853 28.2908 10.0576V6.14273C28.2908 5.59171 28.0693 4.93577 26.9973 4.93577C26.498 4.93577 26.2032 4.99602 25.8798 5.11547V11.9495H23.9107V4.22219C24.7505 3.8493 26.1013 3.61144 27.0707 3.61144ZM32.3574 0.807492C32.9619 0.807492 33.4452 1.24894 33.4452 1.79321C33.4452 2.32346 32.9619 2.75036 32.3574 2.75036C31.7524 2.75036 31.2531 2.32346 31.2531 1.79321C31.2526 1.24894 31.7524 0.807492 32.3574 0.807492ZM33.347 3.707V10.0955C33.3453 10.588 33.1439 11.0597 32.7871 11.4072C32.4302 11.7548 31.9469 11.9498 31.4432 11.9495H31.3514V3.707H33.347ZM38.8908 0.462646C39.8219 0.462646 40.6941 0.672981 41.4176 1.12273V3.10456C40.9751 2.51926 40.3398 2.11469 39.32 2.11469C37.3095 2.11469 36.0692 4.12559 36.0692 6.21284C36.0692 8.18012 37.369 10.3261 39.32 10.3261C40.1768 10.3261 40.9597 10.0716 41.4176 9.44058V11.3912C40.8423 11.828 39.9409 12.0674 38.8765 12.0674C35.6841 12.0674 34.0008 9.09469 34.0008 6.22738C34.0008 3.40578 35.6841 0.462646 38.8908 0.462646ZM44.875 3.60988C45.208 3.60988 45.6314 3.64 46.009 3.69973V5.29308C45.3137 4.8023 44.3911 4.96641 43.9831 5.17467V10.0737C43.9831 11.0999 43.1221 11.9495 42.0778 11.9495H41.9721V4.25075C42.7593 3.87838 43.5609 3.60988 44.875 3.60988Z" fill="white"/>
<path d="M53.2849 7.55005C53.2849 5.04525 52.0611 3.59835 49.8525 3.59835C47.6157 3.59835 46.2549 5.25403 46.2549 7.80246C46.2549 10.4277 47.722 12.0668 50.1861 12.0668C51.5475 12.0668 52.4993 11.7396 53.0146 11.4701V9.81648C52.4999 10.1738 51.7886 10.6215 50.3826 10.6215C49.1131 10.6215 48.4167 9.90581 48.25 8.54876L53.2849 7.86322V7.55005ZM48.1299 7.19222C48.1299 5.71728 48.659 4.92528 49.7925 4.8962H49.8679C50.4283 4.8962 51.4715 5.07433 51.531 6.72897L48.1299 7.19222ZM60.4456 0.852051C60.1948 0.852186 59.9465 0.900701 59.7149 0.994817C59.4833 1.08893 59.2729 1.2268 59.0959 1.40052C58.9188 1.57424 58.7786 1.78041 58.6832 2.00721C58.5878 2.234 58.539 2.47698 58.5398 2.72221V4.14886C58.1777 4.06852 57.8073 4.02914 57.436 4.03149C55.2577 4.03149 53.8517 5.65133 53.8517 8.16704C53.8517 10.6552 55.1977 12.0388 57.6618 12.0678H57.7988C58.4644 12.0678 60.0515 11.95 60.5354 11.8461V0.852051H60.4456ZM58.4288 10.8479C58.1535 10.8906 57.8756 10.9159 57.597 10.9237C56.3434 10.9237 55.7219 10.0029 55.7219 8.14211C55.7219 6.81206 56.0699 5.20936 57.7335 5.20936C57.99 5.20936 58.2179 5.23948 58.4293 5.29973V10.8479H58.4288Z" fill="white"/>
<path fill-rule="evenodd" clip-rule="evenodd" d="M62.6729 0.807373C63.2779 0.807373 63.7623 1.24882 63.7623 1.79309C63.7623 2.32334 63.2779 2.75025 62.6729 2.75025C62.0679 2.75025 61.5691 2.32334 61.5691 1.79309C61.5691 1.24882 62.0684 0.807373 62.6729 0.807373ZM63.6306 3.64352V10.0751C63.6303 10.5696 63.4295 11.0437 63.0723 11.3937C62.715 11.7437 62.2304 11.9409 61.7247 11.9421H61.635V3.64352H63.6306ZM66.8229 0.852037V3.64352H67.9734V5.19065H66.8229V9.65391C66.8229 10.1836 67.0046 10.3452 67.5942 10.3452C67.745 10.3452 67.9724 10.3015 68.1227 10.2423V11.8762C68.0318 11.9053 67.6398 12.0668 67.1108 12.0668C65.6288 12.0668 64.8124 11.36 64.8124 10.0793V5.19065H64.3158V3.64352H64.8124V2.7061C64.8124 1.6913 65.6586 0.851517 66.7029 0.851517H66.8229V0.852037Z" fill="white"/>
<path d="M77.5623 5.74643V5.70124C78.5625 5.49195 79.8245 4.91807 79.8245 3.37717C79.8245 1.7163 78.4153 0.50415 75.5959 0.50415C74.1713 0.50415 72.974 0.773172 72.2617 1.13204V11.9043C72.2617 11.9043 73.1865 11.949 75.7324 11.949C78.3994 11.949 80.2192 10.9622 80.2192 8.71708C80.2187 7.07232 78.6522 5.95624 77.5623 5.74643ZM74.2924 1.86691C74.687 1.74746 75.0806 1.6867 75.5953 1.6867C77.0056 1.6867 77.7328 2.27096 77.7328 3.51168C77.7328 4.87341 77.0348 5.26759 74.959 5.20683L74.2918 5.19177V1.86691H74.2924ZM75.6564 10.6646H74.2929V6.24032L74.9601 6.22474C77.1729 6.1645 78.0515 7.13308 78.0515 8.68904C78.0509 10.1396 77.0502 10.6646 75.6564 10.6646ZM102.016 3.55998C100.722 3.55998 99.8927 3.91937 99.3684 4.17333V5.50441C100.255 5.04064 100.888 4.64957 101.685 4.64957C102.648 4.64957 103.309 5.09465 103.309 6.15671V6.71033C100.799 6.95027 98.6944 7.40574 98.6944 9.5605C98.6944 11.1315 99.8523 12.0601 102.076 12.0601H102.498C103.279 12.0601 104.573 11.9962 105.128 11.8913V6.56492C105.128 4.46987 103.716 3.55998 102.016 3.55998ZM103.583 10.8267C103.388 10.8682 102.618 10.8957 102.197 10.8957C101.114 10.8957 100.482 10.4636 100.482 9.50285C100.482 8.20605 101.824 7.92093 103.583 7.76668V10.8267Z" fill="white"/>
<path fill-rule="evenodd" clip-rule="evenodd" d="M108.883 3.55998C111.598 3.55998 112.033 5.13359 112.033 6.07673V11.949H111.946C110.945 11.949 110.089 11.0796 110.089 10.0466V6.10685C110.089 5.55271 109.872 4.89314 108.812 4.89314C108.318 4.89314 108.028 4.95338 107.71 5.07283V11.949H105.765V4.17436C106.593 3.80095 107.926 3.55998 108.883 3.55998ZM115.15 10.0315C115.15 11.0931 114.303 11.949 113.166 11.949H113.15V2.7446C113.15 1.68254 113.999 0.82666 115.135 0.82666H115.15V7.52414L117.752 3.64359H119.646L116.858 7.58231L120 11.949H117.877L115.15 7.86172V10.0315ZM88.2678 11.9479H90.2491V0.852627H90.1572C89.9065 0.852763 89.6584 0.901251 89.4269 0.995314C89.1954 1.08938 88.9851 1.22717 88.8082 1.40079C88.6313 1.57442 88.4911 1.78047 88.3957 2.00714C88.3004 2.23381 88.2517 2.47665 88.2525 2.72175L88.2678 11.9479Z" fill="white"/>
<path d="M94.7419 4.03118C94.3191 4.03118 93.6812 4.07584 93.3641 4.14907V0.852783H93.2727C93.022 0.852919 92.7738 0.901407 92.5424 0.99547C92.3109 1.08953 92.1006 1.22732 91.9237 1.40095C91.7468 1.57458 91.6066 1.78063 91.5112 2.0073C91.4159 2.23397 91.3672 2.47681 91.3679 2.72191V11.8468C91.8518 11.9496 93.6791 12.0675 94.3446 12.0675H94.4806C96.9447 12.0385 98.1882 10.6549 98.1882 8.16725C98.1892 5.6505 96.9192 4.03118 94.7419 4.03118ZM94.5194 10.8943C94.3149 10.8943 93.6429 10.8123 93.4639 10.7827V5.1914C93.6833 5.13531 94.1667 5.06675 94.419 5.06675C96.0821 5.06675 96.498 6.76865 96.498 8.06442C96.498 9.8759 95.6508 10.8943 94.5194 10.8943Z" fill="white"/>
<path fill-rule="evenodd" clip-rule="evenodd" d="M87.0457 3.67847H86.9575C85.9228 3.67847 85.0947 4.51721 85.0947 5.54759L85.0989 10.4855C84.7792 10.6045 84.4897 10.6637 83.9957 10.6637C82.9349 10.6637 82.7177 10.0145 82.7177 9.46865L82.7166 3.67847H82.6284C81.5937 3.67847 80.7656 4.51721 80.7656 5.54759L80.7709 8.76961H80.7715V9.72677C80.7715 10.6564 81.2979 12.1132 84.0132 12.1132C84.973 12.1132 86.0216 12.0597 87.0462 11.8587V3.67847H87.0457Z" fill="white"/>
</g>
<defs>
<clipPath id="clip0_217_40">
<rect width="120" height="13" fill="white"/>
</clipPath>
</defs>
</svg>
